<?xml version="1.0" encoding="UTF-8" standalone="no"?>
<svg
   xmlns:dc="http://purl.org/dc/elements/1.1/"
   xmlns:cc="http://creativecommons.org/ns#"
   xmlns:rdf="http://www.w3.org/1999/02/22-rdf-syntax-ns#"
   xmlns:svg="http://www.w3.org/2000/svg"
   xmlns="http://www.w3.org/2000/svg"
   version="1.1"
   id="svg16792"
   height="310"
   width="260">
  <defs
     id="defs16794" />
  <metadata
     id="metadata16797">
    <rdf:RDF>
      <cc:Work
         rdf:about="">
        <dc:format>image/svg+xml</dc:format>
        <dc:type
           rdf:resource="http://purl.org/dc/dcmitype/StillImage" />
        <dc:title></dc:title>
      </cc:Work>
    </rdf:RDF>
  </metadata>
  <g
     transform="translate(-58.907862,-630.59358)"
     id="layer1">
    <path
       id="rect2985-4-9-7-6"
       d="m 238.90785,630.59358 0,10 -20,0 0,10 -10,0 0,10 -10,0 0,20 -10,0 0,30 10,0 0,-10 20,0 0,-10 10,0 0,-10 10,0 0,-20 10,0 0,-30 z m -119.99999,70 0,10 -19.999998,0 0,10 -10,0 0,10 -10,0 0,10 -10,0 0,30 -10,0 0,50 10,0 0,40 10,0 0,20 10,0 0,20 10,0 0,20 9.999998,0 0,10 10,0 0,10 49.99999,0 0,-10 50,0 0,10 50,0 0,-10 10,0 0,-10 10,0 0,-10 10,0 0,-20 10,0 0,-20 10,0 0,-10 -10,0 0,-10 -10,0 0,-10 -10,0 0,-10 -10,0 0,-70 10,0 0,-10 10,0 0,-10 10,0 0,-10 -10,0 0,-10 -10,0 0,-10 -20,0 0,-10 -30,0 0,10 -30,0 0,10 -30,0 0,-10 -30,0 0,-10 z"
       style="fill:#000000;stroke:none" />
  </g>
</svg>
