<?xml version="1.0" encoding="UTF-8" standalone="no"?>
<!-- Created with Inkscape (http://www.inkscape.org/) -->

<svg
   xmlns:dc="http://purl.org/dc/elements/1.1/"
   xmlns:cc="http://creativecommons.org/ns#"
   xmlns:rdf="http://www.w3.org/1999/02/22-rdf-syntax-ns#"
   xmlns:svg="http://www.w3.org/2000/svg"
   xmlns="http://www.w3.org/2000/svg"
   xmlns:xlink="http://www.w3.org/1999/xlink"
   xmlns:sodipodi="http://sodipodi.sourceforge.net/DTD/sodipodi-0.dtd"
   xmlns:inkscape="http://www.inkscape.org/namespaces/inkscape"
   width="210mm"
   height="297mm"
   viewBox="0 0 744.09448819 1052.3622047"
   id="svg2"
   version="1.1"
   inkscape:version="0.91 r"
   sodipodi:docname="Armed_Bat.svg">
  <defs
     id="defs4" />
  <sodipodi:namedview
     id="base"
     pagecolor="#ffffff"
     bordercolor="#666666"
     borderopacity="1.0"
     inkscape:pageopacity="0.0"
     inkscape:pageshadow="2"
     inkscape:zoom="0.98994949"
     inkscape:cx="916.48158"
     inkscape:cy="967.33198"
     inkscape:document-units="px"
     inkscape:current-layer="layer2"
     showgrid="false"
     inkscape:window-width="1920"
     inkscape:window-height="1030"
     inkscape:window-x="0"
     inkscape:window-y="0"
     inkscape:window-maximized="1"
     inkscape:snap-global="false" />
  <metadata
     id="metadata7">
    <rdf:RDF>
      <cc:Work
         rdf:about="">
        <dc:format>image/svg+xml</dc:format>
        <dc:type
           rdf:resource="http://purl.org/dc/dcmitype/StillImage" />
        <dc:title></dc:title>
        <dc:creator>
          <cc:Agent>
            <dc:title>Создатель оригинального изображения не известен.</dc:title>
          </cc:Agent>
        </dc:creator>
      </cc:Work>
    </rdf:RDF>
  </metadata>
  <g
     inkscape:label="Фон"
     inkscape:groupmode="layer"
     id="layer1"
     sodipodi:insensitive="true"
     style="display:inline">
    <image
       sodipodi:absref="/home/user/Изображения/Летучая_Мыша.png"
       y="-671.03058"
       x="-616.42859"
       id="image3482"
       xlink:href="file:///home/user/%D0%98%D0%B7%D0%BE%D0%B1%D1%80%D0%B0%D0%B6%D0%B5%D0%BD%D0%B8%D1%8F/%D0%9B%D0%B5%D1%82%D1%83%D1%87%D0%B0%D1%8F_%D0%9C%D1%8B%D1%88%D0%B0.png"
       preserveAspectRatio="none"
       height="3172.5"
       width="2250" />
  </g>
  <g
     inkscape:groupmode="layer"
     id="layer2"
     inkscape:label="Главный"
     style="display:inline">
    <path
       style="fill:#00ff00;fill-opacity:0.2255319;fill-rule:evenodd;stroke:none;stroke-width:1px;stroke-linecap:butt;stroke-linejoin:miter;stroke-opacity:1"
       d="m 1252.9141,-130.5332 c -1.7785,-0.0469 -3.7827,3.52723 -4.6993,7.55078 -0.5748,2.52344 -2.0253,13.88387 -4.5859,25.056639 -2.8963,12.637927 -7.5863,23.836046 -8.6289,28.859375 -1.9643,9.464286 -20.1783,103.034876 -22.1426,107.677734 -1.9642,4.642857 -3.7498,-1.964006 -3.3926,-4.642578 0.3571,-2.678571 6.4272,-84.463448 8.2129,-88.927734 1.7857,-4.464286 3.7514,-13.393136 4.2871,-20.357422 0.5357,-6.964286 -6.2505,-17.321429 -6.9648,-20 -0.7143,-2.678572 1.4299,-7.143414 3.0371,-13.214844 1.521,-5.74614 -1.1874,-10.33024 -3.9297,-8.03516 -5.6993,4.76989 -7.1508,30.688214 -9.8222,40.53516 -2.5,8.928571 -7.4987,24.108259 -8.2129,40.179688 -0.7143,16.071428 -1.2274,25.497041 -1.9649,36.78515575 -0.8291,12.69074425 -3.9291,35.35742225 -4.4648,52.85742225 -0.2295,7.496489 -0.177,11.965121 -5.3555,17.322265 -3.3117,3.425941 -1.4683,-16.140335 0.5352,-45.357422 2.1429,-31.2499987 4.1058,-65.180524 0.7129,-80.001953 -3.3929,-14.821428 -7.142,-15.892857 -10.1778,-18.75 -3.0357,-2.857143 -8.7512,-18.92634 -10.1797,-22.140625 -1.4286,-3.214286 -3.5706,-2.501395 -5.1777,0.712891 -1.1924,2.384819 0.8553,10.849969 2.0664,16.015625 1.1975,2.891321 3.2964,8.898902 3.9922,10.429687 3.7879,8.333759 1.6785,43.517237 2.1836,57.154297 0.5051,13.6370605 -4.3391,105.377967 -6.3594,116.742189 -1.1323,6.36955 -5.8023,27.52356 -8.4707,28.06836 -2.0394,0.41641 0.3698,-10.43388 2.8926,-30.83008 5.7366,-46.380363 2.3406,-121.051215 0.3203,-132.667969 -2.0203,-11.616755 -4.1293,-18.671308 -10.6953,-23.974609 -6.566,-5.3033 -6.4291,-17.14355 -12.3574,-18.38086 -1.0984,-0.229258 -4.6728,-0.266148 -2.25,6.060547 2.4228,6.326695 5.7551,22.583707 6.8672,38.0625 1.1338,15.780801 3.2832,74.246546 3.2832,90.914063 0,16.667517 -5.304,52.022678 -4.7989,59.093748 0.505,7.07107 -5.3045,33.33597 -7.0722,40.91211 -1.7678,7.57615 -14.6471,18.68919 -6.8184,0.25391 7.8286,-18.43528 6.3147,-69.703004 9.5977,-89.14844 3.283,-19.445437 -8.85,-99.397616 -12.8789,-105.306641 -3.627,-5.319632 -12.8801,-10.355289 -17.4258,-14.648437 -4.5457,-4.293149 -12.3859,-15.207648 -17.4258,-12.375 -3.613,2.030632 -0.2581,5.770824 6.8594,12.974609 23.9189,24.208722 23.1859,77.712795 22.6894,93.84961 -0.8763,28.485041 -5.9291,104.750229 -12.4453,150.775389 -2.3859,16.85212 -9.2976,24.08279 -10.1113,31.35156 -0.432,3.85862 1.9908,4.0546 2.8574,2.98438 19.7971,-24.44756 40.6159,-41.93681 57.0742,-31.31445 20.605,13.29866 40.1723,31.10277 60.4649,48.125 1.4848,1.24549 5.1271,0.35482 5.2089,-1.03516 1.2312,-20.93946 2.9513,-47.22312 6.3204,-74.08399 0.4556,-3.63226 3.6103,-3.57184 3.75,-0.35742 0.055,1.25447 -7.0358,74.20474 -4.4161,83.03711 2.6197,8.83237 9.5154,14.79812 11.7598,9.1543 2.2121,-5.56275 -6.1162,-5.41365 0,-42.86914 2.9432,-18.03625 13.4599,-79.21892 19.6914,-106.63281 2.517,-11.073 7.3397,-10.14776 4.9317,-0.0645 -5.7182,23.94599 -12.1621,72.81167 -12.1211,116.04102 0.014,15.16399 2.0097,38.73766 3.5781,54.98633 4.2064,4.39913 8.1933,8.6422 11.8769,12.62695 -1.542,-24.35817 -2.9345,-56.88038 -2.4492,-90.84766 C 1261.4323,122.26429 1293,28.068359 1293,28.068359 c 0,0 -22.476,125.257741 -20.2031,214.656251 0.9343,36.74833 4.5369,62.5446 7.6894,78.60156 6.72,7.66915 10.7012,12.46094 10.7012,12.46094 0,0 -22.0462,-52.71417 0.9902,-240.38086 7.8299,-63.786423 30.0421,-134.997457 52.8385,-184.984933 0.7714,-1.69146 -0.8341,-5.271789 -3.4088,-4.452567 -3.9285,1.25 -10.4633,15.595833 -13.4815,18.929966 -3.1003,3.424769 -7.8583,8.303571 -13.4833,16.607143 -4.1932,6.190047 -10.2789,22.649478 -14.6426,34.285157 -3.7377,9.966509 -5.5322,5.10315 -3.5723,-1.964844 5.278,-19.033728 13.7514,-51.071987 14.2871,-56.964844 0.5357,-5.892857 7.129,-19.249718 9.3736,-21.963728 3.4514,-4.17309 0.1323,-7.9324 -4.0806,-6.89174 -1.7184,0.42447 -3.9338,4.88358 -5.2715,8.08984 -3.9775,9.533315 -11.4483,20.548844 -14.4788,26.736052 -2.9326,5.987536 -10.0814,18.847571 -11.0915,22.383092 -1.0102,3.535547 -9.8221,36.015231 -10.416,39.90039 -1.0001,6.542341 -3.9473,9.7618464 -4.2949,0.56836 -0.082,-2.163037 7.6398,-46.782637 7.1347,-52.085938 -0.505,-5.3033 6.9144,-37.072616 9.1016,-39.660156 2.9412,-3.47954 6.7034,-6.46272 4.9356,-10.75586 -0.5772,-1.40162 -2.144,-2.27406 -2.9766,-2.16992 -2.8442,0.35572 -4.1792,2.09904 -6.4121,4.99219 -3.398,4.40277 -20.5583,39.259394 -21.5684,45.320309 -1.0102,6.060916 -8.2611,34.593619 -9.5957,40.660156 -1.3889,6.313453 -7.3424,35.1188706 -7.8301,36.8691406 -4.3181,15.4970664 -8.5156,19.8898784 -5.3027,-1.2617187 0.2031,-1.8055573 7.9408,-48.2032219 9.8496,-56.9472659 2.0148,-9.229206 0.4662,-32.80137 1.7676,-37.501953 1.2926,-4.670331 4.7872,-25.039558 5.6387,-32.160158 0.8516,-7.12061 -1.216,-9.48746 -2.2832,-9.51562 z"
       id="path4155"
       inkscape:connector-curvature="0"
       sodipodi:nodetypes="ccssccssscscssssssccscssscsssssssccssssssssccsscscsscsccccscsccssssssssssssssccscsscsscsccc" />
    <path
       style="color:#000000;clip-rule:nonzero;display:inline;overflow:visible;visibility:visible;opacity:1;isolation:auto;mix-blend-mode:normal;color-interpolation:sRGB;color-interpolation-filters:linearRGB;solid-color:#000000;solid-opacity:1;fill:#00ff00;fill-opacity:0.2255319;fill-rule:evenodd;stroke:none;stroke-width:1px;stroke-linecap:butt;stroke-linejoin:miter;stroke-miterlimit:4;stroke-dasharray:none;stroke-dashoffset:0;stroke-opacity:1;color-rendering:auto;image-rendering:auto;shape-rendering:auto;text-rendering:auto;enable-background:accumulate;filter-blend-mode:normal;filter-gaussianBlur-deviation:0"
       d="M 1282.8262 -182.47461 C 1281.7553 -182.46606 1280.703 -182.44396 1279.6719 -182.4082 C 1178.4121 -166.48337 1083.0596 -116.325 994.28516 -58.888672 C 911.96374 -4.9601007 886.14679 32.81674 869.49414 52.283203 C 859.83222 63.577701 857.30386 66.787451 848.70508 78.113281 C 846.52637 80.98296 839.58136 91.770368 847.73438 90.341797 C 854.90936 89.084594 860.60654 73.61113 867.42188 66.697266 C 886.18917 47.658632 899.29919 38.623354 927.85742 16.648438 C 995.84324 -35.665129 1074.7159 -67.719324 1152.1426 -103.35156 C 1177.1136 -114.84336 1230 -139.06697 1255 -139.78125 C 1280 -140.49554 1327.8571 -134.06612 1340 -126.20898 C 1352.1429 -118.35183 1360.7326 -113.15824 1366.0723 -106.11914 C 1372.6971 -97.385864 1376.627 -68.599609 1376.627 -68.599609 C 1376.627 -68.599609 1386.8281 -87.116327 1390.8652 -92.511719 C 1396.4062 -99.916883 1404.0543 -112.29913 1408.1094 -120.37305 C 1413.3658 -130.83851 1412.2175 -133.06552 1403.0742 -140.63281 C 1367.7397 -169.87698 1316.0229 -182.73967 1282.8262 -182.47461 z M 1311.9863 -163.61523 C 1312.6706 -163.57804 1313.3594 -163.42993 1313.7793 -163.23438 C 1324.8697 -158.06983 1324.5314 -143.63789 1332.0957 -140.05859 C 1337.3567 -137.56916 1330.6528 -155.87731 1332.5898 -154.51367 C 1336.8734 -151.49797 1342.8837 -135.95399 1345.252 -134.45898 C 1354.2882 -128.75481 1345.3136 -150.59232 1348.0801 -149.26758 C 1353.1967 -146.81753 1359.6902 -127.75173 1362.1328 -126.33594 C 1367.2016 -123.39797 1361.3965 -143.29901 1365.3496 -140.12695 C 1371.6967 -135.03392 1369.9643 -122.75253 1374.8008 -119.53125 C 1378.3613 -117.15957 1380.379 -123.29457 1378.2832 -127.53125 C 1375.7007 -132.75184 1376.0952 -135.4993 1379.2891 -135.23633 C 1385.8311 -134.6977 1379.6727 -123.6892 1385.9844 -117.90039 C 1386.6441 -117.29539 1389.7748 -115.14707 1390.2598 -118.27734 C 1390.7518 -121.45234 1387.4774 -130.74723 1389.084 -131.42578 C 1393.8767 -133.45002 1392.7442 -125.0828 1395.0566 -122.03516 C 1396.6986 -119.87118 1400.2369 -121.57022 1399.7754 -120.07031 C 1397.7551 -113.50432 1389.9627 -102.50018 1383.6562 -95.675781 C 1381.4223 -93.258367 1379.578 -94.165034 1378.6055 -96.181641 C 1374.0925 -105.53985 1366.7369 -117.90021 1361.4336 -122.19336 C 1356.1303 -126.48651 1347.0393 -131.03128 1318.25 -141.13281 C 1289.4606 -151.23433 1256.377 -146.9418 1241.9824 -145.93164 C 1227.5877 -144.92149 1197.2834 -131.78924 1185.4141 -127.49609 C 1173.5448 -123.20294 1069.2475 -72.189822 1054.3477 -66.128906 C 1039.448 -60.067991 979.59514 -26.732474 960.02344 -14.484375 C 944.32369 -4.6593775 889.09471 41.421376 889.06836 41.443359 C 889.10454 41.403484 917.21786 10.424659 954.67578 -16.617188 C 971.70576 -28.911574 995.32804 -47.936234 1014.8496 -59.042969 C 1019.6551 -61.777075 1023.1832 -58.02362 1027.6426 -60.447266 C 1030.6084 -62.059131 1029.0686 -66.515582 1030.8262 -68.189453 C 1033.1077 -70.362296 1038.8161 -69.051682 1041.0723 -70.6875 C 1042.9119 -72.021246 1043.2032 -75.902773 1045.6543 -76.171875 C 1048.9324 -76.531778 1053.4679 -72.194662 1057.2383 -73.919922 C 1059.3605 -74.891011 1056.5051 -80.376661 1058.7441 -81.574219 C 1061.1775 -82.875763 1066.0568 -80.319105 1069.0508 -83.308594 C 1070.2393 -84.495286 1067.3358 -89.004681 1069.4199 -89.900391 C 1074.4564 -92.064976 1082.3132 -86.91763 1084.2344 -87.748047 C 1086.3805 -88.675741 1079.913 -97.476662 1081.8984 -98.666016 C 1088.0444 -102.34779 1090.7943 -91.026283 1096.75 -94.212891 C 1099.397 -95.629155 1092.9857 -102.10858 1097.623 -104.55078 C 1101.6639 -106.67883 1109.5488 -99.325889 1112.0215 -100.54102 C 1117.9101 -103.43471 1104.6452 -109.08434 1111.1699 -112.84375 C 1119.9798 -117.91983 1122.8494 -104.07764 1130.0508 -108.03516 C 1134.854 -110.67472 1119.3335 -118.31023 1124.5625 -121.35938 C 1132.0173 -125.70648 1136.5879 -110.67016 1142.6973 -113.84961 C 1147.7218 -116.46446 1133.649 -123.02634 1138.5977 -125.94141 C 1146.4317 -130.5562 1148.2583 -116.24915 1155.3242 -119.99805 C 1159.2359 -122.07351 1151.5585 -129.16623 1154.1875 -130.33984 C 1163.7401 -134.60416 1163.5073 -120.53812 1171.4141 -125.99805 C 1173.8616 -127.68819 1164.1781 -134.57192 1169.166 -136.33398 C 1174.1053 -138.07887 1178.5082 -130.11027 1183.4102 -132.75586 C 1188.847 -135.69016 1176.1108 -140.86726 1180.5391 -143.07227 C 1187.2627 -146.4203 1195.9153 -135.80939 1201.4648 -138.70117 C 1205.0991 -140.59499 1191.5704 -147.25528 1196.7383 -149.16016 C 1201.8989 -151.06238 1209.1645 -142.26467 1213.3242 -143.26953 C 1217.7283 -144.33345 1209.8896 -150.05554 1214.3555 -151.4043 C 1216.9021 -152.17342 1222.0664 -146.74179 1228.0352 -147.55664 C 1231.451 -148.02296 1225.1524 -155.75054 1228.6074 -156.08203 C 1232.2049 -156.4272 1245.4654 -149.75975 1248.1719 -150.16211 C 1252.5912 -150.81909 1241.3765 -158.58262 1245.1367 -160.72656 C 1249.6939 -163.32498 1270.4854 -151.31967 1275.2559 -151.23438 C 1280.808 -151.13511 1270.092 -161.71282 1275.2461 -161.06641 C 1278.571 -160.64942 1292.5642 -150.60011 1296.293 -149.88086 C 1304.2544 -148.34518 1291.4394 -161.80727 1295.6172 -161.26758 C 1303.3493 -160.26877 1312.8597 -145.84958 1316.334 -144.78516 C 1325.3049 -142.03678 1310.2689 -160.12478 1309.8555 -162.5957 C 1309.7152 -163.43353 1310.8459 -163.67722 1311.9863 -163.61523 z "
       id="path4215" />
  </g>
</svg>
