<?xml version="1.0" encoding="UTF-8" standalone="no"?>
<svg
   xmlns:dc="http://purl.org/dc/elements/1.1/"
   xmlns:cc="http://creativecommons.org/ns#"
   xmlns:rdf="http://www.w3.org/1999/02/22-rdf-syntax-ns#"
   xmlns:svg="http://www.w3.org/2000/svg"
   xmlns="http://www.w3.org/2000/svg"
   width="205.61905mm"
   height="169.33334mm"
   viewBox="0 0 728.57143 600.00003"
   id="svg4640"
   version="1.1">
  <defs
     id="defs4642" />
  <metadata
     id="metadata4645">
    <rdf:RDF>
      <cc:Work
         rdf:about="">
        <dc:format>image/svg+xml</dc:format>
        <dc:type
           rdf:resource="http://purl.org/dc/dcmitype/StillImage" />
        <dc:title></dc:title>
      </cc:Work>
    </rdf:RDF>
  </metadata>
  <rect
     y="1.0171228e-05"
     x="0"
     height="600"
     width="728.57141"
     id="rect4137"
     style="color:#000000;clip-rule:nonzero;display:inline;overflow:visible;visibility:visible;opacity:1;isolation:auto;mix-blend-mode:normal;color-interpolation:sRGB;color-interpolation-filters:linearRGB;solid-color:#000000;solid-opacity:1;fill:#ffffff;fill-opacity:1;fill-rule:evenodd;stroke:none;stroke-width:5;stroke-linecap:round;stroke-linejoin:round;stroke-miterlimit:4;stroke-dasharray:none;stroke-dashoffset:0;stroke-opacity:1;color-rendering:auto;image-rendering:auto;shape-rendering:auto;text-rendering:auto;enable-background:accumulate" />
  <g
     id="layer5"
     transform="translate(-229.99999,-52.362264)">
    <g
       id="g5197"
       transform="matrix(4.2857143,0,0,4.2857143,-755.71429,-2143.4757)">
      <path
         id="rect4956"
         d="m 310,512.36219 0,10 10,0 0,-10 -10,0 z m 10,10 0,10 10,0 0,-10 -10,0 z m 0,10 -10,0 0,10 -10,0 0,10 -10,0 0,10 10,0 0,10 10,0 0,40 -10,0 0,-10 -10,0 0,10 -10,0 0,10 10,0 0,30 50,0 0,-30 10,0 0,-10 -10,0 0,-10 -10,0 0,10 -10,0 0,-40 10,0 0,-10 10,0 0,-10 -10,0 0,-10 -10,0 0,-10 z m 20,20 10,0 0,-10 -10,0 0,10 z m 10,0 0,10 10,0 0,-10 -10,0 z m 0,10 -10,0 0,10 10,0 0,-10 z m -10,40 20,0 0,-10 -20,0 0,10 z m 20,0 0,20 10,0 0,10 10,0 0,10 20,0 0,-20 -10,0 0,-10 -10,0 0,-10 -20,0 z m -70,0 0,-10 -20,0 0,10 20,0 z m -20,0 -20,0 0,10 -10,0 0,10 -10,0 0,20 20,0 0,-10 10,0 0,-10 10,0 0,-20 z m 20,-40 -10,0 0,10 10,0 0,-10 z m -10,0 0,-10 -10,0 0,10 10,0 z m 0,-10 10,0 0,-10 -10,0 0,10 z m 30,-20 0,-10 -10,0 0,10 10,0 z m 0,20 10,0 0,10 -10,0 0,-10 z"
         style="color:#000000;clip-rule:nonzero;display:inline;overflow:visible;visibility:visible;opacity:1;isolation:auto;mix-blend-mode:normal;color-interpolation:sRGB;color-interpolation-filters:linearRGB;solid-color:#000000;solid-opacity:1;fill:#ee7a7a;fill-opacity:1;fill-rule:evenodd;stroke:none;stroke-width:5;stroke-linecap:round;stroke-linejoin:round;stroke-miterlimit:4;stroke-dasharray:none;stroke-dashoffset:0;stroke-opacity:1;color-rendering:auto;image-rendering:auto;shape-rendering:auto;text-rendering:auto;enable-background:accumulate" />
      <path
         id="rect5034"
         d="m 310,512.36219 10,10 0,-10 -10,0 z m -10,10 0,10 10,-10 -10,0 z m 30,0 -10,10 10,0 0,-10 z m -10,10 -10,0 0,10 10,-10 z m -10,10 -10,0 10,10 10,-10 -10,0 z m 10,0 10,10 0,-10 -10,0 z m 10,10 10,10 0,-10 -10,0 z m 0,0 -10,10 10,0 0,-10 z m 0,10 -10,10 10,0 0,-10 z m -10,0 -10,0 0,10 10,-10 z m -10,10 0,10 10,0 -10,-10 z m 10,10 -10,10 10,0 0,-10 z m 0,10 -10,10 10,10 0,-10 0,-10 z m 0,20 -10,0 10,10 0,-10 z m 0,10 0,10 10,-10 0,-10 -10,10 z m 10,-10 10,0 0,-10 -10,10 z m 10,-10 10,-10 -10,0 0,10 z m 10,-10 0,10 10,-10 -10,0 z m -10,20 10,10 0,-10 -10,0 z m 0,0 -10,10 0,10 10,-10 0,-10 z m -10,20 -10,10 10,0 0,-10 z m 0,10 10,0 0,-10 -10,10 z m 0,0 -10,10 10,0 0,-10 z m 0,10 10,0 0,-10 -10,10 z m -10,0 0,-10 -10,-10 -10,10 10,0 10,10 z m -10,-10 -10,10 10,0 0,-10 z m -10,10 0,-10 -10,10 10,0 z m 0,-10 0,-10 -10,-10 0,10 10,10 z m -10,-20 10,0 10,-10 -10,0 -10,10 z m 10,0 0,10 10,-10 -10,0 z m 10,0 0,10 10,0 -10,-10 z m 0,-60 -10,-10 0,10 0,10 10,-10 z m -10,0 -10,-10 0,10 10,0 z m -10,0 -10,0 0,10 10,-10 z m -10,0 0,-10 -10,0 10,10 z m 0,-10 10,0 0,-10 -10,10 z m 60,0 10,0 -10,-10 0,10 z m 10,0 10,10 0,-10 -10,0 z m -10,10 10,10 0,-10 -10,0 z m -70,30 0,10 10,0 -10,-10 z m 10,10 10,0 0,-10 -10,10 z m 10,0 0,10 10,-10 -10,0 z m 0,10 -10,0 0,10 10,-10 z m -40,-10 0,10 10,10 0,-10 -10,-10 z m 10,10 10,10 0,-10 -10,-10 0,10 z m 0,10 -10,0 10,10 0,-10 z m -10,0 -10,10 0,10 10,-10 0,-10 z m 0,0 0,-10 -10,0 10,10 z m -10,10 0,-10 -10,10 0,10 10,-10 z m 130,-30 -10,10 0,10 10,-10 0,-10 z m 0,10 0,10 10,-10 0,-10 -10,10 z m 10,0 0,10 10,-10 -10,0 z m 0,10 0,10 10,10 0,-10 -10,-10 z m 0,0 -10,0 0,10 10,-10 z m 10,10 10,10 0,-10 -10,-10 0,10 z"
         style="color:#000000;clip-rule:nonzero;display:inline;overflow:visible;visibility:visible;opacity:1;isolation:auto;mix-blend-mode:normal;color-interpolation:sRGB;color-interpolation-filters:linearRGB;solid-color:#000000;solid-opacity:1;fill:#e22121;fill-opacity:1;fill-rule:evenodd;stroke:none;stroke-width:5;stroke-linecap:round;stroke-linejoin:round;stroke-miterlimit:4;stroke-dasharray:none;stroke-dashoffset:0;stroke-opacity:1;color-rendering:auto;image-rendering:auto;shape-rendering:auto;text-rendering:auto;enable-background:accumulate" />
    </g>
  </g>
</svg>
