<?xml version="1.0" encoding="UTF-8" standalone="no"?>
<svg
   xmlns:dc="http://purl.org/dc/elements/1.1/"
   xmlns:cc="http://creativecommons.org/ns#"
   xmlns:rdf="http://www.w3.org/1999/02/22-rdf-syntax-ns#"
   xmlns:svg="http://www.w3.org/2000/svg"
   xmlns="http://www.w3.org/2000/svg"
   version="1.1"
   id="svg2"
   viewBox="0 0 599.99998 599.99998"
   height="169.33333mm"
   width="169.33333mm">
  <defs
     id="defs4" />
  <metadata
     id="metadata7">
    <rdf:RDF>
      <cc:Work
         rdf:about="">
        <dc:format>image/svg+xml</dc:format>
        <dc:type
           rdf:resource="http://purl.org/dc/dcmitype/StillImage" />
        <dc:title></dc:title>
      </cc:Work>
    </rdf:RDF>
  </metadata>
  <g
     transform="translate(-291.8718,78.85185)"
     id="layer2" />
  <g
     transform="translate(-291.8718,78.85185)"
     style="display:inline"
     id="layer3">
    <g
       transform="matrix(3.75,0,0,3.75,-1317.0678,-1369.5177)"
       id="g4589">
      <path
         style="color:#000000;clip-rule:nonzero;display:inline;overflow:visible;visibility:visible;opacity:1;isolation:auto;mix-blend-mode:normal;color-interpolation:sRGB;color-interpolation-filters:linearRGB;solid-color:#000000;solid-opacity:1;fill:#ee7a7a;fill-opacity:1;fill-rule:evenodd;stroke:none;stroke-width:5;stroke-linecap:round;stroke-linejoin:round;stroke-miterlimit:4;stroke-dasharray:none;stroke-dashoffset:0;stroke-opacity:1;color-rendering:auto;image-rendering:auto;shape-rendering:auto;text-rendering:auto;enable-background:accumulate"
         d="m 459.05056,344.17756 0,10 70,0 0,-10 -70,0 z m 70,10 0,40 -30,0 0,10 10,0 0,10 -10,0 0,10 10,0 0,10 10,0 0,-30 10,0 10,-10 0,-40 -10,0 z m -10,80 0,10 -10,0 0,10 -10,0 0,-10 -10,0 0,10 0,10 -20,0 0,10 -20,0 -10,0 0,10 10,0 0,20 20,0 40,0 0,-10 10,0 10,0 0,-10 10,0 0,-10 10,0 10,0 0,10 10,0 0,-10 10,0 0,-10 -10,0 0,-10 -10,0 0,-30 30,0 0,-10 -10,0 0,-10 -10,0 0,10 -10,0 0,-10 10,0 0,-10 -10,0 0,-10 -10,0 0,20 -10,0 0,20 -10,0 0,10 -10,0 z m 60,40 0,10 10,0 0,-10 -10,0 z m 0,10 -10,0 0,10 10,0 0,-10 z m -10,10 -10,0 0,10 10,0 0,-10 z m -10,0 0,-10 -10,0 0,10 10,0 z m -10,0 -10,0 0,10 10,0 0,-10 z m -110,-10 -10,0 0,10 10,0 0,-10 z m 50,-40 0,-10 -10,0 0,10 10,0 z m -10,-10 0,-10 10,0 0,-10 -10,0 0,-10 10,0 0,-10 -20,0 0,10 0,30 10,0 z m 10,-40 10,0 0,-10 10,0 0,-20 -20,0 0,20 0,10 z m 10,50 10,0 0,-10 -10,0 0,10 z"
         id="rect4268" />
      <path
         style="color:#000000;clip-rule:nonzero;display:inline;overflow:visible;visibility:visible;opacity:1;isolation:auto;mix-blend-mode:normal;color-interpolation:sRGB;color-interpolation-filters:linearRGB;solid-color:#000000;solid-opacity:1;fill:#e22121;fill-opacity:1;fill-rule:evenodd;stroke:none;stroke-width:5;stroke-linecap:round;stroke-linejoin:round;stroke-miterlimit:4;stroke-dasharray:none;stroke-dashoffset:0;stroke-opacity:1;color-rendering:auto;image-rendering:auto;shape-rendering:auto;text-rendering:auto;enable-background:accumulate"
         d="m 459.05056,344.17756 10,10 10,0 -10,-10 -10,0 z m 20,10 10,0 10,0 -10,-10 -10,10 z m 20,-10 10,10 10,-10 -10,0 -10,0 z m 30,0 -10,10 10,0 0,-10 z m 0,10 0,10 10,-10 -10,0 z m -40,10 0,10 10,-10 -10,0 z m 10,0 10,10 0,-10 -10,0 z m 10,10 -10,0 10,10 0,-10 z m -10,0 -10,0 0,10 10,-10 z m -10,10 0,10 10,-10 -10,0 z m 0,10 -10,0 -10,0 10,10 10,-10 z m -10,10 -10,0 10,10 0,-10 z m 0,10 -10,10 10,10 0,-10 10,0 -10,-10 z m 0,20 10,10 0,-10 -10,0 z m 10,10 0,10 10,-10 -10,0 z m 10,0 10,-10 -10,0 0,10 z m 10,-10 10,-10 -10,-10 -10,10 10,0 0,10 z m 0,-20 10,-10 -10,0 0,10 z m 0,-10 10,-10 -10,0 -10,0 10,10 z m 10,-10 10,10 10,-10 0,-10 -10,10 -10,0 z m 20,-30 -10,10 0,10 10,-10 0,-10 z m 20,20 -10,10 0,10 10,-10 0,-10 z m 0,10 0,10 10,-10 -10,0 z m 0,10 -10,0 0,10 10,-10 z m -10,10 0,10 10,-10 -10,0 z m 0,0 -10,0 0,10 10,-10 z m -10,10 0,10 10,-10 -10,0 z m 0,0 -10,0 0,10 10,-10 z m -10,10 0,10 10,-10 -10,0 z m 0,0 -10,0 0,10 10,-10 z m -10,10 0,10 10,-10 -10,0 z m 0,0 -10,0 0,10 10,-10 z m -10,10 0,10 10,-10 -10,0 z m 0,0 -10,0 -10,10 0,10 10,-10 10,-10 z m -20,20 0,10 10,-10 -10,0 z m 0,0 -10,0 0,10 10,-10 z m -10,10 -10,0 0,10 10,-10 z m -10,10 0,10 10,-10 -10,0 z m 0,0 -10,0 0,10 10,-10 z m -10,0 -10,0 0,10 10,-10 z m 0,0 10,-10 -10,0 0,10 z m 0,-10 -10,0 0,10 10,-10 z m 0,0 10,-10 -10,0 0,10 z m 0,-10 -10,0 0,10 10,-10 z m -10,0 -10,0 0,10 10,-10 z m -10,10 -10,0 0,10 10,-10 z m 30,-10 10,-10 -10,0 0,10 z m 0,0 0,10 10,-10 -10,0 z m 10,0 10,-10 -10,0 0,10 z m 0,20 0,10 10,-10 10,-10 -10,0 -10,10 z m 20,-10 10,-10 10,-10 -10,0 -10,10 0,10 z m 0,0 0,10 10,-10 -10,0 z m 10,0 0,10 10,-10 10,-10 -10,0 -10,10 z m 10,-10 10,-10 -10,0 0,10 z m 0,-10 10,-10 -10,0 0,10 z m 10,-10 10,-10 -10,0 0,10 z m 0,0 0,10 10,-10 -10,0 z m 10,0 10,-10 10,-10 -10,0 -10,10 0,10 z m 0,0 0,10 10,-10 -10,0 z m 10,0 10,-10 -10,0 0,10 z m 0,0 0,10 10,-10 -10,0 z m 10,0 0,10 10,-10 -10,0 z m 0,10 -10,0 0,10 10,-10 z m -10,0 -10,0 0,10 10,-10 z m -10,10 -10,0 0,10 10,-10 z m -10,10 -10,10 10,0 0,-10 z m 0,-10 10,-10 -10,0 0,10 z m 20,-40 10,-10 -10,0 0,10 z m 10,-10 10,0 10,-10 0,-10 -10,10 -10,10 z m 20,-10 0,10 10,0 -10,-10 z m -70,80 -10,0 -10,10 10,0 10,-10 z m 30,-80 10,-10 -10,0 0,10 z m 30,50 -10,10 0,10 10,-10 10,-10 -10,0 z m -10,20 -10,0 0,10 10,-10 z m -10,10 -10,0 0,10 10,-10 z m 30,-20 0,10 10,-10 -10,0 z m 0,10 -10,0 0,10 10,-10 z m -10,10 -10,0 0,10 10,-10 z"
         id="path4319" />
    </g>
  </g>
</svg>
