<?xml version="1.0" encoding="UTF-8" standalone="no"?>
<svg
   xmlns:dc="http://purl.org/dc/elements/1.1/"
   xmlns:cc="http://creativecommons.org/ns#"
   xmlns:rdf="http://www.w3.org/1999/02/22-rdf-syntax-ns#"
   xmlns:svg="http://www.w3.org/2000/svg"
   xmlns="http://www.w3.org/2000/svg"
   version="1.1"
   id="svg5230"
   viewBox="0 0 900 599.99998"
   height="169.33333mm"
   width="254mm">
  <defs
     id="defs5232" />
  <metadata
     id="metadata5235">
    <rdf:RDF>
      <cc:Work
         rdf:about="">
        <dc:format>image/svg+xml</dc:format>
        <dc:type
           rdf:resource="http://purl.org/dc/dcmitype/StillImage" />
        <dc:title></dc:title>
      </cc:Work>
    </rdf:RDF>
  </metadata>
  <g
     transform="translate(-220.71429,110.4957)"
     style="display:inline"
     id="layer6" />
  <g
     transform="translate(-220.71429,110.4957)"
     style="display:inline"
     id="layer7">
    <g
       transform="matrix(4.2857143,0,0,4.2857143,-725.2041,-1608.3708)"
       id="g5870">
      <path
         style="color:#000000;clip-rule:nonzero;display:inline;overflow:visible;visibility:visible;opacity:1;isolation:auto;mix-blend-mode:normal;color-interpolation:sRGB;color-interpolation-filters:linearRGB;solid-color:#000000;solid-opacity:1;fill:#ee7a7a;fill-opacity:1;fill-rule:evenodd;stroke:none;stroke-width:5;stroke-linecap:round;stroke-linejoin:round;stroke-miterlimit:4;stroke-dasharray:none;stroke-dashoffset:0;stroke-opacity:1;color-rendering:auto;image-rendering:auto;shape-rendering:auto;text-rendering:auto;enable-background:accumulate"
         d="m 320.71429,349.50419 0,10 10,0 0,-10 -10,0 z m 10,10 0,10 10,0 0,-10 -10,0 z m 0,10 -10,0 0,10 10,0 0,-10 z m 0,10 0,10 -10,0 0,-10 -10,0 0,10 -10,0 0,10 10,0 0,10 10,0 0,10 10,0 0,-10 10,0 0,-10 10,0 0,-10 -10,0 0,-10 -10,0 z m 20,20 0,10 10,0 0,-10 -10,0 z m 10,10 0,10 10,0 0,-10 -10,0 z m 0,10 -10,0 0,10 10,0 0,-10 z m -30,0 0,10 -10,0 0,-10 -10,0 0,20 -10,0 0,10 -10,0 0,10 -10,0 0,10 -10,0 0,20 10,0 0,-10 10,0 0,-10 10,0 0,-10 10,0 0,-10 10,0 0,-10 10,0 0,10 10,0 0,10 10,0 0,10 10,0 0,10 10,0 0,10 10,0 0,-20 -10,0 0,-10 -10,0 0,-10 -10,0 0,-10 -10,0 0,-20 -10,0 z m 30,60 -10,0 0,10 10,0 0,-10 z m -10,0 0,-10 -10,0 0,10 10,0 z m -10,0 -10,0 0,10 10,0 0,-10 z m -10,0 0,-10 -10,0 0,10 10,0 z m -10,0 -10,0 0,10 10,0 0,-10 z m -10,0 0,-10 -10,0 0,10 10,0 z m -10,0 -10,0 0,10 10,0 0,-10 z m 10,-10 10,0 0,-10 -10,0 0,10 z m 10,-10 10,0 0,-10 -10,0 0,10 z m 10,0 0,10 10,0 0,-10 -10,0 z m -30,-60 -10,0 0,10 10,0 0,-10 z m -10,10 -10,0 0,10 10,0 0,-10 z m 0,10 0,10 10,0 0,-10 -10,0 z m 30,-50 0,-10 -10,0 0,10 10,0 z m -80,20 0,10 10,0 0,-10 -10,0 z m 10,10 0,10 10,0 0,-10 -10,0 z m 0,10 -10,0 0,20 -10,0 0,10 10,0 0,20 -10,0 0,10 10,0 0,20 10,0 0,-20 10,0 0,-10 -10,0 0,-20 10,0 0,-10 -10,0 0,-20 z m 10,20 10,0 0,-10 -10,0 0,10 z m 0,30 10,0 0,-10 -10,0 0,10 z m -30,0 0,-10 -10,0 0,10 10,0 z m 0,-30 0,-10 -10,0 0,10 10,0 z m 10,-20 0,-10 -10,0 0,10 10,0 z m 160,-20 0,10 10,0 0,-10 -10,0 z m 10,10 0,10 10,0 0,-10 -10,0 z m 0,10 -10,0 0,20 -10,0 0,10 10,0 0,20 -10,0 0,10 10,0 0,20 10,0 0,-20 10,0 0,-10 -10,0 0,-20 10,0 0,-10 -10,0 0,-20 z m 10,20 10,0 0,-10 -10,0 0,10 z m 0,30 10,0 0,-10 -10,0 0,10 z m -30,0 0,-10 -10,0 0,10 10,0 z m 0,-30 0,-10 -10,0 0,10 10,0 z m 10,-20 0,-10 -10,0 0,10 10,0 z"
         id="rect5580" />
      <path
         style="color:#000000;clip-rule:nonzero;display:inline;overflow:visible;visibility:visible;opacity:1;isolation:auto;mix-blend-mode:normal;color-interpolation:sRGB;color-interpolation-filters:linearRGB;solid-color:#000000;solid-opacity:1;fill:#e22121;fill-opacity:1;fill-rule:evenodd;stroke:none;stroke-width:5;stroke-linecap:round;stroke-linejoin:round;stroke-miterlimit:4;stroke-dasharray:none;stroke-dashoffset:0;stroke-opacity:1;color-rendering:auto;image-rendering:auto;shape-rendering:auto;text-rendering:auto;enable-background:accumulate"
         d="m 320.71429,349.50419 0,10 10,-10 -10,0 z m -10,10 0,10 10,0 -10,-10 z m 10,10 0,10 10,-10 -10,0 z m 10,0 10,0 0,-10 -10,10 z m -10,10 -10,0 0,10 10,-10 z m -10,10 0,10 10,0 -10,-10 z m 0,0 -10,0 0,10 10,-10 z m -10,10 -10,10 10,0 0,-10 z m -10,10 -10,0 10,10 0,-10 z m 0,10 10,10 0,-10 -10,0 z m 30,-20 10,0 -10,-10 0,10 z m 0,0 -10,10 10,0 0,-10 z m 0,10 0,10 10,-10 10,-10 -10,0 -10,10 z m 10,-10 10,-10 0,-10 -10,10 0,10 z m 10,-10 0,10 10,-10 -10,0 z m -20,30 -10,0 0,10 10,-10 z m -10,10 0,10 10,0 -10,-10 z m 10,10 10,-10 -10,0 0,10 z m 0,0 -10,10 10,0 0,-10 z m 0,10 0,10 10,-10 -10,0 z m 10,0 10,0 0,-10 -10,10 z m 10,-10 10,10 0,-10 -10,0 z m 10,10 -10,0 10,10 0,10 10,-10 -10,-10 z m 10,10 10,10 0,-10 -10,0 z m 10,10 -10,10 10,0 10,-10 -10,0 z m 0,10 0,10 10,-10 -10,0 z m -10,0 -10,10 10,0 0,-10 z m -10,-10 -10,10 10,0 0,-10 z m -10,10 -10,10 10,0 0,-10 z m -20,-20 -10,0 0,10 10,-10 z m -10,10 -10,10 10,0 0,-10 z m -10,10 -10,0 0,10 10,-10 z m -10,0 0,-10 -10,10 10,0 z m -10,0 -10,10 10,0 0,-10 z m 0,0 0,-10 -10,10 10,0 z m 0,-10 10,-10 -10,0 0,10 z m 10,-10 10,0 10,-10 -10,0 -10,10 z m 0,0 0,10 10,0 -10,-10 z m 10,-10 10,-10 -10,0 0,10 z m 30,-20 0,10 10,-10 0,-10 -10,10 z m -80,-40 -10,10 10,0 0,-10 z m -10,10 -10,0 10,10 0,-10 z m 0,10 10,10 0,-10 -10,0 z m 10,0 10,0 0,-10 -10,10 z m 0,10 -10,10 10,0 0,-10 z m 0,10 -10,10 10,0 10,-10 -10,0 z m 10,0 10,-10 -10,0 0,10 z m -10,10 -10,10 10,0 0,-10 z m 0,10 -10,10 10,0 0,-10 z m 0,10 0,10 10,-10 -10,0 z m 10,0 10,-10 -10,0 0,10 z m -10,10 -10,10 0,10 10,-10 0,-10 z m 0,0 -10,-10 0,10 10,0 z m -10,-10 -10,0 0,10 10,-10 z m -10,0 0,-10 -10,10 10,0 z m 10,-30 -10,0 0,10 10,-10 z m 170,-40 -10,10 10,0 0,-10 z m -10,10 -10,0 10,10 0,-10 z m 0,10 10,10 0,-10 -10,0 z m 10,0 10,0 0,-10 -10,10 z m 0,10 -10,10 10,0 0,-10 z m 0,10 -10,10 10,0 10,-10 -10,0 z m 10,0 10,-10 -10,0 0,10 z m -10,10 -10,10 10,0 0,-10 z m 0,10 -10,10 10,0 0,-10 z m 0,10 0,10 10,-10 -10,0 z m 10,0 10,-10 -10,0 0,10 z m -10,10 -10,10 0,10 10,-10 0,-10 z m 0,0 -10,-10 0,10 10,0 z m -10,-10 -10,0 0,10 10,-10 z m -10,0 0,-10 -10,10 10,0 z m 10,-30 -10,0 0,10 10,-10 z m -40,-30 -10,10 10,0 0,-10 z m 0,10 10,10 0,-10 -10,0 z m -140,10 0,10 10,-10 -10,0 z m 130,0 10,10 0,-10 -10,0 z m 30,0 0,10 10,-10 -10,0 z m -50,40 0,10 10,-10 -10,0 z m 0,10 -10,0 0,10 10,-10 z m -10,10 -10,10 10,0 0,-10 z"
         id="path5687" />
    </g>
  </g>
</svg>
