<?xml version="1.0" encoding="UTF-8" standalone="no"?>
<svg
   xmlns:dc="http://purl.org/dc/elements/1.1/"
   xmlns:cc="http://creativecommons.org/ns#"
   xmlns:rdf="http://www.w3.org/1999/02/22-rdf-syntax-ns#"
   xmlns:svg="http://www.w3.org/2000/svg"
   xmlns="http://www.w3.org/2000/svg"
   version="1.1"
   id="svg2"
   viewBox="0 0 1036.364 599.99998"
   height="169.33333mm"
   width="292.48495mm">
  <defs
     id="defs4" />
  <metadata
     id="metadata7">
    <rdf:RDF>
      <cc:Work
         rdf:about="">
        <dc:format>image/svg+xml</dc:format>
        <dc:type
           rdf:resource="http://purl.org/dc/dcmitype/StillImage" />
        <dc:title></dc:title>
      </cc:Work>
    </rdf:RDF>
  </metadata>
  <g
     transform="translate(-298.21427,-67.718719)"
     style="display:inline"
     id="layer3">
    <g
       transform="matrix(5.4545316,0,0,5.4545316,-1328.405,-2974.3743)"
       id="g4551">
      <path
         style="color:#000000;clip-rule:nonzero;display:inline;overflow:visible;visibility:visible;opacity:1;isolation:auto;mix-blend-mode:normal;color-interpolation:sRGB;color-interpolation-filters:linearRGB;solid-color:#000000;solid-opacity:1;fill:#ee7a7a;fill-opacity:1;fill-rule:evenodd;stroke:none;stroke-width:5;stroke-linecap:round;stroke-linejoin:round;stroke-miterlimit:4;stroke-dasharray:none;stroke-dashoffset:0;stroke-opacity:1;color-rendering:auto;image-rendering:auto;shape-rendering:auto;text-rendering:auto;enable-background:accumulate"
         d="m 358.21484,557.71875 0,10 10,0 0,-10 -10,0 z m 10,10 0,10 10,0 0,10 10,0 0,-10 10,0 0,10 10,0 0,-10 10,0 0,-10 -10,0 0,-10 -10,0 0,10 -10,0 0,-10 -10,0 0,10 -10,0 z m 50,0 10,0 0,-10 -10,0 0,10 z m 10,0 0,10 -10,0 0,10 -10,0 0,10 -10,0 0,10 20,0 0,-10 10,0 0,-10 10,0 0,-10 0,-10 -10,0 z m -10,40 0,10 10,0 0,-10 -10,0 z m -20,0 -10,0 0,10 -10,0 0,10 10,0 0,20 -10,0 0,10 -10,0 0,10 50,0 0,-10 -10,0 0,-10 -10,0 0,-20 10,0 0,-10 -10,0 0,-10 z m -10,0 0,-10 -10,0 0,-10 -10,0 0,-10 -10,0 0,-10 -10,0 0,20 10,0 0,10 10,0 0,10 10,0 10,0 z m -20,0 -10,0 0,10 10,0 0,-10 z m 20,-10 10,0 0,-10 -10,0 0,10 z m -80,0 0,10 10,0 0,-10 -10,0 z m 10,10 0,10 -10,0 0,20 10,0 0,10 -10,0 0,10 10,0 0,10 10,0 0,-10 10,0 0,-10 -10,0 0,-10 10,0 0,-20 -10,0 0,-10 -10,0 z m 10,0 10,0 0,-10 -10,0 0,10 z m 10,50 0,10 10,0 0,-10 -10,0 z m -30,0 -10,0 0,10 10,0 0,-10 z m 140,-60 0,10 10,0 0,-10 -10,0 z m 10,10 0,10 -10,0 0,20 10,0 0,10 -10,0 0,10 10,0 0,10 10,0 0,-10 10,0 0,-10 -10,0 0,-10 10,0 0,-20 -10,0 0,-10 -10,0 z m 10,0 10,0 0,-10 -10,0 0,10 z m 10,50 0,10 10,0 0,-10 -10,0 z m -30,0 -10,0 0,10 10,0 0,-10 z"
         id="rect4332" />
      <path
         style="color:#000000;clip-rule:nonzero;display:inline;overflow:visible;visibility:visible;opacity:1;isolation:auto;mix-blend-mode:normal;color-interpolation:sRGB;color-interpolation-filters:linearRGB;solid-color:#000000;solid-opacity:1;fill:#e22121;fill-opacity:1;fill-rule:evenodd;stroke:none;stroke-width:5;stroke-linecap:round;stroke-linejoin:round;stroke-miterlimit:4;stroke-dasharray:none;stroke-dashoffset:0;stroke-opacity:1;color-rendering:auto;image-rendering:auto;shape-rendering:auto;text-rendering:auto;enable-background:accumulate"
         d="m 368.21429,557.71847 -10,10 10,0 0,-10 z m 0,10 0,10 10,-10 -10,0 z m 10,0 10,10 0,-10 -10,-10 0,10 z m 10,0 10,10 10,-10 0,-10 -10,10 -10,0 z m 20,0 10,10 0,-10 -10,0 z m 10,0 10,0 -10,-10 0,10 z m 0,10 0,10 10,-10 -10,0 z m 10,0 10,0 0,-10 -10,10 z m 0,0 0,10 10,0 -10,-10 z m -10,10 -10,10 10,0 10,0 -10,-10 z m -10,10 0,10 10,0 -10,-10 z m 10,10 0,10 10,0 0,-10 -10,0 z m -10,0 -10,-10 0,10 10,0 z m -10,-10 0,-10 -10,0 10,10 z m 0,-20 10,10 0,-10 -10,0 z m -10,0 -10,0 0,10 10,-10 z m -20,0 -10,0 10,10 0,-10 z m 0,10 -10,10 10,0 10,0 -10,-10 z m 10,10 -10,10 10,0 0,-10 z m 0,10 10,0 0,-10 -10,10 z m 10,0 0,10 10,0 -10,-10 z m 10,10 -10,10 10,10 0,-10 0,-10 z m 0,10 10,0 0,-10 -10,10 z m -10,0 -10,-10 0,10 10,0 z m -20,-20 -10,0 10,10 0,-10 z m -10,-30 -10,10 10,0 0,-10 z m 0,0 -10,-10 0,10 10,0 z m -40,20 -10,10 10,0 0,-10 z m 0,10 0,10 10,0 -10,-10 z m 10,10 -10,10 10,0 0,-10 z m 0,10 10,0 0,-10 -10,10 z m 0,0 -10,10 10,0 10,0 -10,-10 z m -10,10 0,10 -10,0 10,10 10,-10 -10,-10 z m 0,0 -10,-10 0,10 10,0 z m -10,-10 10,0 0,-10 -10,0 0,10 z m 20,20 0,10 10,0 -10,-10 z m -10,10 0,10 10,0 -10,-10 z m 10,-60 0,10 10,0 -10,-10 z m 130,0 -10,10 10,0 0,-10 z m 10,0 0,10 10,0 0,-10 -10,0 z m 0,10 -10,10 10,0 0,-10 z m 0,10 0,10 10,0 0,-10 -10,0 z m 10,10 -10,10 10,0 0,-10 z m -10,10 -10,10 10,10 10,-10 -10,0 0,-10 z m 0,0 -10,-10 -10,10 10,0 10,0 z m -10,-10 -10,-10 0,10 10,0 z m 0,0 10,0 -10,-10 0,10 z m 10,30 -10,10 10,0 0,-10 z m -10,-10 -10,10 10,0 0,-10 z m -70,-10 0,10 10,0 -10,-10 z m 10,10 -10,10 10,0 10,0 -10,-10 z m 10,10 -10,10 10,0 10,-10 -10,0 z m -10,10 0,-10 -10,10 10,0 z m -10,0 -10,-10 -10,0 10,10 10,0 z m -10,-10 10,0 0,-10 -10,10 z m -80,0 0,10 10,0 -10,-10 z m 50,0 -10,10 10,0 0,-10 z m 90,0 0,10 10,0 -10,-10 z m 50,0 -10,10 10,0 0,-10 z"
         id="rect4397" />
    </g>
  </g>
</svg>
