<?xml version="1.0" encoding="UTF-8" standalone="no"?>
<svg
   xmlns:dc="http://purl.org/dc/elements/1.1/"
   xmlns:cc="http://creativecommons.org/ns#"
   xmlns:rdf="http://www.w3.org/1999/02/22-rdf-syntax-ns#"
   xmlns:svg="http://www.w3.org/2000/svg"
   xmlns="http://www.w3.org/2000/svg"
   version="1.1"
   id="svg2"
   viewBox="0 0 993.75004 993.75046"
   height="280.45847mm"
   width="280.45834mm">
  <defs
     id="defs4" />
  <metadata
     id="metadata7">
    <rdf:RDF>
      <cc:Work
         rdf:about="">
        <dc:format>image/svg+xml</dc:format>
        <dc:type
           rdf:resource="http://purl.org/dc/dcmitype/StillImage" />
        <dc:title></dc:title>
      </cc:Work>
    </rdf:RDF>
  </metadata>
  <g
     transform="translate(1088.3036,-29.772915)"
     style="display:inline"
     id="layer3">
    <rect
       y="29.772915"
       x="-1088.3036"
       height="993.75"
       width="993.75"
       id="rect4296"
       style="color:#000000;clip-rule:nonzero;display:inline;overflow:visible;visibility:visible;opacity:1;isolation:auto;mix-blend-mode:normal;color-interpolation:sRGB;color-interpolation-filters:linearRGB;solid-color:#000000;solid-opacity:1;fill:#1a7dda;fill-opacity:1;fill-rule:evenodd;stroke:none;stroke-width:1px;stroke-linecap:butt;stroke-linejoin:miter;stroke-miterlimit:4;stroke-dasharray:none;stroke-dashoffset:0;stroke-opacity:1;color-rendering:auto;image-rendering:auto;shape-rendering:auto;text-rendering:auto;enable-background:accumulate" />
    <path
       id="rect4298"
       d="m -438.10938,29.773438 3.10938,48.08789 64.5,-3 15.5,29.000002 54.75,-51.500002 117.25,-12.5 45.75,42.5 -13.00977,38.033202 -148.74023,-2.0332 -72.5,53 -123,-4.5 -7,68 62,127 6,111.5 69,171 -122.5,122 -7,26.5 64,72.5 -77.5,53 24.85352,104.89457 71.38867,0.2675 316.704221,-5e-4 0,-993.749985 z"
       style="color:#000000;clip-rule:nonzero;display:inline;overflow:visible;visibility:visible;opacity:1;isolation:auto;mix-blend-mode:normal;color-interpolation:sRGB;color-interpolation-filters:linearRGB;solid-color:#000000;solid-opacity:1;fill:#f8b202;fill-opacity:1;fill-rule:evenodd;stroke:none;stroke-width:1px;stroke-linecap:butt;stroke-linejoin:miter;stroke-miterlimit:4;stroke-dasharray:none;stroke-dashoffset:0;stroke-opacity:1;color-rendering:auto;image-rendering:auto;shape-rendering:auto;text-rendering:auto;enable-background:accumulate" />
  </g>
  <g
     transform="translate(1088.3036,-29.772915)"
     style="display:inline;opacity:1"
     id="layer2">
    <path
       id="path4259"
       d="m -301.58008,237.77539 -35.00195,6.7168 -39.91797,-14.87999 18,-49 58.25,-30.25 -12.25,59.5 17,23 z"
       style="fill:#808080;fill-rule:evenodd;stroke:none;stroke-width:1px;stroke-linecap:butt;stroke-linejoin:miter;stroke-opacity:1" />
    <path
       id="path4255"
       d="m -830,252.3622 -28.46598,-31.36854 37.71598,-25.38146 15.75,17.75 z"
       style="fill:#ffffff;fill-rule:evenodd;stroke:none;stroke-width:1px;stroke-linecap:butt;stroke-linejoin:miter;stroke-opacity:1" />
    <path
       id="path4227"
       d="m -1059,202.3622 13,-29 27,-14 120,-27 20,-21 138,-9.75 64,41.25 52.04289,-19.04289 64.5,30.5 -25.29289,26.29289 -38.5,-1 -45.75,54.75 13,15 -7.5,8 -44.5,-23 -13,35 -24,28 -46,-3 -26,-18 -12,-24 10.07573,-37.34054 -1.32573,-3.65946 -120.75,31.25 -15.20711,17.04289 L -968,257.3622 l -25.89406,4.04974 -3.45949,-2.58527 L -968,230.3622 l 167.76777,-54.64645 -25.47488,-21.12132 -21.88819,4.07622 -30.02223,9.04809 L -902,179.3622 l -94.5,-0.5 z"
       style="fill:#000000;fill-rule:evenodd;stroke:none;stroke-width:1px;stroke-linecap:butt;stroke-linejoin:miter;stroke-opacity:1" />
    <path
       id="path4229"
       d="m -699.68216,330.75973 23.33452,-45.96194 -19.75609,-15.1599 -29.03427,33.54468 c -32.93193,4.87226 -65.47669,6.64722 -97.08074,0.89645 l -21.14518,1.10355 -17.01346,7.54594 39.13046,8.73528 c 40.70687,6.36667 69.48739,5.79249 103.53354,-4.49264 z"
       style="fill:#000000;fill-rule:evenodd;stroke:none;stroke-width:1px;stroke-linecap:butt;stroke-linejoin:miter;stroke-opacity:1" />
    <path
       id="path4233"
       d="m -573.81715,676.8885 12.02081,-4.24264 15.9099,-15.20279 13.08148,-19.44544 12.37437,-2.82843 33.23402,3.88909 9.19239,-10.96015 c 0,0 4.59619,-10.96016 4.59619,-13.43503 0,-2.47488 -8.48528,-15.2028 -8.48528,-15.2028 l -5.65686,-0.70711 -1.41421,-3.53553 -57.98276,6.71751 -1.06066,6.71752 -4.24264,0.35355 -25.10229,64.70027 z"
       style="fill:#000000;fill-rule:evenodd;stroke:none;stroke-width:1px;stroke-linecap:butt;stroke-linejoin:miter;stroke-opacity:1" />
    <path
       id="path4235"
       d="m -474.8222,708.70831 2.12132,55.86143 41.7193,19.79899 19.09188,-20.15254 -2.47487,-70.71068 25.10229,-25.10229 20.85965,1.06066 49.14392,-54.44722 -88.7419,-3.18198 -6.71752,47.0226 z"
       style="fill:#000000;fill-rule:evenodd;stroke:none;stroke-width:1px;stroke-linecap:butt;stroke-linejoin:miter;stroke-opacity:1" />
    <path
       id="path4237"
       d="m -702.15703,911.2944 111.01576,-56.92209 117.37973,-37.12311 30.75914,33.94113 53.03301,-33.58758 47.37615,30.75915 38.53732,31.8198 -12.02081,4.5962 -35.70889,-16.61701 -94.75231,18.73833 -69.65002,13.08147 -60.45763,-9.89949 -43.13351,24.04163 z"
       style="fill:#000000;fill-rule:evenodd;stroke:none;stroke-width:1px;stroke-linecap:butt;stroke-linejoin:miter;stroke-opacity:1" />
    <path
       id="path4239"
       d="m -596.44457,1023.3708 70.00357,-102.88401 34.64823,6.01041 19.09189,-0.70711 33.23402,-22.27386 26.87005,16.61701 52.67946,-14.84925 -57.98276,118.08681 z"
       style="fill:#000000;fill-rule:evenodd;stroke:none;stroke-width:1px;stroke-linecap:butt;stroke-linejoin:miter;stroke-opacity:1" />
    <path
       id="path4280"
       d="m -433.5,239.3622 23.75,35 89,-1.5 -3.25,-8.25 -15.5,-18.75 z"
       style="color:#000000;clip-rule:nonzero;display:inline;overflow:visible;visibility:visible;opacity:1;isolation:auto;mix-blend-mode:normal;color-interpolation:sRGB;color-interpolation-filters:linearRGB;solid-color:#000000;solid-opacity:1;fill:#808080;fill-opacity:1;fill-rule:evenodd;stroke:none;stroke-width:1px;stroke-linecap:butt;stroke-linejoin:miter;stroke-miterlimit:4;stroke-dasharray:none;stroke-dashoffset:0;stroke-opacity:1;color-rendering:auto;image-rendering:auto;shape-rendering:auto;text-rendering:auto;enable-background:accumulate" />
    <path
       id="path4241"
       d="m -215.66789,66.656326 -120.56055,9.544922 -54.44726,38.536842 -0.45711,28.66425 -31.67383,25.78321 -17.26367,74.93554 99.57031,5.24024 15,19.75 -92.69727,-1.78516 19.03516,35.14844 92.98438,1.41601 c 20.6301,-10.92066 41.43584,-20.61182 61.16601,-37.83203 l -1.75287,-3.43912 -68.95787,5.56225 -20.85957,-23.68953 L -359,217.61133 l 0.5,-6 39.75,-36.5 -0.85355,38.37868 6.12556,2.09062 c 0.83039,8.65248 6.49288,15.37213 11.89791,22.19476 l 12.37305,9.19141 33.23437,-7.07032 c 14.39521,-14.61285 27.42256,-31.14071 37.12305,-52.32617 l 3.18164,-9.54492 5.30274,0.35352 39.24609,35.35547 3.88867,-1.41407 -2.82812,-43.48828 19.79882,-48.4375 z m -5.30285,61.871244 24.04105,7.4236 2.47461,20.85938 -1.06054,2.83007 c -19.59912,-6.57153 -39.19823,-16.41852 -58.79735,-16.99636 l -2.36672,-3.50949 z"
       style="fill:#000000;fill-rule:evenodd;stroke:none;stroke-width:1px;stroke-linecap:butt;stroke-linejoin:miter;stroke-opacity:1" />
    <path
       id="path4245"
       d="m -249.96225,176.96401 6.36396,-6.01041 2.82843,-8.13173 -9.89949,-6.36396 -7.77818,2.47488 -4.24264,11.3137 z"
       style="fill:#ffffff;fill-rule:evenodd;stroke:none;stroke-width:1px;stroke-linecap:butt;stroke-linejoin:miter;stroke-opacity:1" />
    <path
       id="path4247"
       d="m -279.5,230.6122 19.75,-9.75 6.75,-13.25 -24.25,-4.75 -14.25,-8.75 -7.25,-10.5 -7.75,8.5 6,17 z"
       style="fill:#6bb8b1;fill-opacity:1;fill-rule:evenodd;stroke:none;stroke-width:1px;stroke-linecap:butt;stroke-linejoin:miter;stroke-opacity:1" />
    <path
       id="path4249"
       d="m -207,160.8622 22.5,8.75 6.30913,3.46181 -0.9294,4.86657 3.62027,8.67162 -6.25,1 -4.25,-7.5 -23,-12.75 z"
       style="fill:none;fill-rule:evenodd;stroke:none;stroke-width:1px;stroke-linecap:butt;stroke-linejoin:miter;stroke-opacity:1" />
    <path
       id="path4264"
       d="m -810.75,242.6122 14.75,12.75 5.25,-7.25 4.75,5 22.5,-12.5 -17,30.75 -0.25,5.5 -7.75,3.5 -18.25,-13.75 z"
       style="color:#000000;clip-rule:nonzero;display:inline;overflow:visible;visibility:visible;opacity:1;isolation:auto;mix-blend-mode:normal;color-interpolation:sRGB;color-interpolation-filters:linearRGB;solid-color:#000000;solid-opacity:1;fill:#6bb8b1;fill-opacity:1;fill-rule:evenodd;stroke:none;stroke-width:1px;stroke-linecap:butt;stroke-linejoin:miter;stroke-miterlimit:4;stroke-dasharray:none;stroke-dashoffset:0;stroke-opacity:1;color-rendering:auto;image-rendering:auto;shape-rendering:auto;text-rendering:auto;enable-background:accumulate" />
    <path
       id="path4262"
       d="m -759.5,228.6122 14.75,7 8.56066,-15.45711 -16.56066,-6.54289 z"
       style="fill:#ffffff;fill-rule:evenodd;stroke:none;stroke-width:1px;stroke-linecap:butt;stroke-linejoin:miter;stroke-opacity:1" />
    <path
       id="path4307"
       d="m -207.25,161.1122 26.25,11 1.5,8 3.75,5.25 -5.75,2 -3.25,-5.75 -24.25,-13.75 z"
       style="fill:#808080;fill-opacity:1;fill-rule:evenodd;stroke:none;stroke-width:1px;stroke-linecap:butt;stroke-linejoin:miter;stroke-opacity:1" />
  </g>
</svg>
