<?xml version="1.0" encoding="UTF-8" standalone="no"?>
<svg
   xmlns:dc="http://purl.org/dc/elements/1.1/"
   xmlns:cc="http://creativecommons.org/ns#"
   xmlns:rdf="http://www.w3.org/1999/02/22-rdf-syntax-ns#"
   xmlns:svg="http://www.w3.org/2000/svg"
   xmlns="http://www.w3.org/2000/svg"
   version="1.1"
   id="svg2"
   viewBox="0 0 913.27054 164.10284"
   height="46.313469mm"
   width="257.74524mm">
  <defs
     id="defs4" />
  <metadata
     id="metadata7">
    <rdf:RDF>
      <cc:Work
         rdf:about="">
        <dc:format>image/svg+xml</dc:format>
        <dc:type
           rdf:resource="http://purl.org/dc/dcmitype/StillImage" />
        <dc:title></dc:title>
      </cc:Work>
    </rdf:RDF>
  </metadata>
  <g
     transform="translate(115.54748,-583.61092)"
     style="display:inline;opacity:1"
     id="layer2">
    <path
       id="path4229"
       d="m 63.045999,583.68311 c -0.836863,-0.11368 -1.726942,-0.0918 -2.662909,0.0564 -1.871891,0.29616 -3.928974,1.08141 -6.114158,2.21236 -4.370369,2.26189 -9.41115,6.02734 -14.883193,10.86073 -10.944087,9.66673 -23.579321,23.60378 -35.3174319,38.21359 -10.465291,13.02556 -23.1879311,33.15668 -24.1339061,34.14623 -0.945976,0.9896 -5.582599,5.33575 -6.54159,6.34413 -0.958992,1.00837 -18.682376,13.29143 -36.950584,27.81306 -18.354296,14.59 -37.268287,31.43117 -44.440377,37.72932 -11.25231,9.49514 -8.83638,7.99714 0.10587,0.73599 9.958154,-8.08597 28.031532,-23.23143 44.790653,-36.47994 18.865013,-14.91323 36.616983,-27.3 37.057596,-27.60217 -1.749927,2.97677 -6.242136,11.27109 -7.771448,15.46245 -0.787393,2.15796 -1.277804,4.03904 -1.407842,5.64755 -0.130161,1.60852 0.08485,3.04248 1.013651,4.06273 1.527788,1.67796 3.825793,2.14473 6.283121,1.79403 2.457328,-0.35052 5.209537,-1.44994 8.205881,-3.03295 5.992647,-3.1661 12.9499695,-8.31179 19.69409175,-13.69256 C 6.717546,682.5733 13.23681,676.95292 18.2516,672.87776 c 2.507375,-2.03755 2.28577,-2.08423 3.837449,-3.10533 3.223961,-2.56768 2.705787,0.75481 2.236507,1.7538 -1.606832,2.92616 -4.107245,6.61289 -6.765828,10.09643 -2.350482,3.07984 -5.453096,5.94067 -7.280708,7.28874 -1.8276124,1.34804 -2.8020089,2.1061 -3.6926244,2.58242 -0.8906155,0.47633 -0.9071736,0.64187 -1.2308886,1.09414 -0.3237555,0.45227 -0.5164845,1.27492 -0.1771174,1.89056 0.3130454,0.56768 1.1175738,0.90609 1.6733534,0.85275 0.5557807,-0.0531 0.9916142,-0.27062 1.4561587,-0.54705 0.9289224,-0.55318 1.9533643,-1.44059 3.1294703,-2.59045 3.925472,-2.4081 9.288897,-3.52902 13.089193,-4.5374 4.95597,-1.30771 10.146767,-2.50704 14.440686,-3.36277 2.973813,-0.59265 4.88677,-1.41706 5.309713,-0.98955 0.422899,0.42752 0.371947,2.09115 -0.120688,3.00079 -0.311399,0.57457 -0.942557,1.82012 -1.327439,2.30085 -0.292039,0.36495 -0.526329,0.8523 -0.522911,1.39985 0.0034,0.54758 0.250437,1.06275 0.587291,1.44808 l 0.04119,0.0482 0.04819,0.0412 c 0.332818,0.30728 0.798391,0.59042 1.375714,0.56315 0.577282,-0.0288 1.043803,-0.38471 1.311334,-0.72403 0.521056,-0.6607 0.882047,-1.80611 1.625079,-2.45372 1.366197,-1.19063 2.847853,-1.37221 5.414253,-1.76186 1.220138,-0.18536 2.363662,-0.17053 3.523702,-0.25744 1.484291,0.80658 3.11625,2.16665 4.42474,2.50198 0.684499,0.17546 1.370111,0.25661 2.067545,0.0804 0.697475,-0.17588 1.357672,-0.69286 1.713596,-1.37571 0.228195,-0.43748 0.30069,-1.08648 0.05643,-1.59291 -0.244258,-0.50639 -0.645327,-0.78072 -1.029755,-0.96537 -0.768817,-0.36948 -1.658773,-0.49326 -2.743355,-0.56316 -1.063655,-0.0684 -2.541643,0.0774 -3.861586,0.16105 -2.946132,-1.63484 -5.720503,-4.30372 -8.905745,-4.42473 -0.07497,-0.003 -0.321696,0.0568 -0.402429,0.0564 -3.29e-4,-0.037 0.0082,-0.0585 0.0082,-0.0963 -0.06014,-6.31266 -0.743196,-13.62293 -2.075577,-17.18407 -0.965994,-2.58198 -3.315733,-5.58261 -6.001585,-8.33462 -2.935877,-3.74839 1.980798,-5.33499 11.102092,-6.84627 9.121294,-1.51122 27.354365,-2.50597 44.633477,-4.96371 22.330513,-3.17626 46.685653,0.90891 60.112033,6.25092 0,0 1.10295,0.54197 1.79404,-0.49878 0.69113,-1.04075 -1.27917,-1.70553 -1.27917,-1.70553 -13.2738,-5.08205 -37.74114,-9.21068 -60.76366,-6.30725 -17.435262,2.19882 -34.708968,3.57407 -47.360761,5.37405 -6.325876,0.89997 -11.524704,1.62558 -15.03605,1.9308 -0.651095,0.0564 -0.902602,0.0246 -1.431979,0.0482 -0.165997,-0.0956 -0.387189,-0.318 -0.547048,-0.40244 -0.792748,-0.41725 -1.484991,-0.71165 -2.24458,-0.76428 -0.379775,-0.0248 -0.81392,0.0124 -1.222816,0.2492 -0.409019,0.23519 -0.718482,0.67827 -0.836698,1.10216 -0.08609,0.30852 -0.07209,0.73015 0.09639,1.06997 0.168468,0.33981 0.43184,0.55805 0.667736,0.69187 0.471753,0.26774 0.913147,0.32663 1.440052,0.37812 0.484192,0.0474 1.325297,-0.033 1.962963,-0.0482 1.207616,0.74497 2.56117,1.65075 4.086856,2.9847 3.738223,3.26848 7.689068,7.87252 8.704655,10.58716 1.038283,2.77507 1.872138,10.25802 1.930794,16.40369 0.0016,0.16642 -0.02472,0.24591 -0.02472,0.41026 -1.861718,0.18576 -3.633022,0.33776 -6.741692,0.95734 -4.347961,0.86652 -9.574139,2.07479 -14.577479,3.39499 -3.455079,0.91171 -8.832921,3.28034 -9.139087,2.81577 -0.306044,-0.46459 2.99655,-3.24552 4.553458,-5.28558 2.708961,-3.54957 5.929215,-6.67542 7.626624,-9.76659 0.848684,-1.54558 2.296892,-3.88988 2.638771,-5.07637 0.17094,-0.59325 0.271444,-1.13623 0.249201,-1.68945 -0.0206,-0.55323 -0.202243,-1.18693 -0.699904,-1.62509 -0.382658,-0.33693 -0.876489,-0.41482 -1.246953,-0.39418 -0.370301,0.0206 -0.689937,0.11209 -1.021724,0.24138 -0.663535,0.25867 -2.502186,1.64051 -3.346709,2.19626 -1.689047,1.11148 -4.010901,2.76333 -6.540559,4.81897 -5.059235,4.11128 -11.763485,9.13558 -18.4632035,14.48093 -6.6997601,5.34534 -13.5982625,10.4299 -19.3320695,13.45924 -2.866925,1.51469 -5.451078,2.50293 -7.473767,2.79159 -2.022771,0.28874 -3.346831,-0.0531 -4.279955,-1.07802 -0.301513,-0.33118 -0.546018,-1.0764 -0.442466,-2.35716 0.103388,-1.28077 0.542187,-3.00244 1.287195,-5.04421 1.489975,-4.08355 4.206185,-9.4474 7.819724,-15.55092 7.226995,-12.20706 18.0205712,-27.42336 29.7020463,-41.96258 11.6814327,-14.53921 24.2618017,-28.40839 35.0438877,-37.93203 5.391021,-4.76187 10.338259,-8.43205 14.424622,-10.54696 4.086361,-2.11492 7.164632,-2.55718 8.978198,-1.5366 2.081591,1.1714 2.939913,2.6882 3.032962,4.8672 0.09309,2.179 -0.744226,5.04358 -2.445671,8.35874 -3.402892,6.63027 -10.169834,15.00693 -18.672408,23.96597 -6.443351,6.78927 -10.451245,12.95327 -20.172434,22.33052 -9.721189,9.37725 -25.62190469,21.87561 -37.550232,31.35357 -0.748262,0.59454 -0.889751,1.74408 0.120688,2.51005 1.010273,0.76597 2.8720315,-0.49881 2.8720315,-0.49881 18.0519593,-14.727 39.2248215,-36.06776 56.3711315,-54.13463 8.573175,-9.03339 15.447375,-17.47653 19.050493,-24.49692 1.801538,-3.51019 2.807074,-6.67174 2.687046,-9.48503 -0.120275,-2.81326 -1.536643,-5.25227 -4.183406,-6.74166 -0.728697,-0.41025 -1.5123,-0.65884 -2.349121,-0.77232 z M 452.1652,599.70867 c -3.08577,-0.0164 -6.26574,0.005 -9.52524,0.0643 -39.11423,0.71703 -89.24661,5.59058 -134.67283,12.76733 -30.28418,4.78453 -58.1073,10.08015 -78.3339,14.67402 -10.11331,2.29697 -18.32633,4.41646 -24.02228,6.21878 -2.84801,0.90116 -5.0561,1.71718 -6.61297,2.46982 -0.77845,0.37647 -1.39672,0.7319 -1.88251,1.13433 -0.48584,0.40242 -1.00304,0.94663 -0.90911,1.8101 0.0643,0.59192 0.39542,1.07198 0.77231,1.41592 0.3769,0.34394 0.82402,0.59887 1.34351,0.8367 1.03902,0.47562 2.39141,0.8652 4.07882,1.22282 3.37484,0.71527 8.05496,1.28456 13.66037,1.76186 11.21071,0.95459 26.09366,1.15688 41.15002,1.07948 20.52898,-0.10546 44.28229,-1.09995 61.73344,3.44952 2.54795,0.66423 7.24998,1.86715 7.2111,2.36725 -0.037,0.50008 -1.79169,1.85792 -2.68445,2.78972 -9.58106,10.00051 -18.89632,20.20482 -27.04087,30.04826 -5.49136,6.63686 -10.07032,12.36515 -12.9363,16.9427 -1.43301,2.28878 -2.44571,4.27856 -2.91227,6.04983 -0.4666,1.77129 -0.34929,3.512 0.77231,4.69828 0.69349,0.73356 1.68254,0.95858 2.70312,0.94931 1.02052,-0.008 2.16174,-0.24468 3.45129,-0.6436 2.57909,-0.79781 5.75917,-2.2765 9.32411,-4.23971 7.12983,-3.92642 15.54299,-10.166 23.38446,-16.40575 5.7936,-4.61018 11.3325,-8.73131 15.82722,-12.62832 4.49472,-3.89705 7.17641,-6.63266 8.66837,-9.66043 1.7033,-3.45672 1.39145,-6.74717 -0.17712,-9.42874 -1.2079,-2.06528 -2.23049,-4.20075 -4.44422,-5.67528 -0.31346,-0.20883 -0.47661,-0.75225 -0.37112,-1.16473 0.10546,-0.41252 0.88624,-0.8119 1.55353,-1.25828 1.32958,-0.88938 2.66315,-1.3578 5.22835,-2.5872 5.88041,-2.81823 11.25607,-4.11718 16.32325,-4.63391 2.53361,-0.25825 5.23224,-0.21254 7.04741,0.47468 1.81513,0.68758 2.90355,2.25475 3.64439,4.07071 0.74085,1.81596 1.69658,6.39532 0.82859,9.51721 -0.86801,3.12189 -2.23017,6.02387 -4.93156,8.82535 -6.58017,6.81217 -12.15277,11.85904 -16.82736,15.26029 -4.67461,3.40124 -6.76241,5.09436 -8.62689,6.2278 -3.81706,2.32041 -6.87977,4.42894 -8.88972,6.29922 -1.00496,0.93514 -1.75837,1.79866 -2.2043,2.71922 -0.44597,0.92056 -0.51516,2.10564 0.12069,2.96055 0.4727,0.6356 1.31347,0.9052 2.01931,0.86883 0.70583,-0.037 1.38231,-0.26897 2.11582,-0.61946 1.46699,-0.70049 3.16077,-1.90802 5.0281,-3.46736 3.2279,-2.69557 5.40201,-5.941 10.48489,-9.8324 5.08287,-3.89137 13.29773,-8.27236 21.29277,-12.14647 7.79282,-3.613 15.38476,-7.79262 23.5476,-10.46652 -2.98472,3.33166 -5.36042,6.1782 -7.11496,8.60801 -1.75454,2.42977 -2.61739,4.78627 -2.75117,6.20952 -0.13387,1.42321 0.44168,3.47897 1.74877,4.2732 1.30709,0.79427 5.51586,0.12357 7.31288,-0.92509 6.64304,-3.87609 16.8644,-10.57363 20.00421,-12.04049 3.13981,-1.46687 -3.17284,7.77977 -3.26947,10.40873 -0.23027,6.26451 2.481,5.81124 6.76462,5.79901 2.02298,-0.005 4.44035,-1.14072 7.23244,-2.19626 5.58416,-2.11112 12.5026,-5.35382 19.18725,-8.88165 2.75982,-1.45649 5.71148,-1.85751 6.78827,-1.8686 1.0768,-0.0124 2.63643,0.48852 4.31366,0.89516 5.94642,1.44153 13.4985,0.14622 19.87824,-1.83845 -0.47842,4.84137 2.58004,5.86285 6.20853,5.94713 11.52359,0.26732 21.10585,-1.10686 28.83644,-1.70325 -1.72485,2.15111 -3.181,4.07577 -4.87829,6.36014 -2.976,4.00538 -5.38468,7.50218 -8.04195,11.58014 -12.5073,2.63157 -18.48688,4.24281 -29.36416,6.13027 -10.87727,1.88746 -16.07483,1.71619 -24.49692,3.0732 -14.59552,2.35164 -28.63389,4.99519 -39.10661,7.09564 -5.92191,1.18183 -11.59477,2.37545 -17.30472,3.70091 -2.23095,0.70171 -4.1297,2.04233 -5.78431,3.23413 -0.21295,0.15364 -0.36206,0.51895 -0.32993,1.01365 0.033,0.49469 0.39625,1.01184 0.73207,1.11021 2.39905,0.70212 5.02324,-0.0742 6.82219,-0.32212 4.72653,-0.8088 45.51914,-9.35216 86.81328,-17.55413 3.43835,-0.68293 7.55273,-1.35643 10.7722,-1.35157 5.5414,0.008 4.87704,1.70247 3.21617,5.58003 -3.30271,7.7107 -6.24815,13.29478 -6.24914,17.34798 -9e-4,3.87865 1.99476,7.17613 4.97986,9.6218 2.9851,2.44563 6.96598,4.12241 11.23881,4.99593 8.5457,1.747 18.37275,0.353 23.57178,-5.67977 3.39375,-3.93792 6.87345,-9.79801 5.49469,-15.72792 -3.59628,-15.46731 -21.23526,-17.00395 -26.01349,-20.4197 -4.77823,-3.41575 44.20328,-9.22324 44.29974,-10.02245 0.0963,-0.79922 -34.97411,5.18123 -46.16204,7.52203 2.27539,-3.41676 4.79302,-5.50602 7.27675,-8.84885 2.19528,-2.95462 3.92371,-6.07149 6.59939,-7.19289 2.67568,-1.12141 9.80855,-2.51434 11.97235,-2.97658 3.87675,-0.82813 8.84158,-4.42552 11.88241,-8.46332 1.52041,-2.01889 2.58185,-4.17987 2.45374,-6.34746 -0.1281,-2.16763 -1.68888,-4.11021 -4.52932,-5.12464 -1.83861,-0.65665 -3.89153,0.0519 -6.13031,1.36764 -2.23872,1.31557 -4.73807,3.34869 -7.43352,5.92109 -3.15579,3.01172 -7.51887,9.59243 -10.70691,10.64563 -3.18808,1.05319 -20.05854,2.85967 -27.79099,2.80929 -3.83728,-0.037 -5.68429,-2.75847 -3.25324,-4.80701 2.43101,-2.04857 3.44741,-2.6392 5.42051,-3.71101 3.66721,-1.99208 1.97758,-5.66353 -1.67236,-3.97605 -3.3262,1.53779 -3.78761,1.94937 -8.24263,4.65367 -4.45505,2.70432 -12.95401,5.44899 -18.49051,4.1068 -2.70752,-0.92337 1.5058,-5.57955 4.2538,-7.23519 2.34525,-1.58563 4.24466,-3.01282 5.54302,-4.23164 0.64915,-0.60941 1.32417,-1.08763 1.50439,-1.73773 0.76135,-2.74694 -0.3666,-3.56852 -2.60669,-3.2902 -1.02407,0.12727 -2.12096,0.51249 -3.31454,1.08606 -2.38714,1.14715 -5.10635,3.02897 -7.40135,5.16489 -2.29504,2.13587 -3.51382,4.59683 -5.30069,6.7552 -1.78692,2.15842 -4.3611,3.15332 -7.3219,4.70887 -6.63176,3.48424 -13.4001,6.95403 -18.9298,8.76096 -7.50322,2.45181 -11.35084,-1.88247 -6.8663,-7.37087 1.69029,-2.06866 3.53297,-3.47597 5.23631,-5.55978 1.70334,-2.08382 3.62746,-5.06014 5.39374,-7.02973 1.76629,-1.96956 4.24758,-2.65641 5.67298,-4.04584 1.93091,-1.88214 3.45788,-3.63499 4.44084,-5.22922 0.98296,-1.59431 1.56132,-3.17219 0.84473,-4.60981 -1.40241,-2.81334 -4.11919,-4.34664 -7.10371,-4.93155 -2.98453,-0.58493 -6.29701,-0.29862 -9.34022,0.49075 -3.04322,0.78941 -5.71,1.76245 -7.69101,3.67656 -1.98101,1.91411 -4.27131,3.94717 -6.53097,5.63766 -3.18136,1.44435 -5.13506,3.50847 -10.31531,6.3574 -5.18024,2.84888 -23.25894,10.98078 -24.57959,11.62207 -1.32064,0.64125 -4.44368,2.12537 -5.38187,0.77083 -0.93824,-1.35458 0.55261,-3.11439 1.56271,-4.14682 2.86211,-2.92529 5.16876,-6.13813 6.18657,-9.7988 1.01782,-3.66066 0.65086,-7.7541 -1.71355,-12.21225 -1.24905,-2.35505 -3.16506,-3.94474 -5.43035,-4.80287 -2.26534,-0.85807 -4.85729,-1.0225 -7.62668,-0.74009 -5.53868,0.56479 -9.19951,1.58812 -15.20418,4.46591 -4.50724,2.16015 -7.60344,3.52104 -8.72719,3.81155 -1.12379,0.29039 -1.89731,0.12234 -1.36442,-0.78563 0.53284,-0.90795 0.45008,-0.39213 4.35656,-4.44096 3.90649,-4.04887 7.35543,-7.0023 10.62557,-10.84647 1.63508,-1.92206 2.98744,-3.62647 3.934,-5.02006 0.47327,-0.69678 0.84716,-1.31631 1.1102,-1.88252 0.2632,-0.5662 0.49272,-1.05888 0.36206,-1.77794 -0.0416,-0.22859 -0.17711,-0.52641 -0.41833,-0.74014 -0.24137,-0.21377 -0.53782,-0.30275 -0.75621,-0.3217 -0.43687,-0.037 -1.24942,-0.0536 -1.48833,0.0486 -0.4778,0.20348 -1.07453,0.50792 -1.67335,0.94124 -1.19761,0.86669 -4.561,3.84482 -6.57273,5.63953 -4.02363,3.58939 -6.1343,5.40572 -12.34097,11.63303 -2.03909,2.04579 -4.82362,5.24928 -5.82554,5.69796 -1.00187,0.4487 -2.63074,0.45817 -3.72071,0.11493 -18.01205,-5.67297 -44.4786,-3.89759 -68.39347,-4.54865 -15.03279,-0.40942 -29.89687,-0.13304 -41.01325,-1.07946 -5.55821,-0.47328 -7.09062,-1.00138 -10.2873,-1.67888 -7.45639,-1.35227 -1.85864,-3.68245 0.32746,-4.54794 5.58543,-1.76734 13.75935,-3.88156 23.83724,-6.17051 20.15584,-4.57783 47.94834,-9.87223 78.18908,-14.64989 60.48151,-9.55531 130.08492,-15.86606 168.61458,-11.54451 0,0 1.92799,0.25909 2.07562,-0.92517 0.14746,-1.1843 -1.82621,-1.32744 -1.82621,-1.32744 -7.33454,-0.82262 -15.76261,-1.22241 -25.01987,-1.27109 z m 183.9,44.53697 c -0.37195,0.0474 -0.73295,0.18247 -1.06193,0.33775 -0.65801,0.311 -1.31821,0.78229 -2.07561,1.39986 -1.51483,1.23505 -3.36834,3.06748 -5.56712,5.34987 -1.13368,1.17681 -3.05891,3.1548 -4.36843,4.54543 -0.80379,0.41301 -1.12977,0.74303 -1.97903,1.15848 -11.08883,5.42438 -25.8157,10.95376 -36.3794,13.04091 -6.33856,1.25231 -5.86356,-0.6548 -6.14567,-1.23167 -0.28215,-0.57675 2.04971,-2.40144 6.0572,-7.05461 2.44761,-2.84201 4.25429,-5.81944 4.73045,-8.62421 0.23808,-1.4024 0.12151,-2.79583 -0.52295,-4.00641 -0.64446,-1.21058 -1.79463,-2.16348 -3.34671,-2.75942 -5.07385,-1.94822 -12.49499,0.46479 -18.77695,4.15923 -3.14096,1.84725 -5.97762,4.06003 -8.03691,6.39577 -2.05931,2.3357 -5.14417,7.61006 -5.00619,10.53874 0.20883,4.43519 2.4549,5.55355 7.35703,6.84458 4.90213,1.29099 14.45774,-0.12357 24.12514,-2.03352 9.8871,-1.95341 27.8816,-10.12576 30.15822,-10.2974 2.27667,-0.17176 -1.57429,3.7535 -4.8085,6.95872 -0.81677,0.80947 -1.08109,1.01172 -1.86646,1.78601 -3.87172,1.47313 -9.49657,3.729 -11.91456,4.51322 -7.20933,2.33816 -18.15738,10.19141 -28.46314,18.68044 -10.30576,8.48898 -19.78714,17.54046 -23.68439,22.4535 -2.4474,3.08528 -6.21293,6.75991 -8.49549,10.54698 -1.1413,1.89351 -2.21291,4.85357 -2.15557,6.86597 0.0573,2.01243 0.61987,4.52849 2.69046,6.10517 1.06655,0.81218 3.17223,1.12903 4.88645,0.72453 1.71425,-0.40449 3.79102,-1.67076 4.83318,-2.69018 2.11956,-2.07331 3.39918,-4.05447 6.02853,-6.99109 5.25855,-5.8732 10.77738,-12.16756 15.22909,-16.48904 13.98279,-13.57347 23.96941,-24.41024 43.19458,-40.12623 5.62865,-4.60123 11.95288,-6.51139 19.74126,-9.46609 6.24213,-2.36815 12.17085,-4.52545 16.73354,-5.94524 2.28132,-0.70992 4.2398,-1.15284 5.65559,-1.50443 0.62057,-0.15405 1.95946,-0.30399 2.22847,-0.19237 0.84518,0.35054 0.97844,0.87345 1.01366,1.48026 0.037,0.60686 -0.22408,1.5025 -0.84469,2.54222 -0.95801,1.60544 -2.56892,3.37715 -5.62804,5.0447 -3.05907,1.66754 -7.39682,3.29057 -10.31713,4.68169 -1.5932,0.75892 -2.91965,1.4592 -3.89375,2.11582 -0.48708,0.32828 -0.88683,0.6403 -1.21478,0.99758 -0.32788,0.35712 -0.69517,0.82669 -0.6034,1.5607 l 0.033,0.28956 0.18494,0.24139 c 0.36989,0.49654 0.93057,0.76036 1.45612,0.85275 0.52558,0.0923 1.05483,0.0568 1.61705,-0.0412 1.1244,-0.19276 2.40307,-0.6578 3.82137,-1.31132 2.83654,-1.3071 6.19881,-3.39504 9.23561,-5.76022 0.56932,-0.44342 0.81906,-0.94931 1.35961,-1.40789 0.19605,-0.0725 0.33446,-0.1454 0.53098,-0.21707 4.27509,-1.56679 6.86275,-2.68045 10.26572,-3.53519 4.3527,-1.09332 5.55797,0.23807 5.8652,1.74856 0.19318,0.9508 0.0206,1.42338 0.0635,2.3579 0.0206,0.46727 0.13922,1.03454 0.60336,1.48026 0.46396,0.44576 1.13602,0.55389 1.70551,0.48271 0.68311,-0.0853 1.82392,0.59774 3.06724,0.15116 4.54641,-0.97357 6.66615,-1.57783 10.78604,1.0978 2.0505,1.33168 5.47621,0.2941 7.58008,0.28628 3.11987,-0.0124 6.77085,-0.39501 12.10631,-0.55434 10.67095,-0.31881 24.93703,-1.18163 39.13881,-2.11582 14.20179,-0.93419 21.32717,-2.34571 31.68787,-2.92768 4.36354,-0.23602 9.23914,0.9241 10.35887,2.26472 1.11971,1.34066 2.23164,2.47335 -0.56654,4.49221 -2.79822,2.0189 -8.65123,2.33368 -8.78189,3.66931 -0.13057,1.33564 2.06442,1.32266 4.20508,1.16239 2.14061,-0.16022 3.12551,-0.47571 7.57724,-3.50335 4.45176,-3.02856 7.96409,-6.29898 9.79561,-7.92703 0.18783,-0.16723 0.52465,-0.55726 0.44251,-1.13434 -0.0819,-0.57707 -0.47937,-0.83662 -0.69187,-0.94931 -0.42501,-0.22531 -0.69908,-0.23561 -1.08607,-0.28174 -5.26222,-0.27062 -9.85242,0.10467 -14.37321,0.3563 -10.39062,0.58362 -24.51809,1.58433 -38.71242,2.51804 -14.19432,0.9337 -28.45801,1.79886 -39.0664,2.11586 -5.30411,0.15858 -8.0225,1.14534 -10.81298,0.091 -8.91349,-3.36775 2.69194,-10.33842 6.50105,-13.4779 2.24002,-1.84619 3.03177,-3.68508 1.53661,-5.31774 -4.0457,-4.41779 -12.68202,-3.99345 -17.98857,-2.59853 -2.28791,0.6335 -4.18138,1.55871 -5.44646,2.78356 -0.63252,0.61241 -1.12194,1.31276 -1.3274,2.13192 -0.20553,0.81915 -0.0745,1.74231 0.37813,2.51808 1.55798,2.67086 5.61744,4.30986 6.7814,6.64852 1.74968,3.51551 -5.61947,5.2712 -8.83691,6.15535 -2.95479,0.81198 -3.8705,-1.27113 -3.89797,-1.78227 -0.0502,-0.93551 0.55529,-1.8926 0.68384,-2.83985 0.0643,-0.47365 0.0948,-0.941 -0.008,-1.44006 -0.10299,-0.49911 -0.40779,-1.08285 -0.94927,-1.40788 -0.63063,-0.37854 -0.9412,-0.24879 -1.36769,-0.21707 -0.4264,0.033 -0.9215,0.10996 -1.49635,0.22531 -1.14966,0.23066 -2.63074,0.61208 -4.35234,1.1102 -3.67342,0.55054 -7.78553,2.71118 -6.00154,0.28174 0.8732,-1.18921 1.23378,-2.5407 1.15849,-3.83745 -0.0754,-1.29676 -0.84326,-2.52685 -2.11584,-3.2904 -0.57525,-0.34518 -1.11315,-0.367 -1.72161,-0.35382 -0.60847,0.0124 -1.29071,0.10703 -2.08366,0.25743 -1.5859,0.30028 -3.58664,0.84486 -5.91303,1.56878 -4.65285,1.44783 -8.78213,2.7085 -15.04193,5.08329 -9.43995,3.74963 -12.41063,2.00946 -6.1072,-4.38842 2.89069,-2.93406 7.54997,-4.2949 9.9827,-6.21375 1.48821,-1.17384 2.56438,-2.21106 3.10533,-3.38691 0.27063,-0.58795 0.39873,-1.28262 0.16888,-1.95493 -0.22983,-0.67235 -0.78018,-1.17335 -1.39981,-1.4803 -0.38801,-0.19194 -0.77058,-0.23231 -1.14241,-0.18494 z m -198.37289,7.49798 c -0.66176,1.38519 -6.35678,7.34435 -9.7586,7.44959 -3.40182,0.10545 -8.04697,-3.43959 -8.47938,-4.72234 -1.55435,-4.61092 2.7915,-6.50472 5.99372,-7.73124 9.09332,-1.48924 12.90602,3.61877 12.24426,5.00399 z m 146.21853,-2.72552 c 1.16906,0.4489 1.80437,1.02989 2.16409,1.70553 0.35959,0.67568 0.45935,1.5182 0.28174,2.56636 -0.35589,2.09629 -1.23982,4.36823 -3.5249,7.02145 -5.84456,5.54154 -15.81788,10.79465 -19.30674,10.4751 -3.48889,-0.31963 -5.53221,-3.01678 -5.86574,-6.68588 -0.13881,-1.52634 0.78983,-3.55962 2.63071,-5.64756 1.84083,-2.08793 4.51728,-4.18901 7.48987,-5.9372 4.4588,-2.62225 9.09505,-3.75108 11.1918,-3.96436 2.09675,-0.21336 3.8489,0.13346 4.93917,0.46656 z m 106.75558,0.7142 c 2.56138,0.145 2.85441,0.12687 5.12111,1.07145 2.26673,0.9447 2.54247,2.76131 1.10191,3.92151 -1.44054,1.16025 -2.85662,2.84027 -6.79169,4.91487 -2.69455,1.24748 -3.65374,1.41846 -5.51348,-0.17342 -2.36304,-1.98779 -4.54893,-2.79912 -5.37248,-4.05081 -0.82356,-1.25165 -0.30606,-1.98825 0.19894,-2.65615 0.50508,-0.66791 2.17398,-1.75627 4.208,-2.31946 2.03405,-0.56324 4.48603,-0.85297 7.04741,-0.70799 z m -354.77637,5.69443 c 2.0091,0.19813 5.1319,2.97876 6.33695,5.03926 1.20511,2.06046 1.87342,4.53011 0.45038,7.41746 -1.15778,2.34962 -3.0608,5.51883 -7.48419,9.35402 -4.42337,3.83518 -10.08641,8.27137 -15.89137,12.89057 -7.74841,6.16569 -16.59274,11.62171 -23.56325,15.4604 -3.48523,1.91934 -6.57668,3.34472 -8.89771,4.06271 -1.16054,0.35877 -2.12987,0.53292 -2.79966,0.53902 -0.6698,0.005 -0.94882,-0.14705 -1.03779,-0.24137 -0.4435,-0.46913 -0.59656,-1.17994 -0.23314,-2.5583 0.36289,-1.37834 1.27706,-3.24265 2.64681,-5.43035 2.73944,-4.37543 7.28235,-10.08197 12.75929,-16.70137 3.17092,-3.83234 9.6356,-8.97906 11.46222,-10.9936 1.82663,-2.01449 8.79273,-8.05594 13.12009,-11.22274 4.34257,-3.78094 9.88937,-7.93513 13.13137,-7.61571 z m 86.557,4.90082 c 0.94494,1.40219 -0.49594,4.27613 -3.82493,6.92128 -7.27346,5.08062 -16.16899,9.48241 -22.41772,13.52079 -2.13435,1.37938 -4.21948,-0.73805 -4.38449,-1.67328 -0.16517,-0.93522 1.54588,-3.39251 2.81107,-5.30963 1.26524,-1.91707 2.40601,-3.83518 5.28422,-7.04793 2.09794,-2.3418 4.12742,-4.08175 6.82814,-5.70342 2.70072,-1.62166 6.61153,-3.06937 8.82942,-3.23298 2.21786,-0.16352 5.92934,1.12297 6.87429,2.52517 z m -277.96182,-3.49161 c -4.2687,0.32004 -6.92445,2.93072 -8.26219,6.20267 -1.80071,4.40435 0.24508,10.29266 3.10538,14.71427 1.43021,2.2108 2.70526,3.65185 2.94444,6.29115 -0.59272,4.90803 -3.78122,4.38866 -6.20267,4.68218 -1.55531,-0.008 -5.74918,-0.66876 -4.37642,-1.39985 2.29659,-1.22306 3.20567,-2.59325 3.82936,-3.9742 0.62371,-1.38094 -0.33363,-2.30694 -1.23088,-2.5905 -4.37066,-1.38115 -5.31766,2.88719 -6.87841,4.3443 -1.37381,1.28258 -3.2109,1.9188 -5.49473,2.35719 -3.90192,0.74901 -7.51649,1.36711 -9.51721,0.97341 -2.00074,-0.39377 5.37581,-2.38928 8.26218,-5.63947 4.14588,-4.66848 3.89331,-8.5808 1.02153,-13.08117 -3.46757,-3.32554 -7.95928,-3.27038 -11.79397,-2.64676 -2.4998,0.6436 -5.33674,1.68344 -8.14954,2.98468 -5.625593,2.6024 -10.971517,6.30545 -13.692543,10.19295 -2.522118,3.60328 -2.347275,6.54077 -1.625119,10.11258 1.975235,2.52055 6.852654,2.16652 13.451207,1.60093 6.455425,-0.5533 14.955035,-2.08241 22.212175,-3.47546 3.77451,-0.7126 5.40548,-0.80293 7.69904,1.59291 1.10653,0.68705 3.51361,0.72276 6.12223,0.90911 2.55178,0.18206 5.07497,0.46685 7.25657,0.10467 2.86544,-0.32458 4.26681,-2.78298 4.07878,-3.7007 -0.85194,-4.15783 -3.85895,-7.62123 -6.0176,-10.86875 -2.80021,-4.32852 -3.87003,-9.73643 -2.8077,-12.90412 1.0518,-3.13619 3.99332,-4.41057 6.34746,-4.52932 9.34327,-0.47131 18.17994,2.98654 26.33121,6.79799 3.26395,1.52619 5.13,3.56922 5.88085,5.22119 0.25167,1.4074 -0.60492,2.74048 -1.02168,3.93396 -3.37513,5.4835 -7.43464,8.33103 -12.05945,11.81003 -3.30501,2.98646 -1.23932,5.05384 2.27676,3.28237 2.41309,-1.45422 4.62888,-3.45165 6.68535,-5.06031 3.48066,-2.89238 7.81288,-2.66092 8.77706,-0.19317 1.47309,3.77034 0.27103,5.58094 3.35479,5.76828 4.64987,-0.46499 16.72723,-3.48436 23.47519,-5.03617 3.37401,-0.7759 2.43459,-0.59791 5.28557,-1.19872 3.00701,-0.63362 2.98049,2.05898 3.25015,2.51808 1.03586,1.76327 3.7113,1.58118 5.67978,1.60094 1.71985,0.0164 4.00732,-0.51619 6.09808,-0.65965 2.87451,-0.19731 7.59849,2.79986 8.85748,2.97665 5.82129,0.81734 9.0895,-0.29163 14.71427,-0.13675 2.30307,0.0527 3.98487,0.10872 4.10296,-0.16106 0.11821,-0.26938 -1.28398,-0.91862 -3.49957,-1.54463 -2.21558,-0.62601 -4.9296,-0.48476 -9.89534,-1.35158 -2.01239,-0.5339 -1.99558,-1.98895 -2.63069,-3.5237 -1.66532,-2.2898 -3.90788,-3.25057 -5.83259,-3.00075 -2.39423,0.56344 -2.84439,2.0921 -3.76508,3.9903 -0.69261,1.1916 -4.05184,1.0824 -6.00957,0.41026 -4.20931,-1.44504 -2.05889,-4.25108 -0.67577,-6.19465 2.29336,-2.37527 4.4759,-3.40182 5.57514,-4.81892 0.54965,-0.70855 0.99068,-1.4055 0.99759,-2.30085 0.008,-0.89539 -0.58647,-1.70627 -1.33547,-2.20434 -0.43406,-0.28874 -0.98836,-0.3254 -1.39981,-0.23313 -0.41148,0.0923 -0.74072,0.27844 -1.06197,0.49876 -0.64248,0.44037 -1.25016,1.06309 -1.88252,1.8343 -1.2647,1.54248 -2.94358,3.07612 -3.96617,5.29356 -0.44385,2.0921 -2.65017,2.63062 -4.06271,3.38695 -2.58086,0.97064 -5.74109,1.85352 -9.05057,2.61459 -6.61899,1.52215 -13.84643,2.57048 -18.39083,3.02493 -3.05046,0.45494 -3.66355,-0.037 -4.66607,-2.18823 -1.25173,-5.06451 1.47358,-6.76723 3.96617,-10.53894 2.16557,-3.27689 -1.42606,-3.6317 -3.89381,-2.39739 -2.39545,1.19817 -4.90399,0.75855 -5.9372,-1.13434 -1.25968,-2.30781 -3.28541,-4.79166 -6.83819,-6.26701 -8.92491,-3.70619 -18.71925,-7.74563 -27.71471,-7.07151 z m 393.16582,1.65741 c 3.22182,1.92338 1.17602,6.29643 -0.0643,7.9082 -3.69826,4.80554 -8.96608,6.44891 -11.00158,4.88644 -2.0355,-1.56247 -2.02203,-4.39026 0.58218,-6.8756 2.60418,-2.48529 4.41758,-3.96708 6.33256,-5.25135 1.39498,-0.93556 2.97397,-1.37052 4.15119,-0.66769 z m -418.33047,12.31737 c 3.42386,4.05674 0.79427,6.94134 -1.74577,10.00791 -2.17311,2.26691 -8.03782,5.9604 -10.06426,7.03937 -1.96202,1.04467 -5.26609,2.1019 -7.84402,2.43764 -6.273401,0.5377 -8.417898,-0.25249 -9.581558,-1.73773 -1.446066,-2.79912 -0.478668,-5.06302 0.61143,-6.97499 1.880459,-3.29827 6.600321,-6.97763 12.003078,-9.47697 2.70139,-1.24967 5.45726,-2.1253 7.75535,-2.83987 3.78003,-1.19686 6.00191,-0.33529 8.86575,1.54464 z m 446.60856,40.76327 c -4.72291,4.58473 -10.19821,12.14017 -15.33372,17.87596 -2.56776,2.86787 -5.16571,5.11772 -7.17613,6.57272 -1.89155,1.36896 -3.46171,1.37951 -4.78672,0.54706 -3.4414,-2.16216 -2.04176,-5.59092 -0.69995,-8.44722 1.68114,-3.57861 5.73129,-7.04197 8.32657,-10.31363 3.61828,-4.5614 13.13405,-13.68884 23.35455,-22.10759 10.22049,-8.41879 21.32481,-16.2031 27.72298,-18.27817 16.97174,-5.95966 -29.41652,32.22532 -31.40758,34.15087 z m -50.06733,-7.71126 c 9.41074,3.66009 12.04984,8.86068 12.58581,14.09093 0.53592,5.23026 -1.88577,10.4522 -4.95573,14.01437 -4.36245,5.06195 -13.43547,6.5677 -21.39961,4.93958 -3.98207,-0.81404 -7.65752,-2.3927 -10.26539,-4.52929 -2.60788,-2.13665 -4.14391,-4.75157 -4.14316,-7.86799 6.9e-4,-2.94012 2.47281,-9.20672 6.46819,-16.42782 1.1511,-2.08048 3.5463,-4.95326 5.15817,-5.67083 5.45041,-2.4266 11.2982,-0.59215 16.55172,1.45105 z"
       style="color:#000000;font-style:normal;font-variant:normal;font-weight:normal;font-stretch:normal;font-size:medium;line-height:normal;font-family:sans-serif;text-indent:0;text-align:start;text-decoration:none;text-decoration-line:none;text-decoration-style:solid;text-decoration-color:#000000;letter-spacing:normal;word-spacing:normal;text-transform:none;direction:ltr;block-progression:tb;writing-mode:lr-tb;baseline-shift:baseline;text-anchor:start;white-space:normal;clip-rule:nonzero;display:inline;overflow:visible;visibility:visible;opacity:1;isolation:auto;mix-blend-mode:normal;color-interpolation:sRGB;color-interpolation-filters:linearRGB;solid-color:#000000;solid-opacity:1;fill:#000000;fill-opacity:1;fill-rule:evenodd;stroke:none;stroke-width:0.55000001;stroke-linecap:butt;stroke-linejoin:miter;stroke-miterlimit:4;stroke-dasharray:none;stroke-dashoffset:0;stroke-opacity:1;color-rendering:auto;image-rendering:auto;shape-rendering:auto;text-rendering:auto;enable-background:accumulate" />
  </g>
</svg>
