<?xml version="1.0" encoding="UTF-8" standalone="no"?>
<!-- Created with Inkscape (http://www.inkscape.org/) -->

<svg
   xmlns:dc="http://purl.org/dc/elements/1.1/"
   xmlns:cc="http://creativecommons.org/ns#"
   xmlns:rdf="http://www.w3.org/1999/02/22-rdf-syntax-ns#"
   xmlns:svg="http://www.w3.org/2000/svg"
   xmlns="http://www.w3.org/2000/svg"
   xmlns:sodipodi="http://sodipodi.sourceforge.net/DTD/sodipodi-0.dtd"
   xmlns:inkscape="http://www.inkscape.org/namespaces/inkscape"
   width="282.22223mm"
   height="282.22223mm"
   viewBox="0 0 1000 1000"
   id="svg2"
   version="1.1"
   inkscape:version="0.91pre3 r13670"
   sodipodi:docname="Dollar_Fly.svg"
   inkscape:export-xdpi="54"
   inkscape:export-ydpi="54">
  <sodipodi:namedview
     id="base"
     pagecolor="#ffffff"
     bordercolor="#666666"
     borderopacity="1.0"
     inkscape:pageopacity="0.0"
     inkscape:pageshadow="2"
     inkscape:zoom="0.70710678"
     inkscape:cx="450.65786"
     inkscape:cy="479.01442"
     inkscape:document-units="px"
     inkscape:current-layer="layer4"
     showgrid="false"
     inkscape:window-width="1920"
     inkscape:window-height="1030"
     inkscape:window-x="0"
     inkscape:window-y="0"
     inkscape:window-maximized="1"
     inkscape:snap-global="false"
     inkscape:object-paths="true"
     inkscape:object-nodes="true"
     inkscape:snap-smooth-nodes="true"
     inkscape:snap-intersection-paths="true"
     showguides="false"
     fit-margin-top="0"
     fit-margin-left="0"
     fit-margin-right="0"
     fit-margin-bottom="0">
    <sodipodi:guide
       orientation="-0.70710678,0.70710678"
       position="-640.36161,1209.7628"
       id="guide4336" />
  </sodipodi:namedview>
  <defs
     id="defs4" />
  <metadata
     id="metadata7">
    <rdf:RDF>
      <cc:Work
         rdf:about="">
        <dc:format>image/svg+xml</dc:format>
        <dc:type
           rdf:resource="http://purl.org/dc/dcmitype/StillImage" />
        <dc:title></dc:title>
      </cc:Work>
    </rdf:RDF>
  </metadata>
  <g
     style="display:inline"
     inkscape:label="Layer 3"
     id="layer3"
     inkscape:groupmode="layer"
     transform="translate(112,27.63781)">
    <rect
       y="-27.63781"
       x="-112"
       height="1000"
       width="1000"
       id="rect4216"
       style="color:#000000;clip-rule:nonzero;display:inline;overflow:visible;visibility:visible;opacity:1;isolation:auto;mix-blend-mode:normal;color-interpolation:sRGB;color-interpolation-filters:linearRGB;solid-color:#000000;solid-opacity:1;fill:#000000;fill-opacity:1;fill-rule:evenodd;stroke:none;stroke-width:2;stroke-linecap:round;stroke-linejoin:round;stroke-miterlimit:4;stroke-dasharray:none;stroke-dashoffset:0;stroke-opacity:1;color-rendering:auto;image-rendering:auto;shape-rendering:auto;text-rendering:auto;enable-background:accumulate" />
  </g>
  <g
     style="display:inline"
     inkscape:label="Layer 2"
     id="layer2"
     inkscape:groupmode="layer"
     transform="translate(112,27.63781)">
    <path
       id="path4167"
       d="m 285.99247,318.85343 c -0.0107,24.79276 2.74431,50.19859 7.48828,75.1739 6.7183,36.06212 17.5539,71.56752 30.85547,102.90775 9.16739,22.24014 19.23667,42.37117 29.3457,59.23897 -6.15984,0.34125 -41.32429,2.49155 -40.67188,7.15509 0.71429,5.1058 19.13012,23.51234 23.21485,26.16672 3.7848,2.45948 50.14439,1.16767 53.60351,1.06803 0.11884,6.4e-4 0.23726,-0.004 0.35547,-0.009 0.0645,-0.002 0.81641,-0.0209 0.81641,-0.0209 l -0.01,-0.0262 c 0.006,7.7e-4 0.0131,-7.5e-4 0.0195,0 l -0.01,0.0262 c 0,0 0.59557,0.0146 0.63476,0.0157 0.1521,0.006 0.30402,0.0121 0.45704,0.0104 3.23904,0.0936 49.88896,1.40134 53.68359,-1.06453 4.08473,-2.65438 22.4986,-21.06092 23.21289,-26.16672 0.71428,-5.1058 -41.93945,-7.2249 -41.93945,-7.2249 l -3.94922,0.19022 c 10.13567,-16.89635 20.2348,-37.07569 29.42578,-59.37509 13.28821,-31.31209 24.11369,-66.78099 30.83203,-102.80827 4.76777,-25.07619 7.53107,-50.58736 7.50391,-75.47755 C 486.82689,265.74444 446.15736,163.97997 388.42755,163.8615 330.69774,163.74303 286.17366,266.48805 285.99247,318.85343 Z"
       style="fill:#ffffff;fill-rule:evenodd;stroke:none;stroke-width:6;stroke-linecap:butt;stroke-linejoin:miter;stroke-miterlimit:4;stroke-dasharray:none;stroke-opacity:1"
       inkscape:connector-curvature="0"
       sodipodi:nodetypes="ccccssccccccccssccccczc" />
    <path
       sodipodi:nodetypes="ccssccc"
       inkscape:connector-curvature="0"
       id="path4176"
       d="m 304.84128,295.57112 -11.85984,-5.65792 c 0,0 -336.071724,5.15285 -347.688479,16.26453 -11.616754,11.11167 40.911179,96.46956 55.55839,97.47972 14.647212,1.01015 300.930439,7.92696 300.930439,7.92696 L 391,345.0327 Z"
       style="fill:#ffffff;fill-rule:evenodd;stroke:none;stroke-width:6;stroke-linecap:butt;stroke-linejoin:miter;stroke-miterlimit:4;stroke-dasharray:none;stroke-opacity:1" />
    <path
       style="fill:#ffffff;fill-rule:evenodd;stroke:none;stroke-width:6;stroke-linecap:butt;stroke-linejoin:miter;stroke-miterlimit:4;stroke-dasharray:none;stroke-opacity:1"
       d="m 470.65872,295.57112 12.71268,-5.65682 c 0,0 335.71888,5.15175 347.33564,16.26343 11.61675,11.11167 -40.91118,96.46956 -55.55839,97.47972 -14.64721,1.01015 -302.34312,7.77014 -302.34312,7.77014 L 385,345.0327 Z"
       id="path4182"
       inkscape:connector-curvature="0"
       sodipodi:nodetypes="ccssccc" />
    <path
       sodipodi:nodetypes="ssszsszs"
       inkscape:connector-curvature="0"
       id="path4184"
       d="m 360.6702,502.69075 c -2.40451,0.005 -3.64357,1.61922 -3.5986,2.17069 0.63114,7.73959 4.30537,20.24478 8.18941,26.69861 3.85314,6.40246 15.63414,6.36991 23.84934,6.36991 8.21521,0 19.99652,0.0325 23.84965,-6.36991 3.88404,-6.45383 7.84067,-20.35503 8.47181,-28.09463 0.20558,-2.52103 -15.46736,2.21309 -32.3213,1.91981 -16.85394,-0.29329 -19.85274,-2.71084 -28.44031,-2.69448 z"
       style="fill:#000000;fill-rule:evenodd;stroke:#000000;stroke-width:5.99999952;stroke-linecap:butt;stroke-linejoin:miter;stroke-miterlimit:4;stroke-dasharray:none;stroke-opacity:1" />
    <path
       sodipodi:nodetypes="sssssssss"
       inkscape:connector-curvature="0"
       id="path4194"
       d="m 304.89354,776.97615 c -5.23192,8.32209 -14.83964,11.69472 -21.45943,7.533 -6.61979,-4.16172 -7.7449,-14.28185 -2.51298,-22.60394 2.08612,-3.31826 10.20513,-7.3299 15.83159,-9.62888 1.47271,-0.60175 -1.4609,-8.59962 0.78588,-9.39015 2.68646,-0.94523 5.48337,-0.37375 8.05734,1.24445 3.3758,2.12229 4.36741,2.38398 5.61873,5.85253 0.89865,2.49103 -12.5333,4.5108 -8.1805,5.77123 11.36581,3.29117 3.3866,18.79248 1.85937,21.22176 z"
       style="color:#000000;clip-rule:nonzero;display:inline;overflow:visible;visibility:visible;opacity:1;isolation:auto;mix-blend-mode:normal;color-interpolation:sRGB;color-interpolation-filters:linearRGB;solid-color:#000000;solid-opacity:1;fill:#ffffff;fill-opacity:1;fill-rule:evenodd;stroke:none;stroke-width:0.49999997;stroke-linecap:round;stroke-linejoin:round;stroke-miterlimit:4;stroke-dasharray:none;stroke-dashoffset:0;stroke-opacity:1;color-rendering:auto;image-rendering:auto;shape-rendering:auto;text-rendering:auto;enable-background:accumulate" />
    <path
       sodipodi:nodetypes="ssssccss"
       inkscape:connector-curvature="0"
       id="path4197"
       d="m 399.00296,677.4593 c 0,11.8552 -8.56321,16.41498 -14.14213,16.41499 -5.57892,0 -10.10153,-6.83263 -10.10153,-18.68783 0,-5.82764 7.56638,-14.13916 9.522,-23.65006 1.02887,-5.00377 -4.42649,-12.89644 -2.66204,-15.39021 2.62738,-1.91981 18.07896,9.16353 19.63672,10.63328 2.11994,2.0239 -13.55783,1.77168 -13.87058,5.47725 -0.63588,7.53416 11.61756,20.44542 11.61756,25.20258 z"
       style="color:#000000;clip-rule:nonzero;display:inline;overflow:visible;visibility:visible;opacity:1;isolation:auto;mix-blend-mode:normal;color-interpolation:sRGB;color-interpolation-filters:linearRGB;solid-color:#000000;solid-opacity:1;fill:#ffffff;fill-opacity:1;fill-rule:evenodd;stroke:none;stroke-width:0.5;stroke-linecap:round;stroke-linejoin:round;stroke-miterlimit:4;stroke-dasharray:none;stroke-dashoffset:0;stroke-opacity:1;color-rendering:auto;image-rendering:auto;shape-rendering:auto;text-rendering:auto;enable-background:accumulate" />
    <path
       sodipodi:nodetypes="ssssssss"
       inkscape:connector-curvature="0"
       id="path4200"
       d="m 531.1531,880.52512 c 6.38259,25.95048 -3.36543,42.22881 -19.4037,46.17346 -16.03828,3.94465 -32.29346,-5.93813 -38.67604,-31.88861 -3.30837,-13.45123 -0.42091,-30.10376 9.83698,-35.72687 5.98851,-3.28275 -21.75326,-22.53901 -14.0283,-24.43898 6.57036,-1.616 24.2704,-9.26314 34.89518,-3.3113 5.07694,2.84403 -11.42603,18.17162 -4.62158,18.43557 17.92607,0.69535 29.47904,20.51726 31.99746,30.75673 z"
       style="color:#000000;clip-rule:nonzero;display:inline;overflow:visible;visibility:visible;opacity:1;isolation:auto;mix-blend-mode:normal;color-interpolation:sRGB;color-interpolation-filters:linearRGB;solid-color:#000000;solid-opacity:1;fill:#ffffff;fill-opacity:1;fill-rule:evenodd;stroke:none;stroke-width:0.5;stroke-linecap:round;stroke-linejoin:round;stroke-miterlimit:4;stroke-dasharray:none;stroke-dashoffset:0;stroke-opacity:1;color-rendering:auto;image-rendering:auto;shape-rendering:auto;text-rendering:auto;enable-background:accumulate" />
    <path
       sodipodi:nodetypes="sccssss"
       inkscape:connector-curvature="0"
       id="path4234"
       d="m 277.47962,407.02374 c -1.19265,-5.25829 -3.20546,-9.46808 -3.29896,-17.22059 l -273.1199998,-2.12132 6.03955,11.47515 c 0.6662222,1.26582 1.2196095,1.96534 3.2521828,2.02433 l 265.468827,7.47858 c 1.89517,0.0534 1.91817,-0.49084 1.6584,-1.63615 z"
       style="fill:#000000;fill-rule:evenodd;stroke:#000000;stroke-width:1px;stroke-linecap:round;stroke-linejoin:round;stroke-opacity:1" />
    <path
       style="fill:#000000;fill-rule:evenodd;stroke:#000000;stroke-width:1px;stroke-linecap:round;stroke-linejoin:round;stroke-opacity:1"
       d="m 499.10252,407.02374 c 1.19265,-5.25829 3.20546,-9.46808 3.29896,-17.22059 l 273.11999,-2.12132 -6.03955,11.47515 c -0.66622,1.26582 -1.21961,1.96534 -3.25218,2.02433 l -265.46882,7.47858 c -1.89517,0.0534 -1.91817,-0.49084 -1.6584,-1.63615 z"
       id="path4236"
       inkscape:connector-curvature="0"
       sodipodi:nodetypes="sccssss" />
    <g
       style="font-style:normal;font-variant:normal;font-weight:normal;font-stretch:normal;font-size:60px;line-height:125%;font-family:'Franconia Modern';-inkscape-font-specification:'Franconia Modern';letter-spacing:0px;word-spacing:0px;fill:#000000;fill-opacity:1;stroke:none;stroke-width:1px;stroke-linecap:butt;stroke-linejoin:miter;stroke-opacity:1"
       id="flowRoot4392"
       transform="matrix(1,0,0.23781618,0.69612377,-1049.979,161.05346)">
      <path
         d="m 1080.74,298.10736 0,21.24 -8.64,0 -0.06,-33 q 0,-4.8 -4.32,-5.88 l 0,-0.9 13.02,0 0,16.08 14.22,0.06 0,-16.14 9.48,0.06 0,35.7 q 0,1.56 1.74,2.4 1.44,0.66 3.06,0.66 l 0,0.96 -11.64,0 q -2.64,0 -2.64,-2.04 l 0,-19.2 -14.22,0 z"
         id="path4401"
         inkscape:connector-curvature="0" />
      <path
         d="m 1132.5078,317.54736 q 7.44,0.24 7.38,-5.7 0,-0.78 -0.3,-2.34 -0.24,-1.62 -0.78,-4.74 -0.42,-2.28 -0.78,-4.14 -0.3,-1.86 -0.6,-3.24 -0.3,-1.26 -1.2,-1.56 -0.06,-0.06 -1.74,-0.06 l -11.04,3.18 0,18.66 9.06,-0.06 z m -9.18,-35.7 0,15 16.86,-5.04 q 0.54,-0.24 1.14,-0.24 1.5,0 2.82,1.5 1.02,1.2 1.5,2.64 0.24,0.66 0.54,2.82 0.36,2.16 0.84,5.82 0.24,1.2 0.54,3.36 0.3,2.1 0.78,5.28 0.12,1.26 0.18,2.04 0.12,0.78 0.12,1.08 0,3.24 -3.12,3.24 l -12.96,0 -17.46,0 0,-33.54 q 0,-4.32 -4.08,-5.76 l 0,-0.66 34.5,0 -4.38,7.38 q -0.42,-1.32 -1.68,-2.76 -1.2,-1.44 -2.46,-1.8 -1.56,-0.48 -10.5,-0.36 l -3.18,0 z"
         id="path4403"
         inkscape:connector-curvature="0" />
      <path
         d="m 1184.6947,285.32736 q 0,1.02 -1.38,5.76 -0.66,2.22 -1.44,4.8 -2.58,5.82 -8.52,4.26 -2.94,-0.78 -8.58,-3.42 0,-0.6 0.42,-1.44 3.96,1.44 5.04,1.44 2.76,0 4.26,-3.96 0.42,-1.08 1.02,-3.3 0.84,-3.12 0.84,-4.26 0,-4.14 -4.62,-4.08 l -7.92,0.06 q -0.3,0.24 -1.02,0.84 -0.24,0.24 -0.24,1.02 l 0,36.36 -8.22,-0.12 0,-33.72 q 0,-2.28 -0.06,-2.64 -0.24,-1.32 -1.44,-2.04 -0.3,-0.18 -1.02,-0.42 -0.66,-0.3 -1.02,-0.42 0.12,-0.36 -0.3,-0.78 l 0.3,0 24.72,0.06 q 3.84,0 4.92,0.42 1.74,0.66 2.94,2.16 1.32,1.68 1.32,3.42 z"
         id="path4405"
         inkscape:connector-curvature="0" />
      <path
         d="m 1208.9141,317.54736 q 7.44,0.24 7.38,-5.7 0,-0.78 -0.3,-2.34 -0.24,-1.62 -0.78,-4.74 -0.42,-2.28 -0.78,-4.14 -0.3,-1.86 -0.6,-3.24 -0.3,-1.26 -1.2,-1.56 -0.06,-0.06 -1.74,-0.06 l -11.04,3.18 0,18.66 9.06,-0.06 z m -9.18,-35.7 0,15 16.86,-5.04 q 0.54,-0.24 1.14,-0.24 1.5,0 2.82,1.5 1.02,1.2 1.5,2.64 0.24,0.66 0.54,2.82 0.36,2.16 0.84,5.82 0.24,1.2 0.54,3.36 0.3,2.1 0.78,5.28 0.12,1.26 0.18,2.04 0.12,0.78 0.12,1.08 0,3.24 -3.12,3.24 l -12.96,0 -17.46,0 0,-33.54 q 0,-4.32 -4.08,-5.76 l 0,-0.66 34.5,0 -4.38,7.38 q -0.42,-1.32 -1.68,-2.76 -1.2,-1.44 -2.46,-1.8 -1.56,-0.48 -10.5,-0.36 l -3.18,0 z"
         id="path4407"
         inkscape:connector-curvature="0" />
    </g>
    <g
       id="g4409"
       style="font-style:normal;font-variant:normal;font-weight:normal;font-stretch:normal;font-size:60px;line-height:125%;font-family:'Franconia Modern';-inkscape-font-specification:'Franconia Modern';letter-spacing:0px;word-spacing:0px;fill:#000000;fill-opacity:1;stroke:none;stroke-width:1px;stroke-linecap:butt;stroke-linejoin:miter;stroke-opacity:1"
       transform="matrix(1,0,-0.24662419,0.71814378,-464.50069,154.02011)">
      <path
         id="path4411"
         d="m 1080.74,298.10736 0,21.24 -8.64,0 -0.06,-33 q 0,-4.8 -4.32,-5.88 l 0,-0.9 13.02,0 0,16.08 14.22,0.06 0,-16.14 9.48,0.06 0,35.7 q 0,1.56 1.74,2.4 1.44,0.66 3.06,0.66 l 0,0.96 -11.64,0 q -2.64,0 -2.64,-2.04 l 0,-19.2 -14.22,0 z"
         inkscape:connector-curvature="0" />
      <path
         id="path4413"
         d="m 1132.5078,317.54736 q 7.44,0.24 7.38,-5.7 0,-0.78 -0.3,-2.34 -0.24,-1.62 -0.78,-4.74 -0.42,-2.28 -0.78,-4.14 -0.3,-1.86 -0.6,-3.24 -0.3,-1.26 -1.2,-1.56 -0.06,-0.06 -1.74,-0.06 l -11.04,3.18 0,18.66 9.06,-0.06 z m -9.18,-35.7 0,15 16.86,-5.04 q 0.54,-0.24 1.14,-0.24 1.5,0 2.82,1.5 1.02,1.2 1.5,2.64 0.24,0.66 0.54,2.82 0.36,2.16 0.84,5.82 0.24,1.2 0.54,3.36 0.3,2.1 0.78,5.28 0.12,1.26 0.18,2.04 0.12,0.78 0.12,1.08 0,3.24 -3.12,3.24 l -12.96,0 -17.46,0 0,-33.54 q 0,-4.32 -4.08,-5.76 l 0,-0.66 34.5,0 -4.38,7.38 q -0.42,-1.32 -1.68,-2.76 -1.2,-1.44 -2.46,-1.8 -1.56,-0.48 -10.5,-0.36 l -3.18,0 z"
         inkscape:connector-curvature="0" />
      <path
         id="path4415"
         d="m 1184.6947,285.32736 q 0,1.02 -1.38,5.76 -0.66,2.22 -1.44,4.8 -2.58,5.82 -8.52,4.26 -2.94,-0.78 -8.58,-3.42 0,-0.6 0.42,-1.44 3.96,1.44 5.04,1.44 2.76,0 4.26,-3.96 0.42,-1.08 1.02,-3.3 0.84,-3.12 0.84,-4.26 0,-4.14 -4.62,-4.08 l -7.92,0.06 q -0.3,0.24 -1.02,0.84 -0.24,0.24 -0.24,1.02 l 0,36.36 -8.22,-0.12 0,-33.72 q 0,-2.28 -0.06,-2.64 -0.24,-1.32 -1.44,-2.04 -0.3,-0.18 -1.02,-0.42 -0.66,-0.3 -1.02,-0.42 0.12,-0.36 -0.3,-0.78 l 0.3,0 24.72,0.06 q 3.84,0 4.92,0.42 1.74,0.66 2.94,2.16 1.32,1.68 1.32,3.42 z"
         inkscape:connector-curvature="0" />
      <path
         id="path4417"
         d="m 1208.9141,317.54736 q 7.44,0.24 7.38,-5.7 0,-0.78 -0.3,-2.34 -0.24,-1.62 -0.78,-4.74 -0.42,-2.28 -0.78,-4.14 -0.3,-1.86 -0.6,-3.24 -0.3,-1.26 -1.2,-1.56 -0.06,-0.06 -1.74,-0.06 l -11.04,3.18 0,18.66 9.06,-0.06 z m -9.18,-35.7 0,15 16.86,-5.04 q 0.54,-0.24 1.14,-0.24 1.5,0 2.82,1.5 1.02,1.2 1.5,2.64 0.24,0.66 0.54,2.82 0.36,2.16 0.84,5.82 0.24,1.2 0.54,3.36 0.3,2.1 0.78,5.28 0.12,1.26 0.18,2.04 0.12,0.78 0.12,1.08 0,3.24 -3.12,3.24 l -12.96,0 -17.46,0 0,-33.54 q 0,-4.32 -4.08,-5.76 l 0,-0.66 34.5,0 -4.38,7.38 q -0.42,-1.32 -1.68,-2.76 -1.2,-1.44 -2.46,-1.8 -1.56,-0.48 -10.5,-0.36 l -3.18,0 z"
         inkscape:connector-curvature="0" />
    </g>
  </g>
  <g
     style="display:inline"
     inkscape:label="Layer 4"
     id="layer4"
     inkscape:groupmode="layer"
     transform="translate(112,27.63781)">
    <path
       sodipodi:nodetypes="cssssscc"
       inkscape:connector-curvature="0"
       id="path4238"
       d="m 319.12572,459.48337 c -19.4746,-35.84265 -26.40128,-101.36778 -26.40128,-136.14317 0,-34.77539 14.05706,-76.3021 25.82717,-99.84862 10.6066,-21.21889 32.46475,-45.03614 52.50267,-52.22005 18.73833,-6.71798 3.00521,9.31294 -10.07626,23.92868 -13.76416,15.3785 -44.63121,62.74296 -48.0122,126.63938 -5.73791,108.43926 12.90479,148.61547 6.15987,137.64378 z"
       style="display:inline;fill:#000000;fill-rule:evenodd;stroke:#000000;stroke-width:1px;stroke-linecap:butt;stroke-linejoin:miter;stroke-opacity:1" />
  </g>
  <g
     style="display:inline"
     inkscape:label="Layer 5"
     id="layer5"
     inkscape:groupmode="layer"
     transform="translate(112,27.63781)">
    <g
       transform="matrix(1.1248403,0,0,1.1248403,-17.866774,250.92093)"
       style="font-style:normal;font-variant:normal;font-weight:bold;font-stretch:normal;font-size:95.48670197px;line-height:125%;font-family:'Gotham Pro Narrow';-inkscape-font-specification:'Gotham Pro Narrow Bold';letter-spacing:0px;word-spacing:0px;fill:#ffffff;fill-opacity:1;stroke:none;stroke-width:1px;stroke-linecap:butt;stroke-linejoin:miter;stroke-opacity:1"
       id="flowRoot4260">
      <path
         d="m -44.570834,-140.79706 0,-66.84069 -13.750085,0 0,66.84069 13.750085,0 z"
         id="path4364"
         inkscape:connector-curvature="0" />
      <path
         d="m 77.053864,-207.63775 -14.227519,0 -11.171944,43.92389 -12.222298,-44.01937 -12.031324,0 -12.317785,44.01937 -11.0764573,-43.92389 -14.6094657,0 19.001854,67.22264 12.604245,0 12.222297,-42.49158 12.222298,42.49158 12.604245,0 19.001854,-67.22264 z"
         id="path4366"
         inkscape:connector-curvature="0" />
      <path
         d="m 135.44249,-140.79706 -23.87168,-67.22263 -13.177164,0 -23.871675,67.22263 13.845572,0 4.965308,-14.51397 22.916809,0 4.96531,14.51397 14.22752,0 z m -23.39425,-26.73627 -14.609461,0 7.352481,-21.77097 7.25698,21.77097 z"
         id="path4368"
         inkscape:connector-curvature="0" />
      <path
         d="m 195.49168,-140.79706 0,-66.84069 -13.6546,0 0,38.95858 -25.39946,-38.95858 -12.69973,0 0,66.84069 13.46362,0 0,-40.39087 26.35433,40.39087 11.93584,0 z"
         id="path4370"
         inkscape:connector-curvature="0" />
      <path
         d="m 251.98551,-194.84253 0,-12.79522 -47.17043,0 0,12.79522 16.71017,0 0,54.04547 13.84557,0 0,-54.04547 16.61469,0 z"
         id="path4372"
         inkscape:connector-curvature="0" />
      <path
         d="m 329.19544,-194.84253 0,-12.79522 -47.17043,0 0,12.79522 16.71017,0 0,54.04547 13.84557,0 0,-54.04547 16.61469,0 z"
         id="path4374"
         inkscape:connector-curvature="0" />
      <path
         d="m 393.88171,-173.73997 0,-1.14584 c 0,-19.86123 -12.50875,-33.80229 -30.07831,-33.80229 -17.66504,0 -30.26928,14.03654 -30.26928,33.99327 l 0,1.14584 c 0,19.86123 12.50876,33.80229 30.1738,33.80229 17.56955,0 30.17379,-14.03655 30.17379,-33.99327 z m -14.22752,0.19098 c 0,13.17716 -6.49309,21.10256 -15.85079,21.10256 -9.35769,0 -15.94628,-8.11637 -15.94628,-21.29354 l 0,-1.14584 c 0,-13.17716 6.4931,-21.10256 15.8508,-21.10256 9.26221,0 15.94627,8.11637 15.94627,21.29354 l 0,1.14584 z"
         id="path4376"
         inkscape:connector-curvature="0" />
      <path
         d="m 479.00961,-159.22599 0,-0.38195 c 0,-8.78477 -4.86982,-13.08167 -11.93584,-15.94628 4.77434,-2.48265 9.07124,-6.68406 9.07124,-14.60946 0,-11.36292 -9.07124,-17.47407 -21.96194,-17.47407 l -24.73106,0 0,66.84069 25.39947,0 c 14.41849,0 24.15813,-6.30212 24.15813,-18.42893 z m -16.5192,-28.64601 c 0,5.25177 -3.91495,7.63894 -10.0261,7.63894 l -9.54867,0 0,-15.18239 10.21708,0 c 5.92017,0 9.35769,2.48266 9.35769,7.54345 z m 2.76912,27.11822 c 0,5.15629 -3.81947,7.73443 -10.02611,7.73443 l -12.31778,0 0,-15.75531 11.93584,0 c 6.97053,0 10.40805,2.96009 10.40805,8.02088 z"
         id="path4378"
         inkscape:connector-curvature="0" />
      <path
         d="m 532.29565,-140.79706 0,-12.41327 -29.69636,0 0,-14.99141 25.78141,0 0,-12.41327 -25.78141,0 0,-14.60947 29.31442,0 0,-12.41327 -42.96902,0 0,66.84069 43.35096,0 z"
         id="path4380"
         inkscape:connector-curvature="0" />
      <path
         d="m 583.98826,-140.79706 0,-12.69973 -27.02273,0 0,-54.14096 -13.75009,0 0,66.84069 40.77282,0 z"
         id="path4382"
         inkscape:connector-curvature="0" />
      <path
         d="m 607.42428,-140.79706 0,-66.84069 -13.75008,0 0,66.84069 13.75008,0 z"
         id="path4384"
         inkscape:connector-curvature="0" />
      <path
         d="m 664.70886,-140.79706 0,-12.41327 -29.69636,0 0,-14.99141 25.78141,0 0,-12.41327 -25.78141,0 0,-14.60947 29.31441,0 0,-12.41327 -42.96901,0 0,66.84069 43.35096,0 z"
         id="path4386"
         inkscape:connector-curvature="0" />
      <path
         d="m 728.24182,-207.63775 -14.51398,0 -14.13203,46.02459 -14.13203,-46.02459 -14.89593,0 22.43938,67.22264 12.69973,0 22.53486,-67.22264 z"
         id="path4388"
         inkscape:connector-curvature="0" />
      <path
         d="m 779.96429,-140.79706 0,-12.41327 -29.69636,0 0,-14.99141 25.78141,0 0,-12.41327 -25.78141,0 0,-14.60947 29.31442,0 0,-12.41327 -42.96902,0 0,66.84069 43.35096,0 z"
         id="path4390"
         inkscape:connector-curvature="0" />
    </g>
    <g
       transform="matrix(0.70503213,-0.08622562,0.19165395,0.73248592,-55.507559,102.07177)"
       style="font-style:normal;font-variant:normal;font-weight:normal;font-stretch:normal;font-size:60px;line-height:125%;font-family:sans-serif;-inkscape-font-specification:sans-serif;letter-spacing:0px;word-spacing:0px;fill:#000000;fill-opacity:1;stroke:none;stroke-width:1px;stroke-linecap:butt;stroke-linejoin:miter;stroke-opacity:1"
       id="flowRoot4312">
      <path
         d="m 514.91602,1133.1445 q 0,1.5821 -0.61524,3.1055 -0.61523,1.4941 -1.75781,2.7832 -1.11328,1.2891 -2.75391,2.3145 -1.61133,1.0253 -3.63281,1.582 l 0,3.6328 -3.22266,0 0,-3.1055 q -0.38086,0.059 -0.76172,0.059 -0.35156,0 -0.76171,0 l -0.82032,0 0,3.0469 -3.25195,0 0,-3.5742 q -1.9043,-0.5274 -3.48633,-1.5235 -1.58203,-0.996 -2.7539,-2.4023 -1.17188,-1.4355 -1.81641,-3.252 -0.64453,-1.8457 -0.64453,-4.0429 l 5.53711,0 q 0,1.8457 0.79101,3.5156 0.82032,1.6699 2.37305,2.7246 l 0,-13.1543 q -1.9043,-0.6152 -3.51562,-1.4355 -1.61133,-0.8203 -2.78321,-1.9629 -1.17187,-1.1426 -1.8164,-2.666 -0.64454,-1.5235 -0.64454,-3.545 0,-1.875 0.64454,-3.3984 0.64453,-1.5234 1.78711,-2.6953 1.17187,-1.2012 2.7832,-1.9922 1.61133,-0.8203 3.54492,-1.2598 l 0,-3.5449 3.25195,0 0,3.1348 1.08399,0 q 0.32226,0 0.61523,0 0.32227,0 0.64453,0.059 l 0,-3.1934 3.22266,0 0,3.6621 q 1.69922,0.4395 3.16406,1.2598 1.46485,0.791 2.57813,1.9629 1.11328,1.1426 1.8164,2.6367 0.70313,1.4941 0.90821,3.3105 l -4.92188,0 q -0.26367,-1.4941 -1.17187,-2.7246 -0.90821,-1.2597 -2.37305,-2.0507 l 0,12.3925 q 4.27734,1.4649 6.50391,4.043 2.25586,2.5781 2.25586,6.2988 z m -11.98243,-6.7382 q -0.55664,-0.1758 -1.14257,-0.3516 -0.58594,-0.1758 -1.20118,-0.3516 l 0,13.5059 q 0.23438,0.059 0.43946,0.059 0.20507,0 0.43945,0 0.38086,0 0.73242,0 0.35156,0 0.73242,-0.059 l 0,-12.8027 z m 0,-17.0215 q -0.38086,-0.059 -0.73242,-0.088 -0.35156,-0.029 -0.73242,-0.029 l -0.87891,0 0,11.8066 q 0.52735,0.2344 1.11328,0.4102 0.58594,0.1758 1.23047,0.3808 l 0,-12.4804 z m -5.5957,0.6445 q -1.58203,0.7617 -2.31445,2.1094 -0.73242,1.3183 -0.73242,2.9297 0,0.7617 0.11718,1.4062 0.14649,0.6152 0.49805,1.2012 0.35156,0.5566 0.9375,1.084 0.58594,0.498 1.49414,0.9961 l 0,-9.7266 z m 11.63086,22.7344 q 0,-1.4063 -0.64453,-2.5782 -0.61524,-1.2011 -2.16797,-2.1972 l 0,10.0781 q 1.49414,-0.9375 2.13867,-2.373 0.67383,-1.4356 0.67383,-2.9297 z"
         style="font-style:normal;font-variant:normal;font-weight:normal;font-stretch:normal;font-family:'Abyssinica SIL';-inkscape-font-specification:'Abyssinica SIL'"
         id="path4188"
         inkscape:connector-curvature="0" />
    </g>
    <g
       transform="matrix(0.25036356,0.06284143,-0.18038096,0.33640916,362.14618,356.21201)"
       style="font-style:normal;font-variant:normal;font-weight:normal;font-stretch:normal;font-size:60px;line-height:125%;font-family:sans-serif;-inkscape-font-specification:sans-serif;letter-spacing:0px;word-spacing:0px;fill:#000000;fill-opacity:1;stroke:none;stroke-width:1px;stroke-linecap:butt;stroke-linejoin:miter;stroke-opacity:1"
       id="flowRoot4320">
      <path
         d="m 514.91602,1133.1445 q 0,1.5821 -0.61524,3.1055 -0.61523,1.4941 -1.75781,2.7832 -1.11328,1.2891 -2.75391,2.3145 -1.61133,1.0253 -3.63281,1.582 l 0,3.6328 -3.22266,0 0,-3.1055 q -0.38086,0.059 -0.76172,0.059 -0.35156,0 -0.76171,0 l -0.82032,0 0,3.0469 -3.25195,0 0,-3.5742 q -1.9043,-0.5274 -3.48633,-1.5235 -1.58203,-0.996 -2.7539,-2.4023 -1.17188,-1.4355 -1.81641,-3.252 -0.64453,-1.8457 -0.64453,-4.0429 l 5.53711,0 q 0,1.8457 0.79101,3.5156 0.82032,1.6699 2.37305,2.7246 l 0,-13.1543 q -1.9043,-0.6152 -3.51562,-1.4355 -1.61133,-0.8203 -2.78321,-1.9629 -1.17187,-1.1426 -1.8164,-2.666 -0.64454,-1.5235 -0.64454,-3.545 0,-1.875 0.64454,-3.3984 0.64453,-1.5234 1.78711,-2.6953 1.17187,-1.2012 2.7832,-1.9922 1.61133,-0.8203 3.54492,-1.2598 l 0,-3.5449 3.25195,0 0,3.1348 1.08399,0 q 0.32226,0 0.61523,0 0.32227,0 0.64453,0.059 l 0,-3.1934 3.22266,0 0,3.6621 q 1.69922,0.4395 3.16406,1.2598 1.46485,0.791 2.57813,1.9629 1.11328,1.1426 1.8164,2.6367 0.70313,1.4941 0.90821,3.3105 l -4.92188,0 q -0.26367,-1.4941 -1.17187,-2.7246 -0.90821,-1.2597 -2.37305,-2.0507 l 0,12.3925 q 4.27734,1.4649 6.50391,4.043 2.25586,2.5781 2.25586,6.2988 z m -11.98243,-6.7382 q -0.55664,-0.1758 -1.14257,-0.3516 -0.58594,-0.1758 -1.20118,-0.3516 l 0,13.5059 q 0.23438,0.059 0.43946,0.059 0.20507,0 0.43945,0 0.38086,0 0.73242,0 0.35156,0 0.73242,-0.059 l 0,-12.8027 z m 0,-17.0215 q -0.38086,-0.059 -0.73242,-0.088 -0.35156,-0.029 -0.73242,-0.029 l -0.87891,0 0,11.8066 q 0.52735,0.2344 1.11328,0.4102 0.58594,0.1758 1.23047,0.3808 l 0,-12.4804 z m -5.5957,0.6445 q -1.58203,0.7617 -2.31445,2.1094 -0.73242,1.3183 -0.73242,2.9297 0,0.7617 0.11718,1.4062 0.14649,0.6152 0.49805,1.2012 0.35156,0.5566 0.9375,1.084 0.58594,0.498 1.49414,0.9961 l 0,-9.7266 z m 11.63086,22.7344 q 0,-1.4063 -0.64453,-2.5782 -0.61524,-1.2011 -2.16797,-2.1972 l 0,10.0781 q 1.49414,-0.9375 2.13867,-2.373 0.67383,-1.4356 0.67383,-2.9297 z"
         style="font-style:normal;font-variant:normal;font-weight:normal;font-stretch:normal;font-family:'Abyssinica SIL';-inkscape-font-specification:'Abyssinica SIL'"
         id="path4195"
         inkscape:connector-curvature="0" />
    </g>
    <g
       transform="matrix(0.27211327,0.07101704,-0.0537571,0.28286506,304.91263,323.00552)"
       style="font-style:normal;font-variant:normal;font-weight:normal;font-stretch:normal;font-size:60px;line-height:125%;font-family:sans-serif;-inkscape-font-specification:sans-serif;letter-spacing:0px;word-spacing:0px;fill:#000000;fill-opacity:1;stroke:none;stroke-width:1px;stroke-linecap:butt;stroke-linejoin:miter;stroke-opacity:1"
       id="flowRoot4328">
      <path
         d="m 514.91602,1133.1445 q 0,1.5821 -0.61524,3.1055 -0.61523,1.4941 -1.75781,2.7832 -1.11328,1.2891 -2.75391,2.3145 -1.61133,1.0253 -3.63281,1.582 l 0,3.6328 -3.22266,0 0,-3.1055 q -0.38086,0.059 -0.76172,0.059 -0.35156,0 -0.76171,0 l -0.82032,0 0,3.0469 -3.25195,0 0,-3.5742 q -1.9043,-0.5274 -3.48633,-1.5235 -1.58203,-0.996 -2.7539,-2.4023 -1.17188,-1.4355 -1.81641,-3.252 -0.64453,-1.8457 -0.64453,-4.0429 l 5.53711,0 q 0,1.8457 0.79101,3.5156 0.82032,1.6699 2.37305,2.7246 l 0,-13.1543 q -1.9043,-0.6152 -3.51562,-1.4355 -1.61133,-0.8203 -2.78321,-1.9629 -1.17187,-1.1426 -1.8164,-2.666 -0.64454,-1.5235 -0.64454,-3.545 0,-1.875 0.64454,-3.3984 0.64453,-1.5234 1.78711,-2.6953 1.17187,-1.2012 2.7832,-1.9922 1.61133,-0.8203 3.54492,-1.2598 l 0,-3.5449 3.25195,0 0,3.1348 1.08399,0 q 0.32226,0 0.61523,0 0.32227,0 0.64453,0.059 l 0,-3.1934 3.22266,0 0,3.6621 q 1.69922,0.4395 3.16406,1.2598 1.46485,0.791 2.57813,1.9629 1.11328,1.1426 1.8164,2.6367 0.70313,1.4941 0.90821,3.3105 l -4.92188,0 q -0.26367,-1.4941 -1.17187,-2.7246 -0.90821,-1.2597 -2.37305,-2.0507 l 0,12.3925 q 4.27734,1.4649 6.50391,4.043 2.25586,2.5781 2.25586,6.2988 z m -11.98243,-6.7382 q -0.55664,-0.1758 -1.14257,-0.3516 -0.58594,-0.1758 -1.20118,-0.3516 l 0,13.5059 q 0.23438,0.059 0.43946,0.059 0.20507,0 0.43945,0 0.38086,0 0.73242,0 0.35156,0 0.73242,-0.059 l 0,-12.8027 z m 0,-17.0215 q -0.38086,-0.059 -0.73242,-0.088 -0.35156,-0.029 -0.73242,-0.029 l -0.87891,0 0,11.8066 q 0.52735,0.2344 1.11328,0.4102 0.58594,0.1758 1.23047,0.3808 l 0,-12.4804 z m -5.5957,0.6445 q -1.58203,0.7617 -2.31445,2.1094 -0.73242,1.3183 -0.73242,2.9297 0,0.7617 0.11718,1.4062 0.14649,0.6152 0.49805,1.2012 0.35156,0.5566 0.9375,1.084 0.58594,0.498 1.49414,0.9961 l 0,-9.7266 z m 11.63086,22.7344 q 0,-1.4063 -0.64453,-2.5782 -0.61524,-1.2011 -2.16797,-2.1972 l 0,10.0781 q 1.49414,-0.9375 2.13867,-2.373 0.67383,-1.4356 0.67383,-2.9297 z"
         style="font-style:normal;font-variant:normal;font-weight:normal;font-stretch:normal;font-family:'Abyssinica SIL';-inkscape-font-specification:'Abyssinica SIL'"
         id="path4191"
         inkscape:connector-curvature="0" />
    </g>
  </g>
</svg>
