<?xml version="1.0" encoding="UTF-8" standalone="no"?>
<!-- Created with Inkscape (http://www.inkscape.org/) -->

<svg
   xmlns:dc="http://purl.org/dc/elements/1.1/"
   xmlns:cc="http://creativecommons.org/ns#"
   xmlns:rdf="http://www.w3.org/1999/02/22-rdf-syntax-ns#"
   xmlns:svg="http://www.w3.org/2000/svg"
   xmlns="http://www.w3.org/2000/svg"
   xmlns:sodipodi="http://sodipodi.sourceforge.net/DTD/sodipodi-0.dtd"
   xmlns:inkscape="http://www.inkscape.org/namespaces/inkscape"
   width="644.47729"
   height="560.63464"
   id="svg2"
   version="1.1"
   inkscape:version="0.48.4 r9939"
   sodipodi:docname="evil.svg"
   inkscape:export-filename="/home/user/Документы/Статья_iPhone6/evil.png"
   inkscape:export-xdpi="144"
   inkscape:export-ydpi="144">
  <title
     id="title3026">Android Evil</title>
  <defs
     id="defs4" />
  <sodipodi:namedview
     id="base"
     pagecolor="#ffffff"
     bordercolor="#666666"
     borderopacity="1.0"
     inkscape:pageopacity="0.0"
     inkscape:pageshadow="2"
     inkscape:zoom="0.7"
     inkscape:cx="481.33933"
     inkscape:cy="296.3837"
     inkscape:document-units="px"
     inkscape:current-layer="g3816"
     showgrid="false"
     inkscape:window-width="1366"
     inkscape:window-height="718"
     inkscape:window-x="0"
     inkscape:window-y="0"
     inkscape:window-maximized="1"
     inkscape:object-paths="true"
     inkscape:snap-nodes="true"
     inkscape:object-nodes="true"
     inkscape:snap-smooth-nodes="true"
     inkscape:snap-global="false"
     fit-margin-top="0"
     fit-margin-left="0"
     fit-margin-right="0"
     fit-margin-bottom="0" />
  <metadata
     id="metadata7">
    <rdf:RDF>
      <cc:Work
         rdf:about="">
        <dc:format>image/svg+xml</dc:format>
        <dc:type
           rdf:resource="http://purl.org/dc/dcmitype/StillImage" />
        <dc:title>Android Evil</dc:title>
        <dc:date>8.09.2014</dc:date>
        <dc:creator>
          <cc:Agent>
            <dc:title>Aniterum</dc:title>
          </cc:Agent>
        </dc:creator>
        <dc:rights>
          <cc:Agent>
            <dc:title></dc:title>
          </cc:Agent>
        </dc:rights>
        <dc:source>собственная работа</dc:source>
        <cc:license
           rdf:resource="http://creativecommons.org/licenses/by-sa/3.0/" />
      </cc:Work>
      <cc:License
         rdf:about="http://creativecommons.org/licenses/by-sa/3.0/">
        <cc:permits
           rdf:resource="http://creativecommons.org/ns#Reproduction" />
        <cc:permits
           rdf:resource="http://creativecommons.org/ns#Distribution" />
        <cc:requires
           rdf:resource="http://creativecommons.org/ns#Notice" />
        <cc:requires
           rdf:resource="http://creativecommons.org/ns#Attribution" />
        <cc:permits
           rdf:resource="http://creativecommons.org/ns#DerivativeWorks" />
        <cc:requires
           rdf:resource="http://creativecommons.org/ns#ShareAlike" />
      </cc:License>
    </rdf:RDF>
  </metadata>
  <g
     inkscape:groupmode="layer"
     id="layer5"
     inkscape:label="Фон"
     transform="translate(3.0304577,1.3290386)"
     style="display:none">
    <rect
       style="fill:#ffffff;fill-opacity:1;stroke:none"
       id="rect3948"
       width="644.47729"
       height="560.63464"
       x="-3.0304577"
       y="-1.3290386" />
  </g>
  <g
     inkscape:groupmode="layer"
     id="layer2"
     inkscape:label="Слой"
     style="display:none"
     transform="translate(-46.598676,-224.90193)">
    <path
       style="fill:none;stroke:#000000;stroke-width:1px;stroke-linecap:round;stroke-linejoin:round;stroke-opacity:1"
       d="m 134.73807,378.05997 c -8.6436,-4.62395 -15.78142,-12.71153 -39.676944,-10.19343 -23.895524,2.5181 -56.378433,31.34484 -41.523041,78.90919 14.855392,47.56435 46.216271,62.01149 63.639615,64.14469 17.42334,2.1332 26.77293,-3.12204 32.38615,-8.43836 7.22036,4.14796 28.67402,14.55573 47.12003,1.78046 18.44601,-12.77527 22.45731,-32.10875 22.49384,-48.13544 -10.49918,-0.49099 -24.15298,-5.15081 -31.31998,-31.59483 -7.167,-26.44402 8.72843,-39.07584 22.99737,-43.31182 -13.44399,-19.03792 -20.9394,-19.12058 -37.10887,-20.81274 -16.16947,-1.69216 -32.35423,12.34495 -39.00817,17.65228 z"
       id="path3016"
       inkscape:connector-curvature="0"
       sodipodi:nodetypes="czzzczczczc" />
    <path
       style="fill:none;stroke:#000000;stroke-opacity:1"
       d="m 301.54588,325.61757 c 2.96027,-7.21176 6.65887,-12.80822 13.0357,-13.57142 6.37683,-0.7632 19.22226,14.80282 10.31754,24.04214 -8.90472,9.23932 -26.31351,-3.25896 -23.35324,-10.47072 z"
       id="path3786"
       inkscape:connector-curvature="0"
       sodipodi:nodetypes="zzzz" />
    <path
       style="fill:none;stroke:#000000;stroke-opacity:1"
       d="m 376.74239,342.99353 c -9.34975,2.54439 -16.99822,24.54525 4.75117,27.79214 9.6745,1.44428 27.87457,-5.84985 27.85343,-15.33547 -0.0151,-6.76348 -24.67539,-14.61449 -32.6046,-12.45667 z"
       id="path3788"
       inkscape:connector-curvature="0"
       sodipodi:nodetypes="ssss" />
    <path
       style="fill:none;stroke:#000000;stroke-width:1px;stroke-linecap:butt;stroke-linejoin:miter;stroke-opacity:1"
       d="m 501.97291,303.48738 c 11.6163,12.47823 21.6176,28.04867 26.71939,43.51784 4.91168,14.89274 2.40907,39.56013 -12.12183,45.45687 -94.19172,38.22361 -219.13422,10.01414 -222.61608,-24.98333 -6.38859,-64.21409 59.9128,-105.11008 123.70779,-104.28031 20.03421,0.26058 41.96745,8.43994 60.09288,20.18015"
       id="path3790"
       inkscape:connector-curvature="0"
       sodipodi:nodetypes="cssssc" />
    <path
       style="fill:none;stroke:#000000;stroke-width:1px;stroke-linecap:butt;stroke-linejoin:miter;stroke-opacity:1"
       d="m 456.07143,324.50504 c 0,0 -12.23912,-11.48107 -8.21429,-19.28571 7.76654,-15.06029 38.61075,-30.65608 51.78572,-20 13.51024,10.92723 -14.28572,52.14285 -14.28572,52.14285"
       id="path3792"
       inkscape:connector-curvature="0"
       sodipodi:nodetypes="cssc" />
    <path
       style="fill:none;stroke:#000000;stroke-width:1px;stroke-linecap:butt;stroke-linejoin:miter;stroke-opacity:1"
       d="m 334.34898,287.43018 c 0,0 7.17534,-44.54003 19.93673,-45.42514 12.76139,-0.88511 21.6011,26.53756 21.6011,26.53756"
       id="path3796"
       inkscape:connector-curvature="0"
       sodipodi:nodetypes="czc" />
    <path
       style="fill:none;stroke:#000000;stroke-width:0.76954168px;stroke-linecap:butt;stroke-linejoin:miter;stroke-opacity:1"
       d="m 310.53361,387.90669 c 0,0 -2.38073,21.72512 8.52165,25.17423 -1.51488,-9.9039 0.72494,-20.17621 0.72494,-20.17621"
       id="path3798"
       inkscape:connector-curvature="0"
       sodipodi:nodetypes="ccc" />
    <path
       style="fill:none;stroke:#000000;stroke-width:1px;stroke-linecap:butt;stroke-linejoin:miter;stroke-opacity:1"
       d="m 365.76723,406.53108 c 0,0 -4.0017,15.61837 13.29251,27.3652 -1.67631,-15.67977 2.29056,-25.11261 2.29056,-25.11261"
       id="path3800"
       inkscape:connector-curvature="0"
       sodipodi:nodetypes="ccc" />
    <path
       style="fill:none;stroke:#000000;stroke-width:1px;stroke-linecap:butt;stroke-linejoin:miter;stroke-opacity:1"
       d="m 310.68311,399.02219 c -12.53092,7.00454 -21.92017,16.22654 -17.46882,26.19713 25.24598,56.54849 228.65961,31.73043 236.42857,-21.42856 0.82114,-5.61864 -10.87344,-12.41384 -10.87344,-12.41384"
       id="path3802"
       inkscape:connector-curvature="0"
       sodipodi:nodetypes="cssc" />
    <path
       style="fill:none;stroke:#000000;stroke-width:1px;stroke-linecap:butt;stroke-linejoin:miter;stroke-opacity:1"
       d="m 293.36614,432.91932 c -18.67293,26.89709 -46.78317,49.17876 -80.22759,52.3508 m -68.75208,21.19617 c 19.72582,53.94056 120.4544,14.524 149.46613,-10.85384"
       id="path3806"
       inkscape:connector-curvature="0"
       sodipodi:nodetypes="cccc" />
    <path
       style="fill:none;stroke:#000000;stroke-width:1px;stroke-linecap:butt;stroke-linejoin:miter;stroke-opacity:1"
       d="m 571.63232,617.26992 c -11.97156,14.08492 -31.44791,12.55279 -35.24132,-9.87993 -5.37979,-31.8139 -36.19515,-76.14462 -51.51778,-115.15739 -7.95306,-20.24919 9.65556,-35.06405 27.69761,-29.97617"
       id="path3808"
       inkscape:connector-curvature="0"
       sodipodi:nodetypes="cssc" />
    <path
       style="fill:none;stroke:#000000;stroke-width:1px;stroke-linecap:butt;stroke-linejoin:miter;stroke-opacity:1"
       d="m 292.14286,422.36218 c 9.17095,65.21512 -11.61492,144.88064 10.71428,201.42857 19.22604,44.09417 59.94081,61.04339 105,67.85715 80.80464,12.21911 115.72954,-22.52419 122.62691,-47.08594 6.89737,-24.56175 0.56919,-51.61987 0.90257,-55.09923"
       id="path3812"
       inkscape:connector-curvature="0"
       sodipodi:nodetypes="ccszc" />
    <path
       style="fill:none;stroke:#000000;stroke-width:1px;stroke-linecap:butt;stroke-linejoin:miter;stroke-opacity:1"
       d="m 283.81914,503.10317 c -1.65432,12.41628 3.69338,32.01504 4.75229,41.40187 1.54327,13.68055 -19.81114,129.77051 -74.28572,151.42857 23.85974,-8.15789 59.18133,-4.72345 77.14287,-5.35715 13.47017,-0.47524 21.9575,-0.69208 35.35158,-1.45132"
       id="path3814"
       inkscape:connector-curvature="0"
       sodipodi:nodetypes="cscsc" />
    <path
       style="fill:none;stroke:#000000;stroke-width:1px;stroke-linecap:butt;stroke-linejoin:miter;stroke-opacity:1"
       d="m 325.51044,656.61599 c -5.3237,29.77965 3.84704,73.88523 31.27527,77.88905 27.42823,4.00382 32.14819,-23.46374 33.68198,-46.08233"
       id="path3816"
       inkscape:connector-curvature="0"
       sodipodi:nodetypes="czc" />
    <path
       style="fill:none;stroke:#000000;stroke-width:1px;stroke-linecap:butt;stroke-linejoin:miter;stroke-opacity:1"
       d="m 426.5332,693.36567 c -2.97882,20.71292 2.94521,67.86107 39.78683,66.94916 36.84162,-0.91191 44.82193,-57.0731 37.50192,-83.84267"
       id="path3818"
       inkscape:connector-curvature="0"
       sodipodi:nodetypes="czc" />
    <path
       style="fill:none;stroke:#000000;stroke-width:1px;stroke-linecap:butt;stroke-linejoin:miter;stroke-opacity:1"
       d="m 474.03639,450.07667 c 11.0618,-2.18906 56.91253,-0.7174 85.4279,-23.96449 28.51537,-23.24709 78.07685,-91.56122 60.54566,-119.80895"
       id="path3820"
       inkscape:connector-curvature="0"
       sodipodi:nodetypes="ccc" />
    <path
       style="fill:none;stroke:#000000;stroke-width:1px;stroke-linecap:butt;stroke-linejoin:miter;stroke-opacity:1"
       d="m 559.46429,426.11218 c 18.81841,18.75422 28.99078,64.34 34.66087,99.26262 31.35058,159.41002 113.79098,188.52274 94.79915,191.16744 -48.50343,6.75432 -102.39692,90.70114 -125.89385,64.94976 -3.53535,-32.19742 24.09653,-206.1375 -4.49405,-247.95339 -20.62033,-30.15879 -39.57626,-92.19292 -84.50002,-83.46194 34.53483,-9.49756 128.98101,-65.38753 85.24932,-126.28592 31.5885,2.58711 53.20368,-9.40244 60.71429,-15 7.51061,-5.59756 -73.16568,-56.00443 -109.61132,-66.93364 -65.61242,-19.67566 -141.32732,-30.59288 -186.10297,11.93364 6.72216,3.50089 11.00184,6.31108 15.55478,10.24875"
       id="path3822"
       inkscape:connector-curvature="0"
       sodipodi:nodetypes="ccscscczscc" />
    <path
       style="fill:none;stroke:#000000;stroke-width:1px;stroke-linecap:butt;stroke-linejoin:miter;stroke-opacity:1"
       d="m 134.46428,363.07647 c -3.47705,-1.77048 3.87714,-16.82196 13.21429,-27.67856 9.33715,-10.8566 24.68377,-22.35214 30.35713,-20.17858 5.67337,2.17356 -1.23094,10.03832 -10.35714,23.39287 -9.1262,13.35455 -29.73723,26.23475 -33.21428,24.46427 z"
       id="path3828"
       inkscape:connector-curvature="0"
       sodipodi:nodetypes="zzzzz" />
    <path
       style="fill:none;stroke:#000000;stroke-width:1px;stroke-linecap:butt;stroke-linejoin:miter;stroke-opacity:1"
       d="m 507.26687,674.16009 c 16.10192,5.03953 35.03522,10.94498 60.3788,25.06146"
       id="path3830"
       inkscape:connector-curvature="0"
       sodipodi:nodetypes="cc" />
    <path
       style="fill:none;stroke:#000000;stroke-width:1px;stroke-linecap:butt;stroke-linejoin:miter;stroke-opacity:1"
       d="m 529.64286,403.79076 c 0.65537,5.07628 -0.60635,11.64271 0.049,16.71899"
       id="path3832"
       inkscape:connector-curvature="0"
       sodipodi:nodetypes="cc" />
    <path
       style="fill:none;stroke:#000000;stroke-width:1px;stroke-linecap:butt;stroke-linejoin:miter;stroke-opacity:1"
       d="m 474.03639,450.07667 c -44.08356,14.21422 -88.16712,19.857 -132.25068,42.64265 -16.54762,-23.45238 -37.14228,-34.08087 -49.64285,-70.35714"
       id="path3834"
       inkscape:connector-curvature="0"
       sodipodi:nodetypes="ccc" />
    <path
       style="fill:none;stroke:#000000;stroke-width:1px;stroke-linecap:butt;stroke-linejoin:miter;stroke-opacity:1"
       d="m 341.78571,492.71932 c 5.67891,5.84534 26.53255,29.21377 16.60715,33.57143 -9.9254,4.35766 -16.53512,-23.52687 -16.60715,-33.57143 -1.70262,8.03134 -9.1096,37.34959 -18.03571,32.32144 -8.92611,-5.02816 12.71469,-27.17149 18.03571,-32.32144 z"
       id="path3836"
       inkscape:connector-curvature="0"
       sodipodi:nodetypes="czczc" />
    <path
       style="fill:#00ff00;fill-opacity:1;stroke:none"
       d=""
       id="path3027"
       inkscape:connector-curvature="0" />
  </g>
  <g
     style="display:inline"
     inkscape:label="Копия слоя Слой"
     id="g3816"
     inkscape:groupmode="layer"
     transform="translate(-46.598676,-224.90193)">
    <path
       sodipodi:nodetypes="zzzz"
       inkscape:connector-curvature="0"
       id="path3821"
       d="m 301.54588,325.61757 c 2.96027,-7.21176 6.65887,-12.80822 13.0357,-13.57142 6.37683,-0.7632 19.22226,14.80282 10.31754,24.04214 -8.90472,9.23932 -26.31351,-3.25896 -23.35324,-10.47072 z"
       style="fill:none;stroke:none" />
    <path
       sodipodi:nodetypes="ssss"
       inkscape:connector-curvature="0"
       id="path3823"
       d="m 376.74239,342.99353 c -9.34975,2.54439 -16.99822,24.54525 4.75117,27.79214 9.6745,1.44428 27.87457,-5.84985 27.85343,-15.33547 -0.0151,-6.76348 -24.67539,-14.61449 -32.6046,-12.45667 z"
       style="fill:none;stroke:none" />
    <path
       inkscape:connector-curvature="0"
       id="path3865"
       d="m 418.58108,691.65156 c -67.94163,-7.695 -106.79973,-35.48203 -119.47064,-85.43223 -5.26147,-20.74134 -6.50238,-46.39338 -4.63627,-95.84076 0.87474,-23.17857 1.25627,-50.11066 0.84784,-59.84909 l -0.74259,-17.70623 3.82627,6.99195 c 5.92896,10.83428 11.87718,18.96617 21.83368,29.84909 5.0318,5.5 11.49176,12.79316 14.35547,16.20702 l 5.20673,6.20701 -8.45792,10.07332 c -11.91879,14.19518 -14.15766,23.94122 -5.4998,23.94122 4.89536,0 7.46564,-3.42676 12.03447,-16.04465 l 3.18486,-8.79574 3.2157,10.18899 c 3.56313,11.28984 7.92794,16.57141 13.09097,15.84051 2.60073,-0.36817 3.45312,-1.49723 3.79496,-5.02671 0.5386,-5.56089 -2.06693,-10.80569 -10.52957,-21.19552 l -6.47378,-7.94806 10.4241,-4.80416 c 14.65485,-6.754 36.31346,-14.08481 61.60705,-20.85221 11.92081,-3.18946 30.9599,-8.41124 42.30912,-11.60396 23.65084,-6.65338 29.37298,-6.68691 41.75371,-0.24466 6.70019,3.48641 7.18382,4.01863 4.03993,4.44583 -11.65157,1.58325 -20.46549,8.73961 -22.20879,18.03219 -1.50722,8.03423 2.48838,18.30762 23.48895,60.39428 24.75558,49.61197 24.15677,48.12457 26.01453,64.61706 1.82505,16.20214 0.72461,30.26698 -3.33586,42.63604 -3.39534,10.34294 -15.04577,24.23643 -26.47192,31.56856 -19.89255,12.76502 -50.53598,18.05054 -83.2012,14.35091 z"
       style="fill:#00ff00;fill-opacity:1;stroke:none" />
    <path
       inkscape:connector-curvature="0"
       id="path3867"
       d="m 352.80261,453.93648 c -24.03758,-3.28239 -43.74834,-11.33206 -52.69272,-21.51915 -6.27412,-7.14583 -7.78417,-11.56931 -5.68195,-16.64452 1.53198,-3.69854 11.93645,-13.96566 14.15247,-13.96566 0.5025,0 1.83321,2.03457 2.95715,4.52128 1.12394,2.48671 3.48995,5.45798 5.25781,6.60282 l 3.21429,2.08153 0,-10.17425 c 0,-5.59583 0.26813,-10.17424 0.59585,-10.17424 0.32771,0 3.59484,1.28552 7.26027,2.85671 5.69191,2.43983 17.30029,5.71382 32.31298,9.11343 3.21396,0.7278 3.84424,1.76721 4.47729,7.38357 0.78402,6.95582 5.13198,14.2419 11.47738,19.23319 l 3.87623,3.04904 0,-8.49654 c 0,-4.6731 0.39363,-10.46471 0.87474,-12.87024 l 0.87474,-4.3737 22.33954,0.81881 c 36.12339,1.32404 69.59279,-3.10454 99.97038,-13.2278 l 14.77367,-4.92329 4.0704,2.89838 c 5.5978,3.98599 6.3127,7.38846 2.94101,13.9975 -15.51484,30.41163 -105.09823,53.09232 -173.05153,43.81313 z"
       style="fill:#00ff00;fill-opacity:1;stroke:none" />
    <path
       inkscape:connector-curvature="0"
       id="path3869"
       d="m 326.78544,472.81694 c -13.48826,-15.36567 -25.34721,-30.83747 -25.34721,-33.06926 0,-0.40899 4.01785,1.43996 8.92857,4.10878 32.69993,17.7714 95.14684,19.54785 153.92857,4.37886 25.97484,-6.70296 44.90407,-15.82957 56.68273,-27.32923 6.67031,-6.5123 7.60298,-7.02566 7.60298,-4.18479 0,2.4181 -2.48962,4.89358 -9.83147,9.77557 -20.99707,13.96211 -37.65105,20.74615 -76.5971,31.20203 -54.14652,14.53676 -75.19632,21.30893 -91.02393,29.28434 -3.70603,1.86743 -7.24174,3.38282 -7.85715,3.36752 -0.6154,-0.0153 -8.0341,-7.90551 -16.48599,-17.53382 l 0,0 z"
       style="fill:#00ff00;fill-opacity:1;stroke:none" />
    <path
       inkscape:connector-curvature="0"
       id="path3871"
       d="m 544.30133,620.60432 c -2.23299,-2.23299 -4.76876,-6.8937 -5.63504,-10.35715 -4.72587,-18.89428 -11.01929,-34.11978 -27.68889,-66.98696 -20.05499,-39.54212 -26.68203,-54.6925 -26.68203,-60.99905 0,-10.57657 9.61746,-19.02544 21.65692,-19.02544 6.69553,0 6.70899,0.01 15.14229,11.20178 4.64244,6.16098 11.84552,17.25027 16.00685,24.64286 4.16133,7.39259 11.41662,20.04426 16.12286,28.11481 5.14883,8.82953 9.5899,18.60869 11.1507,24.55366 3.66064,13.9431 5.87471,35.4842 5.36,52.1485 l -0.43962,14.23304 -4.85412,3.26696 c -7.01392,4.72056 -14.93837,4.40853 -20.13992,-0.79301 z"
       style="fill:#00ff00;fill-opacity:1;stroke:none" />
    <path
       inkscape:connector-curvature="0"
       id="path3873"
       d="m 453.75932,756.85128 c -15.05647,-5.36686 -24.44621,-22.94646 -26.15764,-48.97271 l -0.86895,-13.21428 15.9844,0 c 19.15082,0 34.10928,-2.80734 49.02188,-9.20021 6.05828,-2.59712 11.36185,-4.37525 11.78571,-3.95139 0.42386,0.42385 0.77065,7.48142 0.77065,15.68349 0,43.32278 -22.34754,69.70286 -50.53605,59.6551 z"
       style="fill:#00ff00;fill-opacity:1;stroke:none" />
    <path
       inkscape:connector-curvature="0"
       id="path3875"
       d="m 350.67541,731.23567 c -14.98917,-6.53004 -24.87193,-29.94157 -24.92666,-59.04945 l -0.0248,-13.19235 7.5,5.76483 c 9.80618,7.53745 30.34584,17.47767 44.45538,21.5143 l 11.2411,3.21599 -0.93118,9.08886 c -1.71468,16.73628 -8.7371,29.97497 -17.71544,33.39723 -4.77502,1.82009 -14.57167,1.45048 -19.59839,-0.73941 z"
       style="fill:#00ff00;fill-opacity:1;stroke:none" />
    <path
       inkscape:connector-curvature="0"
       id="path3877"
       d="m 175.00966,530.44582 c -12.30647,-3.06924 -21.97483,-9.90861 -26.47394,-18.72759 -2.66997,-5.23357 -2.67652,-5.47576 -0.1698,-6.27136 1.43408,-0.45516 5.49497,0.44974 9.02421,2.01089 8.45877,3.74171 20.42525,5.05439 27.84429,3.05442 8.22309,-2.21673 18.75331,-9.62558 24.55509,-17.27646 4.49962,-5.93373 5.76789,-6.65765 16.47608,-9.40447 21.33248,-5.47213 33.82033,-13.10681 52.67264,-32.20239 l 13.92857,-14.10831 0,28.4502 0,28.4502 -6.78572,4.93108 c -17.07471,12.40795 -46.3737,24.92418 -69.64285,29.75072 -12.95648,2.68746 -33.38291,3.34967 -41.42857,1.34307 z"
       style="fill:#00ff00;fill-opacity:1;stroke:none" />
    <path
       inkscape:connector-curvature="0"
       id="path3881"
       d=""
       style="fill:#00ff00;fill-opacity:1;stroke:none" />
    <path
       inkscape:connector-curvature="0"
       id="path3883"
       d="m 337.15251,281.42129 c 0,-4.33774 6.23657,-23.75852 9.63422,-30.00112 4.81738,-8.85112 8.93248,-10.07742 14.87945,-4.43408 2.38026,2.25872 6.21185,7.81713 8.51465,12.352 3.82798,7.53839 3.96949,8.31594 1.65073,9.06989 -8.26153,2.68628 -21.97277,8.38214 -27.35898,11.36535 -7.26095,4.02156 -7.32007,4.03487 -7.32007,1.64796 z"
       style="fill:#00ff00;fill-opacity:1;stroke:none" />
    <path
       inkscape:connector-curvature="0"
       id="path3885"
       d="m 531.43823,408.95412 c 0,-6.11295 -0.69842,-7.9118 -4.86035,-12.51856 l -4.86034,-5.37983 3.38284,-3.93278 c 4.89816,-5.69446 6.73659,-14.30205 6.0172,-28.17295 -0.5012,-9.66394 -1.52692,-14.09317 -5.02444,-21.69635 -4.99151,-10.85091 -11.62814,-21.15976 -17.97557,-27.92193 -3.7995,-4.04776 -4.29389,-5.52025 -4.0019,-11.91938 0.21104,-4.62515 -0.46181,-8.51435 -1.83584,-10.61137 -2.92956,-4.47107 -10.98612,-6.93936 -18.81717,-5.76502 -5.01286,0.75172 -7.1492,0.37426 -10.25002,-1.81101 -5.02434,-3.54086 -21.66163,-10.75933 -31.77441,-13.78605 -10.94344,-3.27534 -30.02184,-4.26089 -43.57143,-2.2508 -6.28572,0.93249 -13.72545,2.03691 -16.53276,2.45427 -4.95715,0.73698 -5.17562,0.57178 -7.58424,-5.7351 -3.05645,-8.0032 -11.69992,-17.56447 -16.91305,-18.70896 -5.17247,-1.13556 -11.55767,4.7109 -15.01341,13.74666 l -2.56596,6.70924 -5.97702,-4.01422 -5.97702,-4.01421 3.85316,-3.65655 c 4.7363,-4.49463 22.77216,-14.20497 32.42458,-17.45709 20.22454,-6.81412 52.13875,-8.19319 83.34808,-3.60163 21.21578,3.1213 55.9433,11.41368 70.07472,16.73273 28.5005,10.72756 85.02159,43.89879 97.91828,57.4665 4.08957,4.30235 4.12654,4.47129 1.42857,6.52712 -8.9008,6.78239 -34.5233,13.50585 -51.71613,13.57057 l -7.51793,0.0283 3.71031,5.8775 c 11.24678,17.81604 10.71422,36.80598 -1.62778,58.04378 -3.91187,6.73143 -24.30859,28.93586 -26.58013,28.93586 -0.64947,0 -1.18084,-3.21243 -1.18084,-7.13874 z"
       style="fill:#2b0000;fill-opacity:1;stroke:none" />
    <path
       inkscape:connector-curvature="0"
       id="path3887"
       d="m 500.78175,440.02655 c 44.34975,-23.20561 70.65648,-54.41981 70.65648,-83.83732 0,-8.49285 -3.64129,-21.31881 -7.89584,-27.81208 l -2.43276,-3.71286 10.23943,0 c 13.25553,0 26.94363,-3.18215 39.08155,-9.08549 5.33867,-2.5965 9.94102,-4.34171 10.22745,-3.87825 2.09504,3.38984 2.16688,12.35939 0.16251,20.29161 -8.13616,32.19872 -44.91096,83.13578 -71.5252,99.07014 -13.12278,7.85681 -31.77686,13.15879 -55,15.63245 l -7.85714,0.83692 14.34352,-7.50512 z"
       style="fill:#2b0000;fill-opacity:1;stroke:none" />
    <path
       inkscape:connector-curvature="0"
       id="path3889"
       d="m 566.79537,782.67565 c -3.44682,-2.6165 -3.29278,-11.57713 1.24841,-72.62279 4.35446,-58.53541 5.37907,-124.02357 2.24117,-143.24571 -3.01159,-18.44841 -5.38948,-24.10794 -23.64533,-56.27735 -22.04417,-38.84499 -35.02517,-54.62346 -48.84862,-59.37574 l -5.42581,-1.86531 9.17937,-1.00241 c 19.60458,-2.14088 44.65524,-10.49423 54.78965,-18.27008 2.50699,-1.92354 3.03739,-1.77457 5.93262,1.66622 3.66331,4.35359 10.4958,17.46921 14.74795,28.31008 3.89462,9.92935 9.12206,30.82072 14.43607,57.69349 10.06947,50.92095 22.50618,87.9456 40.78306,121.413 13.78275,25.23804 25.38053,40.83285 49.00527,65.89431 5.74703,6.09651 8.37226,9.83271 7.14286,10.16563 -21.27157,5.76011 -31.46031,11.87066 -66.54423,39.90888 -15.10166,12.06888 -30.86089,23.66535 -35.02051,25.76992 -8.17607,4.13671 -16.04236,4.85878 -20.02193,1.83786 l 0,0 z"
       style="fill:#2b0000;fill-opacity:1;stroke:none" />
    <path
       inkscape:connector-curvature="0"
       id="path3891"
       d="m 552.66954,690.37032 c -6.00135,-3.06885 -17.72825,-7.93446 -26.05977,-10.81247 l -15.14823,-5.23275 6.9187,-7.57016 c 11.91666,-13.03874 15.78136,-24.27785 15.94703,-46.37637 l 0.10174,-13.57142 2.66122,6.80932 c 4.9222,12.59455 13.91721,16.46468 26.20317,11.27401 l 7.16118,-3.02551 -0.9131,21.7568 c -1.65731,39.48908 -2.74567,52.47462 -4.39178,52.39968 -0.86274,-0.0393 -6.47881,-2.58229 -12.48016,-5.65113 l 0,0 z"
       style="fill:#2b0000;fill-opacity:1;stroke:none" />
    <path
       inkscape:connector-curvature="0"
       id="path3893"
       d="m 234.68772,683.32419 c 20.51349,-19.18937 36.87724,-52.18598 48.0515,-96.89323 7.45499,-29.82682 7.89388,-35.88597 4.26577,-58.89156 -3.16767,-20.086 -3.16862,-20.15037 -0.35599,-23.91759 1.55112,-2.07755 3.42396,-3.97831 4.16186,-4.2239 0.81739,-0.27203 1.34165,16.9978 1.34165,44.19565 0,37.67339 0.40273,46.50998 2.57987,56.60746 4.73813,21.97517 11.85292,37.01114 24.12907,50.9929 4.71455,5.36957 4.71713,5.38095 4.71838,20.81261 l 10e-4,15.44012 -5.71428,0.70372 c -3.14286,0.38706 -23.71429,1.00049 -45.71429,1.36319 -22,0.36269 -41.59032,1.13973 -43.53406,1.72676 -2.52252,0.76181 -0.78534,-1.50397 6.06927,-7.91613 l 0,0 z"
       style="fill:#2b0000;fill-opacity:1;stroke:none" />
    <path
       inkscape:connector-curvature="0"
       id="path3897"
       d="m 386.6655,408.34646 c -43.93225,-4.46641 -81.65496,-19.34429 -90.00929,-35.49978 -2.31847,-4.48344 -2.26878,-22.27634 0.0883,-31.61538 1.90541,-7.5495 4.45125,-13.41926 4.52267,-10.42761 0.0597,2.50042 6.73818,7.57159 11.52657,8.75246 5.59197,1.37905 9.22496,0.50663 12.80706,-3.07547 2.41056,-2.41056 2.98093,-3.84353 2.98093,-7.48916 0,-8.6854 -6.95642,-17.55972 -13.76476,-17.55972 -4.32109,0 -4.03758,-0.64533 3.9855,-9.07195 22.11791,-23.23042 58.84978,-37.72329 95.64223,-37.73645 15.35452,-0.005 25.60092,1.97294 39.20097,7.56915 7.95938,3.27516 20.41167,9.94562 20.38078,10.9176 -0.009,0.29835 -2.39596,1.58913 -5.3033,2.86841 -12.26001,5.39459 -22.50788,16.21006 -22.31539,23.55135 0.13705,5.22674 8.19958,17.63435 10.17516,15.65878 0.32316,-0.32316 -1.05235,-2.69244 -3.05667,-5.26508 -2.00433,-2.57263 -4.15536,-6.22625 -4.78007,-8.11915 -1.00474,-3.04442 -0.83292,-3.95855 1.48878,-7.92021 2.62502,-4.47928 11.16762,-11.80528 17.65977,-15.14477 16.4237,-8.44815 31.37452,-7.17401 33.88105,2.88742 1.69465,6.80247 -4.1567,23.21275 -14.5356,40.76557 -1.95798,3.31133 -2.65387,5.30206 -1.8527,5.3 1.53449,-0.004 9.80699,-14.18019 13.80573,-23.65831 1.56905,-3.71906 3.23174,-6.8488 3.6949,-6.95498 1.5214,-0.34881 14.15405,17.42915 18.38838,25.87801 7.10475,14.17628 8.58503,19.90853 8.13651,31.50762 -0.46619,12.05549 -3.39434,19.72578 -9.22936,24.17638 -7.34515,5.60241 -40.01298,14.95426 -64.29283,18.40517 -12.74104,1.81089 -56.17717,2.62665 -69.22531,1.3001 l 0,0 z m 6.49972,-37.89163 c 10.4427,-2.94612 18.24224,-10.44104 16.8088,-16.15231 -0.89643,-3.57169 -8.20903,-7.9096 -17.60944,-10.44611 -13.57691,-3.66344 -19.63415,-2.38505 -23.36684,4.93161 -3.07727,6.03195 -2.76091,13.31724 0.74771,17.21839 5.12129,5.69424 13.418,7.27014 23.41977,4.44842 z"
       style="fill:#00ff00;fill-opacity:1;stroke:none" />
    <path
       inkscape:connector-curvature="0"
       style="fill:#ff0000;fill-opacity:1;stroke:none;display:inline"
       d="m 175.11269,315.94062 c -0.29788,0.0111 -0.60466,0.0411 -0.9375,0.0937 -6.53576,1.03317 -20.0109,11.438 -28.84375,22.28125 -4.38868,5.38756 -10.00372,15.09917 -11.375,19.65625 -0.56091,1.86401 -0.72119,4.18507 -0.3125,4.59375 0.37104,0.37105 0.92793,0.2969 3.0625,-0.4375 6.92248,-2.38168 20.73873,-12.84107 26.75,-20.25 5.74207,-7.07713 14.9375,-21.45846 14.9375,-23.34375 0,-1.73785 -1.1961,-2.67147 -3.28125,-2.59375 z m -5.40625,45.34375 c -5.61507,0.0837 -10.01286,1.39057 -15.96875,4.34375 -5.59111,2.77232 -9.57715,5.2995 -15.375,9.84375 -2.16071,1.69354 -4.12513,3.17754 -4.375,3.28125 -0.24988,0.1037 -2.3823,-0.95923 -4.75,-2.375 -6.16799,-3.68815 -9.44333,-5.23698 -13.71875,-6.4375 -9.88685,-2.77617 -23.422967,-2.02629 -32.656247,1.8125 -5.95664,2.47651 -11.67173,6.3354 -16.625,11.21875 -8.91431,8.78847 -14.437,19.82607 -16.25,32.50001 -0.55155,3.85567 -0.44955,13.65014 0.1875,17.96875 2.0533,13.91947 8.75759,30.89107 17.15625,43.46875 13.30017,19.91809 32.723957,32.4848 52.281247,33.84375 3.54696,0.24646 5.05324,0.21895 8.78125,-0.15625 4.60992,-0.46396 9.04565,-1.67996 12.4375,-3.40625 2.52111,-1.28312 5.72217,-3.48107 6.59375,-4.53125 0.26935,-0.32455 0.70353,-0.59375 0.9375,-0.59375 0.23397,0 2.01694,0.81328 3.96875,1.78125 16.70615,8.28522 32.29152,7.98046 44.0625,-0.8125 10.38463,-7.75736 16.6977,-17.75211 19.46875,-30.9375 0.93928,-4.46934 1.87595,-13.80156 1.5,-14.78125 -0.15467,-0.40307 -0.62419,-0.59375 -1.4375,-0.59375 -2.08341,0 -6.35602,-1.12603 -9.09375,-2.375 -8.76849,-4.00026 -15.08224,-12.20685 -19.3125,-25.15625 -2.19743,-6.72661 -2.9266,-10.9708 -2.9375,-17.00001 -0.0156,-8.66253 2.71318,-15.7141 8.34375,-21.59375 3.47733,-3.63115 9.75837,-7.60734 14.09375,-8.90625 0.83436,-0.24998 1.53125,-0.52091 1.53125,-0.625 0,-0.65745 -5.54499,-7.29174 -8.3125,-9.9375 -6.21391,-5.94053 -10.58835,-7.78619 -21.875,-9.25 -3.30957,-0.42923 -6.10395,-0.63178 -8.65625,-0.59375 z"
       id="path3903" />
  </g>
</svg>
