<?xml version="1.0" encoding="UTF-8" standalone="no"?>
<svg
   xmlns:dc="http://purl.org/dc/elements/1.1/"
   xmlns:cc="http://creativecommons.org/ns#"
   xmlns:rdf="http://www.w3.org/1999/02/22-rdf-syntax-ns#"
   xmlns:svg="http://www.w3.org/2000/svg"
   xmlns="http://www.w3.org/2000/svg"
   version="1.1"
   id="svg2"
   viewBox="0 0 31.999998 31.999996"
   height="31.999998"
   width="31.999998">
  <defs
     id="defs4" />
  <metadata
     id="metadata7">
    <rdf:RDF>
      <cc:Work
         rdf:about="">
        <dc:format>image/svg+xml</dc:format>
        <dc:type
           rdf:resource="http://purl.org/dc/dcmitype/StillImage" />
        <dc:title></dc:title>
      </cc:Work>
    </rdf:RDF>
  </metadata>
  <g
     transform="translate(0,-1020.3622)"
     style="display:inline;opacity:1"
     id="layer1">
    <rect
       y="1020.3622"
       x="0"
       height="32"
       width="32"
       id="rect13433"
       style="opacity:1;fill:none;fill-opacity:1;stroke:none;stroke-width:0.2;stroke-linecap:round;stroke-linejoin:round;stroke-miterlimit:4;stroke-dasharray:none;stroke-dashoffset:0;stroke-opacity:1" />
    <path
       id="path12570"
       d="m 7,1039.3622 0,-3 1,0 0,-2 1,0 0,-1 1,0 0,-1 3,0 0,-3 1,0 0,-1 1,0 0,-1 2,0 0,1 1,0 0,1 1,0 0,1 1,0 0,-1 1,0 0,-1 1,0 0,1 1,0 0,1 1,0 0,1 1,0 0,2 -1,0 0,1 -1,0 0,2 1,0 0,4 -1,0 0,1 -1,0 0,1 -1,0 0,1 -2,0 0,1 -3,0 0,1 -2,0 0,-1 -2,0 0,-1 -2,0 0,-1 -1,0 0,-1 -1,0 0,-2 z"
       style="fill:#000000;fill-opacity:1;fill-rule:evenodd;stroke:none;stroke-width:1px;stroke-linecap:butt;stroke-linejoin:miter;stroke-opacity:1" />
    <path
       id="path13372"
       d="m 9,1039.3622 0,-4 1,0 0,-1 3,0 0,-1 1,0 0,-1 1,0 0,-3 2,0 0,2 1,0 0,1 2,0 0,-1 1,0 0,-1 1,0 0,1 1,0 0,2 -1,0 0,1 -4,0 0,1 3,0 0,1 1,0 0,4 -1,0 0,1 -2,0 0,1 -3,0 0,1 -2,0 0,-1 -2,0 0,-1 -2,0 0,-2 z"
       style="fill:#a62424;fill-opacity:1;fill-rule:evenodd;stroke:none;stroke-width:1px;stroke-linecap:butt;stroke-linejoin:miter;stroke-opacity:1" />
    <path
       id="path13405"
       d="m 16,1037.3622 1,0 0,-1 2,0 0,1 1,0 0,2 -1,0 0,1 -2,0 0,-1 -1,0 z m -5,1 0,-1 1,0 0,-1 -1,0 0,-1 -1,0 0,3 z m 0,-4 0,1 1,0 0,-1 z"
       style="fill:#da4747;fill-opacity:1;fill-rule:evenodd;stroke:none;stroke-width:1px;stroke-linecap:butt;stroke-linejoin:miter;stroke-opacity:1" />
    <path
       id="path13407"
       d="m 21,1039.3613 0,1 1,0 0,-1 -1,0 z m 0,1 -1,0 0,1 1,0 0,-1 z m -9,1 0,1 2,0 0,1 2,0 0,-1 -1,0 0,-1 -3,0 z m 5,0 0,1 2,0 0,-1 -2,0 z m -6,9e-4 0,-1 -1,0 0,1 z m -2,-3 1,0 0,1 -1,0 z m 4,0 0,2 1,0 0,-2 z m 0,-3 0,1 1,0 0,-1 z m 1,1 0,2 1,0 0,-2 z m 1,-1 0,1 2,0 0,-1 z m 5,0 0,1 1,0 0,-1 z m 1,1 0,1 1,0 0,-1 z m -4,-2 0,1 1,0 0,-1 z m -4,-1 1,0 0,1 -1,0 z m 1,-1 1,0 0,1 -1,0 z m 6,1 2,0 0,1 -2,0 z m -2,-1 0,1 1,0 0,-1 z m 3,-1 0,1 1,0 0,-1 z m -4,0 1,0 0,1 -1,0 z m -2,-1 1,0 0,1 -1,0 z"
       style="fill:#7a1a1a;fill-opacity:1;fill-rule:evenodd;stroke:none;stroke-width:1px;stroke-linecap:butt;stroke-linejoin:miter;stroke-opacity:1" />
  </g>
</svg>
