<?xml version="1.0" encoding="UTF-8" standalone="no"?>
<!-- Created with Inkscape (http://www.inkscape.org/) -->

<svg
   xmlns:dc="http://purl.org/dc/elements/1.1/"
   xmlns:cc="http://creativecommons.org/ns#"
   xmlns:rdf="http://www.w3.org/1999/02/22-rdf-syntax-ns#"
   xmlns:svg="http://www.w3.org/2000/svg"
   xmlns="http://www.w3.org/2000/svg"
   xmlns:sodipodi="http://sodipodi.sourceforge.net/DTD/sodipodi-0.dtd"
   xmlns:inkscape="http://www.inkscape.org/namespaces/inkscape"
   width="31.999998"
   height="31.999998"
   viewBox="0 0 31.999998 31.999996"
   id="svg2"
   version="1.1"
   inkscape:version="0.91pre3 r13670"
   sodipodi:docname="heart.svg">
  <defs
     id="defs4" />
  <sodipodi:namedview
     id="base"
     pagecolor="#ffffff"
     bordercolor="#666666"
     borderopacity="1.0"
     inkscape:pageopacity="0.0"
     inkscape:pageshadow="2"
     inkscape:zoom="15.839192"
     inkscape:cx="15.605213"
     inkscape:cy="11.908011"
     inkscape:document-units="px"
     inkscape:current-layer="layer1"
     showgrid="true"
     inkscape:window-width="1920"
     inkscape:window-height="1030"
     inkscape:window-x="0"
     inkscape:window-y="0"
     inkscape:window-maximized="1"
     fit-margin-top="0"
     fit-margin-left="0"
     fit-margin-right="0"
     fit-margin-bottom="0"
     inkscape:showpageshadow="false"
     inkscape:snap-global="true"
     units="px">
    <inkscape:grid
       type="xygrid"
       id="grid13431"
       originx="7px"
       originy="6.9999829px" />
  </sodipodi:namedview>
  <metadata
     id="metadata7">
    <rdf:RDF>
      <cc:Work
         rdf:about="">
        <dc:format>image/svg+xml</dc:format>
        <dc:type
           rdf:resource="http://purl.org/dc/dcmitype/StillImage" />
        <dc:title></dc:title>
      </cc:Work>
    </rdf:RDF>
  </metadata>
  <g
     inkscape:label="Layer 1"
     inkscape:groupmode="layer"
     id="layer1"
     style="display:inline;opacity:1"
     transform="translate(0,-1020.3622)">
    <rect
       style="opacity:1;fill:none;fill-opacity:1;stroke:none;stroke-width:0.2;stroke-linecap:round;stroke-linejoin:round;stroke-miterlimit:4;stroke-dasharray:none;stroke-dashoffset:0;stroke-opacity:1"
       id="rect13433"
       width="32"
       height="32"
       x="0"
       y="1020.3622" />
    <path
       style="fill:#000000;fill-opacity:1;fill-rule:evenodd;stroke:none;stroke-width:1px;stroke-linecap:butt;stroke-linejoin:miter;stroke-opacity:1"
       d="m 7,1039.3622 0,-3 1,0 0,-2 1,0 0,-1 1,0 0,-1 3,0 0,-3 1,0 0,-1 1,0 0,-1 2,0 0,1 1,0 0,1 1,0 0,1 1,0 0,-1 1,0 0,-1 1,0 0,1 1,0 0,1 1,0 0,1 1,0 0,2 -1,0 0,1 -1,0 0,2 1,0 0,4 -1,0 0,1 -1,0 0,1 -1,0 0,1 -2,0 0,1 -3,0 0,1 -2,0 0,-1 -2,0 0,-1 -2,0 0,-1 -1,0 0,-1 -1,0 0,-2 z"
       id="path12570"
       inkscape:connector-curvature="0" />
    <path
       style="fill:#a62424;fill-opacity:1;fill-rule:evenodd;stroke:none;stroke-width:1px;stroke-linecap:butt;stroke-linejoin:miter;stroke-opacity:1"
       d="m 9,1039.3622 0,-4 1,0 0,-1 3,0 0,-1 1,0 0,-1 1,0 0,-3 2,0 0,2 1,0 0,1 2,0 0,-1 1,0 0,-1 1,0 0,1 1,0 0,2 -1,0 0,1 -4,0 0,1 3,0 0,1 1,0 0,4 -1,0 0,1 -2,0 0,1 -3,0 0,1 -2,0 0,-1 -2,0 0,-1 -2,0 0,-2 z"
       id="path13372"
       inkscape:connector-curvature="0" />
    <path
       style="fill:#da4747;fill-opacity:1;fill-rule:evenodd;stroke:none;stroke-width:1px;stroke-linecap:butt;stroke-linejoin:miter;stroke-opacity:1"
       d="m 16,1037.3622 1,0 0,-1 2,0 0,1 1,0 0,2 -1,0 0,1 -2,0 0,-1 -1,0 z m -5,1 0,-1 1,0 0,-1 -1,0 0,-1 -1,0 0,3 z m 0,-4 0,1 1,0 0,-1 z"
       id="path13405"
       inkscape:connector-curvature="0" />
    <path
       style="fill:#7a1a1a;fill-opacity:1;fill-rule:evenodd;stroke:none;stroke-width:1px;stroke-linecap:butt;stroke-linejoin:miter;stroke-opacity:1"
       d="m 21,1039.3613 0,1 1,0 0,-1 -1,0 z m 0,1 -1,0 0,1 1,0 0,-1 z m -9,1 0,1 2,0 0,1 2,0 0,-1 -1,0 0,-1 -3,0 z m 5,0 0,1 2,0 0,-1 -2,0 z m -6,9e-4 0,-1 -1,0 0,1 z m -2,-3 1,0 0,1 -1,0 z m 4,0 0,2 1,0 0,-2 z m 0,-3 0,1 1,0 0,-1 z m 1,1 0,2 1,0 0,-2 z m 1,-1 0,1 2,0 0,-1 z m 5,0 0,1 1,0 0,-1 z m 1,1 0,1 1,0 0,-1 z m -4,-2 0,1 1,0 0,-1 z m -4,-1 1,0 0,1 -1,0 z m 1,-1 1,0 0,1 -1,0 z m 6,1 2,0 0,1 -2,0 z m -2,-1 0,1 1,0 0,-1 z m 3,-1 0,1 1,0 0,-1 z m -4,0 1,0 0,1 -1,0 z m -2,-1 1,0 0,1 -1,0 z"
       id="path13407"
       inkscape:connector-curvature="0" />
  </g>
</svg>
