<?xml version="1.0" encoding="UTF-8" standalone="no"?>
<svg
   xmlns:ooo="http://xml.openoffice.org/svg/export"
   xmlns:dc="http://purl.org/dc/elements/1.1/"
   xmlns:cc="http://creativecommons.org/ns#"
   xmlns:rdf="http://www.w3.org/1999/02/22-rdf-syntax-ns#"
   xmlns:svg="http://www.w3.org/2000/svg"
   xmlns="http://www.w3.org/2000/svg"
   id="svg2"
   xml:space="preserve"
   stroke-linejoin="round"
   stroke-width="28.222"
   clip-path="url(#presentation_clip_path)"
   fill-rule="evenodd"
   preserveAspectRatio="xMidYMid"
   viewBox="0 0 10000 10000"
   height="100mm"
   width="100mm"
   version="1.2"><metadata
     id="metadata84"><rdf:RDF><cc:Work
         rdf:about=""><dc:format>image/svg+xml</dc:format><dc:type
           rdf:resource="http://purl.org/dc/dcmitype/StillImage" /><dc:title></dc:title></cc:Work></rdf:RDF></metadata><defs
     id="defs4"
     class="ClipPathGroup"><clipPath
       clipPathUnits="userSpaceOnUse"
       id="presentation_clip_path"><rect
         id="rect7"
         height="10000"
         width="10000"
         y="0"
         x="0" /></clipPath></defs><defs
     id="defs9"
     class="TextShapeIndex"><g
       id="g11"
       ooo:id-list="id3 id4 id5 id6"
       ooo:slide="id1" /></defs><defs
     id="defs13"
     class="EmbeddedBulletChars"><g
       transform="scale(0.00048828125,-0.00048828125)"
       id="bullet-char-template(57356)"><path
         id="path16"
         d="M 580,1141 L 1163,571 580,0 -4,571 580,1141 Z" /></g><g
       transform="scale(0.00048828125,-0.00048828125)"
       id="bullet-char-template(57354)"><path
         id="path19"
         d="M 8,1128 L 1137,1128 1137,0 8,0 8,1128 Z" /></g><g
       transform="scale(0.00048828125,-0.00048828125)"
       id="bullet-char-template(10146)"><path
         id="path22"
         d="M 174,0 L 602,739 174,1481 1456,739 174,0 Z M 1358,739 L 309,1346 659,739 1358,739 Z" /></g><g
       transform="scale(0.00048828125,-0.00048828125)"
       id="bullet-char-template(10132)"><path
         id="path25"
         d="M 2015,739 L 1276,0 717,0 1260,543 174,543 174,936 1260,936 717,1481 1274,1481 2015,739 Z" /></g><g
       transform="scale(0.00048828125,-0.00048828125)"
       id="bullet-char-template(10007)"><path
         id="path28"
         d="M 0,-2 C -7,14 -16,27 -25,37 L 356,567 C 262,823 215,952 215,954 215,979 228,992 255,992 264,992 276,990 289,987 310,991 331,999 354,1012 L 381,999 492,748 772,1049 836,1024 860,1049 C 881,1039 901,1025 922,1006 886,937 835,863 770,784 769,783 710,716 594,584 L 774,223 C 774,196 753,168 711,139 L 727,119 C 717,90 699,76 672,76 641,76 570,178 457,381 L 164,-76 C 142,-110 111,-127 72,-127 30,-127 9,-110 8,-76 1,-67 -2,-52 -2,-32 -2,-23 -1,-13 0,-2 Z" /></g><g
       transform="scale(0.00048828125,-0.00048828125)"
       id="bullet-char-template(10004)"><path
         id="path31"
         d="M 285,-33 C 182,-33 111,30 74,156 52,228 41,333 41,471 41,549 55,616 82,672 116,743 169,778 240,778 293,778 328,747 346,684 L 369,508 C 377,444 397,411 428,410 L 1163,1116 C 1174,1127 1196,1133 1229,1133 1271,1133 1292,1118 1292,1087 L 1292,965 C 1292,929 1282,901 1262,881 L 442,47 C 390,-6 338,-33 285,-33 Z" /></g><g
       transform="scale(0.00048828125,-0.00048828125)"
       id="bullet-char-template(9679)"><path
         id="path34"
         d="M 813,0 C 632,0 489,54 383,161 276,268 223,411 223,592 223,773 276,916 383,1023 489,1130 632,1184 813,1184 992,1184 1136,1130 1245,1023 1353,916 1407,772 1407,592 1407,412 1353,268 1245,161 1136,54 992,0 813,0 Z" /></g><g
       transform="scale(0.00048828125,-0.00048828125)"
       id="bullet-char-template(8226)"><path
         id="path37"
         d="M 346,457 C 273,457 209,483 155,535 101,586 74,649 74,723 74,796 101,859 155,911 209,963 273,989 346,989 419,989 480,963 531,910 582,859 608,796 608,723 608,648 583,586 532,535 482,483 420,457 346,457 Z" /></g><g
       transform="scale(0.00048828125,-0.00048828125)"
       id="bullet-char-template(8211)"><path
         id="path40"
         d="M -4,459 L 1135,459 1135,606 -4,606 -4,459 Z" /></g></defs><defs
     id="defs42"
     class="TextEmbeddedBitmaps" /><g
     id="g44"><g
       class="Master_Slide"
       id="id2"><g
         class="Background"
         id="bg-id2" /><g
         class="BackgroundObjects"
         id="bo-id2" /></g></g><g
     transform="translate(29.905131,-170.00024)"
     id="g4278"><g
       class="com.sun.star.drawing.ClosedBezierShape"
       id="g56"
       transform="translate(-74.905375,-3.5417888e-6)"><g
         id="id3"><path
           d="M 7916,6511 C 7376,7927 6005,8933 4399,8933 2321,8933 637,7248 637,5170 637,3091 2321,1407 4399,1407 l 3852,0 c 664,0 1202,540 1202,1207 0,169 -35,330 -98,476 L 7916,6511 Z"
           id="path59"
           style="fill:#1b1918;stroke:none" /><path
           d="M 7916,6511 C 7376,7927 6005,8933 4399,8933 2321,8933 637,7248 637,5170 637,3091 2321,1407 4399,1407 l 3852,0 c 664,0 1202,540 1202,1207 0,169 -35,330 -98,476 L 7916,6511 Z"
           id="path61"
           style="fill:none;stroke:#000000" /></g></g><g
       class="com.sun.star.drawing.ClosedBezierShape"
       id="g63"
       transform="translate(-74.905375,-3.5417888e-6)"><g
         id="id4"><path
           d="m 4400,8224 0,0 C 3837,8224 3359,8096 2872,7815 2385,7534 2035,7184 1754,6697 1473,6210 1345,5732 1345,5170 l 0,0 c 0,-563 128,-1041 409,-1528 281,-487 631,-837 1118,-1118 487,-281 965,-409 1527,-409 563,0 1041,128 1528,409 487,281 837,631 1118,1118 281,487 409,965 409,1527 0,563 -128,1041 -409,1528 -281,487 -631,837 -1118,1118 -487,281 -965,409 -1527,409 z"
           id="path66"
           style="fill:#f8a941;stroke:none" /><path
           d="m 4400,8224 0,0 C 3837,8224 3359,8096 2872,7815 2385,7534 2035,7184 1754,6697 1473,6210 1345,5732 1345,5170 l 0,0 c 0,-563 128,-1041 409,-1528 281,-487 631,-837 1118,-1118 487,-281 965,-409 1527,-409 563,0 1041,128 1528,409 487,281 837,631 1118,1118 281,487 409,965 409,1527 0,563 -128,1041 -409,1528 -281,487 -631,837 -1118,1118 -487,281 -965,409 -1527,409 z"
           id="path68"
           style="fill:none;stroke:#000000" /></g></g><g
       class="com.sun.star.drawing.PolyPolygonShape"
       id="g70"
       transform="translate(-74.905375,-3.5417888e-6)"><g
         id="id5"><path
           d="m 2457,6911 1674,-2820 -203,-528 -551,-11 0,-572 1068,0 1304,3291 561,-180 213,606 -1293,347 -740,-1964 -1180,1853 -853,-22 z"
           id="path73"
           style="fill:#1b1918;stroke:none" /><path
           d="m 2457,6911 1674,-2820 -203,-528 -551,-11 0,-572 1068,0 1304,3291 561,-180 213,606 -1293,347 -740,-1964 -1180,1853 -853,-22 z"
           id="path75"
           style="fill:none;stroke:#000000" /></g></g><g
       class="com.sun.star.drawing.ClosedBezierShape"
       id="g77"
       transform="translate(-74.905375,-3.5417888e-6)"><g
         id="id6"><path
           d="m 8479,3303 0,295 -952,0 0,-247 c 281,-461 449,-746 503,-856 53,-109 79,-195 79,-257 0,-47 -8,-82 -24,-105 -16,-24 -40,-35 -74,-35 -32,0 -57,13 -73,38 -16,26 -24,77 -24,154 l 0,165 -387,0 0,-63 c 0,-97 5,-175 14,-230 11,-56 35,-111 74,-166 40,-54 90,-95 153,-123 63,-28 138,-41 226,-41 173,0 303,42 391,127 88,86 132,193 132,325 0,99 -25,204 -74,314 -50,111 -196,346 -439,705 l 475,0 z"
           id="path80"
           style="fill:#f8a941;stroke:none" /></g></g></g></svg>