<?xml version="1.0" encoding="UTF-8" standalone="no"?>
<svg
   xmlns:dc="http://purl.org/dc/elements/1.1/"
   xmlns:cc="http://creativecommons.org/ns#"
   xmlns:rdf="http://www.w3.org/1999/02/22-rdf-syntax-ns#"
   xmlns:svg="http://www.w3.org/2000/svg"
   xmlns="http://www.w3.org/2000/svg"
   version="1.1"
   id="svg2"
   height="230"
   width="565">
  <defs
     id="defs4" />
  <metadata
     id="metadata7">
    <rdf:RDF>
      <cc:Work
         rdf:about="">
        <dc:format>image/svg+xml</dc:format>
        <dc:type
           rdf:resource="http://purl.org/dc/dcmitype/StillImage" />
        <dc:title></dc:title>
      </cc:Work>
    </rdf:RDF>
  </metadata>
  <g
     transform="translate(-85,-182.375)"
     style="display:inline"
     id="layer1">
    <path
       id="rect2985-4-3-4-33-9"
       transform="translate(85,182.375)"
       d="m 355,0 0,5 -10,0 0,5 -5,0 0,10 -5,0 0,190 5,0 0,10 5,0 0,5 10,0 0,5 190,0 0,-5 10,0 0,-5 5,0 0,-10 5,0 0,-190 -5,0 0,-10 -5,0 0,-5 -10,0 0,-5 z m 80,35 30,0 0,5 10,0 0,5 5,0 0,5 5,0 0,5 5,0 0,5 5,0 0,35 -5,0 0,10 -5,0 0,5 -5,0 0,5 5,0 0,5 5,0 0,5 5,0 0,10 5,0 0,30 -5,0 0,10 -5,0 0,10 -5,0 0,5 -10,0 0,5 -10,0 0,5 -30,0 0,-5 -10,0 0,-5 -10,0 0,-5 -5,0 0,-10 -5,0 0,-5 -5,0 0,-35 5,0 0,-10 5,0 0,-5 5,0 0,-5 5,0 0,-5 -5,0 0,-5 -5,0 0,-10 -5,0 0,-35 5,0 0,-5 5,0 0,-5 5,0 0,-5 5,0 0,-5 10,0 z m -195,5 0,5 -15,0 0,5 -5,0 0,5 -5,0 0,5 -5,0 0,5 -5,0 0,40 5,0 0,5 5,0 0,5 5,0 0,5 10,0 0,5 10,0 0,5 15,0 0,5 5,0 0,5 5,0 0,20 -5,0 0,5 -5,0 0,5 -25,0 0,-5 -5,0 0,-5 -5,0 0,-5 -5,0 0,5 -5,0 0,5 -5,0 0,5 -5,0 0,10 10,0 0,5 5,0 0,5 15,0 0,5 20,0 0,-5 15,0 0,-5 10,0 0,-5 5,0 0,-10 5,0 0,-10 5,0 0,-20 -5,0 0,-10 0,-5 -5,0 0,-5 -5,0 0,-5 -5,0 0,-5 -10,0 0,-5 -15,0 0,-5 -10,0 0,-5 -5,0 0,-5 -5,0 0,-10 5,0 0,-10 5,0 0,-5 25,0 0,5 5,0 0,5 10,0 0,-5 5,0 0,-5 5,0 0,-5 5,0 0,-5 -5,0 0,-5 -10,0 0,-5 -15,0 0,-5 z m -230,5 0,4.75 -4.75,0 0,5 -5,0 0,10 5,0 0,5 5,0 0,5 10,0 0,-5 5,0 0,-4.75 4.75,0 0,-10 -4.75,0 0,-5.25 -5.25,0 0,-4.75 z m 80,0 0,5 -10,0 0,5 -5,0 0,5 -5,0 0,5 -5,0 0,5 -5,0 0,10 -5,0 0,10 -5,0 0,10 -5,0 0,30 5,0 0,20 5,0 0,10 5,0 0,5 5,0 0,5 5,0 0,5 5,0 0,5 5,0 0,5 10,0 0,5 50,0 0,-5 10,0 0,-5 5,0 0,-5 5,0 0,-5 5,0 0,-5 5,0 0,-5 5,0 0,-15 5,0 0,-10 5,0 0,-35 -5,0 0,-10 -5,0 0,-10 -5,0 0,-10 -5,0 0,-5 -5,0 0,-5 -5,0 0,-5 -5,0 0,-5 -10,0 0,-5 z m 355,10 0,5 -10,0 0,5 -5,0 0,10 -5,0 0,10 5,0 0,10 5,0 0,5 10,0 0,5 10,0 0,-5 10,0 0,-5 5,0 0,-10 5,0 0,-10 -5,0 0,-10 -5,0 0,-5 -10,0 0,-5 z m -345,10 30,0 0,5 10,0 0,5 5,0 0,5 5,0 0,10 5,0 0,10 5,0 0,35 -5,0 0,10 -5,0 0,10 -5,0 0,5 -5,0 0,5 -5,0 -5,0 0,5 -30,0 0,-5 -10,0 0,-5 -5,0 0,-5 -5,0 0,-10 -5,0 0,-10 -5,0 0,-35 5,0 0,-10 5,0 0,-5 0,-5 5,0 0,-5 5,0 0,-5 10,0 z m -94.75,24.75 0,100 20,0 0,-100 z M 435,125 l 0,5 -5,0 0,5 -5,0 0,30 5,0 0,5 5,0 0,5 30,0 0,-5 5,0 0,-5 5,0 0,-30 -5,0 0,-5 -5,0 0,-5 z"
       style="fill:#000000;stroke:none;display:inline" />
  </g>
</svg>
