<?xml version="1.0" encoding="UTF-8" standalone="no"?>
<svg
   xmlns:dc="http://purl.org/dc/elements/1.1/"
   xmlns:cc="http://creativecommons.org/ns#"
   xmlns:rdf="http://www.w3.org/1999/02/22-rdf-syntax-ns#"
   xmlns:svg="http://www.w3.org/2000/svg"
   xmlns="http://www.w3.org/2000/svg"
   version="1.1"
   id="svg2"
   height="305"
   width="160">
  <defs
     id="defs4" />
  <metadata
     id="metadata7">
    <rdf:RDF>
      <cc:Work
         rdf:about="">
        <dc:format>image/svg+xml</dc:format>
        <dc:type
           rdf:resource="http://purl.org/dc/dcmitype/StillImage" />
        <dc:title></dc:title>
      </cc:Work>
    </rdf:RDF>
  </metadata>
  <g
     transform="translate(-123.82143,-204.26786)"
     style="display:inline"
     id="layer1">
    <path
       id="rect2985-4-95-79"
       d="m 233.82143,204.26786 0,5 -100,0 0,5 -5,0 0,5 -5,0 0,270 5,0 0,10 5,0 0,10 140,0 0,-10 5,0 0,-10 5,0 0,-270 -5,0 0,-5 -5,0 0,-5 -20,0 0,-5 z m -45,30 30,0 0,5 -30,0 z m -55,25 140,0 0,200 -140,0 z m 60,210 20,0 0,5 5,0 0,20 -5,0 0,5 -20,0 0,-5 -5,0 0,-20 5,0 z"
       style="fill:#000000;stroke:none" />
  </g>
</svg>
