<?xml version="1.0" encoding="UTF-8" standalone="no"?>
<!-- Created with Inkscape (http://www.inkscape.org/) -->

<svg
   xmlns:dc="http://purl.org/dc/elements/1.1/"
   xmlns:cc="http://creativecommons.org/ns#"
   xmlns:rdf="http://www.w3.org/1999/02/22-rdf-syntax-ns#"
   xmlns:svg="http://www.w3.org/2000/svg"
   xmlns="http://www.w3.org/2000/svg"
   xmlns:sodipodi="http://sodipodi.sourceforge.net/DTD/sodipodi-0.dtd"
   xmlns:inkscape="http://www.inkscape.org/namespaces/inkscape"
   width="748.57922"
   height="1054.9841"
   viewBox="0 0 748.57922 1054.9841"
   id="svg2"
   version="1.1"
   inkscape:version="0.91pre3 r13670"
   sodipodi:docname="KeepCalm1863.svg"
   inkscape:export-xdpi="68.289368"
   inkscape:export-ydpi="68.289368">
  <defs
     id="defs4" />
  <sodipodi:namedview
     id="base"
     pagecolor="#ffffff"
     bordercolor="#666666"
     borderopacity="1.0"
     inkscape:pageopacity="0.0"
     inkscape:pageshadow="2"
     inkscape:zoom="0.70710678"
     inkscape:cx="390.20136"
     inkscape:cy="506.75368"
     inkscape:document-units="px"
     inkscape:current-layer="layer1"
     showgrid="false"
     inkscape:snap-global="false"
     inkscape:window-width="1920"
     inkscape:window-height="1030"
     inkscape:window-x="0"
     inkscape:window-y="0"
     inkscape:window-maximized="1"
     units="px"
     fit-margin-top="0"
     fit-margin-left="0"
     fit-margin-right="0"
     fit-margin-bottom="0" />
  <metadata
     id="metadata7">
    <rdf:RDF>
      <cc:Work
         rdf:about="">
        <dc:format>image/svg+xml</dc:format>
        <dc:type
           rdf:resource="http://purl.org/dc/dcmitype/StillImage" />
        <dc:title></dc:title>
      </cc:Work>
    </rdf:RDF>
  </metadata>
  <g
     inkscape:label="Layer 1"
     inkscape:groupmode="layer"
     id="layer1"
     transform="translate(0.23084959,-0.53480154)">
    <flowRoot
       xml:space="preserve"
       id="flowRoot4147"
       style="font-style:normal;font-weight:normal;font-size:27.5px;line-height:125%;font-family:Sans;letter-spacing:0px;word-spacing:0px;fill:#000000;fill-opacity:1;stroke:none;stroke-width:1px;stroke-linecap:butt;stroke-linejoin:miter;stroke-opacity:1"><flowRegion
         id="flowRegion4149"><rect
           id="rect4151"
           width="174.30182"
           height="19.79899"
           x="325.97623"
           y="415.61255"
           style="font-size:27.5px" /></flowRegion><flowPara
         id="flowPara4153" /></flowRoot>    <path
       style="opacity:1;fill:#340100;fill-opacity:1;stroke:none;stroke-width:1;stroke-linecap:round;stroke-linejoin:round;stroke-miterlimit:4;stroke-dasharray:none;stroke-dashoffset:0;stroke-opacity:1"
       d="m -0.23084959,0.53480154 748.57921959,0 0,1054.98409846 -748.57921959,0 z"
       id="rect4171"
       inkscape:connector-curvature="0" />
    <g
       transform="matrix(2.6749052,0,0,2.59064,-788.15204,-616.05612)"
       style="font-style:normal;font-variant:normal;font-weight:bold;font-stretch:normal;font-size:13px;line-height:123.00000191%;font-family:AGCenturion;-inkscape-font-specification:'AGCenturion Bold';letter-spacing:0px;word-spacing:0px;fill:#000000;fill-opacity:1;stroke:none;stroke-width:1px;stroke-linecap:butt;stroke-linejoin:miter;stroke-opacity:1"
       id="flowRoot4155">
      <path
         d="m 365.65465,433.07138 q 0,2.0475 -1.6875,3.555 -1.8675,1.665 -4.8375,1.665 -2.025,0 -3.5775,-1.035 -1.755,-1.17 -2.5875,-3.51 l 0.7875,-0.2025 q 0.6075,1.665 1.89,2.5875 1.1925,0.855 2.5875,0.855 1.62,0 2.61,-1.1925 0.9,-1.08 0.9,-2.5875 0,-1.4625 -0.855,-2.4525 -0.9675,-1.125 -2.6775,-1.125 -0.855,0 -1.215,0.0225 -0.3375,0 -0.6525,0.045 l 0,-1.1475 q 0.18,0 0.855,0.045 0.6975,0.0225 1.0125,0.0225 1.5525,0 2.43,-1.125 0.7875,-1.0125 0.7875,-2.475 0,-1.26 -0.585,-2.115 -0.6525,-0.945 -1.7325,-0.945 -1.755,0 -3.375,1.89 -0.45,0.54 -1.575,2.1375 l -0.8325,-0.27 1.26,-4.6125 q 0.9225,0.54 1.6875,0.54 0.4725,0 1.0575,-0.18 1.485,-0.45 2.25,-0.45 2.61,0 4.14,1.215 1.395,1.1025 1.395,2.745 0,1.35 -0.9675,2.4075 -1.0575,1.17 -2.97,1.5975 0,0.0675 0,0.1125 2.16,0 3.3975,1.26 1.08,1.1025 1.08,2.7225 z"
         style="font-style:normal;font-variant:normal;font-weight:bold;font-stretch:normal;font-size:22.5px;line-height:123.00000191%;font-family:AGCenturion;-inkscape-font-specification:'AGCenturion Bold';text-align:center;text-anchor:middle;fill:#ffffff"
         id="path4456"
         inkscape:connector-curvature="0" />
      <path
         d="m 382.96453,437.88638 -7.8975,0 0,-0.7425 q 1.035,0 1.395,-0.225 0.3825,-0.2475 0.3825,-0.7875 0,-0.3375 -0.045,-0.5625 -0.045,-0.225 -0.225,-0.7425 l -0.81,-2.655 -5.7375,0 -0.495,1.4175 q -0.18,0.495 -0.315,0.99 -0.135,0.495 -0.135,0.9 0,0.81 0.585,1.2375 0.6075,0.4275 1.44,0.4275 l 0,0.7425 -5.985,0 0,-0.7425 q 1.4175,-0.405 2.1375,-1.305 0.495,-0.6075 1.1025,-2.25 l 4.3875,-11.7 3.285,-1.0575 4.185,13.4775 q 0.495,1.62 0.7875,2.025 0.585,0.81 1.9575,0.81 l 0,0.7425 z m -7.56,-6.7725 -2.25,-7.2225 -2.6775,7.2225 4.9275,0 z"
         style="font-style:normal;font-variant:normal;font-weight:bold;font-stretch:normal;font-size:22.5px;line-height:123.00000191%;font-family:AGCenturion;-inkscape-font-specification:'AGCenturion Bold';text-align:center;text-anchor:middle;fill:#ffffff"
         id="path4458"
         inkscape:connector-curvature="0" />
      <path
         d="m 398.04973,437.88638 -7.965,0 0,-0.7425 q 0.8325,-0.09 1.1475,-0.27 0.3375,-0.18 0.3375,-0.54 0,-0.27 -0.2025,-0.63 -0.09,-0.1575 -0.3825,-0.585 l -2.7225,-3.96 -2.25,2.88 q -0.3825,0.5175 -0.585,0.8325 -0.315,0.54 -0.315,0.9675 0,0.63 0.585,0.9675 0.45,0.2475 1.1925,0.3375 l 0,0.7425 -6.0975,0 0,-0.7425 q 1.1925,-0.225 2.0925,-0.9675 0.6525,-0.54 1.575,-1.755 l 3.15,-4.2075 -4.2075,-6.165 q -0.6975,-0.9675 -0.765,-1.035 -0.675,-0.7425 -1.845,-0.855 l 0,-0.7425 7.695,0 0,0.7425 q -0.8775,0 -1.125,0.18 -0.2475,0.1575 -0.2475,0.5175 0,0.225 0.1125,0.4725 0.045,0.0675 0.27,0.4275 l 0.2475,0.405 2.1375,3.15 2.0475,-2.7225 q 0.27,-0.36 0.4275,-0.63 0.2475,-0.4275 0.2475,-0.72 0,-0.4725 -0.315,-0.7425 -0.405,-0.3375 -1.3275,-0.3375 l 0,-0.7425 5.9175,0 0,0.7425 q -1.08,0 -1.845,0.495 -0.6075,0.405 -1.3725,1.4175 l -3.15,4.185 4.275,6.1425 q 1.035,1.485 1.3275,1.8 0.9,0.945 1.935,0.945 l 0,0.7425 z"
         style="font-style:normal;font-variant:normal;font-weight:bold;font-stretch:normal;font-size:22.5px;line-height:123.00000191%;font-family:AGCenturion;-inkscape-font-specification:'AGCenturion Bold';text-align:center;text-anchor:middle;fill:#ffffff"
         id="path4460"
         inkscape:connector-curvature="0" />
      <path
         d="m 414.3552,429.49388 q 0,3.6 -2.16,6.0975 -2.34,2.7 -6.075,2.7 -3.6675,0 -5.8725,-2.34 -2.1825,-2.34 -2.1825,-6.12 0,-3.7125 2.16,-6.21 2.25,-2.61 5.9175,-2.61 3.78,0 5.985,2.34 2.2275,2.34 2.2275,6.1425 z m -3.915,0.1575 q 0,-4.1175 -1.17,-6.0525 -1.035,-1.71 -2.9925,-1.71 -2.025,0 -3.1275,1.8225 -1.17,1.935 -1.17,5.9175 0,4.05 1.1025,6.0075 1.0125,1.7775 2.925,1.7775 1.89,0 2.97,-1.3275 0.8775,-1.08 1.215,-3.0375 0.2475,-1.395 0.2475,-3.3975 z"
         style="font-style:normal;font-variant:normal;font-weight:bold;font-stretch:normal;font-size:22.5px;line-height:123.00000191%;font-family:AGCenturion;-inkscape-font-specification:'AGCenturion Bold';text-align:center;text-anchor:middle;fill:#ffffff"
         id="path4462"
         inkscape:connector-curvature="0" />
      <path
         d="m 428.20395,416.75888 q -0.54,1.4625 -1.8,2.43 -1.26,0.945 -2.8125,0.945 -1.5075,0 -2.79,-0.945 -1.2825,-0.9675 -1.8225,-2.43 l 0.9,-0.54 q 0.765,0.8325 1.71,1.305 0.945,0.4725 2.0025,0.4725 1.0125,0 1.98,-0.4725 0.99,-0.495 1.7325,-1.305 l 0.9,0.54 z m 3.51,5.4 q -1.125,0.135 -1.5975,0.5175 -0.4725,0.3825 -1.0125,1.5525 l -4.4325,9.405 q -1.17,2.475 -2.07,3.465 -1.08,1.1925 -2.5425,1.1925 -1.35,0 -2.115,-0.6525 -0.765,-0.6525 -0.765,-1.7775 0,-0.765 0.585,-1.305 0.585,-0.54 1.3725,-0.54 1.7775,0 1.7775,1.9125 0,0.405 0.0675,0.6075 0.09,0.18 0.36,0.18 0.6975,0 2.0925,-3.0825 l -6.03,-9.855 q -0.5175,-0.81 -1.035,-1.125 -0.5175,-0.3375 -1.44,-0.495 l 0,-0.7425 8.01,0 0,0.7425 q -0.7875,0 -1.125,0.225 -0.3375,0.2025 -0.3375,0.6075 0,0.2925 0.0675,0.4725 0.09,0.18 0.2925,0.5175 l 3.3975,5.985 2.34,-5.22 q 0.18,-0.4725 0.27,-0.765 0.09,-0.2925 0.09,-0.63 0,-0.675 -0.72,-0.945 -0.36,-0.135 -1.3275,-0.2475 l 0,-0.7425 5.8275,0 0,0.7425 z"
         style="font-style:normal;font-variant:normal;font-weight:bold;font-stretch:normal;font-size:22.5px;line-height:123.00000191%;font-family:AGCenturion;-inkscape-font-specification:'AGCenturion Bold';text-align:center;text-anchor:middle;fill:#ffffff"
         id="path4464"
         inkscape:connector-curvature="0" />
      <path
         d="m 446.72074,433.49888 q 0,2.07 -1.5525,3.24 -1.5525,1.1475 -4.77,1.1475 l -9.585,0 0,-0.7425 q 1.215,0 1.6875,-0.4275 0.495,-0.45 0.495,-1.6425 l 0,-10.845 q 0,-1.17 -0.4725,-1.62 -0.4725,-0.45 -1.71,-0.45 l 0,-0.7425 8.1675,0 q 3.9825,0 5.6475,1.125 1.35,0.9 1.35,2.655 0,1.575 -1.4175,2.61 -1.125,0.8325 -2.9025,1.1925 2.34,0.495 3.465,1.305 1.5975,1.125 1.5975,3.195 z m -4.6575,-8.235 q 0,-1.6875 -0.9,-2.385 -0.9,-0.72 -2.6325,-0.72 -0.675,0 -1.0125,0.1125 -0.3375,0.09 -0.5625,0.315 -0.2025,0.225 -0.2475,0.495 -0.0225,0.2475 -0.0225,0.72 l 0,4.7475 1.2825,0 q 2.1375,0 3.105,-0.765 0.99,-0.7875 0.99,-2.52 z m 0.7425,7.8975 q 0,-1.71 -0.855,-2.52 -1.1025,-1.035 -3.96,-1.035 l -1.305,0 0,4.7475 q 0,1.71 0.2475,2.115 0.405,0.675 2.025,0.675 1.755,0 2.745,-0.9 1.1025,-1.0125 1.1025,-3.0825 z"
         style="font-style:normal;font-variant:normal;font-weight:bold;font-stretch:normal;font-size:22.5px;line-height:123.00000191%;font-family:AGCenturion;-inkscape-font-specification:'AGCenturion Bold';text-align:center;text-anchor:middle;fill:#ffffff"
         id="path4466"
         inkscape:connector-curvature="0" />
      <path
         d="m 464.08758,437.88638 -7.8975,0 0,-0.7425 q 1.035,0 1.395,-0.225 0.3825,-0.2475 0.3825,-0.7875 0,-0.3375 -0.045,-0.5625 -0.045,-0.225 -0.225,-0.7425 l -0.81,-2.655 -5.7375,0 -0.495,1.4175 q -0.18,0.495 -0.315,0.99 -0.135,0.495 -0.135,0.9 0,0.81 0.585,1.2375 0.6075,0.4275 1.44,0.4275 l 0,0.7425 -5.985,0 0,-0.7425 q 1.4175,-0.405 2.1375,-1.305 0.495,-0.6075 1.1025,-2.25 l 4.3875,-11.7 3.285,-1.0575 4.185,13.4775 q 0.495,1.62 0.7875,2.025 0.585,0.81 1.9575,0.81 l 0,0.7425 z m -7.56,-6.7725 -2.25,-7.2225 -2.6775,7.2225 4.9275,0 z"
         style="font-style:normal;font-variant:normal;font-weight:bold;font-stretch:normal;font-size:22.5px;line-height:123.00000191%;font-family:AGCenturion;-inkscape-font-specification:'AGCenturion Bold';text-align:center;text-anchor:middle;fill:#ffffff"
         id="path4468"
         inkscape:connector-curvature="0" />
      <path
         d="m 476.85527,416.75888 q -0.54,1.4625 -1.8,2.43 -1.26,0.945 -2.8125,0.945 -1.5075,0 -2.79,-0.945 -1.2825,-0.9675 -1.8225,-2.43 l 0.9,-0.54 q 0.765,0.8325 1.71,1.305 0.945,0.4725 2.0025,0.4725 1.0125,0 1.98,-0.4725 0.99,-0.495 1.7325,-1.305 l 0.9,0.54 z m 4.275,21.1275 -8.055,0 0,-0.7425 q 1.215,0 1.6875,-0.4275 0.495,-0.45 0.495,-1.6425 l 0,-8.8875 -6.03,8.82 q 0,1.2375 0.4725,1.6875 0.4725,0.45 1.71,0.45 l 0,0.7425 -8.055,0 0,-0.7425 q 1.215,0 1.6875,-0.4275 0.495,-0.45 0.495,-1.6425 l 0,-10.845 q 0,-1.17 -0.4725,-1.62 -0.4725,-0.45 -1.71,-0.45 l 0,-0.7425 8.055,0 0,0.7425 q -1.215,0 -1.71,0.45 -0.4725,0.4275 -0.4725,1.62 l 0,8.8875 6.03,-8.82 q 0,-1.2375 -0.4725,-1.6875 -0.4725,-0.45 -1.71,-0.45 l 0,-0.7425 8.055,0 0,0.7425 q -1.215,0 -1.71,0.45 -0.4725,0.4275 -0.4725,1.62 l 0,10.845 q 0,1.17 0.4725,1.62 0.4725,0.45 1.71,0.45 l 0,0.7425 z"
         style="font-style:normal;font-variant:normal;font-weight:bold;font-stretch:normal;font-size:22.5px;line-height:123.00000191%;font-family:AGCenturion;-inkscape-font-specification:'AGCenturion Bold';text-align:center;text-anchor:middle;fill:#ffffff"
         id="path4470"
         inkscape:connector-curvature="0" />
      <path
         d="m 501.02203,441.50888 -0.8325,0.225 q -0.9675,-1.5075 -2.205,-2.5425 -1.575,-1.305 -3.0375,-1.305 l -12.915,0 0,-0.7425 q 1.215,0 1.6875,-0.4275 0.495,-0.45 0.495,-1.6425 l 0,-10.845 q 0,-1.17 -0.4725,-1.62 -0.4725,-0.45 -1.71,-0.45 l 0,-0.7425 8.0325,0 0,0.7425 q -1.1925,0 -1.6875,0.45 -0.4725,0.4275 -0.4725,1.62 l 0,10.845 q 0,1.3725 0.315,1.62 0.315,0.2475 1.8675,0.2475 l 1.665,0 q 1.5525,0 1.8675,-0.2475 0.315,-0.2475 0.315,-1.62 l 0,-10.845 q 0,-1.1925 -0.4725,-1.62 -0.45,-0.45 -1.71,-0.45 l 0,-0.7425 8.055,0 0,0.7425 q -1.215,0 -1.71,0.45 -0.4725,0.4275 -0.4725,1.62 l 0,10.845 q 0,1.17 0.4725,1.62 0.4725,0.45 1.71,0.45 l 1.215,4.365 z"
         style="font-style:normal;font-variant:normal;font-weight:bold;font-stretch:normal;font-size:22.5px;line-height:123.00000191%;font-family:AGCenturion;-inkscape-font-specification:'AGCenturion Bold';text-align:center;text-anchor:middle;fill:#ffffff"
         id="path4472"
         inkscape:connector-curvature="0" />
      <path
         d="m 516.00879,433.70138 -1.6875,4.185 -13.5675,0 0,-0.7425 q 1.215,0 1.6875,-0.4275 0.495,-0.45 0.495,-1.6425 l 0,-10.845 q 0,-1.17 -0.4725,-1.62 -0.4725,-0.45 -1.71,-0.45 l 0,-0.7425 13.5675,0 1.4175,4.2075 -0.6975,0.2925 q -1.215,-1.575 -2.8125,-2.5425 -1.7775,-1.08 -3.6,-1.08 -1.395,0 -1.755,0.54 -0.2475,0.36 -0.2475,1.8 l 0,4.3875 0.45,0 q 1.7775,0 2.565,-0.4725 0.8775,-0.54 1.44,-2.1825 l 0.8775,0 0,6.5025 -0.8775,0 q -0.45,-1.6425 -1.3275,-2.205 -0.8775,-0.585 -2.6325,-0.585 l -0.495,0 0,4.7475 q 0,1.17 0.2475,1.575 0.36,0.6075 1.485,0.6075 2.0025,0 3.915,-1.035 1.71,-0.9225 3.1275,-2.5875 l 0.6075,0.315 z"
         style="font-style:normal;font-variant:normal;font-weight:bold;font-stretch:normal;font-size:22.5px;line-height:123.00000191%;font-family:AGCenturion;-inkscape-font-specification:'AGCenturion Bold';text-align:center;text-anchor:middle;fill:#ffffff"
         id="path4474"
         inkscape:connector-curvature="0" />
      <path
         d="m 397.74457,461.44387 q -1.2375,2.1825 -2.79,3.285 -1.755,1.2375 -4.1175,1.2375 -3.285,0 -5.4675,-2.3625 -2.16,-2.385 -2.16,-5.6925 0,-3.6675 2.1375,-6.3675 2.2725,-2.8575 5.6475,-2.8575 0.54,0 1.0125,0.1125 0.495,0.09 1.08,0.2925 0.6075,0.18 0.72,0.2025 0.405,0.1125 0.6975,0.1125 0.3825,0 0.72,-0.1125 0.3375,-0.135 0.9225,-0.405 l 0.2475,-0.1125 1.35,4.9725 -1.0125,0.315 q -0.855,-1.89 -2.115,-3.06 -1.53,-1.44 -3.3075,-1.44 -2.2725,0 -3.375,2.4975 -0.81,1.845 -0.81,4.4775 0,3.8025 1.665,5.895 1.44,1.8 3.555,1.8 1.53,0 2.79,-0.9675 0.9675,-0.7425 2.025,-2.25 l 0.585,0.4275 z"
         style="font-style:normal;font-variant:normal;font-weight:bold;font-stretch:normal;font-size:22.5px;line-height:123.00000191%;font-family:AGCenturion;-inkscape-font-specification:'AGCenturion Bold';text-align:center;text-anchor:middle;fill:#ffffff"
         id="path4476"
         inkscape:connector-curvature="0" />
      <path
         d="m 416.35488,465.56137 -8.055,0 0,-0.7425 q 1.215,0 1.6875,-0.4275 0.495,-0.45 0.495,-1.6425 l 0,-10.845 q 0,-1.395 -0.2925,-1.62 -0.27,-0.2475 -1.89,-0.2475 l -1.665,0 q -1.6425,0 -1.9125,0.225 -0.27,0.225 -0.27,1.6425 l 0,10.845 q 0,1.17 0.4725,1.62 0.4725,0.45 1.71,0.45 l 0,0.7425 -8.055,0 0,-0.7425 q 1.215,0 1.6875,-0.4275 0.495,-0.45 0.495,-1.6425 l 0,-10.845 q 0,-1.17 -0.4725,-1.62 -0.4725,-0.45 -1.71,-0.45 l 0,-0.7425 17.775,0 0,0.7425 q -1.215,0 -1.71,0.45 -0.4725,0.4275 -0.4725,1.62 l 0,10.845 q 0,1.17 0.4725,1.62 0.4725,0.45 1.71,0.45 l 0,0.7425 z"
         style="font-style:normal;font-variant:normal;font-weight:bold;font-stretch:normal;font-size:22.5px;line-height:123.00000191%;font-family:AGCenturion;-inkscape-font-specification:'AGCenturion Bold';text-align:center;text-anchor:middle;fill:#ffffff"
         id="path4478"
         inkscape:connector-curvature="0" />
      <path
         d="m 433.50164,465.56137 -7.8975,0 0,-0.7425 q 1.035,0 1.395,-0.225 0.3825,-0.2475 0.3825,-0.7875 0,-0.3375 -0.045,-0.5625 -0.045,-0.225 -0.225,-0.7425 l -0.81,-2.655 -5.7375,0 -0.495,1.4175 q -0.18,0.495 -0.315,0.99 -0.135,0.495 -0.135,0.9 0,0.81 0.585,1.2375 0.6075,0.4275 1.44,0.4275 l 0,0.7425 -5.985,0 0,-0.7425 q 1.4175,-0.405 2.1375,-1.305 0.495,-0.6075 1.1025,-2.25 l 4.3875,-11.7 3.285,-1.0575 4.185,13.4775 q 0.495,1.62 0.7875,2.025 0.585,0.81 1.9575,0.81 l 0,0.7425 z m -7.56,-6.7725 -2.25,-7.2225 -2.6775,7.2225 4.9275,0 z"
         style="font-style:normal;font-variant:normal;font-weight:bold;font-stretch:normal;font-size:22.5px;line-height:123.00000191%;font-family:AGCenturion;-inkscape-font-specification:'AGCenturion Bold';text-align:center;text-anchor:middle;fill:#ffffff"
         id="path4480"
         inkscape:connector-curvature="0" />
      <path
         d="m 450.88184,465.56137 -8.2125,0 0,-0.7425 q 0.945,0 1.26,-0.2025 0.3375,-0.225 0.3375,-0.6075 0,-0.1575 -0.09,-0.36 -0.0675,-0.2025 -0.3375,-0.72 l -3.285,-5.715 -1.8,1.8675 0,3.6675 q 0,1.17 0.4725,1.62 0.4725,0.45 1.7325,0.45 l 0,0.7425 -8.0775,0 0,-0.7425 q 1.215,0 1.6875,-0.4275 0.495,-0.45 0.495,-1.6425 l 0,-10.845 q 0,-1.17 -0.4725,-1.62 -0.4725,-0.45 -1.71,-0.45 l 0,-0.7425 8.055,0 0,0.7425 q -1.215,0 -1.71,0.45 -0.4725,0.4275 -0.4725,1.62 l 0,5.625 4.365,-4.5 q 0.8775,-0.8775 1.215,-1.395 0.3375,-0.54 0.3375,-0.945 0,-0.6525 -0.9,-0.7875 -0.585,-0.045 -0.81,-0.0675 l 0,-0.7425 6.93,0 0,0.7425 q -1.575,0.2925 -2.475,0.765 -0.9,0.4725 -2.0925,1.7325 l -2.205,2.2725 4.635,7.8525 q 0.72,1.215 1.1925,1.62 0.63,0.5175 1.935,0.7425 l 0,0.7425 z"
         style="font-style:normal;font-variant:normal;font-weight:bold;font-stretch:normal;font-size:22.5px;line-height:123.00000191%;font-family:AGCenturion;-inkscape-font-specification:'AGCenturion Bold';text-align:center;text-anchor:middle;fill:#ffffff"
         id="path4482"
         inkscape:connector-curvature="0" />
      <path
         d="m 466.69406,457.16887 q 0,3.6 -2.16,6.0975 -2.34,2.7 -6.075,2.7 -3.6675,0 -5.8725,-2.34 -2.1825,-2.34 -2.1825,-6.12 0,-3.7125 2.16,-6.21 2.25,-2.61 5.9175,-2.61 3.78,0 5.985,2.34 2.2275,2.34 2.2275,6.1425 z m -3.915,0.1575 q 0,-4.1175 -1.17,-6.0525 -1.035,-1.71 -2.9925,-1.71 -2.025,0 -3.1275,1.8225 -1.17,1.935 -1.17,5.9175 0,4.05 1.1025,6.0075 1.0125,1.7775 2.925,1.7775 1.89,0 2.97,-1.3275 0.8775,-1.08 1.215,-3.0375 0.2475,-1.395 0.2475,-3.3975 z"
         style="font-style:normal;font-variant:normal;font-weight:bold;font-stretch:normal;font-size:22.5px;line-height:123.00000191%;font-family:AGCenturion;-inkscape-font-specification:'AGCenturion Bold';text-align:center;text-anchor:middle;fill:#ffffff"
         id="path4484"
         inkscape:connector-curvature="0" />
      <path
         d="m 481.64531,444.43387 q -0.54,1.4625 -1.8,2.43 -1.26,0.945 -2.8125,0.945 -1.5075,0 -2.79,-0.945 -1.2825,-0.9675 -1.8225,-2.43 l 0.9,-0.54 q 0.765,0.8325 1.71,1.305 0.945,0.4725 2.0025,0.4725 1.0125,0 1.98,-0.4725 0.99,-0.495 1.7325,-1.305 l 0.9,0.54 z m 4.275,21.1275 -8.055,0 0,-0.7425 q 1.215,0 1.6875,-0.4275 0.495,-0.45 0.495,-1.6425 l 0,-8.8875 -6.03,8.82 q 0,1.2375 0.4725,1.6875 0.4725,0.45 1.71,0.45 l 0,0.7425 -8.055,0 0,-0.7425 q 1.215,0 1.6875,-0.4275 0.495,-0.45 0.495,-1.6425 l 0,-10.845 q 0,-1.17 -0.4725,-1.62 -0.4725,-0.45 -1.71,-0.45 l 0,-0.7425 8.055,0 0,0.7425 q -1.215,0 -1.71,0.45 -0.4725,0.4275 -0.4725,1.62 l 0,8.8875 6.03,-8.82 q 0,-1.2375 -0.4725,-1.6875 -0.4725,-0.45 -1.71,-0.45 l 0,-0.7425 8.055,0 0,0.7425 q -1.215,0 -1.71,0.45 -0.4725,0.4275 -0.4725,1.62 l 0,10.845 q 0,1.17 0.4725,1.62 0.4725,0.45 1.71,0.45 l 0,0.7425 z"
         style="font-style:normal;font-variant:normal;font-weight:bold;font-stretch:normal;font-size:22.5px;line-height:123.00000191%;font-family:AGCenturion;-inkscape-font-specification:'AGCenturion Bold';text-align:center;text-anchor:middle;fill:#ffffff"
         id="path4486"
         inkscape:connector-curvature="0" />
      <path
         d="m 431.32811,496.90386 -0.8325,0.225 q -0.9675,-1.5075 -2.2275,-2.565 -1.575,-1.3275 -3.0375,-1.3275 l -6.2325,0 q -1.485,0 -2.9475,1.26 -1.1025,0.945 -2.205,2.6325 l -0.8325,-0.225 1.1025,-4.41 q 2.61,0 3.465,-1.7775 0.495,-1.0125 0.495,-3.2625 l 0,-7.875 q 0,-1.215 -0.4725,-1.6425 -0.4725,-0.4275 -1.9125,-0.4275 l 0,-0.7425 14.4225,0 0,0.7425 q -1.215,0 -1.71,0.45 -0.4725,0.4275 -0.4725,1.62 l 0,8.775 q 0,2.8125 0.4725,3.555 0.3825,0.585 1.71,0.585 l 1.215,4.41 z m -7.0875,-8.55 0,-8.775 q 0,-1.4625 -0.27,-1.71 -0.27,-0.2475 -1.9125,-0.2475 l -0.585,0 q -1.0575,0 -1.395,0.1125 -0.8325,0.27 -0.8325,1.845 l 0,7.875 q 0,2.16 -0.405,3.2625 -0.405,1.1025 -1.215,1.62 l 4.4325,0 q 1.6425,0 1.9125,-0.495 0.27,-0.5175 0.27,-3.4875 z"
         style="font-style:normal;font-variant:normal;font-weight:bold;font-stretch:normal;font-size:22.5px;line-height:123.00000191%;font-family:AGCenturion;-inkscape-font-specification:'AGCenturion Bold';text-align:center;text-anchor:middle;fill:#ffffff"
         id="path4488"
         inkscape:connector-curvature="0" />
      <path
         d="m 454.49994,493.23636 -8.055,0 0,-0.7425 q 1.215,0 1.6875,-0.4275 0.495,-0.45 0.495,-1.6425 l 0,-10.845 q 0,-1.17 -0.4725,-1.62 -0.4725,-0.45 -1.71,-0.45 l 0,-0.7425 8.055,0 0,0.7425 q -1.215,0 -1.71,0.45 -0.4725,0.4275 -0.4725,1.62 l 0,10.845 q 0,1.17 0.4725,1.62 0.4725,0.45 1.71,0.45 l 0,0.7425 z m -8.28,-4.3425 q 0,1.8675 -1.575,3.015 -1.8225,1.3275 -5.3775,1.3275 l -8.1,0 0,-0.7425 q 1.215,0 1.6875,-0.4275 0.495,-0.45 0.495,-1.6425 l 0,-10.845 q 0,-1.17 -0.4725,-1.62 -0.4725,-0.45 -1.71,-0.45 l 0,-0.7425 8.055,0 0,0.7425 q -1.215,0 -1.71,0.45 -0.4725,0.4275 -0.4725,1.62 l 0,4.7475 1.935,0 q 4.14,0 5.805,1.2825 1.44,1.1025 1.44,3.285 z m -3.915,-0.045 q 0,-1.9575 -0.945,-2.79 -0.9225,-0.855 -2.9925,-0.855 l -1.3275,0 0,4.9275 q 0,1.3275 0.225,1.6875 0.3375,0.54 1.5975,0.54 1.6425,0 2.5425,-0.855 0.9,-0.855 0.9,-2.655 z"
         style="font-style:normal;font-variant:normal;font-weight:bold;font-stretch:normal;font-size:22.5px;line-height:123.00000191%;font-family:AGCenturion;-inkscape-font-specification:'AGCenturion Bold';text-align:center;text-anchor:middle;fill:#ffffff"
         id="path4490"
         inkscape:connector-curvature="0" />
      <path
         d="m 382.14311,516.52385 q 0,2.07 -1.5525,3.24 -1.5525,1.1475 -4.77,1.1475 l -9.585,0 0,-0.7425 q 1.215,0 1.6875,-0.4275 0.495,-0.45 0.495,-1.6425 l 0,-10.845 q 0,-1.17 -0.4725,-1.62 -0.4725,-0.45 -1.71,-0.45 l 0,-0.7425 8.1675,0 q 3.9825,0 5.6475,1.125 1.35,0.9 1.35,2.655 0,1.575 -1.4175,2.61 -1.125,0.8325 -2.9025,1.1925 2.34,0.495 3.465,1.305 1.5975,1.125 1.5975,3.195 z m -4.6575,-8.235 q 0,-1.6875 -0.9,-2.385 -0.9,-0.72 -2.6325,-0.72 -0.675,0 -1.0125,0.1125 -0.3375,0.09 -0.5625,0.315 -0.2025,0.225 -0.2475,0.495 -0.0225,0.2475 -0.0225,0.72 l 0,4.7475 1.2825,0 q 2.1375,0 3.105,-0.765 0.99,-0.7875 0.99,-2.52 z m 0.7425,7.8975 q 0,-1.71 -0.855,-2.52 -1.1025,-1.035 -3.96,-1.035 l -1.305,0 0,4.7475 q 0,1.71 0.2475,2.115 0.405,0.675 2.025,0.675 1.755,0 2.745,-0.9 1.1025,-1.0125 1.1025,-3.0825 z"
         style="font-style:normal;font-variant:normal;font-weight:bold;font-stretch:normal;font-size:22.5px;line-height:123.00000191%;font-family:AGCenturion;-inkscape-font-specification:'AGCenturion Bold';text-align:center;text-anchor:middle;fill:#ffffff"
         id="path4492"
         inkscape:connector-curvature="0" />
      <path
         d="m 399.50994,520.91135 -7.8975,0 0,-0.7425 q 1.035,0 1.395,-0.225 0.3825,-0.2475 0.3825,-0.7875 0,-0.3375 -0.045,-0.5625 -0.045,-0.225 -0.225,-0.7425 l -0.81,-2.655 -5.7375,0 -0.495,1.4175 q -0.18,0.495 -0.315,0.99 -0.135,0.495 -0.135,0.9 0,0.81 0.585,1.2375 0.6075,0.4275 1.44,0.4275 l 0,0.7425 -5.985,0 0,-0.7425 q 1.4175,-0.405 2.1375,-1.305 0.495,-0.6075 1.1025,-2.25 l 4.3875,-11.7 3.285,-1.0575 4.185,13.4775 q 0.495,1.62 0.7875,2.025 0.585,0.81 1.9575,0.81 l 0,0.7425 z m -7.56,-6.7725 -2.25,-7.2225 -2.6775,7.2225 4.9275,0 z"
         style="font-style:normal;font-variant:normal;font-weight:bold;font-stretch:normal;font-size:22.5px;line-height:123.00000191%;font-family:AGCenturion;-inkscape-font-specification:'AGCenturion Bold';text-align:center;text-anchor:middle;fill:#ffffff"
         id="path4494"
         inkscape:connector-curvature="0" />
      <path
         d="m 413.76264,516.79385 q -1.2375,2.1825 -2.79,3.285 -1.755,1.2375 -4.1175,1.2375 -3.285,0 -5.4675,-2.3625 -2.16,-2.385 -2.16,-5.6925 0,-3.6675 2.1375,-6.3675 2.2725,-2.8575 5.6475,-2.8575 0.54,0 1.0125,0.1125 0.495,0.09 1.08,0.2925 0.6075,0.18 0.72,0.2025 0.405,0.1125 0.6975,0.1125 0.3825,0 0.72,-0.1125 0.3375,-0.135 0.9225,-0.405 l 0.2475,-0.1125 1.35,4.9725 -1.0125,0.315 q -0.855,-1.89 -2.115,-3.06 -1.53,-1.44 -3.3075,-1.44 -2.2725,0 -3.375,2.4975 -0.81,1.845 -0.81,4.4775 0,3.8025 1.665,5.895 1.44,1.8 3.555,1.8 1.53,0 2.79,-0.9675 0.9675,-0.7425 2.025,-2.25 l 0.585,0.4275 z"
         style="font-style:normal;font-variant:normal;font-weight:bold;font-stretch:normal;font-size:22.5px;line-height:123.00000191%;font-family:AGCenturion;-inkscape-font-specification:'AGCenturion Bold';text-align:center;text-anchor:middle;fill:#ffffff"
         id="path4496"
         inkscape:connector-curvature="0" />
      <path
         d="m 428.77295,508.94135 -0.8325,0.225 q -1.035,-1.62 -2.115,-2.5425 -1.53,-1.305 -3.1275,-1.305 l 0,12.78 q 0,1.215 0.45,1.6425 0.45,0.4275 1.7325,0.4275 l 0,0.7425 -8.055,0 0,-0.7425 q 1.26,0 1.71,-0.4275 0.4725,-0.45 0.4725,-1.6425 l 0,-12.78 q -1.485,0 -2.97,1.2375 -1.1475,0.945 -2.2275,2.61 l -0.8325,-0.225 1.1025,-4.5 13.4775,0 1.215,4.5 z"
         style="font-style:normal;font-variant:normal;font-weight:bold;font-stretch:normal;font-size:22.5px;line-height:123.00000191%;font-family:AGCenturion;-inkscape-font-specification:'AGCenturion Bold';text-align:center;text-anchor:middle;fill:#ffffff"
         id="path4498"
         inkscape:connector-curvature="0" />
      <path
         d="m 443.18771,508.78385 q 0,2.1375 -1.44,3.2625 -1.665,1.305 -5.805,1.305 l -1.935,0 0,4.7475 q 0,1.17 0.4725,1.62 0.4725,0.45 1.71,0.45 l 0,0.7425 -8.055,0 0,-0.7425 q 1.215,0 1.6875,-0.4275 0.495,-0.45 0.495,-1.6425 l 0,-10.845 q 0,-1.17 -0.4725,-1.62 -0.4725,-0.45 -1.71,-0.45 l 0,-0.7425 8.1,0 q 3.5325,0 5.355,1.3275 1.5975,1.17 1.5975,3.015 z m -3.915,0.045 q 0,-1.8 -0.9,-2.655 -0.9,-0.855 -2.5425,-0.855 -1.26,0 -1.5975,0.5175 -0.225,0.36 -0.225,1.71 l 0,4.9275 1.3275,0 q 2.07,0 2.9925,-0.8325 0.945,-0.8325 0.945,-2.8125 z"
         style="font-style:normal;font-variant:normal;font-weight:bold;font-stretch:normal;font-size:22.5px;line-height:123.00000191%;font-family:AGCenturion;-inkscape-font-specification:'AGCenturion Bold';text-align:center;text-anchor:middle;fill:#ffffff"
         id="path4500"
         inkscape:connector-curvature="0" />
      <path
         d="m 467.72748,520.91135 -8.055,0 0,-0.7425 q 1.215,0 1.6875,-0.4275 0.495,-0.45 0.495,-1.6425 l 0,-10.845 q 0,-1.17 -0.4725,-1.62 -0.4725,-0.45 -1.71,-0.45 l 0,-0.7425 8.055,0 0,0.7425 q -1.215,0 -1.71,0.45 -0.4725,0.4275 -0.4725,1.62 l 0,10.845 q 0,1.17 0.4725,1.62 0.4725,0.45 1.71,0.45 l 0,0.7425 z m -8.28,-4.3425 q 0,1.8675 -1.575,3.015 -1.8225,1.3275 -5.3775,1.3275 l -8.1,0 0,-0.7425 q 1.215,0 1.6875,-0.4275 0.495,-0.45 0.495,-1.6425 l 0,-10.845 q 0,-1.17 -0.4725,-1.62 -0.4725,-0.45 -1.71,-0.45 l 0,-0.7425 8.055,0 0,0.7425 q -1.215,0 -1.71,0.45 -0.4725,0.4275 -0.4725,1.62 l 0,4.7475 1.935,0 q 4.14,0 5.805,1.2825 1.44,1.1025 1.44,3.285 z m -3.915,-0.045 q 0,-1.9575 -0.945,-2.79 -0.9225,-0.855 -2.9925,-0.855 l -1.3275,0 0,4.9275 q 0,1.3275 0.225,1.6875 0.3375,0.54 1.5975,0.54 1.6425,0 2.5425,-0.855 0.9,-0.855 0.9,-2.655 z"
         style="font-style:normal;font-variant:normal;font-weight:bold;font-stretch:normal;font-size:22.5px;line-height:123.00000191%;font-family:AGCenturion;-inkscape-font-specification:'AGCenturion Bold';text-align:center;text-anchor:middle;fill:#ffffff"
         id="path4502"
         inkscape:connector-curvature="0" />
      <path
         d="m 487.72857,524.53385 -0.8325,0.225 q -0.9675,-1.5075 -2.205,-2.5425 -1.575,-1.305 -3.0375,-1.305 l -12.915,0 0,-0.7425 q 1.215,0 1.6875,-0.4275 0.495,-0.45 0.495,-1.6425 l 0,-10.845 q 0,-1.17 -0.4725,-1.62 -0.4725,-0.45 -1.71,-0.45 l 0,-0.7425 8.0325,0 0,0.7425 q -1.1925,0 -1.6875,0.45 -0.4725,0.4275 -0.4725,1.62 l 0,10.845 q 0,1.3725 0.315,1.62 0.315,0.2475 1.8675,0.2475 l 1.665,0 q 1.5525,0 1.8675,-0.2475 0.315,-0.2475 0.315,-1.62 l 0,-10.845 q 0,-1.1925 -0.4725,-1.62 -0.45,-0.45 -1.71,-0.45 l 0,-0.7425 8.055,0 0,0.7425 q -1.215,0 -1.71,0.45 -0.4725,0.4275 -0.4725,1.62 l 0,10.845 q 0,1.17 0.4725,1.62 0.4725,0.45 1.71,0.45 l 1.215,4.365 z"
         style="font-style:normal;font-variant:normal;font-weight:bold;font-stretch:normal;font-size:22.5px;line-height:123.00000191%;font-family:AGCenturion;-inkscape-font-specification:'AGCenturion Bold';text-align:center;text-anchor:middle;fill:#ffffff"
         id="path4504"
         inkscape:connector-curvature="0" />
      <path
         d="m 502.71533,516.72635 -1.6875,4.185 -13.5675,0 0,-0.7425 q 1.215,0 1.6875,-0.4275 0.495,-0.45 0.495,-1.6425 l 0,-10.845 q 0,-1.17 -0.4725,-1.62 -0.4725,-0.45 -1.71,-0.45 l 0,-0.7425 13.5675,0 1.4175,4.2075 -0.6975,0.2925 q -1.215,-1.575 -2.8125,-2.5425 -1.7775,-1.08 -3.6,-1.08 -1.395,0 -1.755,0.54 -0.2475,0.36 -0.2475,1.8 l 0,4.3875 0.45,0 q 1.7775,0 2.565,-0.4725 0.8775,-0.54 1.44,-2.1825 l 0.8775,0 0,6.5025 -0.8775,0 q -0.45,-1.6425 -1.3275,-2.205 -0.8775,-0.585 -2.6325,-0.585 l -0.495,0 0,4.7475 q 0,1.17 0.2475,1.575 0.36,0.6075 1.485,0.6075 2.0025,0 3.915,-1.035 1.71,-0.9225 3.1275,-2.5875 l 0.6075,0.315 z"
         style="font-style:normal;font-variant:normal;font-weight:bold;font-stretch:normal;font-size:22.5px;line-height:123.00000191%;font-family:AGCenturion;-inkscape-font-specification:'AGCenturion Bold';text-align:center;text-anchor:middle;fill:#ffffff"
         id="path4506"
         inkscape:connector-curvature="0" />
      <path
         d="m 415.08838,548.58634 -8.2125,0 0,-0.7425 q 0.945,0 1.26,-0.2025 0.3375,-0.225 0.3375,-0.6075 0,-0.1575 -0.09,-0.36 -0.0675,-0.2025 -0.3375,-0.72 l -3.285,-5.715 -1.8,1.8675 0,3.6675 q 0,1.17 0.4725,1.62 0.4725,0.45 1.7325,0.45 l 0,0.7425 -8.0775,0 0,-0.7425 q 1.215,0 1.6875,-0.4275 0.495,-0.45 0.495,-1.6425 l 0,-10.845 q 0,-1.17 -0.4725,-1.62 -0.4725,-0.45 -1.71,-0.45 l 0,-0.7425 8.055,0 0,0.7425 q -1.215,0 -1.71,0.45 -0.4725,0.4275 -0.4725,1.62 l 0,5.625 4.365,-4.5 q 0.8775,-0.8775 1.215,-1.395 0.3375,-0.54 0.3375,-0.945 0,-0.6525 -0.9,-0.7875 -0.585,-0.045 -0.81,-0.0675 l 0,-0.7425 6.93,0 0,0.7425 q -1.575,0.2925 -2.475,0.765 -0.9,0.4725 -2.0925,1.7325 l -2.205,2.2725 4.635,7.8525 q 0.72,1.215 1.1925,1.62 0.63,0.5175 1.935,0.7425 l 0,0.7425 z"
         style="font-style:normal;font-variant:normal;font-weight:bold;font-stretch:normal;font-size:22.5px;line-height:123.00000191%;font-family:AGCenturion;-inkscape-font-specification:'AGCenturion Bold';text-align:center;text-anchor:middle;fill:#ffffff"
         id="path4508"
         inkscape:connector-curvature="0" />
      <path
         d="m 430.90061,540.19384 q 0,3.6 -2.16,6.0975 -2.34,2.7 -6.075,2.7 -3.6675,0 -5.8725,-2.34 -2.1825,-2.34 -2.1825,-6.12 0,-3.7125 2.16,-6.21 2.25,-2.61 5.9175,-2.61 3.78,0 5.985,2.34 2.2275,2.34 2.2275,6.1425 z m -3.915,0.1575 q 0,-4.1175 -1.17,-6.0525 -1.035,-1.71 -2.9925,-1.71 -2.025,0 -3.1275,1.8225 -1.17,1.935 -1.17,5.9175 0,4.05 1.1025,6.0075 1.0125,1.7775 2.925,1.7775 1.89,0 2.97,-1.3275 0.8775,-1.08 1.215,-3.0375 0.2475,-1.395 0.2475,-3.3975 z"
         style="font-style:normal;font-variant:normal;font-weight:bold;font-stretch:normal;font-size:22.5px;line-height:123.00000191%;font-family:AGCenturion;-inkscape-font-specification:'AGCenturion Bold';text-align:center;text-anchor:middle;fill:#ffffff"
         id="path4510"
         inkscape:connector-curvature="0" />
      <path
         d="m 447.33686,544.46884 q -1.2375,2.1825 -2.79,3.285 -1.755,1.2375 -4.1175,1.2375 -3.285,0 -5.4675,-2.3625 -2.16,-2.385 -2.16,-5.6925 0,-3.6675 2.1375,-6.3675 2.2725,-2.8575 5.6475,-2.8575 0.54,0 1.0125,0.1125 0.495,0.09 1.08,0.2925 0.6075,0.18 0.72,0.2025 0.405,0.1125 0.6975,0.1125 0.3825,0 0.72,-0.1125 0.3375,-0.135 0.9225,-0.405 l 0.2475,-0.1125 1.35,4.9725 -1.0125,0.315 q -0.855,-1.89 -2.115,-3.06 -1.53,-1.44 -3.3075,-1.44 -2.2725,0 -3.375,2.4975 -0.81,1.845 -0.81,4.4775 0,3.8025 1.665,5.895 1.44,1.8 3.555,1.8 1.53,0 2.79,-0.9675 0.9675,-0.7425 2.025,-2.25 l 0.585,0.4275 z"
         style="font-style:normal;font-variant:normal;font-weight:bold;font-stretch:normal;font-size:22.5px;line-height:123.00000191%;font-family:AGCenturion;-inkscape-font-specification:'AGCenturion Bold';text-align:center;text-anchor:middle;fill:#ffffff"
         id="path4512"
         inkscape:connector-curvature="0" />
      <path
         d="m 471.59467,548.58634 -8.055,0 0,-0.7425 q 1.215,0 1.6875,-0.4275 0.495,-0.45 0.495,-1.6425 l 0,-10.845 q 0,-1.17 -0.4725,-1.62 -0.4725,-0.45 -1.71,-0.45 l 0,-0.7425 8.055,0 0,0.7425 q -1.215,0 -1.71,0.45 -0.4725,0.4275 -0.4725,1.62 l 0,10.845 q 0,1.17 0.4725,1.62 0.4725,0.45 1.71,0.45 l 0,0.7425 z m -8.28,-4.3425 q 0,1.8675 -1.575,3.015 -1.8225,1.3275 -5.3775,1.3275 l -8.1,0 0,-0.7425 q 1.215,0 1.6875,-0.4275 0.495,-0.45 0.495,-1.6425 l 0,-10.845 q 0,-1.17 -0.4725,-1.62 -0.4725,-0.45 -1.71,-0.45 l 0,-0.7425 8.055,0 0,0.7425 q -1.215,0 -1.71,0.45 -0.4725,0.4275 -0.4725,1.62 l 0,4.7475 1.935,0 q 4.14,0 5.805,1.2825 1.44,1.1025 1.44,3.285 z m -3.915,-0.045 q 0,-1.9575 -0.945,-2.79 -0.9225,-0.855 -2.9925,-0.855 l -1.3275,0 0,4.9275 q 0,1.3275 0.225,1.6875 0.3375,0.54 1.5975,0.54 1.6425,0 2.5425,-0.855 0.9,-0.855 0.9,-2.655 z"
         style="font-style:normal;font-variant:normal;font-weight:bold;font-stretch:normal;font-size:22.5px;line-height:123.00000191%;font-family:AGCenturion;-inkscape-font-specification:'AGCenturion Bold';text-align:center;text-anchor:middle;fill:#ffffff"
         id="path4514"
         inkscape:connector-curvature="0" />
    </g>
    <path
       style="opacity:1;fill:#ffffff;fill-opacity:1;stroke:none;stroke-width:1.04867637;stroke-linecap:round;stroke-linejoin:round;stroke-miterlimit:4;stroke-dasharray:none;stroke-dashoffset:0;stroke-opacity:1"
       d="m 228.23761,97.870934 291.64227,0 0,145.821136 -291.64227,0 z"
       id="rect4225"
       inkscape:connector-curvature="0" />
    <path
       style="opacity:1;fill:#ff0000;fill-opacity:1;stroke:none;stroke-width:1.18508255;stroke-linecap:round;stroke-linejoin:round;stroke-miterlimit:4;stroke-dasharray:none;stroke-dashoffset:0;stroke-opacity:1"
       d="m 228.23761,146.47798 291.64227,0 0,48.60705 -291.64227,0 z"
       id="rect4227"
       inkscape:connector-curvature="0" />
    <path
       style="fill:#ffffff;fill-rule:evenodd;stroke:none;stroke-width:0.13;stroke-linecap:butt;stroke-linejoin:miter;stroke-miterlimit:4;stroke-dasharray:none;stroke-opacity:1"
       d="m 312.70409,391.2647 8.12889,-58.73398 4.42193,1.08014 c 0,0 0.70556,4.77062 2.56202,4.98789 15.88207,1.85889 68.09463,-0.39621 111.24138,50.49279 1.19612,1.41076 2.74082,3.2602 3.08434,3.05652 0.34352,-0.20363 0.0666,-4.08425 -2.25295,-8.89457 -17.86182,-37.04359 -73.37084,-55.40325 -119.97267,-59.13787 -1.74754,-0.14015 -0.86427,-3.70041 -2.12788,-4.32574 -1.26361,-0.62533 -1.80217,-0.38523 -3.2435,0.85566 -1.44133,1.24089 -1.48403,5.82298 -2.87193,6.96203 -1.38791,1.13906 -1.46141,0.74152 -2.11695,1.41695 -0.65553,0.67544 -0.71791,2.36715 -0.1474,3.42659 0.57051,1.05942 2.05435,0.6044 2.20505,1.32532 2.04919,9.80386 -7.61162,56.80121 -7.61162,56.80121 z"
       id="path4199"
       inkscape:connector-curvature="0"
       sodipodi:nodetypes="cccsszsszzzzzscc" />
    <g
       transform="matrix(5.9480496,0,0,5.9480496,-1737.91,-1876.7794)"
       style="font-style:normal;font-variant:normal;font-weight:normal;font-stretch:normal;font-size:13.06633377px;line-height:125%;font-family:'Broadway BT';-inkscape-font-specification:'Broadway BT';letter-spacing:0px;word-spacing:0px;fill:#ffffff;fill-opacity:1;stroke:none;stroke-width:1px;stroke-linecap:butt;stroke-linejoin:miter;stroke-opacity:1"
       id="flowRoot4159">
      <path
         d="m 320.3804,383.12346 q 0.006,-0.56782 0.0128,-1.37171 0.0128,-0.81026 0.0128,-0.98252 l 0,-5.68462 q -0.59973,0.1595 -1.17393,0.35728 -0.56783,0.1914 -0.59335,0.1914 -0.11484,0 -0.1914,-0.0829 -0.0702,-0.0829 -0.0702,-0.21692 0,-0.10208 0.0638,-0.16588 0.0702,-0.0702 0.22968,-0.12122 0.051,-0.0128 0.45299,-0.10209 2.50097,-0.55506 5.13593,-1.3079 -0.0128,0.56144 -0.0191,1.0846 -0.006,0.51679 -0.006,1.05909 l 0,4.89988 q 0,0.70818 0.0128,1.30791 0.0128,0.59334 0.0383,1.13564 l -3.90458,0 z"
         id="path4322"
         inkscape:connector-curvature="0" />
      <path
         d="m 333.27447,377.15174 q 0.49764,-0.27434 0.74646,-0.62524 0.24882,-0.35729 0.24882,-0.77199 0,-0.79751 -0.75284,-1.26325 -0.75285,-0.47212 -2.05438,-0.47212 -0.93148,0 -1.46741,0.21054 -0.53592,0.21054 -0.53592,0.56782 0,0.33815 0.53592,0.74647 0.54231,0.40832 1.58226,0.86131 l 1.69709,0.74646 z m -4.67658,2.2075 q -0.5742,0.28072 -0.85492,0.64438 -0.28072,0.36366 -0.28072,0.83579 0,0.96976 0.88682,1.55035 0.89321,0.5742 2.41804,0.5742 0.97615,0 1.56949,-0.24244 0.59973,-0.24882 0.59973,-0.64438 0,-0.26159 -0.22331,-0.46575 -0.21692,-0.21054 -0.88682,-0.52316 -0.21692,-0.10846 -0.64439,-0.30624 -1.90763,-0.88683 -2.58392,-1.42275 z m -0.31262,-0.31263 q -0.52316,-0.43384 -0.78474,-0.96976 -0.26159,-0.53593 -0.26159,-1.17393 0,-1.44189 1.18031,-2.34786 1.18669,-0.90596 3.11985,-0.90596 1.46103,0 2.30957,0.56782 0.85493,0.56144 0.85493,1.51207 0,0.49764 -0.26158,0.91235 -0.25521,0.4147 -0.74647,0.70818 0.84217,0.47213 1.25687,1.09737 0.4147,0.61886 0.4147,1.40999 0,1.52483 -1.32705,2.52012 -1.32067,0.99529 -3.40056,0.99529 -1.62691,0 -2.63496,-0.68905 -1.00167,-0.69542 -1.00167,-1.76727 0,-0.60611 0.31263,-1.06547 0.319,-0.45936 0.96976,-0.80389 z"
         id="path4324"
         inkscape:connector-curvature="0" />
    </g>
    <g
       transform="matrix(2.59064,0,0,2.59064,491.32064,345.6277)"
       style="font-style:normal;font-variant:normal;font-weight:normal;font-stretch:normal;font-size:30px;line-height:125%;font-family:'Broadway BT';-inkscape-font-specification:'Broadway BT';letter-spacing:0px;word-spacing:0px;fill:#ffffff;fill-opacity:1;stroke:none;stroke-width:1px;stroke-linecap:butt;stroke-linejoin:miter;stroke-opacity:1"
       id="flowRoot4159-5">
      <path
         d="m 8.0136719,0.87903553 0,20.63964847 0.3662109,0 q 3.9990232,0 6.4160152,-2.124023 2.431641,-2.138672 2.431641,-5.595704 0,-2.358398 -1.333008,-3.8378902 -1.318359,-1.4941406 -3.383789,-1.4941406 -0.996094,0 -1.992187,0.3662109 -0.9814456,0.3515625 -1.0400394,0.3515625 -0.1464843,0 -0.2636718,-0.1025391 -0.1171875,-0.102539 -0.1171875,-0.234375 0,-0.5419922 0.8789062,-0.9082031 0.8935545,-0.3808594 2.2412105,-0.3808594 2.709961,0 4.321289,1.7138672 1.611329,1.6992188 1.611329,4.5556638 0,3.793946 -2.607422,6.166992 -2.607422,2.358399 -6.8701174,2.358399 -4.4970704,0 -7.1777344,-3.032227 -2.6660156,-3.032226 -2.6660156,-8.100586 0,-5.0830074 2.915039,-8.1445308 2.9150391,-3.07617191983 7.7050782,-3.07617191983 2.7246092,0 4.7460942,1.04003901983 2.036132,1.0400391 2.036132,2.1972657 0,0.2783203 -0.190429,0.46875 -0.19043,0.1904297 -0.46875,0.1904297 -0.336914,0 -0.864258,-0.703125 -0.527344,-0.7177735 -0.9375,-1.0546875 -0.820313,-0.703125 -1.860352,-1.0253907 -1.040039,-0.33691403 -2.4316404,-0.33691403 -0.336914,0 -0.7177734,0.0292969 -0.3808594,0.0292969 -0.7470703,0.0732422 z"
         id="path4317"
         inkscape:connector-curvature="0" />
      <path
         d="m 29.166016,21.328254 0,-10.429687 -4.013672,0 q -0.46875,0 -0.688477,-0.131836 -0.219726,-0.131836 -0.219726,-0.410156 0,-0.292969 0.205078,-0.4101567 0.205078,-0.1318359 0.732422,-0.1318359 l 3.984375,0 0,-8.7890625 q -1.918946,0 -3.413086,0.3955078 -1.479493,0.3955078 -2.607422,1.2158203 -0.439453,0.3222657 -1.054688,0.9814453 -0.600586,0.6445313 -0.893554,0.6445313 -0.278321,0 -0.439454,-0.1611328 Q 20.59668,3.940559 20.59668,3.6915355 q 0,-0.4101562 0.395507,-0.8496093 0.410157,-0.4541016 1.215821,-0.9521485 1.552734,-0.95214842 3.310547,-1.40624998 1.772461,-0.45410156 3.925781,-0.45410156 4.02832,0 6.269531,1.39160154 2.241211,1.3769531 2.241211,3.8378906 0,2.34375 -1.889648,3.6328125 -1.889649,1.2744142 -5.639649,1.4648442 4.335938,0.292968 6.445313,1.655273 2.109375,1.362305 2.109375,3.896484 0,3.017579 -2.856446,4.746094 -2.841796,1.728516 -7.910156,1.728516 -2.563476,0 -4.40918,-0.556641 -1.845703,-0.541992 -3.339843,-1.728515 -0.747071,-0.585938 -1.201172,-1.171875 -0.439453,-0.585938 -0.439453,-0.952149 0,-0.249023 0.219726,-0.424805 0.219727,-0.175781 0.556641,-0.175781 0.424805,0 0.9375,0.834961 0.512695,0.834961 0.922851,1.201172 1.083985,0.996094 2.680665,1.479492 1.596679,0.46875 3.823242,0.46875 0.483398,0 0.732422,0 0.263671,-0.01465 0.46875,-0.0293 z"
         id="path4319"
         inkscape:connector-curvature="0" />
    </g>
  </g>
</svg>
