<?xml version="1.0" encoding="UTF-8" standalone="no"?>
<!-- Created with Inkscape (http://www.inkscape.org/) -->

<svg
   xmlns:dc="http://purl.org/dc/elements/1.1/"
   xmlns:cc="http://creativecommons.org/ns#"
   xmlns:rdf="http://www.w3.org/1999/02/22-rdf-syntax-ns#"
   xmlns:svg="http://www.w3.org/2000/svg"
   xmlns="http://www.w3.org/2000/svg"
   xmlns:sodipodi="http://sodipodi.sourceforge.net/DTD/sodipodi-0.dtd"
   xmlns:inkscape="http://www.inkscape.org/namespaces/inkscape"
   width="800"
   height="800"
   viewBox="0 0 800 800"
   id="svg2"
   version="1.1"
   inkscape:version="0.91 r"
   sodipodi:docname="Kupala.svg">
  <defs
     id="defs4" />
  <sodipodi:namedview
     id="base"
     pagecolor="#ffffff"
     bordercolor="#666666"
     borderopacity="1.0"
     inkscape:pageopacity="0.0"
     inkscape:pageshadow="2"
     inkscape:zoom="1"
     inkscape:cx="356.49272"
     inkscape:cy="394.88718"
     inkscape:document-units="px"
     inkscape:current-layer="layer2"
     showgrid="false"
     inkscape:window-width="1920"
     inkscape:window-height="1030"
     inkscape:window-x="0"
     inkscape:window-y="0"
     inkscape:window-maximized="1"
     inkscape:snap-global="false"
     fit-margin-top="0"
     fit-margin-left="0"
     fit-margin-right="0"
     fit-margin-bottom="0"
     units="px" />
  <metadata
     id="metadata7">
    <rdf:RDF>
      <cc:Work
         rdf:about="">
        <dc:format>image/svg+xml</dc:format>
        <dc:type
           rdf:resource="http://purl.org/dc/dcmitype/StillImage" />
        <dc:title></dc:title>
      </cc:Work>
    </rdf:RDF>
  </metadata>
  <g
     inkscape:groupmode="layer"
     id="layer3"
     inkscape:label="Layer 3"
     style="display:inline"
     transform="translate(676,-992.36219)" />
  <g
     inkscape:groupmode="layer"
     id="layer2"
     inkscape:label="Layer 2"
     style="display:inline"
     transform="translate(676,-992.36219)">
    <g
       id="g4383"
       transform="matrix(0.3058104,0,0,0.3058104,-469.27217,1244.2392)">
      <rect
         y="-823.63782"
         x="-676"
         height="2616"
         width="2616"
         id="rect4254"
         style="color:#000000;clip-rule:nonzero;display:inline;overflow:visible;visibility:visible;opacity:1;isolation:auto;mix-blend-mode:normal;color-interpolation:sRGB;color-interpolation-filters:linearRGB;solid-color:#000000;solid-opacity:1;fill:#000000;fill-opacity:1;fill-rule:evenodd;stroke:none;stroke-width:11;stroke-linecap:round;stroke-linejoin:round;stroke-miterlimit:4;stroke-dasharray:none;stroke-dashoffset:0;stroke-opacity:1;color-rendering:auto;image-rendering:auto;shape-rendering:auto;text-rendering:auto;enable-background:accumulate" />
      <path
         inkscape:connector-curvature="0"
         id="path4184"
         d="m 688.0077,439.66729 c -1.32677,-0.37911 -1.89632,-1.24196 -1.50413,-2.27871 0.29905,-0.79056 5.70365,-4.07125 8.09956,-4.91658 1.84147,-0.64971 6.84889,-3.34046 10.10181,-5.42824 5.28066,-3.38922 10.35338,-6.3438 11.5141,-6.70635 0.6676,-0.20852 2.09186,-0.55232 3.16503,-0.764 1.07316,-0.21168 2.66415,-0.85923 3.53553,-1.439 0.87138,-0.57977 2.92076,-1.46357 4.55418,-1.96399 2.71282,-0.83111 12.80692,-5.1302 13.6496,-5.81338 0.1958,-0.15874 4.24025,-2.13478 8.98767,-4.39119 5.66675,-2.69337 9.69651,-4.85862 11.73166,-6.30361 7.33885,-5.2107 9.44081,-6.58235 11.27481,-7.3575 1.0695,-0.45203 3.05824,-1.41682 4.41942,-2.14399 3.60434,-1.92549 4.41019,-2.01973 26.69328,-3.12149 3.40295,-0.16826 8.81232,-0.49754 12.02082,-0.73174 9.11317,-0.66519 13.75296,0.14542 18.2319,3.18528 1.10787,0.75191 3.21339,1.80444 4.67894,2.33896 1.46555,0.53451 4.34803,1.90748 6.40552,3.05104 4.02003,2.23435 6.32114,4.36478 10.12155,9.37081 1.06464,1.40237 2.58685,3.07291 3.38269,3.71231 1.75096,1.40676 3.14134,3.67127 3.14134,5.11629 0,1.63534 -1.10783,2.41022 -3.44585,2.41022 -1.95347,0 -1.96102,-0.004 -3.76358,-2.10866 -0.9934,-1.15976 -3.39717,-3.71954 -5.34172,-5.6884 -2.7911,-2.82601 -3.90775,-3.71123 -5.3033,-4.20424 -0.97227,-0.34347 -3.43463,-1.42318 -5.4719,-2.39934 -4.69948,-2.25177 -5.98336,-2.46052 -7.26301,-1.18087 -1.0414,1.0414 -0.9988,2.25965 0.12292,3.51538 0.99585,1.11481 4.34872,3.56477 6.95514,5.08216 1.36118,0.79244 3.42946,2.29819 4.59619,3.34611 1.16673,1.04792 3.10032,2.65058 4.29687,3.56146 1.19655,0.91087 2.69875,2.33484 3.33823,3.16436 0.63948,0.82953 1.99273,2.39607 3.00721,3.4812 2.28958,2.44902 3.01486,4.4366 2.11828,5.80496 -1.33878,2.04325 -3.39783,1.83402 -6.31292,-0.64146 -2.87024,-2.43738 -6.462,-4.05237 -11.57814,-5.20595 -5.75319,-1.29722 -9.9436,-1.61697 -13.8758,-1.05879 -2.35597,0.33443 -3.47742,0.33857 -4.92671,0.0182 -2.49951,-0.55254 -19.07057,-0.80946 -23.08962,-0.35798 -1.75009,0.19659 -5.96621,0.52531 -9.36917,0.73048 -17.96657,1.08324 -17.18575,0.99845 -21.38998,2.3228 -2.11399,0.66592 -11.51771,4.36449 -12.02081,4.7279 -0.19446,0.14046 -1.2286,0.53708 -2.2981,0.88138 -1.0695,0.3443 -2.6635,0.9858 -3.54222,1.42555 -0.87872,0.43975 -3.50385,1.44245 -5.83363,2.22822 -4.4188,1.49034 -5.60286,1.65733 -20.67619,2.91608 -2.43068,0.20298 -8.71509,0.9886 -13.96535,1.74581 -5.25027,0.75722 -11.21649,1.54956 -13.25826,1.76075 -2.04177,0.21119 -3.95096,0.44018 -4.24264,0.50887 -0.29168,0.0687 -1.04373,-0.0218 -1.67122,-0.20111 l 0,2e-5 z"
         style="color:#000000;clip-rule:nonzero;display:inline;overflow:visible;visibility:visible;opacity:1;isolation:auto;mix-blend-mode:normal;color-interpolation:sRGB;color-interpolation-filters:linearRGB;solid-color:#000000;solid-opacity:1;fill:#ffffff;fill-opacity:1;fill-rule:evenodd;stroke:none;stroke-width:11;stroke-linecap:round;stroke-linejoin:round;stroke-miterlimit:4;stroke-dasharray:none;stroke-dashoffset:0;stroke-opacity:1;color-rendering:auto;image-rendering:auto;shape-rendering:auto;text-rendering:auto;enable-background:accumulate" />
      <path
         inkscape:connector-curvature="0"
         id="path4186"
         d="m -177.89499,537.50284 c -0.38552,-1.36118 -1.07957,-7.24785 -1.54232,-13.08148 -0.46276,-5.83363 -1.57109,-16.85202 -2.46295,-24.48531 -1.75523,-15.02268 -0.69021,-25.9949 4.69279,-48.34669 7.64732,-31.75389 22.71999,-56.17192 38.91502,-63.04311 3.77836,-1.60308 10.68813,-4.7144 15.35503,-6.91405 35.655221,-16.80532 38.790041,-17.744 49.736281,-14.89287 5.36488,1.39737 9.50917,3.76544 14.10405,8.05909 15.93761,14.89282 25.95457,25.32798 33.72046,35.12827 4.59796,5.80249 13.96108,16.35092 20.806952,23.44095 12.924781,13.38578 15.04521,17.51462 8.99495,17.51462 -1.898638,0 -3.815124,-0.58744 -4.258862,-1.30541 -0.443737,-0.71798 -2.628471,-1.70552 -4.854981,-2.19454 -2.442349,-0.53643 -6.630499,-3.84938 -10.558009,-8.35171 -7.0214,-8.04902 -14.93989,-12.97077 -29.97094,-18.62844 -5.25292,-1.97719 -14.5937,-6.26946 -20.7573,-9.53837 -6.16361,-3.26891 -15.11646,-8.01176 -19.89523,-10.53967 -8.71022,-4.60759 -18.932401,-5.97526 -25.439801,-3.4037 -4.2433,1.67684 -22.20639,20.27629 -27.53069,28.50599 -14.79133,22.86277 -18.91471,30.64151 -25.69747,48.47822 -5.41528,14.2406 -5.5825,15.22469 -6.55506,38.57547 -0.54891,13.17914 -1.63059,24.75757 -2.40374,25.72984 -1.9594,2.46405 -3.57352,2.20454 -4.39818,-0.7071 z"
         style="color:#000000;clip-rule:nonzero;display:inline;overflow:visible;visibility:visible;opacity:1;isolation:auto;mix-blend-mode:normal;color-interpolation:sRGB;color-interpolation-filters:linearRGB;solid-color:#000000;solid-opacity:1;fill:#ffffff;fill-opacity:1;fill-rule:evenodd;stroke:none;stroke-width:11;stroke-linecap:round;stroke-linejoin:round;stroke-miterlimit:4;stroke-dasharray:none;stroke-dashoffset:0;stroke-opacity:1;color-rendering:auto;image-rendering:auto;shape-rendering:auto;text-rendering:auto;enable-background:accumulate" />
      <path
         inkscape:connector-curvature="0"
         id="path4188"
         d="m 112.87903,990.75828 c 0.37725,-1.13883 5.32486,-2.15082 13.90643,-2.84442 15.86968,-1.28266 19.06248,-3.57408 17.82591,-12.79341 -0.76756,-5.72264 -6.84445,-15.77391 -10.35005,-17.11913 -1.13911,-0.43712 -12.69971,-2.07075 -25.69022,-3.63027 -25.541617,-3.0663 -37.651047,-6.22059 -49.159874,-12.80526 -7.015645,-4.01395 -16.826073,-14.10168 -22.645844,-23.28595 -1.478631,-2.33345 -3.48813,-5.07956 -4.46555,-6.10245 -0.977405,-1.02288 -4.6321,-6.27315 -8.121531,-11.66726 -3.489431,-5.3941 -6.873644,-9.80745 -7.520491,-9.80745 -0.646833,0 -2.43372,-1.1137 -3.970843,-2.47488 -1.537123,-1.36118 -4.68,-3.80155 -6.984178,-5.42303 -5.606678,-3.94551 -42.786638,-29.19185 -45.714548,-31.04157 -21.09217,-13.32518 -30.91635,-20.95552 -36.69027,-28.49699 -5.58064,-7.28902 -18.65822,-32.10156 -18.65822,-35.40087 0,-1.09429 -1.65215,-5.60948 -3.67145,-10.03378 -2.019301,-4.42428 -5.201281,-11.40262 -7.071071,-15.50743 -1.86979,-4.1048 -3.39962,-7.79062 -3.39962,-8.1907 0,-0.98442 -6.62267,-15.17299 -19.75742,-42.32877 -6.01946,-12.44508 -12.05333,-25.173 -13.40861,-28.28427 -1.35527,-3.11127 -3.93075,-8.83884 -5.72328,-12.72792 -4.48565,-9.73211 -8.11214,-24.49901 -14.7605,-60.10408 -7.02894,-37.64324 -8.03233,-45.25483 -5.96567,-45.25483 2.24128,0 4.80097,5.66682 10.54014,23.33452 8.30686,25.57216 12.30579,41.18406 12.30579,48.04199 0,7.05328 1.40253,11.34058 13.43002,41.05346 10.30399,25.45511 13.37705,32.50692 17.56426,40.30509 1.87942,3.50018 8.87977,16.97042 15.556351,29.93385 12.34633,23.97201 16.00547,29.38753 29.8169,44.12905 10.75104,11.47502 21.02024,18.91676 36.76956,26.64568 15.22795,7.47306 28.085485,17.25021 34.955211,26.58075 2.572964,3.49462 5.164694,6.99025 5.759399,7.76807 0.594705,0.77781 2.634086,3.6416 4.531975,6.36396 1.897874,2.72236 4.108036,5.71906 4.91145,6.65933 0.803415,0.94028 3.688142,4.7022 6.410503,8.35986 12.14388,16.31596 23.779407,25.71514 37.397153,30.20939 5.84073,1.92763 16.709187,0.88707 18.913819,-1.81083 1.656596,-2.02722 -0.07411,-11.46087 -7.446457,-40.58933 -9.454385,-37.35458 -15.374736,-51.20583 -27.936431,-65.3601 -5.098141,-5.74449 -9.453579,-7.62787 -43.555501,-18.83434 -11.278351,-3.70625 -21.460691,-7.4459 -22.627421,-8.31034 -1.16672,-0.86444 -4.3487,-2.79953 -7.07106,-4.30023 -16.23253,-8.94809 -23.5527,-17.80514 -35.7057,-43.20213 -4.65253,-9.72272 -8.92766,-18.63226 -9.50028,-19.79899 -6.90319,-14.0652 -16.84744,-45.1479 -21.03882,-65.76093 -0.7908,-3.88909 -2.3744,-11.52584 -3.51912,-16.97056 -1.14472,-5.44472 -3.141391,-15.94526 -4.437031,-23.33453 -1.29564,-7.38926 -2.95783,-16.13616 -3.69374,-19.43756 -1.99113,-8.93239 -5.24283,-43.61011 -6.20024,-66.12236 -0.91498,-21.51451 0.16243,-26.48349 5.92208,-27.31241 5.40349,-0.77766 8.766541,2.41269 13.861851,13.15003 5.10732,10.76264 11.09895,19.11213 13.71495,19.11213 2.98464,0 28.31442,12.76413 33.53494,16.89885 5.75838,4.56072 6.64679,6.28664 11.68429,22.69913 3.16141,10.30007 3.25735,12.24146 3.31942,67.17515 0.0669,59.21925 0.94601,70.94516 6.57355,87.68124 7.00713,20.83891 27.197685,53.82443 35.65734,58.25379 11.429802,5.98447 21.984431,7.59673 54.578815,8.33712 32.551944,0.73944 38.997934,1.55143 51.988934,6.54892 14.09475,5.42211 23.39501,22.96674 25.02243,47.20394 1.55681,23.18568 3.38928,34.1364 7.8661,47.00723 2.34426,6.73976 4.86297,13.52691 5.59712,15.08255 0.73414,1.55563 2.66032,7.2832 4.28038,12.72792 1.62006,5.44472 5.10937,13.71787 7.75402,18.38477 10.65824,18.80811 11.04801,20.07042 11.19686,36.26296 0.14993,16.30923 -0.37201,17.64957 -9.37084,24.06389 -8.29961,5.91591 -59.02851,11.66423 -57.31607,6.49474 z"
         style="color:#000000;clip-rule:nonzero;display:inline;overflow:visible;visibility:visible;opacity:1;isolation:auto;mix-blend-mode:normal;color-interpolation:sRGB;color-interpolation-filters:linearRGB;solid-color:#000000;solid-opacity:1;fill:#ffffff;fill-opacity:1;fill-rule:evenodd;stroke:none;stroke-width:11;stroke-linecap:round;stroke-linejoin:round;stroke-miterlimit:4;stroke-dasharray:none;stroke-dashoffset:0;stroke-opacity:1;color-rendering:auto;image-rendering:auto;shape-rendering:auto;text-rendering:auto;enable-background:accumulate" />
      <path
         inkscape:connector-curvature="0"
         id="path4190"
         d="m 77.662577,728.12962 c -7.543686,-1.79788 -28.416741,-14.35204 -36.737644,-22.09596 -8.917213,-8.29888 -8.462316,-4.79132 -4.111924,-31.70566 1.068664,-6.61145 3.002701,-19.02117 4.297859,-27.57716 2.130478,-14.07423 5.374337,-29.06718 7.496452,-34.64824 0.44363,-1.16672 1.802306,-5.5712 3.019281,-9.78773 2.711658,-9.39526 5.28003,-10.74848 6.423776,-3.38455 0.460789,2.96676 1.738357,9.84888 2.83904,15.2936 1.100684,5.44473 3.360357,17.44396 5.021497,26.66496 1.700834,9.44135 5.075343,21.79755 7.724506,28.28427 13.54364,33.1629 19.453718,54.34726 16.241701,58.21751 -1.859025,2.23998 -5.095017,2.43576 -12.214544,0.73896 z"
         style="color:#000000;clip-rule:nonzero;display:inline;overflow:visible;visibility:visible;opacity:1;isolation:auto;mix-blend-mode:normal;color-interpolation:sRGB;color-interpolation-filters:linearRGB;solid-color:#000000;solid-opacity:1;fill:#ffffff;fill-opacity:1;fill-rule:evenodd;stroke:none;stroke-width:11;stroke-linecap:round;stroke-linejoin:round;stroke-miterlimit:4;stroke-dasharray:none;stroke-dashoffset:0;stroke-opacity:1;color-rendering:auto;image-rendering:auto;shape-rendering:auto;text-rendering:auto;enable-background:accumulate" />
      <path
         inkscape:connector-curvature="0"
         id="path4192"
         d="m -169.581,366.383 c 0.32962,-3.69464 0.92977,-14.03607 1.33366,-22.98097 0.40389,-8.9449 2.09038,-22.30922 3.74776,-29.69849 3.95029,-17.61205 3.88877,-42.06142 -0.16726,-66.46804 -5.95782,-35.85035 -7.76872,-62.85377 -7.63464,-113.84419 0.18075,-68.736775 1.971,-81.652306 14.01597,-101.116269 6.56289,-10.605244 14.99364,-27.035054 18.97569,-36.979761 7.73894,-19.327067 8.88726,-27.901939 9.91471,-74.036002 1.04743,-47.030818 -0.18527,-40.287868 12.15598,-66.494448 2.57088,-5.45924 5.89531,-14.6921 7.38763,-20.51747 3.04116,-11.87136 12.762851,-32.69315 15.701081,-33.62835 2.27385,-0.72374 2.2196,-0.41602 -5.56044,31.54481 -3.029431,12.44508 -6.517491,29.30958 -7.751241,37.47666 -2.70967,17.93726 -6.26614,35.261228 -7.83625,38.171288 -1.59543,2.95696 -9.42929,45.51108 -10.28593,55.873915 -1.98076,23.961346 -4.07123,39.086784 -6.54781,47.376155 -1.51051,5.055813 -4.3677,16.142455 -6.3493,24.636972 -1.9816,8.494516 -4.27511,16.254532 -5.09668,17.244467 -1.85439,2.234401 -5.45075,41.705964 -5.49184,60.275193 -0.0168,7.57257 0.58287,16.48211 1.33249,19.79899 2.31664,10.25051 9.79591,68.60533 11.46719,89.46931 0.87228,10.88944 2.73302,25.84475 4.13497,33.23402 1.40196,7.38926 3.58128,19.79899 4.84295,27.57716 1.26167,7.77817 2.88347,17.00592 3.60401,20.5061 3.3603,16.32353 3.30251,17.45438 -1.1801,23.09502 -4.91729,6.1876 -43.53945,46.20144 -44.59456,46.20144 -0.39454,0 -0.44766,-3.02288 -0.11804,-6.71751 z m 21.92985,-111.46139 c 1.74645,-4.59352 1.75877,-15.13788 0.0346,-29.60642 -0.74152,-6.22254 -2.07823,-17.67767 -2.97047,-25.45584 -0.89223,-7.77817 -2.87533,-23.05168 -4.40688,-33.94113 -2.35165,-16.72034 -2.71477,-25.93799 -2.33523,-59.27932 0.34872,-30.634636 0.0536,-39.612248 -1.31702,-40.069124 -2.54267,-0.847566 -2.83601,0.80968 -4.44318,25.102235 -1.59908,24.170369 -0.28598,58.093079 3.39403,87.681239 1.20925,9.72272 2.79984,22.45064 3.53464,28.28427 0.7348,5.83364 2.09699,19.67525 3.02708,30.75915 0.93009,11.0839 2.23381,20.15254 2.89715,20.15254 0.66334,0 1.82672,-1.63241 2.58529,-3.6276 z"
         style="color:#000000;clip-rule:nonzero;display:inline;overflow:visible;visibility:visible;opacity:1;isolation:auto;mix-blend-mode:normal;color-interpolation:sRGB;color-interpolation-filters:linearRGB;solid-color:#000000;solid-opacity:1;fill:#ffffff;fill-opacity:1;fill-rule:evenodd;stroke:none;stroke-width:11;stroke-linecap:round;stroke-linejoin:round;stroke-miterlimit:4;stroke-dasharray:none;stroke-dashoffset:0;stroke-opacity:1;color-rendering:auto;image-rendering:auto;shape-rendering:auto;text-rendering:auto;enable-background:accumulate" />
      <path
         inkscape:connector-curvature="0"
         id="path4194"
         d="m -112.32001,-192.23136 c 0.006,-0.58336 1.29694,-5.19723 2.86888,-10.25305 1.57194,-5.05581 4.4151,-21.60211 6.31812,-36.76955 4.167571,-33.21613 7.095671,-43.40598 19.089591,-66.43198 11.04024,-21.19514 17.33524,-28.05846 32.26286,-35.17562 12.44457,-5.93329 29.66259,-15.3874 32.78784,-18.00322 2.00642,-1.67936 16.290115,-9.02363 36.769554,-18.90586 11.584276,-5.58992 13.75894,-6.92104 43.808843,-26.81545 22.143219,-14.65981 26.953015,-17.20298 46.190862,-24.4233 11.81063,-4.43275 23.91647,-8.50701 26.90183,-9.05391 5.34081,-0.9784 5.38773,-0.94911 2.92296,1.82493 -1.37775,1.55061 -13.46927,8.4235 -26.87006,15.27309 -30.106586,15.38846 -30.535758,15.65884 -51.27766,32.30471 -16.718621,13.4171 -25.970986,19.23528 -42.215877,26.54665 -9.725558,4.3772 -18.083374,11.19369 -21.497165,17.53272 -1.332332,2.47399 -3.760477,5.3378 -5.395877,6.36401 -3.53691,2.21942 -18.29146,10.26789 -29.06081,15.85241 -10.20368,5.29119 -27.32269,19.57544 -32.52891,27.14241 -6.29783,9.1536 -11.74628,22.23399 -9.99198,23.98829 2.24351,2.24351 10.79217,-3.06221 19.6795,-12.21405 4.80863,-4.95175 8.62367,-6.79474 8.62367,-4.16597 0,0.62554 -1.90919,4.14782 -4.24264,7.82729 -2.33346,3.67948 -4.24265,7.27263 -4.24265,7.98478 0,0.71216 -0.92021,1.80981 -2.04493,2.43922 -4.47298,2.50322 -27.85858,24.99402 -29.62994,28.49624 -1.03871,2.05366 -2.32498,7.8705 -2.85838,12.92632 -0.88624,8.40034 -4.851281,22.32928 -8.183921,28.7497 -2.92443,5.63396 -8.21605,10.1338 -8.18371,6.95919 z"
         style="color:#000000;clip-rule:nonzero;display:inline;overflow:visible;visibility:visible;opacity:1;isolation:auto;mix-blend-mode:normal;color-interpolation:sRGB;color-interpolation-filters:linearRGB;solid-color:#000000;solid-opacity:1;fill:#ffffff;fill-opacity:1;fill-rule:evenodd;stroke:none;stroke-width:11;stroke-linecap:round;stroke-linejoin:round;stroke-miterlimit:4;stroke-dasharray:none;stroke-dashoffset:0;stroke-opacity:1;color-rendering:auto;image-rendering:auto;shape-rendering:auto;text-rendering:auto;enable-background:accumulate" />
      <path
         inkscape:connector-curvature="0"
         id="path4196"
         d="m 692.27695,-594.12453 c -4.25939,-0.0101 -8.37912,0.0648 -12.29687,0.23242 -14.34623,0.61375 -14.66653,0.70585 -30.60156,8.75391 l -16.10352,8.13281 -24.79687,-2.24414 c -26.43051,-2.39208 -62.69884,-2.75979 -95.01953,-0.96289 -15.9949,0.88925 -21.06203,1.70373 -26.37305,4.24023 -10.08633,4.81715 -22.63385,17.00228 -28.05469,27.24414 -2.60657,4.92473 -6.85784,12.12715 -9.44922,16.00586 -7.1549,10.70923 -6.06545,12.81884 4.36914,8.45899 2.8512,-1.19131 11.36029,-3.53256 18.91016,-5.20313 24.32784,-5.38304 56.61537,-3.82963 85.14453,4.09571 27.40444,7.61289 51.98481,12.3966 79.19727,15.41406 12.05617,1.33684 24.38579,3.28903 27.40039,4.33789 3.01461,1.04886 7.70793,1.90625 10.42773,1.90625 4.2353,0 4.69142,-0.30425 3.18359,-2.12109 -0.9683,-1.16672 -2.42301,-2.1211 -3.23242,-2.1211 -0.80941,0 -7.33425,-3.49749 -14.5,-7.77344 -10.44756,-6.23428 -15.31946,-8.21019 -24.58984,-9.96875 -6.35834,-1.20616 -15.5059,-3.37311 -20.32813,-4.8164 -4.82224,-1.44329 -15.13198,-4.08037 -22.91015,-5.85938 -23.62747,-5.40403 -23.08983,-7.84092 2.53711,-11.51562 46.83703,-6.71606 56.72543,-6.98195 65.83984,-1.77149 7.54927,4.31573 20.39149,7.76368 28.91797,7.76368 3.50717,0 12.64382,1.2894 20.30273,2.86523 7.65891,1.57584 23.78954,3.47423 35.84571,4.21875 12.482,0.77081 26.79204,2.56156 33.23437,4.1582 6.22254,1.54218 13.85944,2.87329 16.9707,2.95899 7.17428,0.19771 12.12375,2.15392 22.1543,8.75 4.40721,2.89818 13.63472,7.14747 20.50586,9.44336 19.3099,6.45215 22.55181,8.13901 27.59766,14.37109 10.71483,13.2338 18.91744,21.40774 23.33594,23.25391 2.58152,1.07862 4.69335,2.62975 4.69335,3.44726 0,2.92041 -6.54569,1.4104 -13.47656,-3.10937 -9.56183,-6.23546 -21.13382,-11.79357 -29.65625,-14.24414 -12.07905,-3.47325 -37.66167,-6.99653 -39.25195,-5.40625 -0.95934,0.95935 0.13954,2.08549 3.35547,3.4414 38.30813,16.15159 47.20154,20.20496 52.06836,23.73047 3.14738,2.27994 6.03124,4.14649 6.4082,4.14649 1.61451,0 24.70882,17.35369 31.39258,23.58984 4.01711,3.7481 17.18498,17.08801 29.26172,29.64453 19.88018,20.66999 22.17442,23.57837 24.25586,30.73828 2.29118,7.8814 5.6636,12.66867 17.6914,25.11914 3.48701,3.60955 7.76677,8.22429 9.51172,10.25391 1.9099,2.22152 4.63924,3.68945 6.85742,3.68945 2.02658,0 5.68962,0.87496 8.14068,1.94336 2.451,1.06839 8.5926,3.00697 13.6484,4.3086 10.8292,2.788 30.9543,11.15147 37.4629,15.56836 2.5213,1.71102 8.8507,8.0024 14.0644,13.98046 5.2138,5.97807 9.9561,10.86914 10.5371,10.86914 0.5811,0 4.7767,3.4087 9.3243,7.57422 11.4634,10.5003 10.6655,11.54983 -9.6641,12.71094 -16.559,0.94574 -34.5057,5.43709 -54.6523,13.67969 -14.7267,6.02513 -26.24202,9.72874 -39.62114,12.74219 -14.60637,3.28979 -28.11413,3.28076 -55.83789,-0.0391 -15.95076,-1.91005 -42.44408,-1.03157 -63.10157,2.0918 -15.41013,2.32999 -32.56112,7.71264 -33.49414,10.51172 -0.49542,1.48625 0.30557,1.7068 3.42578,0.94141 19.64883,-4.81996 49.32228,-4.22988 71.71876,1.42773 19.45171,4.91376 59.97093,7.04205 75.89843,3.98633 19.28617,-3.70009 31.67987,-6.08897 43.13277,-8.3125 6.2226,-1.20806 14.8138,-2.81825 19.0918,-3.57813 4.278,-0.75989 10.0016,-2.02465 12.7188,-2.81054 7.7306,-2.23589 11.3223,-1.83563 11.3223,1.26171 0,2.65195 -6.4494,5.2362 -24.7481,9.91602 -8.3086,2.1249 -30.3653,8.20054 -35.9433,9.90039 -11.96878,3.64739 -40.96228,4.85695 -74.65825,3.11328 -18.21278,-0.94248 -34.50863,-2.23733 -36.21094,-2.87695 -1.70231,-0.63962 -12.00313,-2.28017 -22.89258,-3.64453 -22.59363,-2.83082 -36.24641,-2.25607 -50.20508,2.10937 -5.05581,1.58116 -13.96519,3.81743 -19.79882,4.97071 -30.6091,6.05123 -29.69922,5.81511 -29.69922,7.71875 0,2.05863 5.83752,1.79499 33.23437,-1.5 13.2229,-1.59031 30.40543,-3.45917 38.1836,-4.15235 7.77818,-0.69319 16.0513,-1.59819 18.38476,-2.01172 3.87487,-0.68672 22.55367,1.28038 45.96289,4.83985 5.05581,0.76876 15.04056,1.41008 22.18946,1.42578 12.1668,0.0266 17.8254,1.63616 12.11914,3.44726 -1.37585,0.43668 -17.45514,0.65933 -35.73047,0.4961 -22.70777,-0.20282 -36.3617,0.29341 -43.12696,1.5664 -24.79508,4.66556 -32.02551,5.87412 -45.2539,7.5625 -34.67413,4.42555 -91.8055,0.94523 -120.91602,-7.36718 -2.72236,-0.77736 -10.53571,-2.71311 -17.36328,-4.30078 -6.82757,-1.58768 -14.14634,-3.58157 -16.26367,-4.42969 -19.46086,-7.79524 -26.07048,-8.9668 -50.54297,-8.9668 -21.85352,0 -23.00028,0.14583 -32.52734,4.14063 -23.78151,9.97184 -34.59656,20.30876 -46.93946,44.86132 -15.38451,30.60294 -18.63015,41.84584 -19.73437,68.37696 -0.98965,23.778638 0.79416,37.092048 6.64648,49.609368 4.80492,10.27709 10.29589,15.22382 33.18164,29.894533 14.85711,9.524021 30.15499,24.120154 34.7793,33.183594 1.46129,2.864037 3.23103,5.561137 3.93164,5.994141 1.55794,0.962851 11.56762,28.674638 15.66406,43.365234 1.64483,5.898656 3.97683,18.288576 5.18164,27.535156 2.55113,19.579064 5.86986,30.829124 9.28321,31.466794 1.30375,0.24357 5.73278,-1.92101 9.84375,-4.81054 10.62162,-7.46576 21.53359,-12.54126 33.52148,-15.591801 l 10.38281,-2.642578 3.40625,3.960938 c 3.84768,4.473181 4.40136,9.678701 1.35352,12.726561 -1.12948,1.12948 -6.49395,3.05592 -11.91992,4.28125 -8.08385,1.82557 -11.73384,3.67273 -20.21875,10.22852 -11.94527,9.22939 -12.94694,12.12137 -4.69922,13.58398 11.3353,2.01012 15.327,1.33031 27.05469,-4.61328 l 11.49804,-5.82813 24.21094,1.03516 c 26.69397,1.14096 26.95297,1.26002 21.09766,9.64844 -1.71261,2.45352 -3.4826,4.77906 -3.93164,5.16797 -1.77288,1.53546 -11.33985,15.63231 -11.33985,16.70898 0,0.6305 -1.74967,2.81934 -3.88867,4.86524 -2.89963,2.77341 -6.3937,4.11915 -13.73242,5.28906 -5.41362,0.86301 -12.0603,2.62063 -14.76953,3.90625 -6.74014,3.1984 -20.95461,17.24691 -30.39649,30.04102 -7.19518,9.74975 -19.23632,31.79865 -19.23632,35.22265 0,1.40352 -1.48324,5.13205 -7.36133,18.51758 -7.06552,16.0895 -16.97136,26.36772 -40.01563,41.51758 -4.83835,3.18085 -8.33892,6.98291 -11.08593,12.03906 -7.24757,13.33976 -3.10565,14.31223 17.70117,4.16016 17.52226,-8.54948 29.31683,-15.89269 37.22461,-23.17578 3.88908,-3.58186 10.88973,-9.10323 15.55664,-12.26953 4.6669,-3.16631 11.15236,-8.17715 14.41211,-11.13672 3.25976,-2.95957 7.71544,-5.81263 9.90039,-6.33985 2.18498,-0.52722 7.47201,-2.68608 11.75,-4.79687 5.07295,-2.50305 11.22125,-4.14989 17.67773,-4.73438 16.56026,-1.49918 41.77709,-8.38327 57.27539,-15.63672 9.31599,-4.36003 10.97091,-4.43159 21.91992,-0.94336 20.71311,6.59894 22.10545,7.41912 29.02344,17.11719 6.97892,9.78347 7.07687,9.83712 24.7168,13.33594 6.22254,1.23422 15.77012,3.20902 21.21484,4.38867 5.44472,1.17965 12.44342,2.696 15.55469,3.36914 20.69991,4.47849 33.78237,5.85334 52.32617,5.5 20.69163,-0.39427 27.16891,0.70573 52.75391,8.96289 9.51377,3.07041 16.66199,9.04861 21.6914,18.14063 1.50592,2.72236 5.33755,9.72301 8.51559,15.55664 5.8361,10.71265 7.4826,13.31231 20.6153,32.5664 11.1711,16.37817 17.5415,21.07471 30.1367,22.2168 6.9071,0.62631 9.2967,0.14705 16.2519,-3.25586 4.4846,-2.19408 11.3968,-7.06688 15.3614,-10.83008 7.533,-7.15032 11.4522,-7.92335 16.2714,-3.20703 1.7137,1.67706 1.7137,2.33126 0,4.67774 -1.0958,1.50045 -4.6337,6.46827 -7.8632,11.03906 -11.8917,16.83019 -35.2582,36.27661 -49.3613,41.08203 -6.6086,2.25174 -9.1844,5.20041 -6.7071,7.67774 0.8823,0.88231 3.8402,0.24544 8.3203,-1.79102 6.0651,-2.75685 9.3838,-3.1658 26.043,-3.2207 15.0044,-0.0494 19.978,0.42518 23.2304,2.21875 3.8646,2.13105 3.9581,2.37468 1.4141,3.68945 -1.4984,0.77439 -6.2259,1.83573 -10.5039,2.35742 -4.278,0.52167 -14.0929,2.98237 -21.8125,5.46875 -11.7403,3.78139 -15.2688,5.64689 -21.5683,11.4043 -9.4322,8.62053 -9.8415,11.92425 -1.5547,12.52734 l 5.9746,0.43555 3.7266,10.60742 c 2.0495,5.83363 4.7744,14.10678 6.0546,18.38477 1.2803,4.278 4.6036,15.41423 7.3848,24.74804 2.7812,9.33381 7.1683,23.97136 9.75,32.52735 2.5816,8.55599 5.1126,17.14724 5.6231,19.09179 6.7266,25.62559 9.8569,36.21839 13.5839,45.96094 0.5951,1.55563 1.7558,5.37506 2.5781,8.48633 0.8224,3.11127 2.696,10.11192 4.1641,15.55664 2.9297,10.86537 5.6834,55.39062 6.9238,111.93164 l 0.6875,31.32227 -5.705,7.72461 c -7.0283,9.51372 -10.1613,16.78401 -10.125,23.49609 0.033,5.98343 3.4066,26.01334 4.748,28.18359 0.5049,0.81713 4.8018,4.07937 9.5469,7.24805 0,0 5.4195,4.46831 8.6269,5.75977 1.1623,0.46801 2.4669,0.44099 3.7004,0.66148 0.6684,0.11948 29.2851,15.24706 33.532,16.25453 5.76,1.36643 49.459,0.99457 52.9903,-0.45117 1.7733,-0.72603 3.4558,-2.42128 5.6933,-5.73438 2.4919,-3.6897 4.3559,-5.46496 8.6524,-8.24218 2.7005,-1.74553 4.2899,-3.00156 4.6406,-3.64844 2.1315,-0.31239 3.6276,-0.70387 4.9727,-1.19922 3.5262,-1.29853 7.4876,-3.27303 8.8027,-4.38672 3.5929,-3.04283 4.6316,-15.19186 2.0879,-24.41211 -1.1732,-4.25288 -3.8015,-13.7787 -5.8399,-21.16797 -2.0384,-7.38926 -4.2869,-14.70609 -4.998,-16.26172 -3.8703,-8.46735 -5.2396,-13.24503 -4.2539,-14.83984 0.6072,-0.98256 1.8456,-1.32768 2.7519,-0.76758 2.6184,1.61823 10.9277,20.43791 13.4571,30.47852 3.229,12.81757 9.8731,31.07292 15.7695,43.33203 l 4.9942,10.38477 1.248,0 c -0.4707,0.6516 0.8734,3.42725 4.9023,10.18945 6.7064,11.25605 13.0648,25.6307 15.6387,35.35547 0.7206,2.72236 1.6602,5.86038 2.0879,6.97265 0.4277,1.11227 1.2433,5.351 1.8145,9.41993 0.5712,4.06892 1.1851,7.63385 1.3632,7.92187 0.178,0.28801 1.1284,5.43585 2.1114,11.43945 0.983,6.0036 2.2688,12.50663 2.8593,14.45118 0.5904,1.94454 1.076,4.33045 1.086,5.30273 0.01,0.97227 1.2902,7.17761 2.8515,13.78906 1.673,7.08396 2.6677,12.79887 2.4239,13.91602 -0.5901,2.70475 -2.1079,3.78896 -4.0547,2.89453 -1.9821,-0.91061 -7.02,-10.8115 -9.3125,-18.30274 -3.7469,-12.24351 -11.0065,-29.86853 -13.5117,-32.80273 -0.4981,-0.58336 -2.2514,-3.60553 -3.8946,-6.7168 -3.4091,-6.45511 -7.3688,-11.28494 -19.1894,-23.39843 l -8.3418,-8.54883 0,-5.0625 c 0,-2.78491 -0.2736,-5.06445 -0.6074,-5.06445 -0.3339,-10e-6 -2.1017,2.35922 -3.9278,5.24218 -2.6459,4.17733 -3.8898,5.46895 -6.125,6.36328 -1.5426,0.61722 -3.17,1.12305 -3.6172,1.12305 -0.4472,0 -2.9059,0.94653 -5.4648,2.10352 -2.559,1.15699 -9.108,3.21749 -14.5527,4.58007 -11.5967,2.90213 -17.873,5.32224 -19.6934,7.59375 -0.7192,0.89747 -2.9584,4.01873 -4.9766,6.93555 -4.4325,6.40631 -8.9302,9.65718 -17.1445,12.38672 -3.2081,1.06601 -5.9995,2.37177 -6.2031,2.90234 -0.3846,1.00212 2.112,3.78787 3.4258,3.82227 0.4128,0.0108 2.0016,0.96518 3.5293,2.12109 2.0421,1.54515 3.5526,2.10157 5.705,2.10157 6.3688,0 9.5797,1.65608 16.1094,8.30273 3.3468,3.40668 7.0379,7.51487 8.2012,9.12891 1.1633,1.61403 2.4616,3.14859 2.8848,3.41015 0.8492,0.52491 5.3788,6.40328 9.2304,11.98047 2.8922,4.18809 6.0731,11.59383 8.832,20.55664 1.952,6.34139 1.9724,6.37203 9.1211,13.43559 4.7802,4.7232 7.9145,8.5011 9.4161,11.3535 2.8973,5.5036 6.1572,14.37 7.2675,19.7675 0.4801,2.3335 1.3095,5.0937 1.8438,6.1348 1.2512,2.4381 4.4501,17.8205 4.4121,21.2169 -0.016,1.432 0.3529,3.8179 0.8203,5.3027 1.4167,4.4999 5.8024,13.1624 7.9121,15.6289 2.5743,3.0096 2.5359,4.8557 -0.1308,6.3731 -2.388,1.3588 -2.5664,2.0289 -1.0996,4.123 0.5641,0.8056 1.5513,3.5555 2.1933,6.1113 1.8181,7.238 4.8215,9.4335 7.9629,5.8203 1.78,-2.0471 2.4567,-2.1701 3.9199,-0.707 0.872,0.872 1.0046,2.7322 0.7403,10.4102 -0.3096,8.9944 -0.3946,9.4233 -2.2364,11.3457 -2.3097,2.4107 -11.0039,6.8808 -13.3828,6.8808 -2.4802,0 -4.7555,-1.3565 -11.8906,-7.0918 -8.9115,-7.1631 -9.4246,-7.3331 -19.3867,-6.4023 -4.505,0.421 -13.1869,1.0893 -19.293,1.4844 -12.5191,0.81 -15.3587,0.4377 -22.2578,-2.9102 -2.4035,-1.1663 -5.9048,-2.3805 -7.7793,-2.6992 -1.8746,-0.3186 -5.9533,-1.2327 -9.0645,-2.0313 -7.1777,-1.8424 -19.2035,-2.5909 -24.3964,-1.5175 -7.5435,1.5594 -17.5588,4.0213 -25.8086,6.3437 -7.404,2.0843 -18.1221,1.919 -29.3457,-0.4531 -4.8614,-1.0275 -10.2695,-2.4302 -12.0195,-3.1172 -8.0398,-3.1558 -20.1024,-3.7672 -29.0665,-1.4746 -2.8882,0.7387 -9.2667,2.0118 -14.1738,2.8301 -4.9071,0.8183 -10.1528,1.9196 -11.6562,2.4472 -1.5035,0.5276 -4.6431,1.1908 -6.9766,1.4747 -2.3335,0.2837 -8.5368,1.334 -13.78711,2.3339 -8.58876,1.636 -11.01346,1.8024 -24.18164,1.6621 -15.10548,-0.161 -21.84387,0.6778 -25.86914,3.2168 -3.49061,2.2017 -0.0742,3.5528 11.39258,4.5079 4.73247,0.3942 11.46857,1.3318 14.96875,2.082 3.50018,0.7502 11.93237,1.8737 18.73828,2.4961 6.80588,0.6223 14.60188,1.5854 17.32418,2.1406 7.2975,1.4882 43.6591,5.8542 55.6075,6.6777 8.2802,0.5708 11.8171,0.5087 17.6777,-0.3164 4.0295,-0.5673 10.0301,-1.3921 13.3359,-1.832 3.3057,-0.4398 6.9331,-1.0853 8.0606,-1.4355 3.0663,-0.9524 12.048,-0.7678 18.5859,0.3828 9.5345,1.678 26.8881,2.0707 36.2852,0.8203 8.0672,-1.0735 15.4233,-2.7868 20.8613,-4.8594 5.8519,-2.2303 16.3821,-5.3711 19.5683,-5.8359 4.9276,-0.7189 7.6297,0.4614 10.1329,4.4257 7.579,12.0025 10.418,17.694 10.375,20.7969 -0.049,3.5237 -0.8925,4.9392 -6.4493,10.8242 -6.3241,6.6976 -15.0735,18.2696 -21.6777,28.67 -0.8643,1.3612 -2.7433,5.0717 -4.1777,8.2461 -1.7948,3.9718 -3.4148,6.4156 -5.1914,7.8359 -3.4013,2.719 -20.1761,10.7871 -22.4278,10.7871 -2.0961,0 -9.7362,-3.1127 -12.5547,-5.1152 -1.0977,-0.7798 -3.4641,-1.86 -5.2597,-2.4004 -1.7957,-0.5404 -3.9427,-1.4277 -4.7715,-1.9707 -1.4555,-0.9537 -11.2815,-4.4237 -16.8477,-5.9512 -2.2078,-0.6059 -2.6427,-0.5663 -2.3437,0.2129 0.2898,0.755 -0.5588,0.6909 -4.0196,-0.2988 -3.9767,-1.137 -7.5588,-1.235 -38.3144,-1.0469 -36.0381,0.2204 -43.1128,0.7729 -49.1054,3.8301 -1.4828,0.7565 -4.9299,1.8408 -7.6602,2.4101 -2.7303,0.5693 -5.8865,1.5109 -7.0137,2.0938 -1.1271,0.5829 -4.7072,1.4241 -7.957,1.8691 -3.2498,0.4449 -7.94806,1.5759 -10.43946,2.5137 -4.17121,1.57 -5.89407,2.3745 -13.97657,6.5156 -1.55564,0.797 -7.96456,4.028 -14.24023,7.1797 -6.27567,3.1518 -11.7758,6.1705 -12.22266,6.709 -0.44685,0.5384 -1.88158,1.1805 -3.18945,1.4258 -1.30788,0.2454 -3.12653,1.0163 -4.04102,1.7129 -0.91451,0.6966 -2.69697,1.6804 -3.96093,2.1875 -1.26395,0.5071 -2.29883,1.1659 -2.29883,1.4648 0,0.2989 -1.46509,1.2335 -3.25781,2.0762 -1.7927,0.8427 -4.4594,2.2891 -5.92579,3.2148 -1.46637,0.9257 -4.66215,2.5241 -7.10156,3.5508 -9.21295,3.8777 -30.02898,3.6723 -41.64453,-0.4102 -2.14052,-0.7524 -4.79021,-1.3671 -5.88867,-1.3671 -1.09847,0 -3.33724,-0.6785 -4.97461,-1.5059 -3.1283,-1.5808 -31.91894,-29.3192 -33.66602,-32.4356 -0.54505,-0.9723 -3.21594,-4.1535 -5.93359,-7.0703 -2.71765,-2.9168 -5.7668,-6.4181 -6.77539,-7.7793 -2.28895,-3.0891 -8.63497,-10.8742 -11.48242,-14.0859 -1.17924,-1.3302 -3.11038,-4.3523 -4.29297,-6.7168 -1.18261,-2.3646 -2.56353,-4.7761 -3.06836,-5.3594 -1.29741,-1.4993 -3.36242,-9.0091 -2.75,-10 0.31054,-0.5024 0.20327,-0.6364 -0.27344,-0.3418 -1.71536,1.0601 -2.35806,-5.1251 -1.85547,-17.8574 l 0.49414,-12.5234 -2.12304,-1.7852 c -3.15919,-2.6583 -14.42836,-5.5762 -21.53907,-5.5762 -3.86709,0 -8.02635,1.6028 -9.03125,3.4805 -0.40064,0.7486 -1.06262,2.9241 -1.47265,4.8359 -0.56761,2.6468 -1.49337,4.2096 -3.87695,6.5489 -2.84029,2.7875 -3.5139,3.1017 -7.26563,3.373 -9.51868,0.6885 -16.89221,-2.9792 -18.57813,-9.2402 -0.42516,-1.5789 -0.76425,-7.8287 -0.75195,-13.8887 0.0175,-8.6101 0.33874,-12.3326 1.46875,-17.0293 0.79536,-3.3057 1.44817,-7.3095 1.45117,-8.8965 0.003,-1.6551 0.74866,-4.352 1.74805,-6.3261 0.95823,-1.8927 1.94569,-4.4124 2.19531,-5.5996 0.57164,-2.7188 3.84484,-8.1782 7.6543,-12.7657 1.61475,-1.9445 3.82017,-4.7291 4.90039,-6.1875 2.22354,-3.0019 3.39591,-3.2681 5.42774,-1.2363 1.12972,1.1297 1.41769,2.3725 1.43359,6.1856 0.0109,2.625 0.57393,6.4455 1.25195,8.4882 1.5403,4.6405 6.27274,10.7813 8.3086,10.7813 0.82602,0 2.71755,-1.3259 4.28906,-3.0059 1.54616,-1.6528 4.02453,-3.9583 5.50586,-5.125 4.27327,-3.3657 8.11934,-7.3238 9.97265,-10.2597 1.82933,-2.8978 10.01481,-10.1833 13.63086,-12.1329 2.14343,-1.1556 5.10352,-5.8041 5.10352,-8.0137 0,-0.9828 1.52587,-4.2243 3.49609,-7.4258 0.35901,-0.5833 2.62034,-4.7189 5.02344,-9.1914 5.2272,-9.7284 11.56795,-17.1566 18.63281,-21.8262 4.27719,-2.827 5.12369,-3.7423 6.17383,-6.6796 0.66923,-1.872 3.93596,-7.4867 7.25977,-12.4766 4.68708,-7.03652 7.55819,-10.46511 12.79492,-15.28125 3.7136,-3.41533 7.49123,-6.71197 8.39453,-7.32422 5.35751,-3.63129 6.65573,-4.28901 8.45312,-4.29101 3.62484,-0.005 4.72443,1.10886 4.73633,4.79492 0.0182,5.59595 2.06705,6.68743 4.67188,2.48828 1.013,-1.63302 7.08869,-7.78815 19.93945,-20.19726 0.90293,-0.8719 3.76798,-3.78655 6.36524,-6.47657 2.59724,-2.69003 6.47232,-6.39833 8.61132,-8.24023 7.99535,-6.8848 14.84987,-13.77622 14.84961,-14.93164 -3.4e-4,-1.4635 -1.88931,-1.75192 -17.32812,-2.64063 -6.22395,-0.35827 -14.33803,-1.13836 -18.03125,-1.73437 -3.69322,-0.59601 -10.05513,-1.57983 -14.13867,-2.18555 -4.08354,-0.60572 -9.01639,-1.71743 -10.96094,-2.4707 -1.94454,-0.75328 -4.34462,-1.53454 -5.33399,-1.73633 -4.85964,-0.99113 -11.38642,-8.66027 -15.39843,-18.0918 -2.33714,-5.4942 -2.9183,-8.17243 -2.9375,-13.52539 -0.0111,-3.08324 -0.34828,-4.96036 -0.98438,-5.48828 -1.07842,-0.89502 -1.8631,-0.19646 -4.33594,3.85938 -1.49073,2.44504 -12.40558,15.17255 -16.6289,19.39062 -7.5841,7.57468 -19.68726,17.41303 -24.68164,20.0625 -7.80018,4.13791 -11.77328,6.60773 -16.90625,10.50781 -2.46208,1.87071 -5.48619,3.91468 -6.71875,4.54297 -2.31457,1.17984 -3.53311,2.22475 -16.16407,13.85938 -7.96273,7.33461 -7.29929,6.29558 -12.96289,20.33008 -1.02013,2.5279 -2.64364,7.07196 -3.60547,10.09765 -1.14024,3.58701 -2.02328,5.33169 -2.54101,5.01172 -0.5252,-0.32459 -0.63581,-0.0756 -0.32422,0.73633 0.91906,2.39502 -2.55989,13.53929 -3.95703,12.67579 -0.38505,-0.238 -0.54411,0.01 -0.35547,0.5488 0.59553,1.7056 -1.31838,6.7884 -4.38281,11.6406 -1.62691,2.5761 -3.57473,6.0048 -4.32813,7.6192 -1.48501,3.1821 -2.78535,5.3833 -7.41406,12.5488 -4.97339,7.699 -9.2121,8.1948 -10.00391,1.1699 -0.36377,-3.2273 0.75601,-6.5574 1.95508,-5.8164 0.36496,0.2256 0.48605,-0.051 0.26953,-0.6152 -0.21651,-0.5642 -0.005,-1.2667 0.47071,-1.5606 0.59984,-0.3707 0.68687,-0.23 0.28711,0.459 -0.32939,0.5678 -0.30825,0.7478 0.0488,0.4219 0.3435,-0.3135 0.69565,-1.6639 0.78125,-3.002 0.0856,-1.338 1.81886,-5.8551 3.85157,-10.0371 l 3.69531,-7.6035 0.63281,-9.5449 c 0.34808,-5.25025 1.37567,-12.72809 2.28321,-16.61718 0.90754,-3.88908 1.84622,-8.43006 2.08593,-10.08985 0.23972,-1.65979 2.18768,-6.59068 4.33008,-10.95898 6.14338,-12.52614 9.63427,-17.93817 11.01953,-17.08203 0.33248,0.20548 0.43176,-0.0797 0.21875,-0.63477 -0.21302,-0.55511 0.46595,-1.92502 1.50977,-3.04297 1.04382,-1.11794 1.61949,-1.53919 1.27929,-0.9375 -0.34021,0.60169 -0.0633,0.48748 0.61524,-0.25195 0.67851,-0.73943 1.0568,-1.63137 0.83984,-1.98242 -0.53512,-0.86583 2.39529,-4.88677 3.41211,-4.68164 0.44656,0.0901 0.85786,-0.31313 0.91406,-0.89649 0.0562,-0.58336 0.15164,-1.4951 0.21094,-2.02539 0.0592,-0.53029 5.27789,-6.21955 11.59766,-12.64453 6.31976,-6.42498 12.12646,-12.34777 12.9043,-13.16015 1.97761,-2.0655 7.40896,-9.86442 7.41796,-10.65235 0.004,-0.35829 0.45185,-1.15359 0.9961,-1.76758 2.03779,-2.2989 5.19018,-8.31713 15.21094,-29.04687 2.34999,-4.86136 4.89977,-9.95132 5.66601,-11.3125 2.66745,-4.73847 5.71094,-11.26248 5.71094,-12.24023 0,-0.54138 0.79531,-2.48195 1.76758,-4.31055 0.97227,-1.82858 1.76757,-3.73953 1.76757,-4.24805 0,-0.50851 0.76394,-2.05044 1.69727,-3.42578 0.93334,-1.37535 1.93136,-3.24891 2.2168,-4.16406 0.7352,-2.35723 4.93661,-10.74164 9.10742,-18.36719 1.58588,-0.0874 1.83872,-0.19703 1.88281,-0.33594 0.11728,-0.36951 0.8156,-1.60272 1.55078,-2.74023 0.73518,-1.13752 2.12071,-3.48961 3.08008,-5.22656 2.25768,-4.08769 3.63628,-5.50391 5.35352,-5.50391 1.54556,0 2.57822,0.83694 2.57812,2.08789 -1.1e-4,1.82947 -1.07455,6.47134 -1.91406,8.26953 -0.47259,1.01229 -0.91081,2.23848 -0.97461,2.72461 -0.10035,0.7649 0.0323,0.86698 1.76172,0.95117 0.13212,0.32879 0.34411,0.5103 0.65625,0.40625 0.174,-0.058 0.36852,-0.19028 0.56054,-0.34765 l 1.97266,0.0801 1.65625,-3.46289 c 0.9111,-1.90412 2.01886,-4.50396 2.46094,-5.77929 1.00395,-2.89633 1.57037,-3.99493 4.00781,-7.75782 1.07105,-1.65351 2.46904,-4.11928 3.10547,-5.48046 0.63643,-1.36118 1.5752,-3.0323 2.08789,-3.7129 2.05407,-2.72663 7.17298,-10.49845 8.83789,-13.41992 3.60254,-6.32147 5.98248,-10.12945 7.2168,-11.54687 0.69767,-0.80113 2.00346,-2.31319 2.90234,-3.35938 0.89887,-1.0462 2.48949,-2.39479 3.53516,-2.99804 1.04567,-0.60325 3.01577,-1.75063 4.37695,-2.54883 1.36118,-0.79821 3.35043,-1.80273 4.41992,-2.23242 4.39669,-1.76646 5.80682,-4.00306 6.33008,-10.0293 0.17978,-2.07053 1.05342,-7.61226 1.94141,-12.31445 1.86609,-9.88137 2.17508,-13.30218 2.70117,-29.93946 0.4413,-13.95579 1.1569,-25.58895 1.93359,-31.4707 0.53305,-4.03705 1.33738,-19.42327 1.0586,-20.24609 -0.0803,-0.23698 -0.31477,-3.92101 -0.52149,-8.18555 -0.47839,-9.86868 -1.36408,-13.48666 -3.75976,-15.37109 -1.35983,-1.06967 -3.74725,-0.98563 -6.15625,0.21484 -3.30824,1.64856 -9.17338,7.91993 -15.56446,16.64453 -2.93658,4.0088 -3.99939,5.19341 -5.16601,5.75977 -0.98603,0.47888 -1.78209,0.63519 -2.42188,0.47461 -1.52646,-0.38312 -3.19237,-2.36047 -4.24023,-5.03125 -1.38282,-3.52461 -1.19617,-6.32983 0.59765,-8.97071 0.70114,-1.0322 1.71034,-2.75081 2.24219,-3.82031 0.53188,-1.0695 1.40003,-2.58155 1.92969,-3.35938 0.52969,-0.7778 1.18346,-2.02581 1.45117,-2.77343 0.26771,-0.74762 0.98626,-1.94395 1.59766,-2.65821 1.51455,-1.76942 7.18454,-10.61892 7.42969,-11.5957 0.24367,-0.97092 -0.0731,-1.5352 -0.86133,-1.5332 -0.71969,0.002 -10.5296,7.40312 -14.05664,10.60547 -0.74961,0.68059 -2.50075,2.27119 -3.89258,3.53515 -1.39183,1.26395 -4.55571,4.12901 -7.03125,6.36524 -2.47555,2.23622 -5.34868,5.17788 -6.38477,6.53906 -2.65773,3.49171 -9.35945,10.65659 -10.99414,11.75391 -0.75519,0.50695 -2.05076,1.51318 -2.88086,2.23632 -1.91796,1.67077 -8.31148,4.95951 -13.08007,6.72852 -2.02589,0.75154 -4.42397,1.90656 -5.33008,2.56641 -0.90612,0.65986 -2.36519,1.55957 -3.24024,2 -0.87504,0.44043 -3.33951,2.10126 -5.47851,3.6914 -4.67023,3.47186 -10.30112,7.08954 -17.14844,11.01953 -1.26396,0.72544 -3.00039,1.79448 -3.85938,2.375 -0.859,0.58052 -2.83462,1.59181 -4.39062,2.24805 -1.55601,0.65624 -3.47886,1.67102 -4.27149,2.25391 -0.79261,0.5829 -2.47539,1.3758 -3.74023,1.76367 -1.26483,0.38787 -3.21106,1.2664 -4.32617,1.95117 -2.83873,1.74318 -12.87501,5.70018 -15.70703,6.19336 -3.22482,0.56158 -6.85632,0.21929 -8.58594,-0.81055 -2.0454,-1.21786 -5.32951,-3.75286 -6.80469,-5.25195 -1.64149,-1.66809 -7.20205,-4.69554 -11,-5.98828 -3.40898,-1.16035 -10.36437,-4.28433 -12.41797,-5.57813 -2.45354,-1.54577 -7.2471,-5.72253 -7.80468,-6.80078 -0.74256,-1.43595 -0.6669,-3.83834 0.16406,-5.20117 0.94182,-1.54465 2.72279,-2.36742 6.92578,-3.20312 2.10027,-0.41761 4.4615,-1.16587 5.77344,-1.82813 1.22084,-0.61628 3.49139,-1.59054 5.04687,-2.16406 1.55547,-0.57352 3.49152,-1.42942 4.30274,-1.90235 0.81122,-0.47293 3.70342,-1.79974 6.42578,-2.94921 4.39949,-1.85763 5.30261,-2.11495 8.13086,-2.31446 2.83425,-0.19993 3.53098,-0.39873 6.36523,-1.81836 1.75009,-0.87659 4.61319,-2.09013 6.36328,-2.69726 1.75009,-0.60713 3.8179,-1.42959 4.59571,-1.82813 1.7692,-0.90649 5.29373,-2.2191 13.49218,-5.02539 3.53101,-1.20865 7.11087,-2.60229 7.95508,-3.0957 0.84421,-0.4934 2.72715,-1.24579 4.18555,-1.67383 1.45841,-0.42805 3.87034,-1.39576 5.35937,-2.14844 1.48904,-0.75269 4.19308,-1.95184 6.00977,-2.66601 1.81669,-0.71416 4.09107,-1.69403 5.05469,-2.17774 1.56749,-0.78683 1.97867,-0.84884 3.89062,-0.58203 4.9914,0.69654 10.87305,-0.0868 14.79883,-1.9707 4.09447,-1.96483 10.64343,-7.54408 13.49805,-11.5 0.56127,-0.77782 1.52212,-1.97175 2.13476,-2.65235 1.54549,-1.71697 5.41919,-7.45684 7.03906,-10.42968 4.37497,-8.02921 6.50872,-12.1842 6.89844,-13.4336 0.24265,-0.77782 2.01334,-4.6315 3.9336,-8.5625 1.92025,-3.931 3.83535,-8.22565 4.25586,-9.54492 0.42055,-1.31927 1.38095,-3.96012 2.13476,-5.86719 0.75381,-1.90708 1.70519,-5.24735 2.11524,-7.42382 0.41002,-2.17646 1.35829,-6.02678 2.10546,-8.55469 0.74716,-2.5279 1.68536,-6.02725 2.08594,-7.77734 0.40058,-1.7501 1.10763,-4.37558 1.57227,-5.83399 0.46464,-1.45841 1.25144,-4.11202 1.74804,-5.89844 0.49657,-1.78641 1.55587,-4.77559 2.35352,-6.64257 1.66821,-3.90457 1.64972,-4.5985 -0.19141,-7.00977 -1.79276,-2.34789 -2.82202,-2.69703 -7.79492,-2.64063 -4.7939,0.0544 -6.29244,-0.37396 -12.23242,-3.50586 -3.18194,-1.67769 -3.6097,-2.07047 -10.57227,-9.64453 -2.83864,-3.08794 -4.4814,-2.89985 -5.23437,0.59961 -1.03184,4.79584 -5.75205,11.6213 -11.96289,17.29297 -2.48799,2.27203 -4.00449,3.30698 -7.18555,4.90235 -2.21745,1.11209 -4.9336,2.65676 -6.03515,3.43359 -1.3998,0.98717 -3.05398,1.71195 -5.49415,2.4082 -1.92023,0.5479 -4.65962,1.41173 -6.08789,1.91992 -1.61591,0.57496 -4.01915,1.06276 -6.36328,1.28907 -2.07191,0.20003 -4.92647,0.59076 -6.34179,0.86914 -1.41532,0.27838 -3.56168,0.50967 -4.77149,0.51367 -1.20982,0.004 -4.50853,0.24609 -7.32812,0.53906 -7.42282,0.77128 -16.65581,0.70337 -23.33399,-0.17187 -3.01404,-0.39501 -8.50263,-0.87786 -12.19726,-1.07227 -10.00327,-0.52635 -12.1926,-0.72188 -14.19336,-1.27344 -3.00876,-0.82943 -7.71106,-3.16653 -9.8086,-4.875 -3.03719,-2.47382 -3.48751,-2.54243 -13.62304,-2.02343 -4.82243,0.24699 -10.50172,0.34516 -12.61914,0.21679 -3.404,-0.20636 -3.99211,-0.15435 -5.07618,0.44532 -2.01923,1.11698 -2.66543,2.28304 -2.64843,4.78515 0.0182,2.67552 0.61304,3.87267 3.12695,6.30469 2.47089,2.39042 10.5254,7.10565 14.13281,8.27344 1.545,0.50014 3.85959,1.43363 5.14258,2.07422 2.48,1.23823 9.29174,3.50271 12.23242,4.0664 0.97228,0.18637 2.47713,0.59292 3.34571,0.90235 0.86858,0.30944 3.57457,0.87872 6.01171,1.26562 2.43714,0.38689 5.78269,1.09127 7.43555,1.56641 4.38654,1.26099 11.27409,1.67216 28.99219,1.72656 11.70829,0.0359 16.20534,-0.0735 18.83789,-0.45899 2.31402,-0.33885 3.76954,-0.39763 4.40039,-0.17578 2.2661,0.79695 3.02783,4.82251 1.51758,8.01954 -0.94649,2.0036 -2.37993,3.29474 -4.20117,3.78515 -3.31018,0.89134 -10.0603,2.13567 -11.60547,2.13867 -1.91874,0.004 -4.58478,1.10342 -6.41016,2.64453 -0.64556,0.54502 -2.03873,2.16061 -3.0957,3.58985 -2.37313,3.20895 -3.91112,4.34656 -7.85352,5.80469 -2.85256,1.05506 -3.53696,1.15891 -9.26758,1.41796 -3.40295,0.15383 -8.97205,0.44524 -12.375,0.64649 -11.85682,0.70119 -28.96146,0.36253 -35.7207,-0.70703 -3.34571,-0.52941 -5.49951,-0.21592 -7.46484,1.08789 -1.65878,1.10044 -3.6556,3.53398 -4.85157,5.91015 -0.41035,0.81532 -1.46579,2.08284 -2.3457,2.81836 -0.87992,0.73552 -2.00413,1.94607 -2.49609,2.68946 -1.26178,1.90669 -6.83951,7.49924 -8.10938,8.13086 -2.53774,1.26223 -9.1617,3.09781 -12.44531,3.44921 -1.90546,0.20391 -3.70246,0.45781 -3.99414,0.5625 -0.29168,0.1047 -3.95204,0.3307 -8.13281,0.50391 -10.09998,0.41845 -12.4491,0.14223 -19.44531,-2.28711 -14.66747,-5.09308 -21.24301,-8.14359 -27.21876,-12.62695 -5.31083,-3.98451 -7.80426,-6.46021 -10.61132,-10.53516 -1.26395,-1.83485 -3.90021,-4.93753 -5.85938,-6.89453 -2.11922,-2.11689 -4.36772,-4.80522 -5.55078,-6.63672 -2.75588,-4.26638 -6.02585,-6.42826 -8.70117,-5.75586 -0.73913,0.18577 -12.26388,0.64885 -13.65235,0.54883 -4.69455,-0.33822 -24.69603,-0.37549 -29.04687,-0.0547 -3.08077,0.22715 -11.0116,0.55176 -17.62305,0.72266 -6.61145,0.17091 -12.2591,0.39804 -12.55078,0.50391 -0.29168,0.10586 -3.15479,0.44034 -6.36328,0.74414 -3.2085,0.3038 -8.37896,1.03907 -11.49023,1.63281 -3.11127,0.59373 -7.09978,1.13713 -8.86329,1.20703 -1.76349,0.0699 -3.63296,0.23244 -4.15429,0.36328 l -0.94922,0.23828 0,5.17774 c -3.8e-4,0.0519 -3.4e-4,0.10362 0,0.15625 l 0,2.6289 0,7.96485 1.27734,1.20312 c 2.70778,2.55382 4.98952,3.18518 9.56641,2.64649 1.71766,-0.20217 5.90759,-0.54057 9.31055,-0.75196 3.40295,-0.21139 8.89153,-0.65792 12.19726,-0.99218 4.92865,-0.49841 9.6058,-0.60666 25.98633,-0.59766 18.92343,0.0104 20.03377,0.0467 21.09375,0.67773 1.21041,0.72059 1.88672,1.86164 1.88672,3.18555 0,1.09564 -1.73894,2.54104 -3.64063,3.02734 -1.55426,0.39746 -1.9888,0.54175 -5.24414,1.72266 -1.09465,0.3971 -3.23427,0.97867 -4.75586,1.29297 -1.52159,0.31429 -3.79792,1.03972 -5.05859,1.61133 -1.26067,0.57162 -4.53138,1.57865 -7.26758,2.23828 -2.73621,0.65963 -6.16629,1.66884 -7.62305,2.24219 -1.45674,0.57335 -3.52426,1.32053 -4.59374,1.66211 -1.06951,0.34158 -3.05875,1.225 -4.41993,1.96289 -1.36118,0.7379 -3.41127,1.61132 -4.55664,1.9414 -1.96873,0.56737 -11.09624,5.04754 -12.23633,6.00586 -0.29168,0.24518 -1.4051,0.88181 -2.4746,1.41407 -1.06951,0.53227 -2.67435,1.49844 -3.56641,2.14843 -0.89206,0.65 -2.38246,1.50842 -3.31055,1.90625 -2.30085,0.98626 -8.53068,5.11759 -8.80859,5.8418 -0.47729,1.2438 -0.2151,2.6931 0.64258,3.55078 0.82215,0.82212 1.74513,1.03955 3.70703,0.87305 1.12008,-0.0951 8.62714,-2.90435 11.24609,-4.20899 1.11891,-0.55739 3.22715,-1.29566 4.68555,-1.63867 1.45841,-0.343 3.70306,-1.1477 4.98828,-1.78906 1.28523,-0.64136 3.79475,-1.58516 5.57617,-2.09766 1.78143,-0.5125 4.53067,-1.4036 6.11133,-1.98047 1.58067,-0.57687 5.03887,-1.59623 7.68359,-2.26367 2.64472,-0.66744 5.68746,-1.52253 6.76172,-1.90234 1.07426,-0.3798 3.69975,-0.94098 5.83399,-1.2461 2.13424,-0.30513 5.15895,-0.78393 6.72265,-1.06445 1.5637,-0.28052 5.065,-0.55924 7.7793,-0.61914 5.49309,-0.12129 6.00677,0.0226 8.6582,2.41797 1.59281,1.439 2.07705,3.08976 1.39258,4.74219 -0.65701,1.58616 -1.9661,2.06562 -6.70898,2.45312 -3.55232,0.29023 -4.75741,0.54923 -7.17188,1.54492 -1.59626,0.65827 -4.09629,1.38728 -5.55469,1.61914 -3.67855,0.58482 -4.57687,0.9081 -7.13476,2.56446 -1.22926,0.79601 -3.18874,1.87694 -4.35547,2.40234 -1.16673,0.52541 -2.66039,1.41643 -3.32031,1.98047 -1.16724,0.99766 -2.52162,1.8928 -8.59766,5.68359 -1.61242,1.00597 -3.40883,2.33657 -3.99219,2.95704 -0.58336,0.62046 -2.89072,2.39047 -5.12695,3.93359 -7.05098,4.86553 -8.90532,6.37119 -13.20703,10.72461 -3.66186,3.70589 -4.38951,4.64637 -5.74609,7.42578 -1.69503,3.4728 -1.98865,4.78306 -2.60938,11.66602 -0.43112,4.78041 -0.22551,7.39142 0.88867,11.31445 0.55479,1.95342 2.11463,14.10148 2.45117,19.09179 0.25912,3.84238 1.41265,11.61349 2.33594,15.73243 0.65243,2.91058 0.84072,4.20496 1.92969,13.25781 0.28069,2.33346 0.91921,5.75425 1.41797,7.60156 0.49875,1.84732 1.0689,4.39425 1.26758,5.6582 0.92913,5.91092 1.42006,8.12326 2.26953,10.25196 0.50439,1.26396 1.38578,4.12012 1.95898,6.3457 0.57321,2.22559 1.50762,5.01013 2.07813,6.1875 0.5705,1.17736 1.4453,3.27554 1.94336,4.66406 0.49807,1.38852 1.45505,3.43694 2.12695,4.55274 0.6719,1.1158 1.47241,2.78502 1.7793,3.70898 0.40799,1.22835 1.60755,2.85692 4.46093,6.05469 2.14632,2.40535 5.50967,6.20127 7.47266,8.4375 1.96298,2.23622 7.92343,8.40229 13.24609,13.70117 l 9.67774,9.63477 2.53906,0 c 1.8539,1.67549 3.55944,3.14657 5.08008,4.37109 11.03685,8.88762 30.62514,26.68512 27.2832,24.78906 -1.08465,-0.61538 -1.12264,-0.0631 -0.12305,1.80469 0.41874,0.78241 1.18122,1.26097 1.69336,1.06445 0.51213,-0.19652 1.61393,0.37064 2.44922,1.25977 1.68561,1.79425 7.11719,12.05825 7.11719,13.44922 0,0.48685 0.77946,2.34812 1.73047,4.13672 0.95101,1.78859 1.93891,4.46163 2.19726,5.93945 0.25833,1.47783 1.20666,4.27811 2.10547,6.22266 0.89881,1.94454 2.25281,5.44389 3.00977,7.77734 0.75695,2.33345 1.71519,5.19656 2.1289,6.36328 2.17442,6.13201 5.01271,15.93151 5.40235,18.65235 0.24376,1.70218 1.0375,4.88341 1.76367,7.07031 0.72617,2.1869 1.72352,7.4759 2.2168,11.7539 0.49329,4.278 1.33235,8.66159 1.86523,9.74024 0.53287,1.07865 1.30525,5.53236 1.7168,9.89844 0.41154,4.36607 1.33598,10.6435 2.05469,13.94922 0.7187,3.30572 1.6604,8.64862 2.09179,11.87304 0.43139,3.22443 1.37243,8.63447 2.0918,12.02149 0.71938,3.38702 1.5215,8.06694 1.78125,10.40039 0.25976,2.33345 1.21954,7.10725 2.13281,10.60742 0.91326,3.50022 1.87333,8.24222 2.13477,10.53902 0.26144,2.2969 1.052,5.9784 1.75586,8.1817 0.70385,2.2032 1.50546,6.2116 1.78125,8.9062 0.27578,2.6947 1.24193,8.0076 2.14843,11.8067 0.9065,3.799 1.85795,9.209 2.11329,12.0215 0.25534,2.8124 1.07696,7.1599 1.82617,9.6621 0.74922,2.5022 1.69804,7.7533 2.10937,11.668 0.41134,3.9148 1.34509,9.5031 2.07422,12.4199 0.72913,2.9168 1.64307,8.6582 2.03125,12.7578 1.49476,15.7864 6.94007,42.9871 10.61133,53.0039 0.78396,2.139 1.43652,4.9148 1.44922,6.1699 0.0127,1.2551 0.7727,4.2793 1.68945,6.7188 0.91677,2.4396 2.03461,6.5541 2.48438,9.1445 0.44975,2.5904 1.32531,5.9243 1.94531,7.4082 0.61999,1.4839 1.38097,4.4835 1.68945,6.666 0.30848,2.1824 1.21756,5.4131 2.02149,7.1778 0.80394,1.7647 1.67558,4.5995 1.9375,6.3008 0.26192,1.7013 1.21373,4.5656 2.11328,6.3652 0.89955,1.7997 2.01325,4.8218 2.47656,6.7168 0.46331,1.895 1.23622,4.2425 1.7168,5.2148 0.48058,0.9723 1.10748,3.1991 1.39453,4.9492 0.28704,1.75 1.14696,4.4144 1.91016,5.92 0.76319,1.5056 2.1835,5.0049 3.15624,7.7773 4.21379,12.0094 4.87698,13.726 5.66016,14.6641 0.45487,0.5449 1.0622,1.929 1.34961,3.0742 0.72564,2.8911 5.47071,12.6817 8.41211,17.3555 1.34614,2.139 3.11786,5.1122 3.93555,6.6093 3.22946,5.9126 13.15874,14.548 21.32422,18.545 2.21542,1.0845 3.88625,2.1991 3.71484,2.4765 -0.38818,0.628 1.72573,1.4913 2.49219,1.0176 0.78926,-0.4878 5.03635,1.0731 4.64453,1.707 -0.17688,0.2863 0.58241,0.5215 1.68945,0.5215 2.65323,0 6.50785,1.6256 5.95899,2.5137 -0.26911,0.4354 0.16944,0.5091 1.1582,0.1953 1.15586,-0.3668 1.44794,-0.2702 1.0625,0.3535 -0.37691,0.6098 -0.11807,0.7283 0.89648,0.4063 1.94089,-0.616 7.25254,1.5534 6.78516,2.7715 -0.21272,0.5543 0.31071,1.1322 1.28125,1.4121 0.90317,0.2604 2.23946,0.6405 2.96875,0.8457 0.85545,0.2408 1.15395,0.095 0.8418,-0.4102 -0.84828,-1.3725 2.46411,-0.8667 6.24609,0.9531 1.9834,0.9544 6.31146,2.8778 9.61719,4.2735 7.32457,3.0926 13.75532,6.4117 16.68359,8.6113 1.20344,0.9039 2.41607,1.6445 2.69336,1.6445 1.09674,0 10.17913,6.7299 13.70313,10.1543 2.16309,2.1019 4.80399,5.715 6.27343,8.5821 1.39566,2.7231 2.95254,5.4283 3.46094,6.0117 0.5084,0.5834 1.58869,2.4921 2.40039,4.2422 1.49794,3.2297 2.48808,4.7498 8.0957,12.4316 1.72631,2.3647 3.60646,5.4179 4.17774,6.7852 0.57127,1.3672 2.1561,4.075 3.52148,6.0175 1.36539,1.9426 3.30193,5.254 4.30469,7.3575 2.56537,5.3815 13.20882,15.7154 18.125,17.5996 1.36118,0.5217 3.11086,1.486 3.88867,2.1425 0.77782,0.6566 3.48187,2.4144 6.00977,3.9063 2.52791,1.4919 6.00311,3.6088 7.72265,4.7031 1.71954,1.0943 3.42379,1.9903 3.78711,1.9903 0.36332,0 1.59491,0.7855 2.73633,1.7461 3.45293,2.9053 15.20425,6.0988 24.97852,6.789 29.6053,2.0901 38.64147,2.3492 52.51953,1.502 28.77162,-1.7564 34.56879,-2.3135 41.54687,-3.9864 3.88911,-0.9324 10.09251,-1.9054 13.78711,-2.1621 3.6946,-0.2567 9.7409,-1.0911 13.4356,-1.8554 3.6946,-0.7643 9.2664,-1.825 12.3828,-2.3575 3.1163,-0.5324 6.4585,-1.3107 7.4257,-1.7285 0.9673,-0.4178 4.6229,-1.3876 8.1231,-2.1562 3.5002,-0.7686 7.084,-1.6061 7.9648,-1.8614 1.1849,-0.3434 1.5058,-0.2131 1.2344,0.5039 -0.2783,0.7354 0.4857,0.9861 3.168,1.0411 1.9446,0.039 6.1631,0.9045 9.373,1.9238 8.1657,2.593 24.0455,7.2075 29.5235,8.5781 2.5279,0.6324 6.3473,1.6234 8.4863,2.2031 4.7634,1.2911 8.4638,1.0253 27.0332,-1.9453 11.2287,-1.7962 14.2986,-2.0732 15.7324,-1.4199 3.2107,1.4629 2.1077,2.8444 -5.1133,6.4063 -3.7918,1.8704 -8.326,4.2171 -10.0761,5.2148 -1.7501,0.9976 -5.5676,2.467 -8.4844,3.2656 -16.6859,4.5687 -24.8729,8.3386 -20.7227,9.541 2.6466,0.7666 14.2535,-0.3848 20.7227,-2.0546 5.7721,-1.4899 15.6421,-4.7519 31.0273,-10.2579 3.7323,-1.3357 12.7089,-6.4305 19.3575,-10.9863 8.3828,-5.744 11.362,-9.6263 17.955,-23.3926 2.0816,-4.3464 3.7852,-8.088 3.7852,-8.3144 0,-0.2265 1.7283,-3.9894 3.8418,-8.3613 4.448,-9.2014 11.3403,-24.8174 12.0898,-27.3946 0.2828,-0.9722 1.1184,-2.9649 1.8574,-4.4297 1.4695,-2.9122 6.0103,-17.7428 9.0665,-29.6093 1.8215,-7.0724 1.968,-8.7907 2.4277,-28.6387 0.5327,-22.9947 1.1007,-27.6517 5.8457,-47.8535 1.3871,-5.9053 3.2476,-13.9196 4.1328,-17.8086 1.9587,-8.6053 3.1296,-11.8495 9.1914,-25.4551 2.5991,-5.8336 5.5139,-12.5162 6.4785,-14.8496 0.9645,-2.3335 2.3498,-5.5147 3.0762,-7.0703 2.0719,-4.4368 5.4216,-12.5504 5.9863,-14.4961 0.2822,-0.9723 1.08,-2.7219 1.7715,-3.8887 0.6916,-1.1667 1.4863,-3.2364 1.7676,-4.5976 0.2813,-1.3611 0.9434,-3.2699 1.4707,-4.2422 3.1851,-5.8732 11.643,-30.947 14.5488,-43.1328 1.1592,-4.8614 2.7202,-11.3848 3.4688,-14.4961 1.7687,-7.3503 3.9925,-18.2442 4.5468,-22.2735 0.4536,-3.2971 1.468,-8.9006 5.6348,-31.1133 1.3497,-7.1948 2.6533,-14.9908 2.8965,-17.3242 0.2432,-2.3335 0.8944,-6.0576 1.4473,-8.2754 0.5529,-2.2178 1.6387,-8.1607 2.4121,-13.207 0.7735,-5.0464 1.5556,-9.59537 1.7383,-10.10941 1.1012,-3.09957 4.1201,-33.30307 6.3847,-63.86719 0.5764,-7.77818 1.6562,-17.48286 2.3985,-21.5664 0.7423,-4.08354 1.6547,-9.65264 2.0293,-12.375 0.7741,-5.62687 2.3254,-13.60069 4.7441,-24.39453 0.915,-4.08354 1.8776,-9.29286 2.1387,-11.57618 0.2611,-2.28332 0.9371,-5.46182 1.5019,-7.0625 0.6648,-1.88422 0.7691,-2.99497 0.2969,-3.15234 -0.055,-0.0184 -0.1035,-0.0439 -0.1465,-0.0723 1.9963,-0.412 2.1563,-1.06096 2.1563,-2.08593 0,-1.53937 1.5149,-7.42464 3.3671,-13.08008 1.8522,-5.65558 6.3575,-19.82883 10.0118,-31.49609 3.6542,-11.66726 7.2864,-22.80036 8.0722,-24.74024 0.7859,-1.93988 2.933,-7.98616 4.7715,-13.43555 5.1394,-15.23368 7.248,-20.8116 11.0078,-29.12109 11.8922,-26.28244 15.2135,-40.3532 15.2285,-64.54297 0.01,-11.1237 0.5667,-28.58319 1.2442,-38.79883 1.2491,-18.83566 0.7963,-23.4694 -5.7051,-58.46484 -1.6781,-9.03302 -3.7469,-29.02798 -5.3809,-51.98828 -0.7064,-9.9258 -2.0165,-18.92717 -2.9101,-20.00391 -0.8937,-1.07674 -3.7663,-2.35875 -6.3828,-2.84961 -6.2407,-1.17075 -7.5131,-2.93004 -10.3985,-14.36328 -1.3308,-5.27288 -3.1427,-9.82061 -4.0253,-10.10547 -0.8827,-0.28486 -3.5072,3.54743 -5.8321,8.51563 -5.081,10.85794 -9.3266,15.04071 -21.8711,21.55078 l -9.5097,4.93555 -24.4317,0.33398 -24.4316,0.33594 -19.5449,-9.74805 -19.5469,-9.75 -7.3242,1.53711 c -4.0283,0.84492 -11.4599,1.96395 -16.5157,2.48633 -10.3265,1.06694 -14.1425,2.58453 -14.1425,5.625 0,2.40002 0.307,2.44767 13.4355,2.14453 9.1314,-0.21085 10.4967,0.16169 17.6035,4.7832 7.3529,4.78147 21.7386,10.8488 30.1817,12.73047 2.1705,0.48371 10.7567,1.52581 19.08,2.31446 16.3854,1.55251 20.062,3.0919 24.4121,10.22656 4.0341,6.61583 3.6153,12.83351 -1.121,16.60351 -3.7178,2.95923 -4.7317,3.05317 -22.9825,2.14844 -33.977,-1.6843 -38.8471,-1.09211 -44.2265,5.37891 -2.5388,3.05385 -9.5137,17.02195 -9.5137,19.05273 0,0.60711 -2.0441,3.19593 -4.543,5.75195 -5.1076,5.22414 -8.8063,5.34429 -18.8925,0.61524 -4.2907,-2.01173 -6.4285,-4.37533 -9.3887,-10.38281 -6.8284,-13.8579 -12.0411,-25.99192 -14.584,-33.94141 -1.3684,-4.278 -3.3853,-10.25633 -4.4805,-13.28516 -1.0952,-3.02884 -3.287,-10.66573 -4.8711,-16.9707 -6.4041,-25.48907 -8.0936,-31.79759 -11.7773,-43.99023 -10.4218,-34.49451 -10.5993,-35.49453 -7.4219,-41.71875 0.9927,-1.94455 2.6561,-6.40021 3.6953,-9.90039 2.1494,-7.23946 9.3025,-26.88357 12.1016,-33.23243 1.0287,-2.33345 3.2768,-8.30044 4.9941,-13.25781 4.897,-14.13567 15.9618,-31.5102 24.5059,-38.48047 4.5277,-3.69371 21.0684,-12.55249 34.1973,-18.31445 3.8891,-1.70683 10.2535,-4.55981 14.1425,-6.33984 17.1294,-7.84009 55.2723,-18.96664 79.7129,-23.25391 l 17.4883,-3.06836 13.8242,-10.57031 c 19.7861,-15.12621 26.3442,-16.53369 36.6699,-7.875 3.5503,2.97707 12.0239,8.43729 18.8301,12.13476 10.8254,5.88105 12.4902,6.42037 13.3028,4.30274 0.5109,-1.33138 -0.073,-4.40567 -1.2969,-6.83203 -1.2239,-2.42635 -3.3413,-7.59334 -4.707,-11.48243 -1.3658,-3.88908 -2.9441,-7.7085 -3.5059,-8.48632 -2.4588,-3.40444 -13.8684,-33.35918 -15.8906,-41.71875 -2.4789,-10.24763 -4.6896,-27.13072 -5.9258,-45.25391 -0.4509,-6.61145 -1.4182,-15.20271 -2.1484,-19.0918 -0.7306,-3.88909 -2.6422,-24.1972 -4.2481,-45.128905 -1.6059,-20.93169 -3.2212,-38.546148 -3.5898,-39.142578 -0.3686,-0.596431 -1.6166,-7.652698 -2.7735,-15.681641 -4.0331,-27.989875 -4.9432,-33.862556 -7.1465,-46.111328 -1.2197,-6.780942 -3.0995,-17.591635 -4.1777,-24.023438 -2.0317,-12.118492 -3.268,-16.828852 -11.5879,-44.166012 -13.3946,-44.011488 -31.2054,-74.328628 -61.8633,-105.302738 -15.3724,-15.53105 -34.7198,-32.95474 -40.8496,-36.78711 -2.4532,-1.53371 -5.0952,-3.4838 -5.873,-4.33398 -1.7733,-1.93823 -21.8305,-15.03047 -36.7715,-24.00391 -23.1775,-13.9202 -22.5424,-12.8965 -24.8125,-40.0625 -1.27,-15.1966 -1.8876,-17.41549 -11.8145,-42.42578 -15.5677,-39.22157 -20.6484,-52.38216 -20.6484,-53.49219 0,-1.14113 -3.5168,-8.9246 -11.4355,-25.30664 -3.9473,-8.16623 -8.1275,-14.02835 -14.754,-20.6875 -9.6729,-9.72053 -10.9154,-10.2992 -29.6718,-13.84375 -4.6669,-0.88193 -9.7569,-2.2017 -11.3125,-2.93359 -3.6427,-1.7138 -41.4525,-11.24414 -44.6094,-11.24414 -1.3194,0 -5.642,-2.58293 -9.6074,-5.74024 -7.4602,-5.93986 -20.21528,-12.62614 -41.6426,-21.82812 -13.60141,-5.84114 -9.40203,-1.91445 -52.26953,-48.85156 -8.1959,-8.97398 -17.35853,-17.93305 -20.36133,-19.90821 -14.01115,-9.21614 -17.37623,-11.16468 -25.96485,-15.03515 -13.88459,-6.25712 -16.86551,-7.13323 -27.08007,-7.95508 -5.1718,-0.41612 -14.53745,-2.06631 -20.81055,-3.66797 -6.27308,-1.60167 -18.26876,-3.457 -26.6582,-4.12305 -8.38944,-0.66605 -19.07138,-2.29644 -23.73829,-3.62304 -22.00072,-6.25383 -58.65296,-10.52114 -88.46875,-10.5918 z m 256.90039,138.05859 c 0.2599,-0.009 0.54245,-0.006 0.84766,0.008 2.21971,0.10328 5.64668,0.81912 10.41797,2.03906 6.17149,1.57796 19.85922,6.90171 30.41602,11.83008 10.55681,4.92836 23.07411,10.53705 27.81831,12.46484 4.7443,1.92777 11.3816,5.3898 14.7481,7.69141 3.3665,2.30162 13.1217,7.85724 21.6777,12.34765 21.304,11.18089 25.2364,14.10058 39.9785,29.67774 14.0386,14.83361 19.2686,23.94186 30.4824,53.07226 1.9462,5.05581 6.1397,15.78264 9.3184,23.83789 3.1787,8.05525 5.7793,15.82973 5.7793,17.27539 0,5.09517 -4.3769,5.53364 -13.5684,1.35938 -4.7404,-2.15282 -12.0591,-4.73197 -16.2636,-5.73047 -12.3917,-2.94284 -27.1275,-8.33988 -31.6856,-11.60547 -6.3743,-4.56689 -9.6046,-9.37145 -21.8808,-32.53906 -3.6001,-6.79397 -10.1822,-16.95482 -14.625,-22.57813 -13.5505,-17.15108 -41.1103,-44.09608 -58.0547,-56.75976 -8.83233,-6.60098 -18.53468,-15.08154 -21.56055,-18.8457 -3.02587,-3.76415 -5.83514,-7.16188 -6.24414,-7.55079 -0.40901,-0.38891 -2.79688,-3.34517 -5.30469,-6.56835 -5.03445,-6.47063 -6.19524,-9.28637 -2.29688,-9.42579 z m 401.14256,1000.5 c 0.6205,-0.0244 1.1805,0.0726 1.709,0.27539 4.1155,1.57925 3.9486,4.98923 -0.5117,10.4004 -2.4083,2.92157 -4.3789,6.0353 -4.3789,6.91992 0,2.7879 -5.7567,9.06054 -8.3145,9.06054 -1.3481,0 -4.6065,1.59062 -7.2422,3.53516 -5.4863,4.04765 -8.0952,4.18316 -16.959,0.875 -7.2344,-2.70007 -9.0512,-6.55312 -4.0039,-8.49219 9.7845,-3.75901 19.6367,-9.16654 25.9121,-14.22265 7.28,-5.86554 11.1005,-8.24567 13.7891,-8.35157 z"
         style="color:#000000;clip-rule:nonzero;display:inline;overflow:visible;visibility:visible;opacity:1;isolation:auto;mix-blend-mode:normal;color-interpolation:sRGB;color-interpolation-filters:linearRGB;solid-color:#000000;solid-opacity:1;fill:#ffffff;fill-opacity:1;fill-rule:evenodd;stroke:none;stroke-width:11;stroke-linecap:round;stroke-linejoin:round;stroke-miterlimit:4;stroke-dasharray:none;stroke-dashoffset:0;stroke-opacity:1;color-rendering:auto;image-rendering:auto;shape-rendering:auto;text-rendering:auto;enable-background:accumulate"
         sodipodi:nodetypes="csccssssssssssssssssssssssscsssssssssssssssssssssssssssssssssssssssssssssssssssssssssssssssssssscccsssscccsssssssssssssssssssssssssssssssscsssssscsssscccssssscsccccccssscsccsccsccsscccscsscscscccsccccscssscsccsccssssccssscsccsscsccscsscsccscsccsssccsssscscscsssscscscccsccccccscssccccccsssssccsscsccsccccccsscscsssccsscscsscsccssssssssccssssssssssscsssssssssscccsssscscccsccsssssssccscscsccsssssssccsscscsccscccssscscsssssssccscsscsssccscscssssscssssssscssssssssssssssssscssssssssssscscscssscssssscssssssssssssscsssssssssssscsscssssssscsssscsssssssssscssscccccccssssssssssssssssssssccssssssssscsssssssssssssssssssssssssssssccsscsssscsssssssssssssssssssssssssssssscsssssccscccscscccscccccccssssscccsscsssccscsscsscccsccssscccssssscccsssssccsccsscsssscccsccscccssscsscssscsccscccccccsssssscsscscsscsssssccssscccssssccsccsssscssscssssssssssssssssssccccsssssssssssssssssscccccssssssc" />
      <path
         inkscape:connector-curvature="0"
         id="path4198"
         d="m 691.48199,377.86152 c -1.17791,-0.6173 -3.06161,-2.54795 -4.38951,-4.49891 -0.66896,-0.98284 -1.79289,-2.44534 -2.49762,-3.25 -0.70474,-0.80467 -1.79997,-2.19428 -2.43386,-3.08803 -2.4378,-3.4372 -4.20755,-5.51332 -10.33572,-12.125 -1.52934,-1.65 -3.85892,-4.29375 -5.17686,-5.875 -1.31794,-1.58125 -3.23444,-3.6625 -4.2589,-4.625 -1.02445,-0.9625 -2.66025,-2.55166 -3.63509,-3.53148 -0.97484,-0.97981 -2.44744,-2.29966 -3.27244,-2.933 -0.825,-0.63334 -2.4,-1.88826 -3.5,-2.78872 -1.1,-0.90046 -2.73125,-1.99483 -3.625,-2.43194 -3.18827,-1.5593 -4.25,-2.54295 -4.25,-3.9374 0,-0.89127 0.92771,-2.39633 2.1287,-3.45349 2.22572,-1.95916 5.84956,-2.83298 16.3511,-3.94277 1.84515,-0.19499 5.1639,-0.70428 7.375,-1.13175 3.88473,-0.75104 4.33532,-0.78358 13.37176,-0.9657 5.14335,-0.10366 9.70225,-0.10938 10.13088,-0.0127 2.37205,0.53499 3.22311,2.11722 1.92986,3.58788 -0.52982,0.6025 -5.37575,3.94743 -6.68597,4.61503 -2.77084,1.41183 -4.01636,5.09835 -2.20414,6.52384 1.39895,1.10042 6.41595,0.89182 11.10281,-0.46165 2.81156,-0.81192 5.05905,-0.97331 6.52519,-0.46859 1.46808,0.50539 2.54966,1.37767 4.82703,3.89289 3.18704,3.5199 5.93835,6.31845 6.51906,6.631 1.72359,0.92765 4.15569,0.59652 7.85592,-1.0696 2.24707,-1.0118 5.43944,-1.78838 9.1478,-2.22529 1.13215,-0.13338 3.29461,-0.0808 6.125,0.14889 4.85808,0.39427 6.05177,0.33365 11.125,-0.56505 2.88565,-0.51118 3.91457,-0.81849 5.86185,-1.75079 2.89864,-1.38777 5.33067,-1.82195 7.78712,-1.39019 2.13382,0.37505 8.13383,3.42252 10.45786,5.31165 0.94798,0.77058 2.3805,1.76962 3.18338,2.22008 0.80288,0.45047 2.36064,1.67624 3.46168,2.72394 2.49638,2.37546 4.97286,4.08425 8.50462,5.86828 1.50892,0.76221 3.92474,2.12505 5.36849,3.02851 1.44375,0.90347 3.4125,2.03826 4.375,2.52175 2.74819,1.38051 3.625,2.33007 3.625,3.9258 0,1.23918 -0.57756,2.08989 -1.66178,2.44772 -1.19776,0.3953 -2.25346,0.14664 -5.32954,-1.25532 -1.44852,-0.66019 -3.30868,-1.33272 -4.13368,-1.49451 -0.825,-0.1618 -2.56875,-0.65263 -3.875,-1.09074 -2.34809,-0.78754 -2.42459,-0.79592 -6.75,-0.73912 -4.64424,0.061 -7.18504,0.30136 -11.625,1.09976 -1.5125,0.27198 -3.35151,0.59687 -4.08669,0.72198 -0.73518,0.12511 -1.52357,0.28678 -1.75197,0.35928 -0.2284,0.0725 -1.98939,0.2985 -3.91331,0.50225 -4.53984,0.48079 -10.07277,1.46336 -13.37303,2.37487 -3.18876,0.88071 -4.3575,1.11158 -8.92882,1.76376 -4.02312,0.57397 -9.18458,1.8432 -12.76255,3.13837 -1.44681,0.52372 -3.73087,1.08429 -5.67718,1.39333 -1.79105,0.28438 -4.6627,0.94389 -6.38145,1.46557 -1.71875,0.52168 -5.0375,1.42162 -7.375,1.99986 -2.3375,0.57824 -5.65199,1.54572 -7.36552,2.14994 -3.32246,1.17155 -4.65976,1.32734 -5.88448,0.68552 z"
         style="color:#000000;clip-rule:nonzero;display:inline;overflow:visible;visibility:visible;opacity:1;isolation:auto;mix-blend-mode:normal;color-interpolation:sRGB;color-interpolation-filters:linearRGB;solid-color:#000000;solid-opacity:1;fill:#ffffff;fill-opacity:1;fill-rule:evenodd;stroke:none;stroke-width:11;stroke-linecap:round;stroke-linejoin:round;stroke-miterlimit:4;stroke-dasharray:none;stroke-dashoffset:0;stroke-opacity:1;color-rendering:auto;image-rendering:auto;shape-rendering:auto;text-rendering:auto;enable-background:accumulate" />
      <path
         inkscape:connector-curvature="0"
         id="path4200"
         d="m 816.10444,465.96208 c -1.39263,-0.94782 -1.74216,-1.65434 -2.13922,-4.32415 -0.20353,-1.36859 -0.5924,-3.30523 -0.86415,-4.30364 -0.88904,-3.26639 -0.5814,-4.79962 1.28589,-6.40862 2.40744,-2.07444 4.77411,-2.83455 6.77228,-2.1751 2.02924,0.66971 2.49049,2.06221 2.03473,6.14284 -0.16931,1.51589 -0.31439,3.56626 -0.32241,4.55637 -0.0277,3.42713 -0.76024,5.3373 -2.49499,6.50635 -1.15986,0.78163 -3.12839,0.78437 -4.27213,0.006 z"
         style="color:#000000;clip-rule:nonzero;display:inline;overflow:visible;visibility:visible;opacity:1;isolation:auto;mix-blend-mode:normal;color-interpolation:sRGB;color-interpolation-filters:linearRGB;solid-color:#000000;solid-opacity:1;fill:#ffffff;fill-opacity:1;fill-rule:evenodd;stroke:none;stroke-width:11;stroke-linecap:round;stroke-linejoin:round;stroke-miterlimit:4;stroke-dasharray:none;stroke-dashoffset:0;stroke-opacity:1;color-rendering:auto;image-rendering:auto;shape-rendering:auto;text-rendering:auto;enable-background:accumulate" />
      <path
         inkscape:connector-curvature="0"
         id="path4202"
         d="m 880.29978,471.65224 c -2.56029,-0.71815 -3.45671,-1.15249 -5.82082,-2.82038 -2.3333,-1.64616 -3.61301,-2.96951 -7.18714,-7.43228 -3.35712,-4.19179 -3.79377,-4.98541 -3.61511,-6.57052 0.23833,-2.11446 2.11442,-3.05222 4.22597,-2.11232 1.16602,0.51902 1.9927,1.36514 5.07931,5.19879 3.80521,4.72617 6.22616,6.87776 10.9548,9.73594 2.5841,1.56194 2.97252,2.53221 1.54906,3.86948 -0.88931,0.83546 -2.52771,0.87694 -5.18607,0.13129 z"
         style="color:#000000;clip-rule:nonzero;display:inline;overflow:visible;visibility:visible;opacity:1;isolation:auto;mix-blend-mode:normal;color-interpolation:sRGB;color-interpolation-filters:linearRGB;solid-color:#000000;solid-opacity:1;fill:#ffffff;fill-opacity:1;fill-rule:evenodd;stroke:none;stroke-width:11;stroke-linecap:round;stroke-linejoin:round;stroke-miterlimit:4;stroke-dasharray:none;stroke-dashoffset:0;stroke-opacity:1;color-rendering:auto;image-rendering:auto;shape-rendering:auto;text-rendering:auto;enable-background:accumulate" />
      <path
         inkscape:connector-curvature="0"
         id="path4204"
         d="m 242.23985,301.26388 c 0,-1.61932 6.30362,-13.02256 11.30446,-20.44976 23.09265,-34.29691 28.13304,-44.23573 33.74793,-66.54541 5.29081,-21.02203 6.82093,-30.08214 9.42112,-55.78406 2.7213,-26.89904 7.33264,-66.541564 9.13006,-78.488854 0.76062,-5.055813 2.08732,-14.601755 2.94821,-21.213203 1.82127,-13.986974 8.18319,-35.234935 15.66707,-52.325902 9.74038,-22.244167 22.56386,-45.901383 29.51331,-54.447223 9.25738,-11.38393 43.53986,-45.3106 44.65697,-44.19348 0.89271,0.89271 -15.69388,23.54033 -23.04881,31.47123 -7.79154,8.4017 -24.44588,31.308289 -24.44588,33.623165 0,0.49221 -1.79069,3.945814 -3.97931,7.674677 -2.18862,3.728861 -6.07781,11.870917 -8.64264,18.093456 -2.56484,6.22254 -5.78339,13.859293 -7.15235,16.970563 -3.37117,7.661759 -9.36629,26.694685 -11.13647,35.355339 -0.7949,3.889087 -1.79505,26.799347 -2.22256,50.911692 -1.30346,73.51798 -3.02675,102.22375 -7.03473,117.18138 -6.27648,23.42355 -12.37041,32.91431 -29.81077,46.42766 -10.14593,7.8614 -26.38965,23.56184 -32.35466,31.27254 -3.5861,4.6356 -6.56095,6.66065 -6.56095,4.46619 z"
         style="color:#000000;clip-rule:nonzero;display:inline;overflow:visible;visibility:visible;opacity:1;isolation:auto;mix-blend-mode:normal;color-interpolation:sRGB;color-interpolation-filters:linearRGB;solid-color:#000000;solid-opacity:1;fill:#ffffff;fill-opacity:1;fill-rule:evenodd;stroke:none;stroke-width:11;stroke-linecap:round;stroke-linejoin:round;stroke-miterlimit:4;stroke-dasharray:none;stroke-dashoffset:0;stroke-opacity:1;color-rendering:auto;image-rendering:auto;shape-rendering:auto;text-rendering:auto;enable-background:accumulate" />
      <path
         inkscape:connector-curvature="0"
         id="path4206"
         d="m 129.10276,508.07228 c 0,-1.01445 1.90919,-4.85493 4.24264,-8.5344 2.33345,-3.67947 4.24264,-7.08374 4.24264,-7.56504 0,-0.4813 1.64848,-4.35967 3.66328,-8.61861 2.0148,-4.25894 5.23166,-13.86628 7.14858,-21.34966 3.32851,-12.99397 3.41755,-14.43713 1.97909,-32.07611 -1.52261,-18.67094 0.0112,-35.61991 4.22665,-46.70757 3.21487,-8.45575 14.65077,-23.28056 30.99601,-40.18137 23.32696,-24.11983 31.19383,-34.68928 44.40296,-59.65714 13.4998,-25.51729 17.80337,-32.94427 19.39748,-33.47564 2.01852,-0.67284 1.70081,0.64719 -3.35433,13.93682 -1.92314,5.05581 -6.51763,14.60176 -10.20997,21.2132 -7.80215,13.9704 -11.012,21.04263 -15.65777,34.49854 -4.56545,13.22331 -8.96344,20.40825 -22.16591,36.21214 -22.59343,27.04526 -26.57108,35.33486 -29.17935,60.81119 -3.46072,33.80256 -5.50152,40.96098 -16.53032,57.98275 -3.27578,5.05582 -7.94084,13.41976 -10.36679,18.58653 -6.25159,13.31457 -12.83489,20.96961 -12.83489,14.92437 z"
         style="color:#000000;clip-rule:nonzero;display:inline;overflow:visible;visibility:visible;opacity:1;isolation:auto;mix-blend-mode:normal;color-interpolation:sRGB;color-interpolation-filters:linearRGB;solid-color:#000000;solid-opacity:1;fill:#ffffff;fill-opacity:1;fill-rule:evenodd;stroke:none;stroke-width:11;stroke-linecap:round;stroke-linejoin:round;stroke-miterlimit:4;stroke-dasharray:none;stroke-dashoffset:0;stroke-opacity:1;color-rendering:auto;image-rendering:auto;shape-rendering:auto;text-rendering:auto;enable-background:accumulate" />
      <path
         inkscape:connector-curvature="0"
         id="path4208"
         d="m 139.00226,318.9375 c 0,-0.81102 2.70468,-5.00907 6.0104,-9.32897 12.17203,-15.90635 13.78859,-19.00888 13.78859,-26.46337 0,-3.8501 1.03053,-15.55259 2.29008,-26.00557 1.86819,-15.5041 1.99814,-21.28183 0.70539,-31.36216 -1.18109,-9.20964 -1.17206,-14.4114 0.0354,-20.42407 1.41606,-7.05109 2.56262,-8.92868 9.10194,-14.90525 4.11499,-3.76086 10.54615,-8.61782 14.29147,-10.79325 16.43129,-9.54389 31.99868,-23.94179 45.90281,-42.45441 4.06001,-5.40567 8.22099,-10.33742 9.24664,-10.95943 1.02565,-0.62202 1.86482,-2.04236 1.86482,-3.15633 0,-1.11397 2.54558,-7.53531 5.65685,-14.26964 3.11127,-6.73433 5.65685,-12.818176 5.65685,-13.519652 0,-3.443009 30.40082,-64.710636 36.92396,-74.413915 2.24853,-3.344719 4.08824,-6.644106 4.08824,-7.331974 0,-2.187477 16.52462,-22.139025 20.94089,-25.283697 9.00845,-6.414577 8.06707,-3.076074 -5.32875,18.897986 -20.49169,33.613876 -25.54452,44.850264 -37.52098,83.4386 -3.62111,11.667262 -7.43615,23.122392 -8.47786,25.455842 -1.04171,2.33345 -2.94574,7.89016 -4.23119,12.34824 -1.28544,4.45806 -2.85968,8.42851 -3.49831,8.8232 -0.63863,0.3947 -1.55553,2.8199 -2.03756,5.38934 -0.48203,2.56945 -5.00895,11.55222 -10.05982,19.96172 -5.05086,8.4095 -9.18339,15.53489 -9.18339,15.83421 0,0.29932 -3.02288,4.43346 -6.71752,9.187 -20.23154,26.03 -39.95153,57.836 -39.95153,64.4371 0,1.68697 1.17027,6.82733 2.60061,11.423 1.56089,5.01517 2.17371,9.50978 1.53282,11.24228 -0.58729,1.58758 -6.58232,8.68133 -13.3223,15.76389 -9.64782,10.13822 -14.26057,13.81715 -21.68536,17.29538 -5.18697,2.42989 -10.90888,6.26985 -12.71534,8.53324 -3.33081,4.17332 -5.90791,5.32521 -5.90791,2.64066 z M 182.652,237.755 c 2.43844,-6.4194 4.43352,-12.0692 4.43352,-12.55512 0,-3.51009 16.25543,-33.57255 19.63341,-36.30964 0.47998,-0.38891 4.36315,-4.84368 8.62927,-9.89949 4.26612,-5.05582 8.4906,-9.82879 9.38774,-10.6066 3.94384,-3.41932 13.53851,-19.49172 16.78537,-28.11783 5.79875,-15.40585 4.75461,-15.04552 -8.49841,2.93274 -3.55008,4.81584 -12.95181,14.61379 -20.89274,21.77327 -20.03335,18.06188 -27.72693,28.09601 -30.80872,40.18137 -7.94102,31.14107 -11.52113,48.55135 -10.36753,50.41791 1.71038,2.76746 6.85613,-5.0697 11.69809,-17.81661 z"
         style="color:#000000;clip-rule:nonzero;display:inline;overflow:visible;visibility:visible;opacity:1;isolation:auto;mix-blend-mode:normal;color-interpolation:sRGB;color-interpolation-filters:linearRGB;solid-color:#000000;solid-opacity:1;fill:#ffffff;fill-opacity:1;fill-rule:evenodd;stroke:none;stroke-width:11;stroke-linecap:round;stroke-linejoin:round;stroke-miterlimit:4;stroke-dasharray:none;stroke-dashoffset:0;stroke-opacity:1;color-rendering:auto;image-rendering:auto;shape-rendering:auto;text-rendering:auto;enable-background:accumulate" />
      <path
         inkscape:connector-curvature="0"
         id="path4210"
         d="m 472.76734,-92.090772 c 0.0174,-18.029318 2.2737,-28.244528 8.74929,-39.612078 8.87278,-15.57569 25.66863,-31.54608 33.1766,-31.54608 3.38196,0 2.04901,3.43854 -4.95262,12.77609 -15.18577,20.25211 -26.22966,44.15855 -28.32322,61.310588 -0.80311,6.57969 -1.23266,7.27088 -4.77165,7.67808 l -3.88908,0.44749 0.0107,-11.05409 z"
         style="color:#000000;clip-rule:nonzero;display:inline;overflow:visible;visibility:visible;opacity:1;isolation:auto;mix-blend-mode:normal;color-interpolation:sRGB;color-interpolation-filters:linearRGB;solid-color:#000000;solid-opacity:1;fill:#ffffff;fill-opacity:1;fill-rule:evenodd;stroke:none;stroke-width:11;stroke-linecap:round;stroke-linejoin:round;stroke-miterlimit:4;stroke-dasharray:none;stroke-dashoffset:0;stroke-opacity:1;color-rendering:auto;image-rendering:auto;shape-rendering:auto;text-rendering:auto;enable-background:accumulate" />
      <path
         sodipodi:nodetypes="ssssccccscssssssssssscssscsscsccsssscsssccsssssssssscsss"
         inkscape:connector-curvature="0"
         id="path4212"
         d="m 1187.6988,-270.73 c -2.6316,0 0.068,6.4856 4.5625,10.96094 5.5573,5.53333 23.7394,18.34124 31.7481,22.36328 18.2274,9.15398 68.6745,48.70916 92.9043,72.8457 26.4166,26.31496 49.3959,53.19961 54.3066,63.53711 0.5542,1.166728 2.2568,4.029828 3.7832,6.363278 1.5263,2.33346 4.4643,7.42537 6.5293,11.31446 2.0651,3.88909 4.9688,8.79201 6.4531,10.89648 5.0711,7.19015 16.9775,35.594996 22.3633,53.351564 1.7529,5.779368 4.9674,14.370629 7.1445,19.091797 3.632,7.875954 6.6932,16.545471 17.7617,50.302734 4.6383,14.146265 5.3299,30.074507 1.6563,38.183594 -6.2334,13.759523 -11.2877,29.247033 -14.5391,44.548823 -5.764,27.12741 -7.0146,36.04014 -7.374,37.0861 -0.3593,1.04595 -0.6236,1.11549 -0.9228,1.23031 -1.2058,0.46274 -2.9581,-1.81055 -4.9317,-6.39843 -2.3365,-5.43133 -3.2719,-11.25477 -3.9472,-24.57813 -0.823,-16.23845 -0.6017,-18.53957 3.1621,-32.90625 6.8534,-26.160322 5.3339,-50.891852 -4.9883,-81.207033 -2.2512,-6.611449 -4.7394,-14.248342 -5.5293,-16.970703 -2.1634,-7.456008 -11.972,-34.598903 -19.8184,-54.843746 -3.8347,-9.894 -7.3309,-19.10171 -7.7695,-20.46289 -0.4385,-1.36118 -1.5421,-2.47657 -2.4531,-2.47657 -3.165,0 -0.2158,14.75901 7.6562,38.318362 8.3553,25.005422 12.7458,41.4902 15.2188,57.142579 0.8602,5.444722 2.1177,13.081616 2.7968,16.970703 0.679,3.889088 1.9254,14.251546 2.7696,23.029297 1.3884,14.437193 1.2386,17.540313 -1.5703,32.527343 -4.4139,23.550788 -4.6305,26.486308 -2.9063,39.166018 0.8482,6.23864 2.2574,17.06995 3.1328,24.07031 2.1465,17.1638 5.0958,28.36481 9.4043,35.7168 4.1268,7.04175 6.4035,7.11127 7.6543,0.23047 0.4832,-2.65848 1.9005,-9.53591 3.1504,-15.28125 1.1163,-5.13102 1.2339,-8.38869 1.5703,-10.22656 0.2584,-1.41204 1.2477,-2.43309 1.5371,-2.73438 1.1971,-1.24631 4.0595,-7.71727 5.6231,-12.0332 1.6736,-4.61964 3.8438,-10.30913 4.8222,-12.64258 0.9785,-2.33346 2.241,-11.04797 2.8047,-19.36719 0.9224,-13.6112 1.4763,-15.8524 5.5274,-22.36914 2.476,-3.98308 4.5019,-7.757778 4.5019,-8.388673 0,-0.630895 0.8973,-1.892363 1.9942,-2.802734 2.7914,-2.316624 4.233,-25.252781 2.3183,-36.875 -0.833,-5.055814 -2.0855,-13.965197 -2.7832,-19.798828 -1.2826,-10.723968 -4.834,-26.626119 -7.1074,-31.820313 -3.5883,-8.198267 -18.4648,-47.524104 -18.4648,-48.812504 0,-3.2902 -6.3372,-13.62724 -12.0821,-19.70898 -11.3577,-12.02338 -15.0912,-17.72677 -24.8984,-38.027338 -9.0999,-18.83624 -10.6656,-21.15344 -21.9746,-32.52539 -6.6973,-6.73467 -16.4763,-17.97425 -21.7305,-24.97461 -11.0405,-14.70955 -17.6995,-21.26035 -32.4492,-31.92774 -11.2967,-8.17003 -13.4494,-9.81796 -20.3555,-15.57422 -2.4169,-2.01448 -9.4239,-6.69386 -15.5703,-10.39843 -6.1464,-3.70456 -11.8746,-7.32907 -12.7285,-8.05469 -1.4167,-1.2038 -9.7725,-6.82691 -30.3613,-20.42774 -4.1778,-2.75986 -11.7189,-8.17698 -16.7578,-12.03906 -8.0931,-6.20303 -18.669,-12.59375 -20.8438,-12.59375 z"
         style="color:#000000;clip-rule:nonzero;display:inline;overflow:visible;visibility:visible;opacity:1;isolation:auto;mix-blend-mode:normal;color-interpolation:sRGB;color-interpolation-filters:linearRGB;solid-color:#000000;solid-opacity:1;fill:#ffffff;fill-opacity:1;fill-rule:evenodd;stroke:none;stroke-width:11;stroke-linecap:round;stroke-linejoin:round;stroke-miterlimit:4;stroke-dasharray:none;stroke-dashoffset:0;stroke-opacity:1;color-rendering:auto;image-rendering:auto;shape-rendering:auto;text-rendering:auto;enable-background:accumulate" />
      <path
         inkscape:connector-curvature="0"
         id="path4216"
         d="m 1377.541,400.79031 c -0.4139,-1.0695 -1.2211,-4.17193 -1.7938,-6.89429 -1.3869,-6.59267 -3.6083,-9.8357 -13.1122,-19.14277 -8.9852,-8.79914 -11.0857,-10.25216 -17.3161,-11.97871 -4.3784,-1.21333 -7.2955,-3.14708 -7.2955,-4.83622 0,-0.49545 0.875,-1.71047 1.9445,-2.70003 3.0387,-2.8116 16.9576,-12.06653 22.6036,-15.02952 2.8534,-1.49744 5.2948,-3.28314 5.5385,-4.05095 0.9596,-3.02331 -2.6078,-4.30469 -7.3662,-2.6459 -4.8728,1.69868 -8.0992,-1.41626 -4.9448,-4.77401 2.6403,-2.81051 5.6378,-4.28167 9.7869,-4.80347 2.1309,-0.26799 4.9947,-1.07432 6.3639,-1.79185 1.3693,-0.71752 6.5287,-3.26323 11.4655,-5.65713 7.5167,-3.645 9.2122,-4.22606 10.4298,-3.57442 1.7945,0.96037 1.7954,1.43875 0.022,11.0218 -1.7823,9.63036 -3.2562,21.22932 -3.8138,30.01165 -0.5498,8.65925 -3.3575,23.72737 -5.5998,30.05204 -0.9652,2.72236 -2.142,7.33623 -2.6152,10.25305 -1.3929,8.58646 -2.7225,10.61021 -4.2973,6.54073 z"
         style="color:#000000;clip-rule:nonzero;display:inline;overflow:visible;visibility:visible;opacity:1;isolation:auto;mix-blend-mode:normal;color-interpolation:sRGB;color-interpolation-filters:linearRGB;solid-color:#000000;solid-opacity:1;fill:#ffffff;fill-opacity:1;fill-rule:evenodd;stroke:none;stroke-width:11;stroke-linecap:round;stroke-linejoin:round;stroke-miterlimit:4;stroke-dasharray:none;stroke-dashoffset:0;stroke-opacity:1;color-rendering:auto;image-rendering:auto;shape-rendering:auto;text-rendering:auto;enable-background:accumulate" />
      <path
         inkscape:connector-curvature="0"
         id="path4218"
         d="m 1232.6645,434.02323 c -3.8154,-1.906 -3.5664,-3.58859 1.2012,-8.1149 11.0983,-10.53673 17.8564,-15.37555 29.968,-21.45715 8.0226,-4.02841 8.6925,-4.56563 9.4031,-7.54101 0.7579,-3.17305 3.0737,-4.04898 14.6908,-5.55665 28.3566,-3.6801 28.5205,-3.67805 35.2021,0.44139 2.8565,1.7612 8.296,4.79568 12.0876,6.74329 5.8774,3.01903 7.6379,4.36521 11.9409,9.13075 5.5057,6.09741 9.9571,12.30727 9.9571,13.89045 0,2.20105 -3.0415,2.5706 -7.8213,0.95029 -4.9891,-1.69131 -17.9836,-3.46342 -25.7663,-3.51387 -2.7224,-0.0176 -6.3799,-0.36158 -8.1278,-0.76429 -2.1731,-0.50068 -4.5209,-0.50457 -7.4246,-0.0123 -2.3356,0.39595 -7.4286,1.04076 -11.3177,1.43293 -4.0008,0.40342 -9.2912,1.49086 -12.1843,2.50446 -2.8123,0.9853 -5.5627,1.79145 -6.1121,1.79145 -0.5493,0 -4.135,1.22828 -7.9682,2.72952 -12.2512,4.7981 -17.8639,6.55944 -24.1584,7.58121 -8.0349,1.3043 -10.576,1.26019 -13.5701,-0.23556 z"
         style="color:#000000;clip-rule:nonzero;display:inline;overflow:visible;visibility:visible;opacity:1;isolation:auto;mix-blend-mode:normal;color-interpolation:sRGB;color-interpolation-filters:linearRGB;solid-color:#000000;solid-opacity:1;fill:#ffffff;fill-opacity:1;fill-rule:evenodd;stroke:none;stroke-width:11;stroke-linecap:round;stroke-linejoin:round;stroke-miterlimit:4;stroke-dasharray:none;stroke-dashoffset:0;stroke-opacity:1;color-rendering:auto;image-rendering:auto;shape-rendering:auto;text-rendering:auto;enable-background:accumulate" />
      <path
         inkscape:connector-curvature="0"
         id="path4220"
         d="m 1317.0323,459.66223 c -2.1101,-1.47793 -3.5965,-10.01986 -2.224,-12.7802 0.9202,-1.85058 6.3892,-4.54727 9.2248,-4.54862 2.7678,-0.001 3.4053,4.28409 1.2624,8.48471 -0.7779,1.52465 -1.4143,4.04636 -1.4143,5.6038 0,2.07595 -0.365,3.02709 -1.3677,3.56371 -1.9062,1.02016 -3.7154,0.91341 -5.4812,-0.3234 z"
         style="color:#000000;clip-rule:nonzero;display:inline;overflow:visible;visibility:visible;opacity:1;isolation:auto;mix-blend-mode:normal;color-interpolation:sRGB;color-interpolation-filters:linearRGB;solid-color:#000000;solid-opacity:1;fill:#ffffff;fill-opacity:1;fill-rule:evenodd;stroke:none;stroke-width:11;stroke-linecap:round;stroke-linejoin:round;stroke-miterlimit:4;stroke-dasharray:none;stroke-dashoffset:0;stroke-opacity:1;color-rendering:auto;image-rendering:auto;shape-rendering:auto;text-rendering:auto;enable-background:accumulate" />
      <path
         inkscape:connector-curvature="0"
         id="path4222"
         d="m 1020.5325,827.21357 c -2.139,-0.56922 -6.4347,-1.67283 -9.546,-2.45247 -3.1113,-0.77963 -8.2024,-2.1917 -11.3137,-3.13793 -6.07761,-1.84837 -17.40041,-3.8713 -29.34493,-5.24275 -5.58613,-0.64139 -9.00048,-0.65841 -13.78859,-0.0687 -8.24097,1.01492 -12.59083,0.99554 -13.64716,-0.0608 -1.14005,-1.14006 -1.07047,-4.6104 0.1686,-8.40825 3.86868,-11.8578 4.21917,-12.41259 15.24633,-24.13347 6.01498,-6.39337 8.13854,-7.67745 15.40916,-9.3176 0,0 3.40597,-1.36627 5.15612,-1.16315 1.61653,0.18761 4.38983,2.13653 4.38983,2.13653 8.66898,4.2192 18.15714,11.93651 22.62214,18.39995 1.209,1.75009 4.6016,6.0653 7.5393,9.58936 2.9376,3.52406 6.22,7.66063 7.2941,9.19238 1.0742,1.53176 3.3812,4.77465 5.1266,7.20642 3.2745,4.56225 4.0037,7.48304 2.0549,8.23086 -1.5118,0.58015 -2.7968,0.44577 -7.3667,-0.77036 z"
         style="color:#000000;clip-rule:nonzero;display:inline;overflow:visible;visibility:visible;opacity:1;isolation:auto;mix-blend-mode:normal;color-interpolation:sRGB;color-interpolation-filters:linearRGB;solid-color:#000000;solid-opacity:1;fill:#ffffff;fill-opacity:1;fill-rule:evenodd;stroke:none;stroke-width:11;stroke-linecap:round;stroke-linejoin:round;stroke-miterlimit:4;stroke-dasharray:none;stroke-dashoffset:0;stroke-opacity:1;color-rendering:auto;image-rendering:auto;shape-rendering:auto;text-rendering:auto;enable-background:accumulate"
         sodipodi:nodetypes="cssssssssssssssscc" />
      <path
         inkscape:connector-curvature="0"
         id="path4231"
         d="m 132.65344,1561.4716 c -1.16673,-0.6902 -4.5433,-1.6429 -7.5035,-2.117 -10.97382,-1.7577 -10.44285,1.4137 -11.27622,-67.3517 -1.05633,-87.1636 -5.94156,-252.7456 -8.1935,-277.7136 -0.70153,-7.7782 -2.2492,-37.2448 -3.43926,-65.4813 -1.19006,-28.2366 -2.311747,-52.0864 -2.492641,-52.9995 -0.470709,-2.376 4.907741,-2.8761 7.745281,-0.7201 1.97909,1.5038 2.65816,6.1343 3.89649,26.5699 2.21973,36.6311 3.90919,58.246 4.86365,62.2254 1.23387,5.1443 5.00244,73.7897 6.48286,118.0868 0.70186,21.0011 1.63391,41.684 2.07122,45.962 0.43731,4.278 1.76561,26.5518 2.95178,49.4975 1.18617,22.9456 2.78027,52.2198 3.54245,65.0538 0.76219,12.834 2.00283,35.7442 2.75698,50.9117 1.80391,36.2798 2.35838,40.0827 6.49507,44.5462 1.87717,2.0255 3.41305,3.9682 3.41305,4.317 0,1.1371 -9.1355,0.5016 -11.31371,-0.7871 z"
         style="color:#000000;clip-rule:nonzero;display:inline;overflow:visible;visibility:visible;opacity:1;isolation:auto;mix-blend-mode:normal;color-interpolation:sRGB;color-interpolation-filters:linearRGB;solid-color:#000000;solid-opacity:1;fill:#ffffff;fill-opacity:1;fill-rule:evenodd;stroke:none;stroke-width:11;stroke-linecap:round;stroke-linejoin:round;stroke-miterlimit:4;stroke-dasharray:none;stroke-dashoffset:0;stroke-opacity:1;color-rendering:auto;image-rendering:auto;shape-rendering:auto;text-rendering:auto;enable-background:accumulate" />
      <path
         inkscape:connector-curvature="0"
         id="path4233"
         d="m 970.65163,1050.4158 c -0.57384,-0.4828 -1.79621,-2.0341 -2.71639,-3.4471 -0.93858,-1.4414 -2.43936,-3.159 -3.4186,-3.9126 -2.33042,-1.7933 -2.60816,-2.5913 -2.05517,-5.9045 0.24341,-1.4584 0.54734,-3.9502 0.6754,-5.5374 0.18867,-2.3383 0.41684,-3.1512 1.20292,-4.2855 0.76275,-1.1007 1.1598,-2.4486 1.85768,-6.3067 0.48817,-2.6988 1.35625,-6.3095 1.92906,-8.0238 0.57281,-1.7143 1.28732,-4.2599 1.58782,-5.6568 0.98434,-4.5761 1.99412,-8.17396 2.6633,-9.4892 0.75279,-1.47958 2.23977,-2.77346 3.1874,-2.77346 1.51303,0 1.55537,0.57931 1.56312,21.38996 0.004,10.8895 0.13361,20.8331 0.28789,22.0971 0.28088,2.3011 -0.39347,8.3633 -1.15235,10.3593 -0.91677,2.4113 -3.65395,3.1384 -5.61208,1.4907 z m -1.18746,-13.4625 c -0.16185,-0.8349 -0.94983,-1.0651 -1.22158,-0.3569 -0.27212,0.7091 0.54994,1.777 1.01214,1.3148 0.18204,-0.182 0.27628,-0.6131 0.20944,-0.9579 z"
         style="color:#000000;clip-rule:nonzero;display:inline;overflow:visible;visibility:visible;opacity:1;isolation:auto;mix-blend-mode:normal;color-interpolation:sRGB;color-interpolation-filters:linearRGB;solid-color:#000000;solid-opacity:1;fill:#ffffff;fill-opacity:1;fill-rule:evenodd;stroke:none;stroke-width:11;stroke-linecap:round;stroke-linejoin:round;stroke-miterlimit:4;stroke-dasharray:none;stroke-dashoffset:0;stroke-opacity:1;color-rendering:auto;image-rendering:auto;shape-rendering:auto;text-rendering:auto;enable-background:accumulate" />
      <path
         inkscape:connector-curvature="0"
         id="path4235"
         d="m 904.39033,1069.3444 c -2.19039,-1.7292 -1.61766,-4.7536 1.58951,-8.3937 1.23114,-1.3973 3.07589,-4.0224 4.09944,-5.8336 1.63587,-2.8947 4.63596,-7.6255 7.50716,-11.838 0.50781,-0.745 2.28752,-3.4228 3.95493,-5.9507 3.7455,-5.6785 6.47541,-8.6621 7.92553,-8.6621 1.17471,0 1.86873,0.5605 1.86873,1.5092 0,1.1639 -2.43283,8.0539 -3.50724,9.9329 -0.57117,0.9989 -1.36496,2.9951 -1.76398,4.436 -0.39903,1.4409 -1.22513,3.6683 -1.83578,4.9498 -0.61065,1.2814 -1.5496,3.7617 -2.08656,5.5118 -1.30712,4.2603 -3.24329,8.4953 -4.47394,9.7859 -0.55273,0.5797 -2.77931,1.9382 -4.94796,3.0189 -4.68191,2.3331 -6.81878,2.7266 -8.32984,1.5336 z"
         style="color:#000000;clip-rule:nonzero;display:inline;overflow:visible;visibility:visible;opacity:1;isolation:auto;mix-blend-mode:normal;color-interpolation:sRGB;color-interpolation-filters:linearRGB;solid-color:#000000;solid-opacity:1;fill:#ffffff;fill-opacity:1;fill-rule:evenodd;stroke:none;stroke-width:11;stroke-linecap:round;stroke-linejoin:round;stroke-miterlimit:4;stroke-dasharray:none;stroke-dashoffset:0;stroke-opacity:1;color-rendering:auto;image-rendering:auto;shape-rendering:auto;text-rendering:auto;enable-background:accumulate" />
      <path
         inkscape:connector-curvature="0"
         id="path4237"
         d="m 840.43232,1083.98 c -1.63992,-0.706 -2.21072,-1.901 -1.74109,-3.645 0.43003,-1.5971 1.24853,-2.6937 4.39317,-5.8861 1.33937,-1.3598 3.9645,-4.0336 5.83363,-5.942 1.86913,-1.9083 4.27346,-4.0799 5.34296,-4.8258 1.0695,-0.7458 2.50139,-1.9441 3.18198,-2.6628 0.68059,-0.7188 1.95338,-1.7964 2.82843,-2.3948 0.87504,-0.5984 2.1136,-1.5378 2.75234,-2.0876 2.04337,-1.7587 5.02583,-1.087 5.02583,1.132 0,0.727 -2.93642,4.886 -5.39553,7.642 -1.06132,1.1895 -2.15092,2.4658 -2.42132,2.8364 -0.27041,0.3705 -1.26684,1.3044 -2.21429,2.0752 -0.94745,0.7709 -2.39324,2.4357 -3.21288,3.6997 -0.81964,1.2639 -2.21297,3.0936 -3.09629,4.0658 -0.88332,0.9723 -2.14221,2.469 -2.79752,3.3259 -0.65532,0.857 -1.62687,1.8809 -2.15901,2.2752 -1.27348,0.9439 -4.56423,1.1479 -6.32041,0.3919 z"
         style="color:#000000;clip-rule:nonzero;display:inline;overflow:visible;visibility:visible;opacity:1;isolation:auto;mix-blend-mode:normal;color-interpolation:sRGB;color-interpolation-filters:linearRGB;solid-color:#000000;solid-opacity:1;fill:#ffffff;fill-opacity:1;fill-rule:evenodd;stroke:none;stroke-width:11;stroke-linecap:round;stroke-linejoin:round;stroke-miterlimit:4;stroke-dasharray:none;stroke-dashoffset:0;stroke-opacity:1;color-rendering:auto;image-rendering:auto;shape-rendering:auto;text-rendering:auto;enable-background:accumulate" />
      <path
         inkscape:connector-curvature="0"
         id="path4239"
         d="m 1101.6769,1061.8815 c -0.3311,-0.193 -2.0811,-0.8801 -3.8891,-1.5268 -1.808,-0.6466 -4.1623,-1.7296 -5.2318,-2.4065 -1.0695,-0.677 -3.6801,-2.0644 -5.8014,-3.0833 -3.4583,-1.661 -4.3352,-1.9228 -8.4853,-2.5334 -2.5456,-0.3745 -5.5329,-0.6817 -6.6383,-0.6826 -2.5426,0 -3.8238,-0.4711 -3.8238,-1.3999 0,-0.789 1.8347,-1.8792 3.8891,-2.3111 1.8346,-0.3856 9.2795,-4.3 9.9449,-5.2288 0.9492,-1.3249 3.7439,-8.0212 4.5327,-10.8608 0.8611,-3.0999 2.6515,-15.2058 3.1924,-21.5857 0.4429,-5.2235 0.3929,-5.9253 -1.936,-27.20468 -0.3086,-2.81958 -0.8074,-8.54715 -1.1085,-12.72792 -0.3011,-4.18077 -0.6269,-8.51954 -0.7239,-9.64172 -0.2318,-2.67885 0.4547,-8.87278 1.1445,-10.32629 1.3175,-2.77645 4.2148,-2.24234 5.2407,0.96612 0.1091,0.34118 0.016,2.74951 -0.2077,5.35184 -0.3501,4.07842 -0.3254,5.18842 0.1785,8.04173 0.5425,3.07159 0.9778,7.38721 1.4929,14.80071 0.1148,1.65286 0.4328,4.59619 0.7066,6.54074 0.2738,1.94454 0.6656,5.71617 0.8706,8.38139 0.3909,5.08176 1.0651,7.84018 4.7779,19.54928 0.8633,2.7224 2.0519,6.6627 2.6415,8.7564 0.5895,2.0936 1.5539,4.7098 2.143,5.8139 0.5892,1.104 1.3164,2.8912 1.6161,3.9716 0.9179,3.309 4.9252,11.0825 6.058,11.7517 0.6488,0.3832 2.2751,0.6701 4.7327,0.8347 3.6625,0.2454 3.7569,0.2327 4.3259,-0.5798 0.8392,-1.198 0.7206,-2.9797 -0.4359,-6.5484 -1.329,-4.1009 -1.7,-9.6313 -0.936,-13.952 0.9849,-5.5696 0.6149,-8.5366 -2.7524,-22.0689 -1.6116,-6.47665 -2.4663,-13.19749 -2.2858,-17.97463 0.094,-2.49468 0.3581,-4.7073 0.6287,-5.27147 0.5245,-1.09374 1.5814,-1.29207 1.884,-0.35356 0.1098,0.3403 0.9088,2.52791 1.7757,4.86136 0.8669,2.33345 2.2005,5.93769 2.9637,8.00941 0.7632,2.07172 1.8211,4.28201 2.351,4.91176 0.5299,0.62974 1.3709,1.949 1.8689,2.93167 1.2039,2.37586 4.3438,5.64136 7.238,7.52756 3.0304,1.9749 9.7676,9.0588 11.8932,12.5053 0.8995,1.4584 2.1387,3.288 2.7538,4.0658 0.6152,0.7778 2.09,3.403 3.2775,5.8337 2.7811,5.6927 5.035,9.6034 6.8864,11.9483 0.8129,1.0296 2.1939,2.8695 3.069,4.0886 0.875,1.2191 2.4392,3.1609 3.4759,4.3151 2.1605,2.4054 3.3323,4.4627 3.1742,5.5729 -0.099,0.6935 -0.3022,0.762 -2.0893,0.7037 -1.2895,-0.042 -3.0771,-0.4909 -5.1265,-1.287 -1.7307,-0.6722 -4.0217,-1.3383 -5.0912,-1.4801 -1.0695,-0.1418 -2.8991,-0.5509 -4.0658,-0.909 -4.9005,-1.5043 -8.1193,-2.0979 -9.3852,-1.7309 -0.6718,0.1948 -3.5584,0.7513 -6.4147,1.2366 -3.7847,0.6432 -6.5175,1.3671 -10.0762,2.6693 -2.6857,0.9827 -6.0197,2.0045 -7.4088,2.2707 -1.3891,0.2662 -3.3779,0.953 -4.4194,1.5262 -1.0416,0.5731 -2.6892,1.2282 -3.6615,1.4557 -0.9723,0.2275 -2.6668,0.9627 -3.7656,1.6338 -2.0358,1.2432 -3.7793,1.5408 -4.9679,0.8477 z m 42.6546,-14.9091 c 0.806,-1.1508 0.6903,-2.0604 -0.6989,-5.4949 -0.6871,-1.6987 -1.4965,-4.5204 -1.7986,-6.2705 -0.7675,-4.4452 -3.0734,-10.5893 -4.9095,-13.0814 -0.4298,-0.5834 -1.2349,-1.9105 -1.7892,-2.9493 -0.5542,-1.0387 -1.3937,-2.1921 -1.8654,-2.5632 -0.969,-0.7622 -2.5312,-0.8858 -3.1666,-0.2505 -0.6414,0.6415 -0.505,3.6597 0.3084,6.8236 0.5562,2.1637 0.7884,4.5736 0.9877,10.2531 0.1489,4.2412 0.4282,7.7295 0.6516,8.1357 0.6211,1.1294 1.5631,1.8328 3.4617,2.5849 0.9723,0.3852 2.8789,1.3523 4.237,2.1493 2.8024,1.6445 3.794,1.788 4.5818,0.6632 z"
         style="color:#000000;clip-rule:nonzero;display:inline;overflow:visible;visibility:visible;opacity:1;isolation:auto;mix-blend-mode:normal;color-interpolation:sRGB;color-interpolation-filters:linearRGB;solid-color:#000000;solid-opacity:1;fill:#ffffff;fill-opacity:1;fill-rule:evenodd;stroke:none;stroke-width:11;stroke-linecap:round;stroke-linejoin:round;stroke-miterlimit:4;stroke-dasharray:none;stroke-dashoffset:0;stroke-opacity:1;color-rendering:auto;image-rendering:auto;shape-rendering:auto;text-rendering:auto;enable-background:accumulate" />
      <path
         inkscape:connector-curvature="0"
         id="path4241"
         d="m 1190.1367,1021.2254 c -0.8751,-0.5852 -3.6013,-3.0086 -6.0584,-5.3852 -2.4571,-2.3767 -6.234,-5.9644 -8.3932,-7.9728 -3.4458,-3.205 -4.0997,-4.0049 -5.3477,-6.5407 -0.7821,-1.58908 -2.2754,-4.48019 -3.3185,-6.42474 -1.0431,-1.94454 -2.7282,-5.12652 -3.7447,-7.07106 -1.0164,-1.94455 -2.2068,-4.01284 -2.6454,-4.5962 -0.4386,-0.58336 -1.2073,-1.87012 -1.7083,-2.85946 -0.501,-0.98934 -1.4723,-2.53421 -2.1584,-3.43304 -0.6861,-0.89882 -1.6686,-2.46543 -2.1834,-3.48135 -0.5148,-1.01592 -1.4621,-2.61194 -2.1052,-3.54671 -1.1927,-1.7339 -3.5156,-8.22097 -3.1535,-8.80679 0.6101,-0.98717 3.2089,0.54381 6.8756,4.05049 1.6528,1.58074 3.8802,3.33258 4.9497,3.89298 1.0695,0.5604 2.8196,1.68566 3.8891,2.50058 1.0695,0.81491 2.8196,2.05671 3.8891,2.75956 2.3263,1.52878 7.3473,6.89788 9.6676,10.33795 0.9182,1.36119 2.2103,3.23257 2.8714,4.15863 1.1671,1.63477 2.5157,4.7353 2.9038,6.67594 l 0.1907,0.95335 -1.467,-0.50543 c -1.7651,-0.60813 -3.058,-0.34711 -3.7863,0.76444 -0.7035,1.07366 -0.4247,1.84437 1.2369,3.41886 0.8743,0.8285 1.5227,1.8644 1.8106,2.893 0.2468,0.8813 1.1272,2.5205 1.9565,3.6426 2.7798,3.7613 7.9503,13.5612 7.9503,15.0686 0,0.801 -0.2848,0.7348 -2.1213,-0.4935 z"
         style="color:#000000;clip-rule:nonzero;display:inline;overflow:visible;visibility:visible;opacity:1;isolation:auto;mix-blend-mode:normal;color-interpolation:sRGB;color-interpolation-filters:linearRGB;solid-color:#000000;solid-opacity:1;fill:#ffffff;fill-opacity:1;fill-rule:evenodd;stroke:none;stroke-width:11;stroke-linecap:round;stroke-linejoin:round;stroke-miterlimit:4;stroke-dasharray:none;stroke-dashoffset:0;stroke-opacity:1;color-rendering:auto;image-rendering:auto;shape-rendering:auto;text-rendering:auto;enable-background:accumulate" />
      <path
         inkscape:connector-curvature="0"
         id="path4243"
         d="m 1196.8542,1065.3919 c -1.3124,-0.5239 -7.2926,-1.3657 -9.7227,-1.3687 -2.5296,0 -4.1363,-0.7259 -5.55,-2.4967 -0.8079,-1.0119 -1.0839,-1.854 -1.4124,-4.3092 -0.4438,-3.3164 -0.1987,-4.1558 1.2131,-4.1558 0.7803,0 3.2843,1.7436 6.2712,4.3668 1.0741,0.9434 3.1462,2.3273 4.6046,3.0755 1.4584,0.7481 3.3511,2.0015 4.206,2.7852 0.8549,0.7837 1.8492,1.5186 2.2097,1.633 0.3605,0.1144 0.6554,0.3564 0.6554,0.5377 0,0.4232 -1.3363,0.3866 -2.4749,-0.068 z"
         style="color:#000000;clip-rule:nonzero;display:inline;overflow:visible;visibility:visible;opacity:1;isolation:auto;mix-blend-mode:normal;color-interpolation:sRGB;color-interpolation-filters:linearRGB;solid-color:#000000;solid-opacity:1;fill:#ffffff;fill-opacity:1;fill-rule:evenodd;stroke:none;stroke-width:11;stroke-linecap:round;stroke-linejoin:round;stroke-miterlimit:4;stroke-dasharray:none;stroke-dashoffset:0;stroke-opacity:1;color-rendering:auto;image-rendering:auto;shape-rendering:auto;text-rendering:auto;enable-background:accumulate" />
    </g>
  </g>
</svg>
