<?xml version="1.0" encoding="UTF-8" standalone="no"?>
<svg
   xmlns:dc="http://purl.org/dc/elements/1.1/"
   xmlns:cc="http://creativecommons.org/ns#"
   xmlns:rdf="http://www.w3.org/1999/02/22-rdf-syntax-ns#"
   xmlns:svg="http://www.w3.org/2000/svg"
   xmlns="http://www.w3.org/2000/svg"
   version="1.1"
   id="svg2"
   height="200"
   width="828.57172">
  <defs
     id="defs4" />
  <metadata
     id="metadata7">
    <rdf:RDF>
      <cc:Work
         rdf:about="">
        <dc:format>image/svg+xml</dc:format>
        <dc:type
           rdf:resource="http://purl.org/dc/dcmitype/StillImage" />
        <dc:title></dc:title>
      </cc:Work>
    </rdf:RDF>
  </metadata>
  <g
     transform="translate(0,-799.36221)"
     id="layer4">
    <path
       id="rect3077-3-6-1-7-2-7-3-8"
       d="m 7.14286,799.36221 0,7.14286 7.142859,0 0,7.14286 7.14286,0 0,7.14286 7.14286,0 0,7.14286 7.14286,0 0,7.14286 7.142859,0 0,7.14286 7.14286,0 0,7.14286 7.14286,0 0,7.14286 7.142859,0 0,7.14278 7.142863,0 0,7.14287 7.142857,0 0,7.14286 7.142857,0 0,7.14285 7.142865,0 0,7.14287 7.142861,0 0,7.14285 -7.142861,0 0,7.14286 -7.142865,0 0,7.14287 -7.142857,0 0,7.14285 -7.142857,0 0,7.14286 -7.142863,0 0,7.14286 -7.142859,0 0,7.14286 -7.14286,0 0,7.14286 -7.14286,0 0,7.14286 -7.142859,0 0,7.14286 -7.14286,0 0,7.14286 -7.14286,0 0,7.14286 -7.14286,0 0,7.14286 -7.142859,0 0,7.14286 -7.14286,0 0,7.14286 7.14286,0 7.142859,0 7.14286,0 7.14286,0 7.14286,0 0,-7.14286 7.142859,0 0,-7.14286 7.14286,0 0,-7.14286 7.14286,0 0,-7.14286 7.142859,0 0,-7.14286 7.142863,0 0,-7.14286 7.142857,0 0,-7.14286 7.142857,0 0,-7.14286 7.142865,0 0,-7.14286 7.142861,0 0,-7.14286 7.14285,0 0,-7.14286 7.14287,0 0,-7.14285 7.14285,0 0,-7.14287 7.14286,0 0,-7.14286 7.14287,0 0,-7.14285 -7.14287,0 0,-7.14287 -7.14286,0 0,-7.14285 -7.14285,0 0,-7.14286 -7.14287,0 0,-7.14287 -7.14285,0 0,-7.14278 -7.142861,0 0,-7.14286 -7.142865,0 0,-7.14286 -7.142857,0 0,-7.14286 -7.142857,0 0,-7.14286 -7.142863,0 0,-7.14286 -7.142859,0 0,-7.14286 -7.14286,0 0,-7.14286 -7.14286,0 0,-7.14286 -7.142859,0 -7.14286,0 -7.14286,0 -7.14286,0 -7.142859,0 z m 42.857158,7.14286 7.14286,0 0,7.14286 7.142859,0 0,7.14286 7.142863,0 0,7.14286 7.142857,0 0,7.14286 7.142857,0 0,7.14286 7.142865,0 0,7.14286 7.142861,0 0,7.14286 7.14285,0 0,7.14278 7.14287,0 0,7.14287 7.14285,0 0,7.14286 7.14286,0 0,7.14285 7.14287,0 0,7.14287 7.14285,0 0,7.14285 -7.14285,0 0,7.14286 -7.14287,0 0,7.14287 -7.14286,0 0,7.14285 -7.14285,0 0,7.14286 -7.14287,0 0,7.14286 -7.14285,0 0,7.14286 -7.142861,0 0,7.14286 -7.142865,0 0,7.14286 -7.142857,0 0,7.14286 -7.142857,0 0,7.14286 -7.142863,0 0,7.14286 -7.142859,0 0,7.14286 -7.14286,0 0,7.14286 -7.14286,0 0,7.14286 7.14286,0 7.14286,0 7.142859,0 7.142863,0 7.142857,0 0,-7.14286 7.142857,0 0,-7.14286 7.142865,0 0,-7.14286 7.142861,0 0,-7.14286 7.14285,0 0,-7.14286 7.14287,0 0,-7.14286 7.14285,0 0,-7.14286 7.14286,0 0,-7.14286 7.14287,0 0,-7.14286 7.14285,0 0,-7.14286 7.14287,0 0,-7.14286 7.14285,0 0,-7.14285 7.14286,0 0,-7.14287 7.14287,0 0,-7.14286 7.14285,0 0,-7.14285 -7.14285,0 0,-7.14287 -7.14287,0 0,-7.14285 -7.14286,0 0,-7.14286 -7.14285,0 0,-7.14287 -7.14287,0 0,-7.14278 -7.14285,0 0,-7.14286 -7.14287,0 0,-7.14286 -7.14286,0 0,-7.14286 -7.14285,0 0,-7.14286 -7.14287,0 0,-7.14286 -7.14285,0 0,-7.14286 -7.142861,0 0,-7.14286 -7.142865,0 0,-7.14286 -7.142857,0 -7.142857,0 -7.142863,0 -7.142859,0 -7.14286,0 0,7.14286 z m 42.857161,0 7.142861,0 0,-7.14286 -7.142861,0 0,7.14286 z m 7.142861,0 0,7.14286 7.14285,0 0,-7.14286 -7.14285,0 z m 7.14285,7.14286 0,7.14286 7.14287,0 0,-7.14286 -7.14287,0 z m 7.14287,7.14286 0,7.14286 7.14285,0 0,-7.14286 -7.14285,0 z m 7.14285,7.14286 0,7.14286 7.14286,0 0,-7.14286 -7.14286,0 z m 7.14286,0 7.14287,0 7.14285,0 7.14287,0 7.14285,0 0,-7.14286 7.14286,0 0,-7.14286 7.14287,0 0,-7.14286 7.14285,0 0,-7.14286 -7.14285,0 -7.14287,0 -7.14286,0 -7.14285,0 0,7.14286 -7.14287,0 0,7.14286 -7.14285,0 0,7.14286 -7.14287,0 0,7.14286 z m 50.00002,-21.42858 0,7.14286 -7.14285,0 0,7.14286 -7.14287,0 0,7.14286 -7.14286,0 0,7.14286 0,7.14286 0,7.14286 0,7.14286 7.14286,0 0,-7.14286 7.14287,0 0,-7.14286 7.14285,0 0,-7.14286 7.14286,0 0,7.14286 7.14286,0 0,7.14286 7.14286,0 0,7.14286 7.14286,0 0,-7.14286 0,-7.14286 0,-7.14286 0,-7.14286 -7.14286,0 0,-7.14286 -7.14286,0 0,-7.14286 -7.14286,0 0,-7.14286 -7.14286,0 z m 7.14286,0 7.14286,0 0,7.14286 7.14286,0 0,7.14286 7.14286,0 0,7.14286 7.14286,0 7.14286,0 7.14286,0 7.14286,0 0,-7.14286 -7.14286,0 0,-7.14286 -7.14286,0 0,-7.14286 -7.14286,0 0,-7.14286 -7.14286,0 -7.14286,0 -7.14286,0 -7.14286,0 0,7.14286 z m 50.00002,21.42858 0,7.14286 7.14286,0 0,-7.14286 -7.14286,0 z m 7.14286,0 7.14286,0 0,-7.14286 -7.14286,0 0,7.14286 z m 7.14286,-7.14286 7.14286,0 0,-7.14286 -7.14286,0 0,7.14286 z m 7.14286,-7.14286 7.14286,0 0,-7.14286 -7.14286,0 0,7.14286 z m 7.14286,-7.14286 7.14286,0 0,-7.14286 -7.14286,0 0,7.14286 z m 7.14286,0 0,7.14286 -7.14286,0 0,7.14286 -7.14286,0 0,7.14286 -7.14286,0 0,7.14286 -7.14286,0 0,7.14286 -7.14286,0 0,7.14286 -7.14286,0 0,7.14286 -7.14286,0 0,7.14278 -7.14286,0 0,7.14287 -7.14286,0 0,7.14286 -7.14286,0 0,7.14285 -7.14286,0 0,7.14287 -7.14286,0 0,7.14285 7.14286,0 0,7.14286 7.14286,0 0,7.14287 7.14286,0 0,7.14285 7.14286,0 0,7.14286 7.14286,0 0,7.14286 7.14286,0 0,7.14286 7.14286,0 0,7.14286 7.14286,0 0,7.14286 7.14286,0 0,7.14286 7.14286,0 0,7.14286 7.14286,0 0,7.14286 7.14286,0 0,7.14286 7.14286,0 0,7.14286 7.14286,0 0,7.14286 7.14286,0 7.14286,0 7.14285,0 7.14287,0 7.14286,0 0,-7.14286 -7.14286,0 0,-7.14286 -7.14287,0 0,-7.14286 -7.14285,0 0,-7.14286 -7.14286,0 0,-7.14286 -7.14286,0 0,-7.14286 -7.14286,0 0,-7.14286 -7.14286,0 0,-7.14286 -7.14286,0 0,-7.14286 -7.14286,0 0,-7.14286 -7.14286,0 0,-7.14286 -7.14286,0 0,-7.14285 -7.14286,0 0,-7.14287 -7.14286,0 0,-7.14286 -7.14286,0 0,-7.14285 7.14286,0 0,-7.14287 7.14286,0 0,-7.14285 7.14286,0 0,-7.14286 7.14286,0 0,-7.14287 7.14286,0 0,-7.14278 7.14286,0 0,-7.14286 7.14286,0 0,-7.14286 7.14286,0 0,-7.14286 7.14286,0 0,-7.14286 7.14286,0 0,-7.14286 7.14286,0 0,-7.14286 7.14285,0 0,-7.14286 7.14287,0 0,-7.14286 -7.14287,0 -7.14285,0 -7.14286,0 -7.14286,0 -7.14286,0 0,7.14286 -7.14286,0 z m 42.85716,0 0,7.14286 -7.14287,0 0,7.14286 -7.14285,0 0,7.14286 -7.14286,0 0,7.14286 -7.14286,0 0,7.14286 -7.14286,0 0,7.14286 -7.14286,0 0,7.14286 -7.14286,0 0,7.14278 -7.14286,0 0,7.14287 -7.14286,0 0,7.14286 -7.14286,0 0,7.14285 -7.14286,0 0,7.14287 -7.14286,0 0,7.14285 7.14286,0 0,7.14286 7.14286,0 0,7.14287 7.14286,0 0,7.14285 7.14286,0 0,7.14286 7.14286,0 0,7.14286 7.14286,0 0,7.14286 7.14286,0 0,7.14286 7.14286,0 0,7.14286 7.14286,0 0,7.14286 7.14286,0 0,7.14286 7.14285,0 0,7.14286 7.14287,0 0,7.14286 7.14286,0 0,7.14286 7.14285,0 0,7.14286 7.14287,0 7.14285,0 7.14287,0 7.14286,0 7.14285,0 7.14287,0 7.14285,0 7.14286,0 7.14287,0 7.14285,0 7.14286,0 0,-7.14286 0,-7.14286 0,-7.14286 0,-7.14286 0,-7.14286 7.14286,0 0,7.14286 0,7.14286 0,7.14286 0,7.14286 0,7.14286 7.14286,0 0,-7.14286 0,-7.14286 0,-7.14286 0,-7.14286 0,-7.14286 7.14286,0 0,7.14286 0,7.14286 0,7.14286 0,7.14286 0,7.14286 7.14286,0 7.14286,0 7.14286,0 7.14286,0 7.14286,0 7.14286,0 7.14286,0 7.14286,0 7.14286,0 7.14286,0 7.14286,0 0,-7.14286 7.14286,0 0,-7.14286 7.14286,0 0,-7.14286 7.14285,0 0,-7.14286 7.14287,0 0,-7.14286 7.14286,0 0,-7.14286 7.14286,0 0,-7.14286 7.14286,0 0,-7.14286 7.14285,0 0,-7.14286 7.14287,0 0,-7.14286 7.14286,0 0,-7.14286 7.14285,0 0,-7.14285 7.14287,0 0,-7.14287 7.14285,0 0,-7.14286 7.14286,0 0,-7.14285 -7.14286,0 0,-7.14287 -7.14285,0 0,-7.14285 -7.14287,0 0,-7.14286 -7.14285,0 0,-7.14287 -7.14286,0 0,-7.14278 -7.14287,0 0,-7.14286 -7.14285,0 0,-7.14286 -7.14286,0 0,-7.14286 -7.14286,0 0,-7.14286 -7.14286,0 0,-7.14286 -7.14287,0 0,-7.14286 -7.14285,0 0,-7.14286 -7.14286,0 0,-7.14286 -7.14286,0 -7.14286,0 -7.14286,0 -7.14286,0 -7.14286,0 -7.14286,0 0,7.14286 -7.14286,0 0,7.14286 -7.14286,0 0,7.14286 -7.14286,0 0,7.14286 -7.14286,0 0,7.14286 -7.14286,0 0,-7.14286 7.14286,0 0,-7.14286 7.14286,0 0,-7.14286 7.14286,0 0,-7.14286 7.14286,0 0,-7.14286 -7.14286,0 -7.14286,0 -7.14286,0 -7.14286,0 -7.14286,0 0,7.14286 0,7.14286 0,7.14286 0,7.14286 -7.14286,0 0,-7.14286 0,-7.14286 0,-7.14286 0,-7.14286 -7.14286,0 0,7.14286 0,7.14286 0,7.14286 0,7.14286 -7.14286,0 0,-7.14286 0,-7.14286 0,-7.14286 0,-7.14286 -7.14286,0 -7.14285,0 -7.14287,0 -7.14286,0 -7.14285,0 0,7.14286 7.14285,0 0,7.14286 7.14286,0 0,7.14286 7.14287,0 0,7.14286 7.14285,0 0,7.14286 -7.14285,0 0,-7.14286 -7.14287,0 0,-7.14286 -7.14286,0 0,-7.14286 -7.14285,0 0,-7.14286 -7.14287,0 0,-7.14286 -7.14285,0 -7.14286,0 -7.14287,0 -7.14285,0 -7.14287,0 -7.14285,0 0,7.14286 -7.14286,0 z m 207.14293,0 7.14285,0 0,7.14286 7.14287,0 0,7.14286 7.14286,0 0,7.14286 7.14286,0 0,7.14286 7.14286,0 0,7.14286 7.14285,0 0,7.14286 7.14287,0 0,7.14286 7.14286,0 0,7.14278 7.14285,0 0,7.14287 7.14287,0 0,7.14286 7.14285,0 0,7.14285 7.14286,0 0,7.14287 7.14287,0 0,7.14285 -7.14287,0 0,7.14286 -7.14286,0 0,7.14287 -7.14285,0 0,7.14285 -7.14287,0 0,7.14286 -7.14285,0 0,7.14286 -7.14286,0 0,7.14286 -7.14287,0 0,7.14286 -7.14285,0 0,7.14286 -7.14286,0 0,7.14286 -7.14286,0 0,7.14286 -7.14286,0 0,7.14286 -7.14287,0 0,7.14286 -7.14285,0 0,7.14286 -7.14286,0 0,7.14286 7.14286,0 7.14285,0 7.14287,0 7.14286,0 7.14286,0 0,-7.14286 7.14286,0 0,-7.14286 7.14285,0 0,-7.14286 7.14287,0 0,-7.14286 7.14286,0 0,-7.14286 7.14285,0 0,-7.14286 7.14287,0 0,-7.14286 7.14285,0 0,-7.14286 7.14286,0 0,-7.14286 7.14287,0 0,-7.14286 7.14285,0 0,-7.14286 7.14286,0 0,-7.14285 7.14286,0 0,-7.14287 7.14286,0 0,-7.14286 7.14287,0 0,-7.14285 -7.14287,0 0,-7.14287 -7.14286,0 0,-7.14285 -7.14286,0 0,-7.14286 -7.14286,0 0,-7.14287 -7.14285,0 0,-7.14278 -7.14287,0 0,-7.14286 -7.14286,0 0,-7.14286 -7.14285,0 0,-7.14286 -7.14287,0 0,-7.14286 -7.14285,0 0,-7.14286 -7.14286,0 0,-7.14286 -7.14287,0 0,-7.14286 -7.14285,0 0,-7.14286 -7.14286,0 -7.14286,0 -7.14286,0 -7.14287,0 -7.14285,0 0,7.14286 z m 42.85715,0 7.14287,0 0,-7.14286 -7.14287,0 0,7.14286 z m 7.14287,0 0,7.14286 7.14286,0 0,-7.14286 -7.14286,0 z m 7.14286,7.14286 0,7.14286 7.14285,0 0,-7.14286 -7.14285,0 z m 7.14285,7.14286 0,7.14286 7.14287,0 0,-7.14286 -7.14287,0 z m 7.14287,7.14286 0,7.14286 7.14285,0 0,-7.14286 -7.14285,0 z m 7.14285,0 7.14286,0 7.14287,0 7.14285,0 7.14286,0 0,-7.14286 7.14286,0 0,-7.14286 7.14286,0 0,-7.14286 7.14287,0 0,-7.14286 -7.14287,0 -7.14286,0 -7.14286,0 -7.14286,0 0,7.14286 -7.14285,0 0,7.14286 -7.14287,0 0,7.14286 -7.14286,0 0,7.14286 z m 50.00003,-21.42858 0,7.14286 -7.14287,0 0,7.14286 -7.14286,0 0,7.14286 -7.14286,0 0,7.14286 0,7.14286 0,7.14286 0,7.14286 7.14286,0 0,-7.14286 7.14286,0 0,-7.14286 7.14287,0 0,-7.14286 7.14285,0 0,7.14286 7.14286,0 0,7.14286 7.14286,0 0,7.14286 7.14286,0 0,-7.14286 0,-7.14286 0,-7.14286 0,-7.14286 -7.14286,0 0,-7.14286 -7.14286,0 0,-7.14286 -7.14286,0 0,-7.14286 -7.14285,0 z m 7.14285,0 7.14286,0 0,7.14286 7.14286,0 0,7.14286 7.14286,0 0,7.14286 7.14286,0 7.14286,0 7.14286,0 7.14286,0 0,-7.14286 -7.14286,0 0,-7.14286 -7.14286,0 0,-7.14286 -7.14286,0 0,-7.14286 -7.14286,0 -7.14286,0 -7.14286,0 -7.14286,0 0,7.14286 z m 50.00002,21.42858 0,7.14286 7.14289,0 0,-7.14286 -7.14289,0 z m 7.14289,0 7.14286,0 0,-7.14286 -7.14286,0 0,7.14286 z m 7.14286,-7.14286 7.14285,0 0,-7.14286 -7.14285,0 0,7.14286 z m 7.14285,-7.14286 7.14286,0 0,-7.14286 -7.14286,0 0,7.14286 z m 7.14286,-7.14286 7.14286,0 0,-7.14286 -7.14286,0 0,7.14286 z m 7.14286,0 0,7.14286 -7.14286,0 0,7.14286 -7.14286,0 0,7.14286 -7.14285,0 0,7.14286 -7.14286,0 0,7.14286 -7.14289,0 0,7.14286 -7.14286,0 0,7.14286 -7.14286,0 0,7.14278 -7.14286,0 0,7.14287 -7.14286,0 0,7.14286 -7.14286,0 0,7.14285 -7.14286,0 0,7.14287 -7.14286,0 0,7.14285 7.14286,0 0,7.14286 7.14286,0 0,7.14287 7.14286,0 0,7.14285 7.14286,0 0,7.14286 7.14286,0 0,7.14286 7.14286,0 0,7.14286 7.14286,0 0,7.14286 7.14289,0 0,7.14286 7.14286,0 0,7.14286 7.14285,0 0,7.14286 7.14286,0 0,7.14286 7.14286,0 0,7.14286 7.14286,0 0,7.14286 7.14285,0 0,7.14286 7.14286,0 7.14286,0 7.14285,0 7.14286,0 7.14286,0 0,-7.14286 -7.14286,0 0,-7.14286 -7.14286,0 0,-7.14286 -7.14285,0 0,-7.14286 -7.14286,0 0,-7.14286 -7.14286,0 0,-7.14286 -7.14285,0 0,-7.14286 -7.14286,0 0,-7.14286 -7.14286,0 0,-7.14286 -7.14286,0 0,-7.14286 -7.14285,0 0,-7.14286 -7.14286,0 0,-7.14285 -7.14289,0 0,-7.14287 -7.14286,0 0,-7.14286 -7.14286,0 0,-7.14285 7.14286,0 0,-7.14287 7.14286,0 0,-7.14285 7.14289,0 0,-7.14286 7.14286,0 0,-7.14287 7.14285,0 0,-7.14278 7.14286,0 0,-7.14286 7.14286,0 0,-7.14286 7.14286,0 0,-7.14286 7.14285,0 0,-7.14286 7.14286,0 0,-7.14286 7.14286,0 0,-7.14286 7.14285,0 0,-7.14286 7.14286,0 0,-7.14286 -7.14286,0 -7.14285,0 -7.14286,0 -7.14286,0 -7.14285,0 0,7.14286 -7.14286,0 z m 42.85714,0 0,7.14286 -7.14286,0 0,7.14286 -7.14285,0 0,7.14286 -7.14286,0 0,7.14286 -7.14286,0 0,7.14286 -7.14285,0 0,7.14286 -7.14286,0 0,7.14286 -7.14286,0 0,7.14278 -7.14286,0 0,7.14287 -7.14285,0 0,7.14286 -7.14286,0 0,7.14285 -7.14289,0 0,7.14287 -7.14286,0 0,7.14285 7.14286,0 0,7.14286 7.14289,0 0,7.14287 7.14286,0 0,7.14285 7.14285,0 0,7.14286 7.14286,0 0,7.14286 7.14286,0 0,7.14286 7.14286,0 0,7.14286 7.14285,0 0,7.14286 7.14286,0 0,7.14286 7.14286,0 0,7.14286 7.14285,0 0,7.14286 7.14286,0 0,7.14286 7.14286,0 0,7.14286 7.14286,0 0,7.14286 7.14285,0 7.14286,0 7.14286,0 7.14285,0 0,-7.14286 0,-7.14286 -7.14285,0 0,-7.14286 -7.14286,0 0,-7.14286 -7.14286,0 0,-7.14286 -7.14285,0 0,-7.14286 -7.14286,0 0,-7.14286 -7.14286,0 0,-7.14286 -7.14286,0 0,-7.14286 -7.14285,0 0,-7.14286 -7.14286,0 0,-7.14286 -7.14286,0 0,-7.14285 -7.14285,0 0,-7.14287 -7.14286,0 0,-7.14286 -7.14286,0 0,-7.14285 7.14286,0 0,-7.14287 7.14286,0 0,-7.14285 7.14285,0 0,-7.14286 7.14286,0 0,-7.14287 7.14286,0 0,-7.14278 7.14285,0 0,-7.14286 7.14286,0 0,-7.14286 7.14286,0 0,-7.14286 7.14286,0 0,-7.14286 7.14285,0 0,-7.14286 7.14286,0 0,-7.14286 7.14286,0 0,-7.14286 7.14285,0 0,-7.14286 -7.14285,0 -7.14286,0 -7.14286,0 -7.14285,0 -7.14286,0 0,7.14286 -7.14286,0 z m 14.28572,28.57144 0,7.14286 0,7.14286 0,7.14286 0,7.14278 7.14285,0 0,7.14287 7.14286,0 0,7.14286 7.14286,0 0,7.14285 7.14285,0 0,-7.14285 0,-7.14286 0,-7.14287 0,-7.14278 -7.14285,0 0,-7.14286 -7.14286,0 0,-7.14286 -7.14286,0 0,-7.14286 -7.14285,0 z m 21.42857,49.99994 -7.14286,0 0,-7.14285 -7.14286,0 0,-7.14286 -7.14285,0 0,-7.14287 -7.14286,0 -7.14286,0 -7.14286,0 -7.14285,0 0,7.14287 7.14285,0 0,7.14286 7.14286,0 0,7.14285 7.14286,0 0,7.14287 7.14286,0 0,7.14285 -7.14286,0 0,7.14286 -7.14286,0 0,7.14287 -7.14286,0 0,7.14285 -7.14285,0 0,7.14286 7.14285,0 7.14286,0 7.14286,0 7.14286,0 0,-7.14286 7.14285,0 0,-7.14285 7.14286,0 0,-7.14287 7.14286,0 0,-7.14286 7.14285,0 0,-7.14285 -7.14285,0 0,-7.14287 z m 0,21.42858 0,7.14287 -7.14286,0 0,7.14285 -7.14286,0 0,7.14286 -7.14285,0 0,7.14286 0,7.14286 0,7.14286 0,7.14286 7.14285,0 0,-7.14286 7.14286,0 0,-7.14286 7.14286,0 0,-7.14286 7.14285,0 0,-7.14286 0,-7.14286 0,-7.14285 0,-7.14287 -7.14285,0 z m -71.42857,85.71432 -7.14286,0 0,7.14286 7.14286,0 0,-7.14286 z m -7.14286,0 0,-7.14286 -7.14286,0 0,7.14286 7.14286,0 z m -7.14286,-7.14286 0,-7.14286 -7.14286,0 0,7.14286 7.14286,0 z m -7.14286,-7.14286 0,-7.14286 -7.14285,0 0,7.14286 7.14285,0 z m -7.14285,-7.14286 0,-7.14286 -7.14286,0 0,7.14286 7.14286,0 z m -7.14286,-7.14286 0,-7.14286 -7.14289,0 0,7.14286 7.14289,0 z m -7.14289,0 -7.14286,0 -7.14286,0 -7.14286,0 -7.14286,0 0,7.14286 -7.14286,0 0,7.14286 -7.14286,0 0,7.14286 -7.14286,0 0,7.14286 7.14286,0 0,7.14286 7.14286,0 7.14286,0 0,-7.14286 7.14286,0 0,-7.14286 7.14286,0 0,-7.14286 7.14286,0 0,-7.14286 7.14286,0 0,-7.14286 z m -50.00002,28.57144 -7.14285,0 0,7.14286 7.14285,0 0,-7.14286 z m -7.14285,0 0,-7.14286 -7.14287,0 0,-7.14286 -7.14286,0 0,-7.14286 -7.14286,0 0,-7.14286 -7.14286,0 -7.14285,0 -7.14287,0 -7.14286,0 0,7.14286 7.14286,0 0,7.14286 7.14287,0 0,7.14286 7.14285,0 0,7.14286 7.14286,0 0,7.14286 7.14286,0 7.14286,0 0,-7.14286 7.14287,0 z m -50.00003,-28.57144 0,-7.14286 -7.14285,0 0,7.14286 7.14285,0 z m -7.14285,0 -7.14287,0 0,7.14286 7.14287,0 0,-7.14286 z m -7.14287,7.14286 -7.14285,0 0,7.14286 7.14285,0 0,-7.14286 z m -7.14285,7.14286 -7.14286,0 0,7.14286 7.14286,0 0,-7.14286 z m -7.14286,7.14286 -7.14287,0 0,7.14286 7.14287,0 0,-7.14286 z m -7.14287,7.14286 -7.14285,0 0,7.14286 7.14285,0 0,-7.14286 z m 35.7143,-35.7143 7.14286,0 0,-7.14286 -7.14286,0 0,7.14286 z m 7.14286,-7.14286 7.14287,0 0,-7.14286 -7.14287,0 0,7.14286 z m 7.14287,-7.14286 7.14285,0 0,-7.14286 -7.14285,0 0,7.14286 z m 7.14285,-7.14286 7.14286,0 0,-7.14286 -7.14286,0 0,7.14286 z m 7.14286,-7.14286 7.14286,0 0,-7.14286 -7.14286,0 0,7.14286 z m 7.14286,-7.14286 7.14286,0 0,-7.14285 -7.14286,0 0,7.14285 z m 7.14286,-7.14285 7.14287,0 0,-7.14287 -7.14287,0 0,7.14287 z m 7.14287,-7.14287 7.14285,0 0,-7.14286 -7.14285,0 0,7.14286 z m 7.14285,0 0,7.14287 7.14286,0 0,-7.14287 -7.14286,0 z m 7.14286,7.14287 0,7.14285 7.14286,0 0,-7.14285 -7.14286,0 z m 7.14286,7.14285 0,7.14286 7.14286,0 0,-7.14286 -7.14286,0 z m 7.14286,7.14286 0,7.14286 7.14286,0 0,-7.14286 -7.14286,0 z m 7.14286,7.14286 0,7.14286 7.14286,0 0,-7.14286 -7.14286,0 z m 7.14286,7.14286 0,7.14286 7.14286,0 0,-7.14286 -7.14286,0 z m 7.14286,7.14286 0,7.14286 7.14286,0 0,-7.14286 -7.14286,0 z m -21.42858,-14.28572 -7.14286,0 0,7.14286 -7.14286,0 0,7.14286 -7.14286,0 0,7.14286 -7.14285,0 0,-7.14286 -7.14287,0 0,-7.14286 -7.14286,0 0,-7.14286 -7.14286,0 0,7.14286 0,7.14286 0,7.14286 0,7.14286 7.14286,0 0,7.14286 7.14286,0 0,7.14286 7.14287,0 0,7.14286 7.14285,0 0,-7.14286 7.14286,0 0,-7.14286 7.14286,0 0,-7.14286 7.14286,0 0,-7.14286 0,-7.14286 0,-7.14286 0,-7.14286 z m -42.85716,0 7.14286,0 0,7.14286 7.14287,0 0,7.14286 7.14285,0 0,-7.14286 7.14286,0 0,-7.14286 7.14286,0 0,-7.14286 -7.14286,0 0,-7.14286 -7.14286,0 0,-7.14285 -7.14285,0 0,7.14285 -7.14287,0 0,7.14286 -7.14286,0 0,7.14286 z m 21.42858,-42.85715 0,-7.14287 -7.14285,0 0,7.14287 7.14285,0 z m -7.14285,-7.14287 0,-7.14285 -7.14287,0 0,7.14285 7.14287,0 z m -7.14287,-7.14285 0,-7.14286 -7.14286,0 0,7.14286 7.14286,0 z m -7.14286,-7.14286 0,-7.14287 -7.14286,0 0,7.14287 7.14286,0 z m -7.14286,-7.14287 0,-7.14278 -7.14286,0 0,7.14278 7.14286,0 z m -7.14286,-7.14278 0,-7.14286 -7.14285,0 0,7.14286 7.14285,0 z m -7.14285,-7.14286 0,-7.14286 -7.14287,0 0,7.14286 7.14287,0 z m -7.14287,-7.14286 0,-7.14286 -7.14286,0 0,7.14286 7.14286,0 z m 28.57144,21.4285 7.14286,0 0,7.14287 7.14287,0 0,7.14286 7.14285,0 0,-7.14286 7.14286,0 0,-7.14287 7.14286,0 0,-7.14278 -7.14286,0 0,-7.14286 -7.14286,0 0,-7.14286 -7.14285,0 0,7.14286 -7.14287,0 0,7.14286 -7.14286,0 0,7.14278 z m 35.7143,0 0,7.14287 7.14286,0 0,-7.14287 -7.14286,0 z m 7.14286,0 7.14286,0 0,-7.14278 -7.14286,0 0,7.14278 z m 7.14286,-7.14278 7.14286,0 0,-7.14286 -7.14286,0 0,7.14286 z m 7.14286,-7.14286 7.14286,0 0,-7.14286 -7.14286,0 0,7.14286 z m 7.14286,-7.14286 7.14286,0 0,-7.14286 -7.14286,0 0,7.14286 z m -28.57144,28.57137 -7.14286,0 0,7.14286 7.14286,0 0,-7.14286 z m -7.14286,7.14286 -7.14286,0 0,7.14285 7.14286,0 0,-7.14285 z m -385.71442,114.28575 -7.14286,0 0,7.14286 7.14286,0 0,-7.14286 z m -7.14286,0 0,-7.14286 -7.14286,0 0,7.14286 7.14286,0 z m -7.14286,-7.14286 0,-7.14286 -7.14286,0 0,7.14286 7.14286,0 z m -7.14286,-7.14286 0,-7.14286 -7.14286,0 0,7.14286 7.14286,0 z m -7.14286,-7.14286 0,-7.14286 -7.14286,0 0,7.14286 7.14286,0 z m -7.14286,-7.14286 0,-7.14286 -7.14286,0 0,7.14286 7.14286,0 z m -7.14286,0 -7.14286,0 -7.14286,0 -7.14286,0 -7.14286,0 0,7.14286 -7.14286,0 0,7.14286 -7.14286,0 0,7.14286 -7.14286,0 0,7.14286 7.14286,0 0,7.14286 7.14286,0 7.14286,0 0,-7.14286 7.14286,0 0,-7.14286 7.14286,0 0,-7.14286 7.14286,0 0,-7.14286 7.14286,0 0,-7.14286 z m -50.00002,28.57144 -7.14286,0 0,7.14286 7.14286,0 0,-7.14286 z m -7.14286,0 0,-7.14286 -7.14285,0 0,-7.14286 -7.14287,0 0,-7.14286 -7.14286,0 0,-7.14286 -7.14285,0 -7.14287,0 -7.14285,0 -7.14287,0 0,7.14286 7.14287,0 0,7.14286 7.14285,0 0,7.14286 7.14287,0 0,7.14286 7.14285,0 0,7.14286 7.14286,0 7.14287,0 0,-7.14286 7.14285,0 z m -50.00002,-28.57144 0,-7.14286 -7.14286,0 0,7.14286 7.14286,0 z m -7.14286,0 -7.14285,0 0,7.14286 7.14285,0 0,-7.14286 z m -7.14285,7.14286 -7.14287,0 0,7.14286 7.14287,0 0,-7.14286 z m -7.14287,7.14286 -7.14285,0 0,7.14286 7.14285,0 0,-7.14286 z m -7.14285,7.14286 -7.142861,0 0,7.14286 7.142861,0 0,-7.14286 z m -7.142861,7.14286 -7.142865,0 0,7.14286 7.142865,0 0,-7.14286 z m 35.714291,-35.7143 7.14287,0 0,-7.14286 -7.14287,0 0,7.14286 z m 7.14287,-7.14286 7.14285,0 0,-7.14286 -7.14285,0 0,7.14286 z m 7.14285,-7.14286 7.14287,0 0,-7.14286 -7.14287,0 0,7.14286 z m 7.14287,-7.14286 7.14285,0 0,-7.14286 -7.14285,0 0,7.14286 z m 7.14285,-7.14286 7.14286,0 0,-7.14286 -7.14286,0 0,7.14286 z m 7.14286,-7.14286 7.14287,0 0,-7.14285 -7.14287,0 0,7.14285 z m 7.14287,-7.14285 7.14285,0 0,-7.14287 -7.14285,0 0,7.14287 z m 7.14285,-7.14287 7.14286,0 0,-7.14286 -7.14286,0 0,7.14286 z m 7.14286,0 0,7.14287 7.14286,0 0,-7.14287 -7.14286,0 z m 7.14286,7.14287 0,7.14285 7.14286,0 0,-7.14285 -7.14286,0 z m 7.14286,7.14285 0,7.14286 7.14286,0 0,-7.14286 -7.14286,0 z m 7.14286,7.14286 0,7.14286 7.14286,0 0,-7.14286 -7.14286,0 z m 7.14286,7.14286 0,7.14286 7.14286,0 0,-7.14286 -7.14286,0 z m 7.14286,7.14286 0,7.14286 7.14286,0 0,-7.14286 -7.14286,0 z m 7.14286,7.14286 0,7.14286 7.14286,0 0,-7.14286 -7.14286,0 z m -21.42858,-14.28572 -7.14286,0 0,7.14286 -7.14286,0 0,7.14286 -7.14286,0 0,7.14286 -7.14286,0 0,-7.14286 -7.14285,0 0,-7.14286 -7.14287,0 0,-7.14286 -7.14286,0 0,7.14286 0,7.14286 0,7.14286 0,7.14286 7.14286,0 0,7.14286 7.14287,0 0,7.14286 7.14285,0 0,7.14286 7.14286,0 0,-7.14286 7.14286,0 0,-7.14286 7.14286,0 0,-7.14286 7.14286,0 0,-7.14286 0,-7.14286 0,-7.14286 0,-7.14286 z m -42.85716,0 7.14287,0 0,7.14286 7.14285,0 0,7.14286 7.14286,0 0,-7.14286 7.14286,0 0,-7.14286 7.14286,0 0,-7.14286 -7.14286,0 0,-7.14286 -7.14286,0 0,-7.14285 -7.14286,0 0,7.14285 -7.14285,0 0,7.14286 -7.14287,0 0,7.14286 z m 21.42858,-42.85715 0,-7.14287 -7.14286,0 0,7.14287 7.14286,0 z m -7.14286,-7.14287 0,-7.14285 -7.14285,0 0,7.14285 7.14285,0 z m -7.14285,-7.14285 0,-7.14286 -7.14287,0 0,7.14286 7.14287,0 z m -7.14287,-7.14286 0,-7.14287 -7.14286,0 0,7.14287 7.14286,0 z m -7.14286,-7.14287 0,-7.14278 -7.14285,0 0,7.14278 7.14285,0 z m -7.14285,-7.14278 0,-7.14286 -7.14287,0 0,7.14286 7.14287,0 z m -7.14287,-7.14286 0,-7.14286 -7.14285,0 0,7.14286 7.14285,0 z m -7.14285,-7.14286 0,-7.14286 -7.14287,0 0,7.14286 7.14287,0 z m 28.57143,21.4285 7.14287,0 0,7.14287 7.14285,0 0,7.14286 7.14286,0 0,-7.14286 7.14286,0 0,-7.14287 7.14286,0 0,-7.14278 -7.14286,0 0,-7.14286 -7.14286,0 0,-7.14286 -7.14286,0 0,7.14286 -7.14285,0 0,7.14286 -7.14287,0 0,7.14278 z m 35.7143,0 0,7.14287 7.14286,0 0,-7.14287 -7.14286,0 z m 7.14286,0 7.14286,0 0,-7.14278 -7.14286,0 0,7.14278 z m 7.14286,-7.14278 7.14286,0 0,-7.14286 -7.14286,0 0,7.14286 z m 7.14286,-7.14286 7.14286,0 0,-7.14286 -7.14286,0 0,7.14286 z m 7.14286,-7.14286 7.14286,0 0,-7.14286 -7.14286,0 0,7.14286 z m -28.57144,28.57137 -7.14286,0 0,7.14286 7.14286,0 0,-7.14286 z m -7.14286,7.14286 -7.14286,0 0,7.14285 7.14286,0 0,-7.14285 z m -157.142911,78.57145 0,-7.14286 0,-7.14286 0,-7.14286 0,-7.14286 -7.14286,0 0,-7.14286 -7.14286,0 0,-7.14285 -7.14286,0 0,-7.14287 -7.142859,0 0,-7.14286 -7.14286,0 0,7.14286 0,7.14287 0,7.14285 0,7.14286 7.14286,0 0,7.14286 7.142859,0 0,7.14286 7.14286,0 0,7.14286 7.14286,0 0,7.14286 7.14286,0 z M 7.14286,899.36217 l 7.142859,0 0,7.14286 7.14286,0 0,7.14287 7.14286,0 0,7.14285 7.14286,0 0,7.14286 7.142859,0 7.14286,0 7.14286,0 7.142859,0 0,-7.14286 -7.142859,0 0,-7.14285 -7.14286,0 0,-7.14287 -7.14286,0 0,-7.14286 -7.142859,0 0,-7.14285 7.142859,0 0,-7.14287 7.14286,0 0,-7.14285 7.14286,0 0,-7.14286 7.142859,0 0,-7.14287 -7.142859,0 -7.14286,0 -7.14286,0 -7.142859,0 0,7.14287 -7.14286,0 0,7.14286 -7.14286,0 0,7.14285 -7.14286,0 0,7.14287 -7.142859,0 0,7.14285 z m 0,-7.14285 0,-7.14287 7.142859,0 0,-7.14285 7.14286,0 0,-7.14286 7.14286,0 0,-7.14287 7.14286,0 0,-7.14278 0,-7.14286 0,-7.14286 0,-7.14286 -7.14286,0 0,7.14286 -7.14286,0 0,7.14286 -7.14286,0 0,7.14286 -7.142859,0 0,7.14278 -7.14286,0 0,7.14287 0,7.14286 0,7.14285 0,7.14287 7.14286,0 z m 107.1429,-92.85711 0,7.14286 7.14285,0 0,7.14286 7.14286,0 0,-7.14286 7.14287,0 0,-7.14286 -7.14287,0 -7.14286,0 -7.14285,0 z m 114.28575,0 0,7.14286 7.14286,0 0,7.14286 7.14286,0 0,-7.14286 7.14286,0 0,-7.14286 -7.14286,0 -7.14286,0 -7.14286,0 z m 357.14298,0 0,7.14286 7.14287,0 0,7.14286 7.14285,0 0,-7.14286 7.14286,0 0,-7.14286 -7.14286,0 -7.14285,0 -7.14287,0 z m 114.28576,0 0,7.14286 7.14286,0 0,7.14286 7.14289,0 0,-7.14286 7.14286,0 0,-7.14286 -7.14286,0 -7.14289,0 -7.14286,0 z m -350.00012,7.14286 7.14286,0 0,7.14286 7.14285,0 0,7.14286 7.14287,0 0,7.14286 7.14285,0 0,7.14286 7.14286,0 0,7.14286 7.14287,0 0,7.14286 -7.14287,0 0,7.14286 -7.14286,0 0,-7.14286 -7.14285,0 0,-7.14286 -7.14287,0 0,7.14286 -7.14285,0 0,7.14286 7.14285,0 0,7.14278 7.14287,0 0,7.14287 -7.14287,0 0,7.14286 -7.14285,0 0,-7.14286 -7.14286,0 0,-7.14287 -7.14287,0 0,7.14287 -7.14285,0 0,7.14286 7.14285,0 0,7.14285 7.14287,0 0,7.14287 -7.14287,0 0,7.14285 7.14287,0 0,7.14286 -7.14287,0 0,7.14287 -7.14285,0 0,7.14285 7.14285,0 0,7.14286 7.14287,0 0,-7.14286 7.14286,0 0,-7.14285 7.14285,0 0,7.14285 7.14287,0 0,7.14286 -7.14287,0 0,7.14286 -7.14285,0 0,7.14286 7.14285,0 0,7.14286 7.14287,0 0,-7.14286 7.14285,0 0,-7.14286 7.14286,0 0,7.14286 7.14287,0 0,7.14286 -7.14287,0 0,7.14286 -7.14286,0 0,7.14286 -7.14285,0 0,7.14286 -7.14287,0 0,7.14286 -7.14285,0 0,7.14286 -7.14286,0 0,-7.14286 -7.14287,0 0,-7.14286 7.14287,0 0,-7.14286 7.14286,0 0,-7.14286 -7.14286,0 0,-7.14286 -7.14287,0 0,7.14286 -7.14285,0 0,7.14286 -7.14287,0 0,-7.14286 -7.14285,0 0,-7.14286 7.14285,0 0,-7.14286 7.14287,0 0,-7.14286 -7.14287,0 0,-7.14286 -7.14285,0 0,7.14286 -7.14286,0 0,7.14286 -7.14287,0 0,-7.14286 -7.14285,0 0,-7.14286 7.14285,0 0,-7.14286 7.14287,0 0,-7.14285 -7.14287,0 0,-7.14287 -7.14285,0 0,7.14287 -7.14286,0 0,7.14285 -7.14286,0 0,-7.14285 -7.14286,0 0,-7.14287 7.14286,0 0,-7.14286 7.14286,0 0,-7.14285 -7.14286,0 0,-7.14287 -7.14286,0 0,-7.14285 7.14286,0 0,-7.14286 7.14286,0 0,7.14286 7.14286,0 0,7.14285 7.14285,0 0,-7.14285 7.14287,0 0,-7.14286 -7.14287,0 0,-7.14287 -7.14285,0 0,-7.14278 7.14285,0 0,-7.14286 7.14287,0 0,7.14286 7.14286,0 0,7.14278 7.14285,0 0,-7.14278 7.14287,0 0,-7.14286 -7.14287,0 0,-7.14286 -7.14285,0 0,-7.14286 7.14285,0 0,-7.14286 7.14287,0 0,7.14286 7.14285,0 0,7.14286 7.14287,0 0,-7.14286 7.14286,0 0,-7.14286 -7.14286,0 0,-7.14286 -7.14287,0 0,-7.14286 7.14287,0 0,-7.14286 z m 128.57147,0 7.14286,0 0,7.14286 7.14286,0 0,7.14286 -7.14286,0 0,7.14286 -7.14286,0 0,7.14286 7.14286,0 0,7.14286 7.14286,0 0,-7.14286 7.14286,0 0,-7.14286 7.14286,0 0,7.14286 7.14286,0 0,7.14286 -7.14286,0 0,7.14286 -7.14286,0 0,7.14286 7.14286,0 0,7.14278 7.14286,0 0,-7.14278 7.14286,0 0,-7.14286 7.14285,0 0,7.14286 7.14287,0 0,7.14278 -7.14287,0 0,7.14287 -7.14285,0 0,7.14286 7.14285,0 0,7.14285 7.14287,0 0,-7.14285 7.14286,0 0,-7.14286 7.14286,0 0,7.14286 7.14286,0 0,7.14285 -7.14286,0 0,7.14287 -7.14286,0 0,7.14285 7.14286,0 0,7.14286 7.14286,0 0,7.14287 -7.14286,0 0,7.14285 -7.14286,0 0,-7.14285 -7.14286,0 0,-7.14287 -7.14287,0 0,7.14287 -7.14285,0 0,7.14285 7.14285,0 0,7.14286 7.14287,0 0,7.14286 -7.14287,0 0,7.14286 -7.14285,0 0,-7.14286 -7.14286,0 0,-7.14286 -7.14286,0 0,7.14286 -7.14286,0 0,7.14286 7.14286,0 0,7.14286 7.14286,0 0,7.14286 -7.14286,0 0,7.14286 -7.14286,0 0,-7.14286 -7.14286,0 0,-7.14286 -7.14286,0 0,7.14286 -7.14286,0 0,7.14286 7.14286,0 0,7.14286 7.14286,0 0,7.14286 -7.14286,0 0,7.14286 -7.14286,0 0,-7.14286 -7.14286,0 0,-7.14286 -7.14286,0 0,-7.14286 -7.14286,0 0,-7.14286 -7.14286,0 0,-7.14286 -7.14286,0 0,-7.14286 7.14286,0 0,-7.14286 7.14286,0 0,7.14286 7.14286,0 0,7.14286 7.14286,0 0,-7.14286 7.14286,0 0,-7.14286 -7.14286,0 0,-7.14286 -7.14286,0 0,-7.14286 7.14286,0 0,-7.14285 7.14286,0 0,7.14285 7.14286,0 0,7.14286 7.14286,0 0,-7.14286 7.14286,0 0,-7.14285 -7.14286,0 0,-7.14287 -7.14286,0 0,-7.14286 7.14286,0 0,-7.14285 -7.14286,0 0,-7.14287 7.14286,0 0,-7.14285 7.14286,0 0,-7.14286 -7.14286,0 0,-7.14287 -7.14286,0 0,7.14287 -7.14286,0 0,7.14286 -7.14286,0 0,-7.14286 -7.14286,0 0,-7.14287 7.14286,0 0,-7.14278 7.14286,0 0,-7.14286 -7.14286,0 0,-7.14286 -7.14286,0 0,7.14286 -7.14286,0 0,7.14286 -7.14286,0 0,-7.14286 -7.14286,0 0,-7.14286 7.14286,0 0,-7.14286 7.14286,0 0,-7.14286 7.14286,0 0,-7.14286 7.14286,0 0,-7.14286 7.14286,0 0,-7.14286 z M 0,813.64793 l 0,7.14286 0,7.14286 0,7.14286 0,7.14286 0,7.14286 7.14286,0 0,-7.14286 7.142859,0 0,-7.14286 7.14286,0 0,-7.14286 -7.14286,0 0,-7.14286 -7.142859,0 0,-7.14286 -7.14286,0 z m 821.42886,7.14286 0,7.14286 -7.14286,0 0,7.14286 7.14286,0 0,7.14286 7.14285,0 0,-7.14286 0,-7.14286 0,-7.14286 -7.14285,0 z m -407.143,21.42858 7.14286,0 0,7.14286 7.14286,0 0,7.14286 7.14286,0 0,7.14278 7.14286,0 0,7.14287 7.14286,0 0,7.14286 7.14286,0 0,7.14285 7.14286,0 0,7.14287 7.14286,0 0,7.14285 -7.14286,0 0,7.14286 -7.14286,0 0,7.14287 -7.14286,0 0,7.14285 -7.14286,0 0,7.14286 -7.14286,0 0,7.14286 -7.14286,0 0,7.14286 -7.14286,0 0,7.14286 -7.14286,0 0,-7.14286 -7.14286,0 0,-7.14286 -7.14286,0 0,-7.14286 -7.14285,0 0,-7.14286 -7.14287,0 0,-7.14285 -7.14286,0 0,-7.14287 -7.14285,0 0,-7.14286 -7.14287,0 0,-7.14285 7.14287,0 0,-7.14287 7.14285,0 0,-7.14285 7.14286,0 0,-7.14286 7.14287,0 0,-7.14287 7.14285,0 0,-7.14278 7.14286,0 0,-7.14286 7.14286,0 0,-7.14286 z m 0,7.14286 0,7.14286 -7.14286,0 0,7.14278 -7.14286,0 0,7.14287 -7.14285,0 0,7.14286 -7.14287,0 0,7.14285 -7.14286,0 0,7.14287 -7.14285,0 0,7.14285 7.14285,0 0,7.14286 7.14286,0 0,7.14287 7.14287,0 0,7.14285 7.14285,0 0,7.14286 7.14286,0 0,7.14286 7.14286,0 0,7.14286 7.14286,0 0,-7.14286 7.14286,0 0,-7.14286 7.14286,0 0,-7.14286 7.14286,0 0,-7.14285 7.14286,0 0,-7.14287 7.14286,0 0,-7.14286 7.14286,0 0,-7.14285 -7.14286,0 0,-7.14287 -7.14286,0 0,-7.14285 -7.14286,0 0,-7.14286 -7.14286,0 0,-7.14287 -7.14286,0 0,-7.14278 -7.14286,0 0,-7.14286 -7.14286,0 z m 0,21.42851 7.14286,0 0,7.14286 7.14286,0 0,7.14285 7.14286,0 0,7.14287 7.14286,0 0,7.14285 -7.14286,0 0,7.14286 -7.14286,0 0,7.14287 -7.14286,0 0,7.14285 -7.14286,0 0,-7.14285 -7.14286,0 0,-7.14287 -7.14286,0 0,-7.14286 -7.14285,0 0,-7.14285 7.14285,0 0,-7.14287 7.14286,0 0,-7.14285 7.14286,0 0,-7.14286 z m 0,7.14286 0,7.14285 -7.14286,0 0,7.14287 -7.14286,0 0,7.14285 7.14286,0 0,7.14286 7.14286,0 0,7.14287 7.14286,0 0,-7.14287 7.14286,0 0,-7.14286 7.14286,0 0,-7.14285 -7.14286,0 0,-7.14287 -7.14286,0 0,-7.14285 -7.14286,0 z m -350.000123,0 0,7.14285 -7.142859,0 0,7.14287 -7.14286,0 0,7.14285 7.14286,0 0,7.14286 7.142859,0 0,7.14287 7.142863,0 0,-7.14287 7.142857,0 0,-7.14286 7.142857,0 0,-7.14285 -7.142857,0 0,-7.14287 -7.142857,0 0,-7.14285 -7.142863,0 z m 700.000263,0 0,7.14285 -7.14286,0 0,7.14287 -7.14285,0 0,7.14285 7.14285,0 0,7.14286 7.14286,0 0,7.14287 7.14286,0 0,-7.14287 7.14285,0 0,-7.14286 7.14286,0 0,-7.14285 -7.14286,0 0,-7.14287 -7.14285,0 0,-7.14285 -7.14286,0 z m -442.85731,7.14285 0,7.14287 -7.14286,0 0,7.14285 7.14286,0 0,7.14286 7.14285,0 0,-7.14286 7.14287,0 0,-7.14285 -7.14287,0 0,-7.14287 -7.14285,0 z m 185.71435,0 0,7.14287 -7.14286,0 0,7.14285 7.14286,0 0,7.14286 7.14286,0 0,-7.14286 7.14286,0 0,-7.14285 -7.14286,0 0,-7.14287 -7.14286,0 z m -242.85723,7.14287 7.14286,0 0,7.14285 -7.14286,0 0,-7.14285 z m 150.00005,0 7.14286,0 0,7.14285 -7.14286,0 0,-7.14285 z m 150.00005,0 7.14287,0 0,7.14285 -7.14287,0 0,-7.14285 z M 0,942.21933 l 0,7.14286 0,7.14286 0,7.14286 0,7.14286 0,7.14286 7.14286,0 0,-7.14286 7.142859,0 0,-7.14286 7.14286,0 0,-7.14286 -7.14286,0 0,-7.14286 -7.142859,0 0,-7.14286 -7.14286,0 z m 821.42886,7.14286 0,7.14286 -7.14286,0 0,7.14286 7.14286,0 0,7.14286 7.14285,0 0,-7.14286 0,-7.14286 0,-7.14286 -7.14285,0 z m -428.57157,7.14286 7.14285,0 0,7.14286 -7.14285,0 0,7.14286 -7.14287,0 0,7.14286 -7.14286,0 0,7.14286 -7.14285,0 0,7.14286 -7.14287,0 0,-7.14286 7.14287,0 0,-7.14286 7.14285,0 0,-7.14286 7.14286,0 0,-7.14286 7.14287,0 0,-7.14286 z m 42.85715,0 7.14286,0 0,7.14286 7.14286,0 0,7.14286 7.14286,0 0,7.14286 7.14286,0 0,7.14286 7.14286,0 0,7.14286 -7.14286,0 0,-7.14286 -7.14286,0 0,-7.14286 -7.14286,0 0,-7.14286 -7.14286,0 0,-7.14286 -7.14286,0 0,-7.14286 z m -314.28583,21.42858 0,7.14286 -7.14285,0 0,7.14286 -7.14287,0 0,7.14286 7.14287,0 7.14285,0 7.14286,0 7.14287,0 7.14285,0 0,-7.14286 -7.14285,0 0,-7.14286 -7.14287,0 0,-7.14286 -7.14286,0 z m 114.28576,0 0,7.14286 -7.14286,0 0,7.14286 -7.14286,0 0,7.14286 7.14286,0 7.14286,0 7.14286,0 7.14286,0 7.14286,0 0,-7.14286 -7.14286,0 0,-7.14286 -7.14286,0 0,-7.14286 -7.14286,0 z m 357.14299,0 0,7.14286 -7.14287,0 0,7.14286 -7.14285,0 0,7.14286 7.14285,0 7.14287,0 7.14285,0 7.14286,0 7.14287,0 0,-7.14286 -7.14287,0 0,-7.14286 -7.14286,0 0,-7.14286 -7.14285,0 z m 114.28575,0 0,7.14286 -7.14286,0 0,7.14286 -7.14286,0 0,7.14286 7.14286,0 7.14286,0 7.14289,0 7.14286,0 7.14285,0 0,-7.14286 -7.14285,0 0,-7.14286 -7.14286,0 0,-7.14286 -7.14289,0 z"
       style="display:inline;fill:#ff0000;fill-opacity:1;stroke:none" />
  </g>
</svg>
