<?xml version="1.0" encoding="UTF-8" standalone="no"?>
<svg
   xmlns:osb="http://www.openswatchbook.org/uri/2009/osb"
   xmlns:dc="http://purl.org/dc/elements/1.1/"
   xmlns:cc="http://creativecommons.org/ns#"
   xmlns:rdf="http://www.w3.org/1999/02/22-rdf-syntax-ns#"
   xmlns:svg="http://www.w3.org/2000/svg"
   xmlns="http://www.w3.org/2000/svg"
   version="1.1"
   id="svg3398"
   viewBox="0 0 1097.6337 2128.3902"
   height="600.67902mm"
   width="309.77661mm">
  <defs
     id="defs3400">
    <linearGradient
       osb:paint="solid"
       id="linearGradient6470">
      <stop
         id="stop6472"
         offset="0"
         style="stop-color:#fde5a9;stop-opacity:1;" />
    </linearGradient>
  </defs>
  <metadata
     id="metadata3403">
    <rdf:RDF>
      <cc:Work
         rdf:about="">
        <dc:format>image/svg+xml</dc:format>
        <dc:type
           rdf:resource="http://purl.org/dc/dcmitype/StillImage" />
        <dc:title></dc:title>
      </cc:Work>
    </rdf:RDF>
  </metadata>
  <g
     transform="translate(-3150.865,802.20544)"
     style="display:inline"
     id="layer2">
    <rect
       y="-802.20544"
       x="3150.865"
       height="2128.3901"
       width="1097.6337"
       id="rect6795"
       style="opacity:1;fill:#fde5a9;fill-opacity:1;stroke:none;stroke-width:0.13;stroke-linecap:round;stroke-linejoin:round;stroke-miterlimit:4;stroke-dasharray:none;stroke-dashoffset:0;stroke-opacity:1" />
    <path
       id="rect6775"
       d="m 3171.6812,-779.66547 217.5473,0 141.4398,0.12447 -6.748,60.61654 19.5268,-0.75977 77.5529,90.76416 -42.6727,1031.40543 -189.0988,157.87682 -217.5473,0 z"
       style="opacity:1;fill:#b5c3ce;fill-opacity:1;stroke:none;stroke-width:0.13;stroke-linecap:round;stroke-linejoin:round;stroke-miterlimit:4;stroke-dasharray:none;stroke-dashoffset:0;stroke-opacity:1" />
    <path
       style="fill:#d81921;fill-opacity:1"
       d="m 3327.814,-527.25477 115.6432,-110.62404 116.0985,-38.78183 -30.1211,-101.38925 -0.01,-1.49111 694.3306,3.82567 0,921.89042 0,921.89041 -609.8552,0 -441.4291,0 c 409.6353,-526.953 386.663,-974.526735 139.6622,-1380.99348 z"
       id="path4165" />
    <path
       id="path6793"
       d="m 3313.4999,-371.91069 63.7035,-273.71312 380.8603,41.10076 c 0,0 227.6863,138.16499 227.6863,138.16499 l 1.24,405.76592 -372.3133,79.794 c 0,0 -40.9377,-10.1597893 -105.2063,-77.6531 -64.2686,-67.49331 -195.9705,-313.45945 -195.9705,-313.45945 z"
       style="fill:#fde5a9;fill-opacity:1;fill-rule:evenodd;stroke:#000000;stroke-width:1px;stroke-linecap:butt;stroke-linejoin:miter;stroke-opacity:1" />
  </g>
  <g
     transform="translate(-3150.865,802.20544)"
     style="display:inline"
     id="layer1">
    <path
       id="path6742"
       d="m 3173.2881,541.01429 c 73.2026,-4.78012 100.3705,-23.08262 139.8607,-45.23382 l 800.7985,-74.15753 c 0,0 86.3118,1.39553 109.8079,1.40858 -0.027,31.015 0,45.88067 0,73.74952 l 2.8022,765.59186 -1053.0622,-0.8935 z"
       style="fill:#b5c3ce;fill-opacity:1;fill-rule:evenodd;stroke:none;stroke-width:1px;stroke-linecap:butt;stroke-linejoin:miter;stroke-opacity:1" />
    <path
       id="path4163"
       d="m 3313.6572,479.60837 c 53.8051,-42.62463 182.743,-33.15107 148.8282,-136.07508 -37.2997,-51.19616 -80.5252,-97.55864 -115.9482,-150.8171 -45.6793,-42.30594 -26.8464,-108.757223 -58.8268,-158.906866 -5.4558,-66.224078 7.8286,-135.348004 -22.0218,-199.967144 -27.4499,-87.73387 -36.8024,-185.74597 1.1569,-271.69131 27.8684,-66.52742 32.9424,-144.50833 86.4673,-197.50268 64.0208,-42.09595 146.0145,-21.36014 217.8148,-36.57963 140.6166,-2.88805 274.8902,23.22436 409.9291,63.48587 110.8782,65.63593 168.1903,188.98068 162.5675,314.41037 9.1899,66.60234 -4.2083,133.91834 10.7298,200.30019 -1.3025,64.786674 15.5757,146.389518 -54.3754,183.45069 -35.6423,58.12578 -44.653,121.40967 -60.8686,183.22109 3.3573,71.82336 2.4836,150.59695 106.6686,157.55305 C 4080.1013,1040.5843 3686.2038,972.14139 3427.625,838.55978 3298.3287,762.27514 3245.3993,543.48474 3313.6572,479.60837 Z M 4095.0034,14.36041 c 22.5622,-22.5890874 -48.4823,19.356523 0,0 z m 34.4966,-7.61486 -3.9617,0.5114244 z m -371,-87.66413 c 33.5423,-4.566994 53.1422,-33.10907 50.0755,-18.008253 43.2245,-12.309977 120.7592,-45.681647 112.3817,-70.982007 50.2506,4.97919 -7.2467,-53.72565 -34.2156,-14.03399 -60.0059,13.57902 -125.147,62.19248 -181.7048,20.45503 -38.721,16.64256 31.218,78.811471 53.4632,82.56922 z m -149.9379,-0.33434 c -23.004,-47.37095 53.1974,-165.28056 -30.9377,-150.98325 1.2505,36.42465 -33.4212,157.503541 30.9377,150.98325 z m -1.2311,-255.83874 c 70.9895,-37.0623 153.8647,-56.88744 237.6038,-30.92523 -10.1199,-30.28517 10.8373,-80.53126 -26.2374,-57.05224 -12.1366,-41.85047 56.4942,-92.42317 -21.0052,-108.37947 -49.7768,-58.16529 -143.9802,-45.64602 -216.5216,-53.47828 -70.211,23.78944 -161.7487,29.99842 -196.1797,106.32861 -39.3135,52.08254 -29.1085,162.71591 47.4707,150.65891 38.4592,0.47971 103.8799,29.91 174.8694,-7.1523 z"
       style="fill:#b5c3ce;fill-opacity:1" />
    <path
       transform="translate(3150.865,-802.20544)"
       id="path4161"
       d="M 378.44922 23.832031 C 377.91385 23.846452 377.32022 23.918976 376.63867 24.042969 C 374.71147 24.393569 371.78477 24.674062 370.13477 24.664062 C 366.75617 24.643913 353.51585 27.260847 349.50195 28.742188 C 348.05405 29.276528 345.60695 31.030585 344.06445 32.640625 C 342.52195 34.250665 340.5243 35.568359 339.625 35.568359 C 337.9828 35.568359 330.13194 43.353203 327.08594 48.001953 C 325.08514 51.055653 322.034 52.144093 320.0625 50.507812 C 319.2505 49.833993 318.43641 49.459901 318.25391 49.675781 C 316.38901 51.881031 310.61295 61.06264 310.12695 62.59375 C 309.45435 64.71282 307.97648 65.069504 305.73828 63.652344 C 304.76508 63.036144 304.51878 61.675709 304.92578 59.167969 C 305.56978 55.199399 305.01878 54.940394 298.64648 56.214844 C 296.20408 56.703334 295.06647 57.685824 294.00977 60.214844 C 293.23937 62.058704 291.95872 63.568359 291.16602 63.568359 C 290.31342 63.568359 289.46067 64.98185 289.07617 67.03125 C 288.32587 71.03089 286.08706 73.419104 284.53906 71.871094 C 283.85726 71.189224 284.0074 68.783168 285 64.486328 C 285.8099 60.980968 286.25684 57.764894 285.99414 57.339844 C 285.07634 55.854884 283.63477 56.584613 283.63477 58.533203 C 283.63477 59.613853 282.75463 60.968582 281.67773 61.544922 C 277.43933 63.813252 276.56956 54.754921 280.19336 46.082031 C 283.16246 38.975881 277.33216 41.324132 273.53516 48.763672 C 272.49756 50.796682 270.96215 52.844903 270.12305 53.314453 C 269.28405 53.784013 267.76926 55.719748 266.75586 57.617188 C 265.51206 59.945907 264.08026 61.168443 262.35156 61.376953 C 260.21946 61.634133 259.67738 62.356153 259.11328 65.695312 C 258.21488 71.012493 256.14646 71.643657 252.47656 67.716797 C 247.19306 62.063477 243.33858 64.567539 243.08398 73.818359 C 242.96258 78.227169 243.12799 78.568359 245.40039 78.568359 C 247.17959 78.568359 247.68329 78.978199 247.24219 80.068359 C 245.28029 84.916559 245.32529 85.057969 248.05469 82.568359 C 250.76849 80.092849 250.81127 80.087949 252.25977 82.068359 C 253.06437 83.168359 253.97641 85.080859 254.28711 86.318359 C 254.98611 89.102109 256.6451 89.242535 257.3418 86.578125 C 258.1754 83.390615 259.63477 85.331363 259.63477 89.626953 C 259.63477 92.844153 259.28345 93.568359 257.71875 93.568359 C 255.30045 93.568359 254.64578 95.358719 255.89258 98.568359 C 256.42678 99.943359 256.98386 104.36488 257.13086 108.39453 C 257.45926 117.39273 255.97903 118.65358 251.48633 113.20312 C 249.62643 110.94672 247.61701 109.56836 246.19141 109.56836 C 244.33011 109.56836 243.66116 108.73289 242.66406 105.17188 C 241.98766 102.75449 241.72724 99.852776 242.08594 98.722656 C 243.22004 95.149406 237.83431 87.568359 234.16211 87.568359 C 232.79351 87.568359 232.97838 100.29053 234.39648 103.69336 C 234.99828 105.13747 235.99904 108.20307 236.61914 110.50586 C 237.23914 112.80865 237.99348 115.34026 238.29688 116.13086 C 238.60027 116.92146 238.35099 117.56836 237.74219 117.56836 C 237.13329 117.56836 236.6148 117.00586 236.5918 116.31836 C 236.5393 114.77017 229.86131 110.39316 229.19531 111.4707 C 228.50201 112.59261 234.14528 123.93145 239.26758 131.70703 C 241.65647 135.33334 243.20011 138.24987 243.91992 140.48633 C 243.70269 140.53684 243.50075 140.5842 243.2832 140.63477 C 226.54476 148.16068 212.54123 158.6961 200.56055 171.24609 C 192.54446 177.92732 182.33398 189.26808 179.48633 194.87891 C 178.31723 197.1825 176.05403 200.97518 174.45703 203.30664 C 172.86003 205.63809 170.92344 209.33401 170.15234 211.51953 C 169.38124 213.70505 167.80489 216.77049 166.65039 218.33203 C 165.58456 219.77363 164.87209 221.76238 164.39453 224.67969 C 156.11187 241.19464 149.07433 258.58407 142.5332 275.79297 C 142.56408 276.11531 142.58608 276.43625 142.61133 276.75781 L 141.50781 279.06836 L 142.18359 287.24023 L 142.31641 288.83594 C 141.41079 296.30928 139.25804 303.61223 136.5 310.8418 L 132.83398 319.74023 C 132.8066 319.80669 132.79879 319.82436 132.77148 319.89062 C 126.15765 334.9689 118.08571 349.90172 114.46875 365.57031 C 113.96579 367.25043 113.74138 368.41562 113.68359 369.4043 C 112.93763 373.53687 112.51359 377.72293 112.55273 381.98242 C 106.1278 392.81447 101.69583 404.14147 98.623047 415.79297 L 95.78125 422.4043 L 95.298828 431.37305 C 90.472909 460.35912 92.179373 490.83768 91.634766 520.38867 C 91.932119 523.6593 92.28686 526.92296 92.669922 530.18359 L 92.71875 540.41016 L 95.957031 552.85742 C 102.91574 593.44014 115.05125 633.41662 125.60547 673.56445 C 127.63554 681.64141 129.81893 690.39783 131.70703 698.06836 L 133.43555 705.08984 C 134.64682 710.3619 135.80794 715.63909 136.88867 720.92578 C 136.74351 744.06995 135.86045 766.97582 136.29688 789.57422 C 136.18644 790.07824 136.106 790.45966 135.99023 790.98633 C 132.66453 806.11568 132.54689 807.31211 133.58789 815.13477 C 134.70242 823.50991 135.57353 826.94117 141.33984 845.35156 C 145.31472 866.8191 152.17777 887.93719 163.85547 908.63672 C 160.05877 935.08194 165.47777 953.31051 175.02734 968.20508 C 176.42731 974.11152 177.66023 978.23191 178.49805 979.43555 C 179.50605 980.88365 182.02455 985.12533 184.09375 988.86133 C 187.57445 995.14623 188.38382 995.91938 194.91602 999.20898 C 200.35069 1001.9458 201.95871 1002.5423 205.5957 1002.3223 C 212.40544 1009.0497 219.15327 1016.0081 225.09375 1023.9238 C 231.08222 1037.1028 237.4327 1049.5458 240.76367 1054.4395 C 240.97032 1055.1271 241.17959 1055.8139 241.37305 1056.5156 C 243.41931 1059.084 245.52575 1061.614 247.6582 1064.127 C 249.25756 1066.3714 250.35549 1067.8898 251.89844 1070.0684 C 264.75057 1088.2146 281.15269 1106.4552 294.91406 1118.0781 C 316.41235 1146.2354 329.41902 1177.2251 313.78516 1220.2129 C 285.69736 1243.06 246.32733 1277.759 276.24023 1281.3672 C 249.56693 1377.2245 329.46141 1168.7837 302.59961 1265.9238 C 281.01581 1355.0567 324.00849 1443.9392 356.27539 1525.293 C 368.39743 1557.8319 386.92834 1587.103 410.03125 1612.1172 C 416.3881 1619.5363 422.91454 1625.8842 430.45703 1632.0938 C 475.03189 1671.4828 532.00444 1697.0232 591.63477 1703.4004 C 636.86297 1706.629 683.10493 1699.4851 724.99023 1681.9434 C 739.2468 1675.4637 755.44582 1665.0361 772.54492 1651.502 C 775.14658 1649.5875 778.44291 1646.8664 781.76562 1643.959 C 866.82883 1572.4373 969.08906 1429.7257 967.41016 1310.8926 C 968.64301 1302.7126 969.64088 1272.121 968.65234 1266.6699 C 963.47404 1238.1129 948.00958 1213.6725 929.77148 1205.2227 C 928.75486 1204.7516 927.75094 1204.2559 926.76562 1203.7441 C 923.42019 1200.0753 919.85678 1196.4915 916.04883 1193.0039 C 897.92303 1159.5675 893.19322 1120.0164 889.13672 1081.2773 C 888.43012 1074.5292 893.60556 1055.1908 899.03906 1040.3164 C 903.99616 1026.746 911.58392 1018.6035 913.82812 1013.0371 C 925.95993 982.945 920.22292 972.00468 925.47852 940.02539 C 925.65237 938.96757 925.78668 938.02462 925.94336 937.01367 C 928.4449 934.56646 930.8246 931.21075 932.29102 928.00781 C 934.77482 922.58231 934.86462 921.89511 933.66602 917.63281 C 931.09262 908.48121 931.02664 908.83009 935.58984 907.46289 C 940.65614 905.94509 941.85517 903.92689 941.51367 897.49219 C 941.36937 894.77399 941.67546 892.13923 942.19336 891.63477 C 942.71126 891.1303 946.69583 889.80912 951.04883 888.70117 C 958.10954 886.90402 959.34785 886.25682 965.06445 880.70117 C 965.51039 880.54352 965.93094 880.39 966.38867 880.23047 C 986.57532 864.55059 995.58763 844.5212 999.50586 822.75195 C 999.54881 822.69047 999.58772 822.64115 999.63477 822.56836 C 1000.6825 820.94713 1000.8488 819.28439 1000.1602 818.75586 C 1004.2158 791.9201 1001.2293 762.72884 1002.2559 735.92969 C 1001.859 726.3975 1001.2521 716.92128 1000.582 707.47656 C 1000.6105 705.6664 1000.6236 703.68918 1000.6211 700.92383 C 1000.6115 690.7937 1000.0611 684.514 998.57031 677.56836 C 998.46568 677.08085 998.38747 676.67372 998.28711 676.19922 C 997.1526 660.19425 996.23036 644.23321 996.18359 628.23438 C 997.09498 618.15796 997.37445 608.27957 997.22461 598.93555 C 998.12904 587.34618 999.67948 575.7096 1002.1445 563.99219 C 991.97903 488.50488 996.20421 411.2708 953.84961 343.75586 C 931.33801 264.04356 868.33396 215.93445 801.59766 173.86719 C 789.26044 165.49843 777.41174 156.36543 765.7793 146.91016 C 762.6019 140.12284 758.84355 133.37896 754.13477 129.48047 C 746.98459 123.56072 738.53431 119.83087 729.56055 116.59375 C 699.79463 91.578836 669.56696 67.511252 634.13477 52.099609 C 616.51043 53.892983 600.4895 56.025087 584.9375 58.566406 C 581.61434 58.528013 576.07164 58.085605 572.46875 57.564453 C 568.80255 57.034143 558.45255 56.37199 549.46875 56.09375 C 540.48495 55.8155 530.74291 55.095991 527.82031 54.494141 C 524.89761 53.892301 518.37261 53.003161 513.32031 52.519531 C 508.26791 52.035901 500.98477 51.216889 497.13477 50.699219 C 492.96867 50.139019 486.7035 50.10921 481.6582 50.625 C 473.579 51.45095 472.976 51.371611 468.8125 48.931641 C 465.6837 47.098081 463.54816 46.518442 461.28906 46.888672 C 458.02716 47.423242 447.83557 49.894665 443.88477 51.109375 C 441.06217 51.977185 440.90101 50.195866 443.62891 48.285156 C 444.72541 47.517136 445.32599 46.591676 444.96289 46.228516 C 443.87439 45.140036 436.51664 45.482093 432.90234 46.789062 C 430.08154 47.809083 429.37624 47.767992 428.61914 46.539062 C 427.93364 45.426412 424.72163 44.934768 415.42383 44.523438 C 402.44443 43.949237 397.37607 45.011664 390.48047 49.746094 C 386.91717 52.192664 386.58486 34.069899 387.28516 30.568359 C 387.73446 28.321989 387.51431 27.568359 386.41211 27.568359 C 385.60251 27.568359 383.86247 26.630698 382.54297 25.486328 C 381.14302 24.272161 380.05532 23.788769 378.44922 23.832031 z M 251.03711 57.757812 C 250.75106 57.690145 250.63477 57.997678 250.63477 58.701172 C 250.63477 59.544512 250.96218 60.561851 251.36328 60.962891 C 251.76428 61.363931 252.26566 61.175469 252.47656 60.542969 C 252.68736 59.910469 252.35995 58.891167 251.74805 58.279297 C 251.44178 57.973046 251.20874 57.798413 251.03711 57.757812 z M 267.66992 65.568359 C 268.75982 65.568359 268.89951 67.976619 268.00391 71.318359 C 267.24101 74.165139 266.03433 74.20419 265.30273 71.40625 C 264.69093 69.06667 266.10952 65.568359 267.66992 65.568359 z M 253.77734 76.951172 C 254.13731 76.908166 254.55531 77.669656 255.30469 79.433594 C 257.02129 83.474194 256.59813 84.290108 254.17383 81.611328 C 253.02493 80.341728 252.65667 79.007939 253.13477 77.855469 C 253.36787 77.293565 253.56136 76.976976 253.77734 76.951172 z M 285.33984 80.914062 C 286.07362 80.989472 286.42781 81.944228 285.95898 83.166016 C 285.66308 83.937236 285.0205 84.568359 284.5293 84.568359 C 283.3862 84.568359 283.36019 81.856347 284.49609 81.154297 C 284.80832 80.961344 285.09525 80.888926 285.33984 80.914062 z M 242.63477 85.568359 C 240.38497 85.568359 240.07002 86.603235 241.79492 88.328125 C 243.17342 89.706625 244.63477 89.026602 244.63477 87.007812 C 244.63477 86.215273 243.73477 85.568359 242.63477 85.568359 z M 250.5332 90.654297 C 249.402 90.581846 251.96813 97.375873 251.98438 92.035156 C 251.25284 91.053609 250.79425 90.671016 250.5332 90.654297 z M 246.24023 93.830078 C 246.07413 93.844582 245.90721 93.898476 245.74609 93.998047 C 244.52569 94.752317 244.24468 97.844341 245.30078 98.900391 C 246.60348 100.20311 248.63414 99.541489 248.61914 97.818359 C 248.59972 95.596288 247.40294 93.728548 246.24023 93.830078 z M 227.63477 103.56836 C 227.08477 103.56836 226.63477 104.46836 226.63477 105.56836 C 226.63477 106.66836 227.08477 107.56836 227.63477 107.56836 C 228.18477 107.56836 228.63477 106.66836 228.63477 105.56836 C 228.63477 104.46836 228.18477 103.56836 227.63477 103.56836 z M 232.4668 105.54297 C 231.16939 105.29248 231.55891 109.48316 233.63477 106.56836 C 233.15572 105.89571 232.7662 105.60077 232.4668 105.54297 z M 485.36523 197.32812 C 503.53242 197.47558 521.70292 199.98403 539.9043 205.94336 C 588.1439 212.51794 633.72888 231.37902 674.86328 253.58594 C 704.17058 271.27304 734.89703 287.7428 758.04883 310.64844 C 784.17313 331.81798 767.15058 367.11374 775.98828 384.44727 C 800.92378 426.02147 757.50386 389.70331 766.56836 411.40039 C 748.18106 428.10042 783.61377 445.78508 767.32227 458.17578 C 746.75647 455.02418 780.1741 516.76525 746.0918 488.68555 C 739.1839 467.52115 716.30289 442.29841 665.83789 435.65039 C 601.45309 433.0296 539.31459 458.32405 482.99609 477.06836 C 460.13839 484.676 441.60607 497.86584 433.94727 499.90625 C 408.06847 506.80071 387.96597 504.90425 355.20117 495.64062 C 299.74657 497.77985 231.63287 486.42175 182.63477 522.58789 C 168.16167 506.20065 173.84087 457.38667 162.63477 430.29492 C 155.92177 377.94718 197.90675 323.91967 236.37305 285.63281 C 278.74945 252.89968 323.95599 238.92172 365.18359 219.05664 C 405.44112 208.10951 445.39742 197.00372 485.36523 197.32812 z M 656.60156 523.08203 C 661.09552 523.12425 665.37277 523.39541 669.06055 523.94336 C 672.61508 525.23728 676.34209 526.77475 680.30664 528.57227 C 681.49186 530.4562 680.89132 532.89468 677.75781 536.00391 C 667.46841 541.4298 656.28171 522.23507 644.09961 533.95898 C 592.63205 531.21875 628.60798 522.81902 656.60156 523.08203 z M 796.94141 533.87305 C 801.7327 534.14023 806.53872 538.96863 811.54492 550.87891 C 825.21122 569.4145 844.70865 557.5398 852.62305 605.77734 C 884.30745 649.32949 847.12253 673.52851 826.05273 704.4043 C 794.74023 723.62667 770.79852 739.90063 748.44922 756.48242 C 728.97442 773.79192 714.13631 765.41578 711.59961 777.66211 C 684.23741 795.72616 742.16685 834.36998 687.15625 825.79297 C 684.19725 835.32136 659.79165 808.7655 675.78125 820.02539 C 678.68875 803.43177 635.94432 803.96457 629.51562 787.76953 C 602.92742 776.1549 583.78372 746.66266 553.98242 718.54883 C 495.88472 668.62299 575.23547 771.17112 533.63477 756.05273 C 497.21937 708.06078 418.32723 774.735 391.79883 705.67188 C 374.52373 660.69835 348.14052 776.86613 320.45312 789.95703 C 297.98943 800.57812 297.67503 827.40421 266.26953 806.05664 C 259.79813 801.65775 224.13122 788.88248 215.85742 784.76172 C 160.22912 784.23428 152.15373 719.77406 223.79883 713.87695 C 248.27883 711.862 268.07584 689.57733 288.58594 679.15625 C 317.57244 664.42838 334.99035 657.36213 367.40625 653.05664 C 402.17005 648.43928 407.25972 654.71826 407.60352 612.46484 C 407.93992 571.12946 443.97336 508.06723 464.75586 546.23438 C 492.33476 596.8831 533.00357 635.73277 582.38477 615.7207 C 640.68867 641.03991 689.6604 601.06409 737.75 590.70508 C 762.90828 590.14148 779.82966 532.91883 796.94141 533.87305 z M 970.64258 633.72461 C 976.94744 633.6934 983.54003 637.05623 986.04688 647.25586 L 981.63477 647.56836 L 979.75 646.56836 C 944.29081 650.29135 956.77188 633.79326 970.64258 633.72461 z M 968.55469 714.79883 C 971.62981 714.55229 978.92631 722.5291 985.28516 734.81641 C 986.77488 739.41444 988.63907 744.15051 989.46875 745.42383 C 989.84287 745.99797 990.18418 746.39534 990.50391 746.64258 C 991.37835 749.00352 992.19048 751.44259 992.91211 753.95508 C 1012.44 776.21451 990.48367 810.91135 962.43359 823.63477 C 960.75039 820.11976 956.64431 821.46662 950.4082 827.58594 C 947.2215 828.23336 944.02114 828.56563 940.85352 828.52344 C 877.84812 820.2317 955.43317 815.75833 939.23047 788.41992 C 928.30367 787.72077 946.42975 786.87532 962.05273 779.71094 C 966.86286 782.07119 971.26874 782.40363 973.05078 780.4707 C 973.76258 779.69855 975.3141 775.91836 976.5 772.06836 C 977.07291 770.20839 977.46895 768.75363 977.74414 767.41602 C 981.45496 761.49375 982.14947 753.83271 977.04883 743.87891 C 966.61893 723.45014 965.4907 715.04448 968.55469 714.79883 z M 912.74805 720.14453 C 916.4936 720.39866 921.45561 725.93865 927.87891 739.95508 C 930.95001 791.63071 921.19293 729.47596 909.95703 768.56836 C 902.07347 799.50269 898.05395 719.14755 912.74805 720.14453 z M 575.06836 787.36523 C 596.12636 787.48271 622.52454 822.91441 637.85352 835.7832 C 652.28952 861.55134 636.11884 886.38003 603.55664 872.53516 C 570.82384 853.96156 572.43197 879.6885 552.63477 878.56836 C 546.31477 884.51162 536.96684 875.80435 530.14844 877.17383 C 526.03248 876.92402 522.31746 876.60926 518.94531 876.23633 C 508.68724 873.38978 501.9425 871.74657 497.10352 871.08594 C 476.77537 860.44746 519.20367 838.90509 542.86719 817.86133 C 543.97841 817.06894 545.12162 816.13725 546.10742 815.17578 C 547.07733 814.22986 547.87493 813.33599 548.59961 812.36523 C 551.32727 809.48382 553.56565 806.63022 555.08984 803.83594 C 560.5329 791.89962 567.45163 787.32274 575.06836 787.36523 z M 354.14258 830.90234 C 361.96258 830.26253 364.42146 860.85439 350.86914 882.16797 C 326.35784 893.08484 332.49674 872.94941 340.08984 858.90625 C 345.22484 838.97755 350.32351 831.21481 354.14258 830.90234 z M 985.51367 833.20312 C 992.14288 833.12973 994.34644 838.64037 982.28125 855.31836 C 947.54985 859.15722 957.65921 845.56712 971.26953 837.97852 C 971.93582 838.36089 972.54239 838.56836 973.06055 838.56836 C 974.30097 838.56836 978.52315 836.31602 982.45117 833.56055 C 983.54151 833.34137 984.57336 833.21354 985.51367 833.20312 z M 929.6875 844.38672 C 947.02319 844.5128 963.30267 850.38382 935.08594 863.15234 L 929.91797 864.41797 C 889.03839 851.48014 910.04039 844.24383 929.6875 844.38672 z M 513.7793 922.10156 C 521.83759 922.00829 525.71736 925.69415 503.25781 938.56836 C 501.80001 938.13421 483.5049 936.1711 497.9082 927.45508 C 496.30484 925.20756 506.66903 922.18386 513.7793 922.10156 z M 484.44336 932.33398 C 485.47555 932.39796 486.13164 933.44731 485.43555 936.36719 C 476.70971 938.44137 481.80554 932.17049 484.44336 932.33398 z M 594.51758 934.79688 C 636.98198 935.01172 622.44069 976.14838 590.91992 964.66406 C 550.90002 957.4225 572.63087 933.88005 592.45117 934.81836 C 593.1541 934.80078 593.84354 934.79346 594.51758 934.79688 z M 637.91016 987.99805 C 653.59488 988.48989 663.42855 1020.2443 638.9043 1009.6582 C 582.753 1014.0085 643.87123 1020.6779 641.61133 1041.8379 C 624.59273 1089.6239 562.63811 1076.3393 523.56641 1079.5332 C 489.49941 1070.7662 457.94047 1070.5097 427.04297 1079.0684 L 423.38477 1081.4863 C 374.95037 1050.1475 478.18434 1008.1664 511.96094 1009.7129 C 553.73884 1020.7526 582.35378 989.2358 621.33008 1000.6523 C 626.8027 991.14262 632.68191 987.8341 637.91016 987.99805 z M 445.65625 1707.4043 C 440.61227 1707.9697 491.4336 1743.714 519.20898 1749.1055 C 549.95418 1776.1033 592.08477 1783.7687 633.13477 1787.5625 C 655.80057 1790.0639 681.32837 1778.8986 695.91797 1761.3281 C 682.89447 1744.4151 748.77302 1732.9841 713.41992 1736.3809 C 688.41162 1754.8454 565.67113 1763.1893 622.04883 1752.291 C 616.22103 1750.4649 529.05569 1735.1598 501.74219 1728.209 C 571.41299 1756.284 513.35136 1739.7275 476.78906 1723.6992 C 456.61309 1711.5983 447.48067 1707.1998 445.65625 1707.4043 z M 607.50977 1708.3848 C 586.96906 1708.6604 574.68312 1712.9251 603.63477 1728.9258 C 645.33915 1740.4973 624.54335 1713.7477 648.65625 1710.75 C 637.38689 1709.6862 620.81554 1708.2062 607.50977 1708.3848 z M 648.65625 1710.75 C 659.75447 1711.7976 665.7159 1712.4414 657.58203 1710.6406 C 654.05934 1710.3835 651.1235 1710.4433 648.65625 1710.75 z M 494.67578 1723.4766 C 494.13594 1723.5141 493.80528 1724.0523 494.09375 1725.502 C 499.79548 1727.7508 496.2953 1723.3639 494.67578 1723.4766 z M 732.41016 1728.6562 C 731.91661 1728.7522 731.42497 1729.2873 731.15039 1730.5938 C 735.39419 1732.0244 733.89079 1728.3684 732.41016 1728.6562 z M 704.41797 1730.5234 C 703.96056 1730.5823 703.36662 1730.8834 702.63477 1731.5684 C 705.80612 1734.5365 706.40006 1730.2684 704.41797 1730.5234 z M 553.66406 1747.2285 C 556.53614 1747.3015 560.95422 1748.4488 566.63477 1751.6387 C 549.07786 1753.8805 546.32432 1747.0421 553.66406 1747.2285 z "
       style="fill:#72959f;fill-opacity:1" />
    <path
       id="path4157"
       d="m 3518.8633,-776.19336 c -18.2177,-0.11317 -47.797,25.8753 -60.3672,40.55469 -10.0293,-1.2508 -9.0177,-15.2586 -24.8281,23.86914 -26.8072,-14.27873 14.3451,-17.98376 -9.6895,-33.46485 0.4125,23.33852 -17.4098,3.42367 -14.209,24.46485 23.8468,54.88949 -55.2211,17.33764 -14.3652,59.48047 -53.9707,26.17076 -81.4986,80.00811 -101.2949,135.24023 2.937,36.74135 -29.5214,68.13372 -29.7032,105.5586 -27.3848,45.07475 -19.131,98.85427 -20.8964,149.23242 12.2217,81.58959 48.0708,160.09742 47.8925,243.699216 -12.4043,29.1875085 4.4043,113.132868 24.6114,107.992188 4.8667,21.238646 25.1412,77.491436 29.5234,115.570316 35.6788,18.25287 -1.7125,-44.82201 -1.0351,-56.74219 -11.7527,-63.181304 -45.7345,-123.528794 -40.3633,-189.064454 -6.4741,19.235312 1.7841,-142.444466 19.4062,-85.093746 10.4248,44.49147 48.6336,-0.72028 78.7149,10.25781 47.1306,-30.20721 143.7003,-19.25576 146.0605,-92 26.0923,-30.29696 0.071,-62.80893 -31.0879,-72.69141 -35.6266,-8.77229 -77.2599,-12.06082 -118.5683,-9.00586 -42.0183,-23.24059 -100.9598,91.22552 -98.2676,23.94727 -21.1712,-69.78178 3.7366,-145.12649 46.1152,-202.23828 34.502,-56.93068 100.6756,-85.60743 156.6289,-109.92188 29.1665,-16.34204 76.9656,-18.79843 110.2852,-28.49414 42.7082,-8.51796 86.8283,19.56343 126.0019,14.16602 33.2877,14.77189 67.554,29.03714 97.8828,48.67578 29.7022,7.44918 68.8237,41.50138 80.8379,40.51172 13.686,16.6537 29.1782,57.1003 29.4414,94.88476 10.7814,42.19047 21.3855,87.40921 41.4356,127.82617 15.9029,63.48385 40.7859,125.4883 54.7226,189.191411 38.0421,-11.667941 34.7501,86.154128 53.002,60.90039 40.9291,34.2014911 26.2201,-40.16758 -6.5352,-50.496093 7.6126,-56.670958 43.687,-5.895444 50.4961,25.849609 40.3098,-53.429757 -41.4855,-133.289527 -56.1875,-49.105467 -26.1576,-32.52323 25.954,-87.5032 55.1797,-46.29492 18.5223,-29.02761 11.3711,-105.69551 7.5938,-152.85352 0.5095,-63.24094 -11.2542,-124.46443 -43.9766,-178.87109 -19.8578,-49.65222 -59.1164,-90.22057 -106.3281,-112.4336 -4.5857,-14.72709 -52.8114,-36.26632 -74.8301,-59.33984 -51.5921,-36.16004 -100.6152,-83.81289 -164.3144,-95.20703 -46.1821,-8.9732 -120.6656,-5.05829 -148.7481,-14.26563 -17.8674,0.0999 -62.1318,-0.98125 -78.2285,2.76563 -2.6969,-4.94587 -6.9069,-7.023 -12.0078,-7.05469 z m 36.9765,6.50391 c 0.2053,0.0636 0.4334,0.36525 0.6602,1.05078 -2.0039,2.89434 -1.5496,-1.32663 -0.6602,-1.05078 z m -129.416,15.74218 c -0.4754,0.0983 -1.1256,1.46394 -1.8926,5.14258 3.1836,5.67753 3.3189,-5.43758 1.8926,-5.14258 z m -27.1172,18.27344 c -0.4534,0.0603 -0.8937,0.70116 -1.1132,2.39649 3.9582,2.47272 2.4737,-2.57739 1.1132,-2.39649 z m 66.8926,4.60352 c 0.3024,0.0126 0.7261,0.24498 1.3008,0.81445 -1.0117,5.4759 -2.9338,-0.88271 -1.3008,-0.81445 z m -32.1191,5.09961 c -0.305,0.0188 -0.8091,0.39826 -1.5801,1.36523 0.4967,5.22459 2.9016,-1.44654 1.5801,-1.36523 z m 7.1191,15.34765 c 0.2959,0.0173 0.7211,0.41219 1.3008,1.42578 -1.4437,5.5145 -2.5828,-1.50075 -1.3008,-1.42578 z m -54.5625,2.12696 c -1.0206,-0.0716 -0.8691,3.73617 2.168,15.10742 10.7012,10.59827 0.4404,-14.92447 -2.168,-15.10742 z m 12.6485,29.66601 c 0.6628,-0.0193 2.1767,1.01556 4.9882,4.01367 -1.3028,5.58159 -6.9769,-3.95586 -4.9882,-4.01367 z m 18.0468,5.16797 c 0.2994,0.0578 0.689,0.35079 1.168,1.02344 -2.0759,2.9148 -2.4654,-1.27393 -1.168,-1.02344 z m 105.1426,67.49805 c 3.5468,-0.0971 28.1055,2.71948 5.9649,1.33203 -5.995,-0.94335 -7.1471,-1.29968 -5.9649,-1.33203 z m -39.6113,20.60156 c 1.8841,0.011 2.3672,0.84232 -1.4883,3.29883 -13.5818,0.6267 -2.6568,-3.32296 1.4883,-3.29883 z m 273.6055,234.66016 c -21.8199,-0.34595 -43.4866,7.45187 -66.004,15.17578 -26.8469,10.07142 -76.9511,22.26306 -74.9628,52.74804 26.1504,36.06278 42.0421,107.44451 104.6406,77.33985 26.8059,-1.67012 155.4232,-9.13669 66.1367,2.38867 -42.8603,-2.22069 -63.9217,13.57605 -8.2793,15.6582 18.5416,3.71674 34.7734,-4.71382 45.502,-11.04687 19.7191,-9.43987 74.4371,-21.85183 53.621,-46.08203 30.9393,-19.65868 -12.6863,-69.94603 -47.0859,-67.91797 -12.4309,-25.27225 -14.9779,0.0234 -33.9101,-27.07227 -13.4201,-7.84614 -26.5663,-10.98384 -39.6582,-11.1914 z m 30.9882,52.90039 c 27.3202,-0.71574 78.5162,15.78571 87.043,44.39453 -22.3667,-17.29102 -65.7856,-41.38093 -104.1602,-35.33985 -0.6081,-5.85888 6.4267,-8.77461 17.1172,-9.05468 z m -423.0918,7.94726 c 0.628,-0.0205 0.9804,0.376 0.5489,1.55664 -6.805,2.32164 -2.4327,-1.49524 -0.5489,-1.55664 z m 425.6055,5.45508 c 27.5532,-0.15033 63.6138,12.62506 67.5293,35.02734 -31.3856,-9.51948 -64.7916,-20.94157 -98.4609,-12.76757 -4.7513,-15.15685 10.8252,-22.15007 30.9316,-22.25977 z m -40.0039,60.29297 c 2.9012,-0.1397 6.6019,2.28233 9.5,9.91797 -18.398,3.09954 -15.8827,-9.61063 -9.5,-9.91797 z m -333.373,8.91797 c 22.8237,0.33648 -3.7368,10.4168 -27.2051,15.60156 -24.3665,12.24555 3.1984,-17.09854 9.1113,-14.69336 7.9469,-0.69896 13.8671,-0.97051 18.0938,-0.9082 z m 381.7382,20.72656 c 0.2994,0.0578 0.689,0.35079 1.168,1.02344 -2.0759,2.9148 -2.4654,-1.27393 -1.168,-1.02344 z m -487.666,15.75391 c 1.6604,0.18469 4.2849,4.80678 7.2559,18.11914 -10.0104,-0.27612 -10.6557,-18.49732 -7.2559,-18.11914 z m 152.7383,0.64453 c 0.2461,-0.008 0.5269,0.006 0.8457,0.043 -0.427,4.80067 -4.5371,0.0757 -0.8457,-0.043 z m -9.3965,18.03711 c 2.0218,-0.0386 1.6978,1.33963 -4.3926,5.48633 -21.263,3.96295 -0.7741,-5.3877 4.3926,-5.48633 z m -20.8984,6.36133 c 0.6353,-0.0723 1.1839,0.36579 1.3906,1.72656 -7.0449,5.31804 -3.6597,-1.4685 -1.3906,-1.72656 z m 603.9433,59.781246 c -0.7549,-0.09532 -1.5862,0.717711 -2.1113,3.349609 5.469,3.071839 4.0406,-3.106019 2.1113,-3.349609 z m -467.3691,39.753906 c -20.0941,0.113006 -37.6518,4.973027 -46.6602,25.169922 -47.4462,45.155922 55.4037,64.668158 -0.5254,93.097656 31.7153,18.051839 -18.6911,68.55962 -45.3261,59.13867 -63.0303,6.44594 -103.5944,-43.942088 -135.2364,-81.908201 -20.4229,-9.273704 -9.1121,23.105084 4.3125,26.794922 5.7135,11.262496 -17.3969,35.511979 10.4727,27.210937 -19.8685,34.123762 5.8899,28.191092 1.8496,75.345702 6.0149,37.00802 27.1284,48.31542 32.7246,68.16211 14.7146,15.57798 29.4889,34.66476 44.6016,51.8418 8.5379,21.4349 40.1788,30.16291 50.043,46.02344 -8.4959,2.96519 24.6758,31.92391 38.996,-3.18555 29.4192,14.20571 52.7686,47.98846 10.17,15.6914 -21.4333,1.09299 -30.5797,18.24053 -61.7461,-5.79296 0.9154,22.29782 4.724,55.07891 -2.377,76.23828 10.687,35.54408 16.7527,75.89561 32.0879,101.55078 2.4255,20.53765 -22.4201,22.56486 4.8438,41.55859 17.4036,42.98054 -45.5938,-24.86312 -14.4141,22.75391 4.6131,22.43668 -18.6142,7.65728 -25.1133,-2.35156 20.566,-1.85146 -0.091,-28.91776 8.5488,-22.35352 2.5813,-25.65376 -7.0687,-71.08443 -10.3867,-103.55273 -31.6383,14.05179 -12.9724,124.07661 5.6719,168.10937 27.3182,78.84587 56.0361,168.71897 129.1094,216.86914 -3.6544,-3.67259 -8.9508,-42.91561 -19.4922,-51.13281 -17.7755,-13.85629 -26.4513,-48.56024 -9.6602,-39.54883 19.863,16.33884 56.5158,34.93618 85.1206,40.4989 10.7884,2.09799 20.2901,-2.05231 27.5982,-0.0887 6.6928,1.79827 8.0056,9.48546 11.5932,12.46125 15.3497,12.73211 27.2022,6.83178 55.7134,19.92547 29.0479,3.45017 -0.8092,-17.58592 29.4239,-25.48829 23.2301,-10.95428 53.5133,-4.22039 46.664,18.21094 12.7079,-20.36219 45.6401,-31.71921 62.8613,-38.55664 16.4365,-6.52587 37.4656,-7.99612 49.8301,-35.57422 13.7,-30.55686 21.7934,-60.96653 38.5801,-83.95898 -8.1168,-21.44233 43.1258,-42.22699 16.9355,-56.02735 -12.7211,-6.70311 2.5035,-15.30229 4.1902,-22.33645 0.6363,-2.65364 -2.222,-2.78208 -6.0984,-7.1069 -1.9447,-2.16961 5.2726,-2.03144 7.6085,-3.12302 15.5016,-7.24392 22.2266,-17.03306 21.038,-35.7012 -17.4167,-29.95058 24.0252,2.77111 4.6563,-17.65235 10.6634,-29.21999 -14.7663,-21.1988 -29.9969,-4.69383 -1.8112,1.96271 -2.4757,5.3399 -4.923,6.19969 -2.6602,0.93459 -5.0631,-1.5269 -7.0302,-2.50453 -21.8045,-10.83676 0.7619,-38.45604 5.5555,-57.52086 12.5815,-50.03879 25.8632,-57.73723 22.0274,-112.01562 10.6001,-28.38497 13.9291,-40.38289 17.8457,-63.64454 0.1316,-19.77941 -0.5201,-45.5694 17.9815,-65.86145 3.5791,-3.92554 5.5237,-6.38775 9.9384,-10.7323 1.0843,-1.06698 1.8924,-14.42925 1.931,-15.93707 0.3136,-12.25169 -0.3067,-14.60558 0.2895,-28.3522 0.5801,-13.37383 11.6865,-25.46707 21.0608,-35.85135 -16.0604,-30.468152 50.0492,-51.946591 27.832,-55.148438 -34.7921,28.394068 -98.665,-40.674193 -37.9063,-38.146484 -24.7198,-53.527666 -32.4779,-4.803063 -40.0429,28.6875 -5.3844,44.040922 -15.3991,-5.824191 -14.9356,28.990234 -0.077,41.157978 -28.7479,100.951338 -57.1894,139.730468 -9.0852,25.93944 -93.1984,86.97377 -80.7442,50.67383 30.9049,-19.48508 45.7468,-50.46554 72.4571,-68.39453 23.5615,-11.49454 30.4003,-21.50215 36.5351,-48.30664 10.2136,-54.11172 -38.9207,21.93837 -37.0801,-21.19336 -21.8351,29.93559 -21.6027,75.59807 -63.1601,77.13086 -23.7227,21.47513 -44.2266,46.5337 -75.627,54.70703 -24.6151,27.32659 -69.5818,26.13192 -101.5312,27.17187 -52.8387,-16.74071 -99.6837,12.79991 -152.6094,2.77344 -9.635,-26.70291 -45.2581,-15.09135 -49.0019,-48.13867 -24.0458,-2.90156 -30.6691,-37.87495 -27.6465,-40.30859 -8.8255,-7.17825 -2.2472,-4.05828 21.0683,-29.83594 27.759,-35.0545 35.4098,7.92089 37.0782,19.47656 -50.5544,-6.01375 13.6872,31.12014 11.9687,15.02344 39.8327,6.59548 102.9499,-17.58815 138.5996,-37.12695 -15.2411,-17.05315 -43.4166,-42.84669 -73.8242,-26.25196 -73.9585,1.93822 -17.6469,-34.11337 19.1855,-39.0957 51.1108,-8.14795 105.109,7.89966 154.6895,10.93555 -15.423,-49.936335 -107.9423,-43.523442 -154.082,-56.705082 -71.6818,16.889158 1.3963,-25.935391 22.1621,-51.777344 69.4211,0.773253 44.8137,-74.994796 -11.7696,-74.580078 -21.4503,6.965542 -51.4791,-0.735137 -77.3144,-0.589844 z m 502.6562,34.375 c -6.2212,0.200492 -12.2571,6.54311 -5.5898,23.1523436 22.9891,-12.1685698 14.1153,-23.4270926 5.5898,-23.1523436 z m 70.5762,30.355469 c -6.0246,0.489211 -19.107,9.21871 -21.8594,21.740234 l 3.3946,2.0625 5.9843,-2.800781 c 17.617,-15.451378 17.7964,-21.4336105 12.4805,-21.001953 z m -808.7324,37.773437 c 1.4326,4.383335 -1.9249,0.433821 0,0 z m 116.6269,45.314453 c -8.3008,0.204279 -19.4591,4.921355 -9.8437,12.835939 l 2.5371,1.4082 c 21.0498,-10.138785 15.6075,-14.448417 7.3066,-14.244139 z m 561.7969,11.437499 c -0.8408,0.11112 -2.309,1.93443 -4.1074,7.0586 5.0318,-1.23947 5.7126,-7.27073 4.1074,-7.0586 z m -17.6406,26.29492 c -1.6073,-0.11688 -3.2159,0.98388 -3.502,4.59961 10.5682,1.8039 7.038,-4.34246 3.502,-4.59961 z m -672.5664,4.19727 c -4.1319,0.27718 -5.7812,7.43053 3.5801,26.19336 l 1.5097,4.75 c 13.8443,-15.07345 1.3559,-31.37577 -5.0898,-30.94336 z m 647.7129,0.0352 c -0.8342,-0.006 -1.3491,0.91419 -0.918,3.55665 8.7838,4.81244 3.4204,-3.53914 0.918,-3.55665 z m 6.4043,43.54493 c 1.0365,0.0534 1.2033,2.16324 -0.9434,8.22656 -10.0401,4.93119 -1.7055,-8.36314 0.9434,-8.22656 z m -475.3477,24.21484 c -1.8465,0.11769 -2.1394,3.46771 1.9278,13.09961 15.5281,4.48051 2.4456,-13.37834 -1.9278,-13.09961 z m 12.3828,22.0957 c -2.1376,-0.10416 -3.5612,2.13124 -1.8027,9.10938 14.6642,2.67689 6.5055,-8.88022 1.8027,-9.10938 z m 393.4258,2.94727 c 0.5086,-3.6e-4 1.3221,0.42685 2.5215,1.60547 -2.2659,3.85012 -4.3379,-1.60419 -2.5215,-1.60547 z m 129.1328,77.15625 c -2.4783,-0.0203 -4.6714,4.59218 -4.2558,18.43359 16.5392,4.07534 9.708,-18.3889 4.2558,-18.43359 z m -10.4941,22.70703 c -0.8275,0.0133 -1.3168,1.16686 -0.4512,4.57617 5.7294,0.88279 2.2717,-4.60534 0.4512,-4.57617 z m -286.9492,45.04102 c 35.0572,0.25806 46.6814,36.57527 41.5039,75.39453 -6.4459,48.32985 20.6023,95.13512 29.8105,142.73633 5.8778,28.53347 19.5743,55.53526 4.6543,96.73242 -9.9926,27.59156 -21.649,51.52915 -48.1113,48.33398 -40.6767,-7.96628 -82.8541,-12.03386 -116.3438,-41.89062 -33.7326,-30.07331 -37.2702,-70.76859 -49.707,-109.9375 -11.3754,-35.82599 41.3081,-25.2656 29.4824,0.7539 38.8221,4.67694 33.5874,-62.26962 39.8282,-86.33203 9.8742,-38.07177 -66.5029,-54.78612 -53.8633,-93.84179 13.1035,-40.48922 69.6385,-19.17542 103.625,-29.03126 7.0206,-2.03591 13.3844,-2.96019 19.1211,-2.91796 z m -270.293,19.26172 c -0.4984,-0.0189 -0.8115,0.62437 -0.4648,2.56445 4.2228,1.86054 1.7386,-2.51622 0.4648,-2.56445 z m 28.3359,131.7832 c -0.4961,0.0142 -1.2349,0.30987 -2.2109,1.125 3.006,1.33132 3.6993,-1.16748 2.2109,-1.125 z m 6.8496,19.08203 c 0.302,0.0545 0.7667,0.36038 1.4395,1.07422 -1.0091,3.20314 -2.7478,-1.31045 -1.4395,-1.07422 z m -42.4824,2.86719 c 0.2567,-0.0508 0.7053,0.21376 1.4219,1.00781 -0.032,5.35459 -2.5343,-0.7877 -1.4219,-1.00781 z m 578.1211,7.3164 c -2.0401,-0.0461 -3.7282,1.99526 -3.0332,8.22461 13.7154,2.07906 7.5214,-8.12316 3.0332,-8.22461 z M 3466.3027,554 c 1.7565,-0.11429 3.042,2.18761 0.3164,9.11133 -6.4584,-3.61482 -2.8835,-8.94429 -0.3164,-9.11133 z m 3.8067,13.07227 c 0.3638,0.005 1.1054,0.61596 2.3906,2.34961 -1.1793,3.07642 -3.4821,-2.36341 -2.3906,-2.34961 z m 535.789,16.82226 c -1.3204,0.0232 -2.1826,1.55918 -1.3593,6.01563 11.1031,3.75071 4.7337,-6.07492 1.3593,-6.01563 z m 43.1661,8.56055 c -2.1905,0.0208 -3.8336,2.63426 -2.5801,10.38867 14.8704,2.06979 7.399,-10.43447 2.5801,-10.38867 z m -548.1094,2.74023 c 0.1553,0.0171 0.8027,0.8227 2.2949,3.08594 1.1951,3.91 -2.7608,-3.13713 -2.2949,-3.08594 z"
       style="fill:#d81921;fill-opacity:1" />
    <path
       style="fill:#183f54;fill-opacity:1"
       d="m 3511.7275,721.61218 c -1.2346,-2.6125 -2.2408,-5.2436 -2.2361,-5.847 0.01,-0.6033 -0.8914,-2.1347 -1.9914,-3.403 -1.1,-1.2683 -2,-3.0984 -2,-4.0668 0,-0.9684 -1.3154,-4.387 -2.9231,-7.597 -8.3617,-16.6949 -20.0769,-44.7781 -20.0769,-48.1276 0,-1.715 -5.4858,-20.5325 -8.0779,-27.7086 -0.9948,-2.7542 -3.1895,-10.5361 -4.6248,-16.3986 -0.4053,-1.6554 -0.2325,-2.1794 0.5577,-1.691 0.6298,0.3892 1.1509,1.4686 1.1581,2.3986 0.024,3.0717 16.9266,43.659 18.8413,45.2422 1.0319,0.8531 2.7814,3.5531 3.8878,6 1.1064,2.4468 3.8508,6.2118 6.0986,8.3665 4.709,4.5139 6.6833,11.2485 5.9368,20.2507 -0.3677,4.4342 -0.1491,5.3963 1.3331,5.8667 1.6864,0.5353 6.8893,8.6177 6.8893,10.7021 0,0.5915 -1.4528,0.7128 -3.634,0.3036 -3.119,-0.5851 -3.5442,-0.4476 -3,0.9705 0.3487,0.9088 0.634,2.087 0.634,2.6182 0,0.5313 1.0624,1.957 2.3608,3.1682 1.7029,1.5886 2.559,3.8048 3.072,7.9523 0.3911,3.1625 0.56,5.75 0.3752,5.75 -0.1847,0 -1.3459,-2.1375 -2.5805,-4.75 z M 3455.5,475.87158 c 0,-1.4348 0.601,-3.8239 1.3355,-5.3091 0.7345,-1.4851 2.1359,-5.743 3.1142,-9.4618 0.9782,-3.7189 2.2458,-7.0503 2.8167,-7.4031 1.6099,-0.995 0.2952,6.4803 -2.0515,11.6646 -1.1203,2.475 -2.3194,6.1717 -2.6646,8.2149 -0.7439,4.4023 -2.5503,6.0275 -2.5503,2.2945 z m 161,-114.427 c -5.738,-1.563 -12,-5.2129 -12,-6.9943 0,-1.0001 -0.9,-2.9625 -2,-4.361 -1.1,-1.3984 -2,-2.9717 -2,-3.4962 0,-0.5244 -1.0723,-0.7486 -2.3828,-0.4981 -3.6174,0.6916 -4.0252,-1.3313 -1.0539,-5.2269 2.8705,-3.7634 4.8281,-4.217 10.0499,-2.3288 4.0556,1.4665 6.3868,-0.086 6.3868,-4.2525 0,-2.3451 0.5575,-2.9826 3.25,-3.7166 1.7875,-0.4874 4.9786,-0.6795 7.0914,-0.427 2.1127,0.2525 4.8377,-0.074 6.0554,-0.7258 1.2178,-0.6517 2.6391,-1.0712 3.1586,-0.9323 0.5196,0.1389 2.8121,-0.089 5.0945,-0.5061 2.8622,-0.5233 4.8232,-0.3489 6.3197,0.5622 1.9474,1.1856 2.3973,1.039 4.3877,-1.429 1.2198,-1.5125 2.8513,-2.75 3.6255,-2.75 0.7743,0 2.5574,-1.0726 3.9625,-2.3835 2.6316,-2.4553 14.757,-5.3417 16.1903,-3.854 0.3908,0.4056 0.8576,2.0875 1.0374,3.7375 0.2943,2.6996 0.6774,3 3.827,3 3.3302,0 3.5,-0.169 3.5,-3.4834 0,-4.6238 2.3426,-5.0202 6.2971,-1.0657 2.8741,2.8741 3.4938,3.0491 10.7972,3.0491 5.96,0 8.1921,-0.4017 9.6716,-1.7406 1.8412,-1.6663 2.0203,-1.628 4.1917,0.8965 2.1702,2.5229 2.4801,2.5894 7.1554,1.5363 6.1794,-1.3918 15.1173,-1.3619 16.5345,0.055 0.7778,0.7778 0.3456,2.0505 -1.5321,4.5123 -1.4385,1.8859 -2.6154,4.399 -2.6154,5.5846 0,3.5294 -3.7,6.466 -7.3922,5.8668 -3.6759,-0.5965 -11.5901,1.1993 -13.9625,3.1682 -0.8986,0.7458 -2.7735,1.1381 -4.1665,0.8718 -1.9662,-0.3759 -3.0042,0.1779 -4.6403,2.4757 -1.9571,2.7485 -2.4254,2.9122 -6.5574,2.2925 -4.6732,-0.7007 -9.7595,0.9422 -12.2658,3.9621 -0.7504,0.9042 -2.93,1.5237 -5.3877,1.5314 -2.2702,0.01 -6.9425,0.8954 -10.3829,1.9739 -3.6997,1.1599 -7.4653,1.7191 -9.2167,1.3688 -1.99,-0.398 -4.2618,0.086 -6.9258,1.4741 l -3.9645,2.0664 -2.6758,-2.1047 c -2.5816,-2.0307 -2.8516,-2.0485 -7.6751,-0.506 -3.8899,1.2439 -5.4112,1.3416 -6.8546,0.4402 -1.5098,-0.9429 -2.4134,-0.746 -4.8532,1.0579 -3.1165,2.3041 -3.9164,2.4327 -8.079,1.2989 z m 428.1392,-145.1157 c -1.2984,-1.0817 -3.4359,-1.9667 -4.75,-1.9667 -3.8509,0 -6.4802,-3.4259 -6.3606,-8.2875 0.057,-2.3169 -0.3563,-8.3206 -0.9185,-13.3416 -0.5623,-5.0211 -1.0325,-15.5961 -1.045,-23.5 -0.025,-16.0827 -0.053,-18.7527 -0.3534,-34.3709 l -0.2117,-11 -2.75,-0.3164 c -1.5125,-0.1741 -2.8175,-0.7366 -2.9,-1.25 -0.464,-2.8878 -0.078,-3.4609 2.65,-3.9308 2.5537,-0.4399 3.1249,-1.1108 3.8392,-4.5098 0.4616,-2.1961 1.5087,-6.6209 2.327,-9.8327 0.8182,-3.2119 1.2594,-6.068 0.9805,-6.347 -0.279,-0.2789 -1.4477,1.3365 -2.5973,3.5898 -2.3759,4.6573 -5.0494,5.4725 -5.0494,1.5397 0,-3.2146 1.8306,-11.38097 3.0663,-13.67923 0.5136,-0.95504 0.948,-2.98004 0.9655,-4.5 0.017,-1.51996 0.6925,-3.63708 1.5,-4.7047 0.8075,-1.06762 1.4682,-4.04844 1.4682,-6.62405 0,-3.17694 0.8315,-6.17057 2.5855,-9.30887 3.7499,-6.7093 4.5549,-6.23093 5.8715,3.48902 0.3438,2.53824 1.2673,5.46324 2.0522,6.5 0.785,1.03677 1.4415,2.86246 1.459,4.05711 0.041,2.78222 6.7427,8.55625 13.9945,12.05698 4.7992,2.31674 7.2034,2.74624 18.0373,3.22194 l 12.5,0.549 0,4 c 0,3.7868 -0.2532,4.121 -4.75,6.2693 -5.1594,2.4649 -5.2124,2.5999 -3.6214,9.2307 0.5938,2.475 1.0642,5.694 1.0452,7.1533 -0.053,4.0419 -3.4647,9.8742 -8.5718,14.6518 -4.3393,4.0593 -4.602,4.605 -4.602,9.5597 0,4.8053 -0.3975,5.7201 -4.6468,10.695 l -4.6468,5.4402 -0.8954,22.5 c 0,0 1.162,14.08445 -1.3953,20.875 -1.0569,2.80646 -4.2765,6 -4.2765,6 -3.9333,3.7125 -7.0268,6.36 -7.3328,6.3417 -0.306,-0.018 -1.3687,0.8317 -2.6672,-0.25 z m -441.124,-21.9515 c -1.1084,-1.1083 -3.1883,-2.0152 -4.6222,-2.0152 -2.0871,0 -2.4652,-0.349 -1.8958,-1.75 2.7438,-6.7522 2.6843,-7.6409 -0.7043,-10.5179 -2.6679,-2.265 -3.0627,-3.0809 -2.1731,-4.4911 1.4641,-2.3212 13.1083,-6.2454 16.5118,-5.5647 1.4853,0.2971 5.1009,-0.2746 8.0345,-1.2704 8.0796,-2.7425 23.819,-2.1169 29.505,1.1727 4.6022,2.6626 6.889,7.3415 5.7691,11.8035 -0.9054,3.6074 -6.6078,6.8983 -11.7685,6.7916 -8.1568,-0.1685 -13.1923,-0.7448 -14.6717,-1.6789 -0.825,-0.5209 -2.9663,-1.045 -4.7584,-1.1647 -2.8448,-0.19 -3.4996,0.2554 -5.1593,3.5087 -3.0039,5.888 -10.5709,8.6726 -14.0671,5.1764 z m 32.9848,-12.5742 c 0,-1.6501 -1.5804,-1.9289 -2.5,-0.441 -0.8155,1.3195 0.3802,3.1921 1.5691,2.4573 0.512,-0.3164 0.9309,-1.2238 0.9309,-2.0163 z m -130,-18.441 c -0.825,-0.5332 -2.4968,-0.9763 -3.7152,-0.9847 -2.155,-0.015 -9.2848,-5.4127 -9.2848,-7.0293 0,-0.4438 2.9442,-4.4109 6.5426,-8.8157 5.5811,-6.8319 7.1047,-8.1039 10.3673,-8.6551 2.4919,-0.421 4.9847,-1.843 7.1536,-4.0807 1.9129,-1.9736 4.3179,-3.4345 5.6541,-3.4345 1.5099,0 2.7247,-0.8767 3.4644,-2.5 0.6265,-1.375 1.5708,-2.5 2.0986,-2.5 0.8733,0 3.1652,-2.075 17.6005,-15.9348 2.5404,-2.4391 7.5439,-6.682 11.1189,-9.4286 3.575,-2.7466 8.6908,-6.9426 11.3685,-9.32452 2.6777,-2.38191 6.3902,-5.05281 8.25,-5.93535 1.8598,-0.88254 3.3815,-1.94792 3.3815,-2.36753 0,-0.4196 2.2581,-1.7343 5.0179,-2.92156 4.5465,-1.95587 5.6034,-2.052 11.25,-1.02331 3.4277,0.62444 9.1571,1.95491 12.7321,2.9566 5.2921,1.48281 8.3894,1.69656 16.6672,1.15017 5.592,-0.36911 10.3407,-0.8961 10.5527,-1.1711 0.212,-0.275 1.1596,-1.7375 2.1058,-3.25 1.0862,-1.73626 2.5898,-2.75 4.0787,-2.75 2.6015,0 8.2623,5.14623 9.691,8.81017 1.0704,2.74491 2.9046,2.00657 2.9046,-1.16919 0,-1.23254 0.54,-2.78098 1.2,-3.44098 1.4659,-1.46588 6.2493,-1.56506 8.8315,-0.18312 1.0451,0.55928 5.853,1.70043 10.6843,2.53588 4.8313,0.83546 11.1636,2.40286 14.0717,3.48312 2.9081,1.08027 6.5205,1.96412 8.0275,1.96412 1.507,0 3.6276,0.61949 4.7125,1.37664 1.0849,0.75715 6.2771,2.75386 11.5383,4.43716 5.2611,1.6833 12.9111,4.3754 17,5.9826 4.7152,1.8533 10.2364,3.149 15.0959,3.5426 7.9535,0.6442 16.0875,3.2781 21.0619,6.8202 3.127,2.2267 8.1352,9.4513 7.3888,10.659 -0.5852,0.9468 -30.0873,0.5042 -47.1124,-0.7068 -15.3037,-1.0885 -27.3098,-2.6124 -37,-4.6962 -3.85,-0.8279 -9.475,-1.4716 -12.5,-1.4304 -3.025,0.041 -11.699,0.098 -19.2756,0.1267 -10.3811,0.039 -15.679,0.5434 -21.5,2.0466 -7.2354,1.8684 -11.6621,2.6853 -25.2244,4.6554 -3.025,0.4394 -6.9401,1.5611 -8.7003,2.4927 -1.7602,0.9316 -3.8357,1.6938 -4.6122,1.6938 -0.7765,0 -5.6636,1.3489 -10.8602,2.9975 -6.7522,2.1421 -10.2691,3.8542 -12.3249,6 -2.0952,2.1869 -3.8025,3.0025 -6.2856,3.0025 -6.8592,0 -13.6315,2.8475 -20.2844,8.5289 -7.1227,6.0825 -13.5847,9.5171 -23.7021,12.5975 -3.7017,1.1271 -8.6104,3.1347 -10.9084,4.4614 -4.559,2.6321 -6.0442,2.8842 -8.3219,1.4122 z m 517.4786,-48.2021 c -0.8512,-2.2091 0.3866,-4.3327 1.7379,-2.9814 0.6543,0.6543 0.6388,1.6177 -0.046,2.8371 -0.9553,1.702 -1.0877,1.7133 -1.6922,0.1443 z M 3307.9844,61.67053 c -0.8484,-2.0304 -1.82,-4.8429 -2.1593,-6.25 -0.3392,-1.40709 -1.3781,-3.68335 -2.3088,-5.05835 -3.3422,-4.93834 -7.8277,-15.58583 -8.4254,-20 -0.4911,-3.62733 -0.026,-5.92607 2.3999,-11.85361 1.6551,-4.04449 3.0161,-8.76949 3.0245,-10.5 0.01,-1.73052 0.413,-3.77446 0.8991,-4.54211 2.6099,-4.12185 5.5484,3.04077 10.6236,25.89572 1.929,8.68653 2.4028,12.9679 1.9367,17.5 -1.0563,10.27039 -2.6417,18.5 -3.5639,18.5 -0.4862,0 -1.5781,-1.66124 -2.4264,-3.69165 z M 4128.5,26.43027 c 0,-0.91797 5.2444,-5.06809 6.4044,-5.06809 1.297,0 0.4812,2.02866 -1.593,3.96104 -2.2839,2.12784 -4.8114,2.70938 -4.8114,1.10705 z m -590.4343,-1.72059 c -5.9303,-1.88432 -14.5986,-7.63773 -16.2818,-10.80669 -0.6689,-1.25928 -1.5187,-5.9172 -1.8884,-10.35093 -0.6272,-7.52063 -0.488,-8.41776 2.0758,-13.3756 1.5115,-2.92285 4.9488,-7.86625 7.6384,-10.98532 2.6897,-3.11908 4.8903,-6.40203 4.8903,-7.29546 0,-0.89342 1.0389,-2.66328 2.3086,-3.933 2.0526,-2.05265 3.2052,-2.29704 10.3953,-2.20432 6.1927,0.0799 8.5395,0.51409 10.0201,1.85405 2.6682,2.4147 4.4909,2.20743 10.011,-1.13843 2.6207,-1.58851 5.89,-3.22416 7.265,-3.63478 1.375,-0.41062 2.778,-1.17877 3.1179,-1.70699 0.392,-0.60946 4.7045,-0.52853 11.8018,0.22149 6.1512,0.65004 13.4477,0.87056 16.2144,0.49004 4.4199,-0.60789 5.2092,-0.43639 6.5048,1.4133 0.811,1.15783 2.4961,2.10514 3.7446,2.10514 1.9535,0 2.2087,0.41838 1.8298,3 -0.2436,1.65983 0.015,3 0.5794,3 1.134,0 8.2073,-9.45095 8.2073,-10.96619 0,-0.52887 1.9125,-2.76657 4.25,-4.97269 4.9066,-4.63083 7.1459,-4.94771 14.911,-2.11009 2.9365,1.07306 9.2203,3.09537 13.964,4.49401 9.7826,2.88431 17.7826,7.92374 27.625,17.40182 4.4057,4.24267 6.25,6.7588 6.25,8.52689 0,1.37952 0.4136,2.76386 0.9192,3.07631 0.5055,0.31244 0.9318,3.20361 0.9472,6.42481 l 0.028,5.85673 -4.6972,2.98151 c -2.5835,1.63983 -5.5481,3.28543 -6.5881,3.65689 -4.3402,1.55017 -10.7724,-6.5215 -8.7442,-10.9729 0.5852,-1.28438 0.6684,-2.56749 0.1858,-2.86575 -0.4806,-0.29703 -5.0761,0.58576 -10.2123,1.96177 -7.0254,1.88216 -11.8277,2.50246 -19.3884,2.50436 -10.8827,0.003 -12.45,0.6407 -12.45,5.06766 0,3.76118 -2.8257,6.92033 -11.3836,12.72676 l -7.4397,5.04778 -10.1329,-0.37816 c -6.1003,-0.22766 -11.2096,0.0679 -12.8383,0.74271 -1.488,0.61647 -5.4055,1.24379 -8.7055,1.39404 -8.0783,0.36782 -16.0436,1.77804 -17.6708,3.12855 -2.3654,1.96309 -21.6565,2.40227 -27.2635,0.62068 z M 3297.3289,-26.5247 c -0.8954,-1.0457 -2.2573,-2.28644 -3.0265,-2.7572 -2.0409,-1.24905 -3.9892,-17.34598 -4.1583,-34.35592 -0.1534,-15.43985 -0.2198,-15.80244 -9.9703,-54.5 -1.9401,-7.7 -4.6612,-18.5 -6.0468,-24 -1.3857,-5.5 -3.6726,-14.275 -5.082,-19.5 -1.4095,-5.225 -3.4843,-14.57843 -4.6107,-20.78541 -1.1264,-6.20697 -2.6355,-12.95697 -3.3536,-15 -0.7181,-2.04302 -2.3223,-8.43959 -3.5649,-14.21459 -1.2426,-5.775 -3.5895,-15.45 -5.2154,-21.5 -8.3254,-30.97911 -7.6019,-25.27371 -7.8388,-61.81536 -0.133,-20.51163 0.2506,-37.76737 1.0045,-45.18464 0.6707,-6.6 1.375,-17.88138 1.5649,-25.06973 0.34,-12.865 0.4169,-13.2453 4.9074,-24.2789 2.5091,-6.16505 5.9742,-14.00665 7.7001,-17.42579 5.1636,-10.22905 6.838,-16.12813 6.1726,-21.74666 -0.6487,-5.47694 -0.1946,-6.82781 13.9418,-41.47892 16.6085,-40.71053 15.0592,-35.88232 14.3014,-44.57028 l -0.6773,-7.76399 5.0293,-10.33286 c 2.7661,-5.68308 5.8384,-11.68287 6.8274,-13.33287 8.3306,-13.89859 10.3136,-18.48629 11.2777,-26.08984 0.6933,-5.46818 1.7222,-8.86729 3.4378,-11.357 1.3465,-1.95424 2.8925,-5.57816 3.4354,-8.05316 0.7349,-3.35016 2.0256,-5.40129 5.0513,-8.02727 2.2352,-1.94 4.0663,-4.415 4.0689,-5.5 0,-1.085 1.6901,-3.76619 3.75,-5.9582 2.0598,-2.192 5.3283,-6.20977 7.2632,-8.92836 3.3389,-4.69134 11.2183,-11.37677 13.577,-11.51978 0.6023,-0.0365 1.8868,-0.94125 2.8544,-2.01052 0.9677,-1.06928 2.7137,-2.08178 3.88,-2.25 1.1663,-0.16823 2.6733,-1.41874 3.349,-2.77891 0.7754,-1.56097 4.4726,-4.14737 10.025,-7.01295 14.707,-7.5903 18.7029,-10.48311 20.2003,-14.62419 l 1.3406,-3.70749 -4.1523,-3.44916 c -4.0138,-3.33412 -7.092,-7.82975 -7.092,-10.35782 0,-0.68181 1.0543,-0.23346 2.3803,1.01217 1.3091,1.22988 4.3466,2.84303 6.75,3.58477 2.4033,0.74175 5.9684,2.03286 7.9224,2.86914 3.9058,1.67168 6.6124,0.83413 5.6244,-1.74051 -0.9576,-2.49548 0.9095,-1.88079 2.7309,0.89908 1.2432,1.89723 2.5026,2.5 5.2235,2.5 3.4068,0 3.552,-0.13694 2.9163,-2.75 -0.368,-1.5125 -1.4876,-3.425 -2.488,-4.25 -4.4718,-3.68775 -2.868,-8 2.9754,-8 3.5756,0 3.9648,-0.24851 3.9648,-2.53138 0,-1.39227 -0.6916,-2.7968 -1.537,-3.12119 -1.3425,-0.51518 -4.463,-5.26807 -4.463,-6.79777 0,-1.45199 3.3611,-0.27951 5.5909,1.95034 3.2909,3.29084 4.7789,3.20024 4.1058,-0.25 -0.3533,-1.81077 0.062,-3.43308 1.2167,-4.75 0.9642,-1.1 2.5386,-4.13285 3.4986,-6.73966 2.0474,-5.55939 3.588,-6.95643 3.588,-3.25362 0,3.39772 1.6794,6.49328 3.5226,6.49328 0.7988,0 2.5886,-1.8 3.9774,-4 2.8432,-4.50397 3.9312,-4.88359 5.7321,-2 2.7784,4.44893 4.3639,0.52176 2.2742,-5.63317 -0.8285,-2.4402 -1.5063,-5.771 -1.5063,-7.40178 0,-1.63172 -0.8994,-3.86442 -2,-4.96505 -2.1576,-2.15764 -2.614,-4 -0.9908,-4 0.5551,0 2.4063,2.27044 4.1138,5.04543 1.7074,2.77498 3.6156,4.87505 4.2403,4.66681 0.6247,-0.20823 1.4322,-2.451 1.7946,-4.98393 0.6627,-4.63304 5.1968,-11.72822 7.4949,-11.72828 0.634,-2e-5 2.7345,-2.36253 4.6678,-5.25003 1.9333,-2.8875 4.3414,-5.93836 5.3514,-6.77968 1.0099,-0.84132 2.7938,-2.74708 3.9643,-4.23501 1.1704,-1.48794 4.1539,-3.57373 6.63,-4.63511 2.4796,-1.06292 5.7303,-3.54026 7.2365,-5.51499 3.0263,-3.96773 5.9833,-4.65838 6.787,-1.58521 0.6181,2.36362 2.9574,2.61195 4.7102,0.5 1.4211,-1.71229 7.0842,-2.01576 8.6372,-0.46284 1.373,1.37303 6.2808,-0.47511 8.0789,-3.0423 0.7363,-1.0511 1.9842,-1.66337 2.7732,-1.36059 2.512,0.96394 2.7803,4.20746 0.5796,7.00529 -1.1379,1.44659 -2.0689,3.18937 -2.0689,3.87285 0,0.68349 -0.675,1.8029 -1.5,2.48759 -2.0273,1.68249 -1.8864,2.66568 0.4701,3.28193 1.3803,0.36095 3.4011,-0.82643 6.75,-3.96608 4.1624,-3.90237 16.1757,-11.31585 18.337,-11.31585 0.4156,0 0.5037,0.96332 0.1959,2.14071 -0.3334,1.27458 -2.0498,2.72598 -4.2424,3.58724 -3.143,1.23462 -7.0106,5.51331 -7.0106,7.7558 0,0.37134 1.3817,0.3717 3.0704,8e-4 2.2698,-0.49854 3.3866,-0.24179 4.2835,0.98474 1.1154,1.52547 1.432,1.487 3.9296,-0.47767 3.0051,-2.36376 3.5198,-4.74613 1.2165,-5.62999 -2.6424,-1.01397 -1.6288,-1.85803 3.75,-3.12295 3.5586,-0.83687 6.0554,-2.165 7.75,-4.12249 2.0571,-2.37626 10.0747,-6.11619 13.1117,-6.11619 0.4155,0 0.8978,1.2375 1.0719,2.75 0.2692,2.34014 0.7635,2.73823 3.3164,2.67103 1.65,-0.0434 4.35,-0.41562 6,-0.82709 l 3,-0.74813 -3.2658,3.07709 c -1.7962,1.69241 -4.1321,3.0771 -5.191,3.0771 -3.149,0 -3.377,1.92258 -0.3638,3.06822 3.1287,1.18952 9.0308,0.41736 11.3206,-1.48105 3.3093,-2.74364 9.0489,-5.45914 12.1837,-5.76432 3.1304,-0.30475 3.2972,-0.16033 2.9752,2.57646 l -0.3412,2.89931 5.7595,-0.59443 c 3.1676,-0.32693 6.4712,-0.23462 7.3411,0.20514 0.8699,0.43977 6.7567,0.37161 13.0817,-0.15146 6.325,-0.52307 15.325,-1.06848 20,-1.21201 4.675,-0.14354 9.9068,-0.5736 11.6263,-0.9557 2.1201,-0.47114 3.5721,-0.24885 4.5117,0.6907 1.6527,1.65271 11.7819,2.94223 24.862,3.16512 10.6018,0.18066 22,2.36901 22,4.2238 0,1.90847 1.411,2.35425 8.8476,2.79528 5.9312,0.35174 7.2113,0.12736 8.7079,-1.52635 0.965,-1.06629 2.9222,-1.93703 4.3495,-1.93497 3.7205,0.005 9.095,3.55268 9.095,6.003 0,2.54701 3.9652,4.4698 7.4263,3.60112 4.235,-1.06291 3.2289,-3.60786 -1.4263,-3.60786 -4.1041,0 -5.3989,-1.42124 -2.2153,-2.43168 0.9817,-0.31155 6.2692,0.14506 11.75,1.01469 5.4809,0.86963 12.3394,1.75283 15.241,1.96267 3.4019,0.24601 8.976,1.99274 15.6939,4.91792 5.73,2.49502 11.0633,4.5364 11.8518,4.5364 0.7886,0 2.0084,0.69241 2.7107,1.53869 0.7024,0.84628 3.4254,2.46289 6.0512,3.59247 4.9526,2.13056 8.213,4.91486 7.7084,6.58268 -0.3377,1.11604 5.4754,6.28616 7.0679,6.28616 0.5889,0 2.549,1.28401 4.3556,2.85335 4.0121,3.48515 7.3538,5.30233 11.21,6.096 4.2859,0.8821 4.5168,3.05065 0.3248,3.05065 -4.2103,0 -4.9842,0.69385 -3.619,3.24474 0.9265,1.7313 1.8385,1.92439 7.2148,1.52771 7.4792,-0.55184 12.3165,0.62469 15.7089,3.82072 1.4051,1.32376 3.5839,2.40683 4.8419,2.40683 1.2579,0 3.4833,0.92535 4.9452,2.05633 4.6341,3.58486 9.5037,6.67679 14.6582,9.3071 2.75,1.40331 9.9989,6.95812 16.1086,12.34402 11.6834,10.29921 17.1393,14.80862 20.9221,17.29255 5.9984,3.93874 14.9693,11.348 14.9693,12.36345 0,0.72316 -1.5458,1.01434 -4.25,0.80056 -3.7276,-0.29469 -4.25,-0.0839 -4.25,1.71482 0,2.64107 2.8317,4.12117 7.8846,4.12117 2.3178,0 4.3542,0.57277 4.8157,1.35448 0.4398,0.74497 2.6744,2.52673 4.9656,3.95948 2.2913,1.43275 4.4607,3.08179 4.8208,3.66454 0.3602,0.58274 2.7605,2.17717 5.3341,3.54318 2.5736,1.36601 5.8635,3.43058 7.3109,4.58794 1.7759,1.41998 4.2149,2.15081 7.5,2.24733 4.4635,0.13116 4.9858,0.40986 6.2811,3.35199 1.3846,3.14483 5.1312,5.29106 9.2364,5.29106 2.2199,0 2.463,1.82787 0.3508,2.63837 -0.825,0.31659 -1.5,1.11827 -1.5,1.78153 0,1.87386 5.0999,6.30685 9.25,8.04047 2.8378,1.18543 3.75,2.14296 3.75,3.93642 0,1.52894 -0.7097,2.55554 -2,2.89296 -2.6868,0.70262 -2.5388,2.75934 0.25,3.47434 1.2375,0.31727 5.4996,2.2821 9.4714,4.36629 l 7.2214,3.78943 1.4996,-2.14109 c 1.4655,-2.09227 1.5465,-2.09874 3.5523,-0.28353 1.5735,1.42403 2.3271,1.58301 3.2289,0.68118 1.7709,-1.77082 3.7764,-1.41407 3.7764,0.67176 0,1.18655 1.4213,2.48902 3.9704,3.6385 2.1837,0.98472 4.7284,2.62806 5.655,3.65188 0.9265,1.02382 2.4262,1.86149 3.3326,1.86149 2.2095,0 10.042,5.83386 10.042,7.47952 0,0.71858 -0.675,1.56552 -1.5,1.88211 -0.825,0.31658 -1.5,1.75222 -1.5,3.19032 0,1.65883 -0.457,2.45451 -1.25,2.17649 -0.6875,-0.24102 -1.1202,-1.63028 -0.9615,-3.08725 0.3735,-3.42986 -3.3637,-5.47407 -6.7219,-3.67681 -3.1529,1.68735 -2.5115,6.40861 0.9334,6.87166 2.7842,0.37423 8.3003,5.75255 7.7189,7.52602 -0.2052,0.62587 -1.5836,1.28107 -3.063,1.456 -1.4794,0.17493 -2.4173,0.75902 -2.0842,1.29797 0.3459,0.55972 2.4233,0.70734 4.8445,0.34426 3.8018,-0.57011 4.4137,-0.36885 5.9344,1.95203 0.9325,1.42322 2.5851,2.58768 3.6725,2.58768 2.9607,0 2.3903,-1.55857 -1.3859,-3.78656 -3.0376,-1.79221 -5.5923,-6.59171 -4.2324,-7.95154 2.0094,-2.00943 10.978,4.14273 12.0051,8.23515 0.3455,1.37662 1.3058,2.50295 2.1339,2.50295 0.8281,0 1.9442,1.15332 2.4801,2.56294 0.536,1.40962 2.0793,3.77212 3.4298,5.25 5.1685,5.65635 9.2679,10.82681 11.4465,14.43706 1.2446,2.0625 2.6367,3.75 3.0935,3.75 0.9476,0 9.0063,11.51249 9.0063,12.86625 0,0.48887 -0.6957,1.46626 -1.5461,2.17197 -1.3623,1.13067 -1.1457,1.70956 1.8231,4.87245 3.5734,3.80708 12.8439,17.31584 14.0407,20.45985 0.7336,1.92718 -0.1526,1.95356 -4.5677,0.13594 -2.3847,-0.98173 -2.3196,1.66811 0.095,3.853 1.0146,0.9182 2.4273,3.43455 3.1392,5.5919 0.7703,2.33399 3.3643,5.89819 6.4053,8.80121 7.404,7.0678 22.6531,34.83697 22.5804,41.11955 -0.026,2.26766 -0.1701,2.388 -1.0497,0.87788 -0.5606,-0.9625 -1.6719,-1.75 -2.4696,-1.75 -1.932,0 -1.8538,3.42024 0.1156,5.05472 4.1017,3.40411 6.3459,12.14361 10.9696,42.71874 1.6169,10.69277 1.357,13.21214 -1.1487,11.1326 -2.4654,-2.04611 -2.4441,-0.50799 0.099,7.16538 2.558,7.71794 3.2636,13.50977 1.5141,12.42856 -2.0785,-1.28464 -2.997,0.60502 -1.6072,3.30675 2.4237,4.7115 4.7678,18.96242 4.6054,27.99886 -0.2015,11.21088 1.6353,36.11943 3.0513,41.37802 2.7282,10.13163 2.9091,15.55293 1.3953,41.80653 -0.8407,14.58041 -1.9204,29.88484 -2.3993,34.00984 -2.7364,23.56826 -4.3233,34.60224 -5.0921,35.40662 -0.5046,0.52785 -1.6158,-0.48117 -2.66,-2.4152 -3.3675,-6.23749 -8.476,-10.97247 -15.6644,-14.51908 -12.4062,-6.12092 -21.1042,-5.7505 -31.5562,1.34389 -6.3924,4.33889 -9.0676,7.6734 -9.4121,11.7317 -0.2725,3.20921 -0.3031,3.21463 -7.9542,1.40517 -2.6365,-0.62351 -5.3865,-0.90611 -6.1113,-0.628 -2.1365,0.81988 -2.8126,11.3567 -1.131,17.6284 0.8042,2.99942 1.2928,5.62288 1.0858,5.8299 -0.207,0.20702 -1.477,-0.34469 -2.822,-1.22603 -2.1855,-1.43195 -2.58,-1.44054 -3.7085,-0.0808 -1.0046,1.2105 -1.0123,2.1264 -0.038,4.47941 0.9746,2.35302 0.9609,3.98893 -0.067,8.00091 -0.7109,2.77371 -1.6057,5.04311 -1.9885,5.04311 -0.3827,0 -1.433,-1.125 -2.334,-2.5 -1.9008,-2.90111 -3.3902,-3.15814 -5.0608,-0.87339 -0.9472,1.29533 -1.6117,1.40062 -3.2629,0.51695 -2.1838,-1.16874 -6.2682,-8.61555 -6.2682,-11.42839 0,-0.90936 -1.125,-5.09972 -2.5,-9.31192 -1.375,-4.2122 -2.5,-8.31913 -2.5,-9.12652 0,-0.8074 -0.9037,-2.73708 -2.0082,-4.2882 -1.1045,-1.55112 -2.2874,-4.32059 -2.6287,-6.15437 -0.3413,-1.83379 -1.6876,-5.50863 -2.9918,-8.16632 -2.5537,-5.20384 -3.0612,-9.27121 -1.2329,-9.88065 1.3027,-0.43422 -0.059,-5.59372 -3.2417,-12.28719 -1.0462,-2.2 -1.901,-5.05402 -1.8995,-6.34227 0,-1.28825 -0.8972,-3.48644 -1.9972,-4.88486 -1.1,-1.39842 -2,-3.23397 -2,-4.07899 0,-0.84502 -0.776,-2.39383 -1.7244,-3.44179 -0.9484,-1.04797 -1.8071,-3.55841 -1.9083,-5.57875 -0.2694,-5.37891 -2.0644,-11.64215 -4.993,-17.42132 -1.9003,-3.75008 -2.4323,-6.00688 -2.0181,-8.55978 0.3095,-1.90684 0.1307,-5.31766 -0.3972,-7.57961 -0.528,-2.26195 -1.6527,-7.48763 -2.4995,-11.61263 -1.5466,-7.5339 -3.3822,-12.95746 -8.4612,-25 -1.5078,-3.575 -3.738,-10.325 -4.956,-15 -2.5137,-9.64843 -5.6499,-17.56248 -8.1239,-20.5 -3.0945,-3.67422 -4.642,-7.94587 -5.1962,-14.34365 -0.3912,-4.5157 -1.1507,-6.98358 -2.6359,-8.56445 -1.1474,-1.22144 -2.0863,-3.26459 -2.0863,-4.54033 0,-2.75872 -2.0023,-10.0874 -3.1885,-11.67015 -0.461,-0.61522 -1.6825,-4.33416 -2.7143,-8.2643 -1.0318,-3.93015 -2.3271,-7.70179 -2.8784,-8.38142 -0.5514,-0.67964 -1.2406,-4.6107 -1.5317,-8.7357 -0.2911,-4.125 -0.8422,-8.7375 -1.2247,-10.25 -0.5509,-2.17799 -0.349,-2.75 0.9707,-2.75 1.4448,0 1.5821,-0.83061 1.0329,-6.25 -0.6916,-6.82569 -3.0795,-15.39312 -4.5425,-16.29725 -1.4173,-0.87596 -1.0972,-5.25804 0.57,-7.80247 1.3735,-2.0962 1.2931,-2.55095 -1,-5.6591 -1.3714,-1.85886 -2.4935,-4.41903 -2.4935,-5.68927 0,-1.99101 0.4482,-2.27452 3.25,-2.05572 2.4885,0.19434 3.1468,-0.0976 2.8095,-1.24619 -0.2423,-0.825 -0.4673,-4.06458 -0.5,-7.19906 -0.061,-5.85498 -0.7454,-7.2049 -4.6464,-9.16676 -1.2404,-0.6238 -2.3368,-2.03418 -2.4365,-3.13418 -0.2889,-3.18824 -4.2251,-14.3029 -5.9246,-16.72919 -2.0795,-2.96896 -1.9568,-3.77081 0.577,-3.77081 1.3336,0 4.6228,2.61533 8.8036,7 6.8019,7.13348 10.8174,9.1302 9.5524,4.75 -1.0323,-3.57439 -3.9373,-7.13143 -7.0822,-8.6719 -1.5965,-0.78204 -4.4778,-2.19768 -6.4028,-3.14585 -1.925,-0.94818 -4.2068,-3.07245 -5.0707,-4.7206 -0.8638,-1.64815 -2.7763,-4.42954 -4.25,-6.18087 -5.4145,-6.43487 -2.2911,-6.97243 3.6791,-0.63318 3.6635,3.89 7.3921,6.6024 9.0759,6.6024 0.3111,0 0.5654,-0.7875 0.5651,-1.75 0,-2.64183 -8.3047,-12.67599 -13.3794,-16.16743 -6.1368,-4.22227 -8.4307,-4.06063 -5.0882,0.35856 1.9223,2.54147 1.8773,5.55887 -0.083,5.55887 -1.7477,0 -8.1536,-6.57007 -9.0188,-9.25 -0.3107,-0.9625 -0.9642,-1.75 -1.4521,-1.75 -0.4879,0 -3.4951,-2.50648 -6.6826,-5.56996 -4.0145,-3.85826 -7.1418,-5.93025 -10.1763,-6.74238 -3.4059,-0.91152 -5.7731,-2.67622 -10.6373,-7.93004 -4.4991,-4.85949 -6.956,-6.75762 -8.7467,-6.75762 -1.3697,0 -3.0751,-0.70467 -3.7899,-1.56594 -1.6975,-2.04537 -6.363,-4.43406 -8.6604,-4.43406 -0.998,0 -3.4937,-0.9 -5.5461,-2 -2.0523,-1.1 -4.3515,-2 -5.1092,-2 -2.4855,0 -11.0526,-5.30361 -14.9267,-9.24055 -5.8594,-5.95459 -10.3109,-7.0301 -9.0982,-2.19816 0.8381,3.339 -2.3766,3.30622 -6.0102,-0.0613 -1.4836,-1.375 -3.5585,-2.5 -4.6108,-2.5 -1.0524,0 -2.4342,-1.0125 -3.0707,-2.25 -1.5177,-2.95042 -6.0208,-7.75 -7.2713,-7.75 -0.5413,0 -1.763,0.70477 -2.7148,1.56616 -1.592,1.44077 -2.2225,1.19205 -7.8749,-3.10663 -5.7946,-4.40682 -6.3982,-4.6347 -10.6056,-4.00376 -3.625,0.5436 -4.5798,0.36019 -5.0935,-0.97847 -0.4833,-1.2595 -1.4052,-1.50247 -3.9146,-1.03171 -1.9035,0.35711 -3.5569,0.17153 -3.9359,-0.44176 -0.3595,-0.58165 -4.327,-2.90449 -8.8167,-5.16187 -4.4897,-2.25738 -9.5182,-5.12605 -11.1744,-6.37482 -1.6562,-1.24877 -4.6988,-2.96677 -6.7613,-3.81779 -2.0625,-0.85101 -3.75,-1.93745 -3.75,-2.41431 0,-0.47686 -2.4464,-1.88098 -5.4364,-3.12026 -4.2202,-1.7492 -5.8833,-2.01407 -7.4342,-1.18402 -3.3187,1.77609 -5.6396,1.22306 -7.9431,-1.8927 -1.3561,-1.83416 -3.7323,-3.37727 -6.2408,-4.05275 -2.2281,-0.59994 -4.9151,-1.95496 -5.9713,-3.01116 -1.6442,-1.64418 -3.0462,-1.86526 -9.7489,-1.5373 -7.2492,0.3547 -7.8988,0.22319 -8.777,-1.7769 -1.5358,-3.49793 -5.0581,-3.31526 -6.9591,0.36091 l -1.6262,3.14483 -3.4797,-3.58284 c -3.8186,-3.93189 -5.0554,-4.27434 -7.9069,-2.18924 -1.3181,0.96381 -2.6229,1.121 -4.2308,0.50968 -1.4047,-0.53408 -4.9808,-0.45698 -9.0352,0.19479 -3.6907,0.59329 -7.3854,1.04106 -8.2104,0.99504 -4.2551,-0.23735 -15.1839,-2.04652 -20.2745,-3.35624 -3.1759,-0.81713 -7.7675,-1.26104 -10.2035,-0.98647 -2.436,0.27457 -5.2375,0.17843 -6.2255,-0.21366 -0.9881,-0.39208 -6.4092,-0.86901 -12.047,-1.05983 -9.7311,-0.32936 -10.4014,-0.22 -13.2276,2.15806 -2.3567,1.98308 -3.86,2.43834 -7.215,2.18501 -3.7784,-0.28529 -4.3832,-0.0218 -5.577,2.43001 -1.0009,2.05557 -2.0679,2.75 -4.2254,2.75 -1.5876,0 -3.1481,-0.4233 -3.4678,-0.94068 -0.3198,-0.51737 -3.6405,-0.83061 -7.3793,-0.69608 -5.1383,0.18487 -7.5557,0.78416 -9.9017,2.45471 -2.759,1.96459 -3.8821,2.1378 -10.1088,1.55909 -5.324,-0.49482 -7.976,-0.26246 -11.0521,0.96835 -3.3651,1.34646 -6.416,1.51162 -18.1024,0.98001 l -14.0553,-0.63936 -2.9772,2.85236 c -2.4652,2.36185 -2.8755,3.39433 -2.386,6.00387 0.5317,2.83435 0.2559,3.30587 -2.7413,4.68566 -1.833,0.8438 -5.6728,2.07724 -8.5331,2.74098 -2.8602,0.66375 -5.7278,1.84227 -6.3724,2.61895 -0.6446,0.77668 -2.2715,1.41214 -3.6153,1.41214 -1.3438,0 -3.3779,0.5002 -4.5202,1.11155 -1.1423,0.61134 -5.2464,1.50951 -9.1202,1.99592 -3.8737,0.4864 -8.6683,1.73143 -10.6545,2.76673 -1.9863,1.0353 -6.0652,2.21394 -9.0642,2.61921 -8.9556,1.21023 -11.0384,3.3091 -6.9527,7.00659 1.1,0.99549 2,2.34367 2,2.99597 0,1.54658 -12.2347,7.50403 -15.4109,7.50403 -1.5726,0 -3.2037,1.05444 -4.5451,2.93826 -1.1508,1.61604 -4.4917,4.11218 -7.4243,5.54697 -2.9326,1.4348 -5.8644,3.60347 -6.5151,4.81928 -0.6507,1.21581 -2.6279,3.15042 -4.3938,4.29914 -14.7774,9.6125 -19.5542,13.19967 -27.7936,20.87157 -9.2014,8.56762 -35.8273,35.88055 -35.8761,36.8017 -0.023,0.4273 -2.6833,4.2523 -5.9127,8.5 -3.2294,4.24769 -7.1149,10.19808 -8.6345,13.22308 -1.5196,3.025 -3.9695,7.3 -5.4441,9.5 -1.4746,2.2 -3.4951,6.25 -4.49,9 -0.9949,2.75 -3.687,7.475 -5.9824,10.5 -6.8759,9.06123 -10.5774,15.51191 -10.5774,18.43319 0,1.51694 -0.8375,3.95255 -1.8612,5.41245 -1.0236,1.4599 -2.4232,4.45437 -3.1102,6.65437 -0.6869,2.2 -2.2893,6.475 -3.5607,9.5 -1.2715,3.025 -2.9909,7.975 -3.821,11 -0.83,3.025 -2.7386,9.55 -4.2413,14.5 -2.0421,6.7267 -2.7969,11.52589 -2.9882,19 -0.1408,5.5 -0.767,15.625 -1.3915,22.5 -0.6246,6.875 -1.1189,13.175 -1.0986,14 0.2889,11.68896 2.2214,45.73636 3.0084,53 0.5661,5.225 1.5024,15.35 2.0808,22.5 1.4109,17.44205 2.8822,30.24951 4.6527,40.5 0.8074,4.675 2.0767,12.1 2.8206,16.5 0.7439,4.4 2.0401,11.15 2.8804,15 0.8404,3.85 2.6854,14.31171 4.1,23.24824 2.4056,15.19664 2.5028,17.13826 1.5018,30 -0.5886,7.56347 -1.5311,16.67676 -2.0944,20.25176 -2.5158,15.96597 -5.0921,45.7908 -5.2612,60.90706 -0.1203,10.75166 -0.881,12.60066 -3.7875,9.20606 z M 4088.5,-456.13782 c -0.6847,-0.825 -1.6257,-1.5 -2.0911,-1.5 -0.4653,0 -0.5871,0.675 -0.2705,1.5 0.3166,0.825 1.2575,1.5 2.091,1.5 1.2337,0 1.284,-0.27889 0.2706,-1.5 z m -4.4029,-5.25 c -0.7999,-1.5125 -2.7239,-4.15263 -4.2757,-5.86696 -1.5518,-1.71432 -4.5313,-5.20182 -6.6212,-7.75 -4.0387,-4.92445 -7.0882,-6.4004 -4.2388,-2.05157 2.9266,4.46645 14.8489,18.41853 15.7391,18.41853 0.468,0 0.1964,-1.2375 -0.6034,-2.75 z m -97.1805,-6.60687 c -0.3468,-0.90372 -1.0324,-1.64313 -1.5236,-1.64313 -1.3645,0 -1.0627,2.77272 0.357,3.27976 1.6903,0.60369 1.9087,0.29733 1.1666,-1.63663 z m 96.5834,-24.15783 c 0,-1.48303 -5.5242,-5.50058 -7.5,-5.4545 -0.9827,0.0229 5.9796,6.9692 6.9853,6.9692 0.2831,0 0.5147,-0.68161 0.5147,-1.5147 z m 6,-14.67765 c 0,-2.41216 -9.6056,-12.23032 -13.0284,-13.31667 -1.1198,-0.35542 -3.259,-1.78025 -4.7538,-3.16629 -3.5834,-3.32272 -5.9594,-4.55181 -6.6474,-3.43865 -0.303,0.49029 0.9072,2.00803 2.6893,3.37275 1.7822,1.36471 6.903,6.13978 11.3797,10.61126 4.4767,4.47147 8.6392,8.12995 9.25,8.12995 0.6108,0 1.1106,-0.98656 1.1106,-2.19235 z m -119.1975,-1.43751 c 0.1948,-1.35872 -0.339,-2.27585 -1.5,-2.57703 -3.8337,-0.99454 -5.6797,1.4297 -3.0733,4.03608 1.7747,1.77468 4.2215,0.99404 4.5733,-1.45905 z m 94.4942,-0.86882 c -0.9882,-1.37428 -2.7484,-2.75781 -3.9116,-3.07451 -1.1632,-0.3167 -4.0694,-2.56729 -6.4582,-5.00131 -4.6669,-4.75521 -8.0001,-6.24897 -3.7387,-1.6755 1.4092,1.5125 2.7309,3.30096 2.937,3.97437 0.3749,1.2247 10.6683,8.20174 12.1715,8.25003 0.4382,0.0141 -0.012,-1.09881 -1,-2.47308 z M 4017.5,-520.61484 c 0,-0.53736 -4.2993,-5.26236 -9.554,-10.5 -7.7387,-7.71362 -10.1137,-9.52298 -12.5,-9.52298 -2.0392,0 -2.946,0.49466 -2.946,1.60699 0,1.05925 -0.5429,1.39864 -1.5929,0.99573 -7.1489,-2.74329 -8.1504,-1.30934 -3.5352,5.06177 2.6415,3.64649 10.0984,10.33551 11.522,10.33551 1.5223,0 0.3481,-4.05873 -2.1988,-7.59996 -4.5309,-6.30009 -4.5087,-6.46763 0.5116,-3.84838 2.6363,1.37546 7.7183,5.16945 11.2933,8.43109 6.171,5.63007 9,7.21439 9,5.04023 z m -60.6087,-3.44566 c -0.6236,-1.62504 -3.3783,-2.92369 -4.2829,-2.0191 -0.6281,0.62815 2.6838,3.44178 4.0513,3.44178 0.4277,0 0.5319,-0.64021 0.2316,-1.42268 z m 82.4747,-6.49267 c -3.4344,-3.99487 -5.2594,-4.8751 -6.3728,-3.07358 -0.9254,1.49719 5.004,6.98893 7.5459,6.98893 2.0574,0 1.985,-0.24181 -1.1731,-3.91535 z m -7.866,-10.17505 c 0,-1.97107 -2.5356,-3.70732 -3.7056,-2.53736 -0.3406,0.34062 -0.094,1.77158 0.5474,3.17992 1.2878,2.82628 3.1582,2.44572 3.1582,-0.64256 z m -48.8,-2.1096 c -0.6417,-0.64167 -1.4986,-0.8347 -1.9044,-0.42896 -0.4057,0.40574 -0.089,1.13877 0.7044,1.62896 0.7931,0.49019 1.6501,0.68322 1.9044,0.42896 0.2542,-0.25426 -0.063,-0.98729 -0.7044,-1.62896 z m 7.8,-1.98555 c 0,-1.88597 -4.1716,-5.81445 -6.1743,-5.81445 -2.7869,0 -2.4446,4.8157 0.4243,5.96884 3.2152,1.29234 5.75,1.22429 5.75,-0.15439 z m 46,-0.70949 c 0,-0.49227 -1.1172,-1.95477 -2.4827,-3.25 -2.4528,-2.32657 -3.4551,-6.85496 -1.5173,-6.85496 0.55,0 1,-0.40733 1,-0.90517 0,-0.49957 -2.6742,-0.66268 -5.968,-0.36402 -4.7212,0.42811 -6.5448,0.16322 -8.7291,-1.26798 -1.5186,-0.99502 -4.0616,-2.07512 -5.6511,-2.40021 -2.4805,-0.50732 -2.9208,-1.09805 -3.1073,-4.16855 -0.2158,-3.55565 -0.2009,-3.5694 2.4388,-2.25251 1.4608,0.72874 4.5848,3.15983 6.9423,5.40243 4.1369,3.93537 6.1596,4.68366 4.4161,1.63373 -0.8896,-1.55609 -16.0745,-15.07503 -22.8417,-20.33573 -2.2,-1.71023 -5.7758,-3.85074 -7.9462,-4.75669 -6.2296,-2.60034 -10.5517,-6.32856 -10.2855,-8.87221 0.2012,-1.92187 -0.2481,-2.21309 -3.4148,-2.21309 -2.6433,0 -4.7988,-0.92586 -7.8348,-3.36524 -5.3636,-4.30963 -7.2268,-3.14033 -4.5291,2.84227 1.0029,2.22385 1.5318,4.3349 1.1755,4.69122 -1.2014,1.20141 -12.1307,-4.16121 -13.1522,-6.45336 -0.7275,-1.63229 -1.8454,-2.21489 -4.25,-2.21489 -2.5821,0 -3.2629,-0.41195 -3.2629,-1.97432 0,-1.17488 -1.1946,-2.59208 -2.9503,-3.49998 -1.6227,-0.83911 -3.3972,-2.31317 -3.9434,-3.27568 -0.9012,-1.58815 -1.1397,-1.60534 -2.5781,-0.18585 -1.4459,1.42681 -1.407,1.76958 0.4433,3.90301 1.1157,1.28636 2.0285,3.3852 2.0285,4.66409 0,1.49016 2.011,4.33626 5.5995,7.92477 5.7826,5.78262 11.4202,8.41051 18.0915,8.43314 1.755,0.006 3.4691,0.46082 3.809,1.01082 0.3399,0.55 2.504,1.01431 4.809,1.0318 2.3051,0.0175 5.0674,0.69461 6.1385,1.50469 1.0712,0.81009 2.7253,1.22606 3.6758,0.92437 0.9505,-0.30169 2.0992,0.0486 2.5525,0.77851 0.4533,0.72987 2.6503,2.66209 4.8822,4.29383 5.8265,4.25976 11.5733,10.96102 10.9014,12.712 -0.8068,2.10256 4.2626,7.7548 6.9552,7.7548 2.3162,0 5.8209,3.17979 6.9137,6.27268 1.0677,3.02181 3.4866,3.0594 9.2494,0.14374 l 5.5501,-2.80812 2.9868,3.19585 c 3.1216,3.34011 3.8854,3.79241 3.8854,2.30081 z m -110,-8.54826 c 0,-1.39157 -3.6276,-4.5567 -5.2225,-4.5567 -1.6383,0 -0.6766,2.95729 1.445,4.4433 2.7665,1.93774 3.7775,1.96809 3.7775,0.1134 z m 46,-3.5567 c 0,-0.55 -0.675,-1 -1.5,-1 -0.825,0 -1.5,0.45 -1.5,1 0,0.55 0.675,1 1.5,1 0.825,0 1.5,-0.45 1.5,-1 z m 22.5804,-8.74662 c -0.7775,-2.44984 -8.1797,-6.62111 -10.3034,-5.80618 -1.5033,0.57686 -1.5005,0.75785 0.035,2.29304 1.6349,1.63494 9.8585,6.02134 10.5296,5.61642 0.1877,-0.11327 0.07,-1.05974 -0.2609,-2.10328 z m 35.8698,-0.17276 c 0.3125,-0.50566 -0.172,-1.65959 -1.0767,-2.56429 -2.139,-2.13899 -4.3297,-0.37339 -2.4087,1.94129 1.4532,1.75091 2.6555,1.96582 3.4854,0.623 z m -89.4502,-5.08062 c 0,-1.1 -0.6484,-2 -1.441,-2 -1.7666,0 -2.896,1.64564 -2.059,3 1.0875,1.7596 3.5,1.07031 3.5,-1 z m 8,1 c 0,-0.55 -0.4766,-1 -1.059,-1 -0.5825,0 -0.7809,0.45 -0.441,1 0.3399,0.55 0.8165,1 1.059,1 0.2426,0 0.441,-0.45 0.441,-1 z m -17.0077,-4.75 c -0.015,-1.50776 -8.0778,-5.3013 -14.2027,-6.68277 -3.4593,-0.78024 -7.3725,-1.74794 -8.696,-2.15045 -3.5934,-1.09285 -1.878,0.93347 3.4175,4.03684 2.5305,1.48299 6.8098,2.90044 9.7495,3.22937 2.8817,0.32243 5.9144,0.96198 6.7394,1.42122 1.8951,1.05494 3.0022,1.10887 2.9923,0.14579 z M 3796.5,-592.20356 c 0,-2.12486 -1.8484,-5.43426 -3.0352,-5.43426 -1.223,0 -1.2202,1.19813 0.01,4.4349 1.0741,2.82493 3.0248,3.46944 3.0248,0.99936 z m -289.2181,-11.2612 c 0.3073,-0.93523 -0.3851,-1.23043 -2.3458,-1 -1.53,0.17982 -2.9781,0.92406 -3.218,1.65388 -0.3073,0.93523 0.3851,1.23043 2.3458,1 1.53,-0.17982 2.9781,-0.92406 3.218,-1.65388 z m 33.9686,-10.92306 c 0.2415,-0.72541 -0.4334,-1.25 -1.6081,-1.25 -2.187,0 -3.5031,1.30592 -2.414,2.39509 1.0062,1.00617 3.5466,0.28291 4.0221,-1.14509 z m 342.2495,-18.75 c -1.3693,-1.64991 -4,-2.03356 -4,-0.58333 0,0.99783 1.7036,1.87963 3.8724,2.00438 1.1072,0.0637 1.1319,-0.211 0.1276,-1.42105 z m -62.5,-21.03611 c -3.5512,-1.62608 -5.5,-1.81643 -5.5,-0.53721 0,1.07113 2.4149,1.82622 6,1.8761 2.4129,0.0336 2.3955,-0.0131 -0.5,-1.33889 z m 82.0044,-17.45898 c -1.9995,-2.20949 -11.5039,-7.00491 -13.8835,-7.00491 -0.8266,0 -1.7932,0.46971 -2.148,1.0438 -1.1068,1.79081 1.6257,3.9562 4.9923,3.9562 1.7711,0 5.2035,1.06389 7.6275,2.3642 4.9942,2.67902 6.0598,2.5668 3.4117,-0.35929 z m -60.1242,-6.55082 c -3.3146,-3.03601 -7.3802,-4.59967 -7.3802,-2.83847 0,0.33859 2.3625,2.87329 5.25,5.63268 4.747,4.53637 5.2812,4.80833 5.5756,2.83847 0.2231,-1.49312 -0.861,-3.26539 -3.4454,-5.63268 z m -12.776,-6.18326 c -1.0165,-1.01651 -1.8553,0.51389 -1.0212,1.86338 0.63,1.01942 0.8655,1.02021 1.2043,0.004 0.2316,-0.69479 0.1492,-1.53513 -0.1831,-1.86742 z M 3723.5,-710.74481 c 0,-1.14261 -2.7117,-1.16842 -3.4138,-0.0325 -0.2925,0.47329 -0.2751,1.11728 0.039,1.4311 0.7803,0.78039 3.375,-0.29484 3.375,-1.3986 z m 40,-0.23802 c 0,-0.73976 -0.9017,-2.16103 -2.0037,-3.15837 -1.694,-1.533 -3.5744,-1.78246 -12.1626,-1.61352 -5.5874,0.10991 -10.5431,0.43727 -11.0126,0.72747 -1.7166,1.0609 0.2958,2.21784 4.9778,2.86178 2.6382,0.36284 5.4502,1.07311 6.2489,1.57837 2.3953,1.51524 13.9522,1.18744 13.9522,-0.39573 z m -294.9777,-15.2137 c 1.8537,-4.8755 2.3441,-10.44129 0.92,-10.44129 -2.7775,0 -5.9423,4.26476 -5.9423,8.00765 0,2.01246 0.3,3.95902 0.6667,4.32568 1.423,1.42304 3.426,0.55294 4.3556,-1.89204 z M 3788,-727.69707 c 0,-1.90883 -4.6219,-3.37795 -7.9776,-2.53574 -3.2796,0.82314 -2.6601,1.69073 2.3095,3.2344 4.344,1.34935 5.6681,1.18614 5.6681,-0.69866 z m -15.5,-15.87336 c 0,-1.22304 -3.6925,-2.37549 -5.0074,-1.56284 -0.5639,0.34851 -0.7663,1.05255 -0.4499,1.56455 0.7499,1.2134 5.4573,1.21193 5.4573,-0.002 z m 327.0086,690.95909 c -0.8202,-0.51859 -3.8646,-1.23941 -6.7653,-1.60182 -4.1641,-0.52027 -5.6517,-1.21297 -7.0691,-3.2918 -3.0294,-4.44323 -9.1742,-18.90662 -9.1742,-21.59406 0,-2.46659 3.0637,-6.5388 4.9194,-6.5388 2.3172,0 11.8104,10.29188 14.4465,15.66193 1.5763,3.21094 4.1638,8.43215 5.75,11.60269 1.5863,3.17054 2.8841,5.98304 2.8841,6.25 0,0.83507 -3.4288,0.49975 -4.9914,-0.48814 z m 35.9337,-39.596 c -0.7164,-0.86324 -2.096,-1.36206 -3.0656,-1.10848 -2.6068,0.68169 -4.1964,-1.60607 -10.749,-15.46986 -4.8075,-10.17156 -6.7706,-13.24501 -10.3147,-16.14917 -8.1305,-6.66232 -11.1738,-6.77341 -14.4046,-0.5258 -1.3899,2.68777 -3.7454,3.70462 -4.7639,2.05656 -0.2605,-0.42144 -0.056,-3.00076 0.454,-5.73182 0.7546,-4.03894 1.905,-5.95635 6.1646,-10.27501 5.8321,-5.91291 14.4206,-11.2269 18.145,-11.2269 2.8115,0 7.6403,3.72952 9.2616,7.15305 0.6112,1.29082 3.0238,6.2983 5.3612,11.12772 3.8763,8.00894 4.4173,10.11085 6.1542,23.91223 1.0474,8.32229 1.6734,15.73344 1.391,16.46922 -0.6819,1.77714 -2.0384,1.69064 -3.6338,-0.23174 z m -73.7086,-20.02056 c -1.7455,-5.68734 -0.089,-8.11685 3.1189,-4.57281 1.1758,1.29926 1.4773,2.76313 1.03,5 -0.8419,4.20947 -2.7873,4.00916 -4.1489,-0.42719 z m -707.6904,-20.65992 c -0.2722,-1.2375 -0.6183,-3.6 -0.7691,-5.25 -0.222,-2.4291 -0.7866,-3.05916 -2.9667,-3.31088 -2.0393,-0.23545 -2.927,-1.08463 -3.659,-3.5 -2.09,-6.89727 -2.1242,-12.32762 -0.1135,-18.04837 1.0808,-3.07493 1.965,-6.52625 1.965,-7.6696 0,-1.14334 1.575,-6.78631 3.5,-12.53992 1.925,-5.75362 3.5,-11.09907 3.5,-11.87879 0,-0.77971 0.8279,-1.68045 1.8399,-2.00162 1.0119,-0.32118 2.4532,-1.7299 3.2027,-3.13049 2.3228,-4.34012 15.131,-14.73621 22.9787,-18.65124 8.2565,-4.11894 18.0546,-6.89848 30.9787,-8.78808 4.675,-0.68352 10.975,-1.84091 14,-2.57198 8.2877,-2.00292 28.6821,-2.90346 33.5,-1.47923 4.3951,1.29924 12.6687,2.90731 19.2084,3.73338 2.3146,0.29237 4.7322,1.16276 5.3724,1.9342 1.5399,1.8554 4.421,1.77518 7.4467,-0.20733 1.3514,-0.88547 3.1216,-1.35494 3.9339,-1.04326 0.8122,0.31169 2.7282,-0.0861 4.2577,-0.88388 1.5295,-0.79783 3.5133,-1.45336 4.4085,-1.45675 2.6016,-0.01 4.303,-2.72613 3.2232,-5.14595 -1.0034,-2.24876 -8.6136,-5.6966 -14.3508,-6.50167 -1.925,-0.27013 -4.625,-1.3653 -6,-2.43371 -5.3879,-4.18655 -12.2356,-5.51745 -26.2726,-5.10634 -4.275,0.1252 -8.5942,-0.21204 -9.5984,-0.74944 -2.156,-1.15389 -11.2782,-1.44922 -15.8393,-0.5128 -2.4502,0.50304 -4.3308,0.0329 -7.9425,-1.98576 -3.3366,-1.86485 -5.5405,-2.46732 -7.473,-2.04286 -3.2991,0.72459 -12.8538,-2.3334 -14.6096,-4.67577 -1.121,-1.49568 -5.4154,-2.46856 -13.7646,-3.11837 -2.7688,-0.21549 -2.9797,-0.002 -2.7361,2.76651 0.2429,2.7608 0.1507,2.85545 -1.1562,1.1871 -1.1103,-1.41738 -2.1972,-1.66713 -4.9818,-1.14474 -3.2106,0.6023 -3.9098,0.29899 -7.0938,-3.07697 -1.9426,-2.05983 -3.5321,-3.88133 -3.5321,-4.04777 0,-0.16644 1.8079,-0.441 4.0176,-0.61012 4.81,-0.36814 5.4966,-1.79444 1.7324,-3.59859 -1.5125,-0.72492 -2.7478,-1.63099 -2.745,-2.01348 0.013,-1.86503 5.1084,-6.72341 8.1099,-7.7331 2.5827,-0.86881 3.5048,-1.82893 3.8903,-4.05053 0.4648,-2.67941 0.8838,-2.93613 5.25,-3.21659 4.7487,-0.30505 5.9463,-1.59368 3.6319,-3.90808 -3.4297,-3.42975 5.6389,-3.98131 10.8731,-0.6613 1.7586,1.11549 2.7322,1.18102 4.3871,0.29531 1.1699,-0.62607 3.5898,-0.90093 5.3776,-0.61081 1.7879,0.29013 4.9887,0.14968 7.1129,-0.31211 2.1242,-0.46179 12.0429,-1.08549 22.0415,-1.38601 23.1144,-0.69472 25.3835,-0.13958 39.787,9.73405 1.6385,1.12321 4.3242,1.95264 6,1.85301 2.5245,-0.15011 3.2855,0.3635 4.5337,3.06017 0.8466,1.82893 2.1534,3.13941 3,3.00835 0.825,-0.12772 3.5991,1.89728 6.1647,4.5 2.5655,2.60271 5.8502,5.85721 7.2993,7.23221 8.2681,7.8454 11.5224,11.68138 13.0424,15.37338 0.9344,2.26964 2.1409,4.96918 2.6811,5.99897 0.5403,1.02979 1.2319,4.40479 1.5371,7.5 0.3051,3.09521 1.3304,7.20265 2.2783,9.12765 2.4231,4.92054 4.7491,22.648 3.1778,24.21934 -0.6494,0.64936 -1.1807,1.86122 -1.1807,2.69301 0,0.83179 -1.1613,2.65429 -2.5807,4.05 -1.4193,1.39571 -3.5897,4.11265 -4.823,6.03765 -2.252,3.51513 -2.9837,3.76633 -7.5963,2.60793 -1.375,-0.34531 -3.1698,-0.19298 -3.9884,0.3385 -1.2403,0.80519 -0.9264,1.54626 1.8822,4.44404 4.1126,4.24306 3.6627,6.04842 -2.132,8.55523 -3.1935,1.38152 -8.1114,2.02061 -19.6186,2.54944 -8.4462,0.38815 -16.5985,1.06184 -18.1161,1.49708 -3.763,1.07923 -5.622,-0.15841 -3.3007,-2.19756 0.9755,-0.85696 2.7445,-1.85346 3.9312,-2.21445 2.8358,-0.86264 3.7124,-3.35306 1.8395,-5.22594 -0.8234,-0.82342 -1.4971,-1.8637 -1.4971,-2.31173 0,-0.44804 -3.159,-2.69133 -7.02,-4.9851 -5.7746,-3.43062 -7.7664,-4.11611 -11.2274,-3.86396 -4.1494,0.3023 -4.2174,0.36848 -4.935,4.80652 -1.0349,6.40033 -3.9526,16.1009 -5.6507,18.78735 -2.1922,3.46813 -13.7484,9.73654 -22.1669,12.02404 -13.4135,3.64473 -14.8979,3.66153 -21.3982,0.24215 -3.1927,-1.67944 -6.1604,-3.05354 -6.5949,-3.05354 -0.4346,0 -1.078,1.14704 -1.4298,2.54897 -0.4538,1.80802 -1.9629,3.11611 -5.1913,4.5 -2.5034,1.07307 -5.174,1.95103 -5.9348,1.95103 -0.7607,0 -2.9734,0.75835 -4.9171,1.68521 -2.7469,1.30991 -3.5339,2.28204 -3.5339,4.36514 0,5.82118 -6.8532,10.24128 -10,6.44965 -1.8589,-2.2398 -3.3806,-1.85935 -8,2 -4.8711,4.06968 -7.7432,4.49422 -8.4567,1.25 z m 10.986,-43.84238 c 0.333,-1.04919 0.9896,-1.90762 1.4591,-1.90762 0.4696,0 2.8017,-1.93039 5.1827,-4.28977 4.0155,-3.97922 15.9121,-11.7088 25.3289,-16.45703 6.4819,-3.26834 20.1699,-6.13821 32.5,-6.81405 17.3875,-0.95304 22.4247,-2.81931 16.9081,-6.26446 -1.5423,-0.96321 -1.9334,-1.93758 -1.4888,-3.70909 0.4971,-1.98049 0.03,-2.70309 -2.6581,-4.11217 -4.8277,-2.5306 -29.6058,-2.26444 -38.9385,0.41826 -14.3209,4.11662 -31.0544,16.70443 -37.7257,28.37926 -3.0891,5.40612 -5.7373,15.00395 -4.6329,16.79099 0.8773,1.41947 3.364,0.17508 4.0652,-2.03432 z m 67.4344,-17.36382 c 1.3741,-1.65581 0.5944,-3.5438 -1.4637,-3.5438 -1.7995,0 -2.8237,1.71403 -2.12,3.54789 0.7104,1.85112 2.0452,1.8496 3.5837,-0.004 z m -35.5563,53.94321 c -0.802,-3.19547 1.4516,-6.49039 2.796,-4.08799 0.9742,1.7407 0.022,6.60098 -1.2928,6.60098 -0.4798,0 -1.1563,-1.13084 -1.5032,-2.51299 z m 21.1892,-2.33078 c -0.3461,-0.55992 -0.1419,-1.31919 0.4536,-1.68727 1.5375,-0.95021 2.5295,0.35135 1.246,1.63484 -0.7182,0.71818 -1.2775,0.73543 -1.6996,0.0524 z m 274.8165,-62.64851 c -0.8982,-1.37075 -1.3726,-3.17075 -1.0544,-4 1.1811,-3.07795 -0.3794,-4.59447 -4.024,-3.91073 -3.3091,0.62079 -3.4095,0.54927 -2.7756,-1.97645 0.5741,-2.28738 0.3496,-2.62054 -1.7655,-2.62054 -1.7848,0 -2.8629,0.9221 -4.0922,3.5 -1.9785,4.14903 -2.9763,4.31601 -6.2468,1.04545 -1.65,-1.64996 -2.4546,-3.57658 -2.4546,-5.87755 0,-1.88266 -0.675,-3.98321 -1.5,-4.6679 -0.825,-0.68469 -1.5,-2.02004 -1.5,-2.96746 0,-2.03985 -2.6054,-4.52335 -5.7511,-5.48198 -1.238,-0.37731 -2.6852,-1.49725 -3.2158,-2.48878 -1.0734,-2.00559 -0.7549,-17.58496 0.4147,-20.2864 0.9822,-2.26845 -2.604,-8.06989 -5.9232,-9.58224 -1.7634,-0.80342 -2.5246,-1.93942 -2.5246,-3.76741 0,-1.43943 -0.7609,-3.90532 -1.691,-5.47976 -1.6571,-2.80531 -1.6353,-2.91424 1.091,-5.4409 2.6507,-2.45658 2.7069,-2.69291 1.191,-5.0065 -0.875,-1.33551 -1.591,-3.95298 -1.591,-5.81659 0,-1.86361 -1.125,-6.48999 -2.5,-10.28085 -3.0662,-8.45339 -3.0836,-9.15113 -0.2286,-9.15113 1.2493,0 4.0202,-1.18678 6.1577,-2.6373 3.4982,-2.37399 4.0531,-2.48631 5.5573,-1.125 0.9191,0.83177 2.5875,1.5123 3.7075,1.5123 2.3559,0 7.2964,-3.58908 7.3267,-5.32258 0.011,-0.64758 1.9238,-3.34475 4.25,-5.99371 3.8491,-4.38317 4.679,-4.84664 9.2294,-5.1537 2.75,-0.18557 6.4296,0.14776 8.1769,0.74074 2.8475,0.96638 3.5541,0.77496 6.8152,-1.8463 9.8719,-7.93492 10.9801,-8.57946 13.9933,-8.13856 3.0835,0.45117 13.8425,-2.96024 18.068,-5.7289 4.5816,-3.00201 7.2491,-1.49823 3.4466,1.94301 -2.2409,2.02797 -2.6562,4.50982 -0.75,4.48129 0.6875,-0.0103 4.3417,-1.58528 8.1204,-3.5 6.9528,-3.52304 13.8237,-4.59421 15.1987,-2.36946 0.4453,0.72051 2.4019,0.88437 5.559,0.46556 l 4.8719,-0.64628 -0.015,4.78445 c -0.01,2.63144 -0.657,6.62788 -1.4422,8.88096 -0.7852,2.25309 -1.5254,7.11614 -1.6449,10.80677 -0.2028,6.26483 -0.4058,6.80775 -3.0578,8.17916 -1.5623,0.8079 -2.8416,1.79485 -2.8428,2.19323 -0.01,1.64696 -16.68,8.22432 -20.8501,8.22432 -1.2157,0 -2.4759,0.69177 -2.8003,1.53726 -0.3245,0.84549 -2.067,2.15441 -3.8723,2.90871 -1.8053,0.7543 -3.5807,2.31149 -3.9453,3.46042 -0.3779,1.1907 -1.8169,2.32923 -3.3464,2.64771 -1.4758,0.30731 -4.6281,1.05086 -7.0049,1.65233 -2.3769,0.60146 -5.7156,1.13857 -7.4194,1.19357 -2.5839,0.0834 -3.4712,0.80606 -5.3486,4.35635 -2.0702,3.91483 -2.1331,4.49236 -0.7836,7.19756 2.0073,4.02368 4.9122,4.76298 8.4469,2.14972 1.8812,-1.39084 4.3412,-2.10363 7.26,-2.10363 3.9575,0 9.48,-1.41364 15.1663,-3.88224 7.5518,-3.27849 26.6227,-6.70807 29.2198,-5.25468 1.2403,0.6941 -0.6993,2.03607 -8.5149,5.89133 -5.6126,2.76853 -11.2375,6.31923 -12.6272,7.97085 -3.454,4.10484 -5.3245,11.34033 -3.7979,14.69091 1.351,2.96519 2.3948,2.8905 16.2202,-1.16083 21.2991,-6.24139 21.043,-6.19614 35.2297,-6.22622 9.4901,-0.0201 14.894,0.40953 17.5,1.39141 2.0736,0.78129 6.2453,1.94329 9.2703,2.58222 14.3776,3.03682 34.1245,11.08507 39.6192,16.1476 3.2518,2.99607 9.1612,12.01567 9.9377,15.16803 l 0.6942,2.81838 -8.3756,-0.2232 c -4.6065,-0.12276 -12.7668,0.13781 -18.1339,0.57904 -8.7444,0.71888 -9.9692,0.61141 -11.7877,-1.03431 -1.762,-1.59452 -1.8268,-1.94997 -0.4917,-2.69711 2.1194,-1.18606 1.9267,-3.48265 -0.3965,-4.726 -2.7994,-1.49818 -4.0629,-1.27713 -4.0861,0.71482 -0.034,2.91403 -13.9601,17.13289 -18.9796,19.37839 -6.2438,2.79317 -25.3276,4.68926 -30.7738,3.05755 -5.5506,-1.66302 -13.9403,-11.4636 -19.4272,-22.69444 -2.3726,-4.85637 -4.8862,-9.02055 -5.5857,-9.25373 -0.6996,-0.23319 -4.007,2.27735 -7.3498,5.57897 l -6.0778,6.00294 -0.3569,8.34016 -0.3569,8.34016 -4.786,2.18863 c -5.678,2.59658 -9.1956,2.84698 -11.8448,0.84317 -3.0383,-2.29802 -5.4138,-1.80717 -8.8063,1.8196 -3.0431,3.25332 -8.0304,5.6486 -11.761,5.6486 -1.0053,0 -2.5626,-1.12153 -3.4607,-2.49228 z m 33.7412,-11.75337 c -1.1451,-1.14518 -3.4467,-0.0365 -2.6386,1.27107 0.3016,0.48798 1.2392,0.62213 2.0835,0.29812 1.0027,-0.38476 1.1953,-0.92908 0.5551,-1.56919 z m 78.5189,-35.06761 c 0,-0.55 -0.6377,-2.43372 -2,-2.375 -1.3622,0.0587 -3.3125,0.35625 -3.125,2.0625 0.1875,1.70625 0.9813,2.78125 2.875,2.75 1.8938,-0.0312 2.25,-1.8875 2.25,-2.4375 z M 3680,-262.63782 c 0.3399,-0.55 1.6899,-1 3,-1 1.3101,0 2.6601,0.45 3,1 0.9199,1.48839 3.4826,1.20887 4.1189,-0.44926 0.3059,-0.79709 -0.5335,-2.62442 -1.8653,-4.06072 -1.8715,-2.01829 -3.0056,-2.46488 -4.9927,-1.96614 -3.1403,0.78815 -7.218,4.92757 -6.3066,6.40209 0.8329,1.34768 2.2374,1.38182 3.0457,0.074 z m 183.8067,13.75 c -3.0565,-3.36786 -5.6625,-7.75 -4.6088,-7.75 1.2041,0 5.7284,4.85972 7.2151,7.75 0.6366,1.2375 0.77,2.25 0.2965,2.25 -0.4735,0 -1.7798,-1.0125 -2.9028,-2.25 z M 3825.5,-569.19684 c 0,-0.85746 0.4573,-1.27636 1.0163,-0.9309 0.559,0.34546 0.7574,1.04702 0.441,1.55902 -0.8572,1.38704 -1.4573,1.12841 -1.4573,-0.62812 z m -412,-130.44098 c 0,-0.55 0.4766,-1 1.059,-1 0.5825,0 0.7809,0.45 0.441,1 -0.3399,0.55 -0.8165,1 -1.059,1 -0.2426,0 -0.441,-0.45 -0.441,-1 z m 1.7384,-7.12649 c -1.362,-0.76226 -1.7384,-2.32609 -1.7384,-7.2232 0,-6.16713 1.0711,-8.65031 3.7314,-8.65031 2.1896,0 2.6358,2.93679 0.7609,5.00847 -1.4572,1.61027 -1.5831,2.59205 -0.7522,5.86566 1.1841,4.6651 0.4916,6.39468 -2.0017,4.99938 z m 6.3091,-8.78481 c -0.6987,-1.30551 -0.7156,-2.17579 -0.05,-2.58703 1.3381,-0.82702 3.0027,0.28077 3.0027,1.99833 0,2.31237 -1.8343,2.67811 -2.9526,0.5887 z"
       id="path4155" />
    <circle
       r="3.25"
       cy="-252.26282"
       cx="3798.125"
       id="path6730"
       style="opacity:1;fill:#ffffff;fill-opacity:1;stroke:none;stroke-width:0.13;stroke-linecap:round;stroke-linejoin:round;stroke-miterlimit:4;stroke-dasharray:none;stroke-dashoffset:0;stroke-opacity:1" />
    <circle
       r="3.0052037"
       cy="-195.5929"
       cx="3430.4402"
       id="path6732"
       style="opacity:1;fill:#ffffff;fill-opacity:1;stroke:none;stroke-width:0.13;stroke-linecap:round;stroke-linejoin:round;stroke-miterlimit:4;stroke-dasharray:none;stroke-dashoffset:0;stroke-opacity:1" />
    <rect
       y="1011.497"
       x="3173.4951"
       height="292.25558"
       width="1050.26"
       id="rect6798"
       style="opacity:1;fill:#183f54;fill-opacity:1;stroke:none;stroke-width:0.13;stroke-linecap:round;stroke-linejoin:round;stroke-miterlimit:4;stroke-dasharray:none;stroke-dashoffset:0;stroke-opacity:1" />
  </g>
  <g
     transform="translate(-3150.865,802.20544)"
     style="display:inline"
     id="layer4">
    <g
       id="flowRoot6781"
       style="font-style:normal;font-variant:normal;font-weight:bold;font-stretch:normal;font-size:90px;line-height:125%;font-family:Nevis;-inkscape-font-specification:'Nevis Bold';letter-spacing:0px;word-spacing:0px;fill:#72959f;fill-opacity:1;stroke:none;stroke-width:1px;stroke-linecap:butt;stroke-linejoin:miter;stroke-opacity:1"
       transform="matrix(1.4387514,0,0,3.6818206,999.0897,-297.42368)">
      <path
         id="path4177"
         style=""
         d="m 1551.5762,386.84032 -3.6475,11.73339 9.5801,0 3.6914,-11.73339 -9.624,0 z m -2.417,-27.37793 10.415,0 -5.7568,19.11621 9.5801,0 5.8007,-19.11621 10.3711,0 -5.7568,19.11621 12.7002,0 -2.2412,8.04199 -12.7002,0 -3.5596,11.7334 13.5791,0 -2.2851,8.08594 -13.6231,0 -5.7129,18.89648 -10.3711,0 5.669,-18.89648 -9.4922,0 -5.8008,18.89648 -10.3711,0 5.7129,-18.89648 -11.9971,0 2.2852,-8.08594 11.9092,0 3.6914,-11.7334 -12.9639,0 2.2412,-8.04199 12.9639,0 5.7129,-19.11621 z" />
      <path
         id="path4179"
         style=""
         d="m 1592.6211,425.33641 0,-65.91797 46.3623,0 0,12.30469 -33.1787,0 0,14.0625 24.4775,0 0,12.26074 -24.4775,0 0,27.29004 -13.1836,0 z" />
      <path
         id="path4181"
         style=""
         d="m 1658.8906,386.22508 q 4.7022,-4.83398 11.4698,-4.83398 2.1533,0 4.0869,0.35156 l -1.9336,12.12891 q -2.1533,-1.9336 -6.1524,-2.06543 -4.4824,0.30761 -7.4707,6.5039 l 0,27.02637 -12.3047,0 0,-42.6709 12.3047,-1.31836 0,4.87793 z" />
      <path
         id="path4183"
         style=""
         d="m 1680.2041,403.36375 q 0,-9.66796 6.1523,-15.82031 6.1524,-6.15234 15.8204,-6.15234 9.6679,0 15.3808,6.15234 5.7129,6.15235 5.7129,15.82031 l 0,4.39454 -30.3223,0 q 0.4395,3.51562 3.0762,5.49316 2.6367,1.97754 6.1524,1.97754 6.1523,0 10.9863,-3.51563 l 7.0312,7.03125 q -4.8339,6.5918 -18.0175,6.5918 -9.668,0 -15.8204,-6.15234 -6.1523,-6.15235 -6.1523,-15.82032 z m 30.7617,-4.39453 q 0,-3.51562 -2.6367,-5.49316 -2.6367,-1.97754 -6.1523,-1.97754 -3.5157,0 -6.1524,1.97754 -2.6367,1.97754 -2.6367,5.49316 l 17.5781,0 z" />
      <path
         id="path4185"
         style=""
         d="m 1730.6533,403.36375 q 0,-9.66796 6.1524,-15.82031 6.1523,-6.15234 15.8203,-6.15234 9.6679,0 15.3808,6.15234 5.7129,6.15235 5.7129,15.82031 l 0,4.39454 -30.3222,0 q 0.4394,3.51562 3.0761,5.49316 2.6368,1.97754 6.1524,1.97754 6.1523,0 10.9863,-3.51563 l 7.0313,7.03125 q -4.834,6.5918 -18.0176,6.5918 -9.668,0 -15.8203,-6.15234 -6.1524,-6.15235 -6.1524,-15.82032 z m 30.7617,-4.39453 q 0,-3.51562 -2.6367,-5.49316 -2.6367,-1.97754 -6.1523,-1.97754 -3.5156,0 -6.1524,1.97754 -2.6367,1.97754 -2.6367,5.49316 l 17.5781,0 z" />
      <path
         id="path4187"
         style=""
         d="m 1805.8877,359.41844 q 9.1846,0 14.2383,2.19727 5.0537,2.19726 9.4482,6.59179 l -8.789,8.78907 q -4.3946,-5.27344 -12.3047,-5.27344 -7.9102,0 -10.1075,3.73535 -2.1972,3.73535 0,6.37207 2.1973,2.63672 10.1075,3.95508 8.3496,0.87891 15.1611,5.49316 6.8115,4.61426 6.8115,14.72168 0,7.91016 -7.2949,13.62305 -7.251,5.71289 -16.9189,5.71289 -9.1846,0 -15.337,-2.63672 -6.1523,-2.63672 -10.5468,-7.03125 l 8.789,-8.78906 q 4.3946,5.27344 14.9414,6.15234 8.7891,0 10.9424,-3.73535 2.1973,-3.73535 0,-7.4707 -2.1533,-3.73535 -10.9424,-4.61426 -7.9101,-0.87891 -14.5019,-4.83398 -6.5918,-3.95508 -6.5918,-13.62305 0,-8.74512 7.4707,-14.01856 7.5146,-5.31738 15.4248,-5.31738 z" />
      <path
         id="path4189"
         style=""
         d="m 1842.0986,386.66454 q 8.3496,-5.27344 19.336,-5.27344 7.9101,0 12.5244,4.39453 4.6142,4.39453 4.6142,13.18359 l 0,26.36719 -12.3046,0 0,-3.51562 q -5.3614,3.51562 -9.668,3.51562 -8.7891,0 -13.1836,-3.73535 -4.3945,-3.73535 -4.3945,-10.32715 0,-6.15234 4.1308,-10.98633 4.1748,-4.83398 13.4473,-4.83398 4.2627,0 9.668,2.63672 l 0,-1.31836 q -0.088,-4.83399 -7.0313,-5.27344 -7.9102,0 -12.3047,2.63672 l -4.834,-7.4707 z m 24.17,25.48828 0,-4.96582 q -1.7579,-3.38379 -8.3497,-3.38379 -7.9101,0.8789 -8.3496,6.15234 0.4395,5.22949 8.3496,5.66895 6.5918,0 8.3497,-3.47168 z" />
      <path
         id="path4191"
         style=""
         d="m 1885.9561,381.3911 17.666,43.94531 10.5468,0 17.6221,-43.94531 -12.4805,0 -10.5468,27.46582 -10.3272,-27.46582 -12.4804,0 z" />
      <path
         id="path4193"
         style=""
         d="m 1959.6084,425.33641 q -8.7891,0 -15.3809,-5.49316 -6.5918,-5.49317 -6.5918,-14.28223 l 0,-4.39453 q 0,-8.78906 6.5918,-14.28223 6.5918,-5.49316 15.4248,-5.49316 10.5469,0 17.5342,7.4707 l -8.789,6.5918 q -3.9551,-3.95508 -8.7891,-3.95508 -4.3945,0 -7.6904,3.51562 -3.2959,3.51563 -3.2959,8.34961 0,4.83399 3.0761,8.34961 3.0762,3.51563 7.9102,3.51563 4.834,0 8.7891,-3.95508 l 8.789,6.5918 q -7.0312,7.4707 -17.5781,7.4707 z" />
      <path
         id="path4195"
         style=""
         d="m 1998.2363,395.62938 0,29.70703 -12.3047,0 0,-65.91797 12.3047,0 0,25.92774 q 4.4385,-3.95508 10.5469,-3.95508 8.3496,0 12.7441,5.05371 4.3946,5.05371 4.3946,11.64551 l 0,27.24609 -12.3047,0 0,-24.16992 q 0,-4.39453 -2.1973,-6.81153 -2.1972,-2.41699 -6.6357,-2.54882 -3.8233,0.26367 -6.5479,3.82324 z" />
      <path
         id="path4197"
         style=""
         d="m 2031.9424,403.36375 q 0,-9.66796 6.1523,-15.82031 6.1524,-6.15234 15.8203,-6.15234 9.668,0 15.3809,6.15234 5.7129,6.15235 5.7129,15.82031 l 0,4.39454 -30.3223,0 q 0.4395,3.51562 3.0762,5.49316 2.6367,1.97754 6.1523,1.97754 6.1524,0 10.9864,-3.51563 l 7.0312,7.03125 q -4.834,6.5918 -18.0176,6.5918 -9.6679,0 -15.8203,-6.15234 -6.1523,-6.15235 -6.1523,-15.82032 z m 30.7617,-4.39453 q 0,-3.51562 -2.6367,-5.49316 -2.6367,-1.97754 -6.1524,-1.97754 -3.5156,0 -6.1523,1.97754 -2.6367,1.97754 -2.6367,5.49316 l 17.5781,0 z" />
      <path
         id="path4199"
         style=""
         d="m 2097.0254,397.38719 0,27.94922 -12.3047,0 0,-42.6709 12.3047,-1.31836 0,3.99903 q 4.4385,-3.95508 10.5469,-3.95508 8.3496,0 12.7441,5.05371 4.3945,5.05371 4.3945,11.64551 l 0,27.24609 -12.3046,0 0,-24.16992 q 0,-4.39453 -2.1973,-6.81153 -2.1973,-2.41699 -6.6358,-2.54882 -3.8232,0.26367 -6.5478,5.58105 z" />
      <path
         id="path4201"
         style=""
         d="m 2136.1367,359.41844 13.1836,0 0,37.30957 12.6123,-15.33691 14.8096,0 -16.4356,19.73144 20.8301,24.21387 -17.1387,0 -14.6777,-17.53418 0,17.53418 -13.1836,0 0,-65.91797 z" />
      <path
         id="path4203"
         style=""
         d="m 2207.5918,425.77586 q -9.5801,0 -15.9961,-6.41601 -6.416,-6.45996 -6.416,-15.9961 0,-9.58007 6.416,-15.99609 6.416,-6.41602 15.9961,-6.41602 9.5801,0 15.9961,6.41602 6.416,6.41602 6.416,15.99609 0,9.58008 -6.416,15.9961 -6.416,6.41601 -15.9961,6.41601 z m -0.044,-10.63476 q 5.0097,0 8.1298,-3.33985 3.1202,-3.38379 3.1202,-8.39355 0,-5.00977 -3.1202,-8.39356 -3.1201,-3.38378 -8.1738,-3.38378 -4.9658,0 -8.0859,3.38378 -3.1201,3.38379 -3.1201,8.39356 0,5.00976 3.1201,8.39355 3.1201,3.33985 8.1299,3.33985 z" />
    </g>
  </g>
</svg>
