<?xml version="1.0" encoding="UTF-8" standalone="no"?>
<!-- Created with Inkscape (http://www.inkscape.org/) -->

<svg
   xmlns:dc="http://purl.org/dc/elements/1.1/"
   xmlns:cc="http://creativecommons.org/ns#"
   xmlns:rdf="http://www.w3.org/1999/02/22-rdf-syntax-ns#"
   xmlns:svg="http://www.w3.org/2000/svg"
   xmlns="http://www.w3.org/2000/svg"
   xmlns:sodipodi="http://sodipodi.sourceforge.net/DTD/sodipodi-0.dtd"
   xmlns:inkscape="http://www.inkscape.org/namespaces/inkscape"
   width="160.0311mm"
   height="159.4716mm"
   viewBox="0 0 567.03932 565.05686"
   id="svg2"
   version="1.1"
   inkscape:version="0.91pre3 r13670"
   sodipodi:docname="SOLAR.svg">
  <defs
     id="defs4" />
  <sodipodi:namedview
     id="base"
     pagecolor="#ffffff"
     bordercolor="#666666"
     borderopacity="1.0"
     inkscape:pageopacity="0.0"
     inkscape:pageshadow="2"
     inkscape:zoom="0.82671156"
     inkscape:cx="-124.07206"
     inkscape:cy="239.63646"
     inkscape:document-units="px"
     inkscape:current-layer="layer2"
     showgrid="false"
     inkscape:snap-global="false"
     inkscape:object-paths="true"
     inkscape:snap-intersection-paths="true"
     inkscape:object-nodes="true"
     inkscape:snap-smooth-nodes="true"
     fit-margin-top="0"
     fit-margin-left="0"
     fit-margin-right="0"
     fit-margin-bottom="0"
     inkscape:window-width="1920"
     inkscape:window-height="1030"
     inkscape:window-x="0"
     inkscape:window-y="0"
     inkscape:window-maximized="1" />
  <metadata
     id="metadata7">
    <rdf:RDF>
      <cc:Work
         rdf:about="">
        <dc:format>image/svg+xml</dc:format>
        <dc:type
           rdf:resource="http://purl.org/dc/dcmitype/StillImage" />
        <dc:title></dc:title>
      </cc:Work>
    </rdf:RDF>
  </metadata>
  <g
     inkscape:groupmode="layer"
     id="layer2"
     inkscape:label="Main"
     style="display:inline"
     transform="translate(-726.54063,-228.1244)">
    <circle
       style="display:inline;opacity:1;fill:#fcc200;fill-opacity:1;stroke:none;stroke-width:15.19999981;stroke-linecap:round;stroke-linejoin:round;stroke-miterlimit:4;stroke-dasharray:none;stroke-dashoffset:0;stroke-opacity:1"
       id="path4150"
       cx="1010.1097"
       cy="510.38019"
       r="101.68816" />
    <path
       style="color:#000000;font-style:normal;font-variant:normal;font-weight:normal;font-stretch:normal;font-size:medium;line-height:normal;font-family:sans-serif;text-indent:0;text-align:start;text-decoration:none;text-decoration-line:none;text-decoration-style:solid;text-decoration-color:#000000;letter-spacing:normal;word-spacing:normal;text-transform:none;direction:ltr;block-progression:tb;writing-mode:lr-tb;baseline-shift:baseline;text-anchor:start;white-space:normal;clip-rule:nonzero;display:inline;overflow:visible;visibility:visible;opacity:1;isolation:auto;mix-blend-mode:normal;color-interpolation:sRGB;color-interpolation-filters:linearRGB;solid-color:#000000;solid-opacity:1;fill:#fdd349;fill-opacity:1;fill-rule:evenodd;stroke:none;stroke-width:15.19999981;stroke-linecap:round;stroke-linejoin:miter;stroke-miterlimit:4;stroke-dasharray:none;stroke-dashoffset:0;stroke-opacity:1;color-rendering:auto;image-rendering:auto;shape-rendering:auto;text-rendering:auto;enable-background:accumulate"
       d="m 1123.9436,228.12639 a 7.6007599,7.6007599 0 0 0 -6.8887,4.79297 l -8.0508,19.4668 a 7.6007599,7.6007599 0 1 0 14.0469,5.80859 l 8.0488,-19.46679 a 7.6007599,7.6007599 0 0 0 -7.1562,-10.60157 z m -19.1192,46.23438 a 7.6007599,7.6007599 0 0 0 -6.8887,4.79297 l -46.2011,111.72265 a 7.6007599,7.6007599 0 1 0 14.0469,5.8086 l 46.1992,-111.72266 a 7.6007599,7.6007599 0 0 0 -7.1563,-10.60156 z"
       id="path4148"
       inkscape:connector-curvature="0" />
    <path
       style="color:#000000;font-style:normal;font-variant:normal;font-weight:normal;font-stretch:normal;font-size:medium;line-height:normal;font-family:sans-serif;text-indent:0;text-align:start;text-decoration:none;text-decoration-line:none;text-decoration-style:solid;text-decoration-color:#000000;letter-spacing:normal;word-spacing:normal;text-transform:none;direction:ltr;block-progression:tb;writing-mode:lr-tb;baseline-shift:baseline;text-anchor:start;white-space:normal;clip-rule:nonzero;display:inline;overflow:visible;visibility:visible;opacity:1;isolation:auto;mix-blend-mode:normal;color-interpolation:sRGB;color-interpolation-filters:linearRGB;solid-color:#000000;solid-opacity:1;fill:#f49c46;fill-opacity:1;fill-rule:evenodd;stroke:none;stroke-width:15.19999981;stroke-linecap:round;stroke-linejoin:round;stroke-miterlimit:4;stroke-dasharray:none;stroke-dashoffset:0;stroke-opacity:1;color-rendering:auto;image-rendering:auto;shape-rendering:auto;text-rendering:auto;enable-background:accumulate"
       d="m 1117.8654,395.05413 a 7.6007599,7.6007599 0 0 0 -5.2343,2.27734 l -18.377,18.21875 a 7.6007777,7.6007777 0 0 0 10.7031,10.79492 l 18.375,-18.2207 a 7.6007599,7.6007599 0 0 0 -5.4668,-13.07031 z"
       id="path4199"
       inkscape:connector-curvature="0" />
    <path
       style="fill:#6f3f6d;fill-opacity:1;fill-rule:evenodd;stroke:none;stroke-width:0.1;stroke-linecap:round;stroke-linejoin:round;stroke-miterlimit:4;stroke-dasharray:none;stroke-opacity:1"
       d="m 1103.9143,343.93905 26.5931,-71.2235 c 64.0976,15.78364 63.9601,76.14192 99.6677,93.7968 l -45.1649,39.93553 c -31.2559,-3.97849 32.3067,-52.4228 -81.0959,-62.50883 z"
       id="path4201"
       inkscape:connector-curvature="0"
       sodipodi:nodetypes="ccccc" />
    <path
       style="color:#000000;font-style:normal;font-variant:normal;font-weight:normal;font-stretch:normal;font-size:medium;line-height:normal;font-family:sans-serif;text-indent:0;text-align:start;text-decoration:none;text-decoration-line:none;text-decoration-style:solid;text-decoration-color:#000000;letter-spacing:normal;word-spacing:normal;text-transform:none;direction:ltr;block-progression:tb;writing-mode:lr-tb;baseline-shift:baseline;text-anchor:start;white-space:normal;clip-rule:nonzero;display:inline;overflow:visible;visibility:visible;opacity:1;isolation:auto;mix-blend-mode:normal;color-interpolation:sRGB;color-interpolation-filters:linearRGB;solid-color:#000000;solid-opacity:1;fill:#fdd349;fill-opacity:1;fill-rule:evenodd;stroke:none;stroke-width:15.19999981;stroke-linecap:round;stroke-linejoin:miter;stroke-miterlimit:4;stroke-dasharray:none;stroke-dashoffset:0;stroke-opacity:1;color-rendering:auto;image-rendering:auto;shape-rendering:auto;text-rendering:auto;enable-background:accumulate"
       d="m 1291.2571,391.67458 a 7.60076,7.60076 0 0 0 -8.2525,-1.52357 l -19.4984,7.974 a 7.60076,7.60076 0 1 0 5.7544,14.06917 l 19.497,-7.97538 a 7.60076,7.60076 0 0 0 2.4995,-12.54422 z m -46.3081,18.9398 a 7.60076,7.60076 0 0 0 -8.2526,-1.52357 l -111.9015,45.76626 a 7.60076,7.60076 0 1 0 5.7544,14.06918 l 111.9001,-45.76766 a 7.60076,7.60076 0 0 0 2.4996,-12.54421 z"
       id="path4148-8"
       inkscape:connector-curvature="0" />
    <path
       style="color:#000000;font-style:normal;font-variant:normal;font-weight:normal;font-stretch:normal;font-size:medium;line-height:normal;font-family:sans-serif;text-indent:0;text-align:start;text-decoration:none;text-decoration-line:none;text-decoration-style:solid;text-decoration-color:#000000;letter-spacing:normal;word-spacing:normal;text-transform:none;direction:ltr;block-progression:tb;writing-mode:lr-tb;baseline-shift:baseline;text-anchor:start;white-space:normal;clip-rule:nonzero;display:inline;overflow:visible;visibility:visible;opacity:1;isolation:auto;mix-blend-mode:normal;color-interpolation:sRGB;color-interpolation-filters:linearRGB;solid-color:#000000;solid-opacity:1;fill:#f49c46;fill-opacity:1;fill-rule:evenodd;stroke:none;stroke-width:15.19999981;stroke-linecap:round;stroke-linejoin:round;stroke-miterlimit:4;stroke-dasharray:none;stroke-dashoffset:0;stroke-opacity:1;color-rendering:auto;image-rendering:auto;shape-rendering:auto;text-rendering:auto;enable-background:accumulate"
       d="m 1168.3508,504.79331 a 7.60076,7.60076 0 0 0 -5.301,-2.11773 l -25.8761,-0.24252 a 7.6007778,7.6007778 0 1 0 -0.1417,15.20089 l 25.8762,0.23977 a 7.60076,7.60076 0 0 0 5.4426,-13.08041 z"
       id="path4199-3"
       inkscape:connector-curvature="0" />
    <path
       style="fill:#98386a;fill-opacity:1;fill-rule:evenodd;stroke:none;stroke-width:0.1;stroke-linecap:round;stroke-linejoin:round;stroke-miterlimit:4;stroke-dasharray:none;stroke-opacity:1"
       d="m 1194.8617,458.91783 69.3252,-31.20881 c 33.8775,56.65634 -9.1139,99.02234 3.4606,136.81928 l -60.1557,-4.00155 c -19.162,-25.01155 59.9839,-13.92153 -12.6301,-101.60892 z"
       id="path4201-0"
       inkscape:connector-curvature="0"
       sodipodi:nodetypes="ccccc" />
    <path
       style="color:#000000;font-style:normal;font-variant:normal;font-weight:normal;font-stretch:normal;font-size:medium;line-height:normal;font-family:sans-serif;text-indent:0;text-align:start;text-decoration:none;text-decoration-line:none;text-decoration-style:solid;text-decoration-color:#000000;letter-spacing:normal;word-spacing:normal;text-transform:none;direction:ltr;block-progression:tb;writing-mode:lr-tb;baseline-shift:baseline;text-anchor:start;white-space:normal;clip-rule:nonzero;display:inline;overflow:visible;visibility:visible;opacity:1;isolation:auto;mix-blend-mode:normal;color-interpolation:sRGB;color-interpolation-filters:linearRGB;solid-color:#000000;solid-opacity:1;fill:#fdd349;fill-opacity:1;fill-rule:evenodd;stroke:none;stroke-width:15.19999981;stroke-linecap:round;stroke-linejoin:miter;stroke-miterlimit:4;stroke-dasharray:none;stroke-dashoffset:0;stroke-opacity:1;color-rendering:auto;image-rendering:auto;shape-rendering:auto;text-rendering:auto;enable-background:accumulate"
       d="m 1292.3672,623.90892 a 7.60076,7.60076 0 0 0 -4.8197,-6.86999 l -19.498,-7.97505 a 7.60076,7.60076 0 1 0 -5.7539,14.06935 l 19.4979,7.9731 a 7.60076,7.60076 0 0 0 10.5737,-7.19741 z m -46.3083,-18.93929 a 7.60076,7.60076 0 0 0 -4.8198,-6.86999 l -111.9013,-45.76657 a 7.60076,7.60076 0 1 0 -5.754,14.06935 l 111.9014,45.76461 a 7.60076,7.60076 0 0 0 10.5737,-7.1974 z"
       id="path4148-8-9"
       inkscape:connector-curvature="0" />
    <path
       style="color:#000000;font-style:normal;font-variant:normal;font-weight:normal;font-stretch:normal;font-size:medium;line-height:normal;font-family:sans-serif;text-indent:0;text-align:start;text-decoration:none;text-decoration-line:none;text-decoration-style:solid;text-decoration-color:#000000;letter-spacing:normal;word-spacing:normal;text-transform:none;direction:ltr;block-progression:tb;writing-mode:lr-tb;baseline-shift:baseline;text-anchor:start;white-space:normal;clip-rule:nonzero;display:inline;overflow:visible;visibility:visible;opacity:1;isolation:auto;mix-blend-mode:normal;color-interpolation:sRGB;color-interpolation-filters:linearRGB;solid-color:#000000;solid-opacity:1;fill:#f49c46;fill-opacity:1;fill-rule:evenodd;stroke:none;stroke-width:15.19999981;stroke-linecap:round;stroke-linejoin:round;stroke-miterlimit:4;stroke-dasharray:none;stroke-dashoffset:0;stroke-opacity:1;color-rendering:auto;image-rendering:auto;shape-rendering:auto;text-rendering:auto;enable-background:accumulate"
       d="m 1125.4171,618.47967 a 7.60076,7.60076 0 0 0 -2.2977,-5.22549 l -18.29,-18.306 a 7.600801,7.600801 0 1 0 -10.7533,10.74501 l 18.292,18.30404 a 7.60076,7.60076 0 0 0 13.049,-5.51756 z"
       id="path4199-3-6"
       inkscape:connector-curvature="0" />
    <path
       style="fill:#b8284b;fill-opacity:1;fill-rule:evenodd;stroke:none;stroke-width:0.1;stroke-linecap:round;stroke-linejoin:round;stroke-miterlimit:4;stroke-dasharray:none;stroke-opacity:1"
       d="m 1176.4776,604.32998 71.3263,26.31607 c -15.5344,64.15848 -75.8928,64.25558 -93.4087,100.03153 l -40.1108,-45.00939 c 3.857,-31.27113 52.548,32.10271 62.1932,-81.33821 z"
       id="path4201-0-5"
       inkscape:connector-curvature="0"
       sodipodi:nodetypes="ccccc" />
    <path
       style="color:#000000;font-style:normal;font-variant:normal;font-weight:normal;font-stretch:normal;font-size:medium;line-height:normal;font-family:sans-serif;text-indent:0;text-align:start;text-decoration:none;text-decoration-line:none;text-decoration-style:solid;text-decoration-color:#000000;letter-spacing:normal;word-spacing:normal;text-transform:none;direction:ltr;block-progression:tb;writing-mode:lr-tb;baseline-shift:baseline;text-anchor:start;white-space:normal;clip-rule:nonzero;display:inline;overflow:visible;visibility:visible;opacity:1;isolation:auto;mix-blend-mode:normal;color-interpolation:sRGB;color-interpolation-filters:linearRGB;solid-color:#000000;solid-opacity:1;fill:#fdd349;fill-opacity:1;fill-rule:evenodd;stroke:none;stroke-width:15.19999981;stroke-linecap:round;stroke-linejoin:miter;stroke-miterlimit:4;stroke-dasharray:none;stroke-dashoffset:0;stroke-opacity:1;color-rendering:auto;image-rendering:auto;shape-rendering:auto;text-rendering:auto;enable-background:accumulate"
       d="m 896.75378,793.17926 a 7.6007599,7.6007599 0 0 0 6.88867,-4.79297 l 8.05078,-19.4668 a 7.6007599,7.6007599 0 1 0 -14.04688,-5.80859 l -8.04883,19.46679 a 7.6007599,7.6007599 0 0 0 7.15626,10.60157 z m 19.11914,-46.23438 a 7.6007599,7.6007599 0 0 0 6.88867,-4.79297 l 46.20117,-111.72265 a 7.6007599,7.6007599 0 1 0 -14.04688,-5.8086 l -46.19921,111.72266 a 7.6007599,7.6007599 0 0 0 7.15625,10.60156 z"
       id="path4148-5"
       inkscape:connector-curvature="0" />
    <path
       style="color:#000000;font-style:normal;font-variant:normal;font-weight:normal;font-stretch:normal;font-size:medium;line-height:normal;font-family:sans-serif;text-indent:0;text-align:start;text-decoration:none;text-decoration-line:none;text-decoration-style:solid;text-decoration-color:#000000;letter-spacing:normal;word-spacing:normal;text-transform:none;direction:ltr;block-progression:tb;writing-mode:lr-tb;baseline-shift:baseline;text-anchor:start;white-space:normal;clip-rule:nonzero;display:inline;overflow:visible;visibility:visible;opacity:1;isolation:auto;mix-blend-mode:normal;color-interpolation:sRGB;color-interpolation-filters:linearRGB;solid-color:#000000;solid-opacity:1;fill:#f49c46;fill-opacity:1;fill-rule:evenodd;stroke:none;stroke-width:15.19999981;stroke-linecap:round;stroke-linejoin:round;stroke-miterlimit:4;stroke-dasharray:none;stroke-dashoffset:0;stroke-opacity:1;color-rendering:auto;image-rendering:auto;shape-rendering:auto;text-rendering:auto;enable-background:accumulate"
       d="m 902.8319,626.25152 a 7.6007599,7.6007599 0 0 0 5.23438,-2.27734 l 18.37695,-18.21875 A 7.6007777,7.6007777 0 0 0 915.7401,594.96051 l -18.375,18.2207 a 7.6007599,7.6007599 0 0 0 5.4668,13.07031 z"
       id="path4199-8"
       inkscape:connector-curvature="0" />
    <path
       style="fill:#ec6a37;fill-opacity:1;fill-rule:evenodd;stroke:none;stroke-width:0.1;stroke-linecap:round;stroke-linejoin:round;stroke-miterlimit:4;stroke-dasharray:none;stroke-opacity:1"
       d="m 916.78302,677.3666 -26.59311,71.2235 C 826.0923,732.80646 826.2298,672.44818 790.5222,654.7933 l 45.16496,-39.93553 c 31.2559,3.97849 -32.30672,52.4228 81.09586,62.50883 z"
       id="path4201-8"
       inkscape:connector-curvature="0"
       sodipodi:nodetypes="ccccc" />
    <path
       style="color:#000000;font-style:normal;font-variant:normal;font-weight:normal;font-stretch:normal;font-size:medium;line-height:normal;font-family:sans-serif;text-indent:0;text-align:start;text-decoration:none;text-decoration-line:none;text-decoration-style:solid;text-decoration-color:#000000;letter-spacing:normal;word-spacing:normal;text-transform:none;direction:ltr;block-progression:tb;writing-mode:lr-tb;baseline-shift:baseline;text-anchor:start;white-space:normal;clip-rule:nonzero;display:inline;overflow:visible;visibility:visible;opacity:1;isolation:auto;mix-blend-mode:normal;color-interpolation:sRGB;color-interpolation-filters:linearRGB;solid-color:#000000;solid-opacity:1;fill:#fdd349;fill-opacity:1;fill-rule:evenodd;stroke:none;stroke-width:15.19999981;stroke-linecap:round;stroke-linejoin:miter;stroke-miterlimit:4;stroke-dasharray:none;stroke-dashoffset:0;stroke-opacity:1;color-rendering:auto;image-rendering:auto;shape-rendering:auto;text-rendering:auto;enable-background:accumulate"
       d="m 1129.4636,790.40128 a 7.6007599,7.6007599 0 0 0 1.4818,-8.26016 l -8.0723,-19.45787 a 7.6007599,7.6007599 0 1 0 -14.0399,5.82535 l 8.0737,19.45648 a 7.6007599,7.6007599 0 0 0 12.5567,2.4362 z m -19.1734,-46.21191 a 7.6007599,7.6007599 0 0 0 1.4819,-8.26017 l -46.3307,-111.669 a 7.6007599,7.6007599 0 1 0 -14.04,5.82534 l 46.3321,111.66762 a 7.6007599,7.6007599 0 0 0 12.5567,2.43621 z"
       id="path4148-6"
       inkscape:connector-curvature="0" />
    <path
       style="color:#000000;font-style:normal;font-variant:normal;font-weight:normal;font-stretch:normal;font-size:medium;line-height:normal;font-family:sans-serif;text-indent:0;text-align:start;text-decoration:none;text-decoration-line:none;text-decoration-style:solid;text-decoration-color:#000000;letter-spacing:normal;word-spacing:normal;text-transform:none;direction:ltr;block-progression:tb;writing-mode:lr-tb;baseline-shift:baseline;text-anchor:start;white-space:normal;clip-rule:nonzero;display:inline;overflow:visible;visibility:visible;opacity:1;isolation:auto;mix-blend-mode:normal;color-interpolation:sRGB;color-interpolation-filters:linearRGB;solid-color:#000000;solid-opacity:1;fill:#f49c46;fill-opacity:1;fill-rule:evenodd;stroke:none;stroke-width:15.19999981;stroke-linecap:round;stroke-linejoin:round;stroke-miterlimit:4;stroke-dasharray:none;stroke-dashoffset:0;stroke-opacity:1;color-rendering:auto;image-rendering:auto;shape-rendering:auto;text-rendering:auto;enable-background:accumulate"
       d="m 1015.7257,668.06767 a 7.6007599,7.6007599 0 0 0 2.0909,-5.31159 l 0.1119,-25.87707 a 7.6007777,7.6007777 0 1 0 -15.2014,-0.0649 l -0.1091,25.87706 a 7.6007599,7.6007599 0 0 0 13.1077,5.3765 z"
       id="path4199-38"
       inkscape:connector-curvature="0" />
    <path
       style="fill:#e73a36;fill-opacity:1;fill-rule:evenodd;stroke:none;stroke-width:0.1;stroke-linecap:round;stroke-linejoin:round;stroke-miterlimit:4;stroke-dasharray:none;stroke-opacity:1"
       d="m 1061.7344,694.34655 31.5585,69.16679 c -56.4846,34.16314 -99.0671,-8.61384 -136.80007,4.15136 l 3.69777,-60.17513 c 24.91447,-19.28804 14.22421,59.91282 101.5438,-13.14302 z"
       id="path4201-6"
       inkscape:connector-curvature="0"
       sodipodi:nodetypes="ccccc" />
    <path
       style="color:#000000;font-style:normal;font-variant:normal;font-weight:normal;font-stretch:normal;font-size:medium;line-height:normal;font-family:sans-serif;text-indent:0;text-align:start;text-decoration:none;text-decoration-line:none;text-decoration-style:solid;text-decoration-color:#000000;letter-spacing:normal;word-spacing:normal;text-transform:none;direction:ltr;block-progression:tb;writing-mode:lr-tb;baseline-shift:baseline;text-anchor:start;white-space:normal;clip-rule:nonzero;display:inline;overflow:visible;visibility:visible;opacity:1;isolation:auto;mix-blend-mode:normal;color-interpolation:sRGB;color-interpolation-filters:linearRGB;solid-color:#000000;solid-opacity:1;fill:#fdd349;fill-opacity:1;fill-rule:evenodd;stroke:none;stroke-width:15.19999981;stroke-linecap:round;stroke-linejoin:miter;stroke-miterlimit:4;stroke-dasharray:none;stroke-dashoffset:0;stroke-opacity:1;color-rendering:auto;image-rendering:auto;shape-rendering:auto;text-rendering:auto;enable-background:accumulate"
       d="m 890.6155,230.59847 a 7.6007599,7.6007599 0 0 0 -1.48188,8.26016 l 8.07234,19.45787 a 7.6007599,7.6007599 0 1 0 14.03994,-5.82535 l -8.07372,-19.45648 a 7.6007599,7.6007599 0 0 0 -12.55668,-2.4362 z m 19.17337,46.21191 a 7.6007599,7.6007599 0 0 0 -1.48188,8.26017 l 46.33068,111.669 a 7.6007599,7.6007599 0 1 0 14.03994,-5.82534 L 922.34554,279.24659 a 7.6007599,7.6007599 0 0 0 -12.55667,-2.43621 z"
       id="path4148-6-6"
       inkscape:connector-curvature="0" />
    <path
       style="color:#000000;font-style:normal;font-variant:normal;font-weight:normal;font-stretch:normal;font-size:medium;line-height:normal;font-family:sans-serif;text-indent:0;text-align:start;text-decoration:none;text-decoration-line:none;text-decoration-style:solid;text-decoration-color:#000000;letter-spacing:normal;word-spacing:normal;text-transform:none;direction:ltr;block-progression:tb;writing-mode:lr-tb;baseline-shift:baseline;text-anchor:start;white-space:normal;clip-rule:nonzero;display:inline;overflow:visible;visibility:visible;opacity:1;isolation:auto;mix-blend-mode:normal;color-interpolation:sRGB;color-interpolation-filters:linearRGB;solid-color:#000000;solid-opacity:1;fill:#f49c46;fill-opacity:1;fill-rule:evenodd;stroke:none;stroke-width:15.19999981;stroke-linecap:round;stroke-linejoin:round;stroke-miterlimit:4;stroke-dasharray:none;stroke-dashoffset:0;stroke-opacity:1;color-rendering:auto;image-rendering:auto;shape-rendering:auto;text-rendering:auto;enable-background:accumulate"
       d="m 1004.3534,352.93208 a 7.6007599,7.6007599 0 0 0 -2.091,5.31159 l -0.1119,25.87707 a 7.6008193,7.6008193 0 0 0 15.2015,0.0649 l 0.1091,-25.87706 a 7.6007599,7.6007599 0 0 0 -13.1077,-5.3765 z"
       id="path4199-38-7"
       inkscape:connector-curvature="0" />
    <path
       style="fill:#36385c;fill-opacity:1;fill-rule:evenodd;stroke:none;stroke-width:0.1;stroke-linecap:round;stroke-linejoin:round;stroke-miterlimit:4;stroke-dasharray:none;stroke-opacity:1"
       d="m 958.3446,326.6532 -31.55845,-69.16679 c 56.48458,-34.16314 99.06705,8.61384 136.80005,-4.15136 l -3.6977,60.17513 c -24.9145,19.28804 -14.2243,-59.91282 -101.5439,13.14302 z"
       id="path4201-6-7"
       inkscape:connector-curvature="0"
       sodipodi:nodetypes="ccccc" />
    <path
       style="color:#000000;font-style:normal;font-variant:normal;font-weight:normal;font-stretch:normal;font-size:medium;line-height:normal;font-family:sans-serif;text-indent:0;text-align:start;text-decoration:none;text-decoration-line:none;text-decoration-style:solid;text-decoration-color:#000000;letter-spacing:normal;word-spacing:normal;text-transform:none;direction:ltr;block-progression:tb;writing-mode:lr-tb;baseline-shift:baseline;text-anchor:start;white-space:normal;clip-rule:nonzero;display:inline;overflow:visible;visibility:visible;opacity:1;isolation:auto;mix-blend-mode:normal;color-interpolation:sRGB;color-interpolation-filters:linearRGB;solid-color:#000000;solid-opacity:1;fill:#fdd349;fill-opacity:1;fill-rule:evenodd;stroke:none;stroke-width:15.19999981;stroke-linecap:round;stroke-linejoin:miter;stroke-miterlimit:4;stroke-dasharray:none;stroke-dashoffset:0;stroke-opacity:1;color-rendering:auto;image-rendering:auto;shape-rendering:auto;text-rendering:auto;enable-background:accumulate"
       d="m 728.31009,397.01642 a 7.60076,7.60076 0 0 0 4.81971,6.86999 l 19.49794,7.97505 a 7.60076,7.60076 0 1 0 5.75395,-14.06935 l -19.49792,-7.9731 a 7.60076,7.60076 0 0 0 -10.57368,7.19741 z m 46.30834,18.93929 a 7.60076,7.60076 0 0 0 4.81971,6.86999 l 111.90139,45.76657 a 7.60076,7.60076 0 1 0 5.75396,-14.06935 L 785.1921,408.75831 a 7.60076,7.60076 0 0 0 -10.57367,7.1974 z"
       id="path4148-8-9-7"
       inkscape:connector-curvature="0" />
    <path
       style="color:#000000;font-style:normal;font-variant:normal;font-weight:normal;font-stretch:normal;font-size:medium;line-height:normal;font-family:sans-serif;text-indent:0;text-align:start;text-decoration:none;text-decoration-line:none;text-decoration-style:solid;text-decoration-color:#000000;letter-spacing:normal;word-spacing:normal;text-transform:none;direction:ltr;block-progression:tb;writing-mode:lr-tb;baseline-shift:baseline;text-anchor:start;white-space:normal;clip-rule:nonzero;display:inline;overflow:visible;visibility:visible;opacity:1;isolation:auto;mix-blend-mode:normal;color-interpolation:sRGB;color-interpolation-filters:linearRGB;solid-color:#000000;solid-opacity:1;fill:#f49c46;fill-opacity:1;fill-rule:evenodd;stroke:none;stroke-width:15.19999981;stroke-linecap:round;stroke-linejoin:round;stroke-miterlimit:4;stroke-dasharray:none;stroke-dashoffset:0;stroke-opacity:1;color-rendering:auto;image-rendering:auto;shape-rendering:auto;text-rendering:auto;enable-background:accumulate"
       d="m 895.2602,402.44567 a 7.60076,7.60076 0 0 0 2.29766,5.22549 l 18.29005,18.306 a 7.6007779,7.6007779 0 0 0 10.75323,-10.74501 l -18.29198,-18.30404 a 7.60076,7.60076 0 0 0 -13.04896,5.51756 z"
       id="path4199-3-6-7"
       inkscape:connector-curvature="0" />
    <path
       style="fill:#577ba7;fill-opacity:1;fill-rule:evenodd;stroke:none;stroke-width:0.1;stroke-linecap:round;stroke-linejoin:round;stroke-miterlimit:4;stroke-dasharray:none;stroke-opacity:1"
       d="M 844.19973,416.59536 772.8734,390.27929 c 15.53439,-64.15848 75.89274,-64.25558 93.4087,-100.03153 l 40.11078,45.00939 c -3.85697,31.27113 -52.54798,-32.10271 -62.19315,81.33821 z"
       id="path4201-0-5-1"
       inkscape:connector-curvature="0"
       sodipodi:nodetypes="ccccc" />
    <path
       style="color:#000000;font-style:normal;font-variant:normal;font-weight:normal;font-stretch:normal;font-size:medium;line-height:normal;font-family:sans-serif;text-indent:0;text-align:start;text-decoration:none;text-decoration-line:none;text-decoration-style:solid;text-decoration-color:#000000;letter-spacing:normal;word-spacing:normal;text-transform:none;direction:ltr;block-progression:tb;writing-mode:lr-tb;baseline-shift:baseline;text-anchor:start;white-space:normal;clip-rule:nonzero;display:inline;overflow:visible;visibility:visible;opacity:1;isolation:auto;mix-blend-mode:normal;color-interpolation:sRGB;color-interpolation-filters:linearRGB;solid-color:#000000;solid-opacity:1;fill:#fdd349;fill-opacity:1;fill-rule:evenodd;stroke:none;stroke-width:15.19999981;stroke-linecap:round;stroke-linejoin:miter;stroke-miterlimit:4;stroke-dasharray:none;stroke-dashoffset:0;stroke-opacity:1;color-rendering:auto;image-rendering:auto;shape-rendering:auto;text-rendering:auto;enable-background:accumulate"
       d="m 728.86346,630.08122 a 7.60076,7.60076 0 0 0 8.25258,1.52357 l 19.49838,-7.974 a 7.60076,7.60076 0 1 0 -5.75439,-14.06917 l -19.497,7.97538 a 7.60076,7.60076 0 0 0 -2.49957,12.54422 z m 46.30814,-18.9398 a 7.60076,7.60076 0 0 0 8.25258,1.52357 l 111.90151,-45.76626 a 7.60076,7.60076 0 1 0 -5.75438,-14.06918 l -111.90014,45.76766 a 7.60076,7.60076 0 0 0 -2.49957,12.54421 z"
       id="path4148-8-6"
       inkscape:connector-curvature="0" />
    <path
       style="color:#000000;font-style:normal;font-variant:normal;font-weight:normal;font-stretch:normal;font-size:medium;line-height:normal;font-family:sans-serif;text-indent:0;text-align:start;text-decoration:none;text-decoration-line:none;text-decoration-style:solid;text-decoration-color:#000000;letter-spacing:normal;word-spacing:normal;text-transform:none;direction:ltr;block-progression:tb;writing-mode:lr-tb;baseline-shift:baseline;text-anchor:start;white-space:normal;clip-rule:nonzero;display:inline;overflow:visible;visibility:visible;opacity:1;isolation:auto;mix-blend-mode:normal;color-interpolation:sRGB;color-interpolation-filters:linearRGB;solid-color:#000000;solid-opacity:1;fill:#f49c46;fill-opacity:1;fill-rule:evenodd;stroke:none;stroke-width:15.19999981;stroke-linecap:round;stroke-linejoin:round;stroke-miterlimit:4;stroke-dasharray:none;stroke-dashoffset:0;stroke-opacity:1;color-rendering:auto;image-rendering:auto;shape-rendering:auto;text-rendering:auto;enable-background:accumulate"
       d="m 851.7698,516.96249 a 7.60076,7.60076 0 0 0 5.30096,2.11773 l 25.87618,0.24252 a 7.6007778,7.6007778 0 1 0 0.14165,-15.20089 l -25.87618,-0.23977 a 7.60076,7.60076 0 0 0 -5.44261,13.08041 z"
       id="path4199-3-7"
       inkscape:connector-curvature="0" />
    <path
       style="fill:#7bb2b8;fill-opacity:1;fill-rule:evenodd;stroke:none;stroke-width:0.1;stroke-linecap:round;stroke-linejoin:round;stroke-miterlimit:4;stroke-dasharray:none;stroke-opacity:1"
       d="m 825.25894,562.83797 -69.32525,31.20881 c -33.8775,-56.65634 9.11393,-99.02234 -3.46058,-136.81928 l 60.15569,4.00155 c 19.162,25.01155 -59.98387,13.92153 12.63014,101.60892 z"
       id="path4201-0-7"
       inkscape:connector-curvature="0"
       sodipodi:nodetypes="ccccc" />
  </g>
</svg>
