<?xml version="1.0" encoding="UTF-8" standalone="no"?>
<svg
   xmlns:ooo="http://xml.openoffice.org/svg/export"
   xmlns:dc="http://purl.org/dc/elements/1.1/"
   xmlns:cc="http://creativecommons.org/ns#"
   xmlns:rdf="http://www.w3.org/1999/02/22-rdf-syntax-ns#"
   xmlns:svg="http://www.w3.org/2000/svg"
   xmlns="http://www.w3.org/2000/svg"
   style="fill-rule:evenodd;stroke-width:28.22200012;stroke-linejoin:round"
   id="svg2"
   xml:space="preserve"
   clip-path="url(#presentation_clip_path)"
   preserveAspectRatio="xMidYMid"
   viewBox="0 0 33105.695 35943.481"
   height="359.43481mm"
   width="331.05695mm"
   version="1.2"><metadata
     id="metadata486"><rdf:RDF><cc:Work
         rdf:about=""><dc:format>image/svg+xml</dc:format><dc:type
           rdf:resource="http://purl.org/dc/dcmitype/StillImage" /><dc:title></dc:title></cc:Work></rdf:RDF></metadata><defs
     id="defs4"
     class="ClipPathGroup"><clipPath
       clipPathUnits="userSpaceOnUse"
       id="presentation_clip_path"><rect
         id="rect7"
         height="118900"
         width="84100"
         y="0"
         x="0" /></clipPath></defs><defs
     id="defs9"
     class="TextShapeIndex"><g
       id="g11"
       ooo:id-list="id3 id4 id5 id6 id7 id8 id9 id10 id11 id12 id13 id14 id15 id16 id17 id18 id19 id20 id21 id22 id23 id24 id25 id26 id27 id28 id29 id30 id31 id32 id33 id34 id35 id36 id37 id38 id39 id40 id41 id42 id43 id44 id45 id46 id47 id48 id49 id50 id51 id52 id53 id54 id55 id56 id57 id58 id59 id60 id61 id62 id63 id64 id65 id66 id67 id68 id69 id70 id71 id72 id73 id74"
       ooo:slide="id1" /></defs><defs
     id="defs13"
     class="EmbeddedBulletChars"><g
       transform="scale(4.8828125e-4,-4.8828125e-4)"
       id="bullet-char-template(57356)"><path
         id="path16"
         d="M 580,1141 1163,571 580,0 -4,571 580,1141 Z" /></g><g
       transform="scale(4.8828125e-4,-4.8828125e-4)"
       id="bullet-char-template(57354)"><path
         id="path19"
         d="m 8,1128 1129,0 L 1137,0 8,0 8,1128 Z" /></g><g
       transform="scale(4.8828125e-4,-4.8828125e-4)"
       id="bullet-char-template(10146)"><path
         id="path22"
         d="M 174,0 602,739 174,1481 1456,739 174,0 Z m 1184,739 -1049,607 350,-607 699,0 z" /></g><g
       transform="scale(4.8828125e-4,-4.8828125e-4)"
       id="bullet-char-template(10132)"><path
         id="path25"
         d="M 2015,739 1276,0 717,0 l 543,543 -1086,0 0,393 1086,0 -543,545 557,0 741,-742 z" /></g><g
       transform="scale(4.8828125e-4,-4.8828125e-4)"
       id="bullet-char-template(10007)"><path
         id="path28"
         d="m 0,-2 c -7,16 -16,29 -25,39 l 381,530 c -94,256 -141,385 -141,387 0,25 13,38 40,38 9,0 21,-2 34,-5 21,4 42,12 65,25 l 27,-13 111,-251 280,301 64,-25 24,25 c 21,-10 41,-24 62,-43 C 886,937 835,863 770,784 769,783 710,716 594,584 L 774,223 c 0,-27 -21,-55 -63,-84 l 16,-20 C 717,90 699,76 672,76 641,76 570,178 457,381 L 164,-76 c -22,-34 -53,-51 -92,-51 -42,0 -63,17 -64,51 -7,9 -10,24 -10,44 0,9 1,19 2,30 z" /></g><g
       transform="scale(4.8828125e-4,-4.8828125e-4)"
       id="bullet-char-template(10004)"><path
         id="path31"
         d="M 285,-33 C 182,-33 111,30 74,156 52,228 41,333 41,471 c 0,78 14,145 41,201 34,71 87,106 158,106 53,0 88,-31 106,-94 l 23,-176 c 8,-64 28,-97 59,-98 l 735,706 c 11,11 33,17 66,17 42,0 63,-15 63,-46 l 0,-122 c 0,-36 -10,-64 -30,-84 L 442,47 C 390,-6 338,-33 285,-33 Z" /></g><g
       transform="scale(4.8828125e-4,-4.8828125e-4)"
       id="bullet-char-template(9679)"><path
         id="path34"
         d="M 813,0 C 632,0 489,54 383,161 276,268 223,411 223,592 c 0,181 53,324 160,431 106,107 249,161 430,161 179,0 323,-54 432,-161 108,-107 162,-251 162,-431 0,-180 -54,-324 -162,-431 C 1136,54 992,0 813,0 Z" /></g><g
       transform="scale(4.8828125e-4,-4.8828125e-4)"
       id="bullet-char-template(8226)"><path
         id="path37"
         d="m 346,457 c -73,0 -137,26 -191,78 -54,51 -81,114 -81,188 0,73 27,136 81,188 54,52 118,78 191,78 73,0 134,-26 185,-79 51,-51 77,-114 77,-187 0,-75 -25,-137 -76,-188 -50,-52 -112,-78 -186,-78 z" /></g><g
       transform="scale(4.8828125e-4,-4.8828125e-4)"
       id="bullet-char-template(8211)"><path
         id="path40"
         d="m -4,459 1139,0 0,147 -1139,0 0,-147 z" /></g></defs><defs
     id="defs42"
     class="TextEmbeddedBitmaps" /><g
     transform="translate(-25361.523,-23572.03)"
     id="g44"><g
       class="Master_Slide"
       id="id2"><g
         class="Background"
         id="bg-id2" /><g
         class="BackgroundObjects"
         id="bo-id2" /></g></g><g
     transform="translate(-23535.199,-31759)"
     id="g56"
     class="Group"><g
       id="g58"
       class="com.sun.star.drawing.PolyPolygonShape"><g
         id="id3"><path
           style="fill:#194438;stroke:none"
           id="path61"
           d="m 37194,49190 0,-1599 7436,0 0,1599 -7436,0 z" /><path
           style="fill:none;stroke:#000000"
           id="path63"
           d="m 37194,49190 0,-1599 7436,0 0,1599 -7436,0 z" /></g></g><g
       id="g65"
       class="com.sun.star.drawing.ClosedBezierShape"><g
         id="id4"><path
           style="fill:#5addc3;stroke:none"
           id="path68"
           d="m 37489,43062 c 2287,-7 4448,-9 6735,-17 356,-78 2134,3382 1211,3956 -257,266 -514,533 -770,799 -2627,748 -5644,673 -7738,-58 -268,-285 -537,-629 -805,-915 -429,47 817,-3547 1367,-3765 z" /></g></g><g
       id="g70"
       class="com.sun.star.drawing.ClosedBezierShape"><g
         id="id5"><path
           style="fill:#fcddc2;stroke:none"
           id="path73"
           d="m 36749,46184 0,0 c 152,0 280,35 411,110 132,76 226,170 302,301 75,132 110,260 110,412 l 0,0 0,0 c 0,152 -35,280 -110,412 -76,131 -170,225 -301,301 -132,75 -260,110 -412,110 -152,0 -280,-35 -411,-110 -132,-76 -226,-170 -302,-301 -75,-132 -110,-260 -110,-412 0,-152 35,-280 110,-411 76,-132 170,-226 301,-302 132,-75 260,-110 412,-110 z" /></g></g><g
       id="g75"
       class="com.sun.star.drawing.ClosedBezierShape"><g
         id="id6"><path
           style="fill:#fcddc2;stroke:none"
           id="path78"
           d="m 40841,33194 0,0 c 1,0 1,0 2,0 1010,0 1869,232 2744,740 875,509 1504,1142 2010,2022 505,881 735,1746 735,2763 l 0,0 0,0 c 0,1017 -230,1882 -735,2762 -506,881 -1135,1514 -2010,2023 -875,508 -1734,740 -2744,740 -1011,0 -1870,-232 -2745,-740 -875,-509 -1504,-1142 -2010,-2023 -505,-880 -735,-1745 -735,-2762 0,-1017 230,-1882 735,-2763 506,-880 1135,-1513 2010,-2022 875,-508 1733,-740 2743,-740 z" /></g></g><g
       id="g80"
       class="com.sun.star.drawing.ClosedBezierShape"><g
         id="id7"><path
           style="fill:#fcddc2;stroke:none"
           id="path83"
           d="m 44884,46271 0,0 c -152,0 -280,35 -412,110 -131,76 -225,170 -301,302 -75,131 -110,259 -110,411 l 0,0 c 0,152 35,280 110,412 76,131 170,225 302,301 131,75 259,110 411,110 152,0 280,-35 412,-110 131,-76 225,-170 301,-301 75,-132 110,-260 110,-412 0,-152 -35,-280 -110,-412 -76,-131 -170,-225 -302,-301 -131,-75 -259,-110 -411,-110 z" /></g></g><g
       id="g85"
       class="com.sun.star.drawing.ClosedBezierShape"><g
         id="id8"><path
           style="fill:#ffff00;stroke:none"
           id="path88"
           d="m 41034,34470 c -1355,1147 -2382,1671 -3272,1968 329,-663 712,-1297 1080,-1945 -919,234 -1881,398 -2794,434 984,-625 1744,-1772 2594,-1883 -268,-487 -605,-860 -950,-1193 1089,126 1984,377 2594,811 990,-301 1978,-602 2966,-903 -177,316 -407,679 -585,996 896,168 1758,680 2485,1437 -589,-218 -1208,-378 -1712,-392 585,649 1113,1663 1512,2729 -507,-594 -1743,-1420 -3918,-2059 z" /></g></g><g
       id="g90"
       class="com.sun.star.drawing.LineShape"><g
         id="id9"><path
           style="fill:none;stroke:#1b1918;stroke-width:117;stroke-linejoin:round"
           id="path93"
           d="m 37484,38246 1692,-1449" /></g></g><g
       id="g95"
       class="com.sun.star.drawing.ClosedBezierShape"><g
         id="id10"><path
           style="fill:#fcfaf9;stroke:none"
           id="path98"
           d="m 38083,38583 c -521,905 -396,1871 279,2288 678,417 1649,70 2172,-776 521,-847 408,-1912 -268,-2329 -678,-416 -1661,-87 -2183,817 z" /></g></g><g
       id="g100"
       class="com.sun.star.drawing.ClosedBezierShape"><g
         id="id11"><path
           style="fill:#fcfaf9;stroke:none"
           id="path103"
           d="m 43671,38641 c 522,905 397,1871 -280,2288 -677,417 -1648,70 -2171,-776 -521,-847 -407,-1912 268,-2329 677,-416 1660,-87 2183,817 z" /></g></g><g
       id="g105"
       class="com.sun.star.drawing.ClosedBezierShape"><g
         id="id12"><path
           style="fill:#000000;stroke:none"
           id="path108"
           d="m 43024,40204 0,0 c 36,0 66,8 98,26 31,18 54,41 72,72 18,32 26,62 26,98 l 0,1 0,0 c 0,36 -8,66 -26,98 -18,31 -41,54 -72,72 -32,18 -62,26 -98,26 -37,0 -67,-8 -99,-26 -31,-18 -54,-41 -72,-72 -18,-32 -26,-62 -26,-98 0,-37 8,-67 26,-99 18,-31 41,-54 72,-72 32,-18 62,-26 99,-26 z" /><path
           style="fill:none;stroke:#000000;stroke-width:8;stroke-linejoin:round"
           id="path110"
           d="m 43024,40204 0,0 c 36,0 66,8 98,26 31,18 54,41 72,72 18,32 26,62 26,98 l 0,1 0,0 c 0,36 -8,66 -26,98 -18,31 -41,54 -72,72 -32,18 -62,26 -98,26 -37,0 -67,-8 -99,-26 -31,-18 -54,-41 -72,-72 -18,-32 -26,-62 -26,-98 0,-37 8,-67 26,-99 18,-31 41,-54 72,-72 32,-18 62,-26 99,-26 z" /></g></g><g
       id="g112"
       class="com.sun.star.drawing.OpenBezierShape"><g
         id="id13"><path
           style="fill:none;stroke:#1b1918;stroke-width:60;stroke-linejoin:round"
           id="path115"
           d="m 40119,42704 c 463,-284 961,-295 1501,23" /></g></g><g
       id="g117"
       class="com.sun.star.drawing.LineShape"><g
         id="id14"><path
           style="fill:none;stroke:#1b1918;stroke-width:137;stroke-linejoin:miter"
           id="path120"
           d="m 40901,44233 0,4111" /></g></g><g
       id="g122"
       class="com.sun.star.drawing.ClosedBezierShape"><g
         id="id15"><path
           style="fill:#fcddc2;stroke:none"
           id="path125"
           d="m 37399,46381 0,0 1,0 c 77,0 143,18 210,56 67,39 115,87 154,154 38,67 56,133 56,210 l 0,0 0,0 c 0,77 -18,143 -56,210 -39,67 -87,115 -154,154 -67,38 -133,56 -210,56 -77,0 -143,-18 -210,-56 -67,-39 -115,-87 -154,-154 -38,-67 -56,-133 -56,-210 0,-77 18,-143 56,-210 39,-67 87,-115 154,-154 67,-38 132,-56 209,-56 z" /><path
           style="fill:none;stroke:#1b1918;stroke-width:48;stroke-linejoin:miter"
           id="path127"
           d="m 37399,46381 0,0 1,0 c 77,0 143,18 210,56 67,39 115,87 154,154 38,67 56,133 56,210 l 0,0 0,0 c 0,77 -18,143 -56,210 -39,67 -87,115 -154,154 -67,38 -133,56 -210,56 -77,0 -143,-18 -210,-56 -67,-39 -115,-87 -154,-154 -38,-67 -56,-133 -56,-210 0,-77 18,-143 56,-210 39,-67 87,-115 154,-154 67,-38 132,-56 209,-56 z" /></g></g><g
       id="g129"
       class="com.sun.star.drawing.OpenBezierShape"><g
         id="id16"><path
           style="fill:none;stroke:#1b1918;stroke-width:48;stroke-linejoin:miter"
           id="path132"
           d="m 37449,46382 c 74,-421 182,-818 412,-1130" /></g></g><g
       id="g134"
       class="com.sun.star.drawing.ClosedBezierShape"><g
         id="id17"><path
           style="fill:#fcddc2;stroke:none"
           id="path137"
           d="m 44325,46376 0,0 c -77,0 -143,18 -210,56 -67,39 -115,87 -154,154 -38,67 -56,133 -56,210 l 0,0 c 0,77 18,143 56,210 39,67 87,115 154,154 67,38 133,56 210,56 77,0 143,-18 210,-56 67,-39 115,-87 154,-154 38,-67 56,-133 56,-210 0,-77 -18,-143 -56,-210 -39,-67 -87,-115 -154,-154 -67,-38 -133,-56 -210,-56 z" /><path
           style="fill:none;stroke:#1b1918;stroke-width:48;stroke-linejoin:miter"
           id="path139"
           d="m 44325,46376 0,0 c -77,0 -143,18 -210,56 -67,39 -115,87 -154,154 -38,67 -56,133 -56,210 l 0,0 c 0,77 18,143 56,210 39,67 87,115 154,154 67,38 133,56 210,56 77,0 143,-18 210,-56 67,-39 115,-87 154,-154 38,-67 56,-133 56,-210 0,-77 -18,-143 -56,-210 -39,-67 -87,-115 -154,-154 -67,-38 -133,-56 -210,-56 z" /></g></g><g
       id="g141"
       class="com.sun.star.drawing.OpenBezierShape"><g
         id="id18"><path
           style="fill:none;stroke:#1b1918;stroke-width:48;stroke-linejoin:miter"
           id="path144"
           d="m 44345,46378 c -75,-421 -158,-734 -400,-1026" /></g></g><g
       id="g146"
       class="com.sun.star.drawing.ClosedBezierShape"><g
         id="id19"><path
           style="fill:#1b1918;stroke:none"
           id="path149"
           d="m 38636,48831 c -1199,0 -1969,241 -2171,417 885,12 3452,-57 4344,0 0,-231 -973,-417 -2173,-417 z" /><path
           style="fill:none;stroke:#000000"
           id="path151"
           d="m 38636,48831 c -1199,0 -1969,241 -2171,417 885,12 3452,-57 4344,0 0,-231 -973,-417 -2173,-417 z" /></g></g><g
       id="g153"
       class="com.sun.star.drawing.ClosedBezierShape"><g
         id="id20"><path
           style="fill:#1b1918;stroke:none"
           id="path156"
           d="m 42980,48830 c 1170,35 1685,278 2062,420 -886,11 -3343,-59 -4234,-1 0,-231 1001,-453 2172,-419 z" /><path
           style="fill:none;stroke:#000000"
           id="path158"
           d="m 42980,48830 c 1170,35 1685,278 2062,420 -886,11 -3343,-59 -4234,-1 0,-231 1001,-453 2172,-419 z" /></g></g><g
       id="g160"
       class="com.sun.star.drawing.LineShape"><g
         id="id21"><path
           style="fill:none;stroke:#1b1918;stroke-width:117;stroke-linejoin:round"
           id="path163"
           d="m 42671,36849 1636,1403" /></g></g><g
       id="g165"
       class="com.sun.star.drawing.ClosedBezierShape"><g
         id="id22"><path
           style="fill:#000000;stroke:none"
           id="path168"
           d="m 39972,40057 0,0 c 36,0 66,8 98,26 31,18 54,41 72,72 18,32 26,62 26,98 l 0,1 0,0 c 0,36 -8,66 -26,98 -18,31 -41,54 -72,72 -32,18 -62,26 -98,26 -37,0 -67,-8 -99,-26 -31,-18 -54,-41 -72,-72 -18,-32 -26,-62 -26,-98 0,-37 8,-67 26,-99 18,-31 41,-54 72,-72 32,-18 62,-26 99,-26 z" /><path
           style="fill:none;stroke:#000000;stroke-width:8;stroke-linejoin:round"
           id="path170"
           d="m 39972,40057 0,0 c 36,0 66,8 98,26 31,18 54,41 72,72 18,32 26,62 26,98 l 0,1 0,0 c 0,36 -8,66 -26,98 -18,31 -41,54 -72,72 -32,18 -62,26 -98,26 -37,0 -67,-8 -99,-26 -31,-18 -54,-41 -72,-72 -18,-32 -26,-62 -26,-98 0,-37 8,-67 26,-99 18,-31 41,-54 72,-72 32,-18 62,-26 99,-26 z" /></g></g></g><g
     transform="translate(-24794.733,-31570.07)"
     id="g172"
     class="Group"><g
       id="g174"
       class="com.sun.star.drawing.PolyPolygonShape"><g
         id="id23"><path
           style="fill:#fefd0a;stroke:none"
           id="path177"
           d="m 45767,65151 0,2230 9607,0 0,-2230 -9607,0 z" /></g></g><g
       id="g179"
       class="com.sun.star.drawing.ClosedBezierShape"><g
         id="id24"><path
           style="fill:#1b1918;stroke:none"
           id="path182"
           d="m 44111,56488 c 4420,-69 8840,-138 13260,-206 27,2141 668,5695 13,6523 -655,829 -12612,457 -13392,-85 -778,-541 79,-4154 119,-6232 z" /><path
           style="fill:none;stroke:#1b1918;stroke-width:8;stroke-linejoin:miter"
           id="path184"
           d="m 44111,56488 c 4420,-69 8840,-138 13260,-206 27,2141 668,5695 13,6523 -655,829 -12612,457 -13392,-85 -778,-541 79,-4154 119,-6232 z" /></g></g><g
       id="g186"
       class="com.sun.star.drawing.ClosedBezierShape"><g
         id="id25"><path
           style="fill:#9932ca;stroke:none"
           id="path189"
           d="m 44484,64456 c -62,-214 -141,-208 -202,-422 468,-1395 -175,-1031 1789,-4795 l 8864,-16 c 1180,1593 1844,3409 1966,5326 -354,355 -666,650 -1021,1004 -3506,958 -6961,939 -10518,34 -293,-349 -585,-782 -878,-1131 z" /></g></g><g
       id="g191"
       class="com.sun.star.drawing.LineShape"><g
         id="id26"><path
           style="fill:none;stroke:#1b1918;stroke-width:100;stroke-linejoin:miter"
           id="path194"
           d="m 50527,66267 0,-4495" /></g></g><g
       id="g196"
       class="com.sun.star.drawing.ClosedBezierShape"><g
         id="id27"><path
           style="fill:#3a0466;stroke:none"
           id="path199"
           d="m 46205,59442 c -421,383 -345,880 608,1453 954,574 2765,1136 3707,880 -112,-343 -217,-689 -330,-1032 231,-6 461,-11 692,-17 -107,354 -255,695 -362,1049 1211,364 2687,-251 3435,-627 748,-375 1056,-613 1258,-966 202,-355 -56,-620 -245,-807 -2921,22 -5841,45 -8763,67 z" /></g></g><g
       id="g201"
       class="com.sun.star.drawing.ClosedBezierShape"><g
         id="id28"><path
           style="fill:#fae2ba;stroke:none"
           id="path204"
           d="m 57739,54006 c 0,3973 -3222,7194 -7193,7194 -3973,0 -7194,-3221 -7194,-7194 0,-1022 39,-1995 474,-2732 2137,-3617 11146,-3111 13407,-82 526,706 506,1757 506,2814 z" /></g></g><g
       id="g206"
       class="com.sun.star.drawing.ClosedBezierShape"><g
         id="id29"><path
           style="fill:#1b1918;stroke:none"
           id="path209"
           d="m 43861,56669 c 171,-291 341,-601 505,-957 41,-191 -62,-463 -17,-574 357,-456 758,-925 878,-1705 71,-459 596,-998 875,-1053 1163,-232 84,-267 1168,-1902 107,-161 1553,643 2346,886 l -439,-2084 350,52 c 252,1006 622,2013 933,3020 268,-840 236,-1228 271,-1722 385,236 703,658 979,1064 663,-292 836,-214 1266,-203 567,15 125,355 2296,658 79,1298 243,961 489,1436 115,221 186,836 557,1165 75,1046 398,844 541,1013 l 341,979 c 347,-844 539,-1767 539,-2735 0,-1057 20,-2109 -506,-2815 -2261,-3029 -11270,-3535 -13407,82 -435,737 -474,1711 -474,2733 0,940 180,1839 509,2662 z" /><path
           style="fill:none;stroke:#1b1918;stroke-width:8;stroke-linejoin:miter"
           id="path211"
           d="m 43861,56669 c 171,-291 341,-601 505,-957 41,-191 -62,-463 -17,-574 357,-456 758,-925 878,-1705 71,-459 596,-998 875,-1053 1163,-232 84,-267 1168,-1902 107,-161 1553,643 2346,886 l -439,-2084 350,52 c 252,1006 622,2013 933,3020 268,-840 236,-1228 271,-1722 385,236 703,658 979,1064 663,-292 836,-214 1266,-203 567,15 125,355 2296,658 79,1298 243,961 489,1436 115,221 186,836 557,1165 75,1046 398,844 541,1013 l 341,979 c 347,-844 539,-1767 539,-2735 0,-1057 20,-2109 -506,-2815 -2261,-3029 -11270,-3535 -13407,82 -435,737 -474,1711 -474,2733 0,940 180,1839 509,2662 z" /></g></g><g
       id="g213"
       class="com.sun.star.drawing.ClosedBezierShape"><g
         id="id30"><path
           style="fill:#fd63fd;stroke:none"
           id="path216"
           d="m 45478,47857 c -380,352 -439,498 -1799,1738 -511,466 -398,904 -273,1260 126,357 129,280 187,702 185,-7 381,8 526,6 515,-828 248,-449 1115,-714 807,-194 628,-768 2466,-667 1804,20 923,-382 2035,-160 1069,90 2187,-26 3208,270 987,286 2052,513 3006,946 496,224 697,297 1419,531 316,103 598,-335 519,-886 -86,-602 -967,-1010 -1825,-1736 -458,-387 -958,-744 -1551,-1147 -1594,-1084 -3779,-1884 -6770,-1234 -775,169 -1535,415 -2263,1091 z" /></g></g><g
       id="g218"
       class="com.sun.star.drawing.ClosedBezierShape"><g
         id="id31"><path
           style="fill:#ffffff;stroke:none"
           id="path221"
           d="m 50291,55791 0,0 c -214,354 -464,613 -799,829 -338,218 -660,326 -1030,347 -370,20 -677,-53 -980,-236 -3,-2 -6,-3 -9,-5 l 0,0 c -299,-182 -505,-417 -660,-750 -155,-336 -211,-671 -177,-1072 34,-400 147,-744 361,-1101 215,-357 466,-618 803,-836 338,-218 660,-326 1030,-347 370,-20 677,54 980,236 304,182 513,419 669,755 155,336 211,672 177,1072 -34,400 -147,744 -361,1101 -2,2 -3,4 -4,7 z" /></g></g><g
       id="g223"
       class="com.sun.star.drawing.ClosedBezierShape"><g
         id="id32"><path
           style="fill:#ffffff;stroke:none"
           id="path226"
           d="m 51018,55774 0,0 c 214,354 464,613 799,829 338,218 660,326 1030,347 370,20 677,-53 980,-236 3,-2 6,-3 9,-5 l 0,0 c 299,-182 505,-417 660,-750 155,-336 211,-671 177,-1072 -34,-400 -147,-744 -361,-1101 -215,-357 -466,-618 -803,-836 -338,-218 -660,-326 -1030,-347 -370,-20 -677,54 -980,236 -304,182 -513,419 -669,755 -155,336 -211,672 -177,1072 34,400 147,744 361,1101 2,2 3,4 4,7 z" /></g></g><g
       id="g228"
       class="com.sun.star.drawing.ClosedBezierShape"><g
         id="id33"><path
           style="fill:#1b1918;stroke:none"
           id="path231"
           d="m 48094,54682 0,0 c 1,0 1,0 2,0 48,0 89,11 130,35 42,24 72,54 96,96 24,41 35,82 35,130 l 0,0 0,0 c 0,49 -11,90 -35,131 -24,42 -54,72 -96,96 -41,24 -82,35 -130,35 -49,0 -90,-11 -131,-35 -42,-24 -72,-54 -96,-96 -24,-41 -35,-82 -35,-131 0,-48 11,-89 35,-130 24,-42 54,-72 96,-96 41,-24 82,-35 129,-35 z" /><path
           style="fill:none;stroke:#1b1918;stroke-width:8;stroke-linejoin:miter"
           id="path233"
           d="m 48094,54682 0,0 c 1,0 1,0 2,0 48,0 89,11 130,35 42,24 72,54 96,96 24,41 35,82 35,130 l 0,0 0,0 c 0,49 -11,90 -35,131 -24,42 -54,72 -96,96 -41,24 -82,35 -130,35 -49,0 -90,-11 -131,-35 -42,-24 -72,-54 -96,-96 -24,-41 -35,-82 -35,-131 0,-48 11,-89 35,-130 24,-42 54,-72 96,-96 41,-24 82,-35 129,-35 z" /></g></g><g
       id="g235"
       class="com.sun.star.drawing.ClosedBezierShape"><g
         id="id34"><path
           style="fill:#1b1918;stroke:none"
           id="path238"
           d="m 51792,54682 0,0 c 1,0 1,0 2,0 48,0 89,11 130,35 42,24 72,54 96,96 24,41 35,82 35,130 l 0,0 0,0 c 0,49 -11,90 -35,131 -24,42 -54,72 -96,96 -41,24 -82,35 -130,35 -49,0 -90,-11 -131,-35 -42,-24 -72,-54 -96,-96 -24,-41 -35,-82 -35,-131 0,-48 11,-89 35,-130 24,-42 54,-72 96,-96 41,-24 82,-35 129,-35 z" /><path
           style="fill:none;stroke:#1b1918;stroke-width:8;stroke-linejoin:miter"
           id="path240"
           d="m 51792,54682 0,0 c 1,0 1,0 2,0 48,0 89,11 130,35 42,24 72,54 96,96 24,41 35,82 35,130 l 0,0 0,0 c 0,49 -11,90 -35,131 -24,42 -54,72 -96,96 -41,24 -82,35 -130,35 -49,0 -90,-11 -131,-35 -42,-24 -72,-54 -96,-96 -24,-41 -35,-82 -35,-131 0,-48 11,-89 35,-130 24,-42 54,-72 96,-96 41,-24 82,-35 129,-35 z" /></g></g><g
       id="g242"
       class="com.sun.star.drawing.ClosedBezierShape"><g
         id="id35"><path
           style="fill:#1b1918;stroke:none"
           id="path245"
           d="m 49565,59252 c 940,313 2052,-112 2542,-474 45,-23 81,87 59,118 -595,358 -1758,787 -2668,491 -36,-37 36,-145 67,-135 z" /><path
           style="fill:none;stroke:#1b1918;stroke-width:8;stroke-linejoin:miter"
           id="path247"
           d="m 49565,59252 c 940,313 2052,-112 2542,-474 45,-23 81,87 59,118 -595,358 -1758,787 -2668,491 -36,-37 36,-145 67,-135 z" /></g></g><g
       id="g249"
       class="com.sun.star.drawing.ClosedBezierShape"><g
         id="id36"><path
           style="fill:#3a0466;stroke:none"
           id="path252"
           d="m 45161,63476 -1,0 c 203,0 374,46 549,147 175,101 301,227 402,402 101,175 147,346 147,548 l 0,1 0,0 c 0,202 -46,373 -147,548 -101,175 -227,301 -402,402 -175,101 -346,147 -548,147 -203,0 -374,-46 -549,-147 -175,-101 -301,-227 -402,-402 -101,-175 -147,-346 -147,-548 0,-203 46,-374 147,-549 101,-175 227,-301 402,-402 175,-101 346,-147 548,-147 l 1,0 z" /><path
           style="fill:none;stroke:#1b1918;stroke-width:8;stroke-linejoin:miter"
           id="path254"
           d="m 45161,63476 -1,0 c 203,0 374,46 549,147 175,101 301,227 402,402 101,175 147,346 147,548 l 0,1 0,0 c 0,202 -46,373 -147,548 -101,175 -227,301 -402,402 -175,101 -346,147 -548,147 -203,0 -374,-46 -549,-147 -175,-101 -301,-227 -402,-402 -101,-175 -147,-346 -147,-548 0,-203 46,-374 147,-549 101,-175 227,-301 402,-402 175,-101 346,-147 548,-147 l 1,0 z" /></g></g><g
       id="g256"
       class="com.sun.star.drawing.ClosedBezierShape"><g
         id="id37"><path
           style="fill:#3a0466;stroke:none"
           id="path259"
           d="m 46064,63738 0,0 c 102,0 189,23 278,75 89,51 153,115 204,204 52,89 75,176 75,279 l 0,0 0,0 c 0,102 -23,189 -75,278 -51,89 -115,153 -204,204 -89,52 -176,75 -278,75 -103,0 -190,-23 -279,-75 -89,-51 -153,-115 -204,-204 -52,-89 -75,-176 -75,-278 0,-103 23,-190 75,-279 51,-89 115,-153 204,-204 89,-52 176,-75 279,-75 z" /><path
           style="fill:none;stroke:#1b1918;stroke-width:8;stroke-linejoin:miter"
           id="path261"
           d="m 46064,63738 0,0 c 102,0 189,23 278,75 89,51 153,115 204,204 52,89 75,176 75,279 l 0,0 0,0 c 0,102 -23,189 -75,278 -51,89 -115,153 -204,204 -89,52 -176,75 -278,75 -103,0 -190,-23 -279,-75 -89,-51 -153,-115 -204,-204 -52,-89 -75,-176 -75,-278 0,-103 23,-190 75,-279 51,-89 115,-153 204,-204 89,-52 176,-75 279,-75 z" /></g></g><g
       id="g263"
       class="com.sun.star.drawing.LineShape"><g
         id="id38"><path
           style="fill:none;stroke:#1b1918;stroke-width:8;stroke-linejoin:miter"
           id="path266"
           d="m 46080,63924 339,-1638" /></g></g><g
       id="g268"
       class="com.sun.star.drawing.ClosedBezierShape"><g
         id="id39"><path
           style="fill:#3a0466;stroke:none"
           id="path271"
           d="m 56040,63485 -1,0 c 203,0 374,46 549,147 175,101 301,227 402,402 101,175 147,346 147,548 l 0,1 0,0 c 0,202 -46,373 -147,548 -101,175 -227,301 -402,402 -175,101 -346,147 -548,147 -203,0 -374,-46 -549,-147 -175,-101 -301,-227 -402,-402 -101,-175 -147,-346 -147,-548 0,-203 46,-374 147,-549 101,-175 227,-301 402,-402 175,-101 346,-147 548,-147 l 1,0 z" /></g></g><g
       id="g273"
       class="com.sun.star.drawing.LineShape"><g
         id="id40"><path
           style="fill:none;stroke:#1b1918;stroke-width:35;stroke-linejoin:miter"
           id="path276"
           d="m 55120,63959 -330,-1664" /></g></g><g
       id="g278"
       class="com.sun.star.drawing.ClosedBezierShape"><g
         id="id41"><path
           style="fill:#3a0466;stroke:none"
           id="path281"
           d="m 55143,63763 0,0 c 1,0 1,0 2,0 100,0 186,23 274,73 87,51 150,114 201,201 50,88 73,174 73,274 l 0,0 0,0 c 0,101 -23,187 -73,275 -51,87 -114,150 -201,201 -88,50 -174,73 -274,73 -101,0 -187,-23 -275,-73 -87,-51 -150,-114 -201,-201 -50,-88 -73,-174 -73,-275 0,-100 23,-186 73,-274 51,-87 114,-150 201,-201 87,-50 173,-73 273,-73 z" /><path
           style="fill:none;stroke:#1b1918;stroke-width:35;stroke-linejoin:miter"
           id="path283"
           d="m 55143,63763 0,0 c 1,0 1,0 2,0 100,0 186,23 274,73 87,51 150,114 201,201 50,88 73,174 73,274 l 0,0 0,0 c 0,101 -23,187 -73,275 -51,87 -114,150 -201,201 -88,50 -174,73 -274,73 -101,0 -187,-23 -275,-73 -87,-51 -150,-114 -201,-201 -50,-88 -73,-174 -73,-275 0,-100 23,-186 73,-274 51,-87 114,-150 201,-201 87,-50 173,-73 273,-73 z" /></g></g><g
       id="g285"
       class="com.sun.star.drawing.ClosedBezierShape"><g
         id="id42"><path
           style="fill:#1b1918;stroke:none"
           id="path288"
           d="m 53232,66819 c 1523,48 2193,377 2683,569 -1152,8 -4359,5 -5509,-1 0,-314 1302,-614 2826,-568 z" /><path
           style="fill:none;stroke:#1b1918;stroke-width:8;stroke-linejoin:miter"
           id="path290"
           d="m 53232,66819 c 1523,48 2193,377 2683,569 -1152,8 -4359,5 -5509,-1 0,-314 1302,-614 2826,-568 z" /></g></g><g
       id="g292"
       class="com.sun.star.drawing.ClosedBezierShape"><g
         id="id43"><path
           style="fill:#1b1918;stroke:none"
           id="path295"
           d="m 47607,66819 c -1524,48 -2194,377 -2683,569 1152,8 4359,5 5509,-1 0,-314 -1303,-614 -2826,-568 z" /><path
           style="fill:none;stroke:#1b1918;stroke-width:8;stroke-linejoin:miter"
           id="path297"
           d="m 47607,66819 c -1524,48 -2194,377 -2683,569 1152,8 4359,5 5509,-1 0,-314 -1303,-614 -2826,-568 z" /></g></g><g
       id="g299"
       class="com.sun.star.drawing.ClosedBezierShape"><g
         id="id44"><path
           style="fill:#3a0466;stroke:none"
           id="path302"
           d="m 48780,46909 c 139,234 1055,478 1478,465 425,-13 820,-35 828,-398 9,-363 -1023,-367 -1317,-423 -375,-69 -1126,121 -989,356 z" /></g></g><g
       id="g304"
       class="com.sun.star.drawing.ClosedBezierShape"><g
         id="id45"><path
           style="fill:#1b1918;stroke:none"
           id="path307"
           d="m 49910,62135 0,0 c 1,0 1,0 2,0 34,0 63,8 92,25 30,17 51,38 68,68 17,29 25,58 25,92 l 0,0 0,0 c 0,35 -8,64 -25,93 -17,30 -38,51 -68,68 -29,17 -58,25 -92,25 -35,0 -64,-8 -93,-25 -30,-17 -51,-38 -68,-68 -17,-29 -25,-58 -25,-93 0,-34 8,-63 25,-92 17,-30 38,-51 68,-68 29,-17 58,-25 91,-25 z" /><path
           style="fill:none;stroke:#1b1918;stroke-width:8;stroke-linejoin:miter"
           id="path309"
           d="m 49910,62135 0,0 c 1,0 1,0 2,0 34,0 63,8 92,25 30,17 51,38 68,68 17,29 25,58 25,92 l 0,0 0,0 c 0,35 -8,64 -25,93 -17,30 -38,51 -68,68 -29,17 -58,25 -92,25 -35,0 -64,-8 -93,-25 -30,-17 -51,-38 -68,-68 -17,-29 -25,-58 -25,-93 0,-34 8,-63 25,-92 17,-30 38,-51 68,-68 29,-17 58,-25 91,-25 z" /></g></g><g
       id="g311"
       class="com.sun.star.drawing.ClosedBezierShape"><g
         id="id46"><path
           style="fill:#1b1918;stroke:none"
           id="path314"
           d="m 49920,63595 0,0 c 33,0 61,7 89,24 28,16 49,37 65,65 17,28 24,56 24,89 l 0,0 0,0 c 0,33 -7,61 -24,89 -16,28 -37,49 -65,65 -28,17 -56,24 -89,24 -33,0 -61,-7 -89,-24 -28,-16 -49,-37 -65,-65 -17,-28 -24,-56 -24,-89 0,-33 7,-61 24,-89 16,-28 37,-49 65,-65 28,-17 56,-24 89,-24 z" /><path
           style="fill:none;stroke:#1b1918;stroke-width:8;stroke-linejoin:miter"
           id="path316"
           d="m 49920,63595 0,0 c 33,0 61,7 89,24 28,16 49,37 65,65 17,28 24,56 24,89 l 0,0 0,0 c 0,33 -7,61 -24,89 -16,28 -37,49 -65,65 -28,17 -56,24 -89,24 -33,0 -61,-7 -89,-24 -28,-16 -49,-37 -65,-65 -17,-28 -24,-56 -24,-89 0,-33 7,-61 24,-89 16,-28 37,-49 65,-65 28,-17 56,-24 89,-24 z" /></g></g><g
       id="g318"
       class="com.sun.star.drawing.ClosedBezierShape"><g
         id="id47"><path
           style="fill:#1b1918;stroke:none"
           id="path321"
           d="m 49929,65164 -1,0 c 36,0 67,8 98,26 31,18 53,40 71,71 18,31 26,62 26,97 l 0,1 0,0 c 0,35 -8,66 -26,97 -18,31 -40,53 -71,71 -31,18 -62,26 -97,26 -36,0 -67,-8 -98,-26 -31,-18 -53,-40 -71,-71 -18,-31 -26,-62 -26,-97 0,-36 8,-67 26,-98 18,-31 40,-53 71,-71 31,-18 62,-26 97,-26 l 1,0 z" /><path
           style="fill:none;stroke:#1b1918;stroke-width:8;stroke-linejoin:miter"
           id="path323"
           d="m 49929,65164 -1,0 c 36,0 67,8 98,26 31,18 53,40 71,71 18,31 26,62 26,97 l 0,1 0,0 c 0,35 -8,66 -26,97 -18,31 -40,53 -71,71 -31,18 -62,26 -97,26 -36,0 -67,-8 -98,-26 -31,-18 -53,-40 -71,-71 -18,-31 -26,-62 -26,-97 0,-36 8,-67 26,-98 18,-31 40,-53 71,-71 31,-18 62,-26 97,-26 l 1,0 z" /></g></g></g><g
     transform="translate(-24794.733,-31570.07)"
     id="g325"
     class="Group"><g
       id="g327"
       class="com.sun.star.drawing.PolyPolygonShape"><g
         id="id48"><path
           style="fill:#043304;stroke:none"
           id="path330"
           d="m 29120,65624 0,1809 9333,0 0,-1809 -9333,0 z" /><path
           style="fill:none;stroke:#000000"
           id="path332"
           d="m 29120,65624 0,1809 9333,0 0,-1809 -9333,0 z" /></g></g><g
       id="g334"
       class="com.sun.star.drawing.ClosedBezierShape"><g
         id="id49"><path
           style="fill:#f97812;stroke:none"
           id="path337"
           d="m 39080,65606 c 297,-365 448,-899 744,-1263 279,-846 -342,-3235 -2100,-5198 -2639,0 -5276,0 -7915,0 -1728,1963 -2171,3890 -2064,5198 291,364 560,894 851,1258 3369,969 6844,975 10484,5 z" /></g></g><g
       id="g339"
       class="com.sun.star.drawing.ClosedBezierShape"><g
         id="id50"><path
           style="fill:#0aa402;stroke:none"
           id="path342"
           d="m 38277,59417 c -324,1755 -1879,2559 -4545,2376 l 270,-675 c 1396,-600 2879,-1103 4275,-1701 z" /></g></g><g
       id="g344"
       class="com.sun.star.drawing.PolyLineShape"><g
         id="id51"><path
           style="fill:none;stroke:#1b1918;stroke-width:79;stroke-linejoin:round"
           id="path347"
           d="m 30771,62445 2137,0 0,2877 -2137,0 0,-2877 z" /><path
           style="fill:none;stroke:#1b1918;stroke-width:79;stroke-linejoin:round"
           id="path349"
           d="m 30771,62445 0,0 z" /><path
           style="fill:none;stroke:#1b1918;stroke-width:79;stroke-linejoin:round"
           id="path351"
           d="m 32908,62445 -1096,1066 -1041,-1066" /></g></g><g
       id="g353"
       class="com.sun.star.drawing.ClosedBezierShape"><g
         id="id52"><path
           style="fill:#0aa402;stroke:none"
           id="path356"
           d="m 29278,59472 c 323,1755 1788,2506 4455,2323 l -310,-637 c -1397,-598 -2749,-1087 -4145,-1686 z" /></g></g><g
       id="g358"
       class="com.sun.star.drawing.PolyLineShape"><g
         id="id53"><path
           style="fill:none;stroke:#1b1918;stroke-width:79;stroke-linejoin:round"
           id="path361"
           d="m 34571,62445 2137,0 0,2877 -2137,0 0,-2877 z" /><path
           style="fill:none;stroke:#1b1918;stroke-width:79;stroke-linejoin:round"
           id="path363"
           d="m 34571,62445 0,0 z" /><path
           style="fill:none;stroke:#1b1918;stroke-width:79;stroke-linejoin:round"
           id="path365"
           d="m 36708,62445 -1096,1066 -1041,-1066" /></g></g><g
       id="g367"
       class="com.sun.star.drawing.ClosedBezierShape"><g
         id="id54"><path
           style="fill:#36ca06;stroke:none"
           id="path370"
           d="m 39157,63586 -1,0 c 199,0 368,45 541,145 172,99 296,223 395,395 100,173 145,342 145,540 l 0,1 0,0 c 0,198 -45,367 -145,540 -99,172 -223,296 -395,395 -173,100 -342,145 -540,145 -199,0 -368,-45 -541,-145 -172,-99 -296,-223 -395,-395 -100,-173 -145,-342 -145,-540 0,-199 45,-368 145,-541 99,-172 223,-296 395,-395 173,-100 342,-145 540,-145 l 1,0 z" /></g></g><g
       id="g372"
       class="com.sun.star.drawing.OpenBezierShape"><g
         id="id55"><path
           style="fill:none;stroke:#1b1918;stroke-width:55;stroke-linejoin:miter"
           id="path375"
           d="m 38207,63833 c 27,-435 -69,-929 -339,-1506" /></g></g><g
       id="g377"
       class="com.sun.star.drawing.OpenBezierShape"><g
         id="id56"><path
           style="fill:none;stroke:#1b1918;stroke-width:55;stroke-linejoin:miter"
           id="path380"
           d="m 29399,63850 c 26,-488 87,-977 270,-1465" /></g></g><g
       id="g382"
       class="com.sun.star.drawing.ClosedBezierShape"><g
         id="id57"><path
           style="fill:#36ca06;stroke:none"
           id="path385"
           d="m 38270,63828 0,0 1,0 c 96,0 178,22 261,70 83,48 143,108 191,191 48,83 70,165 70,261 l 0,0 0,0 c 0,96 -22,178 -70,261 -48,83 -108,143 -191,191 -83,48 -165,70 -261,70 -96,0 -178,-22 -261,-70 -83,-48 -143,-108 -191,-191 -48,-83 -70,-165 -70,-261 0,-96 22,-178 70,-261 48,-83 108,-143 191,-191 83,-48 164,-70 260,-70 z" /><path
           style="fill:none;stroke:#2d7307;stroke-width:55;stroke-linejoin:miter"
           id="path387"
           d="m 38270,63828 0,0 1,0 c 96,0 178,22 261,70 83,48 143,108 191,191 48,83 70,165 70,261 l 0,0 0,0 c 0,96 -22,178 -70,261 -48,83 -108,143 -191,191 -83,48 -165,70 -261,70 -96,0 -178,-22 -261,-70 -83,-48 -143,-108 -191,-191 -48,-83 -70,-165 -70,-261 0,-96 22,-178 70,-261 48,-83 108,-143 191,-191 83,-48 164,-70 260,-70 z" /></g></g><g
       id="g389"
       class="com.sun.star.drawing.ClosedBezierShape"><g
         id="id58"><path
           style="fill:#36ca06;stroke:none"
           id="path392"
           d="m 28450,63603 -1,0 c -198,0 -367,45 -540,145 -172,99 -296,223 -395,395 -100,173 -145,342 -145,541 l 0,0 c 0,198 45,367 145,540 99,172 223,296 395,395 173,100 342,145 541,145 198,0 367,-45 540,-145 172,-99 296,-223 395,-395 100,-173 145,-342 145,-541 0,-198 -45,-367 -145,-540 -99,-172 -223,-296 -395,-395 -173,-100 -342,-145 -541,-145 l 1,0 z" /></g></g><g
       id="g394"
       class="com.sun.star.drawing.ClosedBezierShape"><g
         id="id59"><path
           style="fill:#36ca06;stroke:none"
           id="path397"
           d="m 29336,63845 0,0 c -96,0 -178,22 -261,70 -83,48 -143,108 -191,191 -48,83 -70,165 -70,261 l 0,0 c 0,96 22,178 70,261 48,83 108,143 191,191 83,48 165,70 261,70 96,0 178,-22 261,-70 83,-48 143,-108 191,-191 48,-83 70,-165 70,-261 0,-96 -22,-178 -70,-261 -48,-83 -108,-143 -191,-191 -83,-48 -165,-70 -261,-70 z" /><path
           style="fill:none;stroke:#2d7307;stroke-width:55;stroke-linejoin:miter"
           id="path399"
           d="m 29336,63845 0,0 c -96,0 -178,22 -261,70 -83,48 -143,108 -191,191 -48,83 -70,165 -70,261 l 0,0 c 0,96 22,178 70,261 48,83 108,143 191,191 83,48 165,70 261,70 96,0 178,-22 261,-70 83,-48 143,-108 191,-191 48,-83 70,-165 70,-261 0,-96 -22,-178 -70,-261 -48,-83 -108,-143 -191,-191 -83,-48 -165,-70 -261,-70 z" /></g></g><g
       id="g401"
       class="com.sun.star.drawing.ClosedBezierShape"><g
         id="id60"><path
           style="fill:#1b1918;stroke:none"
           id="path404"
           d="m 36454,66946 c 1467,46 2112,363 2584,549 -1110,7 -4199,5 -5306,-1 0,-303 1254,-592 2722,-548 z" /><path
           style="fill:none;stroke:#000000"
           id="path406"
           d="m 36454,66946 c 1467,46 2112,363 2584,549 -1110,7 -4199,5 -5306,-1 0,-303 1254,-592 2722,-548 z" /></g></g><g
       id="g408"
       class="com.sun.star.drawing.ClosedBezierShape"><g
         id="id61"><path
           style="fill:#fde2c4;stroke:none"
           id="path411"
           d="m 33815,48872 0,0 c 1,0 1,0 2,0 1243,0 2299,259 3376,826 1076,568 1850,1275 2471,2258 622,984 905,1949 905,3085 l 0,0 0,0 c 0,1136 -283,2101 -905,3084 -621,984 -1395,1691 -2471,2259 -1077,567 -2133,826 -3376,826 -1244,0 -2300,-259 -3377,-826 -1076,-568 -1850,-1275 -2471,-2259 -622,-983 -905,-1948 -905,-3084 0,-1136 283,-2101 905,-3085 621,-983 1395,-1690 2471,-2258 1077,-567 2133,-826 3375,-826 z" /></g></g><g
       id="g413"
       class="com.sun.star.drawing.OpenBezierShape"><g
         id="id62"><path
           style="fill:none;stroke:#1b1918;stroke-width:95;stroke-linejoin:miter"
           id="path416"
           d="m 32715,59323 c 649,233 1277,177 1894,183" /></g></g><g
       id="g418"
       class="com.sun.star.drawing.ClosedBezierShape"><g
         id="id63"><path
           style="fill:#ffffff;stroke:none"
           id="path421"
           d="m 33455,56019 0,0 c -215,344 -464,595 -796,803 -331,207 -646,308 -1006,323 -359,15 -655,-61 -946,-242 -1,-1 -2,-1 -3,-2 l 0,0 c -289,-182 -486,-414 -630,-742 -144,-330 -191,-657 -150,-1046 41,-389 158,-723 373,-1068 216,-344 465,-596 796,-803 332,-207 647,-309 1006,-324 360,-15 656,61 946,243 291,182 489,415 633,744 144,330 191,657 150,1046 -41,389 -157,723 -373,1068 z" /></g></g><g
       id="g423"
       class="com.sun.star.drawing.ClosedBezierShape"><g
         id="id64"><path
           style="fill:#ffffff;stroke:none"
           id="path426"
           d="m 34267,56019 0,0 c 215,344 464,595 795,802 332,208 647,309 1006,324 360,15 656,-61 946,-243 1,0 2,-1 3,-1 l 0,0 c 289,-182 487,-414 630,-743 144,-329 191,-657 150,-1046 -41,-389 -157,-723 -373,-1067 -215,-345 -464,-596 -796,-803 -331,-208 -646,-309 -1006,-324 -359,-15 -655,61 -946,243 -290,181 -488,414 -633,744 -144,329 -191,656 -150,1045 41,390 158,724 373,1068 1,1 1,1 1,1 z" /></g></g><g
       id="g428"
       class="com.sun.star.drawing.ClosedBezierShape"><g
         id="id65"><path
           style="fill:#000000;stroke:none"
           id="path431"
           d="m 36323,54937 -1,0 c 42,0 78,9 114,30 36,21 62,47 83,83 21,36 30,72 30,113 l 0,1 0,0 c 0,41 -9,77 -30,113 -21,36 -47,62 -83,83 -36,21 -72,30 -113,30 -42,0 -78,-9 -114,-30 -36,-21 -62,-47 -83,-83 -21,-36 -30,-72 -30,-113 0,-42 9,-78 30,-114 21,-36 47,-62 83,-83 36,-21 72,-30 113,-30 l 1,0 z" /><path
           style="fill:none;stroke:#000000;stroke-width:8;stroke-linejoin:round"
           id="path433"
           d="m 36323,54937 -1,0 c 42,0 78,9 114,30 36,21 62,47 83,83 21,36 30,72 30,113 l 0,1 0,0 c 0,41 -9,77 -30,113 -21,36 -47,62 -83,83 -36,21 -72,30 -113,30 -42,0 -78,-9 -114,-30 -36,-21 -62,-47 -83,-83 -21,-36 -30,-72 -30,-113 0,-42 9,-78 30,-114 21,-36 47,-62 83,-83 36,-21 72,-30 113,-30 l 1,0 z" /></g></g><g
       id="g435"
       class="com.sun.star.drawing.ClosedBezierShape"><g
         id="id66"><path
           style="fill:#000000;stroke:none"
           id="path438"
           d="m 33133,54937 -1,0 c 42,0 78,9 114,30 36,21 62,47 83,83 21,36 30,72 30,113 l 0,1 0,0 c 0,41 -9,77 -30,113 -21,36 -47,62 -83,83 -36,21 -72,30 -113,30 -42,0 -78,-9 -114,-30 -36,-21 -62,-47 -83,-83 -21,-36 -30,-72 -30,-113 0,-42 9,-78 30,-114 21,-36 47,-62 83,-83 36,-21 72,-30 113,-30 l 1,0 z" /><path
           style="fill:none;stroke:#000000;stroke-width:8;stroke-linejoin:round"
           id="path440"
           d="m 33133,54937 -1,0 c 42,0 78,9 114,30 36,21 62,47 83,83 21,36 30,72 30,113 l 0,1 0,0 c 0,41 -9,77 -30,113 -21,36 -47,62 -83,83 -36,21 -72,30 -113,30 -42,0 -78,-9 -114,-30 -36,-21 -62,-47 -83,-83 -21,-36 -30,-72 -30,-113 0,-42 9,-78 30,-114 21,-36 47,-62 83,-83 36,-21 72,-30 113,-30 l 1,0 z" /></g></g><g
       id="g442"
       class="com.sun.star.drawing.ClosedBezierShape"><g
         id="id67"><path
           style="fill:#33cc02;stroke:none"
           id="path445"
           d="m 26919,52928 c 0,-1595 -31,-3581 0,-5174 6,-339 273,-848 801,-850 4073,-20 8168,-17 12242,0 539,2 819,511 819,850 l 0,5174 c -4621,-588 -9242,-552 -13862,0 z" /></g></g><g
       id="g447"
       class="com.sun.star.drawing.ClosedBezierShape"><g
         id="id68"><path
           style="fill:#33cb04;stroke:none"
           id="path450"
           d="m 27702,52215 c -1252,218 -3205,3110 -2869,5970 37,317 559,722 1211,371 1412,-853 2697,-4942 2264,-5868 -202,-158 -404,-316 -606,-473 z" /></g></g><g
       id="g452"
       class="com.sun.star.drawing.ClosedBezierShape"><g
         id="id69"><path
           style="fill:#33cb04;stroke:none"
           id="path455"
           d="m 39995,52191 c 1252,218 3206,3109 2869,5970 -37,317 -559,722 -1211,371 -1412,-853 -2696,-4942 -2264,-5868 202,-158 404,-316 606,-473 z" /></g></g><g
       id="g457"
       class="com.sun.star.drawing.ClosedBezierShape"><g
         id="id70"><path
           style="fill:#01a802;stroke:none"
           id="path460"
           d="m 33854,52711 c -3909,-50 -4508,694 -5862,560 -126,-71 -151,-125 -164,-540 -11,-417 45,-2309 14,-3276 1999,-12 4004,-17 6012,-17 2007,0 4012,5 6011,17 -31,967 27,2859 14,3276 -12,415 -37,469 -164,540 -1354,134 -1953,-610 -5861,-560 z" /></g></g><g
       id="g462"
       class="com.sun.star.drawing.OpenBezierShape"><g
         id="id71"><path
           style="fill:none;stroke:#1b1918;stroke-width:79;stroke-linejoin:miter"
           id="path465"
           d="m 40749,52574 c -281,-239 -571,-294 -884,-337" /></g></g><g
       id="g467"
       class="com.sun.star.drawing.OpenBezierShape"><g
         id="id72"><path
           style="fill:none;stroke:#1b1918;stroke-width:79;stroke-linejoin:miter"
           id="path470"
           d="m 26955,52638 c 258,-211 536,-351 875,-367" /></g></g><g
       id="g472"
       class="com.sun.star.drawing.LineShape"><g
         id="id73"><path
           style="fill:none;stroke:#1b1918;stroke-width:100;stroke-linejoin:miter"
           id="path475"
           d="m 33732,61793 0,4537" /></g></g><g
       id="g477"
       class="com.sun.star.drawing.ClosedBezierShape"><g
         id="id74"><path
           style="fill:#1b1918;stroke:none"
           id="path480"
           d="m 31035,66946 c -1468,46 -2113,363 -2584,549 1109,7 4198,5 5306,-1 0,-303 -1255,-592 -2722,-548 z" /><path
           style="fill:none;stroke:#000000"
           id="path482"
           d="m 31035,66946 c -1468,46 -2113,363 -2584,549 1109,7 4198,5 5306,-1 0,-303 -1255,-592 -2722,-548 z" /></g></g></g></svg>