<?xml version="1.0" encoding="UTF-8" standalone="no"?>
<svg
   xmlns:dc="http://purl.org/dc/elements/1.1/"
   xmlns:cc="http://creativecommons.org/ns#"
   xmlns:rdf="http://www.w3.org/1999/02/22-rdf-syntax-ns#"
   xmlns:svg="http://www.w3.org/2000/svg"
   xmlns="http://www.w3.org/2000/svg"
   version="1.1"
   id="svg2"
   viewBox="0 0 631.57302 755.32352"
   height="213.16908mm"
   width="178.24394mm">
  <defs
     id="defs4" />
  <metadata
     id="metadata7">
    <rdf:RDF>
      <cc:Work
         rdf:about="">
        <dc:format>image/svg+xml</dc:format>
        <dc:type
           rdf:resource="http://purl.org/dc/dcmitype/StillImage" />
        <dc:title></dc:title>
      </cc:Work>
    </rdf:RDF>
  </metadata>
  <g
     transform="translate(-56.568542,-84.9067)"
     id="layer5" />
  <g
     transform="translate(-56.568542,-84.9067)"
     style="display:inline"
     id="layer4" />
  <g
     transform="translate(-56.568542,-84.9067)"
     style="display:inline"
     id="layer2" />
  <g
     transform="translate(-56.568542,-84.9067)"
     style="display:inline"
     id="layer1">
    <flowRoot
       transform="translate(-474.28571,-577.14286)"
       style="font-style:normal;font-variant:normal;font-weight:normal;font-stretch:normal;font-size:60px;line-height:125%;font-family:'Web Symbols';-inkscape-font-specification:'Web Symbols';letter-spacing:0px;word-spacing:0px;fill:#000000;fill-opacity:1;stroke:none;stroke-width:1px;stroke-linecap:butt;stroke-linejoin:miter;stroke-opacity:1"
       id="flowRoot4284"
       xml:space="preserve"><flowRegion
         id="flowRegion4286"><rect
           style="font-style:normal;font-variant:normal;font-weight:normal;font-stretch:normal;font-family:'Web Symbols';-inkscape-font-specification:'Web Symbols'"
           y="-57.795444"
           x="60.609154"
           height="547.50269"
           width="864.69055"
           id="rect4288" /></flowRegion><flowPara
         id="flowPara4294" /></flowRoot>    <path
       id="path9"
       style="display:inline;fill:#ed1c24;fill-rule:evenodd;stroke:#000000;stroke-width:2.64302182;stroke-miterlimit:4;stroke-dasharray:none;stroke-opacity:1"
       d="m 95.390177,123.72811 553.929733,0 0,338.52676 c -0.0993,4.92784 -0.0993,9.85963 -0.29497,14.78549 -2.86515,71.87604 -27.46379,140.20798 -71.9924,196.89243 -52.54876,66.45875 -125.759,109.61547 -204.67848,137.3018 C 263.16668,775.53154 199.06667,720.96037 136.49054,626.51069 113.78777,584.82766 100.3697,538.7814 96.562057,491.53066 c -0.78952,-9.80316 -0.97623,-19.4528 -1.17188,-29.27579 l 0,-338.52676 0,0 z" />
    <path
       id="path4552"
       d="m 438.66269,695.86339 c -3.89824,-0.22925 -3.86504,-0.23518 2.90598,-0.52733 30.84419,-1.33242 63.80961,-8.95657 93.86406,-21.70938 10.7054,-4.5429 31.31311,-15.27208 35.71539,-18.59497 0.97641,-0.73775 0.96205,-0.7427 -1.50423,-0.51395 -1.37007,0.12725 -6.78788,0.34712 -12.03932,0.48972 -39.41209,1.06601 -78.46772,-10.00677 -111.85742,-31.7127 -5.43861,-3.5363 -12.44731,-8.61395 -13.2009,-9.56511 -0.90564,-1.1418 0.15148,-1.63345 4.15073,-1.93006 24.63122,-1.82705 46.15592,-11.7452 62.8,-28.9384 7.11172,-7.34542 12.53101,-14.86708 16.88773,-23.44039 2.09841,-4.12801 5.3089,-11.71304 5.3089,-12.54239 0,-0.18717 -1.72852,-0.0985 -3.84031,0.19658 -9.71511,1.35866 -20.53097,1.10662 -30.64417,-0.7145 -5.99663,-1.07988 -7.65386,-1.65031 -7.65386,-2.63462 0,-0.65855 0.87589,-1.01554 5.39702,-2.19893 9.88792,-2.58959 19.24506,-6.80667 27.92388,-12.58544 6.64574,-4.42409 10.68759,-7.77023 16.1133,-13.33659 9.474,-9.71958 16.7288,-21.21276 21.51529,-34.08143 3.12188,-8.3941 5.6446,-21.646 5.64608,-29.6623 l 0,-2.98124 -4.67065,2.21575 c -10.12363,4.80384 -21.21769,7.80983 -32.90895,8.91795 -7.07504,0.66993 -7.26221,0.0639 -1.36164,-4.40475 19.39314,-14.68633 32.65645,-36.39622 36.86563,-60.34165 1.14774,-6.53238 1.58888,-20.16258 0.86054,-26.58899 -0.76747,-6.76509 -2.38757,-14.19614 -4.44882,-20.40271 -1.93649,-5.82978 -6.92503,-16.70799 -7.5479,-16.45844 -0.19163,0.0762 -2.02661,2.10038 -4.07799,4.49785 -37.30922,43.60247 -89.10526,75.22554 -145.15059,88.61906 -15.19384,3.63086 -35.15143,6.58486 -47.00556,6.9572 l -3.73632,0.11685 0.0248,-1.86816 c 0.01,-1.02741 0.38324,-4.01657 0.82144,-6.64229 1.08287,-6.49475 1.12347,-21.36428 0.0772,-28.03974 -4.38446,-27.96399 -19.26934,-51.25584 -42.64587,-66.73242 -5.16132,-3.41695 -15.1473,-8.35894 -20.96569,-10.37614 -6.93246,-2.4034 -18.05427,-4.78106 -23.45625,-4.92763 -5.37672,-0.14507 -10.76879,-0.19755 -16.13758,0 -3.01984,0.10844 -10.37861,1.2938 -14.9656,2.41034 -16.10885,3.92151 -31.65226,12.4285 -43.22171,23.65529 -3.49864,3.39467 -4.19382,3.8908 -5.45195,3.8908 -1.90284,0 -14.51307,-3.19117 -21.31327,-5.39355 -11.0911,-3.59273 -24.2099,-9.20563 -33.362,-14.27388 -2.3663,-1.31014 -4.3592,-2.32418 -4.4295,-2.25387 -0.2813,0.28074 2.8277,7.68604 5.0687,12.07298 7.3603,14.40806 18.8762,27.31932 32.4113,36.3368 3.3561,2.23555 4.0711,3.18077 2.7807,3.67591 -1.0373,0.39859 -15.6177,-2.19594 -23.4701,-4.17551 -8.552,-2.15633 -14.6165,-4.07054 -22.7293,-7.17407 -3.2729,-1.25221 -6.0249,-2.20288 -6.1145,-2.11276 -0.2337,0.2337 7.3177,10.22809 11.2391,14.87497 8.0347,9.52104 20.6632,21.54203 30.3546,28.89436 l 4.7221,3.58233 0,11.4605 c 0,15.44686 0.6749,25.13228 2.7302,39.48341 5.505,38.44904 19.4981,76.79214 40.15088,110.016 44.39568,71.41989 114.67875,116.07352 197.28236,125.34057 8.80109,0.98779 17.54228,1.6612 23.04032,1.77556 l 3.94428,0.0822 -4.15175,0.25401 c -2.28357,0.14014 2.94757,0.25499 11.62438,0.25552 8.67682,0 14.00107,-0.10351 11.83185,-0.23076 z"
       style="display:inline;fill:#ffffff;fill-opacity:1;stroke:#000000;stroke-width:2.9;stroke-linecap:round;stroke-linejoin:round;stroke-miterlimit:4;stroke-dasharray:none;stroke-opacity:1" />
    <path
       id="path4591"
       d="m 169.76894,342.71807 -9.72272,25.27907 -5.48008,3.71231 -1.59099,4.94975 3.18198,5.12652 -2.82842,18.73833 -0.17678,16.61701 32.65686,-0.66743 52.54951,-7.4643 54.96021,-10.33789 49.69159,-11.05209 -105.86323,10.71732 -75.86321,5.72292 3.87379,-22.70965 4.29588,-18.01184 8.44734,-20.0897 -7.14045,-1.30943 z"
       style="fill:#ffffff;fill-rule:evenodd;stroke:none;stroke-width:1px;stroke-linecap:butt;stroke-linejoin:miter;stroke-opacity:1" />
    <path
       id="path4586"
       d="m 399.22496,459.39079 7.37433,-8.23625 5.79315,-12.48127 2.61312,-13.29807 8.72381,3.23565 16.6107,-13.58769 16.11356,-21.6413 8.18579,-28.7426 -0.41188,-27.32445 -6.79068,-50.70134 -33.81691,5.41114 -1.95201,-7.76442 5.29502,-21.86472 0.20846,-17.60506 -7.70647,-14.08872 -21.29492,2.16181 -9.7836,5.08727 -6.30488,6.82619 -5.51818,12.6662 3.89174,2.87378 -6.50575,11.42063 1.20884,2.87465 -0.91729,4.05242 2.02923,2.20065 -0.39626,8.01068 -13.6842,3.38713 -13.56363,-8.06621 -13.90302,-5.92761 -4.31489,-8.53429 3.96423,-12.36965 2.43861,-0.54809 1.89541,-14.92499 5.33969,-12.35024 7.58251,-4.48168 3.86214,19.71318 7.43983,-0.0303 0.76894,-18.12402 152.99873,-4.97073 17.59237,-5.8636 -16.37913,-6.58795 -154.97885,-2.93637 0.52447,-19.43597 -6.74507,-0.92461 -5.00828,15.79671 -4.92495,-3.80225 -4.02361,2.45165 -4.31723,-1.03496 -14.94812,7.38021 -2.12919,4.01416 -11.88094,-0.4148 -8.02858,-5.87182 -6.45889,1.22822 -4.84393,5.62649 0.66674,8.63523 4.35688,5.18979 8.94384,0.76094 5.32591,-6.1803 10.67177,-0.12227 2.3151,7.67023 -7.60334,11.6868 -8.29612,13.22231 1.90007,2.79385 -5.68999,13.39502 -1.77575,17.04762 22.90392,17.95495 11.74847,8.83768 10.71198,2.76004 4.24763,23.45761 6.8779,26.81083 -10.50695,1.80126 -2.05435,3.68196 1.00051,2.82039 -1.97354,4.02108 1.54524,3.42137 -1.15722,3.09371 4.34914,4.03421 -0.4949,2.99334 2.21561,4.96741 -7.36591,11.55631 -10.40433,14.06305 -2.99798,8.1999 1.94885,2.54702 -9.40979,13.92949 -5.21179,17.83987 -7.95508,1.41406 -7.33593,4.77344 1.85546,13.96484 -29.96289,40.92383 -3.71289,0.79492 -4.0664,2.47461 -1.85547,6.54102 -1.32617,2.47461 -9.63477,1.23828 -9.45703,5.21484 -8.92773,8.83789 -2.6504,6.80664 21.30079,-3.18164 0,3.53516 19.26953,3.18164 1.06054,-4.41992 9.89844,4.24414 9.90039,1.41406 -0.53125,-16.08789 5.83399,-2.47461 1.06054,3.88867 4.41016,23.78906 -0.22461,0.0527 0.68164,2.41015 0.082,0.44141 0.041,-0.008 6.44531,22.78125 7,15.75 12.875,20.5 10.875,12 8,6.5 10.875,4.875 8.75,1.375 c 0,-0.5 -5,-13.875 -5,-13.875 l -13.5,-25.875 -11.75,-40 5.375,-0.25 3.25,14.125 4.75,15.375 9.875,21.875 10.125,14.875 13.125,10.75 17.875,7.625 1.75,-2.625 c 0,0 -5.625,-15.125 -5.75,-15.75 -0.125,-0.625 -18.625,-43.375 -19,-44.625 -0.375,-1.25 -6.25,-22.125 -6.25,-22.125 l 6.125,0.25 6.375,23 13,32.375 10.875,21.5 5.25,-6 5.125,-18.5 -0.875,-19.875 -4.75,-20.5 -12,-33.25 -3.125,-8.125 -0.86328,0.20508 0.41016,-6.17188 -4.77344,-33.05859 -1.23633,-21.74219 z"
       style="fill:#ffffff;fill-rule:evenodd;stroke:none;stroke-width:1px;stroke-linecap:butt;stroke-linejoin:miter;stroke-opacity:1" />
    <g
       transform="translate(-368.36488,223.95329)"
       id="g4307">
      <path
         d="m 777.74169,185.30678 c 0.55951,-1.35927 1.08054,-3.21149 1.08263,-5.40276 0,-0.23399 -0.004,-0.46694 -0.0166,-0.70511 -0.33071,-6.65697 -2.22661,-17.6403 -4.23484,-29.26738 -0.52935,-3.06486 -1.06911,-6.18586 -1.59014,-9.2944 l -0.17056,-1.01502 -1.02231,0.13832 c -2.43982,0.33072 -4.83075,0.6396 -7.13641,0.93807 -8.51959,1.10239 -15.87752,2.05294 -20.25795,3.39245 -0.76543,0.23191 -1.52775,0.52728 -2.26094,0.8819 -0.22048,0.10608 -0.42952,0.21424 -0.6292,0.3224 -0.31095,0.16848 -0.598,0.33695 -0.85799,0.50128 -0.006,-0.2704 -0.0145,-0.56159 -0.0301,-0.87776 -0.0125,-0.28703 -0.0229,-0.52935 -0.0385,-0.78206 -0.104,-1.75031 -0.30471,-3.60253 -0.60111,-5.5005 -0.32343,-2.07687 -0.73944,-4.11317 -1.23863,-6.04963 l -0.17055,-0.64791 c -0.0926,-0.34424 -0.18097,-0.65936 -0.26521,-0.9464 0.95679,0.22257 2.21102,0.40976 3.71693,0.40976 l 0.40247,-0.004 c 4.85572,-0.11024 12.54124,-1.48199 21.43939,-3.07317 1.96662,-0.35255 3.979,-0.71136 6.01322,-1.06703 l 1.01503,-0.17785 -0.14455,-1.0223 c -0.7072,-4.95763 -1.63799,-11.60108 -2.23703,-15.9628 l -0.15079,-1.10031 -1.092,0.19655 c -8.90647,1.60575 -16.22695,3.29574 -20.08219,4.63628 -0.41496,0.14249 -0.80184,0.30056 -1.16063,0.46487 -0.19033,0.0863 -0.38064,0.17888 -0.5668,0.27456 -0.34735,0.17888 -0.66352,0.36296 -0.94638,0.54183 -0.0125,-0.28287 -0.0301,-0.59382 -0.052,-0.93183 l -0.0541,-0.71655 c -0.12898,-1.70765 -0.34945,-3.56404 -0.65,-5.51611 -0.32655,-2.08516 -0.72591,-4.13188 -1.18663,-6.08601 l -0.13831,-0.57303 c -0.0926,-0.37855 -0.18201,-0.72384 -0.26416,-1.03272 0.79559,0.17888 1.79814,0.32864 2.97852,0.3432 l 0.50543,0.002 c 4.38356,0 12.09925,-0.637519 20.13733,-1.659829 l 1.09927,-0.14039 -0.18304,-1.09304 c -0.51688,-3.06692 -1.31455,-6.79112 -2.03215,-9.48886 -0.39311,-1.46951 -1.01294,-2.85894 -1.84285,-4.1298 -0.23815,-0.36087 -0.47632,-0.68951 -0.70927,-0.98799 -0.10192,-0.13104 -0.20489,-0.25687 -0.30472,-0.37752 2.21103,-0.026 5.29979,-0.17576 8.57783,-0.68119 3.42157,-0.53143 6.51866,-1.37487 8.54352,-1.99677 -0.0728,0.19863 -0.14249,0.41079 -0.21112,0.63126 -0.0957,0.30888 -0.18615,0.64168 -0.26831,0.99424 -0.2704,1.14086 -0.40872,2.33997 -0.4108,3.55884 0,0.30992 0.008,0.62504 0.026,0.95159 0.15392,2.71645 0.67184,6.70585 1.07846,9.57623 l 0.15808,1.10446 1.09304,-0.20695 c 7.28305,-1.37279 14.2385,-3.03677 18.14885,-4.34197 1.11279,-0.37231 2.02592,-0.81951 2.72894,-1.23446 0.0894,1.7243 0.30263,4.45636 0.82368,7.8176 0.48671,3.135569 1.03998,5.515069 1.44974,7.060489 -0.3224,-0.0863 -0.67599,-0.16431 -1.05871,-0.23087 -0.20384,-0.0354 -0.41288,-0.0655 -0.63335,-0.0915 -0.38896,-0.0489 -0.80808,-0.0822 -1.24903,-0.0925 -0.30888,-0.006 -0.63336,-0.0104 -0.97031,-0.0104 -3.97693,0 -10.20959,0.49919 -17.54567,1.40398 l -1.11071,0.13624 0.19032,1.10239 c 0.75815,4.38356 1.88238,11.00517 2.70813,15.88376 l 0.17056,1.01296 1.02022,-0.13624 c 1.43311,-0.1872 2.85998,-0.37336 4.27021,-0.55744 8.2024,-1.06495 15.95136,-2.0727 20.60012,-3.44445 1.61198,-0.47839 2.88492,-1.09823 3.81052,-1.64734 0.0405,1.72222 0.20175,4.44179 0.72591,7.79992 0.48359,3.11685 1.07535,5.48386 1.53399,7.03033 -0.29641,-0.0769 -0.6188,-0.1508 -0.96408,-0.21736 -0.22047,-0.0437 -0.45551,-0.0822 -0.702,-0.1196 -0.73318,-0.10608 -1.48302,-0.15911 -2.22661,-0.15911 l -0.22256,0.004 c -4.65083,0.0582 -11.99316,1.40399 -19.76604,2.83085 -1.67854,0.3068 -3.38309,0.62087 -5.10115,0.92766 l -1.01191,0.18097 0.14559,1.01815 c 0.62816,4.38043 1.21264,8.80039 1.77423,13.07578 1.33326,10.13679 2.59581,19.70885 4.08924,25.48806 0.6344,2.45543 1.7659,4.28996 2.76221,5.53067 -0.14351,0.002 -0.29223,0.004 -0.44511,0.006 -0.37855,0.006 -0.78727,0.0177 -1.21471,0.0344 -2.45645,0.0863 -4.80891,0.30471 -6.99497,0.64479 -2.15694,0.3328 -4.447,0.83408 -6.80778,1.48615 -0.43366,0.12168 -0.84447,0.24023 -1.2251,0.35463 -0.12272,0.0374 -0.2444,0.0738 -0.36087,0.10817 l 0,0 z"
         style="fill:#eed717"
         id="path16" />
      <path
         d="m 780.97917,78.237761 c 0,0 -0.69471,0.99007 -1.23758,2.74765 -0.0884,0.28808 -0.17369,0.59591 -0.2496,0.92247 -0.2236,0.95055 -0.38064,2.06543 -0.38272,3.32069 0,0.28807 0.008,0.58449 0.0249,0.88815 0.13833,2.45543 0.59176,6.12554 1.06807,9.48887 7.12082,-1.34367 14.06379,-2.98892 18.00742,-4.30452 2.6811,-0.89542 4.0726,-2.25366 4.0726,-2.25366 0,0 0,0.0125 0,0.0385 0,0.002 0,0.004 0,0.006 0,0.002 0,0.004 0,0.005 0,0.47008 0.0281,4.1922 0.87151,9.63239 0.90064,5.783379 2.0259,8.962629 2.0259,8.962629 0,0 -1.09199,-0.61256 -2.87036,-0.91936 -0.18513,-0.0322 -0.37647,-0.0613 -0.57615,-0.0853 -0.35984,-0.0447 -0.74257,-0.0738 -1.14608,-0.0842 -0.3016,-0.006 -0.61775,-0.0104 -0.94847,-0.0104 -4.21404,0 -10.75974,0.57511 -17.41358,1.39567 0.7571,4.38564 1.88236,11.00829 2.70604,15.88792 9.79463,-1.29894 19.35838,-2.39093 24.70808,-3.97068 3.41636,-1.00879 5.1833,-2.69565 5.1833,-2.69565 0,0 -0.0177,0.35152 -0.0177,1.00151 -8.9e-4,1.51007 0.0926,4.63212 0.72591,8.70679 0.89855,5.78338 2.18917,8.93871 2.18917,8.93871 0,0 -1.07535,-0.57095 -2.8714,-0.91623 -0.20801,-0.0405 -0.42536,-0.078 -0.65208,-0.11128 -0.62607,-0.0905 -1.32287,-0.14872 -2.07582,-0.14872 -0.0614,0 -0.12376,8.8e-4 -0.18512,8.8e-4 -5.56603,0.0717 -14.96961,1.9999 -24.71744,3.74396 2.14551,14.93425 3.74709,30.35626 5.83955,38.44945 1.20118,4.64044 4.31803,6.8941 4.31803,6.8941 0,0 -0.71863,-0.0353 -1.91982,-0.0353 -0.33071,0 -0.69678,0.004 -1.09302,0.0104 -0.37128,0.006 -0.76959,0.0156 -1.19079,0.0312 -1.92814,0.0686 -4.34507,0.24127 -6.87225,0.63334 -2.49183,0.3848 -4.83075,0.94641 -6.6861,1.46223 -0.42743,0.1196 -0.82991,0.23504 -1.20326,0.34736 -1.76591,0.52728 -2.86414,0.93599 -2.86414,0.93599 0,0 2.20582,-2.92237 2.2131,-7.25289 0,-0.21424 -0.005,-0.43056 -0.0166,-0.64999 -0.41183,-8.32615 -3.30404,-23.50897 -5.80938,-38.43594 -11.41389,1.54647 -21.76179,2.6239 -27.2259,4.29204 -0.7935,0.24232 -1.49653,0.52831 -2.11013,0.82367 -0.20799,0.0998 -0.40352,0.20072 -0.59072,0.3016 -1.62446,0.87983 -2.45645,1.74614 -2.45645,1.74614 0,0 0.0405,-0.48463 0.0405,-1.40295 0,-0.43887 -0.009,-0.97759 -0.0364,-1.61093 -0.0104,-0.24024 -0.0229,-0.49296 -0.0385,-0.7592 -0.0842,-1.43623 -0.25583,-3.25414 -0.59071,-5.40587 -0.36919,-2.37742 -0.81743,-4.39499 -1.21679,-5.9477 -0.0572,-0.22256 -0.11336,-0.43576 -0.16847,-0.63959 -0.49817,-1.84287 -0.88608,-2.87973 -0.88608,-2.87973 0,0 1.99158,1.00359 5.36635,1.00359 0.12896,0 0.26,-8.8e-4 0.39207,-0.004 5.83955,-0.13207 16.26752,-2.20269 27.2779,-4.12355 -0.70616,-4.96179 -1.63799,-11.60525 -2.23598,-15.97008 -8.26689,1.49134 -15.88064,3.18965 -19.921,4.5926 -0.38167,0.13207 -0.73631,0.27662 -1.06496,0.42743 -0.18408,0.0832 -0.35775,0.16744 -0.52415,0.25479 -1.62134,0.83823 -2.45645,1.74512 -2.45645,1.74512 0,0 0.005,-0.13209 0.005,-0.39104 0,-0.47112 -0.0156,-1.35928 -0.0978,-2.62078 -0.0156,-0.22256 -0.0322,-0.4576 -0.0509,-0.70407 -0.11232,-1.43727 -0.3068,-3.26557 -0.64375,-5.43707 -0.37439,-2.4003 -0.79976,-4.43868 -1.16998,-6.00386 -0.0478,-0.20176 -0.0947,-0.39519 -0.14041,-0.58135 -0.45655,-1.857429 -0.79871,-2.905729 -0.79871,-2.905729 0,0 1.6983,0.87982 4.56451,0.91415 0.15912,0.002 0.32448,0.004 0.49295,0.004 4.46676,0 12.14605,-0.65104 20.00213,-1.6515 -0.56992,-3.38726 -1.37903,-7.01787 -2.00926,-9.39008 -0.40975,-1.53502 -1.04311,-2.80796 -1.70766,-3.82507 -0.21737,-0.33177 -0.43784,-0.63648 -0.65415,-0.91312 -1.11279,-1.42686 -2.13199,-2.13093 -2.13199,-2.13093 0,0 0.71969,0.0364 1.92087,0.0364 2.04877,0 5.49635,-0.10503 9.16023,-0.67287 5.80834,-0.90063 10.75036,-2.74766 10.75036,-2.74766 m -3.60252,3.36749 c -1.89902,0.52416 -4.27331,1.08991 -6.82129,1.4851 -2.41797,0.3744 -4.73923,0.55641 -6.69233,0.63856 0.82159,1.30831 1.4383,2.72269 1.83662,4.213 0.72591,2.73413 1.5319,6.49578 2.0519,9.58559 l 0.36815,2.18605 -2.19957,0.27976 c -8.20136,1.045189 -15.77873,1.669189 -20.27149,1.669189 -0.17783,0 -0.35255,-8.8e-4 -0.52102,-0.004 -0.54807,-0.007 -1.05975,-0.0406 -1.53503,-0.0915 l 0.009,0.0385 c 0.46904,1.98534 0.87255,4.06011 1.20223,6.1713 0.3016,1.94581 0.5252,3.8282 0.66247,5.59721 0.0416,-0.0187 0.0822,-0.0374 0.12377,-0.0561 0.39726,-0.18201 0.81846,-0.35152 1.24486,-0.4992 3.9062,-1.35615 11.28388,-3.06069 20.24133,-4.67579 l 2.18605,-0.39416 0.30159,2.20165 c 0.54912,4.00917 1.46847,10.57151 2.23495,15.95761 l 0.29118,2.04358 -2.03421,0.35464 c -2.03318,0.35567 -4.04764,0.7155 -6.01635,1.06702 -8.93765,1.59743 -16.65542,2.97646 -21.57978,3.08774 -0.1456,0.004 -0.29328,0.005 -0.43991,0.005 -0.82055,0 -1.57143,-0.053 -2.24743,-0.13624 0.50752,1.96974 0.9308,4.03724 1.25736,6.14322 0.29952,1.92502 0.50439,3.79492 0.60943,5.55458 0.0125,-0.005 0.0249,-0.0114 0.0374,-0.0177 0.76751,-0.3692 1.5787,-0.68639 2.40861,-0.9391 4.46989,-1.36552 11.87669,-2.32334 20.45453,-3.43302 2.29525,-0.2964 4.67683,-0.60423 7.10729,-0.93391 l 2.04461,-0.27662 0.34112,2.03525 c 0.52415,3.121 1.06495,6.25346 1.59639,9.33182 2.01029,11.64164 3.90828,22.63851 4.24108,29.35164 0.0125,0.24959 0.0187,0.50439 0.0187,0.75503 -0.004,1.41439 -0.208,2.70188 -0.50232,3.823 2.26926,-0.61776 4.4834,-1.09615 6.58626,-1.42063 2.14653,-0.3328 4.43868,-0.54911 6.8161,-0.64583 -0.70096,-1.15232 -1.35824,-2.56774 -1.79399,-4.24941 -1.50902,-5.83537 -2.77158,-15.4272 -4.10795,-25.58165 -0.56473,-4.28269 -1.14711,-8.712 -1.77736,-13.09868 l -0.29327,-2.03733 2.0259,-0.36192 c 1.72222,-0.30783 3.43404,-0.62191 5.11467,-0.92974 7.81136,-1.43312 15.19009,-2.78615 19.95012,-2.8475 l 0.2132,-8.8e-4 c 0.8008,0 1.60158,0.0582 2.38157,0.17159 0.0104,8.8e-4 0.0197,0.004 0.0292,0.004 -0.36815,-1.45079 -0.76438,-3.2874 -1.1055,-5.48074 -0.38168,-2.45749 -0.57304,-4.58324 -0.66664,-6.23994 -0.72799,0.33592 -1.56622,0.66247 -2.51677,0.94223 -4.733,1.39775 -12.53084,2.41173 -20.78731,3.48397 -1.40191,0.18199 -2.82045,0.36607 -4.2442,0.55535 l -2.03734,0.27039 -0.34319,-2.02693 c -0.82368,-4.87756 -1.94791,-11.4971 -2.70399,-15.88064 l -0.38063,-2.2027 2.2183,-0.27351 c 7.37873,-0.91001 13.6561,-1.41127 17.67463,-1.41127 0.34527,0 0.67807,0.004 0.99214,0.0104 0.46592,0.0125 0.91936,0.0458 1.3624,0.0999 0.0405,0.005 0.0811,0.0104 0.12271,0.0156 -0.34112,-1.45495 -0.72071,-3.3082 -1.06703,-5.530659 -0.38479,-2.4835 -0.60423,-4.63211 -0.73007,-6.29402 -0.4368,0.19551 -0.91518,0.38376 -1.43415,0.55639 -3.94884,1.31767 -10.95628,2.99518 -18.28821,4.37732 l -2.19022,0.41391 -0.31305,-2.20789 c -0.40974,-2.89117 -0.92974,-6.91593 -1.0847,-9.66774 -0.0197,-0.3432 -0.0292,-0.68016 -0.0292,-1.00776 0.002,-1.23031 0.13521,-2.44709 0.39728,-3.62333 l 0,0 z"
         id="path18" />
    </g>
    <path
       id="path14-3"
       d="m 355.18167,184.35893 c 0,0 -2.19073,10.73992 -3.22656,15.46875 -0.24959,-0.63231 -1.96848,-3.26601 -4.55078,-3.25977 -4.40538,0.0104 -4.91204,2.40102 -4.94531,2.55078 -0.3224,-0.21632 -1.15352,-1.89799 -4.70508,-0.8164 -3.26765,0.99527 -3.28125,2.36914 -3.28125,2.36914 0,0 -1.66669,-1.27718 -4.68164,1.00976 -2.09245,1.58703 -2.20899,2.77344 -2.20899,2.77344 0,0 -2.16058,-0.4812 -4.60351,1.16406 -0.97967,0.6604 -2.24229,2.08389 -2.54492,3.79883 l -9.84571,-0.0488 c -0.14767,-0.22672 -0.95492,-1.4898 -1.11719,-1.70508 -2.17255,-2.88597 -5.52966,-4.74804 -9.30273,-4.74804 -6.54675,0 -11.87305,5.57602 -11.87305,12.43164 0,6.85353 5.3263,12.43164 11.87305,12.43164 3.86044,0 7.28866,-1.94702 9.45703,-4.94531 0.16329,-0.22568 0.67744,-1.09495 0.82617,-1.33203 l 8.38086,-0.0273 c 0.005,1.66502 0.0941,4.37423 2.0586,6.24414 -3.05965,4.08715 -10.0179,14.75472 -16.75391,25.83789 0.5824,0.52103 1.34738,1.08875 2.23242,1.53906 -1.38423,2.16111 -5.2207,10.45336 -5.2207,20.28126 l -1.73047,6.58593 -0.85156,3.47071 c 6.58541,3.95835 13.2076,8.77887 19.38672,14.78906 l 13.47656,11.01172 c 3.70652,2.58333 10.9958,5.37151 13.96289,6.4375 2.66653,14.81153 5.60734,32.04535 10.15625,46.04882 0.0697,0.19968 0.14699,0.41518 0.21875,0.6211 -1.47783,0.18408 -3.44093,0.48964 -5.32227,0.93164 l -3.14062,0.92773 c -1.09613,0.43055 -1.64499,0.8579 -2.18164,1.47461 -0.81326,0.93495 -1.34125,2.83912 -0.91797,4.4043 0.27975,1.03375 0.85156,1.50391 0.85156,1.50391 0,0 -2.48726,0.91752 -2.5039,3.79101 -0.0104,1.86367 0.64835,2.9162 2.12304,3.76172 -0.72903,0.41495 -1.34842,1.74496 -1.25586,2.82031 0.0624,0.77999 0.3322,1.58456 0.76172,2.10352 l 1.50782,1.6582 c 0.6484,-0.031 1.29673,-0.0564 1.94531,-0.0898 0.0509,0.0219 0.0788,0.0329 0.0976,0.0391 -0.0275,0.007 -1.44423,0.3195 -1.73828,0.38672 l 1.25196,1.37695 c -0.0374,0.23712 -0.054,0.48088 -0.0332,0.73047 0.13208,1.62135 1.01206,2.91946 2.27149,3.75977 0.0509,0.0344 0.11168,0.0636 0.16992,0.0937 -0.0115,0.0322 -0.027,0.0645 -0.0352,0.0957 -0.71031,2.17358 -2.13676,5.43535 -4.58594,8.94531 -0.17264,0.24752 -0.35731,0.49181 -0.53515,0.73828 l -1.26953,1.7168 c -2.62181,3.44028 -5.56042,6.81983 -7.98047,10.1582 -1.30622,1.80022 -3.36342,4.8085 -4.81836,8.14063 l -0.91602,2.42969 c -0.7072,2.24221 -1.02475,4.53398 -0.55468,6.63476 -0.76544,0.99006 -1.89272,2.7119 -3.02735,4.52149 l -1.6914,2.74218 c -1.38318,2.27758 -2.47852,4.15039 -2.47852,4.15039 -2.70813,5.28523 -4.70401,11.6774 -6.62695,18.72852 -3.39556,0.41288 -10.78338,2.29547 -14.60742,6.59375 -1.59119,6.53218 0.60271,12.93399 1.48046,15.3457 l -23.36718,31.55078 -2.47266,3.28711 -3.43945,4.64454 c -0.41808,-0.0582 -0.8408,-0.0996 -1.27344,-0.0996 -4.93579,0 -8.9375,3.99727 -8.9375,8.92578 0,0.62711 0.0824,1.23259 0.20508,1.82226 -1.96973,0.26831 -5.29657,1.01528 -9.22461,2.17383 -2.93485,0.86527 -7.99432,3.34987 -12.08985,6.17969 -4.64771,3.46836 -8.82018,8.32802 -11.16015,15.13476 -0.3848,1.12006 -0.62064,2.10485 -0.90039,3.33203 0.80494,-0.16119 1.62116,-0.33254 2.54883,-0.56445 6.79217,-1.70038 15.68657,-2.41358 20.07421,-2.67773 -0.29536,0.75191 -0.52016,1.42073 -0.66992,1.91992 0.87151,0.17992 19.05878,4.28328 22.88282,5.30664 0.16016,-0.83407 0.45027,-2.17196 0.78515,-4.25195 3.45485,1.32392 11.09726,4.07997 19.97461,5.05859 0.31616,-2.64781 -0.34624,-12.969 -0.11328,-18.37695 l 2.53711,-0.94727 c 3.20421,26.47294 19.7104,107.85294 74.28906,115.48438 -1.64215,-17.0371 -20.18103,-34.53132 -30.45508,-80.91797 -0.026,-0.05 2.26758,0.0645 2.26758,0.0645 0,0 11.08127,77.48299 63.26172,84.8711 2.05397,-9.64592 -23.51453,-51.70174 -30.49805,-85.15821 1.31038,-0.0249 2.90235,0.0488 2.90235,0.0488 0,0 11.41,49.54662 32.46875,77.97266 22.65929,-27.8478 5.30337,-70.66974 -5.77149,-99.94336 l -1.77734,-4.06446 c 0,0 -1.03464,-1.44585 -1.84375,-3.15039 l -0.11133,-2.76367 -0.14258,-2.18945 c -0.12375,-1.58183 -0.24573,-2.59585 -0.26757,-2.76953 l -6.42774,-51.51563 c 0.25895,-3.87917 0.70718,-8.14648 1.28125,-12.42187 l 0.33984,-2.42188 c 0.41601,-2.86621 0.87984,-5.69338 1.37696,-8.36719 l 0.45312,-2.35156 c 0.54495,-2.72685 1.11824,-5.21973 1.69336,-7.36523 6.92945,-6.32938 11.31744,-15.52573 12.51758,-20.41992 l 2.31641,-6.5 0.0371,0.002 c 0.36129,-2.22033 0.69561,-4.478 0.85546,-6.02539 2.27862,1.02751 5.07089,2.33098 7.84766,3.45312 59.05062,-43.70971 41.73418,-86.65963 35.07617,-146.49023 -2.42006,0.49503 -24.15254,4.22133 -35.10156,6.06836 -4.84219,-12.1138 17.65003,-35.8751 -3.97656,-60.88477 -26.47813,0.1612 -35.97014,4.65336 -43.1211,23.13086 -0.38168,0.98799 -1.08722,3.42148 -1.5625,5.0293 -0.57719,1.9531 0.9313,3.01769 3.4668,3.49609 -1.50174,2.25989 -4.22771,6.392 -5.58594,8.77149 -1.03062,1.81375 -2.22405,4.16325 1.19336,4.625 -0.42535,1.22513 -1.41453,4.34455 -1.39062,4.92382 0.0135,0.37857 0.0707,0.46093 1.85937,0.44532 0.24232,0.16433 0.31169,0.88618 0.37305,1.93554 0.077,1.27294 -0.36966,3.11868 -0.45703,3.71875 -0.0873,0.56473 -0.14885,1.80485 0.0976,2.29883 -7.35481,0.71345 -12.31445,2.77735 -12.31445,2.77735 0,0 -10.38184,-7.85374 -27.78711,-14.12696 -1.14814,-3.02845 -3.02929,-5.41992 -3.0293,-5.41992 0,0 2.39963,-6.4862 3.29297,-12.06055 0.97968,-0.16952 2.39158,-0.35749 3.46485,-0.56445 -1.87717,-14.13242 4.60622,-24.14491 7.65234,-28.17383 0.85592,-0.52519 3.72747,-2.70404 4.60938,-4.00195 l 3.84375,20.15234 10.05078,0.0488 -0.0176,-18.98633 c 17.4947,-0.60007 150.94184,-4.35234 152.66406,-4.67578 3.87292,-0.72591 21.96289,-7.69336 21.96289,-7.69336 0,0 -17.53039,-7.15276 -22.25195,-7.81836 -3.15949,-0.44511 -136.7575,-3.0991 -152.39063,-3.50781 l -0.0176,-19.46875 -9.40235,-0.11523 z m 2.60352,3.2207 3.60351,0.0527 0.0274,55.77344 -4.19532,-0.0273 -3.90429,-20.6836 c 7.0241,-8.27 4.31011,-10.26436 -0.23047,-12.0625 0.0645,-0.79351 0.38731,-2.42041 0.42578,-3.13281 l 4.27344,-19.91992 z m -10.93555,11.74805 c 0.52169,0.003 1.02629,0.074 1.33985,0.20507 2.10806,0.88295 2.27427,7.49078 2.14843,10.01172 -1.94478,-1.17415 -4.97316,-4.00375 -5.60547,-4.07031 -0.33904,-1.82726 -1.58153,-5.11045 0.66797,-5.94141 0.38792,-0.143 0.92754,-0.20806 1.44922,-0.20507 z m -7.80859,1.27343 c 1.1982,-0.0276 2.41691,0.47144 2.73047,1.57813 0.60215,1.49759 1.10035,3.55616 1.23242,4.39648 -1.17102,1.5059 -1.53897,5.0734 1.10156,8.19336 1.20326,1.77111 -0.0784,2.22768 -1.4043,2.27344 -0.81847,0.0281 -1.92827,-0.91126 -2.91211,-2.39844 -2.13509,-3.22813 -4.28287,-8.50091 -3.35937,-12.45703 0.234,-1.00307 1.41313,-1.55828 2.61133,-1.58594 z m -5.89453,2.36524 c 0.4597,0.005 0.85258,0.14025 1.08398,0.39062 1.30936,9.54607 3.53421,11.44443 4.87891,13.23633 1.49032,1.49966 -2.77304,2.18501 -4.46094,0.96094 -2.29838,-1.66918 -4.85742,-7.27071 -4.85742,-10.58203 0,-2.8462 1.97634,-4.01941 3.35547,-4.00586 z m -32.97852,3.33203 c 4.65395,0 8.42779,4.05259 8.42773,9.05078 0,4.99715 -3.77378,9.04688 -8.42773,9.04688 -4.65812,0 -8.43164,-4.04973 -8.43164,-9.04688 0,-4.99819 3.77352,-9.05078 8.43164,-9.05078 z m 26.63672,0.62305 c 0.29913,0.0119 0.58165,0.0726 0.83008,0.18554 1.71703,7.86025 5.05859,10.9336 5.05859,10.9336 0,0 2.2719,1.95766 -1.35351,2.34765 -1.14814,0.12376 -4.54165,-0.82605 -7.58985,-7.13671 -1.96649,-4.07039 0.96075,-6.41349 3.05469,-6.33008 z m 36.54687,0.17773 c 0,0 150.20278,2.99377 153.21875,3.49609 3.51307,0.58551 15.62891,4.57032 15.62891,4.57032 0,0 -12.28229,4.22074 -15.27539,4.57226 -2.84749,0.33384 -153.57227,4.72852 -153.57227,4.72852 l 0,-17.36719 z m -18.09765,0.65039 c 1.16479,0.0104 2.33915,2.90094 8.77148,5.58203 1.92398,0.80079 1.45575,3.63734 -2.81445,8.70313 -0.81639,0.96719 -3.9811,6.96921 -10.50391,6.76953 -9.56063,-0.29328 -6.43601,-6.94088 -3.97851,-8.23047 5.35074,-2.81005 7.39462,-0.69479 8.24218,-0.0781 0.56784,0.37231 1.10474,0.51612 1.54883,0.66796 1.1315,0.38584 2.14702,0.18721 1.01758,-0.40039 -1.25838,-0.65831 -1.53736,-1.78997 0.16406,-2.27148 1.00047,-0.28184 1.90666,-0.57335 2.39649,-0.84375 0.63127,-0.35047 1.07883,-0.99303 0.63476,-1.34766 -0.44408,-0.35464 -2.32374,0.14069 -2.9082,-0.30859 -6.10058,-4.68307 -4.02942,-8.25675 -2.57031,-8.24219 z m -34.51563,4.83789 0.61524,0.002 9.91797,0.041 c 0.29225,1.3603 1.87853,4.09226 2.86132,5.58984 l -13.4707,0.0664 c 0.17161,-0.81431 0.40228,-2.06703 0.40235,-2.9375 0,-0.95367 -0.12026,-1.87461 -0.32618,-2.76172 z m 16.8418,8.85938 c 1.2719,0.68847 2.7774,1.07162 3.78516,1.32226 -0.62087,3.81572 1.86832,8.10667 9.59961,8.03907 0.30263,-0.003 1.04498,-0.005 1.33203,-0.0254 -2.25158,2.89534 -7.8873,12.33251 -7.18946,24.97461 -2.62182,0.25585 -5.32121,0.39063 -7.98046,0.39063 -2.56669,0 -5.08687,-0.1131 -7.44141,-0.32422 -3.9686,-0.33072 -9.47548,-2.139 -11.30274,-3.14258 11.00621,-18.10206 15.92774,-24.18945 15.92774,-24.18945 0,0 2.04655,-0.1755 3.38086,-0.32422 3.37165,-0.37751 -1.87621,-0.53007 -3.02539,-1.09375 -1.51007,-0.74255 -2.98394,-2.38345 -2.70313,-5.60742 l 5.61719,-0.0195 z m 90.93359,11.25 c 18.53677,23.19593 -2.01357,44.98563 2.16407,58.20703 -3.42781,0.59591 -7.25132,1.24344 -10.81641,1.86328 -1.6775,-0.34008 -3.5032,-1.09757 -4.84375,-1.77148 -4.837,-2.43566 -8.17134,-5.8731 -8.56445,-6.84961 -0.93911,-8.74007 12.62225,-26.31059 -10.80664,-25.44532 -6.98666,0.25793 -7.39132,-0.27308 -6.85157,-2.15234 5.5421,-17.76511 13.76789,-23.9306 39.71875,-23.85156 z m -108.92382,22.83789 c 2.71228,1.04207 6.58035,2.09504 9.90625,2.41015 2.42317,0.21736 5.00279,0.33204 7.63086,0.33204 1.57871,0 3.17275,-0.0464 4.75976,-0.13282 l -0.0371,0.19336 c -0.58449,4.61339 -2.74686,10.66348 -3.55078,12.80274 -7.0688,3.9894 -12.96925,4.99792 -17.15625,5 -2.22558,0 -3.96831,-0.28378 -5.14453,-0.5625 -0.58968,-0.1404 -1.03498,-0.27907 -1.32617,-0.37891 -0.0749,-0.026 -0.13745,-0.0477 -0.18946,-0.0664 0.10088,-10.06398 2.46555,-14.07822 4.75977,-18.91211 l 0.34766,-0.68554 z m 77.73242,5.36328 c 12.33911,0.19427 10.95571,4.85288 8.92773,12.93359 -1.09822,4.37627 -3.01809,9.26689 -1.23242,12.08008 -5.60866,2.22869 -10.38016,3.38638 -13.57812,3.66406 -3.94365,0.3432 -6.08666,-1.93343 -4.0254,-6.11523 0.51687,-1.04934 -0.022,-1.8565 -0.23828,-2.57617 -0.25375,-0.84552 0.068,-0.9664 0.42578,-0.95703 3.04405,0.0821 4.05975,0.37802 6.95508,2.00976 1.3208,0.74567 2.17757,0.67671 2.72461,0.19727 0.26624,-0.23295 0.38999,-1.28517 -0.32031,-2.50196 -0.94848,-1.62551 -2.23587,-3.28543 -4.13281,-5.55468 -0.70511,-0.84343 -1.58594,-1.16036 -1.98633,-1.20508 -0.55847,-0.0613 -4.22602,0.0378 -5.09961,-0.18164 -0.70304,-0.17576 -0.81162,-1.23368 -0.10547,-2.49414 1.55478,-2.77054 4.09371,-6.75063 5.43945,-8.83789 0.12895,-0.007 0.24735,-0.014 0.3711,-0.0234 0.27353,0.208 0.65384,0.44882 1.17383,0.67969 -0.35567,0.90687 -0.5403,2.69588 0.71289,3.29492 1.27085,0.60631 2.50048,-0.002 3.27734,-0.80664 1.32495,0.2028 2.59976,0.50104 2.5332,0.25976 -0.0915,-0.33799 -1.94749,-2.16423 -2.90429,-2.7539 -0.48879,-0.30159 -1.26027,-0.88172 -1.57227,-1.0918 0.94847,-0.027 1.83169,-0.0325 2.6543,-0.0195 z m -2.15625,1.91602 c 0.37439,0 0.67383,0.37405 0.67383,0.83789 0,0.46487 -0.29944,0.84179 -0.67383,0.84179 -0.37336,0 -0.67578,-0.37692 -0.67578,-0.84179 0,-0.46384 0.30242,-0.83792 0.67578,-0.83789 z m -56.02149,10.29492 c 1.24799,1.52983 2.16635,3.53014 2.68946,4.86132 -1.60575,1.19599 -4.22978,3.2517 -6.86719,5.75391 -3.52349,3.38726 -7.16197,7.49393 -8.28516,11.72461 -4.53955,-4.01435 -8.90679,-7.17974 -14.18164,-11.13476 -0.12375,-1.09096 0.80545,-4.78866 1.4336,-7.11719 1.03271,0.36088 3.53781,1.07422 7.20898,1.07422 l 0.0254,0 c 4.48754,0 10.69559,-1.09366 17.97656,-5.16211 z m 48.3125,1.60742 c 1.22873,-0.0307 3.51134,0.0861 4.00196,0.13281 0.36504,0.0291 0.70797,0.40655 1.04492,0.75391 1.52567,1.58286 3.02654,3.51244 3.58398,4.68554 0.44304,0.93078 0.0212,1.05914 -0.53515,0.82618 -0.96094,-0.40248 -3.28339,-1.88198 -4.5293,-2.24805 -0.50647,-0.14663 -2.1375,-0.30747 -3.74219,-0.3418 -1.60679,-0.0343 -1.79108,-0.11818 -1.50195,-1.54297 0.37439,-1.82934 0.6235,-1.97181 0.9043,-2.17773 0.0702,-0.0515 0.36386,-0.0777 0.77343,-0.0879 z m -44.27148,4.90625 c 10.47269,2.81942 22.51018,10.10057 27.66015,13.60742 -1.42063,2.09557 -3.63729,5.70129 -4.23632,8.75781 -7.89248,1.35199 -13.62334,2.33539 -13.97071,2.39258 0.54496,2.6291 1.31767,6.35218 1.9375,9.40039 -3.37477,-1.52879 -9.84498,-3.52072 -16.58203,-7.96875 -1.24486,-0.84656 -6.59731,-6.29979 -9.45312,-8.99023 0.57407,-3.59421 4.1559,-8.05942 7.89258,-11.55274 2.04046,-1.93646 4.09168,-3.61117 5.63086,-4.79883 0.41703,-0.32236 0.79142,-0.60325 1.12109,-0.84765 z m 63.38086,7.93555 c 2.76221,2.76221 7.1722,5.30859 8.99219,6.02929 -3.03574,0.52727 -13.63013,2.34685 -25.28321,4.34571 -1.07952,-1.49759 -3.33563,-4.48235 -5.88672,-6.9336 0.91206,-0.0905 1.79216,-0.14885 2.57422,-0.1582 1.25423,0.67702 3.0586,1.04756 5.39649,0.74805 4.72364,-0.60425 11.85249,-2.91638 14.20703,-4.03125 z m 59.71875,0.70312 c 2.12573,17.81918 5.13892,34.14762 6.49609,49.46875 2.9099,32.872 -1.80756,61.11234 -39.27734,89.51758 -45.77932,-19.26893 -60.35662,-45.49478 -67.92774,-74.72266 -3.78348,-14.60873 -5.81614,-29.96568 -9.11914,-45.58008 2.65092,-0.45032 30.19749,-5.20175 57.0625,-9.75586 25.63991,-4.34508 50.65653,-8.51278 52.76563,-8.92773 z m -84.66797,3.10742 c 1.63279,1.35823 3.32393,3.21647 4.67383,4.8711 0.63024,0.77064 1.18524,1.49042 1.63867,2.0957 -3.97797,0.68119 -8.02473,1.37659 -11.89453,2.03906 0.3224,-0.98382 0.82597,-2.32935 1.4375,-3.6543 0.7987,-1.79397 1.78835,-3.68183 2.71289,-5.08789 0.46592,-0.0947 0.94597,-0.18359 1.43164,-0.26367 z m -4.36914,1.01758 c -0.61257,1.11279 -1.19563,2.30317 -1.71875,3.46484 -0.86215,1.97286 -1.53746,3.67168 -1.83594,4.92383 -1.65463,0.28391 -3.26408,0.55902 -4.81055,0.82422 0.46072,-1.55583 1.41966,-3.46611 2.38477,-5.0625 0.62296,-1.04519 1.23343,-1.96581 1.69727,-2.63867 1.01711,-0.41496 2.68577,-1.02085 4.2832,-1.51172 z m -10.875,73.64453 c 0.88815,2.44191 1.96627,5.20212 3.25586,8.13281 -0.24335,3.70132 -0.16742,7.43244 0.57617,11.07032 0.46072,2.25574 1.17828,4.45607 2.16211,6.53711 0.12064,0.25582 0.30976,0.74095 0.54687,1.27343 -0.70719,-0.0593 -1.41036,-0.13296 -2.11132,-0.22656 -0.94118,-0.12585 -1.62966,-0.13141 -2.25782,-0.875 -0.49296,-0.5824 -0.92519,-1.21488 -1.28711,-1.88672 -0.70719,-1.31038 -1.14448,-2.74543 -1.44921,-4.19726 -0.79455,-3.77724 -0.87313,-7.68069 -0.67969,-11.52344 0.13207,-2.6239 0.21246,-5.77438 1.24414,-8.30469 z m -2.60938,0.90625 c -0.19031,0.95158 -0.2613,2.07253 -0.33203,2.56445 -0.12168,0.85695 -0.21899,1.71872 -0.29492,2.58399 -1.3811,0.0572 -4.18049,0.31765 -4.67969,0.36133 -1.0868,0.0957 -2.04736,-0.35946 -2.26367,-1.20703 -0.18617,-0.73112 0.17329,-1.79707 0.48633,-2.24219 0.31407,-0.44511 1.18215,-0.88933 3.03125,-1.29492 1.67646,-0.36713 2.84947,-0.59404 4.05273,-0.76563 z m -0.76757,7.2793 c -0.0853,1.74302 -0.094,3.48978 -0.041,5.22656 -1.60781,0.0978 -4.24386,0.38033 -6.16992,0.45313 -0.87671,0.0561 -2.12855,-0.59228 -2.15039,-2.42579 -0.0229,-1.94478 2.04924,-2.69842 2.47461,-2.77539 0.82887,-0.14871 4.02721,-0.41091 5.88672,-0.47851 z m 8.57226,4.12695 c 2.46998,5.04915 5.55078,10.33616 9.3457,15.15235 -0.34112,0.0177 -0.68231,0.0418 -1.02343,0.0449 -1.08055,0.0125 -2.16085,-0.008 -3.23828,-0.0899 -1.13671,-0.0863 -1.23953,-0.43738 -1.76368,-1.41601 -0.77064,-1.43414 -1.40677,-2.93948 -1.89453,-4.49219 -0.86527,-2.74973 -1.3145,-6.13853 -1.42578,-9.19922 z m -8.5039,3.25586 c 0.10712,1.47679 0.29605,2.95351 0.59765,4.4043 -0.89127,0.0655 -2.03492,0.22658 -2.93555,0.24219 -0.98175,0.0167 -2.80109,0.10793 -3.56445,-0.14063 -0.46694,-0.15183 -1.60937,-0.651 -1.60937,-2.08203 0,-1.0452 0.7011,-1.84743 1.79101,-2.02734 2.12366,-0.22048 4.62976,-0.35802 5.72071,-0.39649 z m 1.08789,6.33594 c 0.0624,0.21008 0.10519,0.42585 0.17382,0.63281 0.4316,1.31767 1.02132,2.58453 1.8086,3.72852 0.0249,0.0364 0.0531,0.0816 0.0801,0.12109 -0.92768,0.009 -1.54257,-0.0156 -2.34961,-0.0156 -2.07998,0 -2.71472,-0.046 -3.19727,-0.25196 -0.71655,-0.30679 -1.1349,-0.96312 -1.21289,-1.91992 -0.0468,-0.56887 0.31027,-1.16657 0.7793,-1.50977 0.39727,-0.29014 2.65128,-0.67283 3.91797,-0.78515 z m -2.43946,6.5039 c 0.49296,0.0323 1.05054,0.0469 1.69531,0.0469 1.28231,0 2.82654,0.0105 4.74219,-0.006 0.0478,0.0177 0.0927,0.0432 0.14063,0.0547 1.44663,0.33592 2.92644,0.37989 4.38867,0.50781 -0.1612,1.26982 -0.66555,2.84448 -1.02539,3.69727 l -3.07617,3.51757 -1.70117,0.21289 -3.35547,0.41993 0.60937,3.32617 0.17188,0.93164 -1.00391,1.14844 c -6.19835,6.67049 -15.19586,13.7503 -22.4082,22.16797 -0.31199,-3.37061 3.13903,-9.54326 6.35156,-13.92579 3.66283,-4.9961 7.74409,-9.26865 10.86719,-14.375 l 0,-0.002 c 1.46326,-2.39302 2.76162,-4.90316 3.5957,-7.67578 0.004,-0.0167 0.005,-0.0302 0.008,-0.0469 z m 14.18555,1.07813 c 2.20686,0.26417 4.5396,0.29264 6.74023,0.0742 0.0946,0.11025 0.18258,0.2257 0.2793,0.33594 0.90582,1.11798 1.79377,2.20243 2.77344,3.30273 l 0.81055,0.7832 -13.3125,1.66602 1.07812,-1.22656 c 0.76959,-1.45806 1.30014,-3.23307 1.63086,-4.93555 z m 13.57422,7.36523 1.44336,1.39649 1.7539,14.05078 -22.31836,4.10156 -3.07812,-16.79101 22.19922,-2.75782 z m 5.11328,4.94336 0.0469,0.043 c 5.50259,4.65292 12.76929,9.6589 20.20313,13.89063 -0.43263,1.64733 -1.29783,4.16034 -2.21094,5.72656 -1.7867,3.06588 -4.82257,6.10683 -7.92383,8.72656 1.25632,-4.15891 1.6509,-8.65138 -0.21484,-12.65429 -1.69414,-3.63476 -5.0707,-6.22338 -8.85937,-7.39649 l -1.04102,-8.33594 z m -29.57813,3.17383 5.13672,28.03125 c -9.58142,8.45615 -27.37343,29.77584 -31.08203,34.25195 -3.96445,-1.35718 -8.09955,-3.71561 -11.28711,-7.73828 6.93049,-31.45136 23.5813,-40.08327 36.13086,-53.28906 l 1.10156,-1.25586 z m 30.91407,7.52735 c 0.40873,0.16015 0.78757,0.31285 0.9082,0.37109 1.76174,0.8507 3.36885,2.04809 4.55859,3.61328 3.44965,4.54164 2.45223,11.00792 0.44922,16.00195 -1.09407,0.83823 -2.15049,1.6063 -3.10937,2.28125 l -0.0254,0.0176 -2.78125,-22.28515 z m -2.98633,1.91992 0.8457,6.77148 -21.81836,4.00977 -1.22851,-6.70117 22.20117,-4.08008 z m 24.84765,2.7539 c 1.08055,0.57719 4.9185,2.70817 5.40626,2.92969 -0.11128,2.56461 -0.82439,7.01449 -1.49415,9.94727 -2.33477,10.22725 -8.45713,21.69744 -20.14453,27.53906 l -2.41601,-19.34961 c 0.006,0.006 0.0235,0.0254 0.0234,0.0254 6.20668,-4.44285 11.24045,-8.39134 14.59961,-12.7832 1.78359,-2.33166 3.39205,-5.96134 4.02539,-8.3086 z m -23.73828,6.13672 14.47461,115.91407 c 0,0 2.35146,19.01903 -2.88281,28.81054 -8.296,-9.29127 -12.17578,-25.50781 -12.17578,-25.50781 l -21.11328,-115.23047 21.69726,-3.98633 z m -23.56445,11.53125 3.15625,17.22266 -0.875,0.60351 c -9.2008,6.39282 -18.01738,12.5029 -22.08789,16.23438 -2.04878,0.15079 -5.82164,0.0236 -9.96289,-1.13281 1.98638,-2.39198 6.42495,-7.69582 11.5625,-13.58008 6.11097,-6.99705 13.21404,-14.80186 18.20703,-19.34766 z m 3.80664,20.77344 1.375,7.50586 c -3.65245,0.13624 -7.48166,-0.005 -11.36914,-0.61328 2.44501,-1.62967 6.34594,-4.46 9.14453,-6.30078 l 0.84961,-0.5918 z m 33.20313,1.14062 c -1.5267,6.96794 -2.67435,14.2609 -3.40235,21.17579 l -2.25976,-18.10547 c 2.01447,-0.75817 3.9035,-1.81296 5.66211,-3.07032 z m -81.83789,3.24805 c 0,0 6.61686,11.03953 23.53125,10.75977 -2.64573,3.03157 -7.16444,8.73007 -8.93555,11.875 -7.56177,-8.06202 -25.30863,-4.96289 -25.30859,-4.96289 0,0 -3.00598,-7.8246 -1.59376,-12.49414 4.18595,-4.43973 12.30665,-5.17774 12.30665,-5.17774 z m 36.19335,4.29102 c 4.395,0.7904 9.77837,1.16106 14.2129,0.98633 l 14.25781,77.82226 0.0156,0.084 0.0195,0.084 c 0.1664,0.69367 4.16863,17.11055 12.9004,26.89063 l 3.04492,3.41015 2.15625,-4.03125 c 2.45749,-4.59779 3.40866,-10.85537 3.68945,-16.52539 2.13199,5.49739 9.85175,25.6768 12.875,37.28516 5.35802,19.28453 7.48969,40.71619 -3.3418,57.93945 -20.11652,-30.53201 -30.16797,-75.56055 -30.16797,-75.56055 0,0 -8.55806,-0.0411 -9.04687,-0.0703 7.11978,34.87918 27.34167,69.10914 30.73828,84.38867 -32.86264,-6.58626 -50.01841,-49.2998 -55.12891,-72.99804 -0.97448,-4.5198 -1.64968,-8.1348 -1.77343,-10.88868 0,-0.078 -7.41252,0.0742 -8.71875,0.12305 8.21594,43.37069 26.09176,64.60707 30.35156,80.04883 -47.30081,-8.51959 -64.56377,-85.86243 -67.37695,-112.79297 l 24.44922,-6.83203 c 0.35982,1.26672 2.64589,8.55122 9.23632,14.64453 2.00301,-6.85042 1.07813,-11.85352 1.07813,-11.85352 0,0 7.93367,-2.76983 13.63281,-8.8496 -7.70216,-2.69462 -16.04883,-1.82227 -16.04883,-1.82227 0,0 -2.89967,-5.82349 -7.05859,-9.90234 -2.36701,7.52538 -1.35106,15.15708 -1.19922,16.16796 l -24.57031,4.04493 c -0.11648,-0.51582 -0.16779,-1.54733 -0.21875,-2.06836 5.37778,-6.16195 13.39667,-14.70413 14.16211,-15.08789 18.14886,-5.64715 19.5648,-22.28885 18.74218,-34.0293 2.41173,-4.54891 6.47569,-9.2467 9.64454,-13.0957 1.29168,-1.56934 5.30107,-4.65279 9.44335,-7.51172 z m -39.79492,14.66211 c 3.47215,-0.0589 7.39963,0.23101 9.75196,0.97461 -2.49287,13.94002 -10.40207,24.56914 -20.15821,34.66015 -6.2233,6.43963 -12.11368,14.61105 -14.46093,23.56641 l -10.56641,1.72461 c 0.0967,-2.07063 0.10593,-3.91665 0,-5.36328 2.28174,-1.61926 3.77344,-4.27152 3.77344,-7.28125 0,-0.4056 -0.0369,-0.79751 -0.0879,-1.1875 l 26.42773,-46.63282 c 1.31702,-0.26324 3.23703,-0.4256 5.32031,-0.46093 z m 11.26953,1.53125 c 2.97333,1.22302 5.04746,2.79163 6.46289,4.46289 0.61152,11.37645 -0.85676,26.66895 -17.24804,31.07226 -1.65671,0.84135 -19.80786,20.99649 -19.91602,21.2461 l -3.70508,0.60547 c 2.35037,-8.28768 7.93224,-16.02657 13.87891,-22.17188 9.77278,-10.10246 17.89408,-20.95243 20.52734,-35.21484 z m -23.94531,5.60351 -20.51172,36.02735 c -0.12272,-0.13832 -0.98613,-1.07811 -1.11718,-1.20703 -0.76334,-0.75607 -1.6602,-1.37521 -2.65235,-1.82032 l 24.28125,-33 z m 27.46875,34.81055 c 1.23032,0.69262 4.82422,7.34375 4.82422,7.34375 0,0 8.01974,-1.30484 12.99609,0.37891 -4.31493,3.92388 -11.96679,6.27734 -11.96679,6.27734 0,0 0.74442,3.93241 0.43554,9.01172 -3.22397,-3.14908 -5.40332,-10.00021 -5.6914,-10.94141 l 5.15234,-1.44922 -0.20508,-0.74414 -5.27148,0.86133 c -0.0717,-0.38688 -1.16887,-6.34746 -0.27344,-10.73828 z m -55.38281,0.38281 c 3.28949,0 5.95508,2.66781 5.95508,5.95313 0,3.28637 -2.66559,5.95312 -5.95508,5.95312 -3.29157,0 -5.95904,-2.66675 -5.95898,-5.95312 0,-3.28532 2.66741,-5.95313 5.95898,-5.95313 z m -8.77148,11.41602 c -0.69264,0.82782 -3.0726,4.26149 -5.13282,7.91601 -0.29537,0.52209 -0.58339,1.04733 -0.86523,1.56836 -0.79352,-1.35406 -1.36051,-2.83764 -1.66211,-4.3789 -0.0437,-0.22359 -0.32978,-2.5773 -0.30274,-3.51953 0.52415,-0.16953 1.06052,-0.33359 1.60547,-0.48438 2.59686,-0.72073 5.80095,-1.04229 6.35743,-1.10156 z m 2.97851,1.33594 c 1.55997,1.32703 3.57712,2.1289 5.78711,2.1289 0.47942,0 1.26097,-0.0944 2.00977,-0.21094 0.26311,9.28191 -1.86329,19.95118 -1.86329,19.95118 0,0 -10.5006,-2.45317 -16.04687,-3.68555 2.14655,-6.76201 7.6589,-15.01579 10.11328,-18.18359 z m -13.04101,0.98046 0,0.0117 c 0.004,3.31341 1.01753,6.60711 2.92382,9.31836 -1.42687,2.77157 -2.4375,4.96875 -2.4375,4.96875 l -1.46289,0.14063 c -0.31824,-0.43263 -0.62947,-0.87234 -0.9082,-1.33203 -1.13046,-1.86469 -1.91006,-3.93302 -2.32813,-6.07227 -0.30681,-1.57455 -0.44743,-3.21573 -0.3164,-4.81836 0.009,-0.11232 0.007,-0.18851 0,-0.25195 0.13312,-0.0697 0.26727,-0.1453 0.40039,-0.21289 0.49504,-0.25272 2.07908,-0.98758 4.12891,-1.75196 z m 57.42187,1.17383 -33.78125,8.69336 c 0.0707,-0.79247 0.1363,-1.58146 0.19141,-2.35937 l 33.58984,-6.33399 z m -64.12305,2.02539 c 0,0.0551 -0.004,0.11285 -0.004,0.16797 0,3.96236 1.13987,7.90291 3.26562,11.24024 -1.66343,0.1237 -3.54287,0.28874 -5.52539,0.5039 -0.98593,-1.49966 -1.66748,-3.18761 -2.01172,-4.94726 -0.23297,-1.19183 -0.34162,-2.44636 -0.23242,-3.66211 1.43622,-1.25839 2.95614,-2.3501 4.50781,-3.30274 z m 45.67188,4.83789 c -0.12479,4.681 0.32325,11.63235 0.0996,13.84961 -4.37523,-0.35776 -12.67314,-2.79281 -16.27149,-4.55664 0.15391,-1.20847 0.46259,-3.63071 0.59571,-4.91406 l 15.57617,-4.37891 z m -52.30274,0.51953 c 0.1716,2.39199 0.86791,4.73893 2.04102,6.82618 -2.41382,0.30368 -4.90304,0.68293 -7.27734,1.1582 1.35302,-3.13245 3.16362,-5.76711 5.23632,-7.98438 z" />
    <path
       id="path4542"
       d="m 168.09863,340.81389 -0.37171,0.61206 c 0.36467,0.0994 0.71552,0.1839 1.08398,0.28711 -1.49911,2.92701 -6.98407,13.99749 -10.14062,26.24414 -1.57051,0.21795 -2.96355,0.71455 -4.17383,2.08007 -1.05553,1.19092 -1.659,2.54988 -1.91797,3.9375 -0.3952,1.35959 -0.4682,2.84957 -0.0586,4.39258 0.46816,1.76359 1.49151,2.83241 2.79687,3.73242 -2.67935,12.35983 -2.75156,24.71544 -2.72656,28.00391 0.56742,1.68701 -0.24491,-3.21404 2.1875,-5.28516 0.73912,-0.62935 1.94016,-0.51092 3.36523,-0.48242 l 3.43946,-0.26758 c 0.60577,-3.60339 1.08731,1.98044 0.98046,-0.21875 -0.0569,-1.17032 0.14357,-2.39086 0.38672,-3.67773 1.00946,-5.34257 1.43255,-12.0398 3.10157,-18.48633 l 0.98632,-2.0918 c 0.35134,-0.67131 0.63225,-1.30723 0.79097,-1.97593 0.15873,-0.66869 0.19981,-1.39901 0.18755,-2.15688 l 0.0605,-2.3125 c 1.40373,-6.50946 3.54595,-12.8477 5.52929,-17.91015 1.39892,-4.1967 3.84084,-8.68622 5.67605,-12.31687 l 0.72239,-1.06985 -0.002,0 c -1.08202,-0.36923 -1.49209,0.97346 -2.49936,0.9652 -2.33773,-0.0192 -5.17829,-0.91793 -7.68075,-1.6053 z m 2.79821,1.49682 c 1.73549,0.51018 3.51344,1.06237 5.32031,1.65039 -1.38365,2.80904 -6.87307,14.36639 -9.86328,27.11719 -0.64884,-0.94882 -1.36323,-1.73111 -1.89453,-2.06836 -1.14323,-0.7257 -2.35029,-1.09001 -3.54297,-1.16016 1.09413,-4.11511 2.43536,-8.11339 3.80078,-11.67187 1.58562,-4.13619 3.18084,-7.6972 4.37695,-10.22266 0.86155,-1.81843 1.50562,-3.07557 1.80274,-3.64453 z m -11.10352,27.65235 c 2.87417,-0.13993 4.8927,1.97271 5.55274,4.44726 0.23026,0.86331 0.27234,1.76596 0.15039,2.63672 -0.28214,0.83204 -0.7254,1.61773 -1.31836,2.28516 -1.701,1.91459 -4.45182,2.89621 -6.95703,1.48047 -0.22571,-0.12756 -0.449,-0.28169 -0.66992,-0.44922 -1.58701,-1.43516 -2.34059,-3.79368 -1.98438,-5.91407 0.63723,-2.05556 2.37395,-3.82355 4.43945,-4.38867 0.26818,-0.0491 0.5322,-0.0852 0.78711,-0.0976 z m 3.79102,12.79882 c -1.78724,7.45176 -2.63077,14.92292 -3.02344,20.4668 -1.90932,0.37729 -3.14762,0.4492 -5.83398,0.4375 0.10399,-2.29167 0.41076,-5.42177 0.70117,-8.32617 0.37809,-3.79277 0.97722,-7.96645 1.84765,-12.13477 1.09687,0.47259 2.33866,0.68965 3.68555,0.55469 0.6264,-0.0628 1.61684,-0.44133 2.62305,-0.99805 z" />
    <path
       id="path4559"
       d="m 152.74909,402.97548 c -0.11104,5.50429 -0.46855,10.8818 -0.41428,15.73417 46.68776,1.05802 125.17644,-15.11977 162.13817,-23.43299 l 18.1391,-4.21046 4.51727,-0.86359 c 0.13361,-0.10426 0.27304,-0.20638 0.42871,-0.29288 0.63889,-0.35441 4.37795,-1.07041 6.49058,-1.36768 0.0609,0.1012 0.11875,0.2029 0.17283,0.30579 l 3.50245,-0.66758 c -0.27164,-0.41617 -0.51006,-0.84206 -0.72899,-1.27238 l -11.92955,0.68907 c -0.60165,0.0485 -1.17933,0.0829 -1.70007,0.0975 l -6.20266,0.3589 c -3.4986,0.35611 -7.16178,0.73075 -10.96996,1.12093 l -3.54675,0.36086 c -50.49795,5.18103 -122.48917,12.63757 -143.5946,12.54943 l -12.40076,0.69522 -3.90154,0.19569 z m 180.34697,-13.81207 c 0.0873,0.0151 0.13514,0.0223 0.16723,0.026 -1.11281,0.26196 -120.17167,27.80469 -179.11939,27.34465 -0.12041,-1.32757 0.34509,-9.87126 0.54044,-11.35906 44.6802,-2.13587 112.93862,-8.30731 178.41165,-16.01156 z" />
  </g>
  <g
     transform="translate(-56.568542,-84.9067)"
     id="layer3" />
</svg>
