<?xml version="1.0" encoding="UTF-8" standalone="no"?>
<svg
   xmlns:dc="http://purl.org/dc/elements/1.1/"
   xmlns:cc="http://creativecommons.org/ns#"
   xmlns:rdf="http://www.w3.org/1999/02/22-rdf-syntax-ns#"
   xmlns:svg="http://www.w3.org/2000/svg"
   xmlns="http://www.w3.org/2000/svg"
   width="803.25793mm"
   height="666.41595mm"
   viewBox="0 0 2846.1895 2361.3164"
   id="svg2"
   version="1.1">
  <defs
     id="defs4" />
  <metadata
     id="metadata7">
    <rdf:RDF>
      <cc:Work
         rdf:about="">
        <dc:format>image/svg+xml</dc:format>
        <dc:type
           rdf:resource="http://purl.org/dc/dcmitype/StillImage" />
        <dc:title></dc:title>
      </cc:Work>
    </rdf:RDF>
  </metadata>
  <g
     id="layer6"
     transform="translate(3119.9074,217.18939)">
    <rect
       style="color:#000000;clip-rule:nonzero;display:inline;overflow:visible;visibility:visible;opacity:1;isolation:auto;mix-blend-mode:normal;color-interpolation:sRGB;color-interpolation-filters:linearRGB;solid-color:#000000;solid-opacity:1;fill:#ffffff;fill-opacity:1;fill-rule:nonzero;stroke:none;stroke-width:1.60000002;stroke-linecap:round;stroke-linejoin:round;stroke-miterlimit:4;stroke-dasharray:none;stroke-dashoffset:0;stroke-opacity:1;color-rendering:auto;image-rendering:auto;shape-rendering:auto;text-rendering:auto;enable-background:accumulate"
       id="rect4312"
       width="2844.5896"
       height="2359.7163"
       x="-3119.1074"
       y="-216.38939" />
  </g>
  <g
     id="layer1"
     style="display:inline;opacity:0.353"
     transform="translate(3119.9074,217.18939)">
    <g
       id="g4282"
       transform="matrix(8.1723057,0,0,8.1723057,-2970.515,113.97953)">
      <g
         style="display:inline"
         id="layer3"
         transform="translate(-92,-63.999774)">
        <g
           id="layer5">
          <path
             style="fill:#abcd03"
             id="path2554"
             d="m 264.513,77.977773 -4.917,19.529001 c 6.965,-13.793001 18.027,-24.172001 30.729,-33.323001 -9.287,10.789 -17.754,21.579001 -22.944,32.368001 8.741,-12.292001 20.486,-19.120001 33.733,-23.627001 -17.618,15.706001 -31.60228,32.559277 -42.25528,49.494277 l -8.467,-3.687 c 1.501,-13.521 6.60928,-27.369276 14.12128,-40.754277 z" />
          <path
             style="fill:#fffcdb"
             id="path2534"
             d="m 241.90113,115.14152 16.116,6.68594 c 0,4.098 -0.33313,16.59703 2.22938,20.28403 26.80289,34.5191 22.29349,103.71329 -5.42951,105.48829 -42.21656,0 -58.317,-28.679 -58.317,-55.03801 0,-24.037 28.816,-40.016 46.025,-54.219 4.37,-3.824 3.61113,-12.27525 -0.62387,-23.20125 z" />
          <path
             style="fill:#7d4698"
             id="path2536"
             d="m 258.02197,121.58695 5.80803,2.96282 c -0.546,3.823 0.273,12.292 4.096,14.476 16.936,10.516 32.914,21.988 39.197,33.46 22.398,40.42601 -15.706,77.84601 -48.62,74.29501 17.891,-13.248 23.081,-40.42501 16.389,-70.06201 -2.731,-11.609 -6.966,-22.125 -14.478,-34.007 -3.25421,-5.83246 -2.11803,-13.06582 -2.39203,-21.12482 z" />
        </g>
        <g
           style="display:inline"
           id="layer4">
          <path
             id="path2538"
             d="m 255.226,120.58877 12.018,1.639 c -3.551,11.745 6.966,19.939 10.38,21.852 7.64801,4.234 15.02301,8.604 20.89601,13.93 11.063,10.106 17.345,24.31 17.345,39.333 0,14.886 -6.829,29.226 -18.301,38.786 -10.789,9.014 -25.67501,12.838 -40.15201,12.838 -9.014,0 -17.072,-0.409 -25.812,-3.278 -19.939,-6.692 -34.826,-23.763 -36.055,-44.25 -1.093,-15.979 2.458,-28.134 14.887,-40.835 6.418,-6.692 19.393,-14.34 28.271,-20.486 4.371,-3.005 9.014,-11.473 0.136,-27.451 l 1.776,-1.366 13.15659,8.81203 -11.10759,-4.57803 c 0.956,1.366 3.551,7.512 4.098,9.287 1.229,5.053 0.683,9.971 -0.41,12.155 -5.599,10.107 -15.159,12.838 -22.124,18.574 -12.292,10.106 -25.676,18.164 -24.174,45.888 0.683,13.657 11.336,30.319 27.314,38.104 9.014,4.371 19.394,6.146 29.91,6.692 9.423,0.41 27.45101,-5.19 37.28401,-13.384 10.516,-8.74 16.389,-21.988 16.389,-35.508 0,-13.658 -5.463,-26.632 -15.706,-35.783 -5.873,-5.326 -15.56901,-11.745 -21.57801,-15.16 -6.009,-3.414 -13.521,-12.974 -11.063,-22.124 z" />
          <path
             id="path2540"
             d="m 251.539,140.80177 c -1.229,6.283 -2.595,17.618 -8.058,21.852 -2.322,1.638 -4.644,3.278 -7.102,4.916 -9.833,6.693 -19.667,12.974 -24.173,29.09 -0.956,3.415 -0.136,7.102 0.684,10.516 2.458,9.833 9.423,20.486 14.886,26.769 0,0.273 1.093,0.956 1.093,1.229 4.507,5.327 5.873,6.829 22.944,10.652 l -0.41,1.913 c -10.243,-2.731 -18.71,-5.189 -24.037,-11.336 0,-0.136 -0.956,-1.093 -0.956,-1.093 -5.736,-6.556 -12.702,-17.481 -15.296,-27.724 -0.956,-4.098 -1.775,-7.238 -0.683,-11.473 4.643,-16.661 14.75,-23.217 24.993,-30.182 2.322,-1.502 5.053,-2.869 7.238,-4.644 4.233,-3.14 6.554,-12.701 8.877,-20.485 z" />
          <path
             id="path2542"
             d="m 255.90625,166.74951 c 0.137,7.102 -0.55625,10.66475 1.21875,15.71875 1.092,3.004 4.782,7.1015 5.875,11.0625 1.502,5.327 3.138,11.19901 3,14.75001 0,4.09799 -0.25625,11.74249 -2.03125,19.93749 -1.35362,6.77108 -4.47323,12.58153 -9.71875,15.875 -5.37327,-1.10644 -11.68224,-2.99521 -15.40625,-6.1875 -7.238,-6.282 -13.64875,-16.7865 -14.46875,-25.9375 -0.682,-7.51099 6.27275,-18.5885 15.96875,-24.1875 8.194,-4.78 10.1,-10.22775 11.875,-18.96875 -2.458,7.648 -4.7665,14.05925 -12.6875,18.15625 -11.472,6.009 -17.3585,16.09626 -16.8125,25.65625 0.819,12.291 5.7415,20.6195 15.4375,27.3125 4.097,2.868 11.75125,5.89875 16.53125,6.71875 l 0,-0.625 c 3.62493,-0.67888 8.31818,-6.63267 10.65625,-14.6875 2.049,-7.238 2.85675,-16.502 2.71875,-22.37499 -0.137,-3.414 -1.643,-10.80801 -4.375,-17.50001 -1.502,-3.687 -3.8095,-7.37375 -5.3125,-9.96875 -1.637,-2.597 -1.64875,-8.195 -2.46875,-14.75 z" />
          <path
             id="path2544"
             d="m 255.09375,193.53076 c 0.136,4.78 2.056,10.90451 2.875,17.18751 0.684,4.64399 0.387,9.30824 0.25,13.40624 -0.13495,4.74323 -1.7152,13.24218 -3.875,17.375 -2.03673,-0.93403 -2.83294,-1.99922 -4.15625,-3.71875 -1.638,-2.322 -2.75075,-4.644 -3.84375,-7.375 -0.819,-2.049 -1.7765,-4.394 -2.1875,-7.125 -0.546,-4.097 -0.393,-10.5065 4.25,-17.06249 3.551,-5.19001 4.36475,-5.58476 5.59375,-11.59376 -1.64,5.326 -2.8625,5.869 -6.6875,10.37501 -4.233,4.917 -4.9375,12.15924 -4.9375,18.03124 0,2.459 0.9805,5.18725 1.9375,7.78125 1.092,2.732 2.02925,5.452 3.53125,7.5 2.25796,3.32082 5.14798,5.20922 6.5625,5.5625 0.009,0.002 0.022,-0.002 0.0312,0 0.0303,0.007 0.0649,0.0255 0.0937,0.0312 l 0,-0.15625 c 2.64982,-2.95437 4.24444,-5.88934 4.78125,-8.84375 0.683,-3.551 0.84,-7.10975 1.25,-11.34375 0.409,-3.551 0.11225,-8.334 -0.84375,-13.24999 -1.365,-6.146 -3.669,-12.41226 -4.625,-16.78126 z" />
          <path
             id="path2550"
             d="m 255.499,135.06577 c 0.137,7.101 0.683,20.35 2.595,25.539 0.546,1.775 5.599,9.56 9.149,18.983 2.459,6.556 3.005,12.565 3.415,14.34 1.639,7.785 -0.41,20.896 -3.142,33.324 -1.365,6.692 -6.009,15.023 -11.335,18.301 l -1.092,1.912 c 3.005,-0.137 10.379,-7.375 12.974,-16.389 4.371,-15.296 6.146,-22.398 4.098,-39.333 -0.273,-1.64 -0.956,-7.238 -3.551,-13.248 -3.824,-9.151 -9.287,-17.891 -9.969,-19.667 -1.23,-2.867 -2.869,-15.295 -3.142,-23.762 z" />
          <path
             id="path2552"
             d="m 258.06151,125.35303 c -0.40515,7.29812 -0.51351,9.98574 0.85149,15.31174 1.502,5.873 9.151,14.34 12.292,24.037 6.009,18.574 4.507,42.884 0.136,61.867 -1.638,6.691 -9.424,16.389 -17.208,19.529 l 5.736,1.366 c 3.141,-0.137 11.198,-7.648 14.34,-16.252 5.052,-13.521 6.009,-29.636 3.96,-46.571 -0.137,-1.639 -2.869,-16.252 -5.463,-22.398 -3.688,-9.15 -10.244,-17.345 -10.926,-19.119 -1.228,-3.005 -3.92651,-9.24362 -3.71849,-17.77074 z" />
          <rect
             id="rect2556"
             y="120.21686"
             x="253.71959"
             height="126.01891"
             width="0.550412" />
        </g>
      </g>
      <path
         style="fill:#7d4698"
         id="path2528"
         d="m 7.9430002,18.074997 109.6679998,0 c 4.096,0 7.647,3.414 7.647,7.648 l 0,32.367 c 0,4.234 -3.551,7.649 -7.647,7.649 l -22.534,0 c -5.054,0 -7.239,2.867 -7.239,6.145 l 0,105.980013 c 0,3.551 -2.868,6.282 -6.282,6.282 l -37.284,0 c -3.415,0 -6.146,-2.731 -6.146,-6.282 l 0,-106.935013 c 0,-3.278 -3.005,-5.189 -5.326,-5.189 l -24.8569998,0 c -4.234,0 -7.64799997,-3.415 -7.64799997,-7.649 l 0,-32.368 c -0.001,-4.234 3.41299997,-7.648 7.64799997,-7.648 z" />
      <path
         style="fill:#7d4698"
         id="path2532"
         d="m 289.30687,60.958997 9.696,0 c 3.551,0 6.419,2.868 6.419,6.282 l 0,34.690003 c 0,4.507 0.273,6.282 -5.19,6.282 -10.789,0 -15.705,5.736 -15.705,12.018 l 0,58.58901 c 0,2.732 -2.595,5.053 -5.736,5.053 l -34.827,0 c -3.141,0 -5.736,-2.321 -5.736,-5.053 l 0,-66.78401 c -0.0378,-1.17441 -0.0148,-2.9081 0.137,-3.823 1.912,-24.720003 21.30753,-44.497863 45.888,-46.981003 0.82399,-0.0832 3.73943,-0.273 5.054,-0.273 z" />
    </g>
  </g>
  <g
     id="layer2"
     transform="translate(3119.9074,217.18939)">
    <g
       id="flowRoot4136"
       style="font-style:normal;font-variant:normal;font-weight:normal;font-stretch:normal;font-size:183.3094635px;line-height:125%;font-family:Polloc1;-inkscape-font-specification:Polloc1;text-align:start;letter-spacing:0px;word-spacing:0px;text-anchor:start;fill:#000000;fill-opacity:1;stroke:none;stroke-width:1px;stroke-linecap:butt;stroke-linejoin:miter;stroke-opacity:1"
       transform="translate(-414.39621,765.20964)">
      <path
         id="path4165"
         style=""
         d="m -1222.9691,-492.08425 q 0.7332,0 2.383,-1.09986 8.0656,-4.76605 15.0314,-4.76605 8.7988,0 13.1983,3.8495 9.532,8.24893 9.532,17.96433 l 0,78.27314 q 0,2.74964 -2.9329,2.74964 l -17.9643,0 q -3.2996,0 -3.2996,-2.74964 l 0,-70.75745 q 0,-5.6826 -8.2489,-5.6826 -8.6156,0 -8.6156,6.59914 l 0,69.84091 q 0,2.74964 -3.2995,2.74964 l -17.9644,0 q -2.7496,0 -2.7496,-2.74964 l 0,-95.32092 q 0,-2.74964 2.7496,-2.74964 l 18.8809,0 q 0.5499,0 1.8331,1.83309 0.5499,1.46648 0.9165,1.8331 0.1834,0.18331 0.55,0.18331 z" />
      <path
         id="path4167"
         style=""
         d="m -1143.8453,-492.08425 q 0.7333,0 2.383,-1.09986 8.0657,-4.76605 15.0314,-4.76605 8.7989,0 13.1983,3.8495 9.5321,8.24893 9.5321,17.96433 l 0,78.27314 q 0,2.74964 -2.933,2.74964 l -17.9643,0 q -3.2996,0 -3.2996,-2.74964 l 0,-70.75745 q 0,-5.6826 -8.2489,-5.6826 -8.6155,0 -8.6155,6.59914 l 0,69.84091 q 0,2.74964 -3.2996,2.74964 l -17.9643,0 q -2.7497,0 -2.7497,-2.74964 l 0,-95.32092 q 0,-2.74964 2.7497,-2.74964 l 18.8808,0 q 0.55,0 1.8331,1.83309 0.55,1.46648 0.9166,1.8331 0.1833,0.18331 0.5499,0.18331 z" />
      <path
         id="path4169"
         style=""
         d="m -1084.1523,-420.41025 18.8809,0 q 2.7496,0 2.7496,2.74964 l 0,19.79742 q 0,2.74964 -2.7496,2.74964 l -18.8809,0 q -2.7496,0 -2.7496,-2.74964 l 0,-19.79742 q 0,-2.74964 2.7496,-2.74964 z" />
      <path
         id="path4171"
         style=""
         d="m -1026.533,-395.11355 -17.0478,0 q -2.7496,0 -2.7496,-2.74964 l 0,-121.71748 q 0,-2.74965 2.7496,-2.74965 l 17.9643,0 q 3.2996,0 3.2996,2.74965 l 0,27.1298 q 1.0999,0 6.9658,-3.48288 0.5499,-0.36662 1.2831,-0.73324 l 0.7333,-0.18331 q 3.1162,-1.09986 8.4322,-1.09986 16.86448,0 21.63053,17.04778 2.0164,7.14907 2.0164,12.28174 l 0,50.04348 q 0,3.29957 -2.0164,10.26533 -4.03281,15.03138 -21.63053,15.03138 -6.2325,0 -10.4486,-1.8331 -2.933,-1.46647 -5.6826,-2.74964 l -0.9166,0 q -2.0164,0 -4.5827,2.74964 z m 4.5827,-27.31311 q 0,6.78245 8.0657,6.78245 8.0656,0 8.0656,-6.78245 l 0,-46.19398 q 0,-6.59914 -8.0656,-6.59914 -8.0657,0 -8.0657,6.59914 l 0,46.19398 z" />
      <path
         id="path4173"
         style=""
         d="m -972.88924,-492.26756 q 0,-3.66619 1.8331,-3.66619 l 19.79742,0 q 2.19971,0 2.74964,2.74964 l 9.53209,46.19398 q 0.54993,3.11626 1.8331,3.11626 1.28316,0 1.83309,-3.11626 l 8.61555,-46.19398 2.74964,-2.74964 20.71397,0 q 1.09985,0 1.09985,3.29957 l 0,2.38302 -21.81382,100.6369 q -3.66619,16.13123 -19.79742,20.89727 -4.03281,0.91655 -11.36519,0.91655 -7.14907,0 -11.18188,-0.91655 -3.8495,-1.09985 -3.8495,-2.93295 l 0,-17.96432 q 0,-0.91655 2.74965,-0.91655 l 1.09985,0 q 3.29957,0.91655 4.58274,0.91655 0.36662,0.1833 2.93295,0.1833 6.59914,0 6.59914,-5.31597 l 0,-2.19971 -20.71397,-93.30452 0,-2.0164 z" />
      <path
         id="path4175"
         style=""
         d="m -1228.6517,-257.44813 -1.4665,-1.28317 -19.7974,0 q -2.7497,0 -2.7497,-3.48288 l 0,-14.11482 q 0,-2.56634 2.7497,-2.74965 6.0492,-0.18331 10.4486,-0.91654 7.699,-1.28317 14.1149,-8.61555 4.0328,-4.58274 4.766,-4.58274 l 15.0314,0 2.7496,2.74965 0,120.80093 q 0,3.66619 -2.7496,3.66619 l -19.7974,0 -3.2996,-2.74964 0,-88.72178 z" />
      <path
         id="path4177"
         style=""
         d="m -1188.8334,-260.7477 q 0,-10.08202 2.0164,-16.49785 4.2161,-12.64836 19.7974,-17.04778 4.2161,-0.91655 10.4487,-0.91655 9.5321,0 14.1148,2.0164 15.0314,6.96576 17.9643,18.88088 0.9166,4.58274 0.9166,13.5649 0,13.01497 -4.7661,19.4308 l -3.6662,4.58274 q -1.0998,1.46647 -1.0998,2.0164 0,0.73324 1.0998,1.8331 4.7661,4.21612 6.5992,6.59914 3.2995,4.21612 3.6662,12.28173 0.1833,0.91655 0.1833,11.73181 0,8.06561 -0.1833,11.91511 -2.5664,20.34735 -22.5471,25.29671 -4.5827,0.91655 -12.2817,0.91655 -7.5157,0 -14.1149,-1.8331 -17.231,-4.58273 -19.7974,-24.38016 l 0,-12.28173 0,-12.28173 q 0.3666,-8.43224 4.5828,-13.19829 3.1162,-2.74964 5.6825,-5.68259 0.9166,-1.28317 0.9166,-2.38302 l 0,-0.54993 q -9.5321,-9.34878 -9.5321,-24.01354 z m 32.6291,17.59771 q 8.0656,0 8.0656,-6.78245 l 0,-16.86447 q 0,-6.78245 -8.0656,-6.78245 -7.8823,0 -7.8823,6.78245 l 0,16.86447 q 0,6.78245 7.8823,6.78245 z m 0.1833,57.55917 q 8.7989,0 8.7989,-7.699 l 0,-20.71397 q 0,-7.69899 -8.7989,-7.69899 -9.1655,0 -9.1655,7.69899 l 0,20.71397 q 0,7.699 9.1655,7.699 z" />
      <path
         id="path4179"
         style=""
         d="m -1075.6398,-164.14361 q -10.082,0 -13.9315,-1.8331 -19.7975,-9.16547 -19.7975,-30.06275 l 0,-66.17472 q 0,-21.4472 17.7811,-29.1462 8.2489,-3.66619 14.2981,-3.8495 l 8.4322,0 8.4323,0 q 4.9493,0.36662 9.5321,2.0164 4.5827,1.28317 4.5827,3.66619 l 0,17.96433 -0.9165,0.91655 q -0.1834,0.18331 -2.5664,0.18331 -4.5827,0 -7.699,-1.09986 -6.4158,-2.0164 -9.7154,-2.0164 -14.848,0 -15.7646,12.46504 0.3666,7.699 0.3666,11.91512 1.4665,0 5.316,-1.64979 0.1833,0 0.5499,-0.18331 0.55,-0.18331 1.0999,-0.36662 0.5499,-0.18331 1.0998,-0.36662 4.0328,-0.91654 7.8823,-0.91654 7.8824,0 14.6648,3.84949 11.3652,6.41584 11.3652,19.79743 l 0,36.66189 q 0,19.24749 -20.714,26.39656 -5.4993,1.8331 -14.2981,1.8331 z m -7.3324,-28.22966 q 0,6.78245 8.4322,6.78245 8.4323,0 8.4323,-6.78245 l 0,-30.06275 q 0,-6.78245 -8.4323,-6.78245 -8.4322,0 -8.4322,6.78245 l 0,30.06275 z" />
      <path
         id="path4181"
         style=""
         d="m -1024.7886,-268.81332 q 0,-18.33094 17.0478,-24.38016 5.6825,-2.0164 12.83161,-2.0164 33.36233,0 33.36233,33.17901 0,14.29814 -12.28174,26.39657 l 0,0.91654 q 0,2.01641 2.74964,4.58274 3.11627,2.19971 3.8495,2.93295 2.01641,1.64979 4.76605,4.76605 2.19971,2.38302 2.74964,10.26533 0.18331,0.54993 0.18331,6.59914 0,10.81526 -2.0164,17.96433 -6.96576,23.46361 -34.09556,23.46361 -6.23248,0 -10.26538,-0.91655 -17.5977,-4.76605 -21.6305,-20.71397 -0.9165,-4.03281 -0.9165,-11.73181 l 0,-7.14906 q 0.3666,-2.74965 2.7496,-2.74965 l 17.0478,0 q 2.5663,0 2.7496,2.74965 0.3667,8.24892 0.9166,12.28173 0.7332,6.78245 8.43223,6.78245 10.26533,0 10.44864,-9.53209 0.18331,-0.54993 0.18331,-8.06562 0,-8.24892 -1.09986,-11.7318 -2.38302,-8.98217 -7.51569,-8.98217 l -13.19823,0 q -2.933,0 -2.933,-4.21612 l 0,-12.28173 q 0,-4.21612 2.933,-4.21612 l 13.19823,0 q 0.36662,0 1.8331,-1.46647 3.66619,-3.29957 4.76604,-5.6826 0.91655,-3.29957 0.91655,-8.98216 0,-12.83166 -8.79885,-12.83166 -6.23257,0 -7.33237,4.76604 -0.3666,5.13267 -0.9166,6.59914 -0.5499,2.01641 -1.8331,2.01641 l -17.0477,0 q -0.7333,0 -1.8331,-2.93295 l 0,-5.6826 z" />
      <path
         id="path4183"
         style=""
         d="m -950.27335,-264.41389 q 0,-2.38302 2.01641,-2.38302 l 19.79742,0 q 2.56633,0 3.8495,2.74964 l 7.51569,16.13123 q 0.54993,0.91655 1.46647,0.91655 0.91655,0 1.46648,-0.91655 l 8.43223,-17.04778 q 0.73324,-1.83309 2.74965,-1.83309 l 20.89727,0 q 1.64979,0 1.8331,1.83309 0,0.36662 -0.91655,2.74964 l -20.53066,43.99427 22.36376,49.49356 0,0.54993 q 0,2.19971 -1.8331,2.19971 l -20.89728,0 -2.74964,-2.74964 -10.44864,-22.54706 q 0,-0.18331 -0.36662,-0.18331 -0.91654,0 -1.46647,1.09985 l -10.44864,21.63052 q -1.28317,2.74964 -3.66619,2.74964 l -20.71397,0 q -0.91655,0 -0.91655,-2.19971 0,-2.01641 0.91655,-4.39943 l 21.63052,-46.01067 -19.79743,-44.5442 q -0.18331,-0.18331 -0.18331,-1.28317 z" />
      <path
         id="path4185"
         style=""
         d="m -865.39828,-191.27341 18.88088,0 q 2.74964,0 2.74964,2.74964 l 0,19.79742 q 0,2.74964 -2.74964,2.74964 l -18.88088,0 q -2.74964,0 -2.74964,-2.74964 l 0,-19.79742 q 0,-2.74964 2.74964,-2.74964 z" />
      <path
         id="path4187"
         style=""
         d="m -792.38098,-164.14361 q -9.89871,0 -16.49785,-1.8331 -19.79742,-5.49928 -19.79742,-26.39656 l 0,-48.02708 q 0,-20.53066 19.79742,-26.39656 7.14907,-2.01641 16.49785,-2.01641 8.06562,0 12.64835,1.09986 5.6826,1.09986 5.6826,4.58274 l 0,16.13123 q 0,2.93295 -4.03281,2.93295 -2.19971,0 -2.56633,-0.18331 -1.46648,-0.36662 -5.6826,-0.91655 l -4.76604,0 q -6.04922,0 -7.51569,0.91655 -5.68259,4.03281 -5.68259,8.61555 l 0,38.67829 q 0,4.39943 5.68259,8.43224 1.46647,1.09985 7.88231,1.09985 4.76604,0 5.31597,-0.1833 1.46648,-0.36662 5.68259,-0.91655 l 2.01641,0 q 3.66619,0 3.66619,2.74964 l 0,16.13123 q 0,3.48288 -5.6826,4.58274 -1.46647,0.36662 -5.68259,0.91655 l -6.96576,0 z" />
      <path
         id="path4189"
         style=""
         d="m -729.43698,-164.14361 q -22.91368,0 -30.61268,-17.78102 -2.74964,-6.59914 -2.74964,-12.28174 l 0,-44.36089 q 0,-5.68259 2.74964,-12.28173 4.94936,-11.36519 14.11483,-15.03138 7.51569,-2.93295 16.49785,-2.93295 6.59914,0 10.81526,1.09986 16.31454,4.21612 20.89728,19.79742 1.83309,6.23252 1.83309,10.26533 l 0,43.44434 q 0,5.6826 -2.74964,12.28174 -5.13266,11.7318 -14.29814,15.03137 -7.69899,2.74965 -16.49785,2.74965 z m -8.98216,-28.22966 q 0,7.699 8.98216,7.699 8.98217,0 8.98217,-7.699 l 0,-48.02708 q 0,-7.699 -8.98217,-7.699 -8.98216,0 -8.98216,7.699 l 0,48.02708 z" />
      <path
         id="path4191"
         style=""
         d="m -658.19551,-263.13072 q 0.18331,0.18331 0.54993,0.18331 0.36662,0 2.38303,-1.09986 8.43223,-4.76605 15.03137,-4.76605 6.78245,0 11.36519,2.93295 3.48288,2.38303 5.68259,3.66619 1.46648,1.09986 2.38303,1.09986 l 0.36661,0 q 10.81526,-7.699 21.99714,-7.699 8.98216,0 12.09842,2.93295 10.26533,9.16548 10.26533,18.88088 l 0,78.27314 q 0,2.74964 -2.74964,2.74964 l -17.96433,0 q -3.29957,0 -3.29957,-2.74964 l 0,-70.75745 q 0,-5.6826 -8.43223,-5.6826 -8.61555,0 -8.61555,6.59914 l 0,69.84091 q 0,2.74964 -3.29957,2.74964 l -17.96432,0 q -3.29957,0 -3.29957,-2.74964 l 0,-70.75745 q 0,-5.6826 -8.24893,-5.6826 -8.61554,0 -8.61554,6.59914 l 0,69.84091 q 0,2.74964 -3.29957,2.74964 l -17.96433,0 q -2.74964,0 -2.74964,-2.74964 l 0,-95.32092 q 0,-2.74964 2.74964,-2.74964 l 18.88087,0 q 0.54993,0 1.8331,1.83309 0.54993,1.46648 0.91654,1.8331 z" />
      <path
         id="path4193"
         style=""
         d="m -1250.8322,-12.180072 q 0,-21.080588 19.7975,-26.396563 3.6661,-1.099856 12.0984,-1.099856 9.8987,0 14.2981,1.099856 8.7989,1.833095 10.2654,7.515688 0.1833,1.833095 0.1833,5.682594 0,5.132665 -0.1833,5.682593 -0.1834,2.932952 -1.8331,3.666189 -1.4665,0.18331 -4.2162,0.18331 -4.5827,0 -7.149,-1.099857 -4.9494,-2.016404 -8.249,-2.016404 -9.7154,0 -9.7154,5.682593 0,4.0328086 6.7825,9.5320925 l 10.2653,7.515688 q 0.9166,0.5499284 6.5992,5.6825933 11.3652,10.2653302 11.3652,25.8466342 0,23.280302 -22.7304,28.779586 -4.5828,0.916547 -13.015,0.916547 l -7.699,0 q -8.2489,-0.366619 -13.1983,-2.749642 -3.6662,-2.016404 -3.6662,-3.666189 l 0,-17.04778 1.8331,-0.916547 q 5.316,1.649785 11.3652,2.749642 4.7661,1.099856 10.4487,1.099856 11.1818,0 11.1818,-8.065616 0,-4.399427 -7.5157,-10.815258 -6.4158,-4.399428 -11.3651,-8.615545 -3.4829,-2.932952 -9.3488,-9.3487828 -6.5992,-7.515688 -6.5992,-19.7974222 z" />
      <path
         id="path4195"
         style=""
         d="m -1161.3514,60.410476 -24.3802,-95.320921 q -0.5499,-2.749642 1.8331,-2.749642 l 21.6305,0 q 2.0165,0 2.933,3.666189 l 11.7318,57.192553 1.4665,-1.466476 10.2653,-53.709673 q 1.0999,-5.682593 3.8495,-5.682593 l 19.7974,0 q 1.8331,0 1.8331,3.29957 l 0,0.366619 -23.4636,91.654732 q -1.4665,5.499284 -3.8495,5.499284 l -20.714,0 -2.9329,-2.749642 z" />
      <path
         id="path4197"
         style=""
         d="m -1097.1902,-16.029571 q -3.2996,0 -3.2996,-2.749642 l 0,-12.281734 q 0,-3.666189 4.7661,-5.682593 2.5663,-1.283166 5.6826,-1.833095 3.6662,-0.916547 6.5991,-1.099856 l 8.0656,0 8.0657,0 q 4.9493,0.183309 9.3487,2.016404 16.1313,6.232521 16.1313,20.713969 l 0,77.356594 q 0,2.749642 -2.933,2.749642 l -18.8809,0 q -0.3666,0 -0.9165,-0.916548 -1.4665,-2.016404 -1.8331,-2.016404 -0.7332,0 -0.9165,0.18331 -5.6826,2.932951 -7.699,3.666189 -2.7497,0.916547 -6.9658,0.916547 -16.3145,0 -22.1804,-16.86447 -1.8331,-5.499284 -1.8331,-14.664757 0,-26.0299443 22.547,-37.2118215 8.9822,-4.3994272 17.0478,-7.5156885 0.1833,-0.916547 0.1833,-2.383023 0,-5.682593 -5.8659,-6.049212 -0.5499,-0.183309 -5.6826,-0.183309 -4.3994,0 -4.766,0.183309 -11.7318,3.116261 -14.1149,3.666189 l -0.5499,0 z m 16.4979,48.02708 q 0,10.631949 7.149,10.631949 7.1491,0 7.1491,-3.849499 l 0,-26.946491 q -2.0164,0 -5.6826,3.29957 -8.6155,8.065617 -8.6155,16.864471 z" />
      <path
         id="path4199"
         style=""
         d="m -1006.8415,63.160118 -17.0478,0 q -2.7496,0 -2.7496,-2.749642 l 0,-121.717484 q 0,-2.749642 2.7496,-2.749642 l 17.9644,0 q 3.2995,0 3.2995,2.749642 l 0,27.129801 q 1.0999,0 6.9658,-3.48288 0.54993,-0.366619 1.28317,-0.733238 l 0.73324,-0.18331 q 3.11626,-1.099856 8.43223,-1.099856 16.86447,0 21.63052,17.04778 2.0164,7.149069 2.0164,12.281734 l 0,50.043483 q 0,3.299571 -2.0164,10.26533 -4.03281,15.031376 -21.63052,15.031376 -6.23252,0 -10.44864,-1.833094 -2.93295,-1.466476 -5.6826,-2.749642 l -0.9165,0 q -2.0164,0 -4.5828,2.749642 z m 4.5828,-27.31311 q 0,6.78245 8.06558,6.78245 8.06562,0 8.06562,-6.78245 l 0,-46.193985 q 0,-6.599141 -8.06562,-6.599141 -8.06558,0 -8.06558,6.599141 l 0,46.193985 z" />
      <path
         id="path4201"
         style=""
         d="m -915.25265,64.993212 q -22.91368,0 -30.61268,-17.781018 -2.74964,-6.59914 -2.74964,-12.281734 l 0,-44.3608899 q 0,-5.6825931 2.74964,-12.2817341 4.94935,-11.365187 14.11483,-15.031376 7.51568,-2.932951 16.49785,-2.932951 6.59914,0 10.81526,1.099856 16.31454,4.216118 20.89728,19.797422 1.83309,6.232522 1.83309,10.2653304 l 0,43.4443426 q 0,5.682594 -2.74964,12.281734 -5.13267,11.731806 -14.29814,15.031376 -7.699,2.749642 -16.49785,2.749642 z m -8.98217,-28.229657 q 0,7.698997 8.98217,7.698997 8.98216,0 8.98216,-7.698997 l 0,-48.02708 q 0,-7.698997 -8.98216,-7.698997 -8.98217,0 -8.98217,7.698997 l 0,48.02708 z" />
      <path
         id="path4203"
         style=""
         d="m -824.58038,-35.093755 0,-26.213253 q 0,-2.749642 3.29957,-2.749642 l 17.78102,0 q 2.93295,0 2.93295,2.749642 l 0,121.717484 q 0,2.749642 -2.93295,2.749642 l -19.79742,0 q -0.36662,0 -0.91655,-0.916548 -1.28316,-2.932951 -1.64978,-2.932951 -1.09986,0 -3.11626,1.099857 -7.88231,4.582736 -15.03138,4.582736 -14.48145,0 -20.71397,-15.031376 -1.83309,-4.216117 -1.83309,-11.181877 l 0,-49.126936 q 0,-5.132665 1.83309,-11.365187 5.31598,-17.964327 23.09699,-17.964327 6.41584,0 9.89871,2.016404 4.21612,2.566332 7.14907,2.566332 z m -8.98216,77.723213 q 8.43224,0 8.43224,-6.78245 l 0,-46.193985 q 0,-6.599141 -8.43224,-6.599141 -8.61554,0 -8.61554,6.599141 l 0,46.193985 q 0,6.78245 8.61554,6.78245 z" />
      <path
         id="path4205"
         style=""
         d="m -777.47266,-16.029571 q -3.29957,0 -3.29957,-2.749642 l 0,-12.281734 q 0,-3.666189 4.76605,-5.682593 2.56633,-1.283166 5.68259,-1.833095 3.66619,-0.916547 6.59914,-1.099856 l 8.06562,0 8.06562,0 q 4.94935,0.183309 9.34878,2.016404 16.13123,6.232521 16.13123,20.713969 l 0,77.356594 q 0,2.749642 -2.93295,2.749642 l -18.88088,0 q -0.36661,0 -0.91654,-0.916548 -1.46648,-2.016404 -1.8331,-2.016404 -0.73324,0 -0.91654,0.18331 -5.6826,2.932951 -7.699,3.666189 -2.74964,0.916547 -6.96576,0.916547 -16.31454,0 -22.18045,-16.86447 -1.83309,-5.499284 -1.83309,-14.664757 0,-26.0299443 22.54706,-37.2118215 8.98217,-4.3994272 17.04778,-7.5156885 0.18331,-0.916547 0.18331,-2.383023 0,-5.682593 -5.8659,-6.049212 -0.54993,-0.183309 -5.68259,-0.183309 -4.39943,0 -4.76605,0.183309 -11.73181,3.116261 -14.11483,3.666189 l -0.54993,0 z m 16.49785,48.02708 q 0,10.631949 7.14907,10.631949 7.14907,0 7.14907,-3.849499 l 0,-26.946491 q -2.0164,0 -5.68259,3.29957 -8.61555,8.065617 -8.61555,16.864471 z" />
      <path
         id="path4207"
         style=""
         d="m -701.42221,37.863412 18.88088,0 q 2.74964,0 2.74964,2.749642 l 0,19.797422 q 0,2.749642 -2.74964,2.749642 l -18.88088,0 q -2.74964,0 -2.74964,-2.749642 l 0,-19.797422 q 0,-2.749642 2.74964,-2.749642 z" />
      <path
         id="path4209"
         style=""
         d="m -631.33786,64.993212 q -22.91368,0 -30.61268,-17.781018 -2.74964,-6.59914 -2.74964,-12.281734 l 0,-44.3608899 q 0,-5.6825931 2.74964,-12.2817341 4.94936,-11.365187 14.11483,-15.031376 7.51569,-2.932951 16.49785,-2.932951 6.59914,0 10.81526,1.099856 16.31454,4.216118 20.89728,19.797422 1.8331,6.232522 1.8331,10.2653304 l 0,43.4443426 q 0,5.682594 -2.74965,12.281734 -5.13266,11.731806 -14.29813,15.031376 -7.699,2.749642 -16.49786,2.749642 z m -8.98216,-28.229657 q 0,7.698997 8.98216,7.698997 8.98217,0 8.98217,-7.698997 l 0,-48.02708 q 0,-7.698997 -8.98217,-7.698997 -8.98216,0 -8.98216,7.698997 l 0,48.02708 z" />
      <path
         id="path4211"
         style=""
         d="m -560.09638,-33.077351 q 0.18331,0.18331 0.54992,0.18331 0.36662,0 0.36662,-0.18331 0.91655,-0.549928 2.19972,-1.466475 1.28316,-0.916548 2.0164,-1.283167 0.91655,-0.549928 1.46648,-0.916547 1.46647,-0.733238 2.0164,-0.916547 5.49928,-2.199714 10.08202,-2.199714 2.74964,0 3.11626,0.18331 l 1.8331,2.016404 0,20.713969 -1.8331,1.833095 q -7.88231,0.549928 -11.36518,2.016404 -10.81526,4.7660459 -10.81526,14.1148285 l 0,59.3922665 q 0,2.749642 -3.29957,2.749642 l -17.96433,0 q -2.74964,0 -2.74964,-2.749642 l 0,-95.320921 q 0,-2.749642 2.74964,-2.749642 l 19.79742,0 q 1.28317,0 1.8331,4.582736 z" />
      <path
         id="path4213"
         style=""
         d="m -504.27856,60.410476 q -15.5813,0 -21.2639,-15.031376 -2.74964,-7.515688 -2.74964,-14.298138 l 0,-44.177581 q 0,-6.96576 1.8331,-11.365187 6.41583,-15.214685 20.71397,-15.214685 8.61554,0 17.96432,6.59914 0.73324,-0.366619 0.91655,-0.916547 l 1.8331,-3.666189 19.79742,0 q 2.93295,0 2.93295,2.749642 l 0,94.404373 q 0,23.096993 -20.71397,28.962896 -7.14907,2.016404 -19.4308,2.016404 -10.63195,0 -17.4144,-0.916548 -6.59914,-1.099856 -6.59914,-3.849498 l 0,-17.04778 q 0,-0.916548 2.19971,-0.916548 l 1.46648,0 q 7.51568,1.833095 10.44864,2.016404 l 7.14906,0 7.88231,0 q 8.98217,-0.549928 10.44864,-7.515688 -0.54993,-3.116261 -0.54993,-6.232521 -0.18331,-0.733238 -1.28316,-0.366619 -4.58274,2.566332 -7.51569,3.849498 -2.74964,0.916548 -8.06562,0.916548 z m 8.98217,-22.547064 q 8.43223,0 8.43223,-6.78245 l 0,-41.427939 q 0,-6.599141 -8.43223,-6.599141 -8.61555,0 -8.61555,6.599141 l 0,41.427939 q 0,6.78245 8.61555,6.78245 z" />
      <path
         id="path4215"
         style=""
         d="m -2221.1006,200.82552 -1.4665,-1.28317 -19.7974,0 q -2.7497,0 -2.7497,-3.48288 l 0,-14.11482 q 0,-2.56634 2.7497,-2.74965 6.0492,-0.18331 10.4486,-0.91654 7.699,-1.28317 14.1148,-8.61555 4.0328,-4.58273 4.7661,-4.58273 l 15.0314,0 2.7496,2.74964 0,120.80093 q 0,3.66619 -2.7496,3.66619 l -19.7975,0 -3.2995,-2.74964 0,-88.72178 z" />
      <path
         id="path4217"
         style=""
         d="m -2182.9322,198.4425 q 0,-7.14907 0.9166,-11.73181 4.0328,-16.13123 19.7974,-21.63051 5.6826,-2.01641 13.7482,-2.01641 24.7468,0 33.3623,20.89728 2.933,6.59914 2.933,17.4144 0,20.16404 -11.3652,30.61268 l -9.5321,8.43224 q -4.9493,4.76604 -11.1819,11.36518 -7.5157,8.06562 -7.5157,19.4308 l 35.7454,0 2.7496,3.29958 0,15.03137 -2.7496,2.74964 -63.2418,0 q -1.4665,0 -2.7496,-1.83309 -0.1833,-2.01641 -0.1833,-6.04921 0,-9.16548 2.9329,-15.58131 1.2832,-2.74964 5.6826,-11.36518 2.933,-5.13267 9.3488,-13.19829 l 19.9807,-23.64692 q 5.6826,-6.78245 5.6826,-20.34735 0,-6.23252 -1.0998,-8.79885 -2.7497,-6.78245 -9.1655,-6.78245 -8.6155,0 -9.7154,7.699 -0.5499,4.0328 -0.9166,12.28173 -1.0998,3.66619 -2.7496,3.66619 l -17.9643,0 q -1.6498,0 -2.7497,-3.66619 l 0,-6.23252 z" />
      <path
         id="path4219"
         style=""
         d="m -2104.7679,175.89543 0,-5.13266 q 0.1834,-5.68259 3.6662,-5.68259 l 60.4922,0 q 3.6661,0 3.6661,3.66618 l 0,13.19829 q -11.3651,22.54706 -20.7139,51.87657 -9.1655,29.51283 -10.4487,55.72608 l -2.7496,2.74964 -18.8809,0 -2.9329,-2.74964 q -0.1833,-0.36662 -0.1833,-4.94935 0,-19.43081 5.8659,-37.57844 l 18.8808,-57.55918 0,-0.36661 q 0,-1.8331 -0.9165,-1.8331 l -32.9957,0 q -2.5663,0 -2.7497,-6.23252 l 0,-5.13267 z" />
      <path
         id="path4221"
         style=""
         d="m -2021.1071,267.00024 18.8808,0 q 2.7497,0 2.7497,2.74964 l 0,19.79742 q 0,2.74964 -2.7497,2.74964 l -18.8808,0 q -2.7497,0 -2.7497,-2.74964 l 0,-19.79742 q 0,-2.74964 2.7497,-2.74964 z" />
      <path
         id="path4223"
         style=""
         d="m -1934.5249,291.3804 q -7.1491,2.74964 -15.0314,2.74964 -7.8823,0 -15.0314,-2.74964 -19.7974,-7.88231 -19.7974,-29.14621 l 0,-67.09126 q 0,-21.2639 19.7974,-29.14621 6.9658,-2.93295 15.0314,-2.93295 8.0656,0 15.0314,2.93295 19.7974,7.88231 19.7974,29.14621 l 0,67.09126 q 0,21.2639 -19.7974,29.14621 z m -23.4637,-27.31311 q 0,7.69899 8.4323,7.69899 8.4322,0 8.4322,-6.78245 l 0,-72.59054 q 0,-6.78245 -8.4322,-6.78245 -8.4323,0 -8.4323,7.69899 l 0,70.75746 z" />
      <path
         id="path4225"
         style=""
         d="m -1895.7979,267.00024 18.8808,0 q 2.7497,0 2.7497,2.74964 l 0,19.79742 q 0,2.74964 -2.7497,2.74964 l -18.8808,0 q -2.7497,0 -2.7497,-2.74964 l 0,-19.79742 q 0,-2.74964 2.7497,-2.74964 z" />
      <path
         id="path4227"
         style=""
         d="m -1809.2157,291.3804 q -7.1491,2.74964 -15.0314,2.74964 -7.8823,0 -15.0314,-2.74964 -19.7974,-7.88231 -19.7974,-29.14621 l 0,-67.09126 q 0,-21.2639 19.7974,-29.14621 6.9658,-2.93295 15.0314,-2.93295 8.0656,0 15.0314,2.93295 19.7974,7.88231 19.7974,29.14621 l 0,67.09126 q 0,21.2639 -19.7974,29.14621 z m -23.4636,-27.31311 q 0,7.69899 8.4322,7.69899 8.4322,0 8.4322,-6.78245 l 0,-72.59054 q 0,-6.78245 -8.4322,-6.78245 -8.4322,0 -8.4322,7.69899 l 0,70.75746 z" />
      <path
         id="path4229"
         style=""
         d="m -1770.4887,267.00024 18.8808,0 q 2.7497,0 2.7497,2.74964 l 0,19.79742 q 0,2.74964 -2.7497,2.74964 l -18.8808,0 q -2.7497,0 -2.7497,-2.74964 l 0,-19.79742 q 0,-2.74964 2.7497,-2.74964 z" />
      <path
         id="path4231"
         style=""
         d="m -1713.4194,200.82552 -1.4664,-1.28317 -19.7975,0 q -2.7496,0 -2.7496,-3.48288 l 0,-14.11482 q 0,-2.56634 2.7496,-2.74965 6.0493,-0.18331 10.4487,-0.91654 7.699,-1.28317 14.1148,-8.61555 4.0328,-4.58273 4.7661,-4.58273 l 15.0313,0 2.7497,2.74964 0,120.80093 q 0,3.66619 -2.7497,3.66619 l -19.7974,0 -3.2996,-2.74964 0,-88.72178 z" />
      <path
         id="path4233"
         style=""
         d="m -1196.9506,294.13004 q -9.8987,0 -16.4979,-1.8331 -19.7974,-5.49928 -19.7974,-26.39656 l 0,-48.02708 q 0,-20.53066 19.7974,-26.39656 7.1491,-2.01641 16.4979,-2.01641 8.0656,0 12.6483,1.09986 5.6826,1.09986 5.6826,4.58274 l 0,16.13123 q 0,2.93295 -4.0328,2.93295 -2.1997,0 -2.5663,-0.18331 -1.4665,-0.36662 -5.6826,-0.91655 l -4.7661,0 q -6.0492,0 -7.5156,0.91655 -5.6826,4.03281 -5.6826,8.61555 l 0,38.67829 q 0,4.39943 5.6826,8.43224 1.4664,1.09986 7.8823,1.09986 4.766,0 5.3159,-0.18331 1.4665,-0.36662 5.6826,-0.91655 l 2.0164,0 q 3.6662,0 3.6662,2.74964 l 0,16.13123 q 0,3.48288 -5.6826,4.58274 -1.4664,0.36662 -5.6826,0.91655 l -6.9657,0 z" />
      <path
         id="path4235"
         style=""
         d="m -1133.6402,213.10725 q -8.6155,0 -8.6155,6.59915 l 0,69.8409 q 0,2.74964 -3.2996,2.74964 l -17.9643,0 q -2.7497,0 -2.7497,-2.74964 l 0,-121.71748 q 0,-2.74964 2.7497,-2.74964 l 17.9643,0 q 3.2996,0 3.2996,2.74964 l 0,29.32951 q 0.9165,0 5.1326,-2.93295 7.3324,-4.76605 13.1983,-4.76605 8.7989,0 13.1983,3.8495 9.5321,8.24893 9.5321,17.96433 l 0,78.27314 q 0,2.74964 -2.933,2.74964 l -17.9643,0 q -3.2996,0 -3.2996,-2.74964 l 0,-70.75745 q 0,-5.6826 -8.2489,-5.6826 z" />
      <path
         id="path4237"
         style=""
         d="m -1080.3629,213.10725 q -3.2996,0 -3.2996,-2.74964 l 0,-12.28173 q 0,-3.66619 4.7661,-5.68259 2.5663,-1.28317 5.6826,-1.8331 3.6661,-0.91655 6.5991,-1.09986 l 8.0656,0 8.0656,0 q 4.9494,0.18331 9.3488,2.01641 16.1312,6.23252 16.1312,20.71397 l 0,77.35659 q 0,2.74964 -2.9329,2.74964 l -18.8809,0 q -0.3666,0 -0.9165,-0.91654 -1.4665,-2.01641 -1.8331,-2.01641 -0.7333,0 -0.9166,0.18331 -5.6826,2.93295 -7.699,3.66619 -2.7496,0.91655 -6.9657,0.91655 -16.3146,0 -22.1805,-16.86447 -1.8331,-5.49929 -1.8331,-14.66476 0,-26.02994 22.5471,-37.21182 8.9822,-4.39943 17.0478,-7.51569 0.1833,-0.91655 0.1833,-2.38302 0,-5.6826 -5.8659,-6.04921 -0.5499,-0.18331 -5.6826,-0.18331 -4.3994,0 -4.7661,0.18331 -11.7318,3.11626 -14.1148,3.66618 l -0.5499,0 z m 16.4978,48.02708 q 0,10.63195 7.1491,10.63195 7.1491,0 7.1491,-3.8495 l 0,-26.94649 q -2.0164,0 -5.6826,3.29957 -8.6156,8.06562 -8.6156,16.86447 z" />
      <path
         id="path4239"
         style=""
         d="m -985.43159,196.05947 q 0.18331,0.18331 0.54993,0.18331 0.36662,0 0.36662,-0.18331 0.91655,-0.54992 2.19971,-1.46647 1.28317,-0.91655 2.01641,-1.28317 0.91654,-0.54993 1.46647,-0.91654 1.46648,-0.73324 2.01641,-0.91655 5.49928,-2.19972 10.08202,-2.19972 2.74964,0 3.11626,0.18331 l 1.83309,2.01641 0,20.71397 -1.83309,1.83309 q -7.88231,0.54993 -11.36519,2.01641 -10.81526,4.76604 -10.81526,14.11483 l 0,59.39226 q 0,2.74964 -3.29957,2.74964 l -17.96432,0 q -2.7496,0 -2.7496,-2.74964 l 0,-95.32092 q 0,-2.74964 2.7496,-2.74964 l 19.79742,0 q 1.28316,0 1.83309,4.58273 z" />
      <path
         id="path4241"
         style=""
         d="m -949.41131,175.34551 2.38303,-1.8331 17.04778,-5.68259 1.64978,0 q 3.48288,0 3.48288,0.91654 l 0,23.64693 q 7.33238,0.36661 10.81526,0.91654 2.93295,0.18331 2.93295,2.74964 l 0,12.28174 q 0,2.38302 -2.93295,2.93295 -3.48288,0.54993 -10.26533,0.91655 l 0,55.72607 q 0,4.03281 3.66619,4.58274 4.58273,0.73324 9.53209,1.09986 l 0.91655,0.91655 0,15.94792 q 0,3.48288 -5.6826,3.66619 l -6.04921,0 q -10.44864,0 -14.66475,-1.8331 -12.83167,-5.49928 -12.83167,-16.86447 l 0,-62.32522 q 0,-0.73323 -1.28316,-0.91654 -2.01641,-0.54993 -5.6826,-0.91655 l -0.91654,-1.83309 0,-15.21469 q 0,-0.36662 1.83309,-0.91655 1.09986,-0.18331 2.56633,-0.36662 1.64979,-0.36661 2.19972,-0.54992 1.28316,-0.18331 1.28316,-0.91655 l 0,-16.13123 z" />
      <path
         id="path4243"
         style=""
         d="m -862.093,294.13004 q -12.46505,0 -18.88088,-2.74964 -20.71397,-9.16548 -20.71397,-28.22966 l 0,-43.44434 q 0,-5.86591 2.74965,-12.28174 5.13266,-11.7318 14.11482,-15.03137 7.699,-2.93296 16.86447,-2.93296 7.699,0 14.29814,2.01641 10.26533,2.93295 15.03138,14.11483 3.66619,8.24892 3.8495,15.03137 l 0,12.28174 0,12.28173 q -0.91655,3.29957 -2.74964,3.29957 l -38.86161,0 -0.91655,1.46648 0,11.36518 q 0,4.21612 6.59914,8.43224 3.48288,2.0164 11.91512,2.0164 5.49928,0 6.04921,-0.18331 8.79885,-2.0164 13.19828,-2.74964 0.36662,-0.18331 1.64979,-0.18331 2.19971,0 2.19971,2.01641 l 0,17.04778 q 0,2.38302 -5.68259,3.66619 -1.64979,0.36661 -4.58274,0.91654 -2.74964,0.73324 -3.8495,0.91655 -6.04921,0.91655 -12.28173,0.91655 z m -15.58131,-65.99141 18.69757,0 q 0,-3.48288 -0.36662,-11.18188 -0.54993,-7.69899 -8.43224,-7.69899 -8.98216,0 -9.53209,7.69899 -0.36662,7.699 -0.36662,11.18188 z" />
      <path
         id="path4245"
         style=""
         d="m -797.10969,196.05947 q 0.18331,0.18331 0.54993,0.18331 0.36662,0 0.36662,-0.18331 0.91654,-0.54992 2.19971,-1.46647 1.28317,-0.91655 2.01641,-1.28317 0.91654,-0.54993 1.46647,-0.91654 1.46648,-0.73324 2.0164,-0.91655 5.49929,-2.19972 10.08203,-2.19972 2.74964,0 3.11626,0.18331 l 1.83309,2.01641 0,20.71397 -1.83309,1.83309 q -7.88231,0.54993 -11.36519,2.01641 -10.81526,4.76604 -10.81526,14.11483 l 0,59.39226 q 0,2.74964 -3.29957,2.74964 l -17.96433,0 q -2.74964,0 -2.74964,-2.74964 l 0,-95.32092 q 0,-2.74964 2.74964,-2.74964 l 19.79743,0 q 1.28316,0 1.83309,4.58273 z" />
      <path
         id="path4247"
         style=""
         d="m -739.45889,251.96886 q -8.24893,0 -14.66476,-3.8495 -11.18188,-6.78245 -11.18188,-19.98073 l 0,-37.57844 q 0,-10.99857 10.26533,-19.79742 4.03281,-3.48288 10.44864,-5.68259 5.6826,-2.01641 14.29814,-2.01641 9.34878,0 13.93152,2.01641 19.79742,9.16547 19.79742,30.06275 l 0,66.17471 q 0,21.44721 -17.96432,29.14621 -8.24893,3.48288 -14.11483,3.66619 l -8.43224,0 -8.43223,0 q -8.79886,-0.36662 -13.19828,-2.74964 -2.93296,-1.28317 -2.93296,-2.74965 l 0,-17.96432 0.91655,-0.91655 q 1.46648,-0.36662 3.66619,-0.36662 3.11626,0 4.94936,0.36662 5.49928,2.56633 8.43223,2.74964 0.36662,0.18331 4.76605,0.18331 15.03137,0 15.94792,-12.46504 -0.36662,-7.699 -0.36662,-11.91512 -1.64978,0 -5.31597,1.64979 -0.18331,0 -0.73324,0.18331 -0.36662,0.18331 -0.91655,0.36662 -0.54993,0.1833 -1.09985,0.36661 -3.48288,1.09986 -8.06562,1.09986 z m 8.06562,-23.64692 q 8.43223,0 8.43223,-6.78245 l 0,-30.06275 q 0,-6.78245 -8.43223,-6.78245 -8.61555,0 -8.61555,6.78245 l 0,30.06275 q 0,6.78245 8.61555,6.78245 z" />
      <path
         id="path4249"
         style=""
         d="m -688.05777,175.89543 0,-5.13266 q 0.1833,-5.68259 3.66618,-5.68259 l 60.49213,0 q 3.66619,0 3.66619,3.66618 l 0,13.19829 q -11.36519,22.54706 -20.71397,51.87657 -9.16548,29.51283 -10.44864,55.72608 l -2.74964,2.74964 -18.88088,0 -2.93295,-2.74964 q -0.18331,-0.36662 -0.18331,-4.94935 0,-19.43081 5.8659,-37.57844 l 18.88088,-57.55918 0,-0.36661 q 0,-1.8331 -0.91655,-1.8331 l -32.9957,0 q -2.56634,0 -2.74964,-6.23252 l 0,-5.13267 z" />
      <path
         id="path4251"
         style=""
         d="m -604.39706,267.00024 18.88088,0 q 2.74964,0 2.74964,2.74964 l 0,19.79742 q 0,2.74964 -2.74964,2.74964 l -18.88088,0 q -2.74964,0 -2.74964,-2.74964 l 0,-19.79742 q 0,-2.74964 2.74964,-2.74964 z" />
      <path
         id="path4253"
         style=""
         d="m -534.31271,294.13004 q -22.91368,0 -30.61268,-17.78102 -2.74964,-6.59914 -2.74964,-12.28173 l 0,-44.36089 q 0,-5.6826 2.74964,-12.28174 4.94935,-11.36519 14.11483,-15.03137 7.51569,-2.93296 16.49785,-2.93296 6.59914,0 10.81526,1.09986 16.31454,4.21612 20.89728,19.79742 1.83309,6.23252 1.83309,10.26533 l 0,43.44435 q 0,5.68259 -2.74964,12.28173 -5.13267,11.73181 -14.29814,15.03138 -7.699,2.74964 -16.49785,2.74964 z m -8.98216,-28.22966 q 0,7.699 8.98216,7.699 8.98216,0 8.98216,-7.699 l 0,-48.02708 q 0,-7.699 -8.98216,-7.699 -8.98216,0 -8.98216,7.699 l 0,48.02708 z" />
      <path
         id="path4255"
         style=""
         d="m -463.07124,196.05947 q 0.18331,0.18331 0.54993,0.18331 0.36662,0 0.36662,-0.18331 0.91655,-0.54992 2.19971,-1.46647 1.28317,-0.91655 2.01641,-1.28317 0.91654,-0.54993 1.46647,-0.91654 1.46648,-0.73324 2.01641,-0.91655 5.49928,-2.19972 10.08202,-2.19972 2.74964,0 3.11626,0.18331 l 1.83309,2.01641 0,20.71397 -1.83309,1.83309 q -7.88231,0.54993 -11.36519,2.01641 -10.81526,4.76604 -10.81526,14.11483 l 0,59.39226 q 0,2.74964 -3.29957,2.74964 l -17.96432,0 q -2.74965,0 -2.74965,-2.74964 l 0,-95.32092 q 0,-2.74964 2.74965,-2.74964 l 19.79742,0 q 1.28316,0 1.83309,4.58273 z" />
      <path
         id="path4257"
         style=""
         d="m -407.25353,289.5473 q -15.58131,0 -21.2639,-15.03137 -2.74964,-7.51569 -2.74964,-14.29814 l 0,-44.17758 q 0,-6.96576 1.83309,-11.36519 6.41583,-15.21469 20.71397,-15.21469 8.61555,0 17.96433,6.59914 0.73324,-0.36661 0.91655,-0.91654 l 1.83309,-3.66619 19.79742,0 q 2.93295,0 2.93295,2.74964 l 0,94.40437 q 0,23.097 -20.71397,28.9629 -7.14907,2.0164 -19.4308,2.0164 -10.63195,0 -17.4144,-0.91654 -6.59914,-1.09986 -6.59914,-3.8495 l 0,-17.04778 q 0,-0.91655 2.19971,-0.91655 l 1.46648,0 q 7.51569,1.83309 10.44864,2.0164 l 7.14907,0 7.88231,0 q 8.98216,-0.54992 10.44864,-7.51568 -0.54993,-3.11626 -0.54993,-6.23253 -0.18331,-0.73323 -1.28317,-0.36661 -4.58274,2.56633 -7.51569,3.84949 -2.74964,0.91655 -8.06561,0.91655 z m 8.98216,-22.54706 q 8.43224,0 8.43224,-6.78245 l 0,-41.42794 q 0,-6.59914 -8.43224,-6.59914 -8.61554,0 -8.61554,6.59914 l 0,41.42794 q 0,6.78245 8.61554,6.78245 z" />
      <path
         id="path4259"
         style=""
         d="m -1224.9855,518.68411 q -15.5813,0 -21.2639,-15.03137 -2.7497,-7.51569 -2.7497,-14.29814 l 0,-44.17758 q 0,-6.96576 1.8331,-11.36519 6.4159,-15.21469 20.714,-15.21469 8.6155,0 17.9643,6.59915 0.7333,-0.36662 0.9166,-0.91655 l 1.8331,-3.66619 19.7974,0 q 2.9329,0 2.9329,2.74964 l 0,94.40437 q 0,23.097 -20.7139,28.9629 -7.1491,2.0164 -19.4308,2.0164 -10.632,0 -17.4144,-0.91654 -6.5992,-1.09986 -6.5992,-3.8495 l 0,-17.04778 q 0,-0.91655 2.1997,-0.91655 l 1.4665,0 q 7.5157,1.83309 10.4487,2.0164 l 7.149,0 7.8823,0 q 8.9822,-0.54992 10.4487,-7.51568 -0.55,-3.11626 -0.55,-6.23253 -0.1833,-0.73323 -1.2831,-0.36661 -4.5828,2.56633 -7.5157,3.84949 -2.7497,0.91655 -8.0656,0.91655 z m 8.9821,-22.54706 q 8.4323,0 8.4323,-6.78245 l 0,-41.42794 q 0,-6.59914 -8.4323,-6.59914 -8.6155,0 -8.6155,6.59914 l 0,41.42794 q 0,6.78245 8.6155,6.78245 z" />
      <path
         id="path4261"
         style=""
         d="m -1161.9929,442.24407 q -3.2996,0 -3.2996,-2.74965 l 0,-12.28173 q 0,-3.66619 4.7661,-5.68259 2.5663,-1.28317 5.6825,-1.8331 3.6662,-0.91655 6.5992,-1.09986 l 8.0656,0 8.0656,0 q 4.9494,0.18331 9.3488,2.01641 16.1312,6.23252 16.1312,20.71397 l 0,77.35659 q 0,2.74964 -2.9329,2.74964 l -18.8809,0 q -0.3666,0 -0.9165,-0.91654 -1.4665,-2.01641 -1.8331,-2.01641 -0.7333,0 -0.9166,0.18331 -5.6826,2.93295 -7.699,3.66619 -2.7496,0.91655 -6.9657,0.91655 -16.3146,0 -22.1805,-16.86447 -1.8331,-5.49929 -1.8331,-14.66476 0,-26.02994 22.5471,-37.21182 8.9822,-4.39943 17.0478,-7.51569 0.1833,-0.91655 0.1833,-2.38302 0,-5.6826 -5.8659,-6.04921 -0.55,-0.18331 -5.6826,-0.18331 -4.3994,0 -4.7661,0.18331 -11.7318,3.11626 -14.1148,3.66619 l -0.5499,0 z m 16.4978,48.02707 q 0,10.63195 7.1491,10.63195 7.1491,0 7.1491,-3.8495 l 0,-26.94649 q -2.0164,0 -5.6826,3.29957 -8.6156,8.06562 -8.6156,16.86447 z" />
      <path
         id="path4263"
         style=""
         d="m -1090.8918,430.87888 q 0,-6.04921 0.1833,-6.59914 0.3666,-3.66619 2.7496,-3.66619 l 55.7261,0 q 2.933,0 2.933,2.74964 l 0,14.11483 q 0,1.09986 -3.8495,7.699 l -30.2461,51.87657 0,3.29958 31.1626,0 q 2.933,0 2.933,3.29957 l 0,15.03137 q 0,2.74964 -2.933,2.74964 l -58.4757,0 q -2.7497,0 -2.7497,-2.74964 l 0,-17.04778 q 0,-0.73324 2.7497,-5.49928 l 30.246,-52.05989 0,-3.29957 -27.4964,0 q -2.0164,0 -2.7496,-3.29957 -0.1833,-2.19971 -0.1833,-6.59914 z" />
      <path
         id="path4265"
         style=""
         d="m -977.37743,523.26685 q -12.46504,0 -18.88087,-2.74964 -20.714,-9.16548 -20.714,-28.22966 l 0,-43.44434 q 0,-5.86591 2.7497,-12.28174 5.1326,-11.7318 14.1148,-15.03137 7.699,-2.93296 16.86447,-2.93296 7.699,0 14.29814,2.01641 10.26533,2.93295 15.03137,14.11483 3.66619,8.24892 3.8495,15.03137 l 0,12.28174 0,12.28173 q -0.91654,3.29957 -2.74964,3.29957 l -38.8616,0 -0.91655,1.46648 0,11.36518 q 0,4.21612 6.59914,8.43224 3.48288,2.0164 11.91511,2.0164 5.49929,0 6.04922,-0.18331 8.79885,-2.0164 13.19828,-2.74964 0.36662,-0.18331 1.64978,-0.18331 2.19972,0 2.19972,2.01641 l 0,17.04778 q 0,2.38302 -5.6826,3.66619 -1.64978,0.36662 -4.58273,0.91654 -2.74965,0.73324 -3.8495,0.91655 -6.04921,0.91655 -12.28174,0.91655 z m -15.5813,-65.99141 18.69756,0 q 0,-3.48288 -0.36661,-11.18188 -0.54993,-7.69899 -8.43224,-7.69899 -8.98216,0 -9.53209,7.69899 -0.36662,7.699 -0.36662,11.18188 z" />
      <path
         id="path4267"
         style=""
         d="m -933.65813,404.48232 2.38302,-1.8331 17.04778,-5.68259 1.64978,0 q 3.48288,0 3.48288,0.91655 l 0,23.64692 q 7.33238,0.36661 10.81526,0.91654 2.93295,0.18331 2.93295,2.74965 l 0,12.28173 q 0,2.38302 -2.93295,2.93295 -3.48288,0.54993 -10.26533,0.91655 l 0,55.72607 q 0,4.03281 3.66619,4.58274 4.58274,0.73324 9.53209,1.09986 l 0.91655,0.91655 0,15.94792 q 0,3.48288 -5.68259,3.66619 l -6.04921,0 q -10.44864,0 -14.66476,-1.8331 -12.83166,-5.49928 -12.83166,-16.86447 l 0,-62.32521 q 0,-0.73324 -1.28317,-0.91655 -2.0164,-0.54993 -5.68259,-0.91655 l -0.91655,-1.83309 0,-15.21469 q 0,-0.36662 1.83309,-0.91655 1.09986,-0.18331 2.56634,-0.36662 1.64978,-0.36661 2.19971,-0.54992 1.28317,-0.18331 1.28317,-0.91655 l 0,-16.13123 z" />
      <path
         id="path4269"
         style=""
         d="m -879.15222,442.24407 q -3.29957,0 -3.29957,-2.74965 l 0,-12.28173 q 0,-3.66619 4.76604,-5.68259 2.56634,-1.28317 5.6826,-1.8331 3.66619,-0.91655 6.59914,-1.09986 l 8.06561,0 8.06562,0 q 4.94936,0.18331 9.34878,2.01641 16.13124,6.23252 16.13124,20.71397 l 0,77.35659 q 0,2.74964 -2.93296,2.74964 l -18.88087,0 q -0.36662,0 -0.91655,-0.91654 -1.46647,-2.01641 -1.83309,-2.01641 -0.73324,0 -0.91655,0.18331 -5.68259,2.93295 -7.699,3.66619 -2.74964,0.91655 -6.96576,0.91655 -16.31454,0 -22.18044,-16.86447 -1.8331,-5.49929 -1.8331,-14.66476 0,-26.02994 22.54707,-37.21182 8.98216,-4.39943 17.04778,-7.51569 0.18331,-0.91655 0.18331,-2.38302 0,-5.6826 -5.86591,-6.04921 -0.54992,-0.18331 -5.68259,-0.18331 -4.39943,0 -4.76605,0.18331 -11.7318,3.11626 -14.11482,3.66619 l -0.54993,0 z m 16.49785,48.02707 q 0,10.63195 7.14907,10.63195 7.14907,0 7.14907,-3.8495 l 0,-26.94649 q -2.01641,0 -5.6826,3.29957 -8.61554,8.06562 -8.61554,16.86447 z" />
      <path
         id="path4271"
         style=""
         d="m -788.80351,521.43375 -17.04778,0 q -2.74964,0 -2.74964,-2.74964 l 0,-121.71748 q 0,-2.74964 2.74964,-2.74964 l 17.96433,0 q 3.29957,0 3.29957,2.74964 l 0,27.1298 q 1.09985,0 6.96576,-3.48288 0.54993,-0.36662 1.28316,-0.73324 l 0.73324,-0.18331 q 3.11626,-1.09986 8.43224,-1.09986 16.86447,0 21.63051,17.04778 2.01641,7.14907 2.01641,12.28174 l 0,50.04348 q 0,3.29957 -2.01641,10.26533 -4.03281,15.03138 -21.63051,15.03138 -6.23253,0 -10.44864,-1.8331 -2.93295,-1.46647 -5.6826,-2.74964 l -0.91654,0 q -2.01641,0 -4.58274,2.74964 z m 4.58274,-27.31311 q 0,6.78245 8.06561,6.78245 8.06562,0 8.06562,-6.78245 l 0,-46.19398 q 0,-6.59914 -8.06562,-6.59914 -8.06561,0 -8.06561,6.59914 l 0,46.19398 z" />
      <path
         id="path4273"
         style=""
         d="m -735.15975,424.27974 q 0,-3.66619 1.8331,-3.66619 l 19.79742,0 q 2.19971,0 2.74964,2.74964 l 9.53209,46.19399 q 0.54993,3.11626 1.8331,3.11626 1.28316,0 1.83309,-3.11626 l 8.61555,-46.19399 2.74964,-2.74964 20.71397,0 q 1.09986,0 1.09986,3.29957 l 0,2.38302 -21.81383,100.6369 q -3.66619,16.13123 -19.79742,20.89728 -4.03281,0.91654 -11.36519,0.91654 -7.14907,0 -11.18188,-0.91654 -3.84949,-1.09986 -3.84949,-2.93296 l 0,-17.96432 q 0,-0.91655 2.74964,-0.91655 l 1.09985,0 q 3.29957,0.91655 4.58274,0.91655 0.36662,0.18331 2.93295,0.18331 6.59914,0 6.59914,-5.31598 l 0,-2.19971 -20.71397,-93.30452 0,-2.0164 z" />
      <path
         id="path4275"
         style=""
         d="m -650.58248,496.13705 18.88087,0 q 2.74964,0 2.74964,2.74964 l 0,19.79742 q 0,2.74964 -2.74964,2.74964 l -18.88087,0 q -2.74965,0 -2.74965,-2.74964 l 0,-19.79742 q 0,-2.74964 2.74965,-2.74964 z" />
      <path
         id="path4277"
         style=""
         d="m -577.56518,523.26685 q -9.89871,0 -16.49786,-1.8331 -19.79742,-5.49928 -19.79742,-26.39656 l 0,-48.02708 q 0,-20.53066 19.79742,-26.39656 7.14907,-2.01641 16.49786,-2.01641 8.06561,0 12.64835,1.09986 5.68259,1.09986 5.68259,4.58274 l 0,16.13123 q 0,2.93295 -4.03281,2.93295 -2.19971,0 -2.56633,-0.18331 -1.46647,-0.36662 -5.68259,-0.91654 l -4.76605,0 q -6.04921,0 -7.51569,0.91654 -5.68259,4.03281 -5.68259,8.61555 l 0,38.67829 q 0,4.39943 5.68259,8.43224 1.46648,1.09986 7.88231,1.09986 4.76605,0 5.31598,-0.18331 1.46647,-0.36662 5.68259,-0.91655 l 2.0164,0 q 3.66619,0 3.66619,2.74964 l 0,16.13123 q 0,3.48288 -5.68259,4.58274 -1.46648,0.36662 -5.68259,0.91655 l -6.96576,0 z" />
      <path
         id="path4279"
         style=""
         d="m -514.6213,523.26685 q -22.91369,0 -30.61268,-17.78102 -2.74965,-6.59914 -2.74965,-12.28173 l 0,-44.36089 q 0,-5.6826 2.74965,-12.28174 4.94935,-11.36518 14.11482,-15.03137 7.51569,-2.93296 16.49786,-2.93296 6.59914,0 10.81525,1.09986 16.31455,4.21612 20.89728,19.79742 1.8331,6.23253 1.8331,10.26533 l 0,43.44435 q 0,5.68259 -2.74964,12.28173 -5.13267,11.73181 -14.29814,15.03138 -7.699,2.74964 -16.49785,2.74964 z m -8.98217,-28.22966 q 0,7.699 8.98217,7.699 8.98216,0 8.98216,-7.699 l 0,-48.02708 q 0,-7.699 -8.98216,-7.699 -8.98217,0 -8.98217,7.699 l 0,48.02708 z" />
      <path
         id="path4281"
         style=""
         d="m -443.37971,424.27974 q 0.18331,0.18331 0.54993,0.18331 0.36662,0 2.38302,-1.09986 8.43224,-4.76605 15.03138,-4.76605 6.78245,0 11.36518,2.93296 3.48288,2.38302 5.6826,3.66619 1.46647,1.09985 2.38302,1.09985 l 0.36662,0 q 10.81526,-7.699 21.99714,-7.699 8.98216,0 12.09842,2.93296 10.26533,9.16547 10.26533,18.88087 l 0,78.27314 q 0,2.74964 -2.74964,2.74964 l -17.96433,0 q -3.29957,0 -3.29957,-2.74964 l 0,-70.75745 q 0,-5.68259 -8.43223,-5.68259 -8.61555,0 -8.61555,6.59914 l 0,69.8409 q 0,2.74964 -3.29957,2.74964 l -17.96433,0 q -3.29957,0 -3.29957,-2.74964 l 0,-70.75745 q 0,-5.68259 -8.24892,-5.68259 -8.61555,0 -8.61555,6.59914 l 0,69.8409 q 0,2.74964 -3.29957,2.74964 l -17.96433,0 q -2.74964,0 -2.74964,-2.74964 l 0,-95.32092 q 0,-2.74964 2.74964,-2.74964 l 18.88088,0 q 0.54993,0 1.83309,1.83309 0.54993,1.46648 0.91655,1.8331 z" />
      <path
         id="path4283"
         style=""
         d="m -1222.9691,653.59989 q 0.7332,0 2.383,-1.09986 8.0656,-4.76604 15.0314,-4.76604 8.7988,0 13.1983,3.84949 9.532,8.24893 9.532,17.96433 l 0,78.27314 q 0,2.74964 -2.9329,2.74964 l -17.9643,0 q -3.2996,0 -3.2996,-2.74964 l 0,-70.75745 q 0,-5.68259 -8.2489,-5.68259 -8.6156,0 -8.6156,6.59914 l 0,69.8409 q 0,2.74964 -3.2995,2.74964 l -17.9644,0 q -2.7496,0 -2.7496,-2.74964 l 0,-95.32092 q 0,-2.74964 2.7496,-2.74964 l 18.8809,0 q 0.5499,0 1.8331,1.83309 0.5499,1.46648 0.9165,1.8331 0.1834,0.18331 0.55,0.18331 z" />
      <path
         id="path4285"
         style=""
         d="m -1149.8945,747.82095 -24.3802,-95.32092 q -0.5499,-2.74964 1.8331,-2.74964 l 21.6306,0 q 2.0164,0 2.9329,3.66619 l 11.7318,57.19255 1.4665,-1.46647 10.2653,-53.70968 q 1.0999,-5.68259 3.8495,-5.68259 l 19.7974,0 q 1.8331,0 1.8331,3.29957 l 0,0.36662 -23.4636,91.65473 q -1.4665,5.49928 -3.8495,5.49928 l -20.7139,0 -2.933,-2.74964 z" />
      <path
         id="path4287"
         style=""
         d="m -1088.8497,686.41228 37.7618,0 q 2.7496,0 2.7496,2.93295 l 0,15.03138 q 0,2.93295 -2.7496,2.93295 l -37.7618,0 q -2.7496,0 -2.7496,-2.93295 l 0,-15.03138 q 0,-2.93295 2.7496,-2.93295 z" />
      <path
         id="path4289"
         style=""
         d="m -1001.895,752.40369 q -22.9137,0 -30.6127,-17.78102 -2.7496,-6.59914 -2.7496,-12.28173 l 0,-44.36089 q 0,-5.6826 2.7496,-12.28174 4.9494,-11.36518 14.1149,-15.03137 7.5157,-2.93295 16.4978,-2.93295 6.59916,0 10.81527,1.09985 16.31455,4.21612 20.89728,19.79742 1.8331,6.23253 1.8331,10.26533 l 0,43.44435 q 0,5.68259 -2.74965,12.28173 -5.13266,11.73181 -14.29813,15.03138 -7.699,2.74964 -16.49787,2.74964 z m -8.9821,-28.22966 q 0,7.699 8.9821,7.699 8.98218,0 8.98218,-7.699 l 0,-48.02708 q 0,-7.699 -8.98218,-7.699 -8.9821,0 -8.9821,7.699 l 0,48.02708 z" />
      <path
         id="path4291"
         style=""
         d="m -930.10358,653.59989 q 0.73323,0 2.38302,-1.09986 8.06561,-4.76604 15.03137,-4.76604 8.79886,0 13.19829,3.84949 9.53209,8.24893 9.53209,17.96433 l 0,78.27314 q 0,2.74964 -2.93295,2.74964 l -17.96433,0 q -3.29957,0 -3.29957,-2.74964 l 0,-70.75745 q 0,-5.68259 -8.24893,-5.68259 -8.61554,0 -8.61554,6.59914 l 0,69.8409 q 0,2.74964 -3.29957,2.74964 l -17.96433,0 q -2.74964,0 -2.74964,-2.74964 l 0,-95.32092 q 0,-2.74964 2.74964,-2.74964 l 18.88087,0 q 0.54993,0 1.8331,1.83309 0.54993,1.46648 0.91655,1.8331 0.18331,0.18331 0.54993,0.18331 z" />
      <path
         id="path4293"
         style=""
         d="m -873.16025,623.35383 17.96433,0 q 2.74964,0 2.74964,2.74964 l 0,121.71748 q 0,2.74964 -2.74964,2.74964 l -17.96433,0 q -2.74964,0 -2.74964,-2.74964 l 0,-121.71748 q 0,-2.74964 2.74964,-2.74964 z" />
      <path
         id="path4295"
         style=""
         d="m -834.49338,620.42088 17.96433,0 q 2.74964,0 2.74964,2.93295 l 0,15.03137 q 0,2.74964 -2.74964,2.74964 l -17.96433,0 q -2.74964,0 -2.74964,-2.74964 l 0,-15.03137 q 0,-2.93295 2.74964,-2.93295 z m 0,29.32951 17.96433,0 q 2.74964,0 2.74964,2.74964 l 0,95.32092 q 0,2.74964 -2.74964,2.74964 l -17.96433,0 q -2.74964,0 -2.74964,-2.74964 l 0,-95.32092 q 0,-2.74964 2.74964,-2.74964 z" />
      <path
         id="path4297"
         style=""
         d="m -773.64607,653.59989 q 0.73324,0 2.38303,-1.09986 8.06561,-4.76604 15.03137,-4.76604 8.79886,0 13.19829,3.84949 9.53209,8.24893 9.53209,17.96433 l 0,78.27314 q 0,2.74964 -2.93295,2.74964 l -17.96433,0 q -3.29957,0 -3.29957,-2.74964 l 0,-70.75745 q 0,-5.68259 -8.24893,-5.68259 -8.61554,0 -8.61554,6.59914 l 0,69.8409 q 0,2.74964 -3.29957,2.74964 l -17.96433,0 q -2.74964,0 -2.74964,-2.74964 l 0,-95.32092 q 0,-2.74964 2.74964,-2.74964 l 18.88087,0 q 0.54993,0 1.8331,1.83309 0.54993,1.46648 0.91655,1.8331 0.18331,0.18331 0.54992,0.18331 z" />
      <path
         id="path4299"
         style=""
         d="m -679.85753,752.40369 q -12.46504,0 -18.88087,-2.74964 -20.71397,-9.16548 -20.71397,-28.22966 l 0,-43.44434 q 0,-5.86591 2.74964,-12.28174 5.13266,-11.7318 14.11483,-15.03137 7.699,-2.93295 16.86447,-2.93295 7.699,0 14.29814,2.0164 10.26533,2.93295 15.03137,14.11483 3.66619,8.24892 3.8495,15.03137 l 0,12.28174 0,12.28173 q -0.91655,3.29957 -2.74964,3.29957 l -38.86161,0 -0.91654,1.46648 0,11.36518 q 0,4.21612 6.59914,8.43224 3.48288,2.0164 11.91511,2.0164 5.49929,0 6.04921,-0.18331 8.79886,-2.0164 13.19829,-2.74964 0.36661,-0.18331 1.64978,-0.18331 2.19971,0 2.19971,2.01641 l 0,17.04778 q 0,2.38302 -5.68259,3.66619 -1.64978,0.36662 -4.58274,0.91654 -2.74964,0.73324 -3.84949,0.91655 -6.04922,0.91655 -12.28174,0.91655 z m -15.5813,-65.99141 18.69756,0 q 0,-3.48288 -0.36662,-11.18188 -0.54993,-7.69899 -8.43223,-7.69899 -8.98217,0 -9.53209,7.69899 -0.36662,7.699 -0.36662,11.18188 z" />
      <path
         id="path4301"
         style=""
         d="m -633.75521,725.27389 18.88087,0 q 2.74964,0 2.74964,2.74964 l 0,19.79742 q 0,2.74964 -2.74964,2.74964 l -18.88087,0 q -2.74965,0 -2.74965,-2.74964 l 0,-19.79742 q 0,-2.74964 2.74965,-2.74964 z" />
      <path
         id="path4303"
         style=""
         d="m -593.18369,620.42088 17.96433,0 q 2.74964,0 2.74964,2.93295 l 0,15.03137 q 0,2.74964 -2.74964,2.74964 l -17.96433,0 q -2.74964,0 -2.74964,-2.74964 l 0,-15.03137 q 0,-2.93295 2.74964,-2.93295 z m 0,29.32951 17.96433,0 q 2.74964,0 2.74964,2.74964 l 0,95.32092 q 0,2.74964 -2.74964,2.74964 l -17.96433,0 q -2.74964,0 -2.74964,-2.74964 l 0,-95.32092 q 0,-2.74964 2.74964,-2.74964 z" />
      <path
         id="path4305"
         style=""
         d="m -532.33637,653.59989 q 0.73323,0 2.38302,-1.09986 8.06562,-4.76604 15.03138,-4.76604 8.79885,0 13.19828,3.84949 9.53209,8.24893 9.53209,17.96433 l 0,78.27314 q 0,2.74964 -2.93295,2.74964 l -17.96433,0 q -3.29957,0 -3.29957,-2.74964 l 0,-70.75745 q 0,-5.68259 -8.24893,-5.68259 -8.61554,0 -8.61554,6.59914 l 0,69.8409 q 0,2.74964 -3.29957,2.74964 l -17.96433,0 q -2.74964,0 -2.74964,-2.74964 l 0,-95.32092 q 0,-2.74964 2.74964,-2.74964 l 18.88088,0 q 0.54993,0 1.83309,1.83309 0.54993,1.46648 0.91655,1.8331 0.18331,0.18331 0.54993,0.18331 z" />
      <path
         id="path4307"
         style=""
         d="m -475.57635,640.40161 q 0,-12.28174 12.28174,-15.21469 4.21611,-1.09986 11.91511,-1.09986 6.41583,0 6.96576,0.18331 6.59914,0.18331 6.59914,3.66619 l 0,15.21469 -10.26533,0 q -2.0164,0 -2.0164,3.66619 0,2.93295 2.0164,3.8495 5.13267,0.36662 7.51569,0.91654 2.74964,0.54993 2.74964,2.74965 l 0,12.28173 q 0,2.38302 -2.74964,2.93295 -2.93295,0.54993 -8.06562,0.91655 l 0,77.35659 q 0,2.74964 -3.29957,2.74964 l -17.96432,0 q -3.29958,0 -3.29958,-2.74964 l 0,-77.35659 q -3.11626,0.18331 -6.96575,-0.91655 -1.8331,-0.54993 -1.8331,-1.83309 l 0,-14.29814 q 0,-1.28317 1.8331,-1.8331 3.29957,-1.09985 6.59914,-0.91654 l 0,-0.91655 0,-0.91655 q -1.46648,-3.48288 -1.8331,-5.68259 -0.18331,-0.18331 -0.18331,-2.74964 z" />
      <path
         id="path4309"
         style=""
         d="m -396.83065,752.40369 q -22.91369,0 -30.61268,-17.78102 -2.74965,-6.59914 -2.74965,-12.28173 l 0,-44.36089 q 0,-5.6826 2.74965,-12.28174 4.94935,-11.36518 14.11482,-15.03137 7.51569,-2.93295 16.49786,-2.93295 6.59914,0 10.81525,1.09985 16.31455,4.21612 20.89728,19.79742 1.8331,6.23253 1.8331,10.26533 l 0,43.44435 q 0,5.68259 -2.74964,12.28173 -5.13267,11.73181 -14.29814,15.03138 -7.699,2.74964 -16.49785,2.74964 z m -8.98217,-28.22966 q 0,7.699 8.98217,7.699 8.98216,0 8.98216,-7.699 l 0,-48.02708 q 0,-7.699 -8.98216,-7.699 -8.98217,0 -8.98217,7.699 l 0,48.02708 z" />
      <path
         id="path4311"
         style=""
         d="m -1228.1018,979.70744 -17.0478,0 q -2.7496,0 -2.7496,-2.74965 l 0,-121.71748 q 0,-2.74964 2.7496,-2.74964 l 17.9644,0 q 3.2995,0 3.2995,2.74964 l 0,27.1298 q 1.0999,0 6.9658,-3.48288 0.5499,-0.36662 1.2832,-0.73324 l 0.7332,-0.18331 q 3.1163,-1.09985 8.4322,-1.09985 16.8645,0 21.6305,17.04778 2.0164,7.14907 2.0164,12.28173 l 0,50.04348 q 0,3.29957 -2.0164,10.26533 -4.0328,15.03138 -21.6305,15.03138 -6.2325,0 -10.4486,-1.83309 -2.933,-1.46648 -5.6826,-2.74965 l -0.9166,0 q -2.0164,0 -4.5827,2.74965 z m 4.5827,-27.31311 q 0,6.78245 8.0657,6.78245 8.0656,0 8.0656,-6.78245 l 0,-46.19399 q 0,-6.59914 -8.0656,-6.59914 -8.0657,0 -8.0657,6.59914 l 0,46.19399 z" />
      <path
         id="path4313"
         style=""
         d="m -1129.1805,981.54053 q -12.4651,0 -18.8809,-2.74964 -20.714,-9.16548 -20.714,-28.22966 l 0,-43.44434 q 0,-5.86591 2.7497,-12.28174 5.1326,-11.7318 14.1148,-15.03137 7.699,-2.93295 16.8645,-2.93295 7.699,0 14.2981,2.0164 10.2653,2.93295 15.0314,14.11483 3.6662,8.24892 3.8495,15.03137 l 0,12.28174 0,12.28173 q -0.9166,3.29957 -2.7497,3.29957 l -38.8616,0 -0.9165,1.46648 0,11.36519 q 0,4.21611 6.5991,8.43223 3.4829,2.01641 11.9151,2.01641 5.4993,0 6.0493,-0.18331 8.7988,-2.01641 13.1982,-2.74965 0.3667,-0.18331 1.6498,-0.18331 2.1997,0 2.1997,2.01641 l 0,17.04778 q 0,2.38302 -5.6826,3.66619 -1.6497,0.36662 -4.5827,0.91655 -2.7496,0.73323 -3.8495,0.91654 -6.0492,0.91655 -12.2817,0.91655 z m -15.5813,-65.99141 18.6975,0 q 0,-3.48288 -0.3666,-11.18187 -0.5499,-7.699 -8.4322,-7.699 -8.9822,0 -9.5321,7.699 -0.3666,7.69899 -0.3666,11.18187 z" />
      <path
         id="path4315"
         style=""
         d="m -1085.8279,852.49067 17.9644,0 q 2.7496,0 2.7496,2.74964 l 0,121.71748 q 0,2.74965 -2.7496,2.74965 l -17.9644,0 q -2.7496,0 -2.7496,-2.74965 l 0,-121.71748 q 0,-2.74964 2.7496,-2.74964 z" />
      <path
         id="path4317"
         style=""
         d="m -1043.1282,900.51775 q -3.2995,0 -3.2995,-2.74965 l 0,-12.28173 q 0,-3.66619 4.766,-5.68259 2.5663,-1.28317 5.6826,-1.8331 3.6662,-0.91654 6.5991,-1.09985 l 8.0657,0 8.0656,0 q 4.9493,0.18331 9.3488,2.0164 16.13118,6.23252 16.13118,20.71397 l 0,77.35659 q 0,2.74965 -2.93295,2.74965 l -18.88083,0 q -0.3667,0 -0.9166,-0.91655 -1.4665,-2.01641 -1.8331,-2.01641 -0.7332,0 -0.9165,0.18331 -5.6826,2.93295 -7.699,3.66619 -2.7497,0.91655 -6.9658,0.91655 -16.3145,0 -22.1804,-16.86447 -1.8331,-5.49928 -1.8331,-14.66476 0,-26.02994 22.547,-37.21182 8.9822,-4.39943 17.0478,-7.51569 0.1833,-0.91654 0.1833,-2.38302 0,-5.68259 -5.8659,-6.04921 -0.5499,-0.18331 -5.6826,-0.18331 -4.3994,0 -4.766,0.18331 -11.7318,3.11626 -14.1148,3.66619 l -0.55,0 z m 16.4979,48.02708 q 0,10.63195 7.149,10.63195 7.1491,0 7.1491,-3.8495 l 0,-26.94649 q -2.0164,0 -5.6826,3.29957 -8.6155,8.06561 -8.6155,16.86447 z" />
      <path
         id="path4319"
         style=""
         d="m -948.19685,883.46997 q 0.18331,0.18331 0.54993,0.18331 0.36662,0 0.36662,-0.18331 0.91655,-0.54993 2.19971,-1.46648 1.28317,-0.91655 2.01641,-1.28317 0.91654,-0.54992 1.46647,-0.91654 1.46648,-0.73324 2.01641,-0.91655 5.49928,-2.19971 10.08202,-2.19971 2.74964,0 3.11626,0.18331 l 1.83309,2.0164 0,20.71397 -1.83309,1.83309 q -7.88231,0.54993 -11.36519,2.01641 -10.81526,4.76604 -10.81526,14.11483 l 0,59.39226 q 0,2.74965 -3.29957,2.74965 l -17.96432,0 q -2.74965,0 -2.74965,-2.74965 l 0,-95.32092 q 0,-2.74964 2.74965,-2.74964 l 19.79742,0 q 1.28316,0 1.83309,4.58274 z" />
      <path
         id="path4321"
         style=""
         d="m -892.74576,981.54053 q -8.61555,0 -13.19828,-3.66619 -9.34879,-8.24893 -9.34879,-17.96433 l 0,-78.27314 q 0,-2.74964 2.74964,-2.74964 l 17.96433,0 q 3.29957,0 3.29957,2.74964 l 0,71.674 q 0,1.09986 2.38303,2.93295 2.56633,2.01641 5.8659,2.01641 8.61554,0 8.61554,-6.78245 l 0,-69.84091 q 0,-2.74964 3.29957,-2.74964 l 17.96433,0 q 2.93295,0 2.93295,2.74964 l 0,95.32092 q 0,2.74965 -2.93295,2.74965 l -18.88087,0 q -2.56634,0 -2.74965,-4.58274 -0.73323,0.18331 -1.83309,0.91655 -8.61555,5.49928 -16.13123,5.49928 z" />
      <path
         id="path4323"
         style=""
         d="m -839.10188,904.36725 q 0,-21.08059 19.79742,-26.39657 3.66619,-1.09985 12.09843,-1.09985 9.89871,0 14.29814,1.09985 8.79885,1.8331 10.26533,7.51569 0.18331,1.8331 0.18331,5.68259 0,5.13267 -0.18331,5.6826 -0.18331,2.93295 -1.8331,3.66619 -1.46647,0.18331 -4.21611,0.18331 -4.58274,0 -7.14907,-1.09986 -4.94936,-2.0164 -8.24893,-2.0164 -9.7154,0 -9.7154,5.68259 0,4.03281 6.78245,9.53209 l 10.26533,7.51569 q 0.91655,0.54993 6.59914,5.68259 11.36519,10.26533 11.36519,25.84664 0,23.2803 -22.73038,28.77958 -4.58273,0.91655 -13.01497,0.91655 l -7.699,0 q -8.24892,-0.36662 -13.19828,-2.74964 -3.66619,-2.01641 -3.66619,-3.66619 l 0,-17.04778 1.8331,-0.91655 q 5.31597,1.64979 11.36518,2.74964 4.76605,1.09986 10.44864,1.09986 11.18188,0 11.18188,-8.06562 0,-4.39942 -7.51569,-10.81525 -6.41583,-4.39943 -11.36518,-8.61555 -3.48288,-2.93295 -9.34879,-9.34878 -6.59914,-7.51569 -6.59914,-19.79742 z" />
      <path
         id="path4325"
         style=""
         d="m -743.20535,882.73673 q 0.91655,0 1.09986,-0.18331 3.48288,-2.38302 5.68259,-3.66619 3.66619,-2.0164 10.26533,-2.0164 15.76461,0 20.71397,15.21468 2.0164,6.04921 2.0164,10.26533 l 0,52.97644 q 0,3.29957 -2.0164,10.26533 -4.76605,15.94792 -22.18045,15.94792 -5.13266,0 -7.8823,-0.91655 -1.28317,-0.54993 -3.11626,-1.28316 -1.64979,-0.91655 -2.74965,-1.46648 -1.09985,-0.54993 -1.83309,-0.91655 -0.73324,0.36662 -1.28317,0.36662 l 0,25.84659 q 0,2.933 -3.29957,2.933 l -17.96432,0 q -2.74965,0 -2.74965,-2.933 l 0,-121.53413 q 0,-2.74964 2.74965,-2.74964 l 19.79742,0 q 0.54993,0 0.91655,0.91655 1.28316,2.93295 1.83309,2.93295 z m -0.91655,69.6576 q 0,6.78245 8.06562,6.78245 8.06562,0 8.06562,-6.78245 l 0,-46.19399 q 0,-6.59914 -8.06562,-6.59914 -8.06562,0 -8.06562,6.59914 l 0,46.19399 z" />
      <path
         id="path4327"
         style=""
         d="m -681.52161,900.51775 q -3.29957,0 -3.29957,-2.74965 l 0,-12.28173 q 0,-3.66619 4.76605,-5.68259 2.56633,-1.28317 5.68259,-1.8331 3.66619,-0.91654 6.59914,-1.09985 l 8.06562,0 8.06562,0 q 4.94935,0.18331 9.34878,2.0164 16.13123,6.23252 16.13123,20.71397 l 0,77.35659 q 0,2.74965 -2.93295,2.74965 l -18.88088,0 q -0.36661,0 -0.91654,-0.91655 -1.46648,-2.01641 -1.8331,-2.01641 -0.73324,0 -0.91654,0.18331 -5.6826,2.93295 -7.699,3.66619 -2.74964,0.91655 -6.96576,0.91655 -16.31454,0 -22.18045,-16.86447 -1.83309,-5.49928 -1.83309,-14.66476 0,-26.02994 22.54706,-37.21182 8.98217,-4.39943 17.04778,-7.51569 0.18331,-0.91654 0.18331,-2.38302 0,-5.68259 -5.8659,-6.04921 -0.54993,-0.18331 -5.68259,-0.18331 -4.39943,0 -4.76605,0.18331 -11.73181,3.11626 -14.11483,3.66619 l -0.54993,0 z m 16.49785,48.02708 q 0,10.63195 7.14907,10.63195 7.14907,0 7.14907,-3.8495 l 0,-26.94649 q -2.0164,0 -5.68259,3.29957 -8.61555,8.06561 -8.61555,16.86447 z" />
      <path
         id="path4329"
         style=""
         d="m -586.59028,883.46997 q 0.18331,0.18331 0.54993,0.18331 0.36662,0 0.36662,-0.18331 0.91654,-0.54993 2.19971,-1.46648 1.28317,-0.91655 2.0164,-1.28317 0.91655,-0.54992 1.46648,-0.91654 1.46648,-0.73324 2.0164,-0.91655 5.49929,-2.19971 10.08202,-2.19971 2.74965,0 3.11627,0.18331 l 1.83309,2.0164 0,20.71397 -1.83309,1.83309 q -7.88231,0.54993 -11.36519,2.01641 -10.81526,4.76604 -10.81526,14.11483 l 0,59.39226 q 0,2.74965 -3.29957,2.74965 l -17.96433,0 q -2.74964,0 -2.74964,-2.74965 l 0,-95.32092 q 0,-2.74964 2.74964,-2.74964 l 19.79742,0 q 1.28317,0 1.8331,4.58274 z" />
      <path
         id="path4331"
         style=""
         d="m -550.57,862.756 2.38302,-1.8331 17.04778,-5.68259 1.64979,0 q 3.48288,0 3.48288,0.91655 l 0,23.64692 q 7.33238,0.36662 10.81526,0.91654 2.93295,0.18331 2.93295,2.74965 l 0,12.28173 q 0,2.38302 -2.93295,2.93295 -3.48288,0.54993 -10.26533,0.91655 l 0,55.72608 q 0,4.0328 3.66619,4.58273 4.58273,0.73324 9.53209,1.09986 l 0.91655,0.91655 0,15.94792 q 0,3.48288 -5.6826,3.66619 l -6.04921,0 q -10.44864,0 -14.66476,-1.83309 Q -550.57,974.20815 -550.57,962.84296 l 0,-62.32521 q 0,-0.73324 -1.28317,-0.91655 -2.0164,-0.54993 -5.68259,-0.91655 l -0.91655,-1.83309 0,-15.21469 q 0,-0.36662 1.8331,-0.91655 1.09986,-0.1833 2.56633,-0.36661 1.64979,-0.36662 2.19971,-0.54993 1.28317,-0.18331 1.28317,-0.91655 l 0,-16.13123 z" />
      <path
         id="path4333"
         style=""
         d="m -500.0969,849.55772 17.96433,0 q 2.74964,0 2.74964,2.93295 l 0,15.03137 q 0,2.74965 -2.74964,2.74965 l -17.96433,0 q -2.74964,0 -2.74964,-2.74965 l 0,-15.03137 q 0,-2.93295 2.74964,-2.93295 z m 0,29.32951 17.96433,0 q 2.74964,0 2.74964,2.74964 l 0,95.32092 q 0,2.74965 -2.74964,2.74965 l -17.96433,0 q -2.74964,0 -2.74964,-2.74965 l 0,-95.32092 q 0,-2.74964 2.74964,-2.74964 z" />
      <path
         id="path4335"
         style=""
         d="m -467.11262,904.36725 q 0,-21.08059 19.79742,-26.39657 3.66619,-1.09985 12.09843,-1.09985 9.89871,0 14.29814,1.09985 8.79885,1.8331 10.26533,7.51569 0.1833,1.8331 0.1833,5.68259 0,5.13267 -0.1833,5.6826 -0.18331,2.93295 -1.8331,3.66619 -1.46647,0.18331 -4.21612,0.18331 -4.58273,0 -7.14907,-1.09986 -4.94935,-2.0164 -8.24892,-2.0164 -9.7154,0 -9.7154,5.68259 0,4.03281 6.78245,9.53209 l 10.26533,7.51569 q 0.91654,0.54993 6.59914,5.68259 11.36518,10.26533 11.36518,25.84664 0,23.2803 -22.73037,28.77958 -4.58274,0.91655 -13.01497,0.91655 l -7.699,0 q -8.24892,-0.36662 -13.19828,-2.74964 -3.66619,-2.01641 -3.66619,-3.66619 l 0,-17.04778 1.8331,-0.91655 q 5.31597,1.64979 11.36518,2.74964 4.76605,1.09986 10.44864,1.09986 11.18188,0 11.18188,-8.06562 0,-4.39942 -7.51569,-10.81525 -6.41583,-4.39943 -11.36519,-8.61555 -3.48288,-2.93295 -9.34878,-9.34878 -6.59914,-7.51569 -6.59914,-19.79742 z" />
      <path
         id="path4337"
         style=""
         d="m -389.73023,900.51775 q -3.29957,0 -3.29957,-2.74965 l 0,-12.28173 q 0,-3.66619 4.76605,-5.68259 2.56633,-1.28317 5.68259,-1.8331 3.66619,-0.91654 6.59914,-1.09985 l 8.06562,0 8.06562,0 q 4.94935,0.18331 9.34878,2.0164 16.13123,6.23252 16.13123,20.71397 l 0,77.35659 q 0,2.74965 -2.93295,2.74965 l -18.88087,0 q -0.36662,0 -0.91655,-0.91655 -1.46648,-2.01641 -1.8331,-2.01641 -0.73323,0 -0.91654,0.18331 -5.6826,2.93295 -7.699,3.66619 -2.74964,0.91655 -6.96576,0.91655 -16.31454,0 -22.18045,-16.86447 -1.83309,-5.49928 -1.83309,-14.66476 0,-26.02994 22.54706,-37.21182 8.98217,-4.39943 17.04778,-7.51569 0.18331,-0.91654 0.18331,-2.38302 0,-5.68259 -5.8659,-6.04921 -0.54993,-0.18331 -5.68259,-0.18331 -4.39943,0 -4.76605,0.18331 -11.7318,3.11626 -14.11483,3.66619 l -0.54993,0 z m 16.49786,48.02708 q 0,10.63195 7.14907,10.63195 7.14906,0 7.14906,-3.8495 l 0,-26.94649 q -2.0164,0 -5.68259,3.29957 -8.61554,8.06561 -8.61554,16.86447 z" />
      <path
         id="path4339"
         style=""
         d="m -294.24897,882.73673 q 0.73324,0 2.38302,-1.09986 8.06562,-4.76604 15.03138,-4.76604 8.79885,0 13.19828,3.84949 9.53209,8.24893 9.53209,17.96433 l 0,78.27314 q 0,2.74965 -2.93295,2.74965 l -17.96433,0 q -3.29957,0 -3.29957,-2.74965 l 0,-70.75745 q 0,-5.68259 -8.24892,-5.68259 -8.61555,0 -8.61555,6.59914 l 0,69.8409 q 0,2.74965 -3.29957,2.74965 l -17.96433,0 q -2.74964,0 -2.74964,-2.74965 l 0,-95.32092 q 0,-2.74964 2.74964,-2.74964 l 18.88088,0 q 0.54993,0 1.83309,1.83309 0.54993,1.46648 0.91655,1.8331 0.18331,0.18331 0.54993,0.18331 z" />
      <path
         id="path4341"
         style=""
         d="m -234.55587,954.41073 18.88087,0 q 2.74964,0 2.74964,2.74964 l 0,19.79742 q 0,2.74965 -2.74964,2.74965 l -18.88087,0 q -2.74964,0 -2.74964,-2.74965 l 0,-19.79742 q 0,-2.74964 2.74964,-2.74964 z" />
      <path
         id="path4343"
         style=""
         d="m -164.47152,981.54053 q -22.91369,0 -30.61268,-17.78102 -2.74965,-6.59914 -2.74965,-12.28173 l 0,-44.36089 q 0,-5.6826 2.74965,-12.28174 4.94935,-11.36518 14.11482,-15.03137 7.51569,-2.93295 16.49786,-2.93295 6.59914,0 10.81525,1.09985 16.31455,4.21612 20.89728,19.79742 1.8331,6.23253 1.8331,10.26533 l 0,43.44435 q 0,5.68259 -2.74964,12.28173 -5.13267,11.73181 -14.29814,15.03138 -7.699,2.74964 -16.49785,2.74964 z m -8.98217,-28.22966 q 0,7.699 8.98217,7.699 8.98216,0 8.98216,-7.699 l 0,-48.02708 q 0,-7.69899 -8.98216,-7.69899 -8.98217,0 -8.98217,7.69899 l 0,48.02708 z" />
      <path
         id="path4345"
         style=""
         d="m -93.229929,883.46997 q 0.183309,0.18331 0.549928,0.18331 0.366619,0 0.366619,-0.18331 0.916547,-0.54993 2.199714,-1.46648 1.283166,-0.91655 2.016404,-1.28317 0.916547,-0.54992 1.466476,-0.91654 1.466475,-0.73324 2.016404,-0.91655 5.499284,-2.19971 10.08202,-2.19971 2.749642,0 3.116261,0.18331 l 1.833095,2.0164 0,20.71397 -1.833095,1.83309 q -7.882307,0.54993 -11.365187,2.01641 -10.815258,4.76604 -10.815258,14.11483 l 0,59.39226 q 0,2.74965 -3.29957,2.74965 l -17.964332,0 q -2.74964,0 -2.74964,-2.74965 l 0,-95.32092 q 0,-2.74964 2.74964,-2.74964 l 19.797426,0 q 1.283166,0 1.833095,4.58274 z" />
      <path
         id="path4347"
         style=""
         d="m -37.412225,976.95779 q -15.581305,0 -21.263898,-15.03137 -2.749642,-7.51569 -2.749642,-14.29814 l 0,-44.17758 q 0,-6.96576 1.833095,-11.36519 6.415831,-15.21468 20.713969,-15.21468 8.615545,0 17.964328,6.59914 0.733237,-0.36662 0.916547,-0.91655 l 1.833094,-3.66619 19.7974225,0 q 2.9329514,0 2.9329514,2.74964 l 0,94.40438 q 0,23.09699 -20.7139689,28.96285 -7.14907,2.0164 -19.430804,2.0164 -10.631948,0 -17.414399,-0.9165 -6.59914,-1.0999 -6.59914,-3.8495 l 0,-17.04778 q 0,-0.91655 2.199713,-0.91655 l 1.466476,0 q 7.515688,1.8331 10.448639,2.01641 l 7.149069,0 7.882307,0 q 8.982164,-0.54993 10.44864,-7.51569 -0.549929,-3.11626 -0.549929,-6.23252 -0.183309,-0.73324 -1.283166,-0.36662 -4.582736,2.56633 -7.515688,3.8495 -2.749642,0.91654 -8.065616,0.91654 z m 8.982164,-22.54706 q 8.432235,0 8.432235,-6.78245 l 0,-41.42794 q 0,-6.59914 -8.432235,-6.59914 -8.615545,0 -8.615545,6.59914 l 0,41.42794 q 0,6.78245 8.615545,6.78245 z" />
    </g>
  </g>
</svg>
