<?xml version="1.0" encoding="UTF-8" standalone="no"?>
<!-- Created with Inkscape (http://www.inkscape.org/) -->

<svg
   xmlns:dc="http://purl.org/dc/elements/1.1/"
   xmlns:cc="http://creativecommons.org/ns#"
   xmlns:rdf="http://www.w3.org/1999/02/22-rdf-syntax-ns#"
   xmlns:svg="http://www.w3.org/2000/svg"
   xmlns="http://www.w3.org/2000/svg"
   xmlns:sodipodi="http://sodipodi.sourceforge.net/DTD/sodipodi-0.dtd"
   xmlns:inkscape="http://www.inkscape.org/namespaces/inkscape"
   width="702.7486mm"
   height="129.31085mm"
   viewBox="0 0 2490.0541 458.18806"
   id="svg4649"
   version="1.1"
   inkscape:version="0.91pre3 r13670"
   sodipodi:docname="ZianonSign.svg">
  <defs
     id="defs4651" />
  <sodipodi:namedview
     id="base"
     pagecolor="#ffffff"
     bordercolor="#666666"
     borderopacity="1.0"
     inkscape:pageopacity="0.0"
     inkscape:pageshadow="2"
     inkscape:zoom="0.35"
     inkscape:cx="1182.1138"
     inkscape:cy="394.6716"
     inkscape:document-units="px"
     inkscape:current-layer="layer5"
     showgrid="false"
     inkscape:snap-global="false"
     inkscape:window-width="1920"
     inkscape:window-height="1030"
     inkscape:window-x="0"
     inkscape:window-y="0"
     inkscape:window-maximized="1"
     fit-margin-top="0"
     fit-margin-left="0"
     fit-margin-right="0"
     fit-margin-bottom="0" />
  <metadata
     id="metadata4654">
    <rdf:RDF>
      <cc:Work
         rdf:about="">
        <dc:format>image/svg+xml</dc:format>
        <dc:type
           rdf:resource="http://purl.org/dc/dcmitype/StillImage" />
        <dc:title></dc:title>
      </cc:Work>
    </rdf:RDF>
  </metadata>
  <g
     inkscape:groupmode="layer"
     id="layer5"
     inkscape:label="Копия слоя Layer 3"
     style="display:inline"
     transform="translate(1125.0271,-194.69676)">
    <path
       style="color:#000000;font-style:normal;font-variant:normal;font-weight:normal;font-stretch:normal;font-size:medium;line-height:normal;font-family:sans-serif;text-indent:0;text-align:start;text-decoration:none;text-decoration-line:none;text-decoration-style:solid;text-decoration-color:#000000;letter-spacing:normal;word-spacing:normal;text-transform:none;direction:ltr;block-progression:tb;writing-mode:lr-tb;baseline-shift:baseline;text-anchor:start;white-space:normal;clip-rule:nonzero;display:inline;overflow:visible;visibility:visible;opacity:1;isolation:auto;mix-blend-mode:normal;color-interpolation:sRGB;color-interpolation-filters:linearRGB;solid-color:#000000;solid-opacity:1;fill:#000000;fill-opacity:1;fill-rule:evenodd;stroke:none;stroke-width:7;stroke-linecap:round;stroke-linejoin:round;stroke-miterlimit:4;stroke-dasharray:none;stroke-dashoffset:0;stroke-opacity:1;color-rendering:auto;image-rendering:auto;shape-rendering:auto;text-rendering:auto;enable-background:accumulate"
       d="m -854.63075,194.70141 c -34.34885,0.56506 -53.51355,1.9558 -77.58395,4.37696 -48.1409,4.84231 -92.5626,15.88144 -128.5196,28.91015 -17.9785,6.51435 -35.6752,15.28762 -46.3945,23.53711 -10.7193,8.24949 -18.1327,14.86926 -17.8926,25.39063 0.3085,13.51846 6.2333,24.97108 16.0586,34.08205 9.8252,9.11097 24.8913,18.56932 41.1562,24.00391 20.6051,6.88478 23.4429,9.45411 46.2755,12.26562 1.907,0.16876 1.7395,0.23722 0.1699,0.73438 -9.5514,3.00985 -17.1446,4.94141 -31.3575,9.40039 -8.5456,3.47905 -25.478,9.72706 -23.5898,21.15625 0.5967,3.28319 1.6503,7.31609 4.6797,8.37695 3.0294,1.06085 7.9903,2.41318 12.5097,2.54492 9.0388,0.26347 19.4944,-1.45133 34.1485,-3.76758 14.2007,-2.24459 26.0045,-7.36427 44.2852,-12.10937 19.4479,-5.0481 45.5448,-9.83781 66.1523,-15.96485 7.9061,-2.35064 16.2084,-3.74158 24.5215,-4.10937 7.7418,-0.34252 15.8143,-1.27826 26.4941,0.48047 31.64894,5.28931 72.89402,18.07091 76.18167,55.20898 1.48713,16.79873 -3.77942,46.726 -16.36523,78.75196 -1.01962,3.52166 -1.78418,3.8249 -4.85156,3.55078 -7.13126,-0.63687 -21.60093,-1.87658 -25.20313,-2.13282 -37.45795,-2.66462 -67.88565,-1.51419 -112.06255,2.83985 -34.8205,3.43189 -69.4794,8.2516 -93.4863,16.48633 -12.0035,4.11736 -19.4537,10.11126 -26.8125,15.30664 -7.3589,5.19537 -12.3576,11.14539 -13.168,18.125 -0.8092,6.96861 -1.5712,12.72715 2.5547,18.25 4.1259,5.52285 9.7676,10.69545 17.041,14.78125 14.5468,8.1716 38.1539,13.5405 58.7598,17.66406 20.6059,4.12356 41.4693,7.20818 59.4668,7.99805 17.9975,0.78986 32.0876,0.27201 39.5977,-2.17774 48.715,-15.89056 79.9778,-53.48065 98.50388,-92.07422 1.24584,-2.59532 4.57274,-6.1859 7.35547,-5.64648 7.30678,1.41637 16.54852,2.60549 24.08399,4.38281 5.63166,1.32829 11.3403,3.2016 14.29883,4.67578 8.40444,3.59196 1.14183,11.27531 -1.86133,14.67578 -4.53714,5.05314 -12.26316,9.86946 -19.06641,15.16993 -6.80325,5.30047 -16.36402,13.59066 -20.90234,19.7539 -4.53833,6.16325 -3.50887,14.60042 0.16406,22.16406 5.52092,8.78056 20.0115,4.13573 28.74414,-0.9707 10.55622,-6.17276 20.94621,-14.11083 34.46094,-24.29492 16.99299,-12.80515 34.25495,-28.13745 51.03515,-44.39844 9.14482,-8.86186 17.66068,-16.91458 27.8125,-24.4707 2.05259,-1.52778 4.99375,-1.06385 7.33204,-0.13867 10.8462,4.2915 18.50923,11.22658 23.76171,20.41992 1.50898,2.02925 0.58547,2.66782 -0.79492,4.20898 -7.65511,8.56306 -14.43158,18.93813 -18.26758,30.78907 -2.58882,7.9979 -3.55234,16.02019 -2.95898,22.57226 0.29669,3.27603 1.63532,8.35733 3.30469,10.89844 3.68977,4.9292 9.9676,7.05748 14.60547,2.89258 5.89311,-8.3711 10.52502,-19.22363 12.67773,-27.77344 1.84255,-7.41057 3.97227,-14.71493 4.58008,-21.86328 1.15219,-13.55046 -4.01937,-15.30094 2.88281,-22.39063 3.50331,-6.91575 11.48077,-13.5566 20.14453,-21.22461 8.71328,-7.71186 15.68645,-12.54813 26.57617,-21.29297 15.54322,-12.48174 33.06752,-22.22362 49.32618,-29.16992 8.12932,-3.47315 12.67549,-5.44359 17.4375,-6.64843 7.32383,-1.85302 5.54464,3.01942 4.11914,5.62109 -2.46186,4.49314 -6.0649,9.94583 -10.14844,15.98828 -8.16709,12.0849 -18.29308,26.52949 -25.56641,41.35547 -7.82769,15.95599 -15.49479,30.48181 -21.05273,40.93945 -2.8774,5.41403 -4.40211,5.84874 -5.36133,8.48242 -0.75141,2.06311 -2.63877,12.45156 -1.17773,14.32227 5.82324,6.44742 11.59327,5.20028 13.88281,-1.31836 1.13525,-3.24481 -1.15819,-11.2583 3.4043,-14.51562 5.34284,-3.81445 15.52982,-10.38364 29.89648,-19.39844 17.2733,-10.83866 43.93621,-29.56538 60.41211,-40.31445 1.91721,-1.3289 1.6445,0.40971 0.42578,2.10546 -8.19747,11.40607 -11.94898,22.92831 -13.19531,33.22266 -0.62317,5.14717 -0.58669,13.29393 0.76562,17.5957 3.80397,10.98605 14.91886,11.89955 24.09571,9.79102 5.75661,-1.32268 15.62466,-4.18482 23.05468,-7.5 8.93071,-3.98478 16.79103,-7.19376 26.59375,-12.86914 1.53967,-0.89141 1.77215,-1.22645 1.94532,0.48633 0.74556,7.52943 0.91445,11.60611 8.49804,12.03515 1.43191,0.081 4.01631,-0.9494 5.29102,0.57422 1.78585,2.13458 3.45062,2.55176 5.49219,0.42383 2.0247,-2.11034 5.73164,-0.85932 6.3789,-1.41992 4.26045,-3.6901 -2.06878,-2.43784 -3.33594,-2.0918 -5.58442,1.52503 -7.44593,0.73322 -10.96093,-0.0937 -7.59515,-1.78701 -7.42579,-9.44187 -5.66602,-12.76172 1.91025,-3.99479 9.9712,-7.29214 13.68164,-9.72461 16.50137,-10.81794 31.83861,-24.78325 42.46485,-34.93164 4.63988,-6.48468 13.73743,-14.33003 14.35351,-22.01953 0.76024,-9.4888 -6.70718,-11.11293 -13.82031,-11.31055 -3.67741,-0.10217 -10.5866,1.18863 -14.52734,2.89649 -7.8815,3.41573 -13.17507,7.66236 -21.10157,15.49023 -7.9265,7.82787 -15.34224,18.92362 -20.55859,28.38867 -3.2659,5.92597 -6.32177,14.21981 -7.35352,20.62696 -0.32355,2.00929 -0.72684,2.68138 -2.28125,3.57617 -11.09325,6.38582 -21.65438,9.77895 -31.33789,14.09961 -7.17331,3.20064 -9.10493,3.58461 -14.11132,4.93164 -13.34538,3.59071 -17.78847,0.31289 -17.3086,-9.63672 0.67425,-13.97963 7.57795,-27.52218 13.23242,-38.27539 4.50303,-8.61664 11.04065,-16.40444 19.33985,-23.59961 2.45954,-2.1469 5.33942,-4.64766 6.64648,-6.58984 7.75839,-11.5283 -3.66612,-12.25204 -9.49414,-8.46875 -10.71001,8.65297 -13.68204,17.37265 -26.98633,25.41406 -18.0212,10.89243 -36.13833,24.61309 -57.38867,37.94727 -9.42707,5.91529 -16.49293,10.19238 -24.12891,15.48437 -3.68861,2.55633 -5.38576,2.24381 -4.10937,-1.28906 3.08357,-8.53492 7.80048,-16.08289 12.84766,-26.3711 6.93055,-14.12725 16.95459,-26.75489 25.17187,-38.91406 4.10864,-6.07959 7.36359,-11.80308 10.0332,-16.71094 6.54021,-12.02362 6.4039,-24.99549 -8.31054,-22.10937 -5.67693,1.11348 -13.8924,5.08676 -22.30664,8.68164 -16.82848,7.18975 -37.65214,19.15013 -53.9043,32.20117 -11.23562,9.02258 -19.67987,15.90051 -27.92188,24.08789 -8.24201,8.18738 -13.26551,12.34814 -16.54296,14.45508 -1.33829,1.36313 -3.05822,1.97309 -3.73829,0.80664 -7.30408,-8.88827 -15.23264,-15.00218 -26.17578,-19.33203 -5.05971,-1.85625 -3.70054,-2.39995 -0.27929,-6 12.11467,-12.74743 22.90894,-23.33486 32.17968,-34.15234 7.95645,-9.28391 13.08204,-17.61411 19.35743,-25.98438 7.42011,-9.89714 12.8742,-18.93785 15.50585,-27.39648 3.53423,-19.21011 -0.0268,-26.68511 -16.9414,-30.15235 -6.81465,-1.3775 -14.23353,-1.97052 -23.83203,-1.65625 -19.19701,0.62853 -44.21888,4.06507 -61.29492,17.95703 -34.5575,28.11374 -37.30897,74.16708 -10.73243,97.69141 5.88772,5.21154 15.04745,10.02897 22.90821,12.94727 2.74614,0.78157 1.17853,0.72931 -0.50782,2.4707 -24.44265,24.20821 -51.58388,49.80202 -72.68945,63.41016 -13.96739,9.00567 -25.6899,16.65731 -34.60156,20.40039 -3.63903,1.28732 -11.91716,8.51807 -14.05274,4.24218 -2.51058,-5.17003 -1.47595,-5.03225 2.20508,-10.03125 3.68102,-4.999 7.14421,-7.57649 13.88477,-12.82812 6.74056,-5.25163 13.2043,-10.41747 18.45703,-16.26758 5.25272,-5.8501 13.54925,-13.57543 11.66016,-21.16016 -0.91651,-3.6798 -3.82989,-8.01149 -11.75977,-11.65429 -3.82045,-1.75502 -8.64862,-3.43763 -14.59375,-4.83985 -7.10064,-1.67476 -14.56682,-2.51075 -24.34375,-3.3457 -2.01493,-0.17207 -2.00897,-1.1677 -1.50781,-2.45117 12.82445,-32.84321 16.83893,-63.43073 15.08984,-81.97071 -3.33319,-35.33111 -29.85338,-50.5974 -61.0918,-56.83593 54.55049,-1.89613 92.08449,-8.9358 110.48633,-9.03125 2.67176,0.0219 5.21151,-1.74581 3.26758,-2.96094 -1.49685,-0.93568 -8.7457,-0.14886 -10.80273,-0.11133 -21.04317,0.10915 -69.00392,4.60147 -129.49611,6.23242 28.81675,-9.62787 56.74055,-21.23129 79.49611,-33.23437 17.4802,-9.22045 32.12244,-21.19646 42.26953,-32.41408 10.14708,-11.21763 18.12883,-20.51361 16.82422,-34.27344 -1.08993,-11.49559 -12.10784,-23.00425 -23.81836,-29.77539 -11.71051,-6.77114 -26.501,-13.46913 -45.23438,-15.72266 -14.41769,-1.73438 -46.16536,-5.93799 -56.16797,-5.77344 z m -6.99805,9.33399 c 22.48477,0.16505 40.14236,1.16131 58.24415,4.23242 18.10178,3.07111 37.80528,8.27203 47.54492,15.5957 9.29939,6.99263 16.30753,12.75541 17.13867,21.52149 1.09034,11.49983 -4.69535,18.83551 -13.97461,29.09375 -9.27926,10.25824 -22.04355,21.03178 -39.09375,30.02541 -27.57352,14.54447 -62.31341,29.80189 -99.12498,38.5332 -5.883,1.39537 -19.477,-1.91892 -24.2207,-2.08203 -15.9452,-0.4242 -24.581,-0.81855 -39.4375,0.66992 -56.8967,5.7005 -82.5172,-5.07449 -112.463,-15.76367 -18.1688,-6.48541 -28.9757,-13.84999 -37.7226,-21.96094 -8.7468,-8.11095 -13.9888,-15.66244 -12.2129,-27.14455 1.2591,-8.1402 8.0492,-13.39533 17.8418,-20.93164 9.7926,-7.53631 18.9406,-12.50815 39.5098,-20.18164 8.5129,-3.17581 24.334,-7.51518 32.8242,-10.42969 3.2962,-1.1315 5.1364,-2.95324 5.2559,-2.98437 0.1195,-0.0311 3.419,0.79701 6.5957,0.10547 14.8605,-3.23497 57.7712,-12.19477 84.3008,-14.86328 23.8399,-2.39797 46.5093,-3.60059 68.9941,-3.43555 z m 809.124933,14.23437 c -22.5704,0.45955 -50.317503,15.72772 -63.449203,26.70118 -20.7471,17.33731 -39.81841,40.83725 -57.00385,66.16408 -34.37087,50.65364 -56.84346,105.78281 -61.79492,117.64258 -2.6621,6.37627 -9.25194,16.38282 -7.91211,20.99804 0.61528,2.11943 -0.95678,8.23887 -2.55469,10.09766 -1.91395,2.22645 -7.13632,-1.24381 -8.75586,0.21484 -3.48071,3.13492 -5.15622,5.38853 -8.06445,8.91016 -2.26772,2.74602 -5.48098,14.21381 -7.89453,15.92773 -6.05226,4.29787 -10.95705,6.93571 -14.76172,9.61524 -12.44305,8.76328 -14.33923,10.61903 -16.39258,10.52734 -5.30394,-0.23684 -1.31597,3.64873 3.70117,2.98438 1.03781,-0.15217 3.68898,-0.78274 5.48243,-3.34571 2.84355,-4.06366 3.27437,-5.07562 4.7539,-1.68164 0.60138,1.37953 2.76405,-1.63881 4.42774,-2.64257 3.26221,-1.96272 4.94508,-0.81995 3.42187,2.70507 -4.67456,10.81835 -14.23216,33.06176 -24.19922,58.22266 -5.92562,14.95868 -11.14636,29.68581 -13.84179,41.37891 -1.34772,5.84655 -2.59901,13.43627 -2.36641,17.67772 0.1163,2.12072 0.46726,4.06461 1.32031,5.83984 0.85305,1.77523 2.37126,3.39263 4.33203,4.16211 4.68663,1.83921 10.26989,-2.30866 14.20821,-5.71092 3.93832,-3.40227 7.40514,-8.51449 10.85351,-14.99219 6.89675,-12.9554 16.47947,-27.79778 21.75547,-49.10177 6.19015,-24.99526 15.67612,-56.66066 23.70742,-82.30253 1.81833,-6.41867 5.82098,-10.15826 10.8418,-11.61914 1.89202,-0.57418 0.0492,-4.07883 7.26953,-6.29687 1.42265,-0.43703 0.48802,-5.42697 7.62695,-7.79688 3.36071,-1.11565 6.48352,-6.09099 7.53321,-8.91211 1.93583,-6.22022 -4.67723,-12.62858 -10.0293,-11.25586 -8.44266,2.38972 -7.99201,0.20346 -6.61523,-1.79101 5.78747,-8.38402 27.40727,-65.14877 61.34765,-115.16797 16.97019,-25.00962 30.84485,-42.63461 50.72066,-59.38284 19.875803,-16.74821 48.367603,-31.7135 67.658203,-29.05273 19.8662,2.74017 29.7368,10.68673 38.4198999,23.39258 8.68309996,12.70588 12.9811,30.91098 14.4492,48.40432 2.9363,34.98663 -4.3713,72.21508 -8.832,88.75781 -12.2538999,45.44428 -42.0151999,95.92141 -66.5995999,132.71875 -12.2922,18.39867 -23.2774,33.39228 -30.1445,42.74805 -2.333003,3.95229 -6.619603,6.4478 -8.089903,10.67773 -2.441,7.02261 3.541,9.03862 9.429703,3.09961 7.186,-7.24741 54.3008,-57.19556 104.7694999,-108.33594 36.5181001,-37.00404 66.8714001,-65.52823 93.8652971,-96.26562 9.8128,-11.70286 13.6178,-19.10695 10.1425,-6.44727 -6.4981,22.12382 -8.0866,40.19707 -9.3242,44.65234 -1.722597,6.20141 -13.547797,50.89154 -27.046797,102.53907 -8.3666,32.01039 -18.0933,65.2438 -23.0098,90.64843 -2.4583,12.70231 -2.7787,23.13371 -2.9844,31.27149 -0.1028,4.06889 0.1052,7.4598 0.9043,10.31445 0.7991,2.85466 2.5386,5.67762 5.6152,6.49805 6.4506,1.72015 8.7691,1.9659 13.6016,-1.49219 2.3515,-1.91893 6.2517,-7.9055 9.5059,-11.37891 8.6752,-9.25966 17.5068,-23.0081 15.7441,-24.73437 -1.2839,-1.25737 -5.1336,4.54224 -10.0156,10.4668 -5.4411,6.60308 -12.0427,13.57476 -15.2695,15.5332 -11.5083,6.86253 -13.3237,5.02933 -13.0899,-5.03125 0.1713,-7.37064 1.6985,-17.97776 4.1211,-30.49609 4.8453,-25.03667 15.6866,-60.35973 24.0488,-92.35352 13.5099,-51.68878 19.291397,-76.35319 26.306697,-99.82422 4.5248,-15.13884 7.9423,-56.45733 20.2363,-75.71094 7.097,-10.25692 11.0561,-17.78743 14.2539,-30.82421 2.635,-9.68107 -6.2703,-11.38587 -11.4863,-3.29102 -1.9385,3.02614 -4.0919,7.46521 -6.1035,12.59766 -2.301,5.87042 -4.2479,13.06862 -8.3418,19.93164 -4.111,6.89153 -8.2391,13.3735 -14.7344,20.76953 C 76.389133,386.31061 37.386533,424.04399 0.88483286,461.03151 -19.443967,481.63086 -36.035867,500.71306 -52.904267,516.60964 c -6.6963,6.31052 -10.72,8.65178 -2.4433,-4.42578 26.5823,-42.00121 46.3115999,-75.89512 58.9647999,-122.82032 4.5887,-17.01725 13.3622001,-56.4523 10.2988001,-92.95312 -1.5316,-18.25043 -3.6541,-34.76291 -13.32220014,-48.91018 C -9.0742671,233.35296 -24.107967,221.47063 -45.687467,218.62329 c -2.2021,-0.29057 -4.4815,-0.40106 -6.8164,-0.35352 z m 376.931697,1.51953 c -64.3674,0.0771 -128.8341,3.96689 -193.0352,17.8086 -11.1333,2.40033 -18.7807,7.02199 -23.4512,12.85351 -12.066897,13.96967 -8.432697,26.17617 2.1446,35.59961 3.5537,3.16604 5.3733,-4.06483 2.125,-7.69336 -6.6283,-7.40416 0.077,-17.54134 5.6601,-21.29687 4.9242,-3.31235 18.4955,-11.89454 28.4785,-14.04688 68.5448,-14.7782 131.398,-15.84538 194.6739,-15.59765 61.81701,0.24203 124.04791,1.62313 191.41991,2.34375 4.6692,0.0507 11.9407,-3.9225 7.2715,-3.97071 -67.9233,-0.72652 -133.7732,-5.53582 -202.41601,-5.96679 -4.2902,-0.0269 -8.58,-0.0383 -12.8711,-0.0332 z m 766.08977,89.96096 c -1.0287,-0.0339 -1.8476,1.26672 -2.957,1.37891 -8.8759,0.89667 -21.0374,4.83678 -38.1465,16.07226 -32.1399,21.1062 -48.523,49.88506 -62.83006,75.3418 -10.6215,18.89904 -18.3068,36.82875 -20.998,51.79102 -1.3456,7.48113 -2.5347,14.35048 -0.8887,20.21289 1.2645,2.43123 0.2269,3.29717 -1.8086,4.60156 -19.441,12.23265 -44.6806,32.74899 -64.9785,37.33984 -4.2075,0.95161 -6.4227,-0.22789 -8.041,-1.85156 -1.6184,-1.62367 -2.8292,-4.62637 -3.3067,-8.89062 -0.9549,-8.52851 1.7997,-21.39896 6.7598,-34.36328 5.2813,-13.80404 9.4029,-14.5441 17.1699,-26.7168 2.3689,-3.76406 6.893,-14.5272 7.8008,-17.74805 0.9078,-3.22084 1.0477,-6.70727 -1.1621,-9.37305 -1.4403,-1.73748 -3.9387,-2.88461 -6.1817,-2.5664 -2.2429,0.31821 -3.9175,1.54393 -5.4394,3.01758 -3.0439,2.94729 -5.7365,7.41355 -8.4453,12.91601 -3.8943,7.9105 -7.4074,14.83962 -11.4434,24.23633 -3.25,7.56672 -3.082,18.89574 -9.2422,24.13281 -10.9972,9.3493 -30.027,16.02375 -36.834,17.75586 -9.3922,2.38998 -15.5369,-0.67723 -18.7695,-7.8164 -2.3977,-5.44774 -5.0927,-14.45987 -2.1426,-25.77735 0.6283,-2.4102 2.5455,-7.78013 4.086,-9.34375 5.3137,-5.39352 8.7736,-7.17707 12.9551,-12.47461 10.448,-13.23684 17.3055,-25.03767 16.8046,-34.55468 -0.1924,-3.65713 -0.7056,-6.49954 -1.8027,-8.83399 -1.0971,-2.33445 -3.254,-4.34704 -5.8457,-4.63281 -2.5917,-0.28578 -4.7789,0.83742 -6.7148,2.3164 -1.936,1.47899 -3.7592,3.48154 -5.5957,5.94336 -7.3461,9.84729 -15.8804,25.76341 -19.1114,44.91797 -1.0141,6.01221 -0.8227,8.68213 -4.9179,12.47071 -5.6249,5.20361 -11.5606,11.41091 -17.8125,16.0625 -17.184,13.25874 -28.0027,18.47543 -46.2149,25.20703 -11.0405,4.08079 -23.5067,6.51808 -16.8203,-9.12891 4.2591,-9.9668 9.7234,-23.63082 14.2227,-40.34961 4.1542,-15.43675 8.6549,-17.07694 13.8183,-27.05859 3.195,-6.17639 4.9534,-16.35713 3.9024,-23.10547 -1.0825,-6.95024 -11.3012,-7.42188 -15.6153,-1.80078 -2.2234,2.89706 -2.9846,6.523 -4.2871,11.26172 -0.8646,3.14577 -1.2784,6.98092 -1.8398,11.22851 -0.5969,4.51609 -1.3597,9.49906 -3.0078,14.61719 -1.0978,3.40906 -3.964,8.3669 -6.4082,11.30078 -14.7417,17.69479 -17.9479,22.22793 -28.9161,31.98828 -1.8947,1.68613 -19.8425,11.79959 -25.8554,14.90235 -6.013,3.10276 -19.0869,7.25441 -26.3965,9.0625 -7.3096,1.80808 -14.4305,2.10046 -20.0859,-0.18164 -5.6555,-2.28211 -9.6627,-6.07998 -12.4297,-15.94727 -1.41,-4.76894 -0.1467,-6.8381 3.5136,-9.3125 11.928,-8.06979 20.9138,-16.21827 28.9024,-25.14453 10.8332,-12.10481 19.3717,-25.29679 16.0332,-35.97461 -2.5865,-8.27243 -12.7382,-14.66324 -21.0313,-14.00195 -7.7913,0.62128 -16.9354,7.50419 -23.416,15.86523 -10.326,13.32225 -13.5755,29.38316 -12.1992,50.81445 0.4015,6.2523 -2.2925,9.4448 -7.3027,12.33789 -16.4209,9.48201 -20.9061,11.41325 -36.0215,18.71094 -7.1038,3.42968 -26.1964,6.60866 -31.6485,6.33008 -16.5933,-0.84786 -19.1202,-5.61496 -17.7578,-19.30469 2.4047,-24.16205 14.566,-41.33142 23.9727,-58.35937 2.1109,-3.82105 6.7238,-13.14374 9.543,-16.17383 4.4185,-4.74924 7.3198,-8.90839 10.6972,-12.04688 3.0132,-2.80005 5.2978,-5.14196 6.8516,-7.24414 0.7768,-1.05108 1.4028,-2.01568 1.791,-3.28711 0.3882,-1.27141 0.3354,-3.47312 -1.0312,-4.86523 -1.2419,-1.26497 -3.283,-1.94103 -4.961,-1.74609 -1.678,0.19493 -3.0083,0.91793 -4.2637,1.80468 -2.5106,1.77352 -6.1416,9.17229 -9.0761,12.22852 -10.9519,11.40608 -16.6417,14.46813 -24.42,21.44336 -20.3791,18.27527 -44.3211,38.53652 -71.957,61.11328 -8.0386,6.56708 -17.3543,12.83294 -24.5508,19.43164 -2.4718,2.26648 -5.8914,2.45897 -7.9902,0.73242 -11.2919,-9.29531 -18.3118,-14.6062 -29.3418,-26.50195 -6.50321,-7.0137 -16.07571,-12.99897 -18.44531,-15.96094 -2.2179,-2.77243 -3.678,-6.12824 -2.4844,-9.85742 3.8912,-12.15754 14.2783,-26.63088 25.01761,-34.04297 11.5624,-7.65119 21.0908,-13.44627 35.4961,-18.1582 7.2026,-2.35597 14.6945,-3.06451 19.8652,-4.08203 4.7287,-0.93053 8.3381,0.009 10.5371,0.12695 2.571,0.13785 7.7877,-3.48834 7.2793,-7.08594 -0.7394,-5.23337 -9.6763,-3.01011 -15.5058,-3.07422 -6.1792,-0.0679 -19.3765,3.26242 -27.0293,5.76563 -15.3056,5.00642 -25.9044,10.78102 -37.5274,19.81836 -11.46211,11.43712 -23.31001,24.46419 -25.09371,39.98633 -0.5997,5.21819 0.4822,10.60614 3.9785,14.97656 3.3447,4.18089 9.8621,8.80017 17.0644,15.28906 12.60721,11.35838 24.08891,19.9627 35.41411,28.37109 3.6271,2.67348 2.4659,4.00279 -0.1016,6.26758 -9.4136,8.30398 -22.1333,14.04459 -28.9589,21.37696 -7.25651,7.79515 -13.43101,15.58902 -16.39461,22.08007 -7.5479,16.53192 9.3388,23.84967 23.77931,19.65039 7.3726,-2.14392 16.8342,-8.38059 24.1231,-13.76757 7.2888,-5.38698 12.3444,-9.98664 17.3847,-15.98829 5.0404,-6.00162 8.5659,-12.42044 9.0547,-17.96679 0.7092,-8.04555 -2.4824,-15.28028 -10.5937,-16.87695 -1.3189,-0.20916 -4.4469,0.38653 -5.5938,-0.57813 -2.0421,-1.71779 0.9137,-3.04466 2.8418,-4.69141 7.3637,-6.28912 14.7085,-12.9051 22.7071,-19.43945 24.6936,-20.17319 47.0205,-38.10135 66.8984,-56.27344 5.5275,-5.05315 8.505,-5.79493 4.4043,0.23047 -10.4953,15.42143 -15.5,32.01563 -15.5,32.01563 l -0.031,0.0684 -0.029,0.0703 c 0,0 -4.4947,10.09315 -5.8828,21.42773 -2.6323,21.4939 4.3713,34.30921 25.4004,31.41797 5.901,-0.81132 19.1829,-2.70044 27.0039,-5.03906 15.642,-4.67724 25.7682,-10.82227 42.6875,-20.74414 3.6254,-2.12602 5.1363,-3.05796 5.7695,0.48437 2.284,12.77835 6.3991,13.72332 14.0234,18.78125 7.2289,4.79558 18.6496,1.74139 26.7872,-0.27148 8.1375,-2.01288 17.497,-3.65429 23.7578,-6.98438 20.0506,-10.66487 39.1731,-24.52757 52.1093,-38.18945 3.8324,-4.04732 3.8618,-2.5404 2.6426,2.52149 -1.4256,5.91936 -4.7026,10.15397 -5.9219,13.5664 -1.3154,3.68161 -0.5879,6.46761 -2.5937,11.15039 -2.1897,5.11217 -5.166,11.34598 -5.4922,15.17578 -0.1815,4.76708 4.5809,8.37062 9.1328,8.79102 8.2941,0.66992 19.8685,-3.51576 33.1055,-8.93359 13.237,-5.41784 27.1829,-14.58568 40.6894,-24.63477 4.2962,-3.19638 6.0207,-5.20146 10.0157,-8.6875 3.8994,-2.98629 6.2637,-6.07028 6.084,-0.28711 -0.2545,8.385 0.9728,14.5394 3.414,20.08594 6.6031,12.40451 15.604,14.16344 26.7012,10.34765 10.1251,-3.57357 21.1404,-6.71185 33.4336,-17.49804 2.4677,-2.16518 3.3577,-1.27927 2.8945,0.9082 -2.0184,9.53173 -1.7054,15.05385 -0.7402,23.67383 1.7248,11.77145 11.6063,17.88658 22.7773,16.44531 2.6792,-0.38274 11.2276,-3.45073 15.7891,-5.48633 4.5615,-2.0356 17.7049,-8.85873 24.0176,-12.28711 12.6253,-6.85676 11.6353,-9.83052 25.832,-20.58984 4.0616,-3.07819 4.4212,-0.44465 9.1972,2.24023 5.1494,2.89485 15.861,4.62051 26.49996,4.41602 10.6391,-0.20449 23.5391,-1.42602 36.7618,-3.49414 13.2988,-2.08003 22.4235,-4.97592 32.4531,-10.14258 2.8306,-1.45814 4.061,-0.51933 1.6758,2.01367 -10.9228,11.59997 -21.5347,21.49144 -32.1465,32.85157 -5.0817,5.45994 -9.2764,12.26419 -12.0762,15.86718 -5.8538,7.53303 2.086,12.64184 10.961,11.56446 2.7766,-0.33707 5.9865,-1.0983 9.6738,-2.18164 7.3746,-2.16669 16.6333,-5.66801 27.2148,-10.0293 10.4114,-4.29117 21.7115,-10.55225 34.0039,-16.04102 12.6944,-5.66827 26.4218,-10.58844 39.6993,-16.51758 26.1349,-11.67059 50.8782,-18.17407 70.7286,-24.85742 9.9252,-3.34168 18.3765,-5.54266 24.3203,-6.16015 2.9719,-0.30874 5.3056,-0.19371 6.7148,0.16992 1.4093,0.36364 1.7027,0.71631 1.9024,1.14062 11.0553,23.49274 14.8665,57.72834 40.9316,81.50196 18.2919,16.68383 30.7079,26.68608 60.4824,26.93554 17.5962,0.14743 11.4519,-3.55716 -0.6523,-5.37695 -25.7611,-3.87303 -34.2673,-12.80765 -52.0781,-29.05273 -23.7555,-21.66708 -27.0129,-55.31779 -38.8145,-80.39649 -1.2289,-2.6114 -3.9155,-5.50701 -6.6133,-6.20312 -2.6978,-0.69612 -7.9945,-0.71344 -11.459,-0.35352 -6.9289,0.71984 -15.662,3.06418 -25.832,6.48828 -20.34,6.84821 -46.3013,18.08044 -72.4863,29.77344 -13.8098,6.16677 -28.4349,10.69469 -41.5294,16.5332 -11.7344,5.23207 -22.0903,11.86459 -31.9863,15.94336 -10.4696,4.31519 -19.5874,7.74846 -26.5196,9.78516 -19.783,6.90228 -3.197,-6.42556 2.3282,-12.375 9.9978,-10.74216 22.8994,-19.4913 35.4433,-33.92774 6.5392,-7.52577 14.4866,-15.96482 21.4805,-21.38671 18.2029,-14.11147 25.1279,-18.69282 27.9804,-23.28711 5.8633,-9.44359 -4.3116,-13.94705 -11.9882,-7.13282 -2.8195,2.50281 -6.5897,5.65776 -10.5762,10.32618 -15.4389,18.07952 -47.7622,30.04687 -73.3086,36.4746 -12.7109,3.19818 -26.6143,4.35064 -36.8242,4.54688 -10.20986,0.19624 -18.68616,-2.79321 -20.82026,-3.93945 -3.506,-2.38622 -4.7495,-3.4072 -1.4239,-6.00196 6.4834,-5.05976 13.3036,-13.08061 19.6739,-18.58203 16.89086,-14.58707 32.77836,-27.61648 47.05656,-42.16015 22.4633,-22.88089 39.704,-43.00617 46.4336,-53.02149 3.7727,-5.61474 7.9857,-12.19698 10.5879,-19.91601 6.6756,-19.80233 5.7839,-33.12034 -11.627,-33.83985 z m 1.6778,10.03125 c 3.0691,0.0482 4.6779,1.70613 5.4394,4.60742 1.089,4.14906 -1.6955,8.67223 -4.0312,15.74415 -2.3353,7.0719 -6.7967,15.26637 -10.1309,20.22851 -6.0356,8.98246 -25.2379,28.70081 -47.5117,51.38867 -19.0991,19.45421 -37.59296,38.57596 -60.43946,56.54688 -2.9331,2.49415 -2.8792,2.27069 -3.3378,-1.29102 -0.4812,-3.80953 1.1503,-8.39198 2.8203,-13.32812 4.4761,-13.23062 8.4263,-27.69194 18.8222,-46.18946 14.29056,-25.42752 29.95576,-51.17678 60.57026,-71.28125 16.6612,-10.94125 29.7312,-15.54819 36.3926,-16.3457 0.4999,-0.0598 0.9678,-0.087 1.4063,-0.0801 z m -2079.8789,30.32031 c 10.5064,0.0931 50.268,2.72666 49.7676,5.01758 -0.418,1.91333 -15.0825,3.95379 -32.7246,8.30469 -17.0235,4.19833 -37.2283,10.52928 -53.0996,13.05078 -14.4159,2.27859 -26.4089,3.39028 -34.6387,3.15039 -4.115,-0.11994 -7.2967,-0.61061 -9.1504,-1.25976 -1.8538,-0.64915 -1.8893,-1.05094 -1.8907,-1.0586 -0.1337,-0.73612 -0.046,-1.29502 0.5371,-2.23047 0.5834,-0.93544 1.751,-2.1264 3.5235,-3.35156 3.5451,-2.45032 10.4602,-3.74082 17.7734,-6.03515 14.6265,-4.58867 38.2003,-14.75089 58.213,-15.57227 0.4197,-0.0172 0.989,-0.0218 1.6894,-0.0156 z m 374.11135,12.57032 c 5.86535,-0.0172 10.49402,0.2911 15.13476,1.01367 12.79822,1.99278 14.80276,10.83654 11.64453,21.21094 -2.18283,7.17032 -4.85334,14.57895 -12.02343,24.14257 -13.71655,18.29548 -33.16497,39.02674 -56.91016,64.06446 -1.78168,2.46006 -6.16593,3.03854 -8.60938,2.13867 -8.50499,-3.13376 -12.58654,-3.71932 -17.7871,-8.29687 -12.35461,-10.87458 -17.9107,-24.74659 -17.61524,-39.56446 0.28003,-14.04401 5.62394,-28.86194 22.23633,-45.51367 5.70389,-5.71739 13.22294,-10.20814 21.36133,-13.11914 12.01836,-4.29882 25.38596,-5.59762 36.24414,-5.95313 2.27637,-0.0745 4.3691,-0.11732 6.32422,-0.12304 z m 927.15818,2.1582 c -2.3407,0.0112 -5.0381,0.53318 -8.0996,1.64063 -6.4754,2.34228 -20.2663,8.38288 -28.7461,14.56445 -16.9598,12.36316 -30.5042,26.50855 -50.3008,46.63476 -19.7967,20.1262 -39.5541,44.7807 -53.4297,62.42579 -6.9378,8.82254 -13.3501,16.27725 -16.4199,23.05859 -6.5013,14.36151 -7.9961,27.89162 8.0527,29.44336 4.4019,0.42561 5.3214,0.90065 10.7285,-0.58594 4.0863,-1.12346 5.7363,-1.30419 5.2188,2.19336 -0.6619,4.47265 -1.3052,9.272 0.078,13.22656 2.198,6.28335 10.4376,4.72209 15.3847,1.83985 10.3107,-6.00707 19.4022,-15.88009 26.5137,-23.36914 8.7865,-9.28178 20.052,-19.60469 31.5781,-30.60157 5.8444,-5.57597 11.1977,-9.45291 16.8575,-14.7207 7.4573,-6.94085 8.093,-7.58525 5.1386,1.46094 -3.2874,10.0661 -6.0254,18.23193 -7.9687,26.91211 -1.6823,7.51415 -3.1965,9.00439 -2.7461,14.38867 1.5084,18.0339 5.0042,12.45748 6.4531,-0.30469 0.5387,-4.74434 1.4922,-5.27033 3.1231,-12.55469 3.1297,-13.9795 9.8176,-30.672 18.666,-45.78906 4.9357,-8.43243 10.045,-14.90221 15.6484,-21.04101 1.6367,-1.79304 6.3689,-5.95307 4.8652,-7.63868 -2.982,-3.34294 -1.6098,-3.20942 3.752,-3.92578 3.994,-0.53362 7.5168,-8.10713 9.3086,-10.83203 3.7942,-5.77013 4.5897,-13.776 3.3203,-15.65039 -1.355,-2.00074 -2.7528,-3.76266 -5.0625,-4.19336 -7.4214,-1.29698 -13.0905,7.2505 -15.582,9.6836 -2.4916,2.4331 2.5126,-7.02471 3.0078,-7.97657 5.0198,-9.64879 9.8026,-18.12508 11.4082,-25.61523 2.8233,-13.17054 -0.6051,-22.72242 -10.7481,-22.67383 z m 1.1777,9.23828 c 3.3882,0.0561 2.5181,4.02576 0.9062,13.60156 -1.1188,6.64688 -4.0816,12.85505 -8.9531,22.21875 -3.6281,6.97378 -4.4046,13.50011 -7.5117,21.18165 -1.4811,3.6616 -4.7335,8.20675 -6.7559,12.02734 -5.1282,9.68808 -13.5955,19.94519 -20.3007,30.20703 -12.804,19.59539 -48.534,43.42558 -74.8711,54.91211 -4.21,2.17313 -3.2268,0.45791 -2.295,-2.79688 10.7088,-18.36493 16.4321,-39.02915 23.0274,-48.67578 5.0957,-7.45324 -1.7056,-17.2514 -8.0957,-7.22265 -7.2681,11.40668 -18.8421,38.508 -25.1856,56.97656 -1.0851,3.7419 -0.9649,6.09244 -6.0761,7.13477 -5.7557,1.17374 -7.7899,0.92055 -11.5899,0.65429 -10.0201,-0.70211 -6.204,-11.61119 -2.6914,-17.43164 3.5905,-5.9494 8.7022,-12.99396 15.5293,-21.67578 13.6543,-17.36365 31.1874,-39.43291 50.8145,-59.38672 9.3401,-9.49562 23.8796,-19.97835 26.7207,-28.11328 1.2333,-3.53137 1.3249,-4.90169 9.1347,-6.86914 3.4397,-0.8665 13.8248,-11.43267 20.543,-15.54688 8.6528,-5.29892 14.7847,-6.92016 20.0606,-9.0039 3.6291,-1.43336 6.0497,-2.21692 7.5898,-2.19141 z m 147.15231,20.5625 c -0.723,0.0276 -1.3189,0.18923 -1.6718,0.48633 -1.8459,1.55398 -2.3173,6.19026 -4.1016,10.86914 -2.2959,6.02056 -3.9736,11.79946 -8.041,18.4043 -8.1349,13.20967 -5.8207,14.89101 -13.6231,21.60742 -1.768,1.52199 -8.1133,8.91175 -6.1074,7.7207 9.4814,-5.62958 16.5783,-13.71815 24.9766,-27.35547 4.1991,-6.81866 5.9563,-10.51701 9.6035,-16.72265 1.9737,-3.35825 7.351,-8.77858 5.7676,-11.60157 -1.3229,-2.35854 -4.6338,-3.49089 -6.8028,-3.4082 z m 378.4805,14.7793 c 0.7465,0.004 1.1897,1.26533 1.1621,4.79297 -0.041,5.20407 -7.3479,13.88041 -10.3965,19.60156 -2.0333,3.81588 -6.0434,3.65843 -4.1621,-0.16797 7.8165,-15.89771 3.0065,-12.18537 9.3633,-20.13867 1.6119,-2.01677 3.0734,-4.09242 4.0332,-4.08789 z m -195.4902,4.62305 c 4.4298,-0.0204 7.9298,1.10813 8.3847,2.94531 1.6268,6.56905 -1.1904,19.85765 -11.3476,31.20703 -6.6747,7.45808 -12.3497,12.37054 -21.707,19.26758 -3.6221,2.42286 -4.9081,6.19999 -5.0918,1.3457 -0.7047,-18.91884 2.7305,-37.12325 12.5449,-48.04297 4.2869,-4.76971 11.5213,-6.6965 17.2168,-6.72265 z m -331.59381,16.50781 c 0.1718,0.028 0.3,0.19749 0.3789,0.54297 0.4829,2.11363 -1.9344,5.53748 -4.4824,9.65039 -1.228,1.98228 -1.3489,3.95814 -3.1875,5.69922 -3.6971,3.50112 -5.2519,1.81085 -6.8379,2.42968 -2.7657,1.07912 -3.7313,1.98225 -3.0332,0.3418 2.5116,-5.90195 8.7726,-9.52024 12.9727,-14.13867 1.8863,-2.13402 3.445,-4.64681 4.1894,-4.52539 z m -538.06828,12.89258 c 0.35574,0.006 0.66427,0.0901 0.91016,0.26172 1.78455,1.24515 -1.05455,3.69291 -4.74219,7.72265 -7.63998,8.34872 -6.41718,4.80831 -5.61914,0.78906 2.1393,-4.97823 6.961,-8.81205 9.45117,-8.77343 z m -96.6875,7.15625 c 1.58981,-0.0189 3.32322,0.0832 3.99414,0.85742 1.71883,2.89999 -8.05843,12.35073 -12.39843,16.52734 -10.10779,9.65325 -18.32438,21.23442 -34.94727,31.28321 -4.08032,2.46661 -12.03639,11.00864 -10.88672,2.97851 1.93993,-13.54977 14.14137,-21.06876 21.05469,-31.31445 1.25265,-1.92345 -5.09794,-3.54658 -3.45899,-5.125 1.95286,-1.88075 9.30118,-2.22144 11.10938,-3.4375 4.59064,-3.08731 16.18291,-11.51053 24.03711,-11.73047 0.45313,-0.0127 0.96616,-0.0328 1.49609,-0.0391 z m 609.26748,10.46484 c 0.1858,-0.017 0.4059,0.0263 0.67,0.14063 2.1129,0.91433 -4.8486,11.17222 -7.1153,9.38671 -2.2667,-1.78552 1.9888,-2.16021 4.0391,-4.60937 1.4748,-1.76174 1.1063,-4.79894 2.4062,-4.91797 z m -541.3163,21.00195 c 0.11211,0.0105 0.21271,0.0444 0.29882,0.10352 1.50455,1.37397 -14.49957,51.03493 -21.84775,73.99843 -6.64229,20.75754 -13.2872,36.17675 -19.75391,48.32433 -3.23335,6.07379 -6.91139,11.02233 -9.75508,13.36318 -4.4,3.62196 -7.29213,5.97576 -7.66474,-0.38907 -0.17851,-3.04925 0.42446,-7.6907 1.69336,-13.19531 2.53779,-11.00922 8.80276,-25.44633 14.66572,-40.24678 11.72586,-29.6009 28.4131,-65.4997 33.98272,-72.95244 0.60083,-1.50206 -3.12603,-1.25227 -0.44922,-3.04687 2.69335,-1.10788 7.1483,-6.11661 8.83008,-5.95899 z m -609.61913,14.92774 c 15.48867,0.0532 29.64748,0.54262 43.51756,1.52929 2.66019,0.18924 5.88163,1.00475 8.11719,1.34766 2.70668,0.41516 1.74343,2.99313 0.75781,4.79297 -9.1099,16.63566 -17.76246,30.72478 -30.71484,44.38281 -18.94902,19.9814 -42.18922,34.50229 -61.84572,41.33008 -5.0038,1.63222 -21.1234,3.11589 -38.7617,2.3418 -17.6383,-0.7741 -24.2814,-3.03499 -44.6348,-6.10157 -20.9405,-3.15505 -52.8747,-9.73727 -66.3008,-17.27929 -6.713,-3.77101 -8.0407,-4.55278 -11.3281,-8.95313 -3.2873,-4.40036 -5.8468,-9.75642 -5.25,-14.89648 0.4708,-4.05468 4.8879,-11.14877 11.3886,-15.73828 6.5007,-4.58952 12.0533,-9.03496 23.6583,-13.01563 23.2099,-7.96133 54.9609,-14.13727 89.3769,-17.52929 21.8628,-2.15479 44.0617,-1.81423 66.0489,-2.1211 5.4968,-0.0767 10.8078,-0.10767 15.9707,-0.0898 z m 556.86131,9.24218 c -0.81707,-0.0271 -0.17317,3.76075 -1.62304,4.55665 -1.13642,0.44194 -0.88575,-1.75607 -1.70508,-1.38868 -1.59904,0.71702 -3.08402,2.16391 -2.9043,3.78711 0.0811,0.73212 1.2625,1.13677 1.76758,1.32618 0.50507,0.18939 2.65104,0.65234 3.72461,-0.37891 1.07357,-1.03125 2.42146,-1.83787 3.2207,-3.09375 0.31715,-0.49835 0.1528,-1.24731 -0.12695,-1.76758 -1.3092,-2.22771 -1.98212,-3.02869 -2.35352,-3.04102 z m 732.30273,6.32422 c 0.3014,0.008 0.6088,0.0371 0.9218,0.0859 3.7183,0.58058 8.838,6.11968 8.9375,6.25 4.9677,6.22997 -2.3604,17.27436 -5.3125,20.76563 -4.6051,5.48342 -7.6407,9.53491 -14.4882,14.5957 -6.8475,5.06078 -17.5679,10.40276 -23.7559,11.97461 -11.34731,2.88239 -14.01321,-0.14586 -9.4121,-10.41406 2.3381,-5.21794 6.1796,-8.21677 13.1777,-15.73438 6.9689,-7.48622 14.2803,-16.18085 24.1758,-25.02734 1.8041,-1.61282 3.6458,-2.54929 5.7559,-2.4961 z m -739.23632,1.39844 c -0.32142,0.0488 -0.71423,0.37319 -1.22266,0.5332 -0.91294,0.28731 -2.15015,0.21132 -3.0625,0.4043 -1.73923,0.36788 -1.57062,3.48407 -0.1914,4.23047 2.68321,1.45209 2.39921,-2.08408 2.90429,-2.46289 0.50507,-0.37881 3.34784,-0.18039 2.08399,-2.39844 -0.15166,-0.26617 -0.31887,-0.33591 -0.51172,-0.30664 z m -7.61914,1.68164 c -0.0599,-0.008 -0.1276,-0.004 -0.20313,0.0137 -1.35752,0.31312 -2.4847,1.55381 -4.01172,2.42383 -1.11782,0.63688 -2.65545,0.82601 -3.62695,1.55274 -0.43974,0.32894 -0.36842,1.40555 0.12695,1.64257 1.27837,0.61167 2.81225,0.39113 4.22852,0.44141 0.95682,0.034 2.38688,-2.86628 3.18945,-3.0918 0.40291,-0.11321 1.19514,-2.86822 0.29688,-2.98242 z m -302.16992,5.79688 c 2.23638,0.0995 -0.18151,9.7345 -0.67579,12.07422 -0.94429,4.74174 -1.71244,10.52705 -3.04296,15.94921 -1.7523,7.04759 -1.67726,7.68493 -4.29297,11.78125 -5.34943,8.37743 -7.21834,7.76101 -7.88867,0.67188 -0.47193,-4.99091 -0.82039,-9.34002 1.57812,-16.75 0.98134,-3.03175 0.70322,-4.59054 2.16992,-6.79883 1.40946,-2.12211 2.14272,-6.15606 3.61914,-8.44922 1.41173,-2.19267 4.27284,-4.74495 6.16016,-6.8164 1.09277,-1.19938 1.85696,-1.68508 2.37305,-1.66211 z m 290.1914,1.5332 c -0.11393,-0.006 -0.23009,-0.004 -0.34765,0.008 -1.07404,0.11159 -1.79577,0.92281 -2.83789,1.39063 -0.72391,0.32498 -1.81471,0.22276 -2.40039,0.6914 -0.64291,0.51442 -0.85632,1.97991 -0.18946,2.46289 1.04104,0.75399 3.39223,-0.0412 4.57813,-0.53711 1.3455,-0.56263 1.16507,-1.84135 2.52539,-2.36718 0.64386,-0.24889 0.80149,1.377 1.48242,1.26367 1.05053,-0.17484 2.77922,-0.99523 2.33594,-1.83008 -0.46135,-0.86887 -1.755,-0.40617 -2.77149,-0.50976 -0.85492,-0.0872 -1.57749,-0.52872 -2.375,-0.57227 z m 554.41397,2.23047 c 2.4814,-0.17226 -1.5163,4.85571 -8.3261,9.48047 -10.8486,7.36756 -10.8832,9.91805 -20.4473,15.20117 -2.1698,1.15101 -4.5551,1.7326 -4.7852,0.23633 -0.321,-2.08758 2.4476,-4.31134 3.0372,-9.0293 0.352,-2.81714 1.2789,-3.25157 3.5371,-4.12305 7.4011,-2.85633 11.2713,-2.49203 19.2422,-7.78125 4.1494,-2.75345 6.6143,-3.90607 7.7421,-3.98437 z m -568.91397,2.10156 c -0.11592,-0.0114 -0.22289,0.0156 -0.30469,0.0937 -0.49092,0.46915 -0.48291,1.38293 -0.25195,2.02149 0.12509,0.34586 0.80832,0.50605 1.07422,0.25195 0.40578,-0.38778 0.56981,-1.11282 0.37891,-1.64063 -0.11545,-0.31918 -0.54872,-0.6923 -0.89649,-0.72656 z"
       id="path4739-1"
       inkscape:connector-curvature="0"
       sodipodi:nodetypes="sssssssccccsssssscsccsssscssssssssccsscsssssccsscccscsssssssssccsscsscssscsssssccscssssssssssccscsssssssssssccccssccsssccsccsssssssssccsccssssssssssssscssssssscsssssssssssssscssccssssssssccssccsssssssscsssccsssssscssscsssscccssssssssssssscsssssccssccsssccsssscsssssssscsssssssssscssssssssssssssccssssssssssssssssssssscssscsscssscssscssssssscssssscccssssssssssssccssccccssccsssssssccssssssssccsssssssssssccsssssssccsssscsscssccsssssssscsccccscsssssccsssscsssssssssssscssssssssssssscssssssssssccsscssssssssssssssssssssscsssssssccssscsssscscssccsccsscsscsccsscccssssssccccsssscssscssssscccsccssccssccsssssscssssccccsssccccccsssssscccsssssssccsscsssssscsscs" />
  </g>
</svg>
