<?xml version="1.0" encoding="UTF-8" standalone="no"?>
<!-- Created with Inkscape (http://www.inkscape.org/) -->

<svg
   xmlns:dc="http://purl.org/dc/elements/1.1/"
   xmlns:cc="http://creativecommons.org/ns#"
   xmlns:rdf="http://www.w3.org/1999/02/22-rdf-syntax-ns#"
   xmlns:svg="http://www.w3.org/2000/svg"
   xmlns="http://www.w3.org/2000/svg"
   xmlns:sodipodi="http://sodipodi.sourceforge.net/DTD/sodipodi-0.dtd"
   xmlns:inkscape="http://www.inkscape.org/namespaces/inkscape"
   width="60.677776mm"
   height="40.075802mm"
   viewBox="0 0 214.99999 142.00087"
   id="svg2"
   version="1.1"
   inkscape:version="0.91 r"
   sodipodi:docname="zubr.svg">
  <defs
     id="defs4" />
  <sodipodi:namedview
     id="base"
     pagecolor="#ffffff"
     bordercolor="#666666"
     borderopacity="1.0"
     inkscape:pageopacity="0.0"
     inkscape:pageshadow="2"
     inkscape:zoom="7.9195959"
     inkscape:cx="88.07623"
     inkscape:cy="83.235227"
     inkscape:document-units="px"
     inkscape:current-layer="layer2"
     showgrid="true"
     inkscape:snap-global="true"
     inkscape:object-paths="true"
     inkscape:snap-intersection-paths="true"
     inkscape:object-nodes="true"
     inkscape:snap-smooth-nodes="true"
     inkscape:window-width="1920"
     inkscape:window-height="1030"
     inkscape:window-x="0"
     inkscape:window-y="0"
     inkscape:window-maximized="1"
     fit-margin-top="0"
     fit-margin-left="0"
     fit-margin-right="0"
     fit-margin-bottom="0" />
  <metadata
     id="metadata7">
    <rdf:RDF>
      <cc:Work
         rdf:about="">
        <dc:format>image/svg+xml</dc:format>
        <dc:type
           rdf:resource="http://purl.org/dc/dcmitype/StillImage" />
        <dc:title></dc:title>
      </cc:Work>
    </rdf:RDF>
  </metadata>
  <g
     inkscape:label="Layer 1"
     inkscape:groupmode="layer"
     id="layer1"
     style="display:inline"
     transform="translate(-40,-326.36133)" />
  <g
     inkscape:groupmode="layer"
     id="layer2"
     inkscape:label="Layer 2"
     transform="translate(-40,-326.36133)">
    <rect
       style="color:#000000;clip-rule:nonzero;display:inline;overflow:visible;visibility:visible;opacity:1;isolation:auto;mix-blend-mode:normal;color-interpolation:sRGB;color-interpolation-filters:linearRGB;solid-color:#000000;solid-opacity:1;fill:#ffffff;fill-opacity:1;fill-rule:evenodd;stroke:none;stroke-width:15.00000095;stroke-linecap:butt;stroke-linejoin:miter;stroke-miterlimit:4;stroke-dasharray:15.00000095, 15.00000095;stroke-dashoffset:28.50000191;stroke-opacity:1;color-rendering:auto;image-rendering:auto;shape-rendering:auto;text-rendering:auto;enable-background:accumulate"
       id="rect4725"
       width="215"
       height="75.00087"
       x="40"
       y="326.36133" />
    <rect
       style="color:#000000;clip-rule:nonzero;display:inline;overflow:visible;visibility:visible;opacity:1;isolation:auto;mix-blend-mode:normal;color-interpolation:sRGB;color-interpolation-filters:linearRGB;solid-color:#000000;solid-opacity:1;fill:#af1316;fill-opacity:1;fill-rule:evenodd;stroke:none;stroke-width:15.00000095;stroke-linecap:butt;stroke-linejoin:miter;stroke-miterlimit:4;stroke-dasharray:15.00000095, 15.00000095;stroke-dashoffset:28.50000191;stroke-opacity:1;color-rendering:auto;image-rendering:auto;shape-rendering:auto;text-rendering:auto;enable-background:accumulate"
       id="rect4723"
       width="215"
       height="70.999992"
       x="40"
       y="397.36221"
       ry="0" />
    <path
       style="color:#000000;clip-rule:nonzero;display:inline;overflow:visible;visibility:visible;opacity:1;isolation:auto;mix-blend-mode:normal;color-interpolation:sRGB;color-interpolation-filters:linearRGB;solid-color:#000000;solid-opacity:1;fill:#af1316;fill-opacity:1;fill-rule:evenodd;stroke:none;stroke-width:15.00000095;stroke-linecap:butt;stroke-linejoin:miter;stroke-miterlimit:4;stroke-dasharray:15.00000095, 15.00000095;stroke-dashoffset:28.50000191;stroke-opacity:1;color-rendering:auto;image-rendering:auto;shape-rendering:auto;text-rendering:auto;enable-background:accumulate"
       d="m 40,326.36133 0,1 51,0 1,0 51,0 4,0 1,0 4,0 51,0 1,0 51,0 0,-1 -51,0 -1,0 -51,0 -4,0 -1,0 -4,0 -51,0 -1,0 -51,0 z m 0,2 0,2 51,0 1,0 51,0 4,0 1,0 4,0 51,0 1,0 51,0 0,-2 -51,0 -1,0 -51,0 -4,0 -1,0 -4,0 -51,0 -1,0 -51,0 z m 5,4 0,5 1,0 0,1 1,0 0,1 1,0 0,1 1,0 0,-5 -1,0 0,-1 -1,0 0,-1 -1,0 0,-1 -1,0 z m 3,8 -1,0 0,-1 -1,0 0,-1 -1,0 0,-1 -5,0 0,1 1,0 0,1 1,0 0,1 1,0 0,1 5,0 0,-1 z m 5,-8 0,1 -1,0 0,1 -1,0 0,1 -1,0 0,5 1,0 0,-1 1,0 0,-1 1,0 0,-1 1,0 0,-5 -1,0 z m 1,5 0,1 -1,0 0,1 -1,0 0,1 -1,0 0,1 5,0 0,-1 1,0 0,-1 1,0 0,-1 1,0 0,-1 -5,0 z m 9,-5 0,1 1,0 0,-1 -1,0 z m 1,1 0,1 1,0 0,-1 -1,0 z m -1,0 -1,0 0,1 1,0 0,-1 z m 10,-1 0,5 1,0 0,1 1,0 0,1 1,0 0,1 1,0 0,-5 -1,0 0,-1 -1,0 0,-1 -1,0 0,-1 -1,0 z m 3,8 -1,0 0,-1 -1,0 0,-1 -1,0 0,-1 -5,0 0,1 1,0 0,1 1,0 0,1 1,0 0,1 5,0 0,-1 z m 5,-8 0,1 -1,0 0,1 -1,0 0,1 -1,0 0,5 1,0 0,-1 1,0 0,-1 1,0 0,-1 1,0 0,-5 -1,0 z m 1,5 0,1 -1,0 0,1 -1,0 0,1 -1,0 0,1 5,0 0,-1 1,0 0,-1 1,0 0,-1 1,0 0,-1 -5,0 z m 9,-5 0,1 1,0 0,-1 -1,0 z m 1,1 0,1 1,0 0,-1 -1,0 z m -1,0 -1,0 0,1 1,0 0,-1 z m 10,-1 0,5 1,0 0,1 1,0 0,1 1,0 0,1 1,0 0,-5 -1,0 0,-1 -1,0 0,-1 -1,0 0,-1 -1,0 z m 3,8 -1,0 0,-1 -1,0 0,-1 -1,0 0,-1 -5,0 0,1 1,0 0,1 1,0 0,1 1,0 0,1 5,0 0,-1 z m 5,-8 0,1 -1,0 0,1 -1,0 0,1 -1,0 0,5 1,0 0,-1 1,0 0,-1 1,0 0,-1 1,0 0,-5 -1,0 z m 1,5 0,1 -1,0 0,1 -1,0 0,1 -1,0 0,1 5,0 0,-1 1,0 0,-1 1,0 0,-1 1,0 0,-1 -5,0 z m 9,-5 0,1 1,0 0,-1 -1,0 z m 1,1 0,1 1,0 0,-1 -1,0 z m -1,0 -1,0 0,1 1,0 0,-1 z m 10,-1 0,5 1,0 0,1 1,0 0,1 1,0 0,1 1,0 0,-5 -1,0 0,-1 -1,0 0,-1 -1,0 0,-1 -1,0 z m 3,8 -1,0 0,-1 -1,0 0,-1 -1,0 0,-1 -5,0 0,1 1,0 0,1 1,0 0,1 1,0 0,1 5,0 0,-1 z m 5,-8 0,1 -1,0 0,1 -1,0 0,1 -1,0 0,5 1,0 0,-1 1,0 0,-1 1,0 0,-1 1,0 0,-5 -1,0 z m 1,5 0,1 -1,0 0,1 -1,0 0,1 -1,0 0,1 5,0 0,-1 1,0 0,-1 1,0 0,-1 1,0 0,-1 -5,0 z m 9,-5 0,1 1,0 0,-1 -1,0 z m 1,1 0,1 1,0 0,-1 -1,0 z m -1,0 -1,0 0,1 1,0 0,-1 z m 10,-1 0,5 1,0 0,1 1,0 0,1 1,0 0,1 1,0 0,-5 -1,0 0,-1 -1,0 0,-1 -1,0 0,-1 -1,0 z m 3,8 -1,0 0,-1 -1,0 0,-1 -1,0 0,-1 -5,0 0,1 1,0 0,1 1,0 0,1 1,0 0,1 5,0 0,-1 z m 5,-8 0,1 -1,0 0,1 -1,0 0,1 -1,0 0,5 1,0 0,-1 1,0 0,-1 1,0 0,-1 1,0 0,-5 -1,0 z m 1,5 0,1 -1,0 0,1 -1,0 0,1 -1,0 0,1 5,0 0,-1 1,0 0,-1 1,0 0,-1 1,0 0,-1 -5,0 z m 9,-5 0,1 1,0 0,-1 -1,0 z m 1,1 0,1 1,0 0,-1 -1,0 z m -1,0 -1,0 0,1 1,0 0,-1 z m 10,-1 0,5 1,0 0,1 1,0 0,1 1,0 0,1 1,0 0,-5 -1,0 0,-1 -1,0 0,-1 -1,0 0,-1 -1,0 z m 3,8 -1,0 0,-1 -1,0 0,-1 -1,0 0,-1 -5,0 0,1 1,0 0,1 1,0 0,1 1,0 0,1 5,0 0,-1 z m 5,-8 0,1 -1,0 0,1 -1,0 0,1 -1,0 0,5 1,0 0,-1 1,0 0,-1 1,0 0,-1 1,0 0,-5 -1,0 z m 1,5 0,1 -1,0 0,1 -1,0 0,1 -1,0 0,1 5,0 0,-1 1,0 0,-1 1,0 0,-1 1,0 0,-1 -5,0 z m 9,-5 0,1 1,0 0,-1 -1,0 z m 1,1 0,1 1,0 0,-1 -1,0 z m -1,0 -1,0 0,1 1,0 0,-1 z m 10,-1 0,5 1,0 0,1 1,0 0,1 1,0 0,1 1,0 0,-5 -1,0 0,-1 -1,0 0,-1 -1,0 0,-1 -1,0 z m 3,8 -1,0 0,-1 -1,0 0,-1 -1,0 0,-1 -5,0 0,1 1,0 0,1 1,0 0,1 1,0 0,1 5,0 0,-1 z m 5,-8 0,1 -1,0 0,1 -1,0 0,1 -1,0 0,5 1,0 0,-1 1,0 0,-1 1,0 0,-1 1,0 0,-5 -1,0 z m 1,5 0,1 -1,0 0,1 -1,0 0,1 -1,0 0,1 5,0 0,-1 1,0 0,-1 1,0 0,-1 1,0 0,-1 -5,0 z m 9,-5 0,1 1,0 0,-1 -1,0 z m 1,1 0,1 1,0 0,-1 -1,0 z m -1,0 -1,0 0,1 1,0 0,-1 z m 10,-1 0,5 1,0 0,1 1,0 0,1 1,0 0,1 1,0 0,-5 -1,0 0,-1 -1,0 0,-1 -1,0 0,-1 -1,0 z m 3,8 -1,0 0,-1 -1,0 0,-1 -1,0 0,-1 -5,0 0,1 1,0 0,1 1,0 0,1 1,0 0,1 5,0 0,-1 z m 5,-8 0,1 -1,0 0,1 -1,0 0,1 -1,0 0,5 1,0 0,-1 1,0 0,-1 1,0 0,-1 1,0 0,-5 -1,0 z m 1,5 0,1 -1,0 0,1 -1,0 0,1 -1,0 0,1 5,0 0,-1 1,0 0,-1 1,0 0,-1 1,0 0,-1 -5,0 z m -187,-2 0,1 1,0 0,-1 -1,0 z m 1,1 0,1 1,0 0,-1 -1,0 z m 0,1 -1,0 0,2 1,0 0,-2 z m 0,2 0,1 1,0 0,-1 -1,0 z m 1,1 0,1 1,0 0,-1 -1,0 z m 1,1 0,1 1,0 0,-1 -1,0 z m 0,1 -1,0 0,1 1,0 0,-1 z m -1,1 -1,0 0,1 1,0 0,-1 z m -1,1 -1,0 0,2 1,0 0,-2 z m 0,2 0,1 1,0 0,-1 -1,0 z m 0,1 -1,0 0,1 1,0 0,-1 z m -1,0 0,-1 -1,0 0,1 1,0 z m 0,-3 0,-1 -1,0 0,1 1,0 z m -1,-1 0,-1 -1,0 0,1 1,0 z m -1,-1 0,-1 -1,0 0,1 1,0 z m 0,-1 1,0 0,-1 -1,0 0,1 z m 1,-1 1,0 0,-1 -1,0 0,1 z m 1,-3 0,-1 -1,0 0,1 1,0 z m 28,-2 0,1 1,0 0,-1 -1,0 z m 1,1 0,1 1,0 0,-1 -1,0 z m 0,1 -1,0 0,2 1,0 0,-2 z m 0,2 0,1 1,0 0,-1 -1,0 z m 1,1 0,1 1,0 0,-1 -1,0 z m 1,1 0,1 1,0 0,-1 -1,0 z m 0,1 -1,0 0,1 1,0 0,-1 z m -1,1 -1,0 0,1 1,0 0,-1 z m -1,1 -1,0 0,2 1,0 0,-2 z m 0,2 0,1 1,0 0,-1 -1,0 z m 0,1 -1,0 0,1 1,0 0,-1 z m -1,0 0,-1 -1,0 0,1 1,0 z m 0,-3 0,-1 -1,0 0,1 1,0 z m -1,-1 0,-1 -1,0 0,1 1,0 z m -1,-1 0,-1 -1,0 0,1 1,0 z m 0,-1 1,0 0,-1 -1,0 0,1 z m 1,-1 1,0 0,-1 -1,0 0,1 z m 1,-3 0,-1 -1,0 0,1 1,0 z m 28,-2 0,1 1,0 0,-1 -1,0 z m 1,1 0,1 1,0 0,-1 -1,0 z m 0,1 -1,0 0,2 1,0 0,-2 z m 0,2 0,1 1,0 0,-1 -1,0 z m 1,1 0,1 1,0 0,-1 -1,0 z m 1,1 0,1 1,0 0,-1 -1,0 z m 0,1 -1,0 0,1 1,0 0,-1 z m -1,1 -1,0 0,1 1,0 0,-1 z m -1,1 -1,0 0,2 1,0 0,-2 z m 0,2 0,1 1,0 0,-1 -1,0 z m 0,1 -1,0 0,1 1,0 0,-1 z m -1,0 0,-1 -1,0 0,1 1,0 z m 0,-3 0,-1 -1,0 0,1 1,0 z m -1,-1 0,-1 -1,0 0,1 1,0 z m -1,-1 0,-1 -1,0 0,1 1,0 z m 0,-1 1,0 0,-1 -1,0 0,1 z m 1,-1 1,0 0,-1 -1,0 0,1 z m 1,-3 0,-1 -1,0 0,1 1,0 z m 28,-2 0,1 1,0 0,-1 -1,0 z m 1,1 0,1 1,0 0,-1 -1,0 z m 0,1 -1,0 0,2 1,0 0,-2 z m 0,2 0,1 1,0 0,-1 -1,0 z m 1,1 0,1 1,0 0,-1 -1,0 z m 1,1 0,1 1,0 0,-1 -1,0 z m 0,1 -1,0 0,1 1,0 0,-1 z m -1,1 -1,0 0,1 1,0 0,-1 z m -1,1 -1,0 0,2 1,0 0,-2 z m 0,2 0,1 1,0 0,-1 -1,0 z m 0,1 -1,0 0,1 1,0 0,-1 z m -1,0 0,-1 -1,0 0,1 1,0 z m 0,-3 0,-1 -1,0 0,1 1,0 z m -1,-1 0,-1 -1,0 0,1 1,0 z m -1,-1 0,-1 -1,0 0,1 1,0 z m 0,-1 1,0 0,-1 -1,0 0,1 z m 1,-1 1,0 0,-1 -1,0 0,1 z m 1,-3 0,-1 -1,0 0,1 1,0 z m 28,-2 0,1 1,0 0,-1 -1,0 z m 1,1 0,1 1,0 0,-1 -1,0 z m 0,1 -1,0 0,2 1,0 0,-2 z m 0,2 0,1 1,0 0,-1 -1,0 z m 1,1 0,1 1,0 0,-1 -1,0 z m 1,1 0,1 1,0 0,-1 -1,0 z m 0,1 -1,0 0,1 1,0 0,-1 z m -1,1 -1,0 0,1 1,0 0,-1 z m -1,1 -1,0 0,2 1,0 0,-2 z m 0,2 0,1 1,0 0,-1 -1,0 z m 0,1 -1,0 0,1 1,0 0,-1 z m -1,0 0,-1 -1,0 0,1 1,0 z m 0,-3 0,-1 -1,0 0,1 1,0 z m -1,-1 0,-1 -1,0 0,1 1,0 z m -1,-1 0,-1 -1,0 0,1 1,0 z m 0,-1 1,0 0,-1 -1,0 0,1 z m 1,-1 1,0 0,-1 -1,0 0,1 z m 1,-3 0,-1 -1,0 0,1 1,0 z m 28,-2 0,1 1,0 0,-1 -1,0 z m 1,1 0,1 1,0 0,-1 -1,0 z m 0,1 -1,0 0,2 1,0 0,-2 z m 0,2 0,1 1,0 0,-1 -1,0 z m 1,1 0,1 1,0 0,-1 -1,0 z m 1,1 0,1 1,0 0,-1 -1,0 z m 0,1 -1,0 0,1 1,0 0,-1 z m -1,1 -1,0 0,1 1,0 0,-1 z m -1,1 -1,0 0,2 1,0 0,-2 z m 0,2 0,1 1,0 0,-1 -1,0 z m 0,1 -1,0 0,1 1,0 0,-1 z m -1,0 0,-1 -1,0 0,1 1,0 z m 0,-3 0,-1 -1,0 0,1 1,0 z m -1,-1 0,-1 -1,0 0,1 1,0 z m -1,-1 0,-1 -1,0 0,1 1,0 z m 0,-1 1,0 0,-1 -1,0 0,1 z m 1,-1 1,0 0,-1 -1,0 0,1 z m 1,-3 0,-1 -1,0 0,1 1,0 z m 28,-2 0,1 1,0 0,-1 -1,0 z m 1,1 0,1 1,0 0,-1 -1,0 z m 0,1 -1,0 0,2 1,0 0,-2 z m 0,2 0,1 1,0 0,-1 -1,0 z m 1,1 0,1 1,0 0,-1 -1,0 z m 1,1 0,1 1,0 0,-1 -1,0 z m 0,1 -1,0 0,1 1,0 0,-1 z m -1,1 -1,0 0,1 1,0 0,-1 z m -1,1 -1,0 0,2 1,0 0,-2 z m 0,2 0,1 1,0 0,-1 -1,0 z m 0,1 -1,0 0,1 1,0 0,-1 z m -1,0 0,-1 -1,0 0,1 1,0 z m 0,-3 0,-1 -1,0 0,1 1,0 z m -1,-1 0,-1 -1,0 0,1 1,0 z m -1,-1 0,-1 -1,0 0,1 1,0 z m 0,-1 1,0 0,-1 -1,0 0,1 z m 1,-1 1,0 0,-1 -1,0 0,1 z m 1,-3 0,-1 -1,0 0,1 1,0 z m -182,4 0,1 1,0 0,-1 -1,0 z m 14,0 0,1 1,0 0,-1 -1,0 z m 14,0 0,1 1,0 0,-1 -1,0 z m 14,0 0,1 1,0 0,-1 -1,0 z m 14,0 0,1 1,0 0,-1 -1,0 z m 14,0 0,1 1,0 0,-1 -1,0 z m 14,0 0,1 1,0 0,-1 -1,0 z m 14,0 0,1 1,0 0,-1 -1,0 z m 14,0 0,1 1,0 0,-1 -1,0 z m 14,0 0,1 1,0 0,-1 -1,0 z m 14,0 0,1 1,0 0,-1 -1,0 z m 14,0 0,1 1,0 0,-1 -1,0 z m 14,0 0,1 1,0 0,-1 -1,0 z m 14,0 0,1 1,0 0,-1 -1,0 z m 14,0 0,1 1,0 0,-1 -1,0 z m -194,1 0,1 1,0 0,1 1,0 0,1 1,0 0,1 5,0 0,-1 -1,0 0,-1 -1,0 0,-1 -1,0 0,-1 -5,0 z m 3,4 -1,0 0,-1 -1,0 0,-1 -1,0 0,-1 -1,0 0,5 1,0 0,1 1,0 0,1 1,0 0,1 1,0 0,-5 z m 25,-4 0,1 1,0 0,1 1,0 0,1 1,0 0,1 5,0 0,-1 -1,0 0,-1 -1,0 0,-1 -1,0 0,-1 -5,0 z m 3,4 -1,0 0,-1 -1,0 0,-1 -1,0 0,-1 -1,0 0,5 1,0 0,1 1,0 0,1 1,0 0,1 1,0 0,-5 z m 17,-4 0,1 -1,0 0,1 -1,0 0,1 -1,0 0,1 5,0 0,-1 1,0 0,-1 1,0 0,-1 1,0 0,-1 -5,0 z m 5,1 0,1 -1,0 0,1 -1,0 0,1 -1,0 0,5 1,0 0,-1 1,0 0,-1 1,0 0,-1 1,0 0,-5 -1,0 z m 23,-1 0,1 -1,0 0,1 -1,0 0,1 -1,0 0,1 5,0 0,-1 1,0 0,-1 1,0 0,-1 1,0 0,-1 -5,0 z m 5,1 0,1 -1,0 0,1 -1,0 0,1 -1,0 0,5 1,0 0,-1 1,0 0,-1 1,0 0,-1 1,0 0,-5 -1,0 z m 31,-1 0,1 1,0 0,1 1,0 0,1 1,0 0,1 5,0 0,-1 -1,0 0,-1 -1,0 0,-1 -1,0 0,-1 -5,0 z m 3,4 -1,0 0,-1 -1,0 0,-1 -1,0 0,-1 -1,0 0,5 1,0 0,1 1,0 0,1 1,0 0,1 1,0 0,-5 z m 25,-4 0,1 1,0 0,1 1,0 0,1 1,0 0,1 5,0 0,-1 -1,0 0,-1 -1,0 0,-1 -1,0 0,-1 -5,0 z m 3,4 -1,0 0,-1 -1,0 0,-1 -1,0 0,-1 -1,0 0,5 1,0 0,1 1,0 0,1 1,0 0,1 1,0 0,-5 z m 17,-4 0,1 -1,0 0,1 -1,0 0,1 -1,0 0,1 5,0 0,-1 1,0 0,-1 1,0 0,-1 1,0 0,-1 -5,0 z m 5,1 0,1 -1,0 0,1 -1,0 0,1 -1,0 0,5 1,0 0,-1 1,0 0,-1 1,0 0,-1 1,0 0,-5 -1,0 z m 23,-1 0,1 -1,0 0,1 -1,0 0,1 -1,0 0,1 5,0 0,-1 1,0 0,-1 1,0 0,-1 1,0 0,-1 -5,0 z m 5,1 0,1 -1,0 0,1 -1,0 0,1 -1,0 0,5 1,0 0,-1 1,0 0,-1 1,0 0,-1 1,0 0,-5 -1,0 z m -201,-0.99805 0,1 -1,0 0,1 -1,0 0,1 -1,0 0,1 5,0 0,-1 1,0 0,-1 1,0 0,-1 1,0 0,-1 -5,0 z m 5,1 0,1 -1,0 0,1 -1,0 0,1 -1,0 0,5 1,0 0,-1 1,0 0,-1 1,0 0,-1 1,0 0,-5 -1,0 z m 23,-1 0,1 -1,0 0,1 -1,0 0,1 -1,0 0,1 5,0 0,-1 1,0 0,-1 1,0 0,-1 1,0 0,-1 -5,0 z m 5,1 0,1 -1,0 0,1 -1,0 0,1 -1,0 0,5 1,0 0,-1 1,0 0,-1 1,0 0,-1 1,0 0,-5 -1,0 z m 31,-1 0,1 1,0 0,1 1,0 0,1 1,0 0,1 5,0 0,-1 -1,0 0,-1 -1,0 0,-1 -1,0 0,-1 -5,0 z m 3,4 -1,0 0,-1 -1,0 0,-1 -1,0 0,-1 -1,0 0,5 1,0 0,1 1,0 0,1 1,0 0,1 1,0 0,-5 z m 25,-4 0,1 1,0 0,1 1,0 0,1 1,0 0,1 5,0 0,-1 -1,0 0,-1 -1,0 0,-1 -1,0 0,-1 -5,0 z m 3,4 -1,0 0,-1 -1,0 0,-1 -1,0 0,-1 -1,0 0,5 1,0 0,1 1,0 0,1 1,0 0,1 1,0 0,-5 z m 17,-4 0,1 -1,0 0,1 -1,0 0,1 -1,0 0,1 5,0 0,-1 1,0 0,-1 1,0 0,-1 1,0 0,-1 -5,0 z m 5,1 0,1 -1,0 0,1 -1,0 0,1 -1,0 0,5 1,0 0,-1 1,0 0,-1 1,0 0,-1 1,0 0,-5 -1,0 z m 23,-1 0,1 -1,0 0,1 -1,0 0,1 -1,0 0,1 5,0 0,-1 1,0 0,-1 1,0 0,-1 1,0 0,-1 -5,0 z m 5,1 0,1 -1,0 0,1 -1,0 0,1 -1,0 0,5 1,0 0,-1 1,0 0,-1 1,0 0,-1 1,0 0,-5 -1,0 z m 31,-1 0,1 1,0 0,1 1,0 0,1 1,0 0,1 5,0 0,-1 -1,0 0,-1 -1,0 0,-1 -1,0 0,-1 -5,0 z m 3,4 -1,0 0,-1 -1,0 0,-1 -1,0 0,-1 -1,0 0,5 1,0 0,1 1,0 0,1 1,0 0,1 1,0 0,-5 z m 25,-4 0,1 1,0 0,1 1,0 0,1 1,0 0,1 5,0 0,-1 -1,0 0,-1 -1,0 0,-1 -1,0 0,-1 -5,0 z m 3,4 -1,0 0,-1 -1,0 0,-1 -1,0 0,-1 -1,0 0,5 1,0 0,1 1,0 0,1 1,0 0,1 1,0 0,-5 z m -188,2.99805 0,1 1,0 0,-1 -1,0 z m 1,1 0,1 1,0 0,-1 -1,0 z m 1,0 1,0 0,-1 -1,0 0,1 z m 26,-1 0,1 1,0 0,-1 -1,0 z m 1,1 0,1 1,0 0,-1 -1,0 z m 1,0 1,0 0,-1 -1,0 0,1 z m 26,-1 0,1 1,0 0,-1 -1,0 z m 1,1 0,1 1,0 0,-1 -1,0 z m 1,0 1,0 0,-1 -1,0 0,1 z m 26,-1 0,1 1,0 0,-1 -1,0 z m 1,1 0,1 1,0 0,-1 -1,0 z m 1,0 1,0 0,-1 -1,0 0,1 z m 26,-1 0,1 1,0 0,-1 -1,0 z m 1,1 0,1 1,0 0,-1 -1,0 z m 1,0 1,0 0,-1 -1,0 0,1 z m 26,-1 0,1 1,0 0,-1 -1,0 z m 1,1 0,1 1,0 0,-1 -1,0 z m 1,0 1,0 0,-1 -1,0 0,1 z m 26,-1 0,1 1,0 0,-1 -1,0 z m 1,1 0,1 1,0 0,-1 -1,0 z m 1,0 1,0 0,-1 -1,0 0,1 z m -170,5 0,1 -2,0 0,1 -4,0 0,1 -3,0 0,1 -4,0 0,1 -2,0 0,1 -1,0 0,2 -1,0 0,2 -1,0 0,1 -1,0 0,1 -1,0 0,3 1,0 0,-1 1,0 0,-1 1,0 1,0 0,2 -1,0 0,9 1,0 0,1 2,0 0,-2 -1,0 0,-3 1,0 0,1 1,0 0,2 1,0 0,2 3,0 1,0 0,-1 -1,0 0,-1 0,-1 -1,0 0,-1 -1,0 0,-1 0,-1 1,0 0,-1 1,0 0,-1 1,0 0,1 2,0 0,1 2,0 0,-1 1,0 0,-1 3,0 0,1 -1,0 0,3 1,0 0,3 1,0 0,1 3,0 0,-2 -1,0 0,-3 4,0 0,1 2,0 0,2 1,0 0,1 1,0 0,1 4,0 0,-1 -1,0 0,-1 -1,0 0,-2 -1,0 0,-1 -1,0 0,-2 1,0 0,-1 3,0 0,1 1,0 0,1 1,0 0,-1 1,0 0,-1 1,0 0,-1 1,0 0,-2 1,0 0,-1 1,0 0,-3 -1,0 0,-4 0,-2 -1,0 0,-1 -6,0 0,-1 0,-1 -4,0 0,-1 -10,0 z m 49,0 0,1 -4,0 0,1 0,1 -6,0 0,1 -1,0 0,2 0,4 -1,0 0,3 1,0 0,1 1,0 0,2 1,0 0,1 1,0 0,1 1,0 0,1 1,0 0,-1 1,0 0,-1 3,0 0,1 1,0 0,2 -1,0 0,1 -1,0 0,2 -1,0 0,1 -1,0 0,1 4,0 0,-1 1,0 0,-1 1,0 0,-2 2,0 0,-1 4,0 0,3 -1,0 0,2 3,0 0,-1 1,0 0,-3 1,0 0,-3 -1,0 0,-1 3,0 0,1 1,0 0,1 2,0 0,-1 2,0 0,-1 1,0 0,1 1,0 0,1 1,0 0,1 0,1 -1,0 0,1 -1,0 0,1 0,1 -1,0 0,1 1,0 3,0 0,-2 1,0 0,-2 1,0 0,-1 1,0 0,3 -1,0 0,2 2,0 0,-1 1,0 0,-9 -1,0 0,-2 1,0 1,0 0,1 1,0 0,1 1,0 0,-3 -1,0 0,-1 -1,0 0,-1 -1,0 0,-2 -1,0 0,-2 -1,0 0,-1 -2,0 0,-1 -4,0 0,-1 -3,0 0,-1 -4,0 0,-1 -2,0 0,-1 -10,0 z m 36,0 0,1 -1,0 0,1 -1,0 0,1 -1,0 0,1 1,0 0,1 1,0 0,1 1,0 0,1 1,0 0,-1 1,0 0,-1 1,0 0,-1 1,0 0,-1 -1,0 0,-1 -1,0 0,-1 -1,0 0,-1 -1,0 z m 27,0 0,1 -2,0 0,1 -4,0 0,1 -3,0 0,1 -4,0 0,1 -2,0 0,1 -1,0 0,2 -1,0 0,2 -1,0 0,1 -1,0 0,1 -1,0 0,3 1,0 0,-1 1,0 0,-1 1,0 1,0 0,2 -1,0 0,9 1,0 0,1 2,0 0,-2 -1,0 0,-3 1,0 0,1 1,0 0,2 1,0 0,2 3,0 1,0 0,-1 -1,0 0,-1 0,-1 -1,0 0,-1 -1,0 0,-1 0,-1 1,0 0,-1 1,0 0,-1 1,0 0,1 2,0 0,1 2,0 0,-1 1,0 0,-1 3,0 0,1 -1,0 0,3 1,0 0,3 1,0 0,1 3,0 0,-2 -1,0 0,-3 4,0 0,1 2,0 0,2 1,0 0,1 1,0 0,1 4,0 0,-1 -1,0 0,-1 -1,0 0,-2 -1,0 0,-1 -1,0 0,-2 1,0 0,-1 3,0 0,1 1,0 0,1 1,0 0,-1 1,0 0,-1 1,0 0,-1 1,0 0,-2 1,0 0,-1 1,0 0,-3 -1,0 0,-4 0,-2 -1,0 0,-1 -6,0 0,-1 0,-1 -4,0 0,-1 -10,0 z m 49,0 0,1 -4,0 0,1 0,1 -6,0 0,1 -1,0 0,2 0,4 -1,0 0,3 1,0 0,1 1,0 0,2 1,0 0,1 1,0 0,1 1,0 0,1 1,0 0,-1 1,0 0,-1 3,0 0,1 1,0 0,2 -1,0 0,1 -1,0 0,2 -1,0 0,1 -1,0 0,1 4,0 0,-1 1,0 0,-1 1,0 0,-2 2,0 0,-1 4,0 0,3 -1,0 0,2 3,0 0,-1 1,0 0,-3 1,0 0,-3 -1,0 0,-1 3,0 0,1 1,0 0,1 2,0 0,-1 2,0 0,-1 1,0 0,1 1,0 0,1 1,0 0,1 0,1 -1,0 0,1 -1,0 0,1 0,1 -1,0 0,1 1,0 3,0 0,-2 1,0 0,-2 1,0 0,-1 1,0 0,3 -1,0 0,2 2,0 0,-1 1,0 0,-9 -1,0 0,-2 1,0 1,0 0,1 1,0 0,1 1,0 0,-3 -1,0 0,-1 -1,0 0,-1 -1,0 0,-2 -1,0 0,-2 -1,0 0,-1 -2,0 0,-1 -4,0 0,-1 -3,0 0,-1 -4,0 0,-1 -2,0 0,-1 -10,0 z m -76,2 1,0 0,1 1,0 0,1 -1,0 0,1 -1,0 0,-1 -1,0 0,-1 1,0 0,-1 z m -56,2 0,1 1,0 0,-1 -1,0 z m 1,1 0,1 1,0 0,-1 -1,0 z m 0,1 -1,0 0,1 1,0 0,-1 z m -1,0 0,-1 -1,0 0,1 1,0 z m 112,-2 0,1 1,0 0,-1 -1,0 z m 1,1 0,1 1,0 0,-1 -1,0 z m 0,1 -1,0 0,1 1,0 0,-1 z m -1,0 0,-1 -1,0 0,1 1,0 z m -122,0 1,0 0,1 -1,0 0,3 -2,0 0,-2 1,0 0,-1 1,0 0,-1 z m 20,0 1,0 0,1 1,0 0,1 1,0 0,2 -2,0 0,-3 -1,0 0,-1 z m 92,0 1,0 0,1 -1,0 0,3 -2,0 0,-2 1,0 0,-1 1,0 0,-1 z m 20,0 1,0 0,1 1,0 0,1 1,0 0,2 -2,0 0,-3 -1,0 0,-1 z m -122,3 0,1 -1,0 0,1 -1,0 0,1 1,0 0,1 1,0 0,1 1,0 0,-1 1,0 0,-1 1,0 0,-1 -1,0 0,-1 -1,0 0,-1 -1,0 z m 112,0 0,1 -1,0 0,1 -1,0 0,1 1,0 0,1 1,0 0,1 1,0 0,-1 1,0 0,-1 1,0 0,-1 -1,0 0,-1 -1,0 0,-1 -1,0 z m -56,1 0,1 1,0 0,-1 -1,0 z m 1,1 0,1 1,0 0,-1 -1,0 z m 0,1 -1,0 0,1 1,0 0,-1 z m -1,0 0,-1 -1,0 0,1 1,0 z m -56,-1 1,0 0,1 -1,0 0,-1 z m 112,0 1,0 0,1 -1,0 0,-1 z m -116,5 0,1 1,0 0,-1 -1,0 z m 1,1 0,1 1,0 0,-1 -1,0 z m 0,1 -1,0 0,1 1,0 0,-1 z m -1,0 0,-1 -1,0 0,1 1,0 z m 8,-2 0,1 1,0 0,-1 -1,0 z m 1,1 0,1 1,0 0,-1 -1,0 z m 0,1 -1,0 0,1 1,0 0,-1 z m -1,0 0,-1 -1,0 0,1 1,0 z m 52,-2 0,1 1,0 0,-1 -1,0 z m 1,1 0,1 1,0 0,-1 -1,0 z m 0,1 -1,0 0,1 1,0 0,-1 z m -1,0 0,-1 -1,0 0,1 1,0 z m 52,-2 0,1 1,0 0,-1 -1,0 z m 1,1 0,1 1,0 0,-1 -1,0 z m 0,1 -1,0 0,1 1,0 0,-1 z m -1,0 0,-1 -1,0 0,1 1,0 z m 8,-2 0,1 1,0 0,-1 -1,0 z m 1,1 0,1 1,0 0,-1 -1,0 z m 0,1 -1,0 0,1 1,0 0,-1 z m -1,0 0,-1 -1,0 0,1 1,0 z m -116,3 0,1 -1,0 0,1 -1,0 0,1 -1,0 0,1 3,0 1,0 3,0 0,-1 -1,0 0,-1 -1,0 0,-1 -1,0 0,-1 -1,0 z m 112,0 0,1 -1,0 0,1 -1,0 0,1 -1,0 0,1 3,0 1,0 3,0 0,-1 -1,0 0,-1 -1,0 0,-1 -1,0 0,-1 -1,0 z m -56,1 0,1 1,0 0,-1 -1,0 z m 1,1 0,1 1,0 0,-1 -1,0 z m 0,1 -1,0 0,1 1,0 0,-1 z m -1,0 0,-1 -1,0 0,1 1,0 z m -56,-1 1,0 0,1 -1,0 0,-1 z m 112,0 1,0 0,1 -1,0 0,-1 z m -162,6 0,1 -1,0 0,2 3,0 1,0 3,0 1,0 3,0 1,0 3,0 1,0 3,0 1,0 3,0 1,0 3,0 1,0 3,0 1,0 3,0 1,0 3,0 1,0 3,0 1,0 3,0 1,0 3,0 1,0 3,0 1,0 3,0 1,0 3,0 1,0 3,0 1,0 3,0 1,0 3,0 1,0 3,0 1,0 3,0 1,0 3,0 1,0 3,0 1,0 3,0 1,0 3,0 1,0 3,0 1,0 3,0 1,0 3,0 1,0 3,0 1,0 3,0 1,0 3,0 1,0 3,0 1,0 3,0 1,0 3,0 1,0 3,0 1,0 3,0 1,0 3,0 1,0 3,0 1,0 3,0 1,0 3,0 1,0 3,0 1,0 3,0 1,0 3,0 1,0 3,0 1,0 3,0 1,0 3,0 1,0 3,0 1,0 3,0 1,0 3,0 1,0 3,0 1,0 3,0 1,0 3,0 1,0 3,0 1,0 3,0 0,-2 -1,0 0,-1 -1,0 0,1 -1,0 0,1 -1,0 0,-1 -1,0 0,-1 -1,0 0,1 -1,0 0,1 -1,0 0,-1 -1,0 0,-1 -1,0 0,1 -1,0 0,1 -1,0 0,-1 -1,0 0,-1 -1,0 0,1 -1,0 0,1 -1,0 0,-1 -1,0 0,-1 -1,0 0,1 -1,0 0,1 -1,0 0,-1 -1,0 0,-1 -1,0 0,1 -1,0 0,1 -1,0 0,-1 -1,0 0,-1 -1,0 0,1 -1,0 0,1 -1,0 0,-1 -1,0 0,-1 -1,0 0,1 -1,0 0,1 -1,0 0,-1 -1,0 0,-1 -1,0 0,1 -1,0 0,1 -1,0 0,-1 -1,0 0,-1 -1,0 0,1 -1,0 0,1 -1,0 0,-1 -1,0 0,-1 -1,0 0,1 -1,0 0,1 -1,0 0,-1 -1,0 0,-1 -1,0 0,1 -1,0 0,1 -1,0 0,-1 -1,0 0,-1 -1,0 0,1 -1,0 0,1 -1,0 0,-1 -1,0 0,-1 -1,0 0,1 -1,0 0,1 -1,0 0,-1 -1,0 0,-1 -1,0 0,1 -1,0 0,1 -1,0 0,-1 -1,0 0,-1 -1,0 0,1 -1,0 0,1 -1,0 0,-1 -1,0 0,-1 -1,0 0,1 -1,0 0,1 -1,0 0,-1 -1,0 0,-1 -1,0 0,1 -1,0 0,1 -1,0 0,-1 -1,0 0,-1 -1,0 0,1 -1,0 0,1 -1,0 0,-1 -1,0 0,-1 -1,0 0,1 -1,0 0,1 -1,0 0,-1 -1,0 0,-1 -1,0 0,1 -1,0 0,1 -1,0 0,-1 -1,0 0,-1 -1,0 0,1 -1,0 0,1 -1,0 0,-1 -1,0 0,-1 -1,0 0,1 -1,0 0,1 -1,0 0,-1 -1,0 0,-1 -1,0 0,1 -1,0 0,1 -1,0 0,-1 -1,0 0,-1 -1,0 0,1 -1,0 0,1 -1,0 0,-1 -1,0 0,-1 -1,0 0,1 -1,0 0,1 -1,0 0,-1 -1,0 0,-1 -1,0 0,1 -1,0 0,1 -1,0 0,-1 -1,0 0,-1 -1,0 0,1 -1,0 0,1 -1,0 0,-1 -1,0 0,-1 -1,0 0,1 -1,0 0,1 -1,0 0,-1 -1,0 0,-1 -1,0 0,1 -1,0 0,1 -1,0 0,-1 -1,0 0,-1 -1,0 0,1 -1,0 0,1 -1,0 0,-1 -1,0 0,-1 -1,0 0,1 -1,0 0,1 -1,0 0,-1 -1,0 0,-1 -1,0 0,1 -1,0 0,1 -1,0 0,-1 -1,0 0,-1 -1,0 0,1 -1,0 0,1 -1,0 0,-1 -1,0 0,-1 -1,0 0,1 -1,0 0,1 -1,0 0,-1 -1,0 0,-1 -1,0 0,1 -1,0 0,1 -1,0 0,-1 -1,0 0,-1 -1,0 0,1 -1,0 0,1 -1,0 0,-1 -1,0 0,-1 -1,0 0,1 -1,0 0,1 -1,0 0,-1 -1,0 0,-1 -1,0 0,1 -1,0 0,1 -1,0 0,-1 -1,0 0,-1 -1,0 0,1 -1,0 0,1 -1,0 0,-1 -1,0 0,-1 -1,0 0,1 -1,0 0,1 -1,0 0,-1 -1,0 0,-1 -1,0 0,1 -1,0 0,1 -1,0 0,-1 -1,0 0,-1 -1,0 0,1 -1,0 0,1 -1,0 0,-1 -1,0 0,-1 -1,0 0,1 -1,0 0,1 -1,0 0,-1 -1,0 0,-1 -1,0 0,1 -1,0 0,1 -1,0 0,-1 -1,0 0,-1 -1,0 0,1 -1,0 0,1 -1,0 0,-1 -1,0 0,-1 -1,0 0,1 -1,0 0,1 -1,0 0,-1 -1,0 0,-1 -1,0 0,1 -1,0 0,1 -1,0 0,-1 -1,0 0,-1 -1,0 0,1 -1,0 0,1 -1,0 0,-1 -1,0 0,-1 -1,0 0,1 -1,0 0,1 -1,0 0,-1 -1,0 0,-1 -1,0 0,1 -1,0 0,1 -1,0 0,-1 -1,0 0,-1 -1,0 0,1 -1,0 0,1 -1,0 0,-1 -1,0 0,-1 -1,0 0,1 -1,0 0,1 -1,0 0,-1 -1,0 0,-1 -1,0 z m 0,4 0,1 1,0 0,-1 -1,0 z m 1,1 0,1 1,0 0,-1 -1,0 z m 1,1 0,1 1,0 0,-1 -1,0 z m 1,0 1,0 0,-1 -1,0 0,1 z m 1,-1 1,0 0,-1 -1,0 0,1 z m 1,0 0,1 1,0 0,-1 -1,0 z m 1,1 0,1 1,0 0,-1 -1,0 z m 1,0 1,0 0,-1 -1,0 0,1 z m 1,-1 1,0 0,-1 -1,0 0,1 z m 1,0 0,1 1,0 0,-1 -1,0 z m 1,1 0,1 1,0 0,-1 -1,0 z m 1,0 1,0 0,-1 -1,0 0,1 z m 1,-1 1,0 0,-1 -1,0 0,1 z m 1,0 0,1 1,0 0,-1 -1,0 z m 1,1 0,1 1,0 0,-1 -1,0 z m 1,0 1,0 0,-1 -1,0 0,1 z m 1,-1 1,0 0,-1 -1,0 0,1 z m 1,0 0,1 1,0 0,-1 -1,0 z m 1,1 0,1 1,0 0,-1 -1,0 z m 1,0 1,0 0,-1 -1,0 0,1 z m 1,-1 1,0 0,-1 -1,0 0,1 z m 1,0 0,1 1,0 0,-1 -1,0 z m 1,1 0,1 1,0 0,-1 -1,0 z m 1,0 1,0 0,-1 -1,0 0,1 z m 1,-1 1,0 0,-1 -1,0 0,1 z m 1,0 0,1 1,0 0,-1 -1,0 z m 1,1 0,1 1,0 0,-1 -1,0 z m 1,0 1,0 0,-1 -1,0 0,1 z m 1,-1 1,0 0,-1 -1,0 0,1 z m 1,0 0,1 1,0 0,-1 -1,0 z m 1,1 0,1 1,0 0,-1 -1,0 z m 1,0 1,0 0,-1 -1,0 0,1 z m 1,-1 1,0 0,-1 -1,0 0,1 z m 1,0 0,1 1,0 0,-1 -1,0 z m 1,1 0,1 1,0 0,-1 -1,0 z m 1,0 1,0 0,-1 -1,0 0,1 z m 1,-1 1,0 0,-1 -1,0 0,1 z m 1,0 0,1 1,0 0,-1 -1,0 z m 1,1 0,1 1,0 0,-1 -1,0 z m 1,0 1,0 0,-1 -1,0 0,1 z m 1,-1 1,0 0,-1 -1,0 0,1 z m 1,0 0,1 1,0 0,-1 -1,0 z m 1,1 0,1 1,0 0,-1 -1,0 z m 1,0 1,0 0,-1 -1,0 0,1 z m 1,-1 1,0 0,-1 -1,0 0,1 z m 1,0 0,1 1,0 0,-1 -1,0 z m 1,1 0,1 1,0 0,-1 -1,0 z m 1,0 1,0 0,-1 -1,0 0,1 z m 1,-1 1,0 0,-1 -1,0 0,1 z m 1,0 0,1 1,0 0,-1 -1,0 z m 1,1 0,1 1,0 0,-1 -1,0 z m 1,0 1,0 0,-1 -1,0 0,1 z m 1,-1 1,0 0,-1 -1,0 0,1 z m 1,0 0,1 1,0 0,-1 -1,0 z m 1,1 0,1 1,0 0,-1 -1,0 z m 1,0 1,0 0,-1 -1,0 0,1 z m 1,-1 1,0 0,-1 -1,0 0,1 z m 1,0 0,1 1,0 0,-1 -1,0 z m 1,1 0,1 1,0 0,-1 -1,0 z m 1,0 1,0 0,-1 -1,0 0,1 z m 1,-1 1,0 0,-1 -1,0 0,1 z m 1,0 0,1 1,0 0,-1 -1,0 z m 1,1 0,1 1,0 0,-1 -1,0 z m 1,0 1,0 0,-1 -1,0 0,1 z m 1,-1 1,0 0,-1 -1,0 0,1 z m 1,0 0,1 1,0 0,-1 -1,0 z m 1,1 0,1 1,0 0,-1 -1,0 z m 1,0 1,0 0,-1 -1,0 0,1 z m 1,-1 1,0 0,-1 -1,0 0,1 z m 1,0 0,1 1,0 0,-1 -1,0 z m 1,1 0,1 1,0 0,-1 -1,0 z m 1,0 1,0 0,-1 -1,0 0,1 z m 1,-1 1,0 0,-1 -1,0 0,1 z m 1,0 0,1 1,0 0,-1 -1,0 z m 1,1 0,1 1,0 0,-1 -1,0 z m 1,0 1,0 0,-1 -1,0 0,1 z m 1,-1 1,0 0,-1 -1,0 0,1 z m 1,0 0,1 1,0 0,-1 -1,0 z m 1,1 0,1 1,0 0,-1 -1,0 z m 1,0 1,0 0,-1 -1,0 0,1 z m 1,-1 1,0 0,-1 -1,0 0,1 z m 1,0 0,1 1,0 0,-1 -1,0 z m 1,1 0,1 1,0 0,-1 -1,0 z m 1,0 1,0 0,-1 -1,0 0,1 z m 1,-1 1,0 0,-1 -1,0 0,1 z m 1,0 0,1 1,0 0,-1 -1,0 z m 1,1 0,1 1,0 0,-1 -1,0 z m 1,0 1,0 0,-1 -1,0 0,1 z m 1,-1 1,0 0,-1 -1,0 0,1 z m 1,0 0,1 1,0 0,-1 -1,0 z m 1,1 0,1 1,0 0,-1 -1,0 z m 1,0 1,0 0,-1 -1,0 0,1 z m 1,-1 1,0 0,-1 -1,0 0,1 z m 1,0 0,1 1,0 0,-1 -1,0 z m 1,1 0,1 1,0 0,-1 -1,0 z m 1,0 1,0 0,-1 -1,0 0,1 z m 1,-1 1,0 0,-1 -1,0 0,1 z m 1,0 0,1 1,0 0,-1 -1,0 z m 1,1 0,1 1,0 0,-1 -1,0 z m 1,0 1,0 0,-1 -1,0 0,1 z m 1,-1 1,0 0,-1 -1,0 0,1 z m 1,0 0,1 1,0 0,-1 -1,0 z m 1,1 0,1 1,0 0,-1 -1,0 z m 1,0 1,0 0,-1 -1,0 0,1 z m 1,-1 1,0 0,-1 -1,0 0,1 z m 1,0 0,1 1,0 0,-1 -1,0 z m 1,1 0,1 1,0 0,-1 -1,0 z m 1,0 1,0 0,-1 -1,0 0,1 z m 1,-1 1,0 0,-1 -1,0 0,1 z m 1,0 0,1 1,0 0,-1 -1,0 z m 1,1 0,1 1,0 0,-1 -1,0 z m 1,0 1,0 0,-1 -1,0 0,1 z m 1,-1 1,0 0,-1 -1,0 0,1 z m 1,0 0,1 1,0 0,-1 -1,0 z m 1,1 0,1 1,0 0,-1 -1,0 z m 1,0 1,0 0,-1 -1,0 0,1 z m 1,-1 1,0 0,-1 -1,0 0,1 z m 1,0 0,1 1,0 0,-1 -1,0 z m 1,1 0,1 1,0 0,-1 -1,0 z m 1,0 1,0 0,-1 -1,0 0,1 z m 1,-1 1,0 0,-1 -1,0 0,1 z m 1,0 0,1 1,0 0,-1 -1,0 z m 1,1 0,1 1,0 0,-1 -1,0 z m 1,0 1,0 0,-1 -1,0 0,1 z m 1,-1 1,0 0,-1 -1,0 0,1 z m 1,0 0,1 1,0 0,-1 -1,0 z m 1,1 0,1 1,0 0,-1 -1,0 z m 1,0 1,0 0,-1 -1,0 0,1 z m 1,-1 1,0 0,-1 -1,0 0,1 z m 1,0 0,1 1,0 0,-1 -1,0 z m 1,1 0,1 1,0 0,-1 -1,0 z m 1,0 1,0 0,-1 -1,0 0,1 z m 1,-1 1,0 0,-1 -1,0 0,1 z m 1,0 0,1 1,0 0,-1 -1,0 z m 1,1 0,1 1,0 0,-1 -1,0 z m 1,0 1,0 0,-1 -1,0 0,1 z m 1,-1 1,0 0,-1 -1,0 0,1 z m 1,0 0,1 1,0 0,-1 -1,0 z m 1,1 0,1 1,0 0,-1 -1,0 z m 1,0 1,0 0,-1 -1,0 0,1 z m 1,-1 1,0 0,-1 -1,0 0,1 z m 1,0 0,1 1,0 0,-1 -1,0 z m 1,1 0,1 1,0 0,-1 -1,0 z m 1,0 1,0 0,-1 -1,0 0,1 z m 1,-1 1,0 0,-1 -1,0 0,1 z m 1,0 0,1 1,0 0,-1 -1,0 z m 1,1 0,1 1,0 0,-1 -1,0 z m 1,0 1,0 0,-1 -1,0 0,1 z m 1,-1 1,0 0,-1 -1,0 0,1 z m 1,0 0,1 1,0 0,-1 -1,0 z m 1,1 0,1 1,0 0,-1 -1,0 z m 1,0 1,0 0,-1 -1,0 0,1 z m 1,-1 1,0 0,-1 -1,0 0,1 z m 1,0 0,1 1,0 0,-1 -1,0 z m 1,1 0,1 1,0 0,-1 -1,0 z m 1,0 1,0 0,-1 -1,0 0,1 z m 1,-1 1,0 0,-1 -1,0 0,1 z m 1,0 0,1 1,0 0,-1 -1,0 z m 1,1 0,1 1,0 0,-1 -1,0 z m 1,0 1,0 0,-1 -1,0 0,1 z m 1,-1 1,0 0,-1 -1,0 0,1 z m 1,0 0,1 1,0 0,-1 -1,0 z m 1,1 0,1 1,0 0,-1 -1,0 z m 1,0 1,0 0,-1 -1,0 0,1 z m 1,-1 1,0 0,-1 -1,0 0,1 z m 1,0 0,1 1,0 0,-1 -1,0 z m 1,1 0,1 1,0 0,-1 -1,0 z m 1,0 1,0 0,-1 -1,0 0,1 z m 1,-1 1,0 0,-1 -1,0 0,1 z m 1,0 0,1 1,0 0,-1 -1,0 z m 1,1 0,1 1,0 0,-1 -1,0 z m 1,0 1,0 0,-1 -1,0 0,1 z m 1,-1 1,0 0,-1 -1,0 0,1 z m 1,0 0,1 1,0 0,-1 -1,0 z m 1,1 0,1 1,0 0,-1 -1,0 z m 1,0 1,0 0,-1 -1,0 0,1 z m 1,-1 1,0 0,-1 -1,0 0,1 z m 1,0 0,1 1,0 0,-1 -1,0 z m 1,1 0,1 1,0 0,-1 -1,0 z m 1,0 1,0 0,-1 -1,0 0,1 z m 1,-1 1,0 0,-1 -1,0 0,1 z m 1,0 0,1 1,0 0,-1 -1,0 z m 1,1 0,1 1,0 0,-1 -1,0 z m 1,0 1,0 0,-1 -1,0 0,1 z m 1,-1 1,0 0,-1 -1,0 0,1 z m 1,0 0,1 1,0 0,-1 -1,0 z m 1,1 0,1 1,0 0,-1 -1,0 z m 1,0 1,0 0,-1 -1,0 0,1 z m 1,-1 1,0 0,-1 -1,0 0,1 z m 1,0 0,1 1,0 0,-1 -1,0 z m 1,1 0,1 1,0 0,-1 -1,0 z m 1,0 1,0 0,-1 -1,0 0,1 z m 1,-1 1,0 0,-1 -1,0 0,1 z m 1,0 0,1 1,0 0,-1 -1,0 z m 1,1 0,1 1,0 0,-1 -1,0 z m 1,0 1,0 0,-1 -1,0 0,1 z m 1,-1 1,0 0,-1 -1,0 0,1 z m 1,0 0,1 1,0 0,-1 -1,0 z m 1,1 0,1 1,0 0,-1 -1,0 z m 1,0 1,0 0,-1 -1,0 0,1 z m 1,-1 1,0 0,-1 -1,0 0,1 z m 1,0 0,1 1,0 0,-1 -1,0 z m 1,1 0,1 1,0 0,-1 -1,0 z m 1,0 1,0 0,-1 -1,0 0,1 z m 1,-1 1,0 0,-1 -1,0 0,1 z m 1,0 0,1 1,0 0,-1 -1,0 z m 1,1 0,1 1,0 0,-1 -1,0 z m 1,0 1,0 0,-1 -1,0 0,1 z m 1,-1 1,0 0,-1 -1,0 0,1 z m 1,0 0,1 1,0 0,-1 -1,0 z m 1,1 0,1 1,0 0,-1 -1,0 z m 1,0 1,0 0,-1 -1,0 0,1 z m 1,-1 1,0 0,-1 -1,0 0,1 z m 1,0 0,1 1,0 0,-1 -1,0 z m -2,2 0,1 1,0 0,-1 -1,0 z m 1,1 0,1 1,0 0,-1 -1,0 z m 1,0 1,0 0,-1 -1,0 0,1 z m -3,-1 -1,0 0,1 1,0 0,-1 z m -1,1 -1,0 0,1 1,0 0,-1 z m -1,0 0,-1 -1,0 0,1 1,0 z m -2,-1 -1,0 0,1 1,0 0,-1 z m -1,1 -1,0 0,1 1,0 0,-1 z m -1,0 0,-1 -1,0 0,1 1,0 z m -2,-1 -1,0 0,1 1,0 0,-1 z m -1,1 -1,0 0,1 1,0 0,-1 z m -1,0 0,-1 -1,0 0,1 1,0 z m -2,-1 -1,0 0,1 1,0 0,-1 z m -1,1 -1,0 0,1 1,0 0,-1 z m -1,0 0,-1 -1,0 0,1 1,0 z m -2,-1 -1,0 0,1 1,0 0,-1 z m -1,1 -1,0 0,1 1,0 0,-1 z m -1,0 0,-1 -1,0 0,1 1,0 z m -2,-1 -1,0 0,1 1,0 0,-1 z m -1,1 -1,0 0,1 1,0 0,-1 z m -1,0 0,-1 -1,0 0,1 1,0 z m -2,-1 -1,0 0,1 1,0 0,-1 z m -1,1 -1,0 0,1 1,0 0,-1 z m -1,0 0,-1 -1,0 0,1 1,0 z m -2,-1 -1,0 0,1 1,0 0,-1 z m -1,1 -1,0 0,1 1,0 0,-1 z m -1,0 0,-1 -1,0 0,1 1,0 z m -2,-1 -1,0 0,1 1,0 0,-1 z m -1,1 -1,0 0,1 1,0 0,-1 z m -1,0 0,-1 -1,0 0,1 1,0 z m -2,-1 -1,0 0,1 1,0 0,-1 z m -1,1 -1,0 0,1 1,0 0,-1 z m -1,0 0,-1 -1,0 0,1 1,0 z m -2,-1 -1,0 0,1 1,0 0,-1 z m -1,1 -1,0 0,1 1,0 0,-1 z m -1,0 0,-1 -1,0 0,1 1,0 z m -2,-1 -1,0 0,1 1,0 0,-1 z m -1,1 -1,0 0,1 1,0 0,-1 z m -1,0 0,-1 -1,0 0,1 1,0 z m -2,-1 -1,0 0,1 1,0 0,-1 z m -1,1 -1,0 0,1 1,0 0,-1 z m -1,0 0,-1 -1,0 0,1 1,0 z m -2,-1 -1,0 0,1 1,0 0,-1 z m -1,1 -1,0 0,1 1,0 0,-1 z m -1,0 0,-1 -1,0 0,1 1,0 z m -2,-1 -1,0 0,1 1,0 0,-1 z m -1,1 -1,0 0,1 1,0 0,-1 z m -1,0 0,-1 -1,0 0,1 1,0 z m -2,-1 -1,0 0,1 1,0 0,-1 z m -1,1 -1,0 0,1 1,0 0,-1 z m -1,0 0,-1 -1,0 0,1 1,0 z m -2,-1 -1,0 0,1 1,0 0,-1 z m -1,1 -1,0 0,1 1,0 0,-1 z m -1,0 0,-1 -1,0 0,1 1,0 z m -2,-1 -1,0 0,1 1,0 0,-1 z m -1,1 -1,0 0,1 1,0 0,-1 z m -1,0 0,-1 -1,0 0,1 1,0 z m -2,-1 -1,0 0,1 1,0 0,-1 z m -1,1 -1,0 0,1 1,0 0,-1 z m -1,0 0,-1 -1,0 0,1 1,0 z m -2,-1 -1,0 0,1 1,0 0,-1 z m -1,1 -1,0 0,1 1,0 0,-1 z m -1,0 0,-1 -1,0 0,1 1,0 z m -2,-1 -1,0 0,1 1,0 0,-1 z m -1,1 -1,0 0,1 1,0 0,-1 z m -1,0 0,-1 -1,0 0,1 1,0 z m -2,-1 -1,0 0,1 1,0 0,-1 z m -1,1 -1,0 0,1 1,0 0,-1 z m -1,0 0,-1 -1,0 0,1 1,0 z m -2,-1 -1,0 0,1 1,0 0,-1 z m -1,1 -1,0 0,1 1,0 0,-1 z m -1,0 0,-1 -1,0 0,1 1,0 z m -2,-1 -1,0 0,1 1,0 0,-1 z m -1,1 -1,0 0,1 1,0 0,-1 z m -1,0 0,-1 -1,0 0,1 1,0 z m -2,-1 -1,0 0,1 1,0 0,-1 z m -1,1 -1,0 0,1 1,0 0,-1 z m -1,0 0,-1 -1,0 0,1 1,0 z m -2,-1 -1,0 0,1 1,0 0,-1 z m -1,1 -1,0 0,1 1,0 0,-1 z m -1,0 0,-1 -1,0 0,1 1,0 z m -2,-1 -1,0 0,1 1,0 0,-1 z m -1,1 -1,0 0,1 1,0 0,-1 z m -1,0 0,-1 -1,0 0,1 1,0 z m -2,-1 -1,0 0,1 1,0 0,-1 z m -1,1 -1,0 0,1 1,0 0,-1 z m -1,0 0,-1 -1,0 0,1 1,0 z m -2,-1 -1,0 0,1 1,0 0,-1 z m -1,1 -1,0 0,1 1,0 0,-1 z m -1,0 0,-1 -1,0 0,1 1,0 z m -2,-1 -1,0 0,1 1,0 0,-1 z m -1,1 -1,0 0,1 1,0 0,-1 z m -1,0 0,-1 -1,0 0,1 1,0 z m -2,-1 -1,0 0,1 1,0 0,-1 z m -1,1 -1,0 0,1 1,0 0,-1 z m -1,0 0,-1 -1,0 0,1 1,0 z m -2,-1 -1,0 0,1 1,0 0,-1 z m -1,1 -1,0 0,1 1,0 0,-1 z m -1,0 0,-1 -1,0 0,1 1,0 z m -2,-1 -1,0 0,1 1,0 0,-1 z m -1,1 -1,0 0,1 1,0 0,-1 z m -1,0 0,-1 -1,0 0,1 1,0 z m -2,-1 -1,0 0,1 1,0 0,-1 z m -1,1 -1,0 0,1 1,0 0,-1 z m -1,0 0,-1 -1,0 0,1 1,0 z m -2,-1 -1,0 0,1 1,0 0,-1 z m -1,1 -1,0 0,1 1,0 0,-1 z m -1,0 0,-1 -1,0 0,1 1,0 z m -2,-1 -1,0 0,1 1,0 0,-1 z m -1,1 -1,0 0,1 1,0 0,-1 z m -1,0 0,-1 -1,0 0,1 1,0 z m -2,-1 -1,0 0,1 1,0 0,-1 z m -1,1 -1,0 0,1 1,0 0,-1 z m -1,0 0,-1 -1,0 0,1 1,0 z m -2,-1 -1,0 0,1 1,0 0,-1 z m -1,1 -1,0 0,1 1,0 0,-1 z m -1,0 0,-1 -1,0 0,1 1,0 z m -2,-1 -1,0 0,1 1,0 0,-1 z m -1,1 -1,0 0,1 1,0 0,-1 z m -1,0 0,-1 -1,0 0,1 1,0 z m -2,-1 -1,0 0,1 1,0 0,-1 z m -1,1 -1,0 0,1 1,0 0,-1 z m -1,0 0,-1 -1,0 0,1 1,0 z m -2,-1 -1,0 0,1 1,0 0,-1 z m -1,1 -1,0 0,1 1,0 0,-1 z m -1,0 0,-1 -1,0 0,1 1,0 z m -2,-1 -1,0 0,1 1,0 0,-1 z m -1,1 -1,0 0,1 1,0 0,-1 z m -1,0 0,-1 -1,0 0,1 1,0 z m -2,-1 -1,0 0,1 1,0 0,-1 z m -1,1 -1,0 0,1 1,0 0,-1 z m -1,0 0,-1 -1,0 0,1 1,0 z m -2,-1 -1,0 0,1 1,0 0,-1 z m -1,1 -1,0 0,1 1,0 0,-1 z m -1,0 0,-1 -1,0 0,1 1,0 z m -2,-1 -1,0 0,1 1,0 0,-1 z m -1,1 -1,0 0,1 1,0 0,-1 z m -1,0 0,-1 -1,0 0,1 1,0 z m -2,-1 -1,0 0,1 1,0 0,-1 z m -1,1 -1,0 0,1 1,0 0,-1 z m -1,0 0,-1 -1,0 0,1 1,0 z m -2,-1 -1,0 0,1 1,0 0,-1 z m -1,1 -1,0 0,1 1,0 0,-1 z m -1,0 0,-1 -1,0 0,1 1,0 z m -2,-1 -1,0 0,1 1,0 0,-1 z m -1,1 -1,0 0,1 1,0 0,-1 z m -1,0 0,-1 -1,0 0,1 1,0 z m -2,-1 -1,0 0,1 1,0 0,-1 z m -1,1 -1,0 0,1 1,0 0,-1 z m -1,0 0,-1 -1,0 0,1 1,0 z m -2,-1 -1,0 0,1 1,0 0,-1 z m -1,1 -1,0 0,1 1,0 0,-1 z m -1,0 0,-1 -1,0 0,1 1,0 z m -2,-1 -1,0 0,1 1,0 0,-1 z m -1,1 -1,0 0,1 1,0 0,-1 z m -1,0 0,-1 -1,0 0,1 1,0 z m -2,-1 -1,0 0,1 1,0 0,-1 z m -1,1 -1,0 0,1 1,0 0,-1 z m -1,0 0,-1 -1,0 0,1 1,0 z m -2,-1 -1,0 0,1 1,0 0,-1 z m -1,1 -1,0 0,1 1,0 0,-1 z m -1,0 0,-1 -1,0 0,1 1,0 z m 0,-3 -1,0 0,1 1,0 0,-1 z m -1,5 0,2 1,0 0,1 1,0 0,-1 1,0 0,-1 1,0 0,1 1,0 0,1 1,0 0,-1 1,0 0,-1 1,0 0,1 1,0 0,1 1,0 0,-1 1,0 0,-1 1,0 0,1 1,0 0,1 1,0 0,-1 1,0 0,-1 1,0 0,1 1,0 0,1 1,0 0,-1 1,0 0,-1 1,0 0,1 1,0 0,1 1,0 0,-1 1,0 0,-1 1,0 0,1 1,0 0,1 1,0 0,-1 1,0 0,-1 1,0 0,1 1,0 0,1 1,0 0,-1 1,0 0,-1 1,0 0,1 1,0 0,1 1,0 0,-1 1,0 0,-1 1,0 0,1 1,0 0,1 1,0 0,-1 1,0 0,-1 1,0 0,1 1,0 0,1 1,0 0,-1 1,0 0,-1 1,0 0,1 1,0 0,1 1,0 0,-1 1,0 0,-1 1,0 0,1 1,0 0,1 1,0 0,-1 1,0 0,-1 1,0 0,1 1,0 0,1 1,0 0,-1 1,0 0,-1 1,0 0,1 1,0 0,1 1,0 0,-1 1,0 0,-1 1,0 0,1 1,0 0,1 1,0 0,-1 1,0 0,-1 1,0 0,1 1,0 0,1 1,0 0,-1 1,0 0,-1 1,0 0,1 1,0 0,1 1,0 0,-1 1,0 0,-1 1,0 0,1 1,0 0,1 1,0 0,-1 1,0 0,-1 1,0 0,1 1,0 0,1 1,0 0,-1 1,0 0,-1 1,0 0,1 1,0 0,1 1,0 0,-1 1,0 0,-1 1,0 0,1 1,0 0,1 1,0 0,-1 1,0 0,-1 1,0 0,1 1,0 0,1 1,0 0,-1 1,0 0,-1 1,0 0,1 1,0 0,1 1,0 0,-1 1,0 0,-1 1,0 0,1 1,0 0,1 1,0 0,-1 1,0 0,-1 1,0 0,1 1,0 0,1 1,0 0,-1 1,0 0,-1 1,0 0,1 1,0 0,1 1,0 0,-1 1,0 0,-1 1,0 0,1 1,0 0,1 1,0 0,-1 1,0 0,-1 1,0 0,1 1,0 0,1 1,0 0,-1 1,0 0,-1 1,0 0,1 1,0 0,1 1,0 0,-1 1,0 0,-1 1,0 0,1 1,0 0,1 1,0 0,-1 1,0 0,-1 1,0 0,1 1,0 0,1 1,0 0,-1 1,0 0,-1 1,0 0,1 1,0 0,1 1,0 0,-1 1,0 0,-1 1,0 0,1 1,0 0,1 1,0 0,-1 1,0 0,-1 1,0 0,1 1,0 0,1 1,0 0,-1 1,0 0,-1 1,0 0,1 1,0 0,1 1,0 0,-1 1,0 0,-1 1,0 0,1 1,0 0,1 1,0 0,-1 1,0 0,-1 1,0 0,1 1,0 0,1 1,0 0,-1 1,0 0,-1 1,0 0,1 1,0 0,1 1,0 0,-1 1,0 0,-1 1,0 0,1 1,0 0,1 1,0 0,-1 1,0 0,-1 1,0 0,1 1,0 0,1 1,0 0,-1 1,0 0,-1 1,0 0,1 1,0 0,1 1,0 0,-1 1,0 0,-1 1,0 0,1 1,0 0,1 1,0 0,-1 1,0 0,-1 1,0 0,1 1,0 0,1 1,0 0,-1 1,0 0,-1 1,0 0,1 1,0 0,1 1,0 0,-1 1,0 0,-1 1,0 0,1 1,0 0,1 1,0 0,-1 1,0 0,-1 1,0 0,1 1,0 0,1 1,0 0,-1 1,0 0,-1 1,0 0,1 1,0 0,1 1,0 0,-1 1,0 0,-1 1,0 0,1 1,0 0,1 1,0 0,-1 1,0 0,-1 1,0 0,1 1,0 0,1 1,0 0,-1 1,0 0,-1 1,0 0,1 1,0 0,1 1,0 0,-1 1,0 0,-1 1,0 0,1 1,0 0,1 1,0 0,-1 1,0 0,-1 1,0 0,1 1,0 0,1 1,0 0,-1 1,0 0,-1 1,0 0,1 1,0 0,1 1,0 0,-1 1,0 0,-2 -3,0 -1,0 -3,0 -1,0 -3,0 -1,0 -3,0 -1,0 -3,0 -1,0 -3,0 -1,0 -3,0 -1,0 -3,0 -1,0 -3,0 -1,0 -3,0 -1,0 -3,0 -1,0 -3,0 -1,0 -3,0 -1,0 -3,0 -1,0 -3,0 -1,0 -3,0 -1,0 -3,0 -1,0 -3,0 -1,0 -3,0 -1,0 -3,0 -1,0 -3,0 -1,0 -3,0 -1,0 -3,0 -1,0 -3,0 -1,0 -3,0 -1,0 -3,0 -1,0 -3,0 -1,0 -3,0 -1,0 -3,0 -1,0 -3,0 -1,0 -3,0 -1,0 -3,0 -1,0 -3,0 -1,0 -3,0 -1,0 -3,0 -1,0 -3,0 -1,0 -3,0 -1,0 -3,0 -1,0 -3,0 -1,0 -3,0 -1,0 -3,0 -1,0 -3,0 -1,0 -3,0 -1,0 -3,0 -1,0 -3,0 -1,0 -3,0 -1,0 -3,0 -1,0 -3,0 -1,0 -3,0 -1,0 -3,0 -1,0 -3,0 -1,0 -3,0 -1,0 -3,0 -1,0 -3,0 z"
       id="rect4287"
       inkscape:connector-curvature="0" />
    <path
       id="path4721"
       d="m 40,397.3622 0,1 51,0 1,0 51,0 4,0 1,0 4,0 51,0 1,0 51,0 0,-1 -51,0 -1,0 -51,0 -4,0 -1,0 -4,0 -51,0 -1,0 -51,0 z m 0,2 0,2 51,0 1,0 51,0 4,0 1,0 4,0 51,0 1,0 51,0 0,-2 -51,0 -1,0 -51,0 -4,0 -1,0 -4,0 -51,0 -1,0 -51,0 z m 5,4 0,5 1,0 0,1 1,0 0,1 1,0 0,1 1,0 0,-5 -1,0 0,-1 -1,0 0,-1 -1,0 0,-1 -1,0 z m 3,8 -1,0 0,-1 -1,0 0,-1 -1,0 0,-1 -5,0 0,1 1,0 0,1 1,0 0,1 1,0 0,1 5,0 0,-1 z m 5,-8 0,1 -1,0 0,1 -1,0 0,1 -1,0 0,5 1,0 0,-1 1,0 0,-1 1,0 0,-1 1,0 0,-5 -1,0 z m 1,5 0,1 -1,0 0,1 -1,0 0,1 -1,0 0,1 5,0 0,-1 1,0 0,-1 1,0 0,-1 1,0 0,-1 -5,0 z m 9,-5 0,1 1,0 0,-1 -1,0 z m 1,1 0,1 1,0 0,-1 -1,0 z m -1,0 -1,0 0,1 1,0 0,-1 z m 10,-1 0,5 1,0 0,1 1,0 0,1 1,0 0,1 1,0 0,-5 -1,0 0,-1 -1,0 0,-1 -1,0 0,-1 -1,0 z m 3,8 -1,0 0,-1 -1,0 0,-1 -1,0 0,-1 -5,0 0,1 1,0 0,1 1,0 0,1 1,0 0,1 5,0 0,-1 z m 5,-8 0,1 -1,0 0,1 -1,0 0,1 -1,0 0,5 1,0 0,-1 1,0 0,-1 1,0 0,-1 1,0 0,-5 -1,0 z m 1,5 0,1 -1,0 0,1 -1,0 0,1 -1,0 0,1 5,0 0,-1 1,0 0,-1 1,0 0,-1 1,0 0,-1 -5,0 z m 9,-5 0,1 1,0 0,-1 -1,0 z m 1,1 0,1 1,0 0,-1 -1,0 z m -1,0 -1,0 0,1 1,0 0,-1 z m 10,-1 0,5 1,0 0,1 1,0 0,1 1,0 0,1 1,0 0,-5 -1,0 0,-1 -1,0 0,-1 -1,0 0,-1 -1,0 z m 3,8 -1,0 0,-1 -1,0 0,-1 -1,0 0,-1 -5,0 0,1 1,0 0,1 1,0 0,1 1,0 0,1 5,0 0,-1 z m 5,-8 0,1 -1,0 0,1 -1,0 0,1 -1,0 0,5 1,0 0,-1 1,0 0,-1 1,0 0,-1 1,0 0,-5 -1,0 z m 1,5 0,1 -1,0 0,1 -1,0 0,1 -1,0 0,1 5,0 0,-1 1,0 0,-1 1,0 0,-1 1,0 0,-1 -5,0 z m 9,-5 0,1 1,0 0,-1 -1,0 z m 1,1 0,1 1,0 0,-1 -1,0 z m -1,0 -1,0 0,1 1,0 0,-1 z m 10,-1 0,5 1,0 0,1 1,0 0,1 1,0 0,1 1,0 0,-5 -1,0 0,-1 -1,0 0,-1 -1,0 0,-1 -1,0 z m 3,8 -1,0 0,-1 -1,0 0,-1 -1,0 0,-1 -5,0 0,1 1,0 0,1 1,0 0,1 1,0 0,1 5,0 0,-1 z m 5,-8 0,1 -1,0 0,1 -1,0 0,1 -1,0 0,5 1,0 0,-1 1,0 0,-1 1,0 0,-1 1,0 0,-5 -1,0 z m 1,5 0,1 -1,0 0,1 -1,0 0,1 -1,0 0,1 5,0 0,-1 1,0 0,-1 1,0 0,-1 1,0 0,-1 -5,0 z m 9,-5 0,1 1,0 0,-1 -1,0 z m 1,1 0,1 1,0 0,-1 -1,0 z m -1,0 -1,0 0,1 1,0 0,-1 z m 10,-1 0,5 1,0 0,1 1,0 0,1 1,0 0,1 1,0 0,-5 -1,0 0,-1 -1,0 0,-1 -1,0 0,-1 -1,0 z m 3,8 -1,0 0,-1 -1,0 0,-1 -1,0 0,-1 -5,0 0,1 1,0 0,1 1,0 0,1 1,0 0,1 5,0 0,-1 z m 5,-8 0,1 -1,0 0,1 -1,0 0,1 -1,0 0,5 1,0 0,-1 1,0 0,-1 1,0 0,-1 1,0 0,-5 -1,0 z m 1,5 0,1 -1,0 0,1 -1,0 0,1 -1,0 0,1 5,0 0,-1 1,0 0,-1 1,0 0,-1 1,0 0,-1 -5,0 z m 9,-5 0,1 1,0 0,-1 -1,0 z m 1,1 0,1 1,0 0,-1 -1,0 z m -1,0 -1,0 0,1 1,0 0,-1 z m 10,-1 0,5 1,0 0,1 1,0 0,1 1,0 0,1 1,0 0,-5 -1,0 0,-1 -1,0 0,-1 -1,0 0,-1 -1,0 z m 3,8 -1,0 0,-1 -1,0 0,-1 -1,0 0,-1 -5,0 0,1 1,0 0,1 1,0 0,1 1,0 0,1 5,0 0,-1 z m 5,-8 0,1 -1,0 0,1 -1,0 0,1 -1,0 0,5 1,0 0,-1 1,0 0,-1 1,0 0,-1 1,0 0,-5 -1,0 z m 1,5 0,1 -1,0 0,1 -1,0 0,1 -1,0 0,1 5,0 0,-1 1,0 0,-1 1,0 0,-1 1,0 0,-1 -5,0 z m 9,-5 0,1 1,0 0,-1 -1,0 z m 1,1 0,1 1,0 0,-1 -1,0 z m -1,0 -1,0 0,1 1,0 0,-1 z m 10,-1 0,5 1,0 0,1 1,0 0,1 1,0 0,1 1,0 0,-5 -1,0 0,-1 -1,0 0,-1 -1,0 0,-1 -1,0 z m 3,8 -1,0 0,-1 -1,0 0,-1 -1,0 0,-1 -5,0 0,1 1,0 0,1 1,0 0,1 1,0 0,1 5,0 0,-1 z m 5,-8 0,1 -1,0 0,1 -1,0 0,1 -1,0 0,5 1,0 0,-1 1,0 0,-1 1,0 0,-1 1,0 0,-5 -1,0 z m 1,5 0,1 -1,0 0,1 -1,0 0,1 -1,0 0,1 5,0 0,-1 1,0 0,-1 1,0 0,-1 1,0 0,-1 -5,0 z m 9,-5 0,1 1,0 0,-1 -1,0 z m 1,1 0,1 1,0 0,-1 -1,0 z m -1,0 -1,0 0,1 1,0 0,-1 z m 10,-1 0,5 1,0 0,1 1,0 0,1 1,0 0,1 1,0 0,-5 -1,0 0,-1 -1,0 0,-1 -1,0 0,-1 -1,0 z m 3,8 -1,0 0,-1 -1,0 0,-1 -1,0 0,-1 -5,0 0,1 1,0 0,1 1,0 0,1 1,0 0,1 5,0 0,-1 z m 5,-8 0,1 -1,0 0,1 -1,0 0,1 -1,0 0,5 1,0 0,-1 1,0 0,-1 1,0 0,-1 1,0 0,-5 -1,0 z m 1,5 0,1 -1,0 0,1 -1,0 0,1 -1,0 0,1 5,0 0,-1 1,0 0,-1 1,0 0,-1 1,0 0,-1 -5,0 z m -187,-2 0,1 1,0 0,-1 -1,0 z m 1,1 0,1 1,0 0,-1 -1,0 z m 0,1 -1,0 0,2 1,0 0,-2 z m 0,2 0,1 1,0 0,-1 -1,0 z m 1,1 0,1 1,0 0,-1 -1,0 z m 1,1 0,1 1,0 0,-1 -1,0 z m 0,1 -1,0 0,1 1,0 0,-1 z m -1,1 -1,0 0,1 1,0 0,-1 z m -1,1 -1,0 0,2 1,0 0,-2 z m 0,2 0,1 1,0 0,-1 -1,0 z m 0,1 -1,0 0,1 1,0 0,-1 z m -1,0 0,-1 -1,0 0,1 1,0 z m 0,-3 0,-1 -1,0 0,1 1,0 z m -1,-1 0,-1 -1,0 0,1 1,0 z m -1,-1 0,-1 -1,0 0,1 1,0 z m 0,-1 1,0 0,-1 -1,0 0,1 z m 1,-1 1,0 0,-1 -1,0 0,1 z m 1,-3 0,-1 -1,0 0,1 1,0 z m 28,-2 0,1 1,0 0,-1 -1,0 z m 1,1 0,1 1,0 0,-1 -1,0 z m 0,1 -1,0 0,2 1,0 0,-2 z m 0,2 0,1 1,0 0,-1 -1,0 z m 1,1 0,1 1,0 0,-1 -1,0 z m 1,1 0,1 1,0 0,-1 -1,0 z m 0,1 -1,0 0,1 1,0 0,-1 z m -1,1 -1,0 0,1 1,0 0,-1 z m -1,1 -1,0 0,2 1,0 0,-2 z m 0,2 0,1 1,0 0,-1 -1,0 z m 0,1 -1,0 0,1 1,0 0,-1 z m -1,0 0,-1 -1,0 0,1 1,0 z m 0,-3 0,-1 -1,0 0,1 1,0 z m -1,-1 0,-1 -1,0 0,1 1,0 z m -1,-1 0,-1 -1,0 0,1 1,0 z m 0,-1 1,0 0,-1 -1,0 0,1 z m 1,-1 1,0 0,-1 -1,0 0,1 z m 1,-3 0,-1 -1,0 0,1 1,0 z m 28,-2 0,1 1,0 0,-1 -1,0 z m 1,1 0,1 1,0 0,-1 -1,0 z m 0,1 -1,0 0,2 1,0 0,-2 z m 0,2 0,1 1,0 0,-1 -1,0 z m 1,1 0,1 1,0 0,-1 -1,0 z m 1,1 0,1 1,0 0,-1 -1,0 z m 0,1 -1,0 0,1 1,0 0,-1 z m -1,1 -1,0 0,1 1,0 0,-1 z m -1,1 -1,0 0,2 1,0 0,-2 z m 0,2 0,1 1,0 0,-1 -1,0 z m 0,1 -1,0 0,1 1,0 0,-1 z m -1,0 0,-1 -1,0 0,1 1,0 z m 0,-3 0,-1 -1,0 0,1 1,0 z m -1,-1 0,-1 -1,0 0,1 1,0 z m -1,-1 0,-1 -1,0 0,1 1,0 z m 0,-1 1,0 0,-1 -1,0 0,1 z m 1,-1 1,0 0,-1 -1,0 0,1 z m 1,-3 0,-1 -1,0 0,1 1,0 z m 28,-2 0,1 1,0 0,-1 -1,0 z m 1,1 0,1 1,0 0,-1 -1,0 z m 0,1 -1,0 0,2 1,0 0,-2 z m 0,2 0,1 1,0 0,-1 -1,0 z m 1,1 0,1 1,0 0,-1 -1,0 z m 1,1 0,1 1,0 0,-1 -1,0 z m 0,1 -1,0 0,1 1,0 0,-1 z m -1,1 -1,0 0,1 1,0 0,-1 z m -1,1 -1,0 0,2 1,0 0,-2 z m 0,2 0,1 1,0 0,-1 -1,0 z m 0,1 -1,0 0,1 1,0 0,-1 z m -1,0 0,-1 -1,0 0,1 1,0 z m 0,-3 0,-1 -1,0 0,1 1,0 z m -1,-1 0,-1 -1,0 0,1 1,0 z m -1,-1 0,-1 -1,0 0,1 1,0 z m 0,-1 1,0 0,-1 -1,0 0,1 z m 1,-1 1,0 0,-1 -1,0 0,1 z m 1,-3 0,-1 -1,0 0,1 1,0 z m 28,-2 0,1 1,0 0,-1 -1,0 z m 1,1 0,1 1,0 0,-1 -1,0 z m 0,1 -1,0 0,2 1,0 0,-2 z m 0,2 0,1 1,0 0,-1 -1,0 z m 1,1 0,1 1,0 0,-1 -1,0 z m 1,1 0,1 1,0 0,-1 -1,0 z m 0,1 -1,0 0,1 1,0 0,-1 z m -1,1 -1,0 0,1 1,0 0,-1 z m -1,1 -1,0 0,2 1,0 0,-2 z m 0,2 0,1 1,0 0,-1 -1,0 z m 0,1 -1,0 0,1 1,0 0,-1 z m -1,0 0,-1 -1,0 0,1 1,0 z m 0,-3 0,-1 -1,0 0,1 1,0 z m -1,-1 0,-1 -1,0 0,1 1,0 z m -1,-1 0,-1 -1,0 0,1 1,0 z m 0,-1 1,0 0,-1 -1,0 0,1 z m 1,-1 1,0 0,-1 -1,0 0,1 z m 1,-3 0,-1 -1,0 0,1 1,0 z m 28,-2 0,1 1,0 0,-1 -1,0 z m 1,1 0,1 1,0 0,-1 -1,0 z m 0,1 -1,0 0,2 1,0 0,-2 z m 0,2 0,1 1,0 0,-1 -1,0 z m 1,1 0,1 1,0 0,-1 -1,0 z m 1,1 0,1 1,0 0,-1 -1,0 z m 0,1 -1,0 0,1 1,0 0,-1 z m -1,1 -1,0 0,1 1,0 0,-1 z m -1,1 -1,0 0,2 1,0 0,-2 z m 0,2 0,1 1,0 0,-1 -1,0 z m 0,1 -1,0 0,1 1,0 0,-1 z m -1,0 0,-1 -1,0 0,1 1,0 z m 0,-3 0,-1 -1,0 0,1 1,0 z m -1,-1 0,-1 -1,0 0,1 1,0 z m -1,-1 0,-1 -1,0 0,1 1,0 z m 0,-1 1,0 0,-1 -1,0 0,1 z m 1,-1 1,0 0,-1 -1,0 0,1 z m 1,-3 0,-1 -1,0 0,1 1,0 z m 28,-2 0,1 1,0 0,-1 -1,0 z m 1,1 0,1 1,0 0,-1 -1,0 z m 0,1 -1,0 0,2 1,0 0,-2 z m 0,2 0,1 1,0 0,-1 -1,0 z m 1,1 0,1 1,0 0,-1 -1,0 z m 1,1 0,1 1,0 0,-1 -1,0 z m 0,1 -1,0 0,1 1,0 0,-1 z m -1,1 -1,0 0,1 1,0 0,-1 z m -1,1 -1,0 0,2 1,0 0,-2 z m 0,2 0,1 1,0 0,-1 -1,0 z m 0,1 -1,0 0,1 1,0 0,-1 z m -1,0 0,-1 -1,0 0,1 1,0 z m 0,-3 0,-1 -1,0 0,1 1,0 z m -1,-1 0,-1 -1,0 0,1 1,0 z m -1,-1 0,-1 -1,0 0,1 1,0 z m 0,-1 1,0 0,-1 -1,0 0,1 z m 1,-1 1,0 0,-1 -1,0 0,1 z m 1,-3 0,-1 -1,0 0,1 1,0 z m -182,4 0,1 1,0 0,-1 -1,0 z m 14,0 0,1 1,0 0,-1 -1,0 z m 14,0 0,1 1,0 0,-1 -1,0 z m 14,0 0,1 1,0 0,-1 -1,0 z m 14,0 0,1 1,0 0,-1 -1,0 z m 14,0 0,1 1,0 0,-1 -1,0 z m 14,0 0,1 1,0 0,-1 -1,0 z m 14,0 0,1 1,0 0,-1 -1,0 z m 14,0 0,1 1,0 0,-1 -1,0 z m 14,0 0,1 1,0 0,-1 -1,0 z m 14,0 0,1 1,0 0,-1 -1,0 z m 14,0 0,1 1,0 0,-1 -1,0 z m 14,0 0,1 1,0 0,-1 -1,0 z m 14,0 0,1 1,0 0,-1 -1,0 z m 14,0 0,1 1,0 0,-1 -1,0 z m -194,1 0,1 1,0 0,1 1,0 0,1 1,0 0,1 5,0 0,-1 -1,0 0,-1 -1,0 0,-1 -1,0 0,-1 -5,0 z m 3,4 -1,0 0,-1 -1,0 0,-1 -1,0 0,-1 -1,0 0,5 1,0 0,1 1,0 0,1 1,0 0,1 1,0 0,-5 z m 25,-4 0,1 1,0 0,1 1,0 0,1 1,0 0,1 5,0 0,-1 -1,0 0,-1 -1,0 0,-1 -1,0 0,-1 -5,0 z m 3,4 -1,0 0,-1 -1,0 0,-1 -1,0 0,-1 -1,0 0,5 1,0 0,1 1,0 0,1 1,0 0,1 1,0 0,-5 z m 17,-4 0,1 -1,0 0,1 -1,0 0,1 -1,0 0,1 5,0 0,-1 1,0 0,-1 1,0 0,-1 1,0 0,-1 -5,0 z m 5,1 0,1 -1,0 0,1 -1,0 0,1 -1,0 0,5 1,0 0,-1 1,0 0,-1 1,0 0,-1 1,0 0,-5 -1,0 z m 23,-1 0,1 -1,0 0,1 -1,0 0,1 -1,0 0,1 5,0 0,-1 1,0 0,-1 1,0 0,-1 1,0 0,-1 -5,0 z m 5,1 0,1 -1,0 0,1 -1,0 0,1 -1,0 0,5 1,0 0,-1 1,0 0,-1 1,0 0,-1 1,0 0,-5 -1,0 z m 31,-1 0,1 1,0 0,1 1,0 0,1 1,0 0,1 5,0 0,-1 -1,0 0,-1 -1,0 0,-1 -1,0 0,-1 -5,0 z m 3,4 -1,0 0,-1 -1,0 0,-1 -1,0 0,-1 -1,0 0,5 1,0 0,1 1,0 0,1 1,0 0,1 1,0 0,-5 z m 25,-4 0,1 1,0 0,1 1,0 0,1 1,0 0,1 5,0 0,-1 -1,0 0,-1 -1,0 0,-1 -1,0 0,-1 -5,0 z m 3,4 -1,0 0,-1 -1,0 0,-1 -1,0 0,-1 -1,0 0,5 1,0 0,1 1,0 0,1 1,0 0,1 1,0 0,-5 z m 17,-4 0,1 -1,0 0,1 -1,0 0,1 -1,0 0,1 5,0 0,-1 1,0 0,-1 1,0 0,-1 1,0 0,-1 -5,0 z m 5,1 0,1 -1,0 0,1 -1,0 0,1 -1,0 0,5 1,0 0,-1 1,0 0,-1 1,0 0,-1 1,0 0,-5 -1,0 z m 23,-1 0,1 -1,0 0,1 -1,0 0,1 -1,0 0,1 5,0 0,-1 1,0 0,-1 1,0 0,-1 1,0 0,-1 -5,0 z m 5,1 0,1 -1,0 0,1 -1,0 0,1 -1,0 0,5 1,0 0,-1 1,0 0,-1 1,0 0,-1 1,0 0,-5 -1,0 z m -201,-0.99805 0,1 -1,0 0,1 -1,0 0,1 -1,0 0,1 5,0 0,-1 1,0 0,-1 1,0 0,-1 1,0 0,-1 -5,0 z m 5,1 0,1 -1,0 0,1 -1,0 0,1 -1,0 0,5 1,0 0,-1 1,0 0,-1 1,0 0,-1 1,0 0,-5 -1,0 z m 23,-1 0,1 -1,0 0,1 -1,0 0,1 -1,0 0,1 5,0 0,-1 1,0 0,-1 1,0 0,-1 1,0 0,-1 -5,0 z m 5,1 0,1 -1,0 0,1 -1,0 0,1 -1,0 0,5 1,0 0,-1 1,0 0,-1 1,0 0,-1 1,0 0,-5 -1,0 z m 31,-1 0,1 1,0 0,1 1,0 0,1 1,0 0,1 5,0 0,-1 -1,0 0,-1 -1,0 0,-1 -1,0 0,-1 -5,0 z m 3,4 -1,0 0,-1 -1,0 0,-1 -1,0 0,-1 -1,0 0,5 1,0 0,1 1,0 0,1 1,0 0,1 1,0 0,-5 z m 25,-4 0,1 1,0 0,1 1,0 0,1 1,0 0,1 5,0 0,-1 -1,0 0,-1 -1,0 0,-1 -1,0 0,-1 -5,0 z m 3,4 -1,0 0,-1 -1,0 0,-1 -1,0 0,-1 -1,0 0,5 1,0 0,1 1,0 0,1 1,0 0,1 1,0 0,-5 z m 17,-4 0,1 -1,0 0,1 -1,0 0,1 -1,0 0,1 5,0 0,-1 1,0 0,-1 1,0 0,-1 1,0 0,-1 -5,0 z m 5,1 0,1 -1,0 0,1 -1,0 0,1 -1,0 0,5 1,0 0,-1 1,0 0,-1 1,0 0,-1 1,0 0,-5 -1,0 z m 23,-1 0,1 -1,0 0,1 -1,0 0,1 -1,0 0,1 5,0 0,-1 1,0 0,-1 1,0 0,-1 1,0 0,-1 -5,0 z m 5,1 0,1 -1,0 0,1 -1,0 0,1 -1,0 0,5 1,0 0,-1 1,0 0,-1 1,0 0,-1 1,0 0,-5 -1,0 z m 31,-1 0,1 1,0 0,1 1,0 0,1 1,0 0,1 5,0 0,-1 -1,0 0,-1 -1,0 0,-1 -1,0 0,-1 -5,0 z m 3,4 -1,0 0,-1 -1,0 0,-1 -1,0 0,-1 -1,0 0,5 1,0 0,1 1,0 0,1 1,0 0,1 1,0 0,-5 z m 25,-4 0,1 1,0 0,1 1,0 0,1 1,0 0,1 5,0 0,-1 -1,0 0,-1 -1,0 0,-1 -1,0 0,-1 -5,0 z m 3,4 -1,0 0,-1 -1,0 0,-1 -1,0 0,-1 -1,0 0,5 1,0 0,1 1,0 0,1 1,0 0,1 1,0 0,-5 z m -188,2.99805 0,1 1,0 0,-1 -1,0 z m 1,1 0,1 1,0 0,-1 -1,0 z m 1,0 1,0 0,-1 -1,0 0,1 z m 26,-1 0,1 1,0 0,-1 -1,0 z m 1,1 0,1 1,0 0,-1 -1,0 z m 1,0 1,0 0,-1 -1,0 0,1 z m 26,-1 0,1 1,0 0,-1 -1,0 z m 1,1 0,1 1,0 0,-1 -1,0 z m 1,0 1,0 0,-1 -1,0 0,1 z m 26,-1 0,1 1,0 0,-1 -1,0 z m 1,1 0,1 1,0 0,-1 -1,0 z m 1,0 1,0 0,-1 -1,0 0,1 z m 26,-1 0,1 1,0 0,-1 -1,0 z m 1,1 0,1 1,0 0,-1 -1,0 z m 1,0 1,0 0,-1 -1,0 0,1 z m 26,-1 0,1 1,0 0,-1 -1,0 z m 1,1 0,1 1,0 0,-1 -1,0 z m 1,0 1,0 0,-1 -1,0 0,1 z m 26,-1 0,1 1,0 0,-1 -1,0 z m 1,1 0,1 1,0 0,-1 -1,0 z m 1,0 1,0 0,-1 -1,0 0,1 z m -170,5 0,1 -2,0 0,1 -4,0 0,1 -3,0 0,1 -4,0 0,1 -2,0 0,1 -1,0 0,2 -1,0 0,2 -1,0 0,1 -1,0 0,1 -1,0 0,3 1,0 0,-1 1,0 0,-1 1,0 1,0 0,2 -1,0 0,9 1,0 0,1 2,0 0,-2 -1,0 0,-3 1,0 0,1 1,0 0,2 1,0 0,2 3,0 1,0 0,-1 -1,0 0,-1 0,-1 -1,0 0,-1 -1,0 0,-1 0,-1 1,0 0,-1 1,0 0,-1 1,0 0,1 2,0 0,1 2,0 0,-1 1,0 0,-1 3,0 0,1 -1,0 0,3 1,0 0,3 1,0 0,1 3,0 0,-2 -1,0 0,-3 4,0 0,1 2,0 0,2 1,0 0,1 1,0 0,1 4,0 0,-1 -1,0 0,-1 -1,0 0,-2 -1,0 0,-1 -1,0 0,-2 1,0 0,-1 3,0 0,1 1,0 0,1 1,0 0,-1 1,0 0,-1 1,0 0,-1 1,0 0,-2 1,0 0,-1 1,0 0,-3 -1,0 0,-4 0,-2 -1,0 0,-1 -6,0 0,-1 0,-1 -4,0 0,-1 -10,0 z m 49,0 0,1 -4,0 0,1 0,1 -6,0 0,1 -1,0 0,2 0,4 -1,0 0,3 1,0 0,1 1,0 0,2 1,0 0,1 1,0 0,1 1,0 0,1 1,0 0,-1 1,0 0,-1 3,0 0,1 1,0 0,2 -1,0 0,1 -1,0 0,2 -1,0 0,1 -1,0 0,1 4,0 0,-1 1,0 0,-1 1,0 0,-2 2,0 0,-1 4,0 0,3 -1,0 0,2 3,0 0,-1 1,0 0,-3 1,0 0,-3 -1,0 0,-1 3,0 0,1 1,0 0,1 2,0 0,-1 2,0 0,-1 1,0 0,1 1,0 0,1 1,0 0,1 0,1 -1,0 0,1 -1,0 0,1 0,1 -1,0 0,1 1,0 3,0 0,-2 1,0 0,-2 1,0 0,-1 1,0 0,3 -1,0 0,2 2,0 0,-1 1,0 0,-9 -1,0 0,-2 1,0 1,0 0,1 1,0 0,1 1,0 0,-3 -1,0 0,-1 -1,0 0,-1 -1,0 0,-2 -1,0 0,-2 -1,0 0,-1 -2,0 0,-1 -4,0 0,-1 -3,0 0,-1 -4,0 0,-1 -2,0 0,-1 -10,0 z m 36,0 0,1 -1,0 0,1 -1,0 0,1 -1,0 0,1 1,0 0,1 1,0 0,1 1,0 0,1 1,0 0,-1 1,0 0,-1 1,0 0,-1 1,0 0,-1 -1,0 0,-1 -1,0 0,-1 -1,0 0,-1 -1,0 z m 27,0 0,1 -2,0 0,1 -4,0 0,1 -3,0 0,1 -4,0 0,1 -2,0 0,1 -1,0 0,2 -1,0 0,2 -1,0 0,1 -1,0 0,1 -1,0 0,3 1,0 0,-1 1,0 0,-1 1,0 1,0 0,2 -1,0 0,9 1,0 0,1 2,0 0,-2 -1,0 0,-3 1,0 0,1 1,0 0,2 1,0 0,2 3,0 1,0 0,-1 -1,0 0,-1 0,-1 -1,0 0,-1 -1,0 0,-1 0,-1 1,0 0,-1 1,0 0,-1 1,0 0,1 2,0 0,1 2,0 0,-1 1,0 0,-1 3,0 0,1 -1,0 0,3 1,0 0,3 1,0 0,1 3,0 0,-2 -1,0 0,-3 4,0 0,1 2,0 0,2 1,0 0,1 1,0 0,1 4,0 0,-1 -1,0 0,-1 -1,0 0,-2 -1,0 0,-1 -1,0 0,-2 1,0 0,-1 3,0 0,1 1,0 0,1 1,0 0,-1 1,0 0,-1 1,0 0,-1 1,0 0,-2 1,0 0,-1 1,0 0,-3 -1,0 0,-4 0,-2 -1,0 0,-1 -6,0 0,-1 0,-1 -4,0 0,-1 -10,0 z m 49,0 0,1 -4,0 0,1 0,1 -6,0 0,1 -1,0 0,2 0,4 -1,0 0,3 1,0 0,1 1,0 0,2 1,0 0,1 1,0 0,1 1,0 0,1 1,0 0,-1 1,0 0,-1 3,0 0,1 1,0 0,2 -1,0 0,1 -1,0 0,2 -1,0 0,1 -1,0 0,1 4,0 0,-1 1,0 0,-1 1,0 0,-2 2,0 0,-1 4,0 0,3 -1,0 0,2 3,0 0,-1 1,0 0,-3 1,0 0,-3 -1,0 0,-1 3,0 0,1 1,0 0,1 2,0 0,-1 2,0 0,-1 1,0 0,1 1,0 0,1 1,0 0,1 0,1 -1,0 0,1 -1,0 0,1 0,1 -1,0 0,1 1,0 3,0 0,-2 1,0 0,-2 1,0 0,-1 1,0 0,3 -1,0 0,2 2,0 0,-1 1,0 0,-9 -1,0 0,-2 1,0 1,0 0,1 1,0 0,1 1,0 0,-3 -1,0 0,-1 -1,0 0,-1 -1,0 0,-2 -1,0 0,-2 -1,0 0,-1 -2,0 0,-1 -4,0 0,-1 -3,0 0,-1 -4,0 0,-1 -2,0 0,-1 -10,0 z m -76,2 1,0 0,1 1,0 0,1 -1,0 0,1 -1,0 0,-1 -1,0 0,-1 1,0 0,-1 z m -56,2 0,1 1,0 0,-1 -1,0 z m 1,1 0,1 1,0 0,-1 -1,0 z m 0,1 -1,0 0,1 1,0 0,-1 z m -1,0 0,-1 -1,0 0,1 1,0 z m 112,-2 0,1 1,0 0,-1 -1,0 z m 1,1 0,1 1,0 0,-1 -1,0 z m 0,1 -1,0 0,1 1,0 0,-1 z m -1,0 0,-1 -1,0 0,1 1,0 z m -122,0 1,0 0,1 -1,0 0,3 -2,0 0,-2 1,0 0,-1 1,0 0,-1 z m 20,0 1,0 0,1 1,0 0,1 1,0 0,2 -2,0 0,-3 -1,0 0,-1 z m 92,0 1,0 0,1 -1,0 0,3 -2,0 0,-2 1,0 0,-1 1,0 0,-1 z m 20,0 1,0 0,1 1,0 0,1 1,0 0,2 -2,0 0,-3 -1,0 0,-1 z m -122,3 0,1 -1,0 0,1 -1,0 0,1 1,0 0,1 1,0 0,1 1,0 0,-1 1,0 0,-1 1,0 0,-1 -1,0 0,-1 -1,0 0,-1 -1,0 z m 112,0 0,1 -1,0 0,1 -1,0 0,1 1,0 0,1 1,0 0,1 1,0 0,-1 1,0 0,-1 1,0 0,-1 -1,0 0,-1 -1,0 0,-1 -1,0 z m -56,1 0,1 1,0 0,-1 -1,0 z m 1,1 0,1 1,0 0,-1 -1,0 z m 0,1 -1,0 0,1 1,0 0,-1 z m -1,0 0,-1 -1,0 0,1 1,0 z m -56,-1 1,0 0,1 -1,0 0,-1 z m 112,0 1,0 0,1 -1,0 0,-1 z m -116,5 0,1 1,0 0,-1 -1,0 z m 1,1 0,1 1,0 0,-1 -1,0 z m 0,1 -1,0 0,1 1,0 0,-1 z m -1,0 0,-1 -1,0 0,1 1,0 z m 8,-2 0,1 1,0 0,-1 -1,0 z m 1,1 0,1 1,0 0,-1 -1,0 z m 0,1 -1,0 0,1 1,0 0,-1 z m -1,0 0,-1 -1,0 0,1 1,0 z m 52,-2 0,1 1,0 0,-1 -1,0 z m 1,1 0,1 1,0 0,-1 -1,0 z m 0,1 -1,0 0,1 1,0 0,-1 z m -1,0 0,-1 -1,0 0,1 1,0 z m 52,-2 0,1 1,0 0,-1 -1,0 z m 1,1 0,1 1,0 0,-1 -1,0 z m 0,1 -1,0 0,1 1,0 0,-1 z m -1,0 0,-1 -1,0 0,1 1,0 z m 8,-2 0,1 1,0 0,-1 -1,0 z m 1,1 0,1 1,0 0,-1 -1,0 z m 0,1 -1,0 0,1 1,0 0,-1 z m -1,0 0,-1 -1,0 0,1 1,0 z m -116,3 0,1 -1,0 0,1 -1,0 0,1 -1,0 0,1 3,0 1,0 3,0 0,-1 -1,0 0,-1 -1,0 0,-1 -1,0 0,-1 -1,0 z m 112,0 0,1 -1,0 0,1 -1,0 0,1 -1,0 0,1 3,0 1,0 3,0 0,-1 -1,0 0,-1 -1,0 0,-1 -1,0 0,-1 -1,0 z m -56,1 0,1 1,0 0,-1 -1,0 z m 1,1 0,1 1,0 0,-1 -1,0 z m 0,1 -1,0 0,1 1,0 0,-1 z m -1,0 0,-1 -1,0 0,1 1,0 z m -56,-1 1,0 0,1 -1,0 0,-1 z m 112,0 1,0 0,1 -1,0 0,-1 z m -162,6 0,1 -1,0 0,2 3,0 1,0 3,0 1,0 3,0 1,0 3,0 1,0 3,0 1,0 3,0 1,0 3,0 1,0 3,0 1,0 3,0 1,0 3,0 1,0 3,0 1,0 3,0 1,0 3,0 1,0 3,0 1,0 3,0 1,0 3,0 1,0 3,0 1,0 3,0 1,0 3,0 1,0 3,0 1,0 3,0 1,0 3,0 1,0 3,0 1,0 3,0 1,0 3,0 1,0 3,0 1,0 3,0 1,0 3,0 1,0 3,0 1,0 3,0 1,0 3,0 1,0 3,0 1,0 3,0 1,0 3,0 1,0 3,0 1,0 3,0 1,0 3,0 1,0 3,0 1,0 3,0 1,0 3,0 1,0 3,0 1,0 3,0 1,0 3,0 1,0 3,0 1,0 3,0 1,0 3,0 1,0 3,0 1,0 3,0 1,0 3,0 1,0 3,0 1,0 3,0 1,0 3,0 1,0 3,0 1,0 3,0 0,-2 -1,0 0,-1 -1,0 0,1 -1,0 0,1 -1,0 0,-1 -1,0 0,-1 -1,0 0,1 -1,0 0,1 -1,0 0,-1 -1,0 0,-1 -1,0 0,1 -1,0 0,1 -1,0 0,-1 -1,0 0,-1 -1,0 0,1 -1,0 0,1 -1,0 0,-1 -1,0 0,-1 -1,0 0,1 -1,0 0,1 -1,0 0,-1 -1,0 0,-1 -1,0 0,1 -1,0 0,1 -1,0 0,-1 -1,0 0,-1 -1,0 0,1 -1,0 0,1 -1,0 0,-1 -1,0 0,-1 -1,0 0,1 -1,0 0,1 -1,0 0,-1 -1,0 0,-1 -1,0 0,1 -1,0 0,1 -1,0 0,-1 -1,0 0,-1 -1,0 0,1 -1,0 0,1 -1,0 0,-1 -1,0 0,-1 -1,0 0,1 -1,0 0,1 -1,0 0,-1 -1,0 0,-1 -1,0 0,1 -1,0 0,1 -1,0 0,-1 -1,0 0,-1 -1,0 0,1 -1,0 0,1 -1,0 0,-1 -1,0 0,-1 -1,0 0,1 -1,0 0,1 -1,0 0,-1 -1,0 0,-1 -1,0 0,1 -1,0 0,1 -1,0 0,-1 -1,0 0,-1 -1,0 0,1 -1,0 0,1 -1,0 0,-1 -1,0 0,-1 -1,0 0,1 -1,0 0,1 -1,0 0,-1 -1,0 0,-1 -1,0 0,1 -1,0 0,1 -1,0 0,-1 -1,0 0,-1 -1,0 0,1 -1,0 0,1 -1,0 0,-1 -1,0 0,-1 -1,0 0,1 -1,0 0,1 -1,0 0,-1 -1,0 0,-1 -1,0 0,1 -1,0 0,1 -1,0 0,-1 -1,0 0,-1 -1,0 0,1 -1,0 0,1 -1,0 0,-1 -1,0 0,-1 -1,0 0,1 -1,0 0,1 -1,0 0,-1 -1,0 0,-1 -1,0 0,1 -1,0 0,1 -1,0 0,-1 -1,0 0,-1 -1,0 0,1 -1,0 0,1 -1,0 0,-1 -1,0 0,-1 -1,0 0,1 -1,0 0,1 -1,0 0,-1 -1,0 0,-1 -1,0 0,1 -1,0 0,1 -1,0 0,-1 -1,0 0,-1 -1,0 0,1 -1,0 0,1 -1,0 0,-1 -1,0 0,-1 -1,0 0,1 -1,0 0,1 -1,0 0,-1 -1,0 0,-1 -1,0 0,1 -1,0 0,1 -1,0 0,-1 -1,0 0,-1 -1,0 0,1 -1,0 0,1 -1,0 0,-1 -1,0 0,-1 -1,0 0,1 -1,0 0,1 -1,0 0,-1 -1,0 0,-1 -1,0 0,1 -1,0 0,1 -1,0 0,-1 -1,0 0,-1 -1,0 0,1 -1,0 0,1 -1,0 0,-1 -1,0 0,-1 -1,0 0,1 -1,0 0,1 -1,0 0,-1 -1,0 0,-1 -1,0 0,1 -1,0 0,1 -1,0 0,-1 -1,0 0,-1 -1,0 0,1 -1,0 0,1 -1,0 0,-1 -1,0 0,-1 -1,0 0,1 -1,0 0,1 -1,0 0,-1 -1,0 0,-1 -1,0 0,1 -1,0 0,1 -1,0 0,-1 -1,0 0,-1 -1,0 0,1 -1,0 0,1 -1,0 0,-1 -1,0 0,-1 -1,0 0,1 -1,0 0,1 -1,0 0,-1 -1,0 0,-1 -1,0 0,1 -1,0 0,1 -1,0 0,-1 -1,0 0,-1 -1,0 0,1 -1,0 0,1 -1,0 0,-1 -1,0 0,-1 -1,0 0,1 -1,0 0,1 -1,0 0,-1 -1,0 0,-1 -1,0 0,1 -1,0 0,1 -1,0 0,-1 -1,0 0,-1 -1,0 0,1 -1,0 0,1 -1,0 0,-1 -1,0 0,-1 -1,0 0,1 -1,0 0,1 -1,0 0,-1 -1,0 0,-1 -1,0 0,1 -1,0 0,1 -1,0 0,-1 -1,0 0,-1 -1,0 0,1 -1,0 0,1 -1,0 0,-1 -1,0 0,-1 -1,0 0,1 -1,0 0,1 -1,0 0,-1 -1,0 0,-1 -1,0 0,1 -1,0 0,1 -1,0 0,-1 -1,0 0,-1 -1,0 0,1 -1,0 0,1 -1,0 0,-1 -1,0 0,-1 -1,0 0,1 -1,0 0,1 -1,0 0,-1 -1,0 0,-1 -1,0 z m 0,4 0,1 1,0 0,-1 -1,0 z m 1,1 0,1 1,0 0,-1 -1,0 z m 1,1 0,1 1,0 0,-1 -1,0 z m 1,0 1,0 0,-1 -1,0 0,1 z m 1,-1 1,0 0,-1 -1,0 0,1 z m 1,0 0,1 1,0 0,-1 -1,0 z m 1,1 0,1 1,0 0,-1 -1,0 z m 1,0 1,0 0,-1 -1,0 0,1 z m 1,-1 1,0 0,-1 -1,0 0,1 z m 1,0 0,1 1,0 0,-1 -1,0 z m 1,1 0,1 1,0 0,-1 -1,0 z m 1,0 1,0 0,-1 -1,0 0,1 z m 1,-1 1,0 0,-1 -1,0 0,1 z m 1,0 0,1 1,0 0,-1 -1,0 z m 1,1 0,1 1,0 0,-1 -1,0 z m 1,0 1,0 0,-1 -1,0 0,1 z m 1,-1 1,0 0,-1 -1,0 0,1 z m 1,0 0,1 1,0 0,-1 -1,0 z m 1,1 0,1 1,0 0,-1 -1,0 z m 1,0 1,0 0,-1 -1,0 0,1 z m 1,-1 1,0 0,-1 -1,0 0,1 z m 1,0 0,1 1,0 0,-1 -1,0 z m 1,1 0,1 1,0 0,-1 -1,0 z m 1,0 1,0 0,-1 -1,0 0,1 z m 1,-1 1,0 0,-1 -1,0 0,1 z m 1,0 0,1 1,0 0,-1 -1,0 z m 1,1 0,1 1,0 0,-1 -1,0 z m 1,0 1,0 0,-1 -1,0 0,1 z m 1,-1 1,0 0,-1 -1,0 0,1 z m 1,0 0,1 1,0 0,-1 -1,0 z m 1,1 0,1 1,0 0,-1 -1,0 z m 1,0 1,0 0,-1 -1,0 0,1 z m 1,-1 1,0 0,-1 -1,0 0,1 z m 1,0 0,1 1,0 0,-1 -1,0 z m 1,1 0,1 1,0 0,-1 -1,0 z m 1,0 1,0 0,-1 -1,0 0,1 z m 1,-1 1,0 0,-1 -1,0 0,1 z m 1,0 0,1 1,0 0,-1 -1,0 z m 1,1 0,1 1,0 0,-1 -1,0 z m 1,0 1,0 0,-1 -1,0 0,1 z m 1,-1 1,0 0,-1 -1,0 0,1 z m 1,0 0,1 1,0 0,-1 -1,0 z m 1,1 0,1 1,0 0,-1 -1,0 z m 1,0 1,0 0,-1 -1,0 0,1 z m 1,-1 1,0 0,-1 -1,0 0,1 z m 1,0 0,1 1,0 0,-1 -1,0 z m 1,1 0,1 1,0 0,-1 -1,0 z m 1,0 1,0 0,-1 -1,0 0,1 z m 1,-1 1,0 0,-1 -1,0 0,1 z m 1,0 0,1 1,0 0,-1 -1,0 z m 1,1 0,1 1,0 0,-1 -1,0 z m 1,0 1,0 0,-1 -1,0 0,1 z m 1,-1 1,0 0,-1 -1,0 0,1 z m 1,0 0,1 1,0 0,-1 -1,0 z m 1,1 0,1 1,0 0,-1 -1,0 z m 1,0 1,0 0,-1 -1,0 0,1 z m 1,-1 1,0 0,-1 -1,0 0,1 z m 1,0 0,1 1,0 0,-1 -1,0 z m 1,1 0,1 1,0 0,-1 -1,0 z m 1,0 1,0 0,-1 -1,0 0,1 z m 1,-1 1,0 0,-1 -1,0 0,1 z m 1,0 0,1 1,0 0,-1 -1,0 z m 1,1 0,1 1,0 0,-1 -1,0 z m 1,0 1,0 0,-1 -1,0 0,1 z m 1,-1 1,0 0,-1 -1,0 0,1 z m 1,0 0,1 1,0 0,-1 -1,0 z m 1,1 0,1 1,0 0,-1 -1,0 z m 1,0 1,0 0,-1 -1,0 0,1 z m 1,-1 1,0 0,-1 -1,0 0,1 z m 1,0 0,1 1,0 0,-1 -1,0 z m 1,1 0,1 1,0 0,-1 -1,0 z m 1,0 1,0 0,-1 -1,0 0,1 z m 1,-1 1,0 0,-1 -1,0 0,1 z m 1,0 0,1 1,0 0,-1 -1,0 z m 1,1 0,1 1,0 0,-1 -1,0 z m 1,0 1,0 0,-1 -1,0 0,1 z m 1,-1 1,0 0,-1 -1,0 0,1 z m 1,0 0,1 1,0 0,-1 -1,0 z m 1,1 0,1 1,0 0,-1 -1,0 z m 1,0 1,0 0,-1 -1,0 0,1 z m 1,-1 1,0 0,-1 -1,0 0,1 z m 1,0 0,1 1,0 0,-1 -1,0 z m 1,1 0,1 1,0 0,-1 -1,0 z m 1,0 1,0 0,-1 -1,0 0,1 z m 1,-1 1,0 0,-1 -1,0 0,1 z m 1,0 0,1 1,0 0,-1 -1,0 z m 1,1 0,1 1,0 0,-1 -1,0 z m 1,0 1,0 0,-1 -1,0 0,1 z m 1,-1 1,0 0,-1 -1,0 0,1 z m 1,0 0,1 1,0 0,-1 -1,0 z m 1,1 0,1 1,0 0,-1 -1,0 z m 1,0 1,0 0,-1 -1,0 0,1 z m 1,-1 1,0 0,-1 -1,0 0,1 z m 1,0 0,1 1,0 0,-1 -1,0 z m 1,1 0,1 1,0 0,-1 -1,0 z m 1,0 1,0 0,-1 -1,0 0,1 z m 1,-1 1,0 0,-1 -1,0 0,1 z m 1,0 0,1 1,0 0,-1 -1,0 z m 1,1 0,1 1,0 0,-1 -1,0 z m 1,0 1,0 0,-1 -1,0 0,1 z m 1,-1 1,0 0,-1 -1,0 0,1 z m 1,0 0,1 1,0 0,-1 -1,0 z m 1,1 0,1 1,0 0,-1 -1,0 z m 1,0 1,0 0,-1 -1,0 0,1 z m 1,-1 1,0 0,-1 -1,0 0,1 z m 1,0 0,1 1,0 0,-1 -1,0 z m 1,1 0,1 1,0 0,-1 -1,0 z m 1,0 1,0 0,-1 -1,0 0,1 z m 1,-1 1,0 0,-1 -1,0 0,1 z m 1,0 0,1 1,0 0,-1 -1,0 z m 1,1 0,1 1,0 0,-1 -1,0 z m 1,0 1,0 0,-1 -1,0 0,1 z m 1,-1 1,0 0,-1 -1,0 0,1 z m 1,0 0,1 1,0 0,-1 -1,0 z m 1,1 0,1 1,0 0,-1 -1,0 z m 1,0 1,0 0,-1 -1,0 0,1 z m 1,-1 1,0 0,-1 -1,0 0,1 z m 1,0 0,1 1,0 0,-1 -1,0 z m 1,1 0,1 1,0 0,-1 -1,0 z m 1,0 1,0 0,-1 -1,0 0,1 z m 1,-1 1,0 0,-1 -1,0 0,1 z m 1,0 0,1 1,0 0,-1 -1,0 z m 1,1 0,1 1,0 0,-1 -1,0 z m 1,0 1,0 0,-1 -1,0 0,1 z m 1,-1 1,0 0,-1 -1,0 0,1 z m 1,0 0,1 1,0 0,-1 -1,0 z m 1,1 0,1 1,0 0,-1 -1,0 z m 1,0 1,0 0,-1 -1,0 0,1 z m 1,-1 1,0 0,-1 -1,0 0,1 z m 1,0 0,1 1,0 0,-1 -1,0 z m 1,1 0,1 1,0 0,-1 -1,0 z m 1,0 1,0 0,-1 -1,0 0,1 z m 1,-1 1,0 0,-1 -1,0 0,1 z m 1,0 0,1 1,0 0,-1 -1,0 z m 1,1 0,1 1,0 0,-1 -1,0 z m 1,0 1,0 0,-1 -1,0 0,1 z m 1,-1 1,0 0,-1 -1,0 0,1 z m 1,0 0,1 1,0 0,-1 -1,0 z m 1,1 0,1 1,0 0,-1 -1,0 z m 1,0 1,0 0,-1 -1,0 0,1 z m 1,-1 1,0 0,-1 -1,0 0,1 z m 1,0 0,1 1,0 0,-1 -1,0 z m 1,1 0,1 1,0 0,-1 -1,0 z m 1,0 1,0 0,-1 -1,0 0,1 z m 1,-1 1,0 0,-1 -1,0 0,1 z m 1,0 0,1 1,0 0,-1 -1,0 z m 1,1 0,1 1,0 0,-1 -1,0 z m 1,0 1,0 0,-1 -1,0 0,1 z m 1,-1 1,0 0,-1 -1,0 0,1 z m 1,0 0,1 1,0 0,-1 -1,0 z m 1,1 0,1 1,0 0,-1 -1,0 z m 1,0 1,0 0,-1 -1,0 0,1 z m 1,-1 1,0 0,-1 -1,0 0,1 z m 1,0 0,1 1,0 0,-1 -1,0 z m 1,1 0,1 1,0 0,-1 -1,0 z m 1,0 1,0 0,-1 -1,0 0,1 z m 1,-1 1,0 0,-1 -1,0 0,1 z m 1,0 0,1 1,0 0,-1 -1,0 z m 1,1 0,1 1,0 0,-1 -1,0 z m 1,0 1,0 0,-1 -1,0 0,1 z m 1,-1 1,0 0,-1 -1,0 0,1 z m 1,0 0,1 1,0 0,-1 -1,0 z m 1,1 0,1 1,0 0,-1 -1,0 z m 1,0 1,0 0,-1 -1,0 0,1 z m 1,-1 1,0 0,-1 -1,0 0,1 z m 1,0 0,1 1,0 0,-1 -1,0 z m 1,1 0,1 1,0 0,-1 -1,0 z m 1,0 1,0 0,-1 -1,0 0,1 z m 1,-1 1,0 0,-1 -1,0 0,1 z m 1,0 0,1 1,0 0,-1 -1,0 z m 1,1 0,1 1,0 0,-1 -1,0 z m 1,0 1,0 0,-1 -1,0 0,1 z m 1,-1 1,0 0,-1 -1,0 0,1 z m 1,0 0,1 1,0 0,-1 -1,0 z m 1,1 0,1 1,0 0,-1 -1,0 z m 1,0 1,0 0,-1 -1,0 0,1 z m 1,-1 1,0 0,-1 -1,0 0,1 z m 1,0 0,1 1,0 0,-1 -1,0 z m 1,1 0,1 1,0 0,-1 -1,0 z m 1,0 1,0 0,-1 -1,0 0,1 z m 1,-1 1,0 0,-1 -1,0 0,1 z m 1,0 0,1 1,0 0,-1 -1,0 z m 1,1 0,1 1,0 0,-1 -1,0 z m 1,0 1,0 0,-1 -1,0 0,1 z m 1,-1 1,0 0,-1 -1,0 0,1 z m 1,0 0,1 1,0 0,-1 -1,0 z m 1,1 0,1 1,0 0,-1 -1,0 z m 1,0 1,0 0,-1 -1,0 0,1 z m 1,-1 1,0 0,-1 -1,0 0,1 z m 1,0 0,1 1,0 0,-1 -1,0 z m 1,1 0,1 1,0 0,-1 -1,0 z m 1,0 1,0 0,-1 -1,0 0,1 z m 1,-1 1,0 0,-1 -1,0 0,1 z m 1,0 0,1 1,0 0,-1 -1,0 z m 1,1 0,1 1,0 0,-1 -1,0 z m 1,0 1,0 0,-1 -1,0 0,1 z m 1,-1 1,0 0,-1 -1,0 0,1 z m 1,0 0,1 1,0 0,-1 -1,0 z m 1,1 0,1 1,0 0,-1 -1,0 z m 1,0 1,0 0,-1 -1,0 0,1 z m 1,-1 1,0 0,-1 -1,0 0,1 z m 1,0 0,1 1,0 0,-1 -1,0 z m 1,1 0,1 1,0 0,-1 -1,0 z m 1,0 1,0 0,-1 -1,0 0,1 z m 1,-1 1,0 0,-1 -1,0 0,1 z m 1,0 0,1 1,0 0,-1 -1,0 z m 1,1 0,1 1,0 0,-1 -1,0 z m 1,0 1,0 0,-1 -1,0 0,1 z m 1,-1 1,0 0,-1 -1,0 0,1 z m 1,0 0,1 1,0 0,-1 -1,0 z m 1,1 0,1 1,0 0,-1 -1,0 z m 1,0 1,0 0,-1 -1,0 0,1 z m 1,-1 1,0 0,-1 -1,0 0,1 z m 1,0 0,1 1,0 0,-1 -1,0 z m -2,2 0,1 1,0 0,-1 -1,0 z m 1,1 0,1 1,0 0,-1 -1,0 z m 1,0 1,0 0,-1 -1,0 0,1 z m -3,-1 -1,0 0,1 1,0 0,-1 z m -1,1 -1,0 0,1 1,0 0,-1 z m -1,0 0,-1 -1,0 0,1 1,0 z m -2,-1 -1,0 0,1 1,0 0,-1 z m -1,1 -1,0 0,1 1,0 0,-1 z m -1,0 0,-1 -1,0 0,1 1,0 z m -2,-1 -1,0 0,1 1,0 0,-1 z m -1,1 -1,0 0,1 1,0 0,-1 z m -1,0 0,-1 -1,0 0,1 1,0 z m -2,-1 -1,0 0,1 1,0 0,-1 z m -1,1 -1,0 0,1 1,0 0,-1 z m -1,0 0,-1 -1,0 0,1 1,0 z m -2,-1 -1,0 0,1 1,0 0,-1 z m -1,1 -1,0 0,1 1,0 0,-1 z m -1,0 0,-1 -1,0 0,1 1,0 z m -2,-1 -1,0 0,1 1,0 0,-1 z m -1,1 -1,0 0,1 1,0 0,-1 z m -1,0 0,-1 -1,0 0,1 1,0 z m -2,-1 -1,0 0,1 1,0 0,-1 z m -1,1 -1,0 0,1 1,0 0,-1 z m -1,0 0,-1 -1,0 0,1 1,0 z m -2,-1 -1,0 0,1 1,0 0,-1 z m -1,1 -1,0 0,1 1,0 0,-1 z m -1,0 0,-1 -1,0 0,1 1,0 z m -2,-1 -1,0 0,1 1,0 0,-1 z m -1,1 -1,0 0,1 1,0 0,-1 z m -1,0 0,-1 -1,0 0,1 1,0 z m -2,-1 -1,0 0,1 1,0 0,-1 z m -1,1 -1,0 0,1 1,0 0,-1 z m -1,0 0,-1 -1,0 0,1 1,0 z m -2,-1 -1,0 0,1 1,0 0,-1 z m -1,1 -1,0 0,1 1,0 0,-1 z m -1,0 0,-1 -1,0 0,1 1,0 z m -2,-1 -1,0 0,1 1,0 0,-1 z m -1,1 -1,0 0,1 1,0 0,-1 z m -1,0 0,-1 -1,0 0,1 1,0 z m -2,-1 -1,0 0,1 1,0 0,-1 z m -1,1 -1,0 0,1 1,0 0,-1 z m -1,0 0,-1 -1,0 0,1 1,0 z m -2,-1 -1,0 0,1 1,0 0,-1 z m -1,1 -1,0 0,1 1,0 0,-1 z m -1,0 0,-1 -1,0 0,1 1,0 z m -2,-1 -1,0 0,1 1,0 0,-1 z m -1,1 -1,0 0,1 1,0 0,-1 z m -1,0 0,-1 -1,0 0,1 1,0 z m -2,-1 -1,0 0,1 1,0 0,-1 z m -1,1 -1,0 0,1 1,0 0,-1 z m -1,0 0,-1 -1,0 0,1 1,0 z m -2,-1 -1,0 0,1 1,0 0,-1 z m -1,1 -1,0 0,1 1,0 0,-1 z m -1,0 0,-1 -1,0 0,1 1,0 z m -2,-1 -1,0 0,1 1,0 0,-1 z m -1,1 -1,0 0,1 1,0 0,-1 z m -1,0 0,-1 -1,0 0,1 1,0 z m -2,-1 -1,0 0,1 1,0 0,-1 z m -1,1 -1,0 0,1 1,0 0,-1 z m -1,0 0,-1 -1,0 0,1 1,0 z m -2,-1 -1,0 0,1 1,0 0,-1 z m -1,1 -1,0 0,1 1,0 0,-1 z m -1,0 0,-1 -1,0 0,1 1,0 z m -2,-1 -1,0 0,1 1,0 0,-1 z m -1,1 -1,0 0,1 1,0 0,-1 z m -1,0 0,-1 -1,0 0,1 1,0 z m -2,-1 -1,0 0,1 1,0 0,-1 z m -1,1 -1,0 0,1 1,0 0,-1 z m -1,0 0,-1 -1,0 0,1 1,0 z m -2,-1 -1,0 0,1 1,0 0,-1 z m -1,1 -1,0 0,1 1,0 0,-1 z m -1,0 0,-1 -1,0 0,1 1,0 z m -2,-1 -1,0 0,1 1,0 0,-1 z m -1,1 -1,0 0,1 1,0 0,-1 z m -1,0 0,-1 -1,0 0,1 1,0 z m -2,-1 -1,0 0,1 1,0 0,-1 z m -1,1 -1,0 0,1 1,0 0,-1 z m -1,0 0,-1 -1,0 0,1 1,0 z m -2,-1 -1,0 0,1 1,0 0,-1 z m -1,1 -1,0 0,1 1,0 0,-1 z m -1,0 0,-1 -1,0 0,1 1,0 z m -2,-1 -1,0 0,1 1,0 0,-1 z m -1,1 -1,0 0,1 1,0 0,-1 z m -1,0 0,-1 -1,0 0,1 1,0 z m -2,-1 -1,0 0,1 1,0 0,-1 z m -1,1 -1,0 0,1 1,0 0,-1 z m -1,0 0,-1 -1,0 0,1 1,0 z m -2,-1 -1,0 0,1 1,0 0,-1 z m -1,1 -1,0 0,1 1,0 0,-1 z m -1,0 0,-1 -1,0 0,1 1,0 z m -2,-1 -1,0 0,1 1,0 0,-1 z m -1,1 -1,0 0,1 1,0 0,-1 z m -1,0 0,-1 -1,0 0,1 1,0 z m -2,-1 -1,0 0,1 1,0 0,-1 z m -1,1 -1,0 0,1 1,0 0,-1 z m -1,0 0,-1 -1,0 0,1 1,0 z m -2,-1 -1,0 0,1 1,0 0,-1 z m -1,1 -1,0 0,1 1,0 0,-1 z m -1,0 0,-1 -1,0 0,1 1,0 z m -2,-1 -1,0 0,1 1,0 0,-1 z m -1,1 -1,0 0,1 1,0 0,-1 z m -1,0 0,-1 -1,0 0,1 1,0 z m -2,-1 -1,0 0,1 1,0 0,-1 z m -1,1 -1,0 0,1 1,0 0,-1 z m -1,0 0,-1 -1,0 0,1 1,0 z m -2,-1 -1,0 0,1 1,0 0,-1 z m -1,1 -1,0 0,1 1,0 0,-1 z m -1,0 0,-1 -1,0 0,1 1,0 z m -2,-1 -1,0 0,1 1,0 0,-1 z m -1,1 -1,0 0,1 1,0 0,-1 z m -1,0 0,-1 -1,0 0,1 1,0 z m -2,-1 -1,0 0,1 1,0 0,-1 z m -1,1 -1,0 0,1 1,0 0,-1 z m -1,0 0,-1 -1,0 0,1 1,0 z m -2,-1 -1,0 0,1 1,0 0,-1 z m -1,1 -1,0 0,1 1,0 0,-1 z m -1,0 0,-1 -1,0 0,1 1,0 z m -2,-1 -1,0 0,1 1,0 0,-1 z m -1,1 -1,0 0,1 1,0 0,-1 z m -1,0 0,-1 -1,0 0,1 1,0 z m -2,-1 -1,0 0,1 1,0 0,-1 z m -1,1 -1,0 0,1 1,0 0,-1 z m -1,0 0,-1 -1,0 0,1 1,0 z m -2,-1 -1,0 0,1 1,0 0,-1 z m -1,1 -1,0 0,1 1,0 0,-1 z m -1,0 0,-1 -1,0 0,1 1,0 z m -2,-1 -1,0 0,1 1,0 0,-1 z m -1,1 -1,0 0,1 1,0 0,-1 z m -1,0 0,-1 -1,0 0,1 1,0 z m -2,-1 -1,0 0,1 1,0 0,-1 z m -1,1 -1,0 0,1 1,0 0,-1 z m -1,0 0,-1 -1,0 0,1 1,0 z m -2,-1 -1,0 0,1 1,0 0,-1 z m -1,1 -1,0 0,1 1,0 0,-1 z m -1,0 0,-1 -1,0 0,1 1,0 z m -2,-1 -1,0 0,1 1,0 0,-1 z m -1,1 -1,0 0,1 1,0 0,-1 z m -1,0 0,-1 -1,0 0,1 1,0 z m -2,-1 -1,0 0,1 1,0 0,-1 z m -1,1 -1,0 0,1 1,0 0,-1 z m -1,0 0,-1 -1,0 0,1 1,0 z m -2,-1 -1,0 0,1 1,0 0,-1 z m -1,1 -1,0 0,1 1,0 0,-1 z m -1,0 0,-1 -1,0 0,1 1,0 z m -2,-1 -1,0 0,1 1,0 0,-1 z m -1,1 -1,0 0,1 1,0 0,-1 z m -1,0 0,-1 -1,0 0,1 1,0 z m -2,-1 -1,0 0,1 1,0 0,-1 z m -1,1 -1,0 0,1 1,0 0,-1 z m -1,0 0,-1 -1,0 0,1 1,0 z m -2,-1 -1,0 0,1 1,0 0,-1 z m -1,1 -1,0 0,1 1,0 0,-1 z m -1,0 0,-1 -1,0 0,1 1,0 z m -2,-1 -1,0 0,1 1,0 0,-1 z m -1,1 -1,0 0,1 1,0 0,-1 z m -1,0 0,-1 -1,0 0,1 1,0 z m -2,-1 -1,0 0,1 1,0 0,-1 z m -1,1 -1,0 0,1 1,0 0,-1 z m -1,0 0,-1 -1,0 0,1 1,0 z m -2,-1 -1,0 0,1 1,0 0,-1 z m -1,1 -1,0 0,1 1,0 0,-1 z m -1,0 0,-1 -1,0 0,1 1,0 z m 0,-3 -1,0 0,1 1,0 0,-1 z m -1,5 0,2 1,0 0,1 1,0 0,-1 1,0 0,-1 1,0 0,1 1,0 0,1 1,0 0,-1 1,0 0,-1 1,0 0,1 1,0 0,1 1,0 0,-1 1,0 0,-1 1,0 0,1 1,0 0,1 1,0 0,-1 1,0 0,-1 1,0 0,1 1,0 0,1 1,0 0,-1 1,0 0,-1 1,0 0,1 1,0 0,1 1,0 0,-1 1,0 0,-1 1,0 0,1 1,0 0,1 1,0 0,-1 1,0 0,-1 1,0 0,1 1,0 0,1 1,0 0,-1 1,0 0,-1 1,0 0,1 1,0 0,1 1,0 0,-1 1,0 0,-1 1,0 0,1 1,0 0,1 1,0 0,-1 1,0 0,-1 1,0 0,1 1,0 0,1 1,0 0,-1 1,0 0,-1 1,0 0,1 1,0 0,1 1,0 0,-1 1,0 0,-1 1,0 0,1 1,0 0,1 1,0 0,-1 1,0 0,-1 1,0 0,1 1,0 0,1 1,0 0,-1 1,0 0,-1 1,0 0,1 1,0 0,1 1,0 0,-1 1,0 0,-1 1,0 0,1 1,0 0,1 1,0 0,-1 1,0 0,-1 1,0 0,1 1,0 0,1 1,0 0,-1 1,0 0,-1 1,0 0,1 1,0 0,1 1,0 0,-1 1,0 0,-1 1,0 0,1 1,0 0,1 1,0 0,-1 1,0 0,-1 1,0 0,1 1,0 0,1 1,0 0,-1 1,0 0,-1 1,0 0,1 1,0 0,1 1,0 0,-1 1,0 0,-1 1,0 0,1 1,0 0,1 1,0 0,-1 1,0 0,-1 1,0 0,1 1,0 0,1 1,0 0,-1 1,0 0,-1 1,0 0,1 1,0 0,1 1,0 0,-1 1,0 0,-1 1,0 0,1 1,0 0,1 1,0 0,-1 1,0 0,-1 1,0 0,1 1,0 0,1 1,0 0,-1 1,0 0,-1 1,0 0,1 1,0 0,1 1,0 0,-1 1,0 0,-1 1,0 0,1 1,0 0,1 1,0 0,-1 1,0 0,-1 1,0 0,1 1,0 0,1 1,0 0,-1 1,0 0,-1 1,0 0,1 1,0 0,1 1,0 0,-1 1,0 0,-1 1,0 0,1 1,0 0,1 1,0 0,-1 1,0 0,-1 1,0 0,1 1,0 0,1 1,0 0,-1 1,0 0,-1 1,0 0,1 1,0 0,1 1,0 0,-1 1,0 0,-1 1,0 0,1 1,0 0,1 1,0 0,-1 1,0 0,-1 1,0 0,1 1,0 0,1 1,0 0,-1 1,0 0,-1 1,0 0,1 1,0 0,1 1,0 0,-1 1,0 0,-1 1,0 0,1 1,0 0,1 1,0 0,-1 1,0 0,-1 1,0 0,1 1,0 0,1 1,0 0,-1 1,0 0,-1 1,0 0,1 1,0 0,1 1,0 0,-1 1,0 0,-1 1,0 0,1 1,0 0,1 1,0 0,-1 1,0 0,-1 1,0 0,1 1,0 0,1 1,0 0,-1 1,0 0,-1 1,0 0,1 1,0 0,1 1,0 0,-1 1,0 0,-1 1,0 0,1 1,0 0,1 1,0 0,-1 1,0 0,-1 1,0 0,1 1,0 0,1 1,0 0,-1 1,0 0,-1 1,0 0,1 1,0 0,1 1,0 0,-1 1,0 0,-1 1,0 0,1 1,0 0,1 1,0 0,-1 1,0 0,-1 1,0 0,1 1,0 0,1 1,0 0,-1 1,0 0,-1 1,0 0,1 1,0 0,1 1,0 0,-1 1,0 0,-1 1,0 0,1 1,0 0,1 1,0 0,-1 1,0 0,-1 1,0 0,1 1,0 0,1 1,0 0,-1 1,0 0,-1 1,0 0,1 1,0 0,1 1,0 0,-1 1,0 0,-1 1,0 0,1 1,0 0,1 1,0 0,-1 1,0 0,-1 1,0 0,1 1,0 0,1 1,0 0,-1 1,0 0,-1 1,0 0,1 1,0 0,1 1,0 0,-1 1,0 0,-2 -3,0 -1,0 -3,0 -1,0 -3,0 -1,0 -3,0 -1,0 -3,0 -1,0 -3,0 -1,0 -3,0 -1,0 -3,0 -1,0 -3,0 -1,0 -3,0 -1,0 -3,0 -1,0 -3,0 -1,0 -3,0 -1,0 -3,0 -1,0 -3,0 -1,0 -3,0 -1,0 -3,0 -1,0 -3,0 -1,0 -3,0 -1,0 -3,0 -1,0 -3,0 -1,0 -3,0 -1,0 -3,0 -1,0 -3,0 -1,0 -3,0 -1,0 -3,0 -1,0 -3,0 -1,0 -3,0 -1,0 -3,0 -1,0 -3,0 -1,0 -3,0 -1,0 -3,0 -1,0 -3,0 -1,0 -3,0 -1,0 -3,0 -1,0 -3,0 -1,0 -3,0 -1,0 -3,0 -1,0 -3,0 -1,0 -3,0 -1,0 -3,0 -1,0 -3,0 -1,0 -3,0 -1,0 -3,0 -1,0 -3,0 -1,0 -3,0 -1,0 -3,0 -1,0 -3,0 -1,0 -3,0 -1,0 -3,0 -1,0 -3,0 -1,0 -3,0 -1,0 -3,0 -1,0 -3,0 z"
       style="color:#000000;clip-rule:nonzero;display:inline;overflow:visible;visibility:visible;opacity:1;isolation:auto;mix-blend-mode:normal;color-interpolation:sRGB;color-interpolation-filters:linearRGB;solid-color:#000000;solid-opacity:1;fill:#ffffff;fill-opacity:1;fill-rule:evenodd;stroke:none;stroke-width:15.00000095;stroke-linecap:butt;stroke-linejoin:miter;stroke-miterlimit:4;stroke-dasharray:15.00000095, 15.00000095;stroke-dashoffset:28.50000191;stroke-opacity:1;color-rendering:auto;image-rendering:auto;shape-rendering:auto;text-rendering:auto;enable-background:accumulate"
       inkscape:connector-curvature="0" />
  </g>
</svg>
