<?xml version="1.0" encoding="UTF-8" standalone="no"?>
<!-- Created with Inkscape (http://www.inkscape.org/) -->

<svg
   xmlns:dc="http://purl.org/dc/elements/1.1/"
   xmlns:cc="http://creativecommons.org/ns#"
   xmlns:rdf="http://www.w3.org/1999/02/22-rdf-syntax-ns#"
   xmlns:svg="http://www.w3.org/2000/svg"
   xmlns="http://www.w3.org/2000/svg"
   xmlns:sodipodi="http://sodipodi.sourceforge.net/DTD/sodipodi-0.dtd"
   xmlns:inkscape="http://www.inkscape.org/namespaces/inkscape"
   width="335.84445mm"
   height="166.51111mm"
   viewBox="0 0 1190.0001 589.99997"
   id="svg2"
   version="1.1"
   inkscape:version="0.91pre3 r13670"
   sodipodi:docname="Арнамент.svg"
   inkscape:export-filename="/home/user/Изображения/Арнамент_Чысты.png"
   inkscape:export-xdpi="97.627121"
   inkscape:export-ydpi="97.627121">
  <defs
     id="defs4" />
  <sodipodi:namedview
     id="base"
     pagecolor="#ffffff"
     bordercolor="#666666"
     borderopacity="1.0"
     inkscape:pageopacity="0.0"
     inkscape:pageshadow="2"
     inkscape:zoom="0.49497475"
     inkscape:cx="380.62507"
     inkscape:cy="419.19741"
     inkscape:document-units="px"
     inkscape:current-layer="layer2"
     showgrid="true"
     inkscape:snap-global="true"
     inkscape:window-width="1920"
     inkscape:window-height="1030"
     inkscape:window-x="0"
     inkscape:window-y="0"
     inkscape:window-maximized="1"
     inkscape:object-paths="true"
     inkscape:snap-intersection-paths="true"
     inkscape:object-nodes="true"
     inkscape:snap-smooth-nodes="true"
     fit-margin-top="0"
     fit-margin-left="0"
     fit-margin-right="0"
     fit-margin-bottom="0" />
  <metadata
     id="metadata7">
    <rdf:RDF>
      <cc:Work
         rdf:about="">
        <dc:format>image/svg+xml</dc:format>
        <dc:type
           rdf:resource="http://purl.org/dc/dcmitype/StillImage" />
        <dc:title></dc:title>
      </cc:Work>
    </rdf:RDF>
  </metadata>
  <g
     inkscape:groupmode="layer"
     id="layer2"
     inkscape:label="Layer 2"
     style="opacity:1"
     transform="translate(-620,-202.3622)">
    <path
       inkscape:connector-curvature="0"
       style="color:#000000;clip-rule:nonzero;display:inline;overflow:visible;visibility:visible;opacity:1;isolation:auto;mix-blend-mode:normal;color-interpolation:sRGB;color-interpolation-filters:linearRGB;solid-color:#000000;solid-opacity:1;fill:#ff2a2a;fill-opacity:1;fill-rule:evenodd;stroke:none;stroke-width:1px;stroke-linecap:butt;stroke-linejoin:miter;stroke-miterlimit:4;stroke-dasharray:none;stroke-dashoffset:0;stroke-opacity:0.28469753;color-rendering:auto;image-rendering:auto;shape-rendering:auto;text-rendering:auto;enable-background:accumulate"
       d="m 910,202.3622 0,10 -10,0 0,10 -10,0 0,10 -10,0 0,10 -10,0 0,10 10,0 0,10 10,0 0,10 10,0 0,10 10,0 0,10 10,0 0,-10 10,0 0,-10 10,0 0,-10 10,0 0,-10 10,0 0,-10 -10,0 0,-10 -10,0 0,-10 -10,0 0,-10 -10,0 0,-10 -10,0 z m 50,50 0,10 -10,0 0,10 -10,0 0,10 -10,0 0,10 -10,0 0,10 -10,0 0,-10 -10,0 0,-10 -10,0 0,-10 -10,0 0,-10 -10,0 0,-10 -10,0 0,10 -10,0 0,10 -10,0 0,10 -10,0 0,10 -10,0 0,10 10,0 0,10 10,0 0,10 10,0 0,10 10,0 0,10 10,0 0,10 -10,0 0,-10 -10,0 0,-10 -10,0 0,-10 -10,0 0,-10 -10,0 0,-10 -10,0 0,10 -10,0 0,10 -10,0 0,10 -10,0 0,10 -10,0 0,10 10,0 0,10 10,0 0,10 10,0 0,10 10,0 0,10 10,0 0,10 -10,0 0,-10 -10,0 0,-10 -10,0 0,-10 -10,0 0,-10 -10,0 0,-10 -10,0 0,10 -10,0 0,10 -10,0 0,10 -10,0 0,10 -10,0 0,10 10,0 0,10 10,0 0,10 10,0 0,10 10,0 0,10 10,0 0,10 -10,0 0,-10 -10,0 0,-10 -10,0 0,-10 -10,0 0,-10 -10,0 0,-10 -10,0 0,10 -10,0 0,10 -10,0 0,10 -10,0 0,10 -10,0 0,10 10,0 0,10 10,0 0,10 10,0 0,10 10,0 0,10 10,0 0,10 -10,0 0,10 -10,0 0,10 -10,0 0,10 -10,0 0,10 -10,0 0,10 10,0 0,10 10,0 0,10 10,0 0,10 10,0 0,10 10,0 0,-10 10,0 0,-10 10,0 0,-10 10,0 0,-10 10,0 0,-10 10,0 0,10 -10,0 0,10 -10,0 0,10 -10,0 0,10 -10,0 0,10 -10,0 0,10 10,0 0,10 10,0 0,10 10,0 0,10 10,0 0,10 10,0 0,-10 10,0 0,-10 10,0 0,-10 10,0 0,-10 10,0 0,-10 10,0 0,10 -10,0 0,10 -10,0 0,10 -10,0 0,10 -10,0 0,10 -10,0 0,10 10,0 0,10 10,0 0,10 10,0 0,10 10,0 0,10 10,0 0,-10 10,0 0,-10 10,0 0,-10 10,0 0,-10 10,0 0,-10 10,0 0,10 -10,0 0,10 -10,0 0,10 -10,0 0,10 -10,0 0,10 -10,0 0,10 10,0 0,10 10,0 0,10 10,0 0,10 10,0 0,10 10,0 0,-10 10,0 0,-10 10,0 0,-10 10,0 0,-10 10,0 0,-10 10,0 0,10 10,0 0,10 10,0 0,10 10,0 0,10 10,0 0,10 10,0 0,-10 10,0 0,-10 10,0 0,-10 10,0 0,-10 10,0 0,-10 -10,0 0,-10 -10,0 0,-10 -10,0 0,-10 -10,0 0,-10 -10,0 0,-10 10,0 0,10 10,0 0,10 10,0 0,10 10,0 0,10 10,0 0,10 10,0 0,-10 10,0 0,-10 10,0 0,-10 10,0 0,-10 10,0 0,-10 -10,0 0,-10 -10,0 0,-10 -10,0 0,-10 -10,0 0,-10 -10,0 0,-10 10,0 0,10 10,0 0,10 10,0 0,10 10,0 0,10 10,0 0,10 10,0 0,-10 10,0 0,-10 10,0 0,-10 10,0 0,-10 10,0 0,-10 -10,0 0,-10 -10,0 0,-10 -10,0 0,-10 -10,0 0,-10 -10,0 0,-10 10,0 0,10 10,0 0,10 10,0 0,10 10,0 0,10 10,0 0,10 10,0 0,-10 10,0 0,-10 10,0 0,-10 10,0 0,-10 10,0 0,-10 -10,0 0,-10 -10,0 0,-10 -10,0 0,-10 -10,0 0,-10 -10,0 0,-10 10,0 0,-10 10,0 0,-10 10,0 0,-10 10,0 0,-10 10,0 0,-10 -10,0 0,-10 -10,0 0,-10 -10,0 0,-10 -10,0 0,-10 -10,0 0,10 -10,0 0,10 -10,0 0,10 -10,0 0,10 -10,0 0,10 -10,0 0,-10 10,0 0,-10 10,0 0,-10 10,0 0,-10 10,0 0,-10 10,0 0,-10 -10,0 0,-10 -10,0 0,-10 -10,0 0,-10 -10,0 0,-10 -10,0 0,10 -10,0 0,10 -10,0 0,10 -10,0 0,10 -10,0 0,10 -10,0 0,-10 10,0 0,-10 10,0 0,-10 10,0 0,-10 10,0 0,-10 10,0 0,-10 -10,0 0,-10 -10,0 0,-10 -10,0 0,-10 -10,0 0,-10 -10,0 0,10 -10,0 0,10 -10,0 0,10 -10,0 0,10 -10,0 0,10 -10,0 0,-10 10,0 0,-10 10,0 0,-10 10,0 0,-10 10,0 0,-10 10,0 0,-10 -10,0 0,-10 -10,0 0,-10 -10,0 0,-10 -10,0 0,-10 -10,0 z m 200,200 0,10 -10,0 0,10 -10,0 0,10 -10,0 0,10 -10,0 0,10 10,0 0,10 10,0 0,10 10,0 0,10 10,0 0,10 10,0 0,-10 10,0 0,-10 10,0 0,-10 10,0 0,-10 10,0 0,-10 -10,0 0,-10 -10,0 0,-10 -10,0 0,-10 -10,0 0,-10 -10,0 z m -200,290 -10,0 0,-10 -10,0 0,-10 -10,0 0,-10 -10,0 0,-10 -10,0 0,10 -10,0 0,10 -10,0 0,10 -10,0 0,10 -10,0 0,10 10,0 0,10 10,0 0,10 10,0 0,10 10,0 0,10 10,0 0,-10 10,0 0,-10 10,0 0,-10 10,0 0,-10 10,0 0,-10 z m -290,-200 0,-10 10,0 0,-10 10,0 0,-10 10,0 0,-10 10,0 0,-10 -10,0 0,-10 -10,0 0,-10 -10,0 0,-10 -10,0 0,-10 -10,0 0,10 -10,0 0,10 -10,0 0,10 -10,0 0,10 -10,0 0,10 10,0 0,10 10,0 0,10 10,0 0,10 10,0 0,10 10,0 z m 240,-310 10,0 0,10 10,0 0,10 -10,0 0,10 -10,0 0,-10 -10,0 0,-10 10,0 0,-10 z m -50,50 10,0 0,10 10,0 0,10 10,0 0,10 10,0 0,10 10,0 0,10 10,0 0,-10 10,0 0,-10 10,0 0,-10 10,0 0,-10 10,0 0,-10 10,0 0,10 10,0 0,10 -10,0 0,10 -10,0 0,10 -10,0 0,10 -10,0 0,10 -10,0 0,10 10,0 0,10 10,0 0,10 10,0 0,10 10,0 0,-10 10,0 0,-10 10,0 0,-10 10,0 0,-10 10,0 0,-10 10,0 0,10 10,0 0,10 -10,0 0,10 -10,0 0,10 -10,0 0,10 -10,0 0,10 -10,0 0,10 10,0 0,10 10,0 0,10 10,0 0,10 10,0 0,-10 10,0 0,-10 10,0 0,-10 10,0 0,-10 10,0 0,-10 10,0 0,10 10,0 0,10 -10,0 0,10 -10,0 0,10 -10,0 0,10 -10,0 0,10 -10,0 0,10 10,0 0,10 10,0 0,10 10,0 0,10 10,0 0,-10 10,0 0,-10 10,0 0,-10 10,0 0,-10 10,0 0,-10 10,0 0,10 10,0 0,10 -10,0 0,10 -10,0 0,10 -10,0 0,10 -10,0 0,10 -10,0 0,10 10,0 0,10 10,0 0,10 10,0 0,10 10,0 0,10 10,0 0,10 -10,0 0,10 -10,0 0,-10 -10,0 0,-10 -10,0 0,-10 -10,0 0,-10 -10,0 0,-10 -10,0 0,10 -10,0 0,10 -10,0 0,10 -10,0 0,10 10,0 0,10 10,0 0,10 10,0 0,10 10,0 0,10 10,0 0,10 -10,0 0,10 -10,0 0,-10 -10,0 0,-10 -10,0 0,-10 -10,0 0,-10 -10,0 0,-10 -10,0 0,10 -10,0 0,10 -10,0 0,10 -10,0 0,10 10,0 0,10 10,0 0,10 10,0 0,10 10,0 0,10 10,0 0,10 -10,0 0,10 -10,0 0,-10 -10,0 0,-10 -10,0 0,-10 -10,0 0,-10 -10,0 0,-10 -10,0 0,10 -10,0 0,10 -10,0 0,10 -10,0 0,10 10,0 0,10 10,0 0,10 10,0 0,10 10,0 0,10 10,0 0,10 -10,0 0,10 -10,0 0,-10 -10,0 0,-10 -10,0 0,-10 -10,0 0,-10 -10,0 0,-10 -10,0 0,10 -10,0 0,10 -10,0 0,10 -10,0 0,10 -10,0 0,10 -10,0 0,-10 -10,0 0,-10 10,0 0,-10 10,0 0,-10 10,0 0,-10 10,0 0,-10 10,0 0,-10 -10,0 0,-10 -10,0 0,-10 -10,0 0,-10 -10,0 0,10 -10,0 0,10 -10,0 0,10 -10,0 0,10 -10,0 0,10 -10,0 0,-10 -10,0 0,-10 10,0 0,-10 10,0 0,-10 10,0 0,-10 10,0 0,-10 10,0 0,-10 -10,0 0,-10 -10,0 0,-10 -10,0 0,-10 -10,0 0,10 -10,0 0,10 -10,0 0,10 -10,0 0,10 -10,0 0,10 -10,0 0,-10 -10,0 0,-10 10,0 0,-10 10,0 0,-10 10,0 0,-10 10,0 0,-10 10,0 0,-10 -10,0 0,-10 -10,0 0,-10 -10,0 0,-10 -10,0 0,10 -10,0 0,10 -10,0 0,10 -10,0 0,10 -10,0 0,10 -10,0 0,-10 -10,0 0,-10 10,0 0,-10 10,0 0,-10 10,0 0,-10 10,0 0,-10 10,0 0,-10 -10,0 0,-10 -10,0 0,-10 -10,0 0,-10 -10,0 0,-10 -10,0 0,-10 10,0 0,-10 10,0 0,10 10,0 0,10 10,0 0,10 10,0 0,10 10,0 0,10 10,0 0,-10 10,0 0,-10 10,0 0,-10 10,0 0,-10 -10,0 0,-10 -10,0 0,-10 -10,0 0,-10 -10,0 0,-10 -10,0 0,-10 10,0 0,-10 10,0 0,10 10,0 0,10 10,0 0,10 10,0 0,10 10,0 0,10 10,0 0,-10 10,0 0,-10 10,0 0,-10 10,0 0,-10 -10,0 0,-10 -10,0 0,-10 -10,0 0,-10 -10,0 0,-10 -10,0 0,-10 10,0 0,-10 10,0 0,10 10,0 0,10 10,0 0,10 10,0 0,10 10,0 0,10 10,0 0,-10 10,0 0,-10 10,0 0,-10 10,0 0,-10 -10,0 0,-10 -10,0 0,-10 -10,0 0,-10 -10,0 0,-10 -10,0 0,-10 10,0 0,-10 z m 50,80 0,10 -10,0 0,10 -10,0 0,10 -10,0 0,10 -10,0 0,10 -10,0 0,10 -10,0 0,10 -10,0 0,10 -10,0 0,10 -10,0 0,10 -10,0 0,10 -10,0 0,10 -10,0 0,10 -10,0 0,10 10,0 0,10 10,0 0,10 10,0 0,10 10,0 0,10 10,0 0,10 10,0 0,10 10,0 0,10 10,0 0,10 10,0 0,10 10,0 0,10 10,0 0,10 10,0 0,10 10,0 0,10 10,0 0,-10 10,0 0,-10 10,0 0,-10 10,0 0,-10 10,0 0,-10 10,0 0,-10 10,0 0,-10 10,0 0,-10 10,0 0,-10 10,0 0,-10 10,0 0,-10 10,0 0,-10 10,0 0,-10 10,0 0,-10 -10,0 0,-10 -10,0 0,-10 -10,0 0,-10 -10,0 0,-10 -10,0 0,-10 -10,0 0,-10 -10,0 0,-10 -10,0 0,-10 -10,0 0,-10 -10,0 0,-10 -10,0 0,-10 -10,0 0,-10 -10,0 0,-10 -10,0 z m 0,30 10,0 0,10 10,0 0,10 10,0 0,10 10,0 0,10 10,0 0,10 10,0 0,10 10,0 0,10 10,0 0,10 10,0 0,10 10,0 0,10 10,0 0,10 -10,0 0,10 -10,0 0,10 -10,0 0,10 -10,0 0,10 -10,0 0,10 -10,0 0,10 -10,0 0,10 -10,0 0,10 -10,0 0,10 -10,0 0,10 -10,0 0,-10 -10,0 0,-10 -10,0 0,-10 -10,0 0,-10 -10,0 0,-10 -10,0 0,-10 -10,0 0,-10 -10,0 0,-10 -10,0 0,-10 -10,0 0,-10 -10,0 0,-10 10,0 0,-10 10,0 0,-10 10,0 0,-10 10,0 0,-10 10,0 0,-10 10,0 0,-10 10,0 0,-10 10,0 0,-10 10,0 0,-10 10,0 0,-10 z m 0,10 0,10 -10,0 0,10 -10,0 0,10 -10,0 0,10 -10,0 0,10 10,0 0,10 10,0 0,10 10,0 0,10 10,0 0,10 10,0 0,-10 10,0 0,-10 10,0 0,-10 10,0 0,-10 10,0 0,-10 -10,0 0,-10 -10,0 0,-10 -10,0 0,-10 -10,0 0,-10 -10,0 z m 50,50 0,10 -10,0 0,10 -10,0 0,10 -10,0 0,10 -10,0 0,10 10,0 0,10 10,0 0,10 10,0 0,10 10,0 0,10 10,0 0,-10 10,0 0,-10 10,0 0,-10 10,0 0,-10 10,0 0,-10 -10,0 0,-10 -10,0 0,-10 -10,0 0,-10 -10,0 0,-10 -10,0 z m 0,90 -10,0 0,-10 -10,0 0,-10 -10,0 0,-10 -10,0 0,-10 -10,0 0,10 -10,0 0,10 -10,0 0,10 -10,0 0,10 -10,0 0,10 10,0 0,10 10,0 0,10 10,0 0,10 10,0 0,10 10,0 0,-10 10,0 0,-10 10,0 0,-10 10,0 0,-10 10,0 0,-10 z m -90,0 0,-10 10,0 0,-10 10,0 0,-10 10,0 0,-10 10,0 0,-10 -10,0 0,-10 -10,0 0,-10 -10,0 0,-10 -10,0 0,-10 -10,0 0,10 -10,0 0,10 -10,0 0,10 -10,0 0,10 -10,0 0,10 10,0 0,10 10,0 0,10 10,0 0,10 10,0 0,10 10,0 z m 40,-110 10,0 0,10 10,0 0,10 -10,0 0,10 -10,0 0,-10 -10,0 0,-10 10,0 0,-10 z m -250,50 10,0 0,10 10,0 0,10 -10,0 0,10 -10,0 0,-10 -10,0 0,-10 10,0 0,-10 z m 200,0 10,0 0,10 10,0 0,10 -10,0 0,10 -10,0 0,-10 -10,0 0,-10 10,0 0,-10 z m 100,0 10,0 0,10 10,0 0,10 -10,0 0,10 -10,0 0,-10 -10,0 0,-10 10,0 0,-10 z m 200,0 10,0 0,10 10,0 0,10 -10,0 0,10 -10,0 0,-10 -10,0 0,-10 10,0 0,-10 z m -250,50 10,0 0,10 10,0 0,10 -10,0 0,10 -10,0 0,-10 -10,0 0,-10 10,0 0,-10 z m 0,200 10,0 0,10 10,0 0,10 -10,0 0,10 -10,0 0,-10 -10,0 0,-10 10,0 0,-10 z"
       id="path4783" />
    <path
       inkscape:connector-curvature="0"
       style="color:#000000;clip-rule:nonzero;display:inline;overflow:visible;visibility:visible;opacity:1;isolation:auto;mix-blend-mode:normal;color-interpolation:sRGB;color-interpolation-filters:linearRGB;solid-color:#000000;solid-opacity:1;fill:#ff2a2a;fill-opacity:1;fill-rule:evenodd;stroke:none;stroke-width:1px;stroke-linecap:butt;stroke-linejoin:miter;stroke-miterlimit:4;stroke-dasharray:none;stroke-dashoffset:0;stroke-opacity:0.28469753;color-rendering:auto;image-rendering:auto;shape-rendering:auto;text-rendering:auto;enable-background:accumulate"
       d="m 1510,202.3622 0,10 -10,0 0,10 -10,0 0,10 -10,0 0,10 -10,0 0,10 10,0 0,10 10,0 0,10 10,0 0,10 10,0 0,10 10,0 0,-10 10,0 0,-10 10,0 0,-10 10,0 0,-10 10,0 0,-10 -10,0 0,-10 -10,0 0,-10 -10,0 0,-10 -10,0 0,-10 -10,0 z m 50,50 0,10 -10,0 0,10 -10,0 0,10 -10,0 0,10 -10,0 0,10 -10,0 0,-10 -10,0 0,-10 -10,0 0,-10 -10,0 0,-10 -10,0 0,-10 -10,0 0,10 -10,0 0,10 -10,0 0,10 -10,0 0,10 -10,0 0,10 10,0 0,10 10,0 0,10 10,0 0,10 10,0 0,10 10,0 0,10 -10,0 0,-10 -10,0 0,-10 -10,0 0,-10 -10,0 0,-10 -10,0 0,-10 -10,0 0,10 -10,0 0,10 -10,0 0,10 -10,0 0,10 -10,0 0,10 10,0 0,10 10,0 0,10 10,0 0,10 10,0 0,10 10,0 0,9.99999 -10,0 0,-9.99999 -10,0 0,-10 -10,0 0,-10 -10,0 0,-10 -10,0 0,-10 -10,0 0,10 -10,0 0,10 -10,0 0,10 -10,0 0,10 -10,0 0,9.99999 10,0 0,9.99999 10,0 0,10 10,0 0,10 10,0 0,10 10,0 0,10 -10,0 0,-10 -10,0 0,-10 -10,0 0,-10 -10,0 0,-10 -10,0 0,-9.99999 -10,0 0,9.99999 -10,0 0,10 -10,0 0,10 -10,0 0,10 -10,0 0,10 10,0 0,10 10,0 0,10 10,0 0,10 10,0 0,10 10,0 0,10 -10,0 0,10 -10,0 0,10 -10,0 0,10 -10,0 0,10 -10,0 0,10 10,0 0,10 10,0 0,10 10,0 0,10 10,0 0,10 10,0 0,-10 10,0 0,-10 10,0 0,-10 10,0 0,-10 10,0 0,-10 10,0 0,10 -10,0 0,10 -10,0 0,10 -10,0 0,10 -10,0 0,10 -10,0 0,10 10,0 0,10 10,0 0,10 10,0 0,10 10,0 0,10 10,0 0,-10 10,0 0,-10 10,0 0,-10 10,0 0,-10 10,0 0,-10 10,0 0,10 -10,0 0,10 -10,0 0,10 -10,0 0,10 -10,0 0,10 -10,0 0,10 10,0 0,10 10,0 0,10 10,0 0,10 10,0 0,10 10,0 0,-10 10,0 0,-10 10,0 0,-10 10,0 0,-10 10,0 0,-10 10,0 0,10 -10,0 0,10 -10,0 0,10 -10,0 0,10 -10,0 0,10 -10,0 0,10 10,0 0,10 10,0 0,10 10,0 0,10 10,0 0,10 10,0 0,-10 10,0 0,-10 10,0 0,-10 10,0 0,-10 10,0 0,-10 10,0 0,10 10,0 0,10 10,0 0,10 10,0 0,10 10,0 0,10 10,0 0,-10 10,0 0,-10 10,0 0,-10 10,0 0,-10 10,0 0,-10 -10,0 0,-10 -10,0 0,-10 -10,0 0,-10 -10,0 0,-10 -10,0 0,-10 10,0 0,10 10,0 0,10 10,0 0,10 10,0 0,10 10,0 0,10 10,0 0,-10 10,0 0,-10 10,0 0,-10 10,0 0,-10 10,0 0,-10 -10,0 0,-10 -10,0 0,-10 -10,0 0,-10 -10,0 0,-10 -10,0 0,-10 10,0 0,10 10,0 0,10 10,0 0,10 10,0 0,10 10,0 0,10 10,0 0,-10 10,0 0,-10 10,0 0,-10 10,0 0,-10 10,0 0,-10 -10,0 0,-10 -10,0 0,-10 -10,0 0,-10 -10,0 0,-10 -10,0 0,-10 10,0 0,10 10,0 0,10 10,0 0,10 10,0 0,10 10,0 0,10 10,0 0,-10 10,0 0,-10 10,0 0,-10 10,0 0,-10 10,0 0,-10 -10,0 0,-10 -10,0 0,-10 -10,0 0,-10 -10,0 0,-10 -10,0 0,-10 10,0 0,-10 10,0 0,-10 10,0 0,-10 10,0 0,-10 10,0 0,-10 -10,0 0,-10 -10,0 0,-10 -10,0 0,-10 -10,0 0,-9.99999 -10,0 0,9.99999 -10,0 0,10 -10,0 0,10 -10,0 0,10 -10,0 0,10 -10,0 0,-10 10,0 0,-10 10,0 0,-10 10,0 0,-10 10,0 0,-9.99999 10,0 0,-9.99999 -10,0 0,-10 -10,0 0,-10 -10,0 0,-10 -10,0 0,-10 -10,0 0,10 -10,0 0,10 -10,0 0,10 -10,0 0,10 -10,0 0,9.99999 -10,0 0,-9.99999 10,0 0,-10 10,0 0,-10 10,0 0,-10 10,0 0,-10 10,0 0,-10 -10,0 0,-10 -10,0 0,-10 -10,0 0,-10 -10,0 0,-10 -10,0 0,10 -10,0 0,10 -10,0 0,10 -10,0 0,10 -10,0 0,10 -10,0 0,-10 10,0 0,-10 10,0 0,-10 10,0 0,-10 10,0 0,-10 10,0 0,-10 -10,0 0,-10 -10,0 0,-10 -10,0 0,-10 -10,0 0,-10 -10,0 z m 200,199.99998 0,10 -10,0 0,10 -10,0 0,10 -10,0 0,10 -10,0 0,10 10,0 0,10 10,0 0,10 10,0 0,10 10,0 0,10 10,0 0,-10 10,0 0,-10 10,0 0,-10 10,0 0,-10 10,0 0,-10 -10,0 0,-10 -10,0 0,-10 -10,0 0,-10 -10,0 0,-10 -10,0 z m -200,290 -10,0 0,-10 -10,0 0,-10 -10,0 0,-10 -10,0 0,-10 -10,0 0,10 -10,0 0,10 -10,0 0,10 -10,0 0,10 -10,0 0,10 10,0 0,10 10,0 0,10 10,0 0,10 10,0 0,10 10,0 0,-10 10,0 0,-10 10,0 0,-10 10,0 0,-10 10,0 0,-10 z m -290,-200 0,-10 10,0 0,-10 10,0 0,-10 10,0 0,-10 10,0 0,-10 -10,0 0,-10 -10,0 0,-10 -10,0 0,-10 -10,0 0,-10 -10,0 0,10 -10,0 0,10 -10,0 0,10 -10,0 0,10 -10,0 0,10 10,0 0,10 10,0 0,10 10,0 0,10 10,0 0,10 10,0 z m 240,-309.99998 10,0 0,10 10,0 0,10 -10,0 0,10 -10,0 0,-10 -10,0 0,-10 10,0 0,-10 z m -50,50 10,0 0,10 10,0 0,10 10,0 0,10 10,0 0,10 10,0 0,10 10,0 0,-10 10,0 0,-10 10,0 0,-10 10,0 0,-10 10,0 0,-10 10,0 0,10 10,0 0,10 -10,0 0,10 -10,0 0,10 -10,0 0,10 -10,0 0,10 -10,0 0,10 10,0 0,10 10,0 0,10 10,0 0,10 10,0 0,-10 10,0 0,-10 10,0 0,-10 10,0 0,-10 10,0 0,-10 10,0 0,10 10,0 0,10 -10,0 0,10 -10,0 0,10 -10,0 0,10 -10,0 0,10 -10,0 0,9.99999 10,0 0,9.99999 10,0 0,10 10,0 0,10 10,0 0,-10 10,0 0,-10 10,0 0,-9.99999 10,0 0,-9.99999 10,0 0,-10 10,0 0,10 10,0 0,9.99999 -10,0 0,9.99999 -10,0 0,10 -10,0 0,10 -10,0 0,10 -10,0 0,10 10,0 0,10 10,0 0,10 10,0 0,10 10,0 0,-10 10,0 0,-10 10,0 0,-10 10,0 0,-10 10,0 0,-10 10,0 0,10 10,0 0,10 -10,0 0,10 -10,0 0,10 -10,0 0,10 -10,0 0,10 -10,0 0,10 10,0 0,10 10,0 0,10 10,0 0,10 10,0 0,10 10,0 0,10 -10,0 0,10 -10,0 0,-10 -10,0 0,-10 -10,0 0,-10 -10,0 0,-10 -10,0 0,-10 -10,0 0,10 -10,0 0,10 -10,0 0,10 -10,0 0,10 10,0 0,10 10,0 0,10 10,0 0,10 10,0 0,10 10,0 0,10 -10,0 0,10 -10,0 0,-10 -10,0 0,-10 -10,0 0,-10 -10,0 0,-10 -10,0 0,-10 -10,0 0,10 -10,0 0,10 -10,0 0,10 -10,0 0,10 10,0 0,10 10,0 0,10 10,0 0,10 10,0 0,10 10,0 0,10 -10,0 0,10 -10,0 0,-10 -10,0 0,-10 -10,0 0,-10 -10,0 0,-10 -10,0 0,-10 -10,0 0,10 -10,0 0,10 -10,0 0,10 -10,0 0,10 10,0 0,10 10,0 0,10 10,0 0,10 10,0 0,10 10,0 0,10 -10,0 0,10 -10,0 0,-10 -10,0 0,-10 -10,0 0,-10 -10,0 0,-10 -10,0 0,-10 -10,0 0,10 -10,0 0,10 -10,0 0,10 -10,0 0,10 -10,0 0,10 -10,0 0,-10 -10,0 0,-10 10,0 0,-10 10,0 0,-10 10,0 0,-10 10,0 0,-10 10,0 0,-10 -10,0 0,-10 -10,0 0,-10 -10,0 0,-10 -10,0 0,10 -10,0 0,10 -10,0 0,10 -10,0 0,10 -10,0 0,10 -10,0 0,-10 -10,0 0,-10 10,0 0,-10 10,0 0,-10 10,0 0,-10 10,0 0,-10 10,0 0,-10 -10,0 0,-10 -10,0 0,-10 -10,0 0,-10 -10,0 0,10 -10,0 0,10 -10,0 0,10 -10,0 0,10 -10,0 0,10 -10,0 0,-10 -10,0 0,-10 10,0 0,-10 10,0 0,-10 10,0 0,-10 10,0 0,-10 10,0 0,-10 -10,0 0,-10 -10,0 0,-10 -10,0 0,-10 -10,0 0,10 -10,0 0,10 -10,0 0,10 -10,0 0,10 -10,0 0,10 -10,0 0,-10 -10,0 0,-10 10,0 0,-10 10,0 0,-10 10,0 0,-10 10,0 0,-10 10,0 0,-10 -10,0 0,-10 -10,0 0,-10 -10,0 0,-10 -10,0 0,-10 -10,0 0,-10 10,0 0,-10 10,0 0,10 10,0 0,10 10,0 0,10 10,0 0,10 10,0 0,10 10,0 0,-10 10,0 0,-10 10,0 0,-10 10,0 0,-10 -10,0 0,-10 -10,0 0,-10 -10,0 0,-10 -10,0 0,-9.99999 -10,0 0,-9.99999 10,0 0,-10 10,0 0,10 10,0 0,9.99999 10,0 0,9.99999 10,0 0,10 10,0 0,10 10,0 0,-10 10,0 0,-10 10,0 0,-9.99999 10,0 0,-9.99999 -10,0 0,-10 -10,0 0,-10 -10,0 0,-10 -10,0 0,-10 -10,0 0,-10 10,0 0,-10 10,0 0,10 10,0 0,10 10,0 0,10 10,0 0,10 10,0 0,10 10,0 0,-10 10,0 0,-10 10,0 0,-10 10,0 0,-10 -10,0 0,-10 -10,0 0,-10 -10,0 0,-10 -10,0 0,-10 -10,0 0,-10 10,0 0,-10 z m 50,80 0,10 -10,0 0,10 -10,0 0,10 -10,0 0,9.99999 -10,0 0,9.99999 -10,0 0,10 -10,0 0,10 -10,0 0,10 -10,0 0,10 -10,0 0,10 -10,0 0,10 -10,0 0,10 -10,0 0,10 -10,0 0,10 10,0 0,10 10,0 0,10 10,0 0,10 10,0 0,10 10,0 0,10 10,0 0,10 10,0 0,10 10,0 0,10 10,0 0,10 10,0 0,10 10,0 0,10 10,0 0,10 10,0 0,10 10,0 0,-10 10,0 0,-10 10,0 0,-10 10,0 0,-10 10,0 0,-10 10,0 0,-10 10,0 0,-10 10,0 0,-10 10,0 0,-10 10,0 0,-10 10,0 0,-10 10,0 0,-10 10,0 0,-10 10,0 0,-10 -10,0 0,-10 -10,0 0,-10 -10,0 0,-10 -10,0 0,-10 -10,0 0,-10 -10,0 0,-10 -10,0 0,-10 -10,0 0,-10 -10,0 0,-9.99999 -10,0 0,-9.99999 -10,0 0,-10 -10,0 0,-10 -10,0 0,-10 -10,0 z m 0,30 10,0 0,9.99999 10,0 0,9.99999 10,0 0,10 10,0 0,10 10,0 0,10 10,0 0,10 10,0 0,10 10,0 0,10 10,0 0,10 10,0 0,10 10,0 0,10 -10,0 0,10 -10,0 0,10 -10,0 0,10 -10,0 0,10 -10,0 0,10 -10,0 0,10 -10,0 0,10 -10,0 0,10 -10,0 0,10 -10,0 0,10 -10,0 0,-10 -10,0 0,-10 -10,0 0,-10 -10,0 0,-10 -10,0 0,-10 -10,0 0,-10 -10,0 0,-10 -10,0 0,-10 -10,0 0,-10 -10,0 0,-10 -10,0 0,-10 10,0 0,-10 10,0 0,-10 10,0 0,-10 10,0 0,-10 10,0 0,-10 10,0 0,-10 10,0 0,-10 10,0 0,-10 10,0 0,-9.99999 10,0 0,-9.99999 z m 0,9.99999 0,9.99999 -10,0 0,10 -10,0 0,10 -10,0 0,10 -10,0 0,10 10,0 0,10 10,0 0,10 10,0 0,10 10,0 0,10 10,0 0,-10 10,0 0,-10 10,0 0,-10 10,0 0,-10 10,0 0,-10 -10,0 0,-10 -10,0 0,-10 -10,0 0,-10 -10,0 0,-9.99999 -10,0 z m 50,49.99999 0,10 -10,0 0,10 -10,0 0,10 -10,0 0,10 -10,0 0,10 10,0 0,10 10,0 0,10 10,0 0,10 10,0 0,10 10,0 0,-10 10,0 0,-10 10,0 0,-10 10,0 0,-10 10,0 0,-10 -10,0 0,-10 -10,0 0,-10 -10,0 0,-10 -10,0 0,-10 -10,0 z m 0,90 -10,0 0,-10 -10,0 0,-10 -10,0 0,-10 -10,0 0,-10 -10,0 0,10 -10,0 0,10 -10,0 0,10 -10,0 0,10 -10,0 0,10 10,0 0,10 10,0 0,10 10,0 0,10 10,0 0,10 10,0 0,-10 10,0 0,-10 10,0 0,-10 10,0 0,-10 10,0 0,-10 z m -90,0 0,-10 10,0 0,-10 10,0 0,-10 10,0 0,-10 10,0 0,-10 -10,0 0,-10 -10,0 0,-10 -10,0 0,-10 -10,0 0,-10 -10,0 0,10 -10,0 0,10 -10,0 0,10 -10,0 0,10 -10,0 0,10 10,0 0,10 10,0 0,10 10,0 0,10 10,0 0,10 10,0 z m 40,-110 10,0 0,10 10,0 0,10 -10,0 0,10 -10,0 0,-10 -10,0 0,-10 10,0 0,-10 z m -250,50 10,0 0,10 10,0 0,10 -10,0 0,10 -10,0 0,-10 -10,0 0,-10 10,0 0,-10 z m 200,0 10,0 0,10 10,0 0,10 -10,0 0,10 -10,0 0,-10 -10,0 0,-10 10,0 0,-10 z m 100,0 10,0 0,10 10,0 0,10 -10,0 0,10 -10,0 0,-10 -10,0 0,-10 10,0 0,-10 z m 200,0 10,0 0,10 10,0 0,10 -10,0 0,10 -10,0 0,-10 -10,0 0,-10 10,0 0,-10 z m -250,50 10,0 0,10 10,0 0,10 -10,0 0,10 -10,0 0,-10 -10,0 0,-10 10,0 0,-10 z m 0,200 10,0 0,10 10,0 0,10 -10,0 0,10 -10,0 0,-10 -10,0 0,-10 10,0 0,-10 z"
       id="path4789" />
  </g>
  <g
     inkscape:groupmode="layer"
     id="layer3"
     inkscape:label="Layer 3"
     style="display:inline"
     transform="translate(-600,-8.1e-4)">
    <path
       transform="translate(-20,-202.36139)"
       style="color:#000000;clip-rule:nonzero;display:inline;overflow:visible;visibility:visible;opacity:1;isolation:auto;mix-blend-mode:normal;color-interpolation:sRGB;color-interpolation-filters:linearRGB;solid-color:#000000;solid-opacity:1;fill:#ff2a2a;fill-opacity:1;fill-rule:evenodd;stroke:none;stroke-width:1px;stroke-linecap:butt;stroke-linejoin:miter;stroke-miterlimit:4;stroke-dasharray:none;stroke-dashoffset:0;stroke-opacity:0.28469753;color-rendering:auto;image-rendering:auto;shape-rendering:auto;text-rendering:auto;enable-background:accumulate"
       d="m 610,-97.638666 0,10 -10,0 0,10 -10,0 0,10 -10,0 0,10 -10,0 0,10 10,0 0,10 10,0 0,10 10,0 0,10 10,0 0,10 10,0 0,-10 10,0 0,-10 10,0 0,-10 10,0 0,-10 10,0 0,-10 -10,0 0,-10 -10,0 0,-10 -10,0 0,-10 -10,0 0,-10 -10,0 z m 50,50 0,10 -10,0 0,10 -10,0 0,10 -10,0 0,10 -10,0 0,9.999996 -10,0 0,-9.999996 -10,0 0,-10 -10,0 0,-10 -10,0 0,-10 -10,0 0,-10 -10,0 0,10 -10,0 0,10 -10,0 0,10 -10,0 0,10 -10,0 0,9.999996 10,0 0,10 10,0 0,10 10,0 0,10 10,0 0,10 10,0 0,10 -10,0 0,-10 -10,0 0,-10 -10,0 0,-10 -10,0 0,-10 -10,0 0,-10 -10,0 0,10 -10,0 0,10 -10,0 0,10 -10,0 0,10 -10,0 0,10 10,0 0,10 10,0 0,10 10,0 0,10 10,0 0,10 10,0 0,10 -10,0 0,-10 -10,0 0,-10 -10,0 0,-10 -10,0 0,-10 -10,0 0,-10 -10,0 0,10 -10,0 0,10 -10,0 0,10 -10,0 0,10 -10,0 0,10 10,0 0,10 10,0 0,10 10,0 0,10 10,0 0,10 10,0 0,10 -10,0 0,-10 -10,0 0,-10 -10,0 0,-10 -10,0 0,-10 -10,0 0,-10 -10,0 0,10 -10,0 0,10 -10,0 0,10 -10,0 0,10 -10,0 0,10 10,0 0,10 10,0 0,10 10,0 0,10 10,0 0,10 10,0 0,10 -10,0 0,10 -10,0 0,10 -10,0 0,10 -10,0 0,10 -10,0 0,10 10,0 0,10 10,0 0,10 10,0 0,10 10,0 0,10 10,0 0,-10 10,0 0,-10 10,0 0,-10 10,0 0,-10 10,0 0,-10 10,0 0,10 -10,0 0,10 -10,0 0,10 -10,0 0,10 -10,0 0,10 -10,0 0,10 10,0 0,10 10,0 0,10 10,0 0,10 10,0 0,10 10,0 0,-10 10,0 0,-10 10,0 0,-10 10,0 0,-10 10,0 0,-10 10,0 0,10 -10,0 0,10 -10,0 0,10 -10,0 0,10 -10,0 0,10 -10,0 0,10 10,0 0,10 10,0 0,10 10,0 0,10 10,0 0,10 10,0 0,-10 10,0 0,-10 10,0 0,-10 10,0 0,-10 10,0 0,-10 10,0 0,10 -10,0 0,10 -10,0 0,10 -10,0 0,10 -10,0 0,10 -10,0 0,10 10,0 0,10 10,0 0,10 10,0 0,10 10,0 0,10 10,0 0,-10 10,0 0,-10 10,0 0,-10 10,0 0,-10 10,0 0,-10 10,0 0,10 10,0 0,10 10,0 0,10 10,0 0,10 10,0 0,10 10,0 0,-10 10,0 0,-10 10,0 0,-10 10,0 0,-10 10,0 0,-10 -10,0 0,-10 -10,0 0,-10 -10,0 0,-10 -10,0 0,-10 -10,0 0,-10 10,0 0,10 10,0 0,10 10,0 0,10 10,0 0,10 10,0 0,10 10,0 0,-10 10,0 0,-10 10,0 0,-10 10,0 0,-10 10,0 0,-10 -10,0 0,-10 -10,0 0,-10 -10,0 0,-10 -10,0 0,-10 -10,0 0,-10 10,0 0,10 10,0 0,10 10,0 0,10 10,0 0,10 10,0 0,10 10,0 0,-10 10,0 0,-10 10,0 0,-10 10,0 0,-10 10,0 0,-10 -10,0 0,-10 -10,0 0,-10 -10,0 0,-10 -10,0 0,-10 -10,0 0,-10 10,0 0,10 10,0 0,10 10,0 0,10 10,0 0,10 10,0 0,10 10,0 0,-10 10,0 0,-10 10,0 0,-10 10,0 0,-10 10,0 0,-10 -10,0 0,-10 -10,0 0,-10 -10,0 0,-10 -10,0 0,-10 -10,0 0,-10 10,0 0,-10 10,0 0,-10 10,0 0,-10 10,0 0,-10 10,0 0,-10 -10,0 0,-10 -10,0 0,-10 -10,0 0,-10 -10,0 0,-10 -10,0 0,10 -10,0 0,10 -10,0 0,10 -10,0 0,10 -10,0 0,10 -10,0 0,-10 10,0 0,-10 10,0 0,-10 10,0 0,-10 10,0 0,-10 10,0 0,-10 -10,0 0,-10 -10,0 0,-10 -10,0 0,-10 -10,0 0,-10 -10,0 0,10 -10,0 0,10 -10,0 0,10 -10,0 0,10 -10,0 0,10 -10,0 0,-10 10,0 0,-10 10,0 0,-10 10,0 0,-10 10,0 0,-10 10,0 0,-10 -10,0 0,-10 -10,0 0,-10 -10,0 0,-10 -10,0 0,-10 -10,0 0,10 -10,0 0,10 -10,0 0,10 -10,0 0,10 -10,0 0,10 -10,0 0,-10 10,0 0,-10 10,0 0,-10 10,0 0,-10 10,0 0,-10 10,0 0,-9.999996 -10,0 0,-10 -10,0 0,-10 -10,0 0,-10 -10,0 0,-10 -10,0 z m 200,199.999996 0,10 -10,0 0,10 -10,0 0,10 -10,0 0,10 -10,0 0,10 10,0 0,10 10,0 0,10 10,0 0,10 10,0 0,10 10,0 0,-10 10,0 0,-10 10,0 0,-10 10,0 0,-10 10,0 0,-10 -10,0 0,-10 -10,0 0,-10 -10,0 0,-10 -10,0 0,-10 -10,0 z m -200,290 -10,0 0,-10 -10,0 0,-10 -10,0 0,-10 -10,0 0,-10 -10,0 0,10 -10,0 0,10 -10,0 0,10 -10,0 0,10 -10,0 0,10 10,0 0,10 10,0 0,10 10,0 0,10 10,0 0,10 10,0 0,-10 10,0 0,-10 10,0 0,-10 10,0 0,-10 10,0 0,-10 z m -290,-200 0,-10 10,0 0,-10 10,0 0,-10 10,0 0,-10 10,0 0,-10 -10,0 0,-10 -10,0 0,-10 -10,0 0,-10 -10,0 0,-10 -10,0 0,10 -10,0 0,10 -10,0 0,10 -10,0 0,10 -10,0 0,10 10,0 0,10 10,0 0,10 10,0 0,10 10,0 0,10 10,0 z m 240,-309.999996 10,0 0,10 10,0 0,10 -10,0 0,10 -10,0 0,-10 -10,0 0,-10 10,0 0,-10 z m -50,50 10,0 0,10 10,0 0,9.999996 10,0 0,10 10,0 0,10 10,0 0,10 10,0 0,-10 10,0 0,-10 10,0 0,-10 10,0 0,-9.999996 10,0 0,-10 10,0 0,10 10,0 0,9.999996 -10,0 0,10 -10,0 0,10 -10,0 0,10 -10,0 0,10 -10,0 0,10 10,0 0,10 10,0 0,10 10,0 0,10 10,0 0,-10 10,0 0,-10 10,0 0,-10 10,0 0,-10 10,0 0,-10 10,0 0,10 10,0 0,10 -10,0 0,10 -10,0 0,10 -10,0 0,10 -10,0 0,10 -10,0 0,10 10,0 0,10 10,0 0,10 10,0 0,10 10,0 0,-10 10,0 0,-10 10,0 0,-10 10,0 0,-10 10,0 0,-10 10,0 0,10 10,0 0,10 -10,0 0,10 -10,0 0,10 -10,0 0,10 -10,0 0,10 -10,0 0,10 10,0 0,10 10,0 0,10 10,0 0,10 10,0 0,-10 10,0 0,-10 10,0 0,-10 10,0 0,-10 10,0 0,-10 10,0 0,10 10,0 0,10 -10,0 0,10 -10,0 0,10 -10,0 0,10 -10,0 0,10 -10,0 0,10 10,0 0,10 10,0 0,10 10,0 0,10 10,0 0,10 10,0 0,10 -10,0 0,10 -10,0 0,-10 -10,0 0,-10 -10,0 0,-10 -10,0 0,-10 -10,0 0,-10 -10,0 0,10 -10,0 0,10 -10,0 0,10 -10,0 0,10 10,0 0,10 10,0 0,10 10,0 0,10 10,0 0,10 10,0 0,10 -10,0 0,10 -10,0 0,-10 -10,0 0,-10 -10,0 0,-10 -10,0 0,-10 -10,0 0,-10 -10,0 0,10 -10,0 0,10 -10,0 0,10 -10,0 0,10 10,0 0,10 10,0 0,10 10,0 0,10 10,0 0,10 10,0 0,10 -10,0 0,10 -10,0 0,-10 -10,0 0,-10 -10,0 0,-10 -10,0 0,-10 -10,0 0,-10 -10,0 0,10 -10,0 0,10 -10,0 0,10 -10,0 0,10 10,0 0,10 10,0 0,10 10,0 0,10 10,0 0,10 10,0 0,10 -10,0 0,10 -10,0 0,-10 -10,0 0,-10 -10,0 0,-10 -10,0 0,-10 -10,0 0,-10 -10,0 0,10 -10,0 0,10 -10,0 0,10 -10,0 0,10 -10,0 0,10 -10,0 0,-10 -10,0 0,-10 10,0 0,-10 10,0 0,-10 10,0 0,-10 10,0 0,-10 10,0 0,-10 -10,0 0,-10 -10,0 0,-10 -10,0 0,-10 -10,0 0,10 -10,0 0,10 -10,0 0,10 -10,0 0,10 -10,0 0,10 -10,0 0,-10 -10,0 0,-10 10,0 0,-10 10,0 0,-10 10,0 0,-10 10,0 0,-10 10,0 0,-10 -10,0 0,-10 -10,0 0,-10 -10,0 0,-10 -10,0 0,10 -10,0 0,10 -10,0 0,10 -10,0 0,10 -10,0 0,10 -10,0 0,-10 -10,0 0,-10 10,0 0,-10 10,0 0,-10 10,0 0,-10 10,0 0,-10 10,0 0,-10 -10,0 0,-10 -10,0 0,-10 -10,0 0,-10 -10,0 0,10 -10,0 0,10 -10,0 0,10 -10,0 0,10 -10,0 0,10 -10,0 0,-10 -10,0 0,-10 10,0 0,-10 10,0 0,-10 10,0 0,-10 10,0 0,-10 10,0 0,-10 -10,0 0,-10 -10,0 0,-10 -10,0 0,-10 -10,0 0,-10 -10,0 0,-10 10,0 0,-10 10,0 0,10 10,0 0,10 10,0 0,10 10,0 0,10 10,0 0,10 10,0 0,-10 10,0 0,-10 10,0 0,-10 10,0 0,-10 -10,0 0,-10 -10,0 0,-10 -10,0 0,-10 -10,0 0,-10 -10,0 0,-10 10,0 0,-10 10,0 0,10 10,0 0,10 10,0 0,10 10,0 0,10 10,0 0,10 10,0 0,-10 10,0 0,-10 10,0 0,-10 10,0 0,-10 -10,0 0,-10 -10,0 0,-10 -10,0 0,-10 -10,0 0,-10 -10,0 0,-10 10,0 0,-10 10,0 0,10 10,0 0,10 10,0 0,10 10,0 0,10 10,0 0,10 10,0 0,-10 10,0 0,-10 10,0 0,-10 10,0 0,-10 -10,0 0,-10 -10,0 0,-10 -10,0 0,-10 -10,0 0,-10 -10,0 0,-9.999996 10,0 0,-10 z m 50,79.999996 0,10 -10,0 0,10 -10,0 0,10 -10,0 0,10 -10,0 0,10 -10,0 0,10 -10,0 0,10 -10,0 0,10 -10,0 0,10 -10,0 0,10 -10,0 0,10 -10,0 0,10 -10,0 0,10 -10,0 0,10 10,0 0,10 10,0 0,10 10,0 0,10 10,0 0,10 10,0 0,10 10,0 0,10 10,0 0,10 10,0 0,10 10,0 0,10 10,0 0,10 10,0 0,10 10,0 0,10 10,0 0,10 10,0 0,-10 10,0 0,-10 10,0 0,-10 10,0 0,-10 10,0 0,-10 10,0 0,-10 10,0 0,-10 10,0 0,-10 10,0 0,-10 10,0 0,-10 10,0 0,-10 10,0 0,-10 10,0 0,-10 10,0 0,-10 -10,0 0,-10 -10,0 0,-10 -10,0 0,-10 -10,0 0,-10 -10,0 0,-10 -10,0 0,-10 -10,0 0,-10 -10,0 0,-10 -10,0 0,-10 -10,0 0,-10 -10,0 0,-10 -10,0 0,-10 -10,0 0,-10 -10,0 z m 0,30 10,0 0,10 10,0 0,10 10,0 0,10 10,0 0,10 10,0 0,10 10,0 0,10 10,0 0,10 10,0 0,10 10,0 0,10 10,0 0,10 10,0 0,10 -10,0 0,10 -10,0 0,10 -10,0 0,10 -10,0 0,10 -10,0 0,10 -10,0 0,10 -10,0 0,10 -10,0 0,10 -10,0 0,10 -10,0 0,10 -10,0 0,-10 -10,0 0,-10 -10,0 0,-10 -10,0 0,-10 -10,0 0,-10 -10,0 0,-10 -10,0 0,-10 -10,0 0,-10 -10,0 0,-10 -10,0 0,-10 -10,0 0,-10 10,0 0,-10 10,0 0,-10 10,0 0,-10 10,0 0,-10 10,0 0,-10 10,0 0,-10 10,0 0,-10 10,0 0,-10 10,0 0,-10 10,0 0,-10 z m 0,10 0,10 -10,0 0,10 -10,0 0,10 -10,0 0,10 -10,0 0,10 10,0 0,10 10,0 0,10 10,0 0,10 10,0 0,10 10,0 0,-10 10,0 0,-10 10,0 0,-10 10,0 0,-10 10,0 0,-10 -10,0 0,-10 -10,0 0,-10 -10,0 0,-10 -10,0 0,-10 -10,0 z m 50,50 0,10 -10,0 0,10 -10,0 0,10 -10,0 0,10 -10,0 0,10 10,0 0,10 10,0 0,10 10,0 0,10 10,0 0,10 10,0 0,-10 10,0 0,-10 10,0 0,-10 10,0 0,-10 10,0 0,-10 -10,0 0,-10 -10,0 0,-10 -10,0 0,-10 -10,0 0,-10 -10,0 z m 0,90 -10,0 0,-10 -10,0 0,-10 -10,0 0,-10 -10,0 0,-10 -10,0 0,10 -10,0 0,10 -10,0 0,10 -10,0 0,10 -10,0 0,10 10,0 0,10 10,0 0,10 10,0 0,10 10,0 0,10 10,0 0,-10 10,0 0,-10 10,0 0,-10 10,0 0,-10 10,0 0,-10 z m -90,0 0,-10 10,0 0,-10 10,0 0,-10 10,0 0,-10 10,0 0,-10 -10,0 0,-10 -10,0 0,-10 -10,0 0,-10 -10,0 0,-10 -10,0 0,10 -10,0 0,10 -10,0 0,10 -10,0 0,10 -10,0 0,10 10,0 0,10 10,0 0,10 10,0 0,10 10,0 0,10 10,0 z m 40,-110 10,0 0,10 10,0 0,10 -10,0 0,10 -10,0 0,-10 -10,0 0,-10 10,0 0,-10 z m -250,50 10,0 0,10 10,0 0,10 -10,0 0,10 -10,0 0,-10 -10,0 0,-10 10,0 0,-10 z m 200,0 10,0 0,10 10,0 0,10 -10,0 0,10 -10,0 0,-10 -10,0 0,-10 10,0 0,-10 z m 100,0 10,0 0,10 10,0 0,10 -10,0 0,10 -10,0 0,-10 -10,0 0,-10 10,0 0,-10 z m 200,0 10,0 0,10 10,0 0,10 -10,0 0,10 -10,0 0,-10 -10,0 0,-10 10,0 0,-10 z m -250,50 10,0 0,10 10,0 0,10 -10,0 0,10 -10,0 0,-10 -10,0 0,-10 10,0 0,-10 z m 0,200 10,0 0,10 10,0 0,10 -10,0 0,10 -10,0 0,-10 -10,0 0,-10 10,0 0,-10 z"
       id="rect4229-2"
       inkscape:connector-curvature="0" />
    <path
       transform="translate(-20,-202.36139)"
       style="color:#000000;clip-rule:nonzero;display:inline;overflow:visible;visibility:visible;opacity:1;isolation:auto;mix-blend-mode:normal;color-interpolation:sRGB;color-interpolation-filters:linearRGB;solid-color:#000000;solid-opacity:1;fill:#ff2a2a;fill-opacity:1;fill-rule:evenodd;stroke:none;stroke-width:1px;stroke-linecap:butt;stroke-linejoin:miter;stroke-miterlimit:4;stroke-dasharray:none;stroke-dashoffset:0;stroke-opacity:0.28469753;color-rendering:auto;image-rendering:auto;shape-rendering:auto;text-rendering:auto;enable-background:accumulate"
       d="m 610,502.36133 0,10 -10,0 0,10 -10,0 0,10 -10,0 0,10 -10,0 0,10 10,0 0,10 10,0 0,10 10,0 0,10 10,0 0,10 10,0 0,-10 10,0 0,-10 10,0 0,-10 10,0 0,-10 10,0 0,-10 -10,0 0,-10 -10,0 0,-10 -10,0 0,-10 -10,0 0,-10 -10,0 z m 50,50 0,10 -10,0 0,10 -10,0 0,10 -10,0 0,10 -10,0 0,10 -10,0 0,-10 -10,0 0,-10 -10,0 0,-10 -10,0 0,-10 -10,0 0,-10 -10,0 0,10 -10,0 0,10 -10,0 0,10 -10,0 0,10 -10,0 0,10 10,0 0,10 10,0 0,10 10,0 0,10 10,0 0,10 10,0 0,10 -10,0 0,-10 -10,0 0,-10 -10,0 0,-10 -10,0 0,-10 -10,0 0,-10 -10,0 0,10 -10,0 0,10 -10,0 0,10 -10,0 0,10 -10,0 0,10 10,0 0,10 10,0 0,10 10,0 0,10 10,0 0,10 10,0 0,10 -10,0 0,-10 -10,0 0,-10 -10,0 0,-10 -10,0 0,-10 -10,0 0,-10 -10,0 0,10 -10,0 0,10 -10,0 0,10 -10,0 0,10 -10,0 0,10 10,0 0,10 10,0 0,10 10,0 0,10 10,0 0,10 10,0 0,10 -10,0 0,-10 -10,0 0,-10 -10,0 0,-10 -10,0 0,-10 -10,0 0,-10 -10,0 0,10 -10,0 0,10 -10,0 0,10 -10,0 0,10 -10,0 0,10 10,0 0,10 10,0 0,10 10,0 0,10 10,0 0,10 10,0 0,10 -10,0 0,10 -10,0 0,10 -10,0 0,10 -10,0 0,10 -10,0 0,10 10,0 0,10 10,0 0,10 10,0 0,10 10,0 0,10 10,0 0,-10 10,0 0,-10 10,0 0,-10 10,0 0,-10 10,0 0,-10 10,0 0,10 -10,0 0,10 -10,0 0,10 -10,0 0,10 -10,0 0,10 -10,0 0,10 10,0 0,10 10,0 0,10 10,0 0,10 10,0 0,10 10,0 0,-10 10,0 0,-10 10,0 0,-10 10,0 0,-10 10,0 0,-10 10,0 0,10 -10,0 0,10 -10,0 0,10 -10,0 0,10 -10,0 0,10 -10,0 0,10 10,0 0,10 10,0 0,10 10,0 0,10 10,0 0,10 10,0 0,-10 10,0 0,-10 10,0 0,-10 10,0 0,-10 10,0 0,-10 10,0 0,10 -10,0 0,10 -10,0 0,10 -10,0 0,10 -10,0 0,10 -10,0 0,9.99997 10,0 0,10 10,0 0,10 10,0 0,10 10,0 0,10 10,0 0,-10 10,0 0,-10 10,0 0,-10 10,0 0,-10 10,0 0,-9.99997 10,0 0,9.99997 10,0 0,10 10,0 0,10 10,0 0,10 10,0 0,10 10,0 0,-10 10,0 0,-10 10,0 0,-10 10,0 0,-10 10,0 0,-9.99997 -10,0 0,-10 -10,0 0,-10 -10,0 0,-10 -10,0 0,-10 -10,0 0,-10 10,0 0,10 10,0 0,10 10,0 0,10 10,0 0,10 10,0 0,10 10,0 0,-10 10,0 0,-10 10,0 0,-10 10,0 0,-10 10,0 0,-10 -10,0 0,-10 -10,0 0,-10 -10,0 0,-10 -10,0 0,-10 -10,0 0,-10 10,0 0,10 10,0 0,10 10,0 0,10 10,0 0,10 10,0 0,10 10,0 0,-10 10,0 0,-10 10,0 0,-10 10,0 0,-10 10,0 0,-10 -10,0 0,-10 -10,0 0,-10 -10,0 0,-10 -10,0 0,-10 -10,0 0,-10 10,0 0,10 10,0 0,10 10,0 0,10 10,0 0,10 10,0 0,10 10,0 0,-10 10,0 0,-10 10,0 0,-10 10,0 0,-10 10,0 0,-10 -10,0 0,-10 -10,0 0,-10 -10,0 0,-10 -10,0 0,-10 -10,0 0,-10 10,0 0,-10 10,0 0,-10 10,0 0,-10 10,0 0,-10 10,0 0,-10 -10,0 0,-10 -10,0 0,-10 -10,0 0,-10 -10,0 0,-10 -10,0 0,10 -10,0 0,10 -10,0 0,10 -10,0 0,10 -10,0 0,10 -10,0 0,-10 10,0 0,-10 10,0 0,-10 10,0 0,-10 10,0 0,-10 10,0 0,-10 -10,0 0,-10 -10,0 0,-10 -10,0 0,-10 -10,0 0,-10 -10,0 0,10 -10,0 0,10 -10,0 0,10 -10,0 0,10 -10,0 0,10 -10,0 0,-10 10,0 0,-10 10,0 0,-10 10,0 0,-10 10,0 0,-10 10,0 0,-10 -10,0 0,-10 -10,0 0,-10 -10,0 0,-10 -10,0 0,-10 -10,0 0,10 -10,0 0,10 -10,0 0,10 -10,0 0,10 -10,0 0,10 -10,0 0,-10 10,0 0,-10 10,0 0,-10 10,0 0,-10 10,0 0,-10 10,0 0,-10 -10,0 0,-10 -10,0 0,-10 -10,0 0,-10 -10,0 0,-10 -10,0 z m 200,200 0,10 -10,0 0,10 -10,0 0,10 -10,0 0,10 -10,0 0,10 10,0 0,10 10,0 0,10 10,0 0,10 10,0 0,10 10,0 0,-10 10,0 0,-10 10,0 0,-10 10,0 0,-10 10,0 0,-10 -10,0 0,-10 -10,0 0,-10 -10,0 0,-10 -10,0 0,-10 -10,0 z m -200,289.99997 -10,0 0,-10 -10,0 0,-10 -10,0 0,-10 -10,0 0,-10 -10,0 0,10 -10,0 0,10 -10,0 0,10 -10,0 0,10 -10,0 0,10 10,0 0,10 10,0 0,10 10,0 0,10 10,0 0,10 10,0 0,-10 10,0 0,-10 10,0 0,-10 10,0 0,-10 10,0 0,-10 z m -290,-199.99997 0,-10 10,0 0,-10 10,0 0,-10 10,0 0,-10 10,0 0,-10 -10,0 0,-10 -10,0 0,-10 -10,0 0,-10 -10,0 0,-10 -10,0 0,10 -10,0 0,10 -10,0 0,10 -10,0 0,10 -10,0 0,10 10,0 0,10 10,0 0,10 10,0 0,10 10,0 0,10 10,0 z m 240,-310 10,0 0,10 10,0 0,10 -10,0 0,10 -10,0 0,-10 -10,0 0,-10 10,0 0,-10 z m -50,50 10,0 0,10 10,0 0,10 10,0 0,10 10,0 0,10 10,0 0,10 10,0 0,-10 10,0 0,-10 10,0 0,-10 10,0 0,-10 10,0 0,-10 10,0 0,10 10,0 0,10 -10,0 0,10 -10,0 0,10 -10,0 0,10 -10,0 0,10 -10,0 0,10 10,0 0,10 10,0 0,10 10,0 0,10 10,0 0,-10 10,0 0,-10 10,0 0,-10 10,0 0,-10 10,0 0,-10 10,0 0,10 10,0 0,10 -10,0 0,10 -10,0 0,10 -10,0 0,10 -10,0 0,10 -10,0 0,10 10,0 0,10 10,0 0,10 10,0 0,10 10,0 0,-10 10,0 0,-10 10,0 0,-10 10,0 0,-10 10,0 0,-10 10,0 0,10 10,0 0,10 -10,0 0,10 -10,0 0,10 -10,0 0,10 -10,0 0,10 -10,0 0,10 10,0 0,10 10,0 0,10 10,0 0,10 10,0 0,-10 10,0 0,-10 10,0 0,-10 10,0 0,-10 10,0 0,-10 10,0 0,10 10,0 0,10 -10,0 0,10 -10,0 0,10 -10,0 0,10 -10,0 0,10 -10,0 0,10 10,0 0,10 10,0 0,10 10,0 0,10 10,0 0,10 10,0 0,10 -10,0 0,10 -10,0 0,-10 -10,0 0,-10 -10,0 0,-10 -10,0 0,-10 -10,0 0,-10 -10,0 0,10 -10,0 0,10 -10,0 0,10 -10,0 0,10 10,0 0,10 10,0 0,10 10,0 0,10 10,0 0,10 10,0 0,10 -10,0 0,10 -10,0 0,-10 -10,0 0,-10 -10,0 0,-10 -10,0 0,-10 -10,0 0,-10 -10,0 0,10 -10,0 0,10 -10,0 0,10 -10,0 0,10 10,0 0,10 10,0 0,10 10,0 0,10 10,0 0,10 10,0 0,10 -10,0 0,10 -10,0 0,-10 -10,0 0,-10 -10,0 0,-10 -10,0 0,-10 -10,0 0,-10 -10,0 0,10 -10,0 0,10 -10,0 0,10 -10,0 0,10 10,0 0,10 10,0 0,10 10,0 0,10 10,0 0,10 10,0 0,9.99997 -10,0 0,10 -10,0 0,-10 -10,0 0,-9.99997 -10,0 0,-10 -10,0 0,-10 -10,0 0,-10 -10,0 0,10 -10,0 0,10 -10,0 0,10 -10,0 0,9.99997 -10,0 0,10 -10,0 0,-10 -10,0 0,-9.99997 10,0 0,-10 10,0 0,-10 10,0 0,-10 10,0 0,-10 10,0 0,-10 -10,0 0,-10 -10,0 0,-10 -10,0 0,-10 -10,0 0,10 -10,0 0,10 -10,0 0,10 -10,0 0,10 -10,0 0,10 -10,0 0,-10 -10,0 0,-10 10,0 0,-10 10,0 0,-10 10,0 0,-10 10,0 0,-10 10,0 0,-10 -10,0 0,-10 -10,0 0,-10 -10,0 0,-10 -10,0 0,10 -10,0 0,10 -10,0 0,10 -10,0 0,10 -10,0 0,10 -10,0 0,-10 -10,0 0,-10 10,0 0,-10 10,0 0,-10 10,0 0,-10 10,0 0,-10 10,0 0,-10 -10,0 0,-10 -10,0 0,-10 -10,0 0,-10 -10,0 0,10 -10,0 0,10 -10,0 0,10 -10,0 0,10 -10,0 0,10 -10,0 0,-10 -10,0 0,-10 10,0 0,-10 10,0 0,-10 10,0 0,-10 10,0 0,-10 10,0 0,-10 -10,0 0,-10 -10,0 0,-10 -10,0 0,-10 -10,0 0,-10 -10,0 0,-10 10,0 0,-10 10,0 0,10 10,0 0,10 10,0 0,10 10,0 0,10 10,0 0,10 10,0 0,-10 10,0 0,-10 10,0 0,-10 10,0 0,-10 -10,0 0,-10 -10,0 0,-10 -10,0 0,-10 -10,0 0,-10 -10,0 0,-10 10,0 0,-10 10,0 0,10 10,0 0,10 10,0 0,10 10,0 0,10 10,0 0,10 10,0 0,-10 10,0 0,-10 10,0 0,-10 10,0 0,-10 -10,0 0,-10 -10,0 0,-10 -10,0 0,-10 -10,0 0,-10 -10,0 0,-10 10,0 0,-10 10,0 0,10 10,0 0,10 10,0 0,10 10,0 0,10 10,0 0,10 10,0 0,-10 10,0 0,-10 10,0 0,-10 10,0 0,-10 -10,0 0,-10 -10,0 0,-10 -10,0 0,-10 -10,0 0,-10 -10,0 0,-10 10,0 0,-10 z m 50,80 0,10 -10,0 0,10 -10,0 0,10 -10,0 0,10 -10,0 0,10 -10,0 0,10 -10,0 0,10 -10,0 0,10 -10,0 0,10 -10,0 0,10 -10,0 0,10 -10,0 0,10 -10,0 0,10 -10,0 0,10 10,0 0,10 10,0 0,10 10,0 0,10 10,0 0,10 10,0 0,10 10,0 0,10 10,0 0,10 10,0 0,10 10,0 0,10 10,0 0,10 10,0 0,10 10,0 0,10 10,0 0,10 10,0 0,-10 10,0 0,-10 10,0 0,-10 10,0 0,-10 10,0 0,-10 10,0 0,-10 10,0 0,-10 10,0 0,-10 10,0 0,-10 10,0 0,-10 10,0 0,-10 10,0 0,-10 10,0 0,-10 10,0 0,-10 -10,0 0,-10 -10,0 0,-10 -10,0 0,-10 -10,0 0,-10 -10,0 0,-10 -10,0 0,-10 -10,0 0,-10 -10,0 0,-10 -10,0 0,-10 -10,0 0,-10 -10,0 0,-10 -10,0 0,-10 -10,0 0,-10 -10,0 z m 0,30 10,0 0,10 10,0 0,10 10,0 0,10 10,0 0,10 10,0 0,10 10,0 0,10 10,0 0,10 10,0 0,10 10,0 0,10 10,0 0,10 10,0 0,10 -10,0 0,10 -10,0 0,10 -10,0 0,10 -10,0 0,10 -10,0 0,10 -10,0 0,10 -10,0 0,10 -10,0 0,10 -10,0 0,10 -10,0 0,10 -10,0 0,-10 -10,0 0,-10 -10,0 0,-10 -10,0 0,-10 -10,0 0,-10 -10,0 0,-10 -10,0 0,-10 -10,0 0,-10 -10,0 0,-10 -10,0 0,-10 -10,0 0,-10 10,0 0,-10 10,0 0,-10 10,0 0,-10 10,0 0,-10 10,0 0,-10 10,0 0,-10 10,0 0,-10 10,0 0,-10 10,0 0,-10 10,0 0,-10 z m 0,10 0,10 -10,0 0,10 -10,0 0,10 -10,0 0,10 -10,0 0,10 10,0 0,10 10,0 0,10 10,0 0,10 10,0 0,10 10,0 0,-10 10,0 0,-10 10,0 0,-10 10,0 0,-10 10,0 0,-10 -10,0 0,-10 -10,0 0,-10 -10,0 0,-10 -10,0 0,-10 -10,0 z m 50,50 0,10 -10,0 0,10 -10,0 0,10 -10,0 0,10 -10,0 0,10 10,0 0,10 10,0 0,10 10,0 0,10 10,0 0,10 10,0 0,-10 10,0 0,-10 10,0 0,-10 10,0 0,-10 10,0 0,-10 -10,0 0,-10 -10,0 0,-10 -10,0 0,-10 -10,0 0,-10 -10,0 z m 0,90 -10,0 0,-10 -10,0 0,-10 -10,0 0,-10 -10,0 0,-10 -10,0 0,10 -10,0 0,10 -10,0 0,10 -10,0 0,10 -10,0 0,10 10,0 0,10 10,0 0,10 10,0 0,10 10,0 0,10 10,0 0,-10 10,0 0,-10 10,0 0,-10 10,0 0,-10 10,0 0,-10 z m -90,0 0,-10 10,0 0,-10 10,0 0,-10 10,0 0,-10 10,0 0,-10 -10,0 0,-10 -10,0 0,-10 -10,0 0,-10 -10,0 0,-10 -10,0 0,10 -10,0 0,10 -10,0 0,10 -10,0 0,10 -10,0 0,10 10,0 0,10 10,0 0,10 10,0 0,10 10,0 0,10 10,0 z m 40,-110 10,0 0,10 10,0 0,10 -10,0 0,10 -10,0 0,-10 -10,0 0,-10 10,0 0,-10 z m -250,50 10,0 0,10 10,0 0,10 -10,0 0,10 -10,0 0,-10 -10,0 0,-10 10,0 0,-10 z m 200,0 10,0 0,10 10,0 0,10 -10,0 0,10 -10,0 0,-10 -10,0 0,-10 10,0 0,-10 z m 100,0 10,0 0,10 10,0 0,10 -10,0 0,10 -10,0 0,-10 -10,0 0,-10 10,0 0,-10 z m 200,0 10,0 0,10 10,0 0,10 -10,0 0,10 -10,0 0,-10 -10,0 0,-10 10,0 0,-10 z m -250,50 10,0 0,10 10,0 0,10 -10,0 0,10 -10,0 0,-10 -10,0 0,-10 10,0 0,-10 z m 0,199.99997 10,0 0,10 10,0 0,10 -10,0 0,10 -10,0 0,-10 -10,0 0,-10 10,0 0,-10 z"
       id="rect4229-2-9"
       inkscape:connector-curvature="0" />
    <path
       transform="translate(-20,-202.36139)"
       inkscape:connector-curvature="0"
       style="color:#000000;clip-rule:nonzero;display:inline;overflow:visible;visibility:visible;opacity:1;isolation:auto;mix-blend-mode:normal;color-interpolation:sRGB;color-interpolation-filters:linearRGB;solid-color:#000000;solid-opacity:1;fill:#ff2a2a;fill-opacity:1;fill-rule:evenodd;stroke:none;stroke-width:1px;stroke-linecap:butt;stroke-linejoin:miter;stroke-miterlimit:4;stroke-dasharray:none;stroke-dashoffset:0;stroke-opacity:0.28469753;color-rendering:auto;image-rendering:auto;shape-rendering:auto;text-rendering:auto;enable-background:accumulate"
       d="m 1210,-97.637802 0,10 -10,0 0,10 -10,0 0,10 -10,0 0,10 -10,0 0,10 10,0 0,10 10,0 0,10 10,0 0,10 10,0 0,10 10,0 0,-10 10,0 0,-10 10,0 0,-10 10,0 0,-10 10,0 0,-10 -10,0 0,-10 -10,0 0,-10 -10,0 0,-10 -10,0 0,-10 -10,0 z m 50,50 0,10 -10,0 0,10 -10,0 0,10 -10,0 0,10 -10,0 0,10.000002 -10,0 0,-10.000002 -10,0 0,-10 -10,0 0,-10 -10,0 0,-10 -10,0 0,-10 -10,0 0,10 -10,0 0,10 -10,0 0,10 -10,0 0,10 -10,0 0,10.000002 10,0 0,10 10,0 0,10 10,0 0,10 10,0 0,10 10,0 0,10 -10,0 0,-10 -10,0 0,-10 -10,0 0,-10 -10,0 0,-10 -10,0 0,-10 -10,0 0,10 -10,0 0,10 -10,0 0,10 -10,0 0,10 -10,0 0,10 10,0 0,10 10,0 0,10 10,0 0,10 10,0 0,10 10,0 0,10 -10,0 0,-10 -10,0 0,-10 -10,0 0,-10 -10,0 0,-10 -10,0 0,-10 -10,0 0,10 -10,0 0,10 -10,0 0,10 -10,0 0,10 -10,0 0,10 10,0 0,10 10,0 0,10 10,0 0,10 10,0 0,10 10,0 0,10 -10,0 0,-10 -10,0 0,-10 -10,0 0,-10 -10,0 0,-10 -10,0 0,-10 -10,0 0,10 -10,0 0,10 -10,0 0,10 -10,0 0,10 -10,0 0,10 10,0 0,10 10,0 0,10 10,0 0,10 10,0 0,10 10,0 0,10 -10,0 0,10 -10,0 0,10 -10,0 0,10 -10,0 0,10 -10,0 0,10 10,0 0,10 10,0 0,10 10,0 0,10 10,0 0,10 10,0 0,-10 10,0 0,-10 10,0 0,-10 10,0 0,-10 10,0 0,-10 10,0 0,10 -10,0 0,10 -10,0 0,10 -10,0 0,10 -10,0 0,10 -10,0 0,10 10,0 0,10 10,0 0,10 10,0 0,10 10,0 0,10 10,0 0,-10 10,0 0,-10 10,0 0,-10 10,0 0,-10 10,0 0,-10 10,0 0,10 -10,0 0,10 -10,0 0,10 -10,0 0,10 -10,0 0,10 -10,0 0,10 10,0 0,10 10,0 0,10 10,0 0,10 10,0 0,10 10,0 0,-10 10,0 0,-10 10,0 0,-10 10,0 0,-10 10,0 0,-10 10,0 0,10 -10,0 0,10 -10,0 0,10 -10,0 0,10 -10,0 0,10 -10,0 0,10 10,0 0,10 10,0 0,10 10,0 0,10 10,0 0,10 10,0 0,-10 10,0 0,-10 10,0 0,-10 10,0 0,-10 10,0 0,-10 10,0 0,10 10,0 0,10 10,0 0,10 10,0 0,10 10,0 0,10 10,0 0,-10 10,0 0,-10 10,0 0,-10 10,0 0,-10 10,0 0,-10 -10,0 0,-10 -10,0 0,-10 -10,0 0,-10 -10,0 0,-10 -10,0 0,-10 10,0 0,10 10,0 0,10 10,0 0,10 10,0 0,10 10,0 0,10 10,0 0,-10 10,0 0,-10 10,0 0,-10 10,0 0,-10 10,0 0,-10 -10,0 0,-10 -10,0 0,-10 -10,0 0,-10 -10,0 0,-10 -10,0 0,-10 10,0 0,10 10,0 0,10 10,0 0,10 10,0 0,10 10,0 0,10 10,0 0,-10 10,0 0,-10 10,0 0,-10 10,0 0,-10 10,0 0,-10 -10,0 0,-10 -10,0 0,-10 -10,0 0,-10 -10,0 0,-10 -10,0 0,-10 10,0 0,10 10,0 0,10 10,0 0,10 10,0 0,10 10,0 0,10 10,0 0,-10 10,0 0,-10 10,0 0,-10 10,0 0,-10 10,0 0,-10 -10,0 0,-10 -10,0 0,-10 -10,0 0,-10 -10,0 0,-10 -10,0 0,-10 10,0 0,-10 10,0 0,-10 10,0 0,-10 10,0 0,-10 10,0 0,-10 -10,0 0,-10 -10,0 0,-10 -10,0 0,-10 -10,0 0,-10 -10,0 0,10 -10,0 0,10 -10,0 0,10 -10,0 0,10 -10,0 0,10 -10,0 0,-10 10,0 0,-10 10,0 0,-10 10,0 0,-10 10,0 0,-10 10,0 0,-10 -10,0 0,-10 -10,0 0,-10 -10,0 0,-10 -10,0 0,-10 -10,0 0,10 -10,0 0,10 -10,0 0,10 -10,0 0,10 -10,0 0,10 -10,0 0,-10 10,0 0,-10 10,0 0,-10 10,0 0,-10 10,0 0,-10 10,0 0,-10 -10,0 0,-10 -10,0 0,-10 -10,0 0,-10 -10,0 0,-10 -10,0 0,10 -10,0 0,10 -10,0 0,10 -10,0 0,10 -10,0 0,10 -10,0 0,-10 10,0 0,-10 10,0 0,-10 10,0 0,-10 10,0 0,-10 10,0 0,-10.000002 -10,0 0,-10 -10,0 0,-10 -10,0 0,-10 -10,0 0,-10 -10,0 z m 200,200.000002 0,10 -10,0 0,10 -10,0 0,10 -10,0 0,10 -10,0 0,10 10,0 0,10 10,0 0,10 10,0 0,10 10,0 0,10 10,0 0,-10 10,0 0,-10 10,0 0,-10 10,0 0,-10 10,0 0,-10 -10,0 0,-10 -10,0 0,-10 -10,0 0,-10 -10,0 0,-10 -10,0 z m -200,290 -10,0 0,-10 -10,0 0,-10 -10,0 0,-10 -10,0 0,-10 -10,0 0,10 -10,0 0,10 -10,0 0,10 -10,0 0,10 -10,0 0,10 10,0 0,10 10,0 0,10 10,0 0,10 10,0 0,10 10,0 0,-10 10,0 0,-10 10,0 0,-10 10,0 0,-10 10,0 0,-10 z m -290,-200 0,-10 10,0 0,-10 10,0 0,-10 10,0 0,-10 10,0 0,-10 -10,0 0,-10 -10,0 0,-10 -10,0 0,-10 -10,0 0,-10 -10,0 0,10 -10,0 0,10 -10,0 0,10 -10,0 0,10 -10,0 0,10 10,0 0,10 10,0 0,10 10,0 0,10 10,0 0,10 10,0 z m 240,-310.000002 10,0 0,10 10,0 0,10 -10,0 0,10 -10,0 0,-10 -10,0 0,-10 10,0 0,-10 z m -50,50 10,0 0,10 10,0 0,10.000002 10,0 0,10 10,0 0,10 10,0 0,10 10,0 0,-10 10,0 0,-10 10,0 0,-10 10,0 0,-10.000002 10,0 0,-10 10,0 0,10 10,0 0,10.000002 -10,0 0,10 -10,0 0,10 -10,0 0,10 -10,0 0,10 -10,0 0,10 10,0 0,10 10,0 0,10 10,0 0,10 10,0 0,-10 10,0 0,-10 10,0 0,-10 10,0 0,-10 10,0 0,-10 10,0 0,10 10,0 0,10 -10,0 0,10 -10,0 0,10 -10,0 0,10 -10,0 0,10 -10,0 0,10 10,0 0,10 10,0 0,10 10,0 0,10 10,0 0,-10 10,0 0,-10 10,0 0,-10 10,0 0,-10 10,0 0,-10 10,0 0,10 10,0 0,10 -10,0 0,10 -10,0 0,10 -10,0 0,10 -10,0 0,10 -10,0 0,10 10,0 0,10 10,0 0,10 10,0 0,10 10,0 0,-10 10,0 0,-10 10,0 0,-10 10,0 0,-10 10,0 0,-10 10,0 0,10 10,0 0,10 -10,0 0,10 -10,0 0,10 -10,0 0,10 -10,0 0,10 -10,0 0,10 10,0 0,10 10,0 0,10 10,0 0,10 10,0 0,10 10,0 0,10 -10,0 0,10 -10,0 0,-10 -10,0 0,-10 -10,0 0,-10 -10,0 0,-10 -10,0 0,-10 -10,0 0,10 -10,0 0,10 -10,0 0,10 -10,0 0,10 10,0 0,10 10,0 0,10 10,0 0,10 10,0 0,10 10,0 0,10 -10,0 0,10 -10,0 0,-10 -10,0 0,-10 -10,0 0,-10 -10,0 0,-10 -10,0 0,-10 -10,0 0,10 -10,0 0,10 -10,0 0,10 -10,0 0,10 10,0 0,10 10,0 0,10 10,0 0,10 10,0 0,10 10,0 0,10 -10,0 0,10 -10,0 0,-10 -10,0 0,-10 -10,0 0,-10 -10,0 0,-10 -10,0 0,-10 -10,0 0,10 -10,0 0,10 -10,0 0,10 -10,0 0,10 10,0 0,10 10,0 0,10 10,0 0,10 10,0 0,10 10,0 0,10 -10,0 0,10 -10,0 0,-10 -10,0 0,-10 -10,0 0,-10 -10,0 0,-10 -10,0 0,-10 -10,0 0,10 -10,0 0,10 -10,0 0,10 -10,0 0,10 -10,0 0,10 -10,0 0,-10 -10,0 0,-10 10,0 0,-10 10,0 0,-10 10,0 0,-10 10,0 0,-10 10,0 0,-10 -10,0 0,-10 -10,0 0,-10 -10,0 0,-10 -10,0 0,10 -10,0 0,10 -10,0 0,10 -10,0 0,10 -10,0 0,10 -10,0 0,-10 -10,0 0,-10 10,0 0,-10 10,0 0,-10 10,0 0,-10 10,0 0,-10 10,0 0,-10 -10,0 0,-10 -10,0 0,-10 -10,0 0,-10 -10,0 0,10 -10,0 0,10 -10,0 0,10 -10,0 0,10 -10,0 0,10 -10,0 0,-10 -10,0 0,-10 10,0 0,-10 10,0 0,-10 10,0 0,-10 10,0 0,-10 10,0 0,-10 -10,0 0,-10 -10,0 0,-10 -10,0 0,-10 -10,0 0,10 -10,0 0,10 -10,0 0,10 -10,0 0,10 -10,0 0,10 -10,0 0,-10 -10,0 0,-10 10,0 0,-10 10,0 0,-10 10,0 0,-10 10,0 0,-10 10,0 0,-10 -10,0 0,-10 -10,0 0,-10 -10,0 0,-10 -10,0 0,-10 -10,0 0,-10 10,0 0,-10 10,0 0,10 10,0 0,10 10,0 0,10 10,0 0,10 10,0 0,10 10,0 0,-10 10,0 0,-10 10,0 0,-10 10,0 0,-10 -10,0 0,-10 -10,0 0,-10 -10,0 0,-10 -10,0 0,-10 -10,0 0,-10 10,0 0,-10 10,0 0,10 10,0 0,10 10,0 0,10 10,0 0,10 10,0 0,10 10,0 0,-10 10,0 0,-10 10,0 0,-10 10,0 0,-10 -10,0 0,-10 -10,0 0,-10 -10,0 0,-10 -10,0 0,-10 -10,0 0,-10 10,0 0,-10 10,0 0,10 10,0 0,10 10,0 0,10 10,0 0,10 10,0 0,10 10,0 0,-10 10,0 0,-10 10,0 0,-10 10,0 0,-10 -10,0 0,-10 -10,0 0,-10 -10,0 0,-10 -10,0 0,-10 -10,0 0,-10.000002 10,0 0,-10 z m 50,80.000002 0,10 -10,0 0,10 -10,0 0,10 -10,0 0,10 -10,0 0,10 -10,0 0,10 -10,0 0,10 -10,0 0,10 -10,0 0,10 -10,0 0,10 -10,0 0,10 -10,0 0,10 -10,0 0,10 -10,0 0,10 10,0 0,10 10,0 0,10 10,0 0,10 10,0 0,10 10,0 0,10 10,0 0,10 10,0 0,10 10,0 0,10 10,0 0,10 10,0 0,10 10,0 0,10 10,0 0,10 10,0 0,10 10,0 0,-10 10,0 0,-10 10,0 0,-10 10,0 0,-10 10,0 0,-10 10,0 0,-10 10,0 0,-10 10,0 0,-10 10,0 0,-10 10,0 0,-10 10,0 0,-10 10,0 0,-10 10,0 0,-10 10,0 0,-10 -10,0 0,-10 -10,0 0,-10 -10,0 0,-10 -10,0 0,-10 -10,0 0,-10 -10,0 0,-10 -10,0 0,-10 -10,0 0,-10 -10,0 0,-10 -10,0 0,-10 -10,0 0,-10 -10,0 0,-10 -10,0 0,-10 -10,0 z m 0,30 10,0 0,10 10,0 0,10 10,0 0,10 10,0 0,10 10,0 0,10 10,0 0,10 10,0 0,10 10,0 0,10 10,0 0,10 10,0 0,10 10,0 0,10 -10,0 0,10 -10,0 0,10 -10,0 0,10 -10,0 0,10 -10,0 0,10 -10,0 0,10 -10,0 0,10 -10,0 0,10 -10,0 0,10 -10,0 0,10 -10,0 0,-10 -10,0 0,-10 -10,0 0,-10 -10,0 0,-10 -10,0 0,-10 -10,0 0,-10 -10,0 0,-10 -10,0 0,-10 -10,0 0,-10 -10,0 0,-10 -10,0 0,-10 10,0 0,-10 10,0 0,-10 10,0 0,-10 10,0 0,-10 10,0 0,-10 10,0 0,-10 10,0 0,-10 10,0 0,-10 10,0 0,-10 10,0 0,-10 z m 0,10 0,10 -10,0 0,10 -10,0 0,10 -10,0 0,10 -10,0 0,10 10,0 0,10 10,0 0,10 10,0 0,10 10,0 0,10 10,0 0,-10 10,0 0,-10 10,0 0,-10 10,0 0,-10 10,0 0,-10 -10,0 0,-10 -10,0 0,-10 -10,0 0,-10 -10,0 0,-10 -10,0 z m 50,50 0,10 -10,0 0,10 -10,0 0,10 -10,0 0,10 -10,0 0,10 10,0 0,10 10,0 0,10 10,0 0,10 10,0 0,10 10,0 0,-10 10,0 0,-10 10,0 0,-10 10,0 0,-10 10,0 0,-10 -10,0 0,-10 -10,0 0,-10 -10,0 0,-10 -10,0 0,-10 -10,0 z m 0,90 -10,0 0,-10 -10,0 0,-10 -10,0 0,-10 -10,0 0,-10 -10,0 0,10 -10,0 0,10 -10,0 0,10 -10,0 0,10 -10,0 0,10 10,0 0,10 10,0 0,10 10,0 0,10 10,0 0,10 10,0 0,-10 10,0 0,-10 10,0 0,-10 10,0 0,-10 10,0 0,-10 z m -90,0 0,-10 10,0 0,-10 10,0 0,-10 10,0 0,-10 10,0 0,-10 -10,0 0,-10 -10,0 0,-10 -10,0 0,-10 -10,0 0,-10 -10,0 0,10 -10,0 0,10 -10,0 0,10 -10,0 0,10 -10,0 0,10 10,0 0,10 10,0 0,10 10,0 0,10 10,0 0,10 10,0 z m 40,-110 10,0 0,10 10,0 0,10 -10,0 0,10 -10,0 0,-10 -10,0 0,-10 10,0 0,-10 z m -250,50 10,0 0,10 10,0 0,10 -10,0 0,10 -10,0 0,-10 -10,0 0,-10 10,0 0,-10 z m 200,0 10,0 0,10 10,0 0,10 -10,0 0,10 -10,0 0,-10 -10,0 0,-10 10,0 0,-10 z m 100,0 10,0 0,10 10,0 0,10 -10,0 0,10 -10,0 0,-10 -10,0 0,-10 10,0 0,-10 z m 200,0 10,0 0,10 10,0 0,10 -10,0 0,10 -10,0 0,-10 -10,0 0,-10 10,0 0,-10 z m -250,50 10,0 0,10 10,0 0,10 -10,0 0,10 -10,0 0,-10 -10,0 0,-10 10,0 0,-10 z m 0,200 10,0 0,10 10,0 0,10 -10,0 0,10 -10,0 0,-10 -10,0 0,-10 10,0 0,-10 z"
       id="path4783-1" />
    <path
       transform="translate(-20,-202.36139)"
       inkscape:connector-curvature="0"
       style="color:#000000;clip-rule:nonzero;display:inline;overflow:visible;visibility:visible;opacity:1;isolation:auto;mix-blend-mode:normal;color-interpolation:sRGB;color-interpolation-filters:linearRGB;solid-color:#000000;solid-opacity:1;fill:#ff2a2a;fill-opacity:1;fill-rule:evenodd;stroke:none;stroke-width:1px;stroke-linecap:butt;stroke-linejoin:miter;stroke-miterlimit:4;stroke-dasharray:none;stroke-dashoffset:0;stroke-opacity:0.28469753;color-rendering:auto;image-rendering:auto;shape-rendering:auto;text-rendering:auto;enable-background:accumulate"
       d="m 1210,502.36221 0,10 -10,0 0,10 -10,0 0,10 -10,0 0,10 -10,0 0,10 10,0 0,10 10,0 0,10 10,0 0,9.99999 10,0 0,10 10,0 0,-10 10,0 0,-9.99999 10,0 0,-10 10,0 0,-10 10,0 0,-10 -10,0 0,-10 -10,0 0,-10 -10,0 0,-10 -10,0 0,-10 -10,0 z m 50,50 0,10 -10,0 0,10 -10,0 0,9.99999 -10,0 0,10 -10,0 0,10 -10,0 0,-10 -10,0 0,-10 -10,0 0,-9.99999 -10,0 0,-10 -10,0 0,-10 -10,0 0,10 -10,0 0,10 -10,0 0,9.99999 -10,0 0,10 -10,0 0,10 10,0 0,10 10,0 0,10 10,0 0,10 10,0 0,10 10,0 0,10 -10,0 0,-10 -10,0 0,-10 -10,0 0,-10 -10,0 0,-10 -10,0 0,-10 -10,0 0,10 -10,0 0,10 -10,0 0,10 -10,0 0,10 -10,0 0,10 10,0 0,10 10,0 0,10 10,0 0,10 10,0 0,10 10,0 0,10 -10,0 0,-10 -10,0 0,-10 -10,0 0,-10 -10,0 0,-10 -10,0 0,-10 -10,0 0,10 -10,0 0,10 -10,0 0,10 -10,0 0,10 -10,0 0,10 10,0 0,10 10,0 0,10 10,0 0,10 10,0 0,10 10,0 0,10 -10,0 0,-10 -10,0 0,-10 -10,0 0,-10 -10,0 0,-10 -10,0 0,-10 -10,0 0,10 -10,0 0,10 -9.99997,0 0,10 -10,0 0,10 -10,0 0,10 10,0 0,10 10,0 0,10 9.99997,0 0,10.00001 10,0 0,10 10,0 0,10 -10,0 0,10 -10,0 0,10 -9.99997,0 0,10 -10,0 0,10 -10,0 0,10 10,0 0,10 10,0 0,10 9.99997,0 0,10 10,0 0,10 10,0 0,-10 10,0 0,-10 10,0 0,-10 10,0 0,-10 10,0 0,-10 10,0 0,10 -10,0 0,10 -10,0 0,10 -10,0 0,10 -10,0 0,10 -10,0 0,10 10,0 0,10 10,0 0,10 10,0 0,10 10,0 0,10 10,0 0,-10 10,0 0,-10 10,0 0,-10 10,0 0,-10 10,0 0,-10 10,0 0,10 -10,0 0,10 -10,0 0,10 -10,0 0,10 -10,0 0,10 -10,0 0,10 10,0 0,10 10,0 0,10 10,0 0,10 10,0 0,10 10,0 0,-10 10,0 0,-10 10,0 0,-10 10,0 0,-10 10,0 0,-10 10,0 0,10 -10,0 0,10 -10,0 0,10 -10,0 0,10 -10,0 0,10 -10,0 0,9.99999 10,0 0,10 10,0 0,10 10,0 0,10 10,0 0,10 10,0 0,-10 10,0 0,-10 10,0 0,-10 10,0 0,-10 10,0 0,-9.99999 10,0 0,9.99999 10,0 0,10 10,0 0,10 10,0 0,10 10,0 0,10 10,0 0,-10 10,0 0,-10 10,0 0,-10 10,0 0,-10 10,0 0,-9.99999 -10,0 0,-10 -10,0 0,-10 -10,0 0,-10 -10,0 0,-10 -10,0 0,-10 10,0 0,10 10,0 0,10 10,0 0,10 10,0 0,10 10,0 0,10 10,0 0,-10 10,0 0,-10 10,0 0,-10 10,0 0,-10 10,0 0,-10 -10,0 0,-10 -10,0 0,-10 -10,0 0,-10 -10,0 0,-10 -10,0 0,-10 10,0 0,10 10,0 0,10 10,0 0,10 10,0 0,10 10,0 0,10 10,0 0,-10 10,0 0,-10 10,0 0,-10 10,0 0,-10 10,0 0,-10 -10,0 0,-10 -10,0 0,-10 -10,0 0,-10 -10,0 0,-10 -10,0 0,-10 10,0 0,10 10,0 0,10 10,0 0,10 10,0 0,10 10,0 0,10 10,0 0,-10 10,0 0,-10 10,0 0,-10 10,0 0,-10 10,0 0,-10 -10,0 0,-10 -10,0 0,-10 -10,0 0,-10 -10,0 0,-10 -10,0 0,-10 10,0 0,-10 10,0 0,-10.00001 10,0 0,-10 10,0 0,-10 10,0 0,-10 -10,0 0,-10 -10,0 0,-10 -10,0 0,-10 -10,0 0,-10 -10,0 0,10 -10,0 0,10 -10,0 0,10 -10,0 0,10 -10,0 0,10 -10,0 0,-10 10,0 0,-10 10,0 0,-10 10,0 0,-10 10,0 0,-10 10,0 0,-10 -10,0 0,-10 -10,0 0,-10 -10,0 0,-10 -10,0 0,-10 -10,0 0,10 -10,0 0,10 -10,0 0,10 -10,0 0,10 -10,0 0,10 -10,0 0,-10 10,0 0,-10 10,0 0,-10 10,0 0,-10 10,0 0,-10 10,0 0,-10 -10,0 0,-10 -10,0 0,-10 -10,0 0,-10 -10,0 0,-10 -10,0 0,10 -10,0 0,10 -10,0 0,10 -10,0 0,10 -10,0 0,10 -10,0 0,-10 10,0 0,-10 10,0 0,-10 10,0 0,-10 10,0 0,-10 10,0 0,-10 -10,0 0,-10 -10,0 0,-9.99999 -10,0 0,-10 -10,0 0,-10 -10,0 z m 200,199.99999 0,10 -10,0 0,10 -10,0 0,10.00001 -10,0 0,10 -10,0 0,10 10,0 0,10 10,0 0,10 10,0 0,10 10,0 0,10 10,0 0,-10 10,0 0,-10 10,0 0,-10 10,0 0,-10 10,0 0,-10 -10,0 0,-10 -10,0 0,-10.00001 -10,0 0,-10 -10,0 0,-10 -10,0 z m -200,290 -10,0 0,-10 -10,0 0,-10 -10,0 0,-10 -10,0 0,-10 -10,0 0,10 -10,0 0,10 -10,0 0,10 -10,0 0,10 -10,0 0,10 10,0 0,10 10,0 0,10 10,0 0,10 10,0 0,10 10,0 0,-10 10,0 0,-10 10,0 0,-10 10,0 0,-10 10,0 0,-10 z m -289.99997,-199.99999 0,-10 10,0 0,-10 10,0 0,-10 9.99997,0 0,-10 10,0 0,-10 -10,0 0,-10 -9.99997,0 0,-10.00001 -10,0 0,-10 -10,0 0,-10 -10,0 0,10 -10,0 0,10 -10,0 0,10.00001 -10,0 0,10 -10,0 0,10 10,0 0,10 10,0 0,10 10,0 0,10 10,0 0,10 10,0 z m 239.99997,-310 10,0 0,10 10,0 0,10 -10,0 0,10 -10,0 0,-10 -10,0 0,-10 10,0 0,-10 z m -50,49.99999 10,0 0,10 10,0 0,10 10,0 0,10 10,0 0,10 10,0 0,10 10,0 0,-10 10,0 0,-10 10,0 0,-10 10,0 0,-10 10,0 0,-10 10,0 0,10 10,0 0,10 -10,0 0,10 -10,0 0,10 -10,0 0,10 -10,0 0,10 -10,0 0,10 10,0 0,10 10,0 0,10 10,0 0,10 10,0 0,-10 10,0 0,-10 10,0 0,-10 10,0 0,-10 10,0 0,-10 10,0 0,10 10,0 0,10 -10,0 0,10 -10,0 0,10 -10,0 0,10 -10,0 0,10 -10,0 0,10 10,0 0,10 10,0 0,10 10,0 0,10 10,0 0,-10 10,0 0,-10 10,0 0,-10 10,0 0,-10 10,0 0,-10 10,0 0,10 10,0 0,10 -10,0 0,10 -10,0 0,10 -10,0 0,10 -10,0 0,10 -10,0 0,10 10,0 0,10 10,0 0,10 10,0 0,10.00001 10,0 0,-10.00001 10,0 0,-10 10,0 0,-10 10,0 0,-10 10,0 0,-10 10,0 0,10 10,0 0,10 -10,0 0,10 -10,0 0,10 -10,0 0,10.00001 -10,0 0,10 -10,0 0,10 10,0 0,10 10,0 0,10 10,0 0,10 10,0 0,10 10,0 0,10 -10,0 0,10 -10,0 0,-10 -10,0 0,-10 -10,0 0,-10 -10,0 0,-10 -10,0 0,-10 -10,0 0,10 -10,0 0,10 -10,0 0,10 -10,0 0,10 10,0 0,10 10,0 0,10 10,0 0,10 10,0 0,10 10,0 0,10 -10,0 0,10 -10,0 0,-10 -10,0 0,-10 -10,0 0,-10 -10,0 0,-10 -10,0 0,-10 -10,0 0,10 -10,0 0,10 -10,0 0,10 -10,0 0,10 10,0 0,10 10,0 0,10 10,0 0,10 10,0 0,10 10,0 0,10 -10,0 0,10 -10,0 0,-10 -10,0 0,-10 -10,0 0,-10 -10,0 0,-10 -10,0 0,-10 -10,0 0,10 -10,0 0,10 -10,0 0,10 -10,0 0,10 10,0 0,10 10,0 0,10 10,0 0,10 10,0 0,10 10,0 0,9.99999 -10,0 0,10 -10,0 0,-10 -10,0 0,-9.99999 -10,0 0,-10 -10,0 0,-10 -10,0 0,-10 -10,0 0,10 -10,0 0,10 -10,0 0,10 -10,0 0,9.99999 -10,0 0,10 -10,0 0,-10 -10,0 0,-9.99999 10,0 0,-10 10,0 0,-10 10,0 0,-10 10,0 0,-10 10,0 0,-10 -10,0 0,-10 -10,0 0,-10 -10,0 0,-10 -10,0 0,10 -10,0 0,10 -10,0 0,10 -10,0 0,10 -10,0 0,10 -10,0 0,-10 -10,0 0,-10 10,0 0,-10 10,0 0,-10 10,0 0,-10 10,0 0,-10 10,0 0,-10 -10,0 0,-10 -10,0 0,-10 -10,0 0,-10 -10,0 0,10 -10,0 0,10 -10,0 0,10 -10,0 0,10 -10,0 0,10 -10,0 0,-10 -10,0 0,-10 10,0 0,-10 10,0 0,-10 10,0 0,-10 10,0 0,-10 10,0 0,-10 -10,0 0,-10 -10,0 0,-10 -10,0 0,-10 -10,0 0,10 -10,0 0,10 -10,0 0,10 -10,0 0,10 -10,0 0,10 -10,0 0,-10 -10,0 0,-10 10,0 0,-10 10,0 0,-10 10,0 0,-10 10,0 0,-10 10,0 0,-10 -10,0 0,-10 -10,0 0,-10.00001 -10,0 0,-10 -10,0 0,-10 -10,0 0,-10 10,0 0,-10 10,0 0,10 10,0 0,10 10,0 0,10 10,0 0,10 10,0 0,10.00001 10,0 0,-10.00001 10,0 0,-10 10,0 0,-10 10,0 0,-10 -10,0 0,-10 -10,0 0,-10 -10,0 0,-10 -10,0 0,-10 -10,0 0,-10 10,0 0,-10 10,0 0,10 10,0 0,10 10,0 0,10 10,0 0,10 10,0 0,10 10,0 0,-10 10,0 0,-10 10,0 0,-10 10,0 0,-10 -10,0 0,-10 -10,0 0,-10 -10,0 0,-10 -10,0 0,-10 -10,0 0,-10 10,0 0,-10 10,0 0,10 10,0 0,10 10,0 0,10 10,0 0,10 10,0 0,10 10,0 0,-10 10,0 0,-10 10,0 0,-10 10,0 0,-10 -10,0 0,-10 -10,0 0,-10 -10,0 0,-10 -10,0 0,-10 -10,0 0,-10 10,0 0,-10 z m 50,80 0,10 -10,0 0,10 -10,0 0,10 -10,0 0,10 -10,0 0,10 -10,0 0,10 -10,0 0,10 -10,0 0,10 -10,0 0,10 -10,0 0,10 -10,0 0,10 -10,0 0,10.00001 -10,0 0,10 -10,0 0,10 10,0 0,10 10,0 0,10 10,0 0,10 10,0 0,10 10,0 0,10 10,0 0,10 10,0 0,10 10,0 0,10 10,0 0,10 10,0 0,10 10,0 0,10 10,0 0,10 10,0 0,10 10,0 0,-10 10,0 0,-10 10,0 0,-10 10,0 0,-10 10,0 0,-10 10,0 0,-10 10,0 0,-10 10,0 0,-10 10,0 0,-10 10,0 0,-10 10,0 0,-10 10,0 0,-10 10,0 0,-10 10,0 0,-10 -10,0 0,-10 -10,0 0,-10.00001 -10,0 0,-10 -10,0 0,-10 -10,0 0,-10 -10,0 0,-10 -10,0 0,-10 -10,0 0,-10 -10,0 0,-10 -10,0 0,-10 -10,0 0,-10 -10,0 0,-10 -10,0 0,-10 -10,0 z m 0,30 10,0 0,10 10,0 0,10 10,0 0,10 10,0 0,10 10,0 0,10 10,0 0,10 10,0 0,10 10,0 0,10 10,0 0,10.00001 10,0 0,10 10,0 0,10 -10,0 0,10 -10,0 0,10 -10,0 0,10 -10,0 0,10 -10,0 0,10 -10,0 0,10 -10,0 0,10 -10,0 0,10 -10,0 0,10 -10,0 0,10 -10,0 0,-10 -10,0 0,-10 -10,0 0,-10 -10,0 0,-10 -10,0 0,-10 -10,0 0,-10 -10,0 0,-10 -10,0 0,-10 -10,0 0,-10 -10,0 0,-10 -10,0 0,-10 10,0 0,-10 10,0 0,-10.00001 10,0 0,-10 10,0 0,-10 10,0 0,-10 10,0 0,-10 10,0 0,-10 10,0 0,-10 10,0 0,-10 10,0 0,-10 z m 0,10 0,10 -10,0 0,10 -10,0 0,10 -10,0 0,10 -10,0 0,10 10,0 0,10 10,0 0,10 10,0 0,10.00001 10,0 0,10 10,0 0,-10 10,0 0,-10.00001 10,0 0,-10 10,0 0,-10 10,0 0,-10 -10,0 0,-10 -10,0 0,-10 -10,0 0,-10 -10,0 0,-10 -10,0 z m 50,50 0,10 -10,0 0,10 -10,0 0,10.00001 -10,0 0,10 -10,0 0,10 10,0 0,10 10,0 0,10 10,0 0,10 10,0 0,10 10,0 0,-10 10,0 0,-10 10,0 0,-10 10,0 0,-10 10,0 0,-10 -10,0 0,-10 -10,0 0,-10.00001 -10,0 0,-10 -10,0 0,-10 -10,0 z m 0,90.00001 -10,0 0,-10 -10,0 0,-10 -10,0 0,-10 -10,0 0,-10 -10,0 0,10 -10,0 0,10 -10,0 0,10 -10,0 0,10 -10,0 0,10 10,0 0,10 10,0 0,10 10,0 0,10 10,0 0,10 10,0 0,-10 10,0 0,-10 10,0 0,-10 10,0 0,-10 10,0 0,-10 z m -90,0 0,-10 10,0 0,-10 10,0 0,-10 10,0 0,-10 10,0 0,-10 -10,0 0,-10 -10,0 0,-10.00001 -10,0 0,-10 -10,0 0,-10 -10,0 0,10 -10,0 0,10 -10,0 0,10.00001 -10,0 0,10 -10,0 0,10 10,0 0,10 10,0 0,10 10,0 0,10 10,0 0,10 10,0 z m 40,-110.00001 10,0 0,10 10,0 0,10 -10,0 0,10 -10,0 0,-10 -10,0 0,-10 10,0 0,-10 z m -249.99997,50.00001 10,0 0,10 10,0 0,10 -10,0 0,10 -10,0 0,-10 -10,0 0,-10 10,0 0,-10 z m 199.99997,0 10,0 0,10 10,0 0,10 -10,0 0,10 -10,0 0,-10 -10,0 0,-10 10,0 0,-10 z m 100,0 10,0 0,10 10,0 0,10 -10,0 0,10 -10,0 0,-10 -10,0 0,-10 10,0 0,-10 z m 200,0 10,0 0,10 10,0 0,10 -10,0 0,10 -10,0 0,-10 -10,0 0,-10 10,0 0,-10 z m -250,50 10,0 0,10 10,0 0,10 -10,0 0,10 -10,0 0,-10 -10,0 0,-10 10,0 0,-10 z m 0,199.99999 10,0 0,10 10,0 0,10 -10,0 0,10 -10,0 0,-10 -10,0 0,-10 10,0 0,-10 z"
       id="path4783-1-0" />
    <path
       transform="translate(-20,-202.36139)"
       inkscape:connector-curvature="0"
       style="color:#000000;clip-rule:nonzero;display:inline;overflow:visible;visibility:visible;opacity:1;isolation:auto;mix-blend-mode:normal;color-interpolation:sRGB;color-interpolation-filters:linearRGB;solid-color:#000000;solid-opacity:1;fill:#ff2a2a;fill-opacity:1;fill-rule:evenodd;stroke:none;stroke-width:1px;stroke-linecap:butt;stroke-linejoin:miter;stroke-miterlimit:4;stroke-dasharray:none;stroke-dashoffset:0;stroke-opacity:0.28469753;color-rendering:auto;image-rendering:auto;shape-rendering:auto;text-rendering:auto;enable-background:accumulate"
       d="m 1810,1092.3622 0,-10 -10,0 0,-10 -10,0 0,-10 -10,0 0,-10 -10,0 0,-10 10,0 0,-10 10,0 0,-10 10,0 0,-10 10,0 0,-10 10,0 0,10 10,0 0,10 10,0 0,10 10,0 0,10 10,0 0,10 -10,0 0,10 -10,0 0,10 -10,0 0,10 -10,0 0,10 -10,0 z m 50,-50 0,-10 -10,0 0,-10 -10,0 0,-10 -10,0 0,-10 -10,0 0,-10.00004 -10,0 0,10.00004 -10,0 0,10 -10,0 0,10 -10,0 0,10 -10,0 0,10 -10,0 0,-10 -10,0 0,-10 -10,0 0,-10 -10,0 0,-10 -10,0 0,-10.00004 10,0 0,-10 10,0 0,-10 10,0 0,-10 10,0 0,-10 10,0 0,-10 -10,0 0,10 -10,0 0,10 -10,0 0,10 -10,0 0,10 -10,0 0,10 -10,0 0,-10 -10,0 0,-10 -10,0 0,-10 -10,0 0,-10 -10,0 0,-10 10,0 0,-10 10,0 0,-10 10,0 0,-10 10,0 0,-10 10,0 0,-9.99999 -10,0 0,9.99999 -10,0 0,10 -10,0 0,10 -10,0 0,10 -10,0 0,10 -10,0 0,-10 -10,0 0,-10 -10,0 0,-10 -10,0 0,-10 -10,0 0,-9.99999 10,0 0,-9.99999 10,0 0,-10 10,0 0,-10 10,0 0,-10 10,0 0,-10 -10,0 0,10 -10,0 0,10 -10,0 0,10 -10,0 0,10 -10,0 0,9.99999 -10,0 0,-9.99999 -10,0 0,-10 -10,0 0,-10 -10,0 0,-10 -10,0 0,-10 10,0 0,-10 10,0 0,-10 10,0 0,-10 10,0 0,-10 10,0 0,-10 -10,0 0,-10 -10,0 0,-10 -10,0 0,-10 -10,0 0,-10 -10,0 0,-10 10,0 0,-10 10,0 0,-10 10,0 0,-10 10,0 0,-10 10,0 0,10 10,0 0,10 10,0 0,10 10,0 0,10 10,0 0,10 10,0 0,-10 -10,0 0,-10 -10,0 0,-10 -10,0 0,-10 -10,0 0,-10 -10,0 0,-10 10,0 0,-10 10,0 0,-10 10,0 0,-10 10,0 0,-10 10,0 0,10 10,0 0,10 10,0 0,10 10,0 0,10 10,0 0,10 10,0 0,-10 -10,0 0,-10 -10,0 0,-10 -10,0 0,-10 -10,0 0,-10 -10,0 0,-10 10,0 0,-10 10,0 0,-10 10,0 0,-10 10,0 0,-10 10,0 0,10 10,0 0,10 10,0 0,10 10,0 0,10 10,0 0,10 10,0 0,-10 -10,0 0,-10 -10,0 0,-10 -10,0 0,-10 -10,0 0,-10 -10,0 0,-10 10,0 0,-10 10,0 0,-10 10,0 0,-10 10,0 0,-10 10,0 0,10 10,0 0,10 10,0 0,10 10,0 0,10 10,0 0,10 10,0 0,-10 10,0 0,-10 10,0 0,-10 10,0 0,-10 10,0 0,-10 10,0 0,10 10,0 0,10 10,0 0,10 10,0 0,10 10,0 0,10 -10,0 0,10 -10,0 0,10 -10,0 0,10 -10,0 0,10 -10,0 0,10 10,0 0,-10 10,0 0,-10 10,0 0,-10 10,0 0,-10 10,0 0,-10 10,0 0,10 10,0 0,10 10,0 0,10 10,0 0,10 10,0 0,10 -10,0 0,10 -10,0 0,10 -10,0 0,10 -10,0 0,10 -10,0 0,10 10,0 0,-10 10,0 0,-10 10,0 0,-10 10,0 0,-10 10,0 0,-10 10,0 0,10 10,0 0,10 10,0 0,10 10,0 0,10 10,0 0,10 -10,0 0,10 -10,0 0,10 -10,0 0,10 -10,0 0,10 -10,0 0,10 10,0 0,-10 10,0 0,-10 10,0 0,-10 10,0 0,-10 10,0 0,-10 10,0 0,10 10,0 0,10 10,0 0,10 10,0 0,10 10,0 0,10 -10,0 0,10 -10,0 0,10 -10,0 0,10 -10,0 0,10 -10,0 0,10 10,0 0,10 10,0 0,10 10,0 0,10 10,0 0,10 10,0 0,10 -10,0 0,10 -10,0 0,10 -10,0 0,10 -10,0 0,9.99999 -10,0 0,-9.99999 -10,0 0,-10 -10,0 0,-10 -10,0 0,-10 -10,0 0,-10 -10,0 0,10 10,0 0,10 10,0 0,10 10,0 0,10 10,0 0,9.99999 10,0 0,9.99999 -10,0 0,10 -10,0 0,10 -10,0 0,10 -10,0 0,10 -10,0 0,-10 -10,0 0,-10 -10,0 0,-10 -10,0 0,-10 -10,0 0,-9.99999 -10,0 0,9.99999 10,0 0,10 10,0 0,10 10,0 0,10 10,0 0,10 10,0 0,10 -10,0 0,10 -10,0 0,10 -10,0 0,10 -10,0 0,10 -10,0 0,-10 -10,0 0,-10 -10,0 0,-10 -10,0 0,-10 -10,0 0,-10 -10,0 0,10 10,0 0,10 10,0 0,10 10,0 0,10 10,0 0,10 10,0 0,10.00004 -10,0 0,10 -10,0 0,10 -10,0 0,10 -10,0 0,10 -10,0 z m 200,-200.00002 0,-10 -10,0 0,-10 -10,0 0,-10 -10,0 0,-10 -10,0 0,-10 10,0 0,-10 10,0 0,-10 10,0 0,-10 10,0 0,-10 10,0 0,10 10,0 0,10 10,0 0,10 10,0 0,10 10,0 0,10 -10,0 0,10 -10,0 0,10 -10,0 0,10 -10,0 0,10 -10,0 z m -200,-290 -10,0 0,10 -10,0 0,10 -10,0 0,10 -10,0 0,10 -10,0 0,-10 -10,0 0,-10 -10,0 0,-10 -10,0 0,-10 -10,0 0,-10 10,0 0,-10 10,0 0,-10 10,0 0,-10 10,0 0,-10 10,0 0,10 10,0 0,10 10,0 0,10 10,0 0,10 10,0 0,10 z m -290,200 0,10 10,0 0,10 10,0 0,10 10,0 0,10 10,0 0,10 -10,0 0,10 -10,0 0,10 -10,0 0,10 -10,0 0,10 -10,0 0,-10 -10,0 0,-10 -10,0 0,-10 -10,0 0,-10 -10,0 0,-10 10,0 0,-10 10,0 0,-10 10,0 0,-10 10,0 0,-10 10,0 z m 240,310.00002 10,0 0,-10 10,0 0,-10 -10,0 0,-10 -10,0 0,10 -10,0 0,10 10,0 0,10 z m -50,-50 10,0 0,-10 10,0 0,-10.00004 10,0 0,-10 10,0 0,-10 10,0 0,-10 10,0 0,10 10,0 0,10 10,0 0,10 10,0 0,10.00004 10,0 0,10 10,0 0,-10 10,0 0,-10.00004 -10,0 0,-10 -10,0 0,-10 -10,0 0,-10 -10,0 0,-10 -10,0 0,-10 10,0 0,-10 10,0 0,-10 10,0 0,-10 10,0 0,10 10,0 0,10 10,0 0,10 10,0 0,10 10,0 0,10 10,0 0,-10 10,0 0,-10 -10,0 0,-10 -10,0 0,-10 -10,0 0,-10 -10,0 0,-10 -10,0 0,-9.99999 10,0 0,-9.99999 10,0 0,-10 10,0 0,-10 10,0 0,10 10,0 0,10 10,0 0,9.99999 10,0 0,9.99999 10,0 0,10 10,0 0,-10 10,0 0,-9.99999 -10,0 0,-9.99999 -10,0 0,-10 -10,0 0,-10 -10,0 0,-10 -10,0 0,-10 10,0 0,-10 10,0 0,-10 10,0 0,-10 10,0 0,10 10,0 0,10 10,0 0,10 10,0 0,10 10,0 0,10 10,0 0,-10 10,0 0,-10 -10,0 0,-10 -10,0 0,-10 -10,0 0,-10 -10,0 0,-10 -10,0 0,-10 10,0 0,-10 10,0 0,-10 10,0 0,-10 10,0 0,-10 10,0 0,-10 -10,0 0,-10 -10,0 0,10 -10,0 0,10 -10,0 0,10 -10,0 0,10 -10,0 0,10 -10,0 0,-10 -10,0 0,-10 -10,0 0,-10 -10,0 0,-10 10,0 0,-10 10,0 0,-10 10,0 0,-10 10,0 0,-10 10,0 0,-10 -10,0 0,-10 -10,0 0,10 -10,0 0,10 -10,0 0,10 -10,0 0,10 -10,0 0,10 -10,0 0,-10 -10,0 0,-10 -10,0 0,-10 -10,0 0,-10 10,0 0,-10 10,0 0,-10 10,0 0,-10 10,0 0,-10 10,0 0,-10 -10,0 0,-10 -10,0 0,10 -10,0 0,10 -10,0 0,10 -10,0 0,10 -10,0 0,10 -10,0 0,-10 -10,0 0,-10 -10,0 0,-10 -10,0 0,-10 10,0 0,-10 10,0 0,-10 10,0 0,-10 10,0 0,-10 10,0 0,-10 -10,0 0,-10 -10,0 0,10 -10,0 0,10 -10,0 0,10 -10,0 0,10 -10,0 0,10 -10,0 0,-10 -10,0 0,-10 -10,0 0,-10 -10,0 0,-10 -10,0 0,-10 -10,0 0,10 -10,0 0,10 10,0 0,10 10,0 0,10 10,0 0,10 10,0 0,10 10,0 0,10 -10,0 0,10 -10,0 0,10 -10,0 0,10 -10,0 0,-10 -10,0 0,-10 -10,0 0,-10 -10,0 0,-10 -10,0 0,-10 -10,0 0,10 -10,0 0,10 10,0 0,10 10,0 0,10 10,0 0,10 10,0 0,10 10,0 0,10 -10,0 0,10 -10,0 0,10 -10,0 0,10 -10,0 0,-10 -10,0 0,-10 -10,0 0,-10 -10,0 0,-10 -10,0 0,-10 -10,0 0,10 -10,0 0,10 10,0 0,10 10,0 0,10 10,0 0,10 10,0 0,10 10,0 0,10 -10,0 0,10 -10,0 0,10 -10,0 0,10 -10,0 0,-10 -10,0 0,-10 -10,0 0,-10 -10,0 0,-10 -10,0 0,-10 -10,0 0,10 -10,0 0,10 10,0 0,10 10,0 0,10 10,0 0,10 10,0 0,10 10,0 0,10 -10,0 0,10 -10,0 0,10 -10,0 0,10 -10,0 0,10 -10,0 0,10 10,0 0,10 10,0 0,-10 10,0 0,-10 10,0 0,-10 10,0 0,-10 10,0 0,-10 10,0 0,10 10,0 0,10 10,0 0,10 10,0 0,10 -10,0 0,10 -10,0 0,10 -10,0 0,10 -10,0 0,9.99999 -10,0 0,9.99999 10,0 0,10 10,0 0,-10 10,0 0,-9.99999 10,0 0,-9.99999 10,0 0,-10 10,0 0,-10 10,0 0,10 10,0 0,10 10,0 0,9.99999 10,0 0,9.99999 -10,0 0,10 -10,0 0,10 -10,0 0,10 -10,0 0,10 -10,0 0,10 10,0 0,10 10,0 0,-10 10,0 0,-10 10,0 0,-10 10,0 0,-10 10,0 0,-10 10,0 0,10 10,0 0,10 10,0 0,10 10,0 0,10 -10,0 0,10 -10,0 0,10 -10,0 0,10 -10,0 0,10 -10,0 0,10.00004 10,0 0,10 z m 50,-80.00004 0,-10 -10,0 0,-10 -10,0 0,-10 -10,0 0,-9.99999 -10,0 0,-9.99999 -10,0 0,-10 -10,0 0,-10 -10,0 0,-10 -10,0 0,-10 -10,0 0,-10 -10,0 0,-10 -10,0 0,-10 -10,0 0,-10 -10,0 0,-10 10,0 0,-10 10,0 0,-10 10,0 0,-10 10,0 0,-10 10,0 0,-10 10,0 0,-10 10,0 0,-10 10,0 0,-10 10,0 0,-10 10,0 0,-10 10,0 0,-10 10,0 0,-10 10,0 0,-10 10,0 0,10 10,0 0,10 10,0 0,10 10,0 0,10 10,0 0,10 10,0 0,10 10,0 0,10 10,0 0,10 10,0 0,10 10,0 0,10 10,0 0,10 10,0 0,10 10,0 0,10 10,0 0,10 -10,0 0,10 -10,0 0,10 -10,0 0,10 -10,0 0,10 -10,0 0,10 -10,0 0,10 -10,0 0,10 -10,0 0,10 -10,0 0,9.99999 -10,0 0,9.99999 -10,0 0,10 -10,0 0,10 -10,0 0,10 -10,0 z m 0,-30 10,0 0,-9.99999 10,0 0,-9.99999 10,0 0,-10 10,0 0,-10 10,0 0,-10 10,0 0,-10 10,0 0,-10 10,0 0,-10 10,0 0,-10 10,0 0,-10 10,0 0,-10 -10,0 0,-10 -10,0 0,-10 -10,0 0,-10 -10,0 0,-10 -10,0 0,-10 -10,0 0,-10 -10,0 0,-10 -10,0 0,-10 -10,0 0,-10 -10,0 0,-10 -10,0 0,10 -10,0 0,10 -10,0 0,10 -10,0 0,10 -10,0 0,10 -10,0 0,10 -10,0 0,10 -10,0 0,10 -10,0 0,10 -10,0 0,10 -10,0 0,10 10,0 0,10 10,0 0,10 10,0 0,10 10,0 0,10 10,0 0,10 10,0 0,10 10,0 0,10 10,0 0,10 10,0 0,9.99999 10,0 0,9.99999 z m 0,-9.99999 0,-9.99999 -10,0 0,-10 -10,0 0,-10 -10,0 0,-10 -10,0 0,-10 10,0 0,-10 10,0 0,-10 10,0 0,-10 10,0 0,-10 10,0 0,10 10,0 0,10 10,0 0,10 10,0 0,10 10,0 0,10 -10,0 0,10 -10,0 0,10 -10,0 0,10 -10,0 0,9.99999 -10,0 z m 50,-49.99999 0,-10 -10,0 0,-10 -10,0 0,-10 -10,0 0,-10 -10,0 0,-10 10,0 0,-10 10,0 0,-10 10,0 0,-10 10,0 0,-10 10,0 0,10 10,0 0,10 10,0 0,10 10,0 0,10 10,0 0,10 -10,0 0,10 -10,0 0,10 -10,0 0,10 -10,0 0,10 -10,0 z m 0,-90 -10,0 0,10 -10,0 0,10 -10,0 0,10 -10,0 0,10 -10,0 0,-10 -10,0 0,-10 -10,0 0,-10 -10,0 0,-10 -10,0 0,-10 10,0 0,-10 10,0 0,-10 10,0 0,-10 10,0 0,-10 10,0 0,10 10,0 0,10 10,0 0,10 10,0 0,10 10,0 0,10 z m -90,0 0,10 10,0 0,10 10,0 0,10 10,0 0,10 10,0 0,10 -10,0 0,10 -10,0 0,10 -10,0 0,10 -10,0 0,10 -10,0 0,-10 -10,0 0,-10 -10,0 0,-10 -10,0 0,-10 -10,0 0,-10 10,0 0,-10 10,0 0,-10 10,0 0,-10 10,0 0,-10 10,0 z m 40,110 10,0 0,-10 10,0 0,-10 -10,0 0,-10 -10,0 0,10 -10,0 0,10 10,0 0,10 z m -250,-50 10,0 0,-10 10,0 0,-10 -10,0 0,-10 -10,0 0,10 -10,0 0,10 10,0 0,10 z m 200,0 10,0 0,-10 10,0 0,-10 -10,0 0,-10 -10,0 0,10 -10,0 0,10 10,0 0,10 z m 100,0 10,0 0,-10 10,0 0,-10 -10,0 0,-10 -10,0 0,10 -10,0 0,10 10,0 0,10 z m 200,0 10,0 0,-10 10,0 0,-10 -10,0 0,-10 -10,0 0,10 -10,0 0,10 10,0 0,10 z m -250,-50 10,0 0,-10 10,0 0,-10 -10,0 0,-10 -10,0 0,10 -10,0 0,10 10,0 0,10 z m 0,-200 10,0 0,-10 10,0 0,-10 -10,0 0,-10 -10,0 0,10 -10,0 0,10 10,0 0,10 z"
       id="path4789-7" />
    <path
       transform="translate(-20,-202.36139)"
       id="path4875"
       d="m 1820,502.36222 0,-10 -10,0 0,-10 -10,0 0,-10 -10,0 0,-10 -10,0 0,-10 10,0 0,-10 10,0 0,-10 10,0 0,-10 10,0 0,-10 10,0 0,10 10,0 0,10 10,0 0,10 10,0 0,10 10,0 0,10 -10,0 0,10 -10,0 0,10 -10,0 0,10 -10,0 0,10 -10,0 z m 50,-50 0,-10 -10,0 0,-10 -10,0 0,-10 -10,0 0,-10 -10,0 0,-10.00004 -10,0 0,10.00004 -10,0 0,10 -10,0 0,10 -10,0 0,10 -10,0 0,10 -10,0 0,-10 -10,0 0,-10 -10,0 0,-10 -10,0 0,-10 -10,0 0,-10.00004 10,0 0,-10 10,0 0,-10 10,0 0,-10 10,0 0,-10 10,0 0,-10 -10,0 0,10 -10,0 0,10 -10,0 0,10 -10,0 0,10 -10,0 0,10 -10,0 0,-10 -10,0 0,-10 -10,0 0,-10 -10,0 0,-10 -10,0 0,-10 10,0 0,-10 10,0 0,-10 10,0 0,-10 10,0 0,-10 10,0 0,-9.99999 -10,0 0,9.99999 -10,0 0,10 -10,0 0,10 -10,0 0,10 -10,0 0,10 -10,0 0,-10 -10,0 0,-10 -10,0 0,-10 -10,0 0,-10 -10,0 0,-9.99999 10,0 0,-9.99999 10,0 0,-10 10,0 0,-10 10,0 0,-10 10,0 0,-10 -10,0 0,10 -10,0 0,10 -10,0 0,10 -10,0 0,10 -10,0 0,9.99999 -10,0 0,-9.99999 -10,0 0,-10 -10,0 0,-10 -10,0 0,-10 -10,0 0,-10 10,0 0,-10 10,0 0,-10 10,0 0,-10 10,0 0,-10 10,0 0,-10 -10,0 0,-10 -10,0 0,-10 -10,0 0,-10 -10,0 0,-10 -10,0 0,-10 10,0 0,-10 10,0 0,-10 10,0 0,-10 10,0 0,-10 10,0 0,10 10,0 0,10 10,0 0,10 10,0 0,10 10,0 0,10 10,0 0,-10 -10,0 0,-10 -10,0 0,-10 -10,0 0,-10 -10,0 0,-10 -10,0 0,-10 10,0 0,-10 10,0 0,-10 10,0 0,-10 10,0 0,-10 10,0 0,10 10,0 0,10 10,0 0,10 10,0 0,10 10,0 0,10 10,0 0,-10 -10,0 0,-10 -10,0 0,-10 -10,0 0,-10 -10,0 0,-10 -10,0 0,-10 10,0 0,-10 10,0 0,-10 10,0 0,-10 10,0 0,-10 10,0 0,10 10,0 0,10 10,0 0,10 10,0 0,10 10,0 0,10 10,0 0,-10 -10,0 0,-10 -10,0 0,-10 -10,0 0,-10 -10,0 0,-10 -10,0 0,-10 10,0 0,-10 10,0 0,-10 10,0 0,-10 10,0 0,-10 10,0 0,10 10,0 0,10 10,0 0,10 10,0 0,10 10,0 0,10 10,0 0,-10 10,0 0,-10 10,0 0,-10 10,0 0,-10 10,0 0,-10 10,0 0,10 10,0 0,10 10,0 0,10 10,0 0,10 10,0 0,10 -10,0 0,10 -10,0 0,10 -10,0 0,10 -10,0 0,10 -10,0 0,10 10,0 0,-10 10,0 0,-10 10,0 0,-10 10,0 0,-10 10,0 0,-10 10,0 0,10 10,0 0,10 10,0 0,10 10,0 0,10 10,0 0,10 -10,0 0,10 -10,0 0,10 -10,0 0,10 -10,0 0,10 -10,0 0,10 10,0 0,-10 10,0 0,-10 10,0 0,-10 10,0 0,-10 10,0 0,-10 10,0 0,10 10,0 0,10 10,0 0,10 10,0 0,10 10,0 0,10 -10,0 0,10 -10,0 0,10 -10,0 0,10 -10,0 0,10 -10,0 0,10 10,0 0,-10 10,0 0,-10 10,0 0,-10 10,0 0,-10 10,0 0,-10 10,0 0,10 10,0 0,10 10,0 0,10 10,0 0,10 10,0 0,10 -10,0 0,10 -10,0 0,10 -10,0 0,10 -10,0 0,10 -10,0 0,10 10,0 0,10 10,0 0,10 10,0 0,10 10,0 0,10 10,0 0,10 -10,0 0,10 -10,0 0,10 -10,0 0,10 -10,0 0,9.99999 -10,0 0,-9.99999 -10,0 0,-10 -10,0 0,-10 -10,0 0,-10 -10,0 0,-10 -10,0 0,10 10,0 0,10 10,0 0,10 10,0 0,10 10,0 0,9.99999 10,0 0,9.99999 -10,0 0,10 -10,0 0,10 -10,0 0,10 -10,0 0,10 -10,0 0,-10 -10,0 0,-10 -10,0 0,-10 -10,0 0,-10 -10,0 0,-9.99999 -10,0 0,9.99999 10,0 0,10 10,0 0,10 10,0 0,10 10,0 0,10 10,0 0,10 -10,0 0,10 -10,0 0,10 -10,0 0,10 -10,0 0,10 -10,0 0,-10 -10,0 0,-10 -10,0 0,-10 -10,0 0,-10 -10,0 0,-10 -10,0 0,10 10,0 0,10 10,0 0,10 10,0 0,10 10,0 0,10 10,0 0,10.00004 -10,0 0,10 -10,0 0,10 -10,0 0,10 -10,0 0,10 -10,0 z m 200,-200.00002 0,-10 -10,0 0,-10 -10,0 0,-10 -10,0 0,-10 -10,0 0,-10 10,0 0,-10 10,0 0,-10 10,0 0,-10 10,0 0,-10 10,0 0,10 10,0 0,10 10,0 0,10 10,0 0,10 10,0 0,10 -10,0 0,10 -10,0 0,10 -10,0 0,10 -10,0 0,10 -10,0 z m -200,-290 -10,0 0,10 -10,0 0,10 -10,0 0,10 -10,0 0,10 -10,0 0,-10 -10,0 0,-10 -10,0 0,-10 -10,0 0,-10 -10,0 0,-10 10,0 0,-10 10,0 0,-10 10,0 0,-10 10,0 0,-10 10,0 0,10 10,0 0,10 10,0 0,10 10,0 0,10 10,0 0,10 z m -290,200 0,10 10,0 0,10 10,0 0,10 10,0 0,10 10,0 0,10 -10,0 0,10 -10,0 0,10 -10,0 0,10 -10,0 0,10 -10,0 0,-10 -10,0 0,-10 -10,0 0,-10 -10,0 0,-10 -10,0 0,-10 10,0 0,-10 10,0 0,-10 10,0 0,-10 10,0 0,-10 10,0 z m 240,310.00002 10,0 0,-10 10,0 0,-10 -10,0 0,-10 -10,0 0,10 -10,0 0,10 10,0 0,10 z m -50,-50 10,0 0,-10 10,0 0,-10.00004 10,0 0,-10 10,0 0,-10 10,0 0,-10 10,0 0,10 10,0 0,10 10,0 0,10 10,0 0,10.00004 10,0 0,10 10,0 0,-10 10,0 0,-10.00004 -10,0 0,-10 -10,0 0,-10 -10,0 0,-10 -10,0 0,-10 -10,0 0,-10 10,0 0,-10 10,0 0,-10 10,0 0,-10 10,0 0,10 10,0 0,10 10,0 0,10 10,0 0,10 10,0 0,10 10,0 0,-10 10,0 0,-10 -10,0 0,-10 -10,0 0,-10 -10,0 0,-10 -10,0 0,-10 -10,0 0,-9.99999 10,0 0,-9.99999 10,0 0,-10 10,0 0,-10 10,0 0,10 10,0 0,10 10,0 0,9.99999 10,0 0,9.99999 10,0 0,10 10,0 0,-10 10,0 0,-9.99999 -10,0 0,-9.99999 -10,0 0,-10 -10,0 0,-10 -10,0 0,-10 -10,0 0,-10 10,0 0,-10 10,0 0,-10 10,0 0,-10 10,0 0,10 10,0 0,10 10,0 0,10 10,0 0,10 10,0 0,10 10,0 0,-10 10,0 0,-10 -10,0 0,-10 -10,0 0,-10 -10,0 0,-10 -10,0 0,-10 -10,0 0,-10 10,0 0,-10 10,0 0,-10 10,0 0,-10 10,0 0,-10 10,0 0,-10 -10,0 0,-10 -10,0 0,10 -10,0 0,10 -10,0 0,10 -10,0 0,10 -10,0 0,10 -10,0 0,-10 -10,0 0,-10 -10,0 0,-10 -10,0 0,-10 10,0 0,-10 10,0 0,-10 10,0 0,-10 10,0 0,-10 10,0 0,-10 -10,0 0,-10 -10,0 0,10 -10,0 0,10 -10,0 0,10 -10,0 0,10 -10,0 0,10 -10,0 0,-10 -10,0 0,-10 -10,0 0,-10 -10,0 0,-10 10,0 0,-10 10,0 0,-10 10,0 0,-10 10,0 0,-10 10,0 0,-10 -10,0 0,-10 -10,0 0,10 -10,0 0,10 -10,0 0,10 -10,0 0,10 -10,0 0,10 -10,0 0,-10 -10,0 0,-10 -10,0 0,-10 -10,0 0,-10 10,0 0,-10 10,0 0,-10 10,0 0,-10 10,0 0,-10 10,0 0,-10 -10,0 0,-10 -10,0 0,10 -10,0 0,10 -10,0 0,10 -10,0 0,10 -10,0 0,10 -10,0 0,-10 -10,0 0,-10 -10,0 0,-10 -10,0 0,-10 -10,0 0,-10 -10,0 0,10 -10,0 0,10 10,0 0,10 10,0 0,10 10,0 0,10 10,0 0,10 10,0 0,10 -10,0 0,10 -10,0 0,10 -10,0 0,10 -10,0 0,-10 -10,0 0,-10 -10,0 0,-10 -10,0 0,-10 -10,0 0,-10 -10,0 0,10 -10,0 0,10 10,0 0,10 10,0 0,10 10,0 0,10 10,0 0,10 10,0 0,10 -10,0 0,10 -10,0 0,10 -10,0 0,10 -10,0 0,-10 -10,0 0,-10 -10,0 0,-10 -10,0 0,-10 -10,0 0,-10 -10,0 0,10 -10,0 0,10 10,0 0,10 10,0 0,10 10,0 0,10 10,0 0,10 10,0 0,10 -10,0 0,10 -10,0 0,10 -10,0 0,10 -10,0 0,-10 -10,0 0,-10 -10,0 0,-10 -10,0 0,-10 -10,0 0,-10 -10,0 0,10 -10,0 0,10 10,0 0,10 10,0 0,10 10,0 0,10 10,0 0,10 10,0 0,10 -10,0 0,10 -10,0 0,10 -10,0 0,10 -10,0 0,10 -10,0 0,10 10,0 0,10 10,0 0,-10 10,0 0,-10 10,0 0,-10 10,0 0,-10 10,0 0,-10 10,0 0,10 10,0 0,10 10,0 0,10 10,0 0,10 -10,0 0,10 -10,0 0,10 -10,0 0,10 -10,0 0,9.99999 -10,0 0,9.99999 10,0 0,10 10,0 0,-10 10,0 0,-9.99999 10,0 0,-9.99999 10,0 0,-10 10,0 0,-10 10,0 0,10 10,0 0,10 10,0 0,9.99999 10,0 0,9.99999 -10,0 0,10 -10,0 0,10 -10,0 0,10 -10,0 0,10 -10,0 0,10 10,0 0,10 10,0 0,-10 10,0 0,-10 10,0 0,-10 10,0 0,-10 10,0 0,-10 10,0 0,10 10,0 0,10 10,0 0,10 10,0 0,10 -10,0 0,10 -10,0 0,10 -10,0 0,10 -10,0 0,10 -10,0 0,10.00004 10,0 0,10 z m 50,-80.00004 0,-10 -10,0 0,-10 -10,0 0,-10 -10,0 0,-9.99999 -10,0 0,-9.99999 -10,0 0,-10 -10,0 0,-10 -10,0 0,-10 -10,0 0,-10 -10,0 0,-10 -10,0 0,-10 -10,0 0,-10 -10,0 0,-10 -10,0 0,-10 10,0 0,-10 10,0 0,-10 10,0 0,-10 10,0 0,-10 10,0 0,-10 10,0 0,-10 10,0 0,-10 10,0 0,-10 10,0 0,-10 10,0 0,-10 10,0 0,-10 10,0 0,-10 10,0 0,-10 10,0 0,10 10,0 0,10 10,0 0,10 10,0 0,10 10,0 0,10 10,0 0,10 10,0 0,10 10,0 0,10 10,0 0,10 10,0 0,10 10,0 0,10 10,0 0,10 10,0 0,10 10,0 0,10 -10,0 0,10 -10,0 0,10 -10,0 0,10 -10,0 0,10 -10,0 0,10 -10,0 0,10 -10,0 0,10 -10,0 0,10 -10,0 0,9.99999 -10,0 0,9.99999 -10,0 0,10 -10,0 0,10 -10,0 0,10 -10,0 z m 0,-30 10,0 0,-9.99999 10,0 0,-9.99999 10,0 0,-10 10,0 0,-10 10,0 0,-10 10,0 0,-10 10,0 0,-10 10,0 0,-10 10,0 0,-10 10,0 0,-10 10,0 0,-10 -10,0 0,-10 -10,0 0,-10 -10,0 0,-10 -10,0 0,-10 -10,0 0,-10 -10,0 0,-10 -10,0 0,-10 -10,0 0,-10 -10,0 0,-10 -10,0 0,-10 -10,0 0,10 -10,0 0,10 -10,0 0,10 -10,0 0,10 -10,0 0,10 -10,0 0,10 -10,0 0,10 -10,0 0,10 -10,0 0,10 -10,0 0,10 -10,0 0,10 10,0 0,10 10,0 0,10 10,0 0,10 10,0 0,10 10,0 0,10 10,0 0,10 10,0 0,10 10,0 0,10 10,0 0,9.99999 10,0 0,9.99999 z m 0,-9.99999 0,-9.99999 -10,0 0,-10 -10,0 0,-10 -10,0 0,-10 -10,0 0,-10 10,0 0,-10 10,0 0,-10 10,0 0,-10 10,0 0,-10 10,0 0,10 10,0 0,10 10,0 0,10 10,0 0,10 10,0 0,10 -10,0 0,10 -10,0 0,10 -10,0 0,10 -10,0 0,9.99999 -10,0 z m 50,-49.99999 0,-10 -10,0 0,-10 -10,0 0,-10 -10,0 0,-10 -10,0 0,-10 10,0 0,-10 10,0 0,-10 10,0 0,-10 10,0 0,-10 10,0 0,10 10,0 0,10 10,0 0,10 10,0 0,10 10,0 0,10 -10,0 0,10 -10,0 0,10 -10,0 0,10 -10,0 0,10 -10,0 z m 0,-90 -10,0 0,10 -10,0 0,10 -10,0 0,10 -10,0 0,10 -10,0 0,-10 -10,0 0,-10 -10,0 0,-10 -10,0 0,-10 -10,0 0,-10 10,0 0,-10 10,0 0,-10 10,0 0,-10 10,0 0,-10 10,0 0,10 10,0 0,10 10,0 0,10 10,0 0,10 10,0 0,10 z m -90,0 0,10 10,0 0,10 10,0 0,10 10,0 0,10 10,0 0,10 -10,0 0,10 -10,0 0,10 -10,0 0,10 -10,0 0,10 -10,0 0,-10 -10,0 0,-10 -10,0 0,-10 -10,0 0,-10 -10,0 0,-10 10,0 0,-10 10,0 0,-10 10,0 0,-10 10,0 0,-10 10,0 z m 40,110 10,0 0,-10 10,0 0,-10 -10,0 0,-10 -10,0 0,10 -10,0 0,10 10,0 0,10 z m -250,-50 10,0 0,-10 10,0 0,-10 -10,0 0,-10 -10,0 0,10 -10,0 0,10 10,0 0,10 z m 200,0 10,0 0,-10 10,0 0,-10 -10,0 0,-10 -10,0 0,10 -10,0 0,10 10,0 0,10 z m 100,0 10,0 0,-10 10,0 0,-10 -10,0 0,-10 -10,0 0,10 -10,0 0,10 10,0 0,10 z m 200,0 10,0 0,-10 10,0 0,-10 -10,0 0,-10 -10,0 0,10 -10,0 0,10 10,0 0,10 z m -250,-50 10,0 0,-10 10,0 0,-10 -10,0 0,-10 -10,0 0,10 -10,0 0,10 10,0 0,10 z m 0,-200 10,0 0,-10 10,0 0,-10 -10,0 0,-10 -10,0 0,10 -10,0 0,10 10,0 0,10 z"
       style="color:#000000;clip-rule:nonzero;display:inline;overflow:visible;visibility:visible;opacity:1;isolation:auto;mix-blend-mode:normal;color-interpolation:sRGB;color-interpolation-filters:linearRGB;solid-color:#000000;solid-opacity:1;fill:#ff2a2a;fill-opacity:1;fill-rule:evenodd;stroke:none;stroke-width:1px;stroke-linecap:butt;stroke-linejoin:miter;stroke-miterlimit:4;stroke-dasharray:none;stroke-dashoffset:0;stroke-opacity:0.28469753;color-rendering:auto;image-rendering:auto;shape-rendering:auto;text-rendering:auto;enable-background:accumulate"
       inkscape:connector-curvature="0" />
  </g>
</svg>
