<?xml version="1.0" encoding="UTF-8" standalone="no"?>
<svg
   xmlns:dc="http://purl.org/dc/elements/1.1/"
   xmlns:cc="http://creativecommons.org/ns#"
   xmlns:rdf="http://www.w3.org/1999/02/22-rdf-syntax-ns#"
   xmlns:svg="http://www.w3.org/2000/svg"
   xmlns="http://www.w3.org/2000/svg"
   version="1.1"
   id="svg2"
   viewBox="0 0 885.71281 799.99998"
   height="225.77777mm"
   width="249.96782mm">
  <defs
     id="defs4" />
  <metadata
     id="metadata7">
    <rdf:RDF>
      <cc:Work
         rdf:about="">
        <dc:format>image/svg+xml</dc:format>
        <dc:type
           rdf:resource="http://purl.org/dc/dcmitype/StillImage" />
        <dc:title></dc:title>
      </cc:Work>
    </rdf:RDF>
  </metadata>
  <g
     transform="translate(-459,223.49443)"
     id="layer2">
    <g
       transform="matrix(2.3809484,0,0,2.3809484,-633.85532,-796.12461)"
       id="g4835">
      <rect
         style="color:#000000;clip-rule:nonzero;display:inline;overflow:visible;visibility:visible;opacity:1;isolation:auto;mix-blend-mode:normal;color-interpolation:sRGB;color-interpolation-filters:linearRGB;solid-color:#000000;solid-opacity:1;fill:#ffffff;fill-opacity:1;fill-rule:evenodd;stroke:none;stroke-width:0.99999988px;stroke-linecap:butt;stroke-linejoin:miter;stroke-miterlimit:4;stroke-dasharray:none;stroke-dashoffset:0;stroke-opacity:1;color-rendering:auto;image-rendering:auto;shape-rendering:auto;text-rendering:auto;enable-background:accumulate"
         id="rect4833"
         width="371.99997"
         height="335.99835"
         x="459"
         y="240.50706" />
      <path
         style="color:#000000;clip-rule:nonzero;display:inline;overflow:visible;visibility:visible;opacity:1;isolation:auto;mix-blend-mode:normal;color-interpolation:sRGB;color-interpolation-filters:linearRGB;solid-color:#000000;solid-opacity:1;fill:#ff2a2a;fill-opacity:1;fill-rule:evenodd;stroke:none;stroke-width:1px;stroke-linecap:butt;stroke-linejoin:miter;stroke-miterlimit:4;stroke-dasharray:none;stroke-dashoffset:0;stroke-opacity:1;color-rendering:auto;image-rendering:auto;shape-rendering:auto;text-rendering:auto;enable-background:accumulate"
         d="m 468,408.50537 0,0.002 -3,0 0,3 3,0 0,3 3,0 0,3 3,0 0,3 3,0 0,3 3,0 0,3 3,0 0,3 3,0 0,3 3,0 0,3 3,0 0,3 3,0 0,3 3,0 0,3 3,0 0,3 3,0 0,2.99805 3,0 0,-3 -3,0 0,-2.99805 3,0 0,2.99805 3,0 0,-3 -3,0 0,-2.99805 3,0 0,2.99805 3,0 0,-3 -3,0 0,-2.99805 3,0 0,2.99805 3,0 0,-3 -3,0 0,-2.99805 3,0 0,2.99805 3,0 0,-3 -3,0 0,-2.99805 3,0 0,2.99805 3,0 3,0 3,0 0,-9 -3,0 0,-2.99805 3,0 0,2.99805 3,0 0,-3 -3,0 0,-2.99805 3,0 0,2.99805 3,0 0,-3 -3,0 0,-2.99805 3,0 0,2.99805 3,0 0,-3 -3,0 0,-2.99805 3,0 0,2.99805 3,0 0,-3 -3,0 0,-2.99805 3,0 0,2.99805 3,0 0,-3 -3,0 0,-2.99805 -3,0 0,-0.002 -6,0 0,0.002 3,0 0,3 -3,0 0,3 -3,0 0,3 -3,0 0,-3 -3,0 0,-3 -3,0 0,-3 3,0 0,-0.002 -6,0 0,0.002 -9,0 0,3 9,0 0,3 3,0 0,3 3,0 0,3 -3,0 -3,0 -3,0 0,9 -3,0 0,-3 -3,0 0,-3 -3,0 0,-9 -3,0 0,9 -3,0 0,3 -3,0 0,3 -3,0 0,-3 0,-3 0,-3 -9,0 0,-3 3,0 0,-3 3,0 0,-3 9,0 0,-3 -9,0 0,-0.002 -6,0 0,0.002 3,0 0,3 -3,0 0,3 -3,0 0,3 -3,0 0,-3 -3,0 0,-3 -3,0 0,-3 3,0 0,-0.002 -6,0 z m 30,0.002 3,0 0,-0.002 -3,0 0,0.002 z m 3,0 0,3 3,0 0,-3 -3,0 z m 3,0 3,0 0,-0.002 -3,0 0,0.002 z m 0,3 0,3 3,0 0,-3 -3,0 z m 3,3 0,3 3,0 0,-3 -3,0 z m 3,3 0,3 3,0 0,-3 -3,0 z m -9,-6 -3,0 0,3 3,0 0,-3 z m -3,3 -3,0 0,3 3,0 0,-3 z m -3,3 -3,0 0,3 3,0 0,-3 z m 48,-6.00195 3,0 0,-3 -3,0 0,3 z m -12,15 0,12 3,0 0,3 3,0 0,3 3,0 0,3 3,0 0,-12 -3,0 0,-3 -3,0 0,-3 -3,0 0,-3 -3,0 z m 12,21 0,3 3,0 0,-3 -3,0 z m 0,3 -3,0 0,3 3,0 0,-3 z m 0,3 0,3 3,0 0,-3 -3,0 z m -3,-3 0,-3 -3,0 0,-3 -3,0 0,-3 -3,0 0,-3 -12,0 0,3 3,0 0,3 3,0 0,3 3,0 0,3 12,0 z m -36,0 -3,0 0,-2.99805 -3,0 0,3 3,0 0,3 3,0 0,2.99805 3,0 0,-3 -3,0 0,-2.99805 0,-0.002 z m 3,6 0,3 3,0 0,-3 -3,0 z m 3,3 0,3 3,0 0,-3 -3,0 z m 3,3 0,3 3,0 0,-3 -3,0 z m 3,3 0,3 3,0 0,-2.99805 12,0 0,-3 3,0 0,-3 3,0 0,-3 3,0 0,-3 -12,0 0,3 -3,0 0,3 -3,0 0,3 -3,0 0,2.99805 -3,0 z m 24,-8.99805 0,3 -3,0 0,3 -3,0 0,3 -3,0 0,11.99805 -3,0 0,3 3,0 0,-2.99805 3,0 0,-3 3,0 0,-3 3,0 0,-3 3,0 0,-12 -3,0 z m -9,23.99805 0,3 3,0 0,-3 -3,0 z m 3,3 0,3 3,0 0,-3 -3,0 z m 3,3 0,3 3,0 0,-3 -3,0 z m 3,3 0,3 3,0 0,-3 -3,0 z m 3,3 0,0.002 0,2.99805 0,0.002 3,0 0,-0.002 0,-2.99805 0,-0.002 -3,0 z m 0,3.00195 -3,0 0,3 3,0 0,-3 z m -3,3 -3,0 0,3 3,0 0,-3 z m -3,3 -3,0 0,3 3,0 0,-3 z m -3,3 -3,0 0,3 3,0 0,-3 z m -3,3 -3,0 0,3 3,0 0,-3 z m 0,3 0,12 3,0 0,3 3,0 0,3 3,0 0,3 3,0 0,-12 -3,0 0,-3 -3,0 0,-3 -3,0 0,-3 -3,0 z m 12,21 0,3 3,0 0,-3 -3,0 z m 0,3 -3,0 0,3 3,0 0,-3 z m 0,3 0,3 3,0 0,-3 -3,0 z m -3,-3 0,-3 -3,0 0,-3 -3,0 0,-3 -3,0 0,-3 -12,0 0,3 3,0 0,3 3,0 0,3 3,0 0,3 12,0 z m -21,-12 0,-3 -3,0 0,3 3,0 z m -3,0 -3,0 0,3 3,0 0,-3 z m -3,3 -3,0 0,3 3,0 0,-3 z m -3,3 -3,0 0,3 3,0 0,-3 z m -3,3 -3,0 0,3 3,0 0,-3 z m -3,3 -3,0 0,-2.99805 -3,0 0,3 3,0 0,3 3,0 0,2.99805 3,0 0,-3 -3,0 0,-2.99805 0,-0.002 z m 3,6 0,3 3,0 0,-3 -3,0 z m 3,3 0,3 3,0 0,-3 -3,0 z m 3,3 0,3 3,0 0,-3 -3,0 z m 3,3 0,3 3,0 0,-2.99805 12,0 0,-3 3,0 0,-3 3,0 0,-3 3,0 0,-3 -12,0 0,3 -3,0 0,3 -3,0 0,3 -3,0 0,2.99805 -3,0 z m 24,-8.99805 0,3 -3,0 0,3 -3,0 0,3 -3,0 0,11.99805 -3,0 0,3 3,0 0,-2.99805 3,0 0,-3 3,0 0,-3 3,0 0,-3 3,0 0,-12 -3,0 z m -9,23.99805 0,3 3,0 0,-3 -3,0 z m 3,3 0,3 3,0 0,-3 -3,0 z m 3,3 0,3 3,0 0,-3 -3,0 z m 3,3 0,2.99805 3,0 0,-2.99805 -3,0 z m -3,0 -3,0 0,-3 -3,0 0,-3 -3,0 0,-3 -3,0 0,-3 -3,0 0,-3 -3,0 0,-3 -3,0 0,-3 -3,0 0,-3 -3,0 0,-3 -3,0 0,-3 -3,0 0,-3 -3,0 0,-2.99805 -3,0 0,3 3,0 0,2.99805 -3,0 0,-2.99805 -3,0 0,3 3,0 0,2.99805 -3,0 0,-2.99805 -3,0 0,3 3,0 0,2.99805 -3,0 0,-2.99805 -3,0 0,3 3,0 0,2.99805 -3,0 0,-2.99805 -3,0 0,3 3,0 0,2.99805 -3,0 0,-2.99805 -9,0 0,3 0,3 0,3 3,0 0,2.99805 -3,0 0,-2.99805 -3,0 0,3 3,0 0,2.99805 -3,0 0,-2.99805 -3,0 0,3 3,0 0,2.99805 -3,0 0,-2.99805 -3,0 0,3 3,0 0,2.99805 -3,0 0,-2.99805 -3,0 0,3 3,0 0,2.9961 6,0 0,-2.99805 3,0 0,-3 3,0 0,3 3,0 0,2.99805 6,0 0,-2.99805 -3,0 0,-3 -3,0 0,-3 3,0 3,0 3,0 0,-9 3,0 0,3 3,0 0,3 3,0 0,9 3,0 0,-9 3,0 0,-3 3,0 0,-3 3,0 0,3 0,3 0,3 9,0 0,3 -3,0 0,3 -3,0 0,2.99805 6,0 0,-2.99805 3,0 0,-3 3,0 0,3 3,0 0,2.99805 6,0 0,-2.99805 z m -24,-6 -3,0 0,3 3,0 0,-3 z m -3,3 -3,0 0,3 3,0 0,-3 z m -3,3 -3,0 0,2.99805 3,0 0,-2.99805 z m -6,0 -3,0 0,2.99805 3,0 0,-2.99805 z m -3,0 0,-3 -3,0 0,3 3,0 z m -3,-3 0,-3 -3,0 0,3 3,0 z m -30,3.00195 -3,0 0,2.9961 3,0 0,-2.9961 z m 9,-12 0,-12 -3,0 0,-3 -3,0 0,-3 -3,0 0,-3 -3,0 0,12 3,0 0,3 3,0 0,3 3,0 0,3 3,0 z m -9,-21 3,0 0,3 3,0 0,3 3,0 0,3 12,0 0,-3 -3,0 0,-3 -3,0 0,-3 -3,0 0,-3 -12,0 0,3 z m 54,14.99805 3,0 0,3 3,0 0,3 3,0 0,-3 0,-3 0,-3 -9,0 0,3 z m -21,-23.99805 0,-3 -3,0 0,3 3,0 z m -3,-3 0,-3 -3,0 0,3 3,0 z m -3,-3 0,-3 -3,0 0,3 3,0 z m -3,-3 0,-3 -3,0 0,2.99805 -12,0 0,3 -3,0 0,3 -3,0 0,3 -3,0 0,3 12,0 0,-3 3,0 0,-3 3,0 0,-3 3,0 0,-2.99805 3,0 z m -24,11.99805 -3,0 0,3 3,0 0,-3 z m -3,3 -3,0 0,3 3,0 0,-3 z m 0,-3 0,-3 -3,0 0,3 3,0 z m 0,-3 3,0 0,-3 3,0 0,-3 3,0 0,-3 3,0 0,-11.99805 3,0 0,-3 -3,0 0,2.99805 -3,0 0,3 -3,0 0,3 -3,0 0,3 -3,0 0,12 z m 12,-23.99805 0,-3 -3,0 0,3 3,0 z m -3,-3 0,-3 -3,0 0,3 3,0 z m -3,-3 0,-3 -3,0 0,3 3,0 z m -3,-3 0,-3 -3,0 0,3 3,0 z m -3,-3 0,-0.002 0,-2.99805 0,-0.002 -3,0 0,0.002 0,2.99805 0,0.002 3,0 z m 0,-3.00195 3,0 0,-3 -3,0 0,3 z m 3,-3 3,0 0,-3 -3,0 0,3 z m 3,-3 3,0 0,-3 -3,0 0,3 z m 3,-3 3,0 0,-3 -3,0 0,3 z m 3,-3 3,0 0,-3 -3,0 0,3 z m 0,-3 0,-12 -3,0 0,-3 -3,0 0,-3 -3,0 0,-3 -3,0 0,12 3,0 0,3 3,0 0,3 3,0 0,3 3,0 z m -9,-21 3,0 0,3 3,0 0,3 3,0 0,3 12,0 0,-3 -3,0 0,-3 -3,0 0,-3 -3,0 0,-3 -12,0 0,3 z m 21,9 0,3 3,0 0,-3 -3,0 z m 3,0 3,0 0,-3 -3,0 0,3 z m 3,-3 3,0 0,-3 -3,0 0,3 z m 3,-3 3,0 0,-3 -3,0 0,3 z m 3,-3 3,0 0,-3 -3,0 0,3 z m 3,0 0,3 -3,0 0,3 -3,0 0,3 -3,0 0,3 -3,0 0,3 -3,0 0,3 -3,0 0,3 -3,0 0,3 -3,0 0,3 -3,0 0,3 -3,0 0,3 -3,0 0,3 -3,0 0,3 3,0 0,3 3,0 0,3 3,0 0,3 3,0 0,3 3,0 0,3 3,0 0,3 3,0 0,3 3,0 0,3 3,0 0,3 3,0 0,3 3,0 0,3 3,0 0,3 3,0 0,-3 3,0 0,-3 3,0 0,-3 3,0 0,-3 3,0 0,-3 3,0 0,-3 3,0 0,-3 3,0 0,-3 3,0 0,-3 3,0 0,-3 3,0 0,-3 3,0 0,-3 3,0 0,-3 -3,0 0,-3 -3,0 0,-3 -3,0 0,-3 -3,0 0,-3 -3,0 0,-3 -3,0 0,-3 -3,0 0,-3 -3,0 0,-3 -3,0 0,-3 -3,0 0,-3 -3,0 0,-3 -3,0 0,-3 -3,0 z m 24,54 0,3 -3,0 0,3 -3,0 0,3 3,0 3,0 3,0 0,-9 -3,0 z m -45,-33 0,-3 3,0 0,-3 3,0 0,-3 -9,0 0,3 0,3 0,3 3,0 z m -3,33.00195 0,9 3,0 3,0 3,0 0,-3 -3,0 0,-3 -3,0 0,-3 -3,0 z m 51,-33.0039 0,-3 0,-3 0,-3 -9,0 0,3 3,0 0,3 3,0 0,3 3,0 z m -30,-29.99805 0,-3 -3,0 0,3 3,0 z m -3,-3 0,-3 -3,0 0,3 3,0 z m -3,-3 0,-3 -3,0 0,3 3,0 z m -3,-3 0,-3 -3,0 0,2.99805 -12,0 0,3 -3,0 0,3 -3,0 0,3 -3,0 0,3 12,0 0,-3 3,0 0,-3 3,0 0,-3 3,0 0,-2.99805 3,0 z m -24,11.99805 -3,0 0,3 3,0 0,-3 z m -3,3 -3,0 0,3 3,0 0,-3 z m 0,-3 0,-3 -3,0 0,3 3,0 z m 0,-3 3,0 0,-3 3,0 0,-3 3,0 0,-3 3,0 0,-11.99805 3,0 0,-3 -3,0 0,2.99805 -3,0 0,3 -3,0 0,3 -3,0 0,3 -3,0 0,12 z m 12,-23.99805 0,-3 -3,0 0,3 3,0 z m -3,-3 0,-3 -3,0 0,3 3,0 z m -3,-3 0,-3 -3,0 0,3 3,0 z m -3,-3 0,-3 -3,0 0,3 3,0 z m -3,-3 0,-3 -3,0 0,3 3,0 z m 15,15 0,9 3,0 3,0 3,0 0,-3 -3,0 0,-3 -3,0 0,-3 -3,0 z m 72,-18.00195 0,3 3,0 0,-3 -3,0 z m 6,0 0,3 3,0 0,-3 -3,0 z m 15,0 0,0.002 -3,0 0,3 3,0 0,3 3,0 0,3 3,0 0,3 3,0 0,3 3,0 0,3 3,0 0,3 3,0 0,3 3,0 0,3 3,0 0,3 3,0 0,3 3,0 0,3 3,0 0,3 3,0 0,-3 3,0 0,-3 3,0 0,-3 3,0 0,-3 3,0 0,-3 3,0 0,-3 3,0 0,-3 3,0 0,-3 3,0 0,-3 3,0 0,-3 3,0 0,-3 3,0 0,-3 3,0 0,-3 -3,0 0,-0.002 -6,0 0,0.002 3,0 0,3 -3,0 0,3 -3,0 0,3 -3,0 0,-3 -3,0 0,-3 -3,0 0,-3 3,0 0,-0.002 -6,0 0,0.002 -9,0 0,3 9,0 0,3 3,0 0,3 3,0 0,3 -3,0 -3,0 -3,0 0,9 -3,0 0,-3 -3,0 0,-3 -3,0 0,-9 -3,0 0,9 -3,0 0,3 -3,0 0,3 -3,0 0,-3 0,-3 0,-3 -9,0 0,-3 3,0 0,-3 3,0 0,-3 9,0 0,-3 -9,0 0,-0.002 -6,0 0,0.002 3,0 0,3 -3,0 0,3 -3,0 0,3 -3,0 0,-3 -3,0 0,-3 -3,0 0,-3 3,0 0,-0.002 -6,0 z m 30,0.002 3,0 0,-0.002 -3,0 0,0.002 z m 3,0 0,3 3,0 0,-3 -3,0 z m 3,0 3,0 0,-0.002 -3,0 0,0.002 z m 0,3 0,3 3,0 0,-3 -3,0 z m 3,3 0,3 3,0 0,-3 -3,0 z m 3,3 0,3 3,0 0,-3 -3,0 z m -9,-6 -3,0 0,3 3,0 0,-3 z m -3,3 -3,0 0,3 3,0 0,-3 z m -3,3 -3,0 0,3 3,0 0,-3 z m 6,30 -3,0 0,3 3,0 0,-3 z m 0,3 0,0.002 0,2.99805 -3,0 0,3 3,0 0,2.99805 -3,0 0,-2.99805 -3,0 0,3 3,0 0,2.99805 -3,0 0,-2.99805 -3,0 0,3 3,0 0,2.99805 -3,0 0,-2.99805 -3,0 0,3 3,0 0,2.99805 -3,0 0,-2.99805 -3,0 0,3 3,0 0,2.99805 -3,0 0,-2.99805 -9,0 0,3 0,3 0,3 3,0 0,2.99805 -3,0 0,-2.99805 -3,0 0,3 3,0 0,2.99805 -3,0 0,-2.99805 -3,0 0,3 3,0 0,2.99805 -3,0 0,-2.99805 -3,0 0,3 3,0 0,2.99805 -3,0 0,-2.99805 -3,0 0,3 3,0 0,2.99805 -3,0 0,-2.99805 -3,0 0,3 3,0 0,2.99805 3,0 0,3 3,0 0,3 3,0 0,3 3,0 0,3 3,0 0,3 3,0 0,3 3,0 0,3 3,0 0,3 3,0 0,3 3,0 0,3 3,0 0,3 3,0 0,3 3,0 0,-3 3,0 0,-3 3,0 0,-3 3,0 0,-3 3,0 0,-3 3,0 0,-3 3,0 0,-3 3,0 0,-3 3,0 0,-3 3,0 0,-3 3,0 0,-3 3,0 0,-3 3,0 0,-2.9961 3,0 0,-3 -3,0 0,2.9961 -3,0 0,-2.9961 3,0 0,-3 -3,0 0,2.9961 -3,0 0,-2.9961 3,0 0,-3 -3,0 0,2.9961 -3,0 0,-2.9961 3,0 0,-3 -3,0 0,2.9961 -3,0 0,-2.9961 3,0 0,-3 -3,0 0,2.9961 -3,0 0,-2.9961 3,0 0,-3 0,-3 0,-3 -9,0 0,2.9961 -3,0 0,-2.9961 3,0 0,-3 -3,0 0,2.9961 -3,0 0,-2.9961 3,0 0,-3 -3,0 0,2.9961 -3,0 0,-2.9961 3,0 0,-3 -3,0 0,2.9961 -3,0 0,-2.9961 3,0 0,-3 -3,0 0,2.9961 -3,0 0,-2.9961 3,0 0,-3 -3,0 0,2.9961 -3,0 0,-2.9961 3,0 0,-0.002 0,-2.99805 3,0 0,-3 -3,0 0,2.99805 -3,0 z m 6,-2.99805 3,0 0,-3 -3,0 0,3 z m 3,-3 3,0 0,-3 -3,0 0,3 z m 3,-3 3,0 0,-3 -3,0 0,3 z m 3,-3 3,0 0,2.99805 3,0 0,3 3,0 0,3 3,0 0,3 12,0 0,-3 -3,0 0,-3 -3,0 0,-3 -3,0 0,-3 -12,0 0,-2.99805 -3,0 0,3 z m 3,-3 3,0 3,0 3,0 0,-9 -3,0 0,3 -3,0 0,3 -3,0 0,3 z m 9,-9 3,0 0,11.99805 3,0 0,3 3,0 0,3 3,0 0,3 3,0 0,-12 -3,0 0,-3 -3,0 0,-3 -3,0 0,-3 -3,0 0,-2.99805 -3,0 0,3 z m 3,-3 3,0 0,-3 -3,0 0,3 z m 3,-3 3,0 0,-3 -3,0 0,3 z m 3,-3 3,0 0,-3 -3,0 0,3 z m 3,-3 3,0 0,-3 -3,0 0,3 z m 0,35.99805 0,3 3,0 0,-3 -3,0 z m -21,15.00195 12,0 0,-3 3,0 0,-3 3,0 0,-3 3,0 0,-3 -12,0 0,3 -3,0 0,3 -3,0 0,3 -3,0 0,3 z m 21,-9 0,3 -3,0 0,3 -3,0 0,3 -3,0 0,12 3,0 0,-3 3,0 0,-3 3,0 0,-3 3,0 0,-12 -3,0 z m -78,35.99805 -3,0 0,3 3,0 0,-3 z m 0,3 0,3 3,0 0,-3 -3,0 z m 3,3 0,3 3,0 0,-3 -3,0 z m 3,3 0,3 3,0 0,-3 -3,0 z m 3,3 0,3 3,0 0,-3 -3,0 z m 3,3 0,3 3,0 0,-3 -3,0 z m 3,3 0,9 3,0 3,0 3,0 0,-3 -3,0 0,-3 -3,0 0,-3 -3,0 z m 9,9 0,3 3,0 0,-3 -3,0 z m 3,3 0,3 3,0 0,-3 -3,0 z m 3,3 0,3 3,0 0,-3 -3,0 z m 3,3 0,3 3,0 0,-3 -3,0 z m 3,3 0,3 3,0 0,-3 -3,0 z m 3,3 0,0.002 0,2.99805 -3,0 0,3 3,0 0,-2.99805 3,0 0,-0.002 0,-2.99805 3,0 0,-3 -3,0 0,2.99805 -3,0 z m 6,-2.99805 3,0 0,-3 -3,0 0,3 z m 3,-3 3,0 0,-3 -3,0 0,3 z m 3,-3 3,0 0,-3 -3,0 0,3 z m 3,-3 3,0 0,2.99805 3,0 0,3 3,0 0,3 3,0 0,3 12,0 0,-3 -3,0 0,-3 -3,0 0,-3 -3,0 0,-3 -12,0 0,-2.99805 -3,0 0,3 z m 3,-3 3,0 3,0 3,0 0,-9 -3,0 0,3 -3,0 0,3 -3,0 0,3 z m 9,-9 3,0 0,11.99805 3,0 0,3 3,0 0,3 3,0 0,3 3,0 0,-12 -3,0 0,-3 -3,0 0,-3 -3,0 0,-3 -3,0 0,-2.99805 -3,0 0,3 z m 3,-3 3,0 0,-3 -3,0 0,3 z m 3,-3 3,0 0,-3 -3,0 0,3 z m 3,-3 3,0 0,-3 -3,0 0,3 z m 3,-3 3,0 0,-3 -3,0 0,3 z m 0,35.99805 0,3 3,0 0,-3 -3,0 z m -36,3.00195 0,2.99805 -3,0 0,3 -3,0 0,3 -3,0 0,3 -3,0 0,3 -3,0 0,3 -3,0 0,3 -3,0 0,3 -3,0 0,3 -3,0 0,3 -3,0 0,3 -3,0 0,3 -3,0 0,2.99805 6,0 0,-2.99805 3,0 0,-3 3,0 0,3 3,0 0,2.99805 6,0 0,-2.99805 -3,0 0,-3 -3,0 0,-3 3,0 3,0 3,0 0,-9 3,0 0,3 3,0 0,3 3,0 0,9 3,0 0,-9 3,0 0,-3 3,0 0,-3 3,0 0,3 0,3 0,3 9,0 0,3 -3,0 0,3 -3,0 0,2.99805 6,0 0,-2.99805 3,0 0,-3 3,0 0,3 3,0 0,2.99805 6,0 0,-2.9961 3,0 0,-3 -3,0 0,2.99805 -3,0 0,-2.99805 3,0 0,-3 -3,0 0,2.99805 -3,0 0,-2.99805 3,0 0,-3 -3,0 0,2.99805 -3,0 0,-2.99805 3,0 0,-3 -3,0 0,2.99805 -3,0 0,-2.99805 3,0 0,-3 0,-3 0,-3 -9,0 0,2.99805 -3,0 0,-2.99805 3,0 0,-3 -3,0 0,2.99805 -3,0 0,-2.99805 3,0 0,-3 -3,0 0,2.99805 -3,0 0,-2.99805 3,0 0,-3 -3,0 0,2.99805 -3,0 0,-2.99805 3,0 0,-3 -3,0 0,2.99805 -3,0 0,-2.99805 3,0 0,-3 -3,0 z m 15,12 12,0 0,-3 3,0 0,-3 3,0 0,-3 3,0 0,-3 -12,0 0,3 -3,0 0,3 -3,0 0,3 -3,0 0,3 z m 21,-9 0,3 -3,0 0,3 -3,0 0,3 -3,0 0,12 3,0 0,-3 3,0 0,-3 3,0 0,-3 3,0 0,-12 -3,0 z m 0,33 0,2.9961 3,0 0,-2.9961 -3,0 z m -27,-6.00195 -3,0 0,3 3,0 0,-3 z m -3,3 -3,0 0,3 3,0 0,-3 z m -3,3 -3,0 0,2.99805 3,0 0,-2.99805 z m -6,0 -3,0 0,2.99805 3,0 0,-2.99805 z m -3,0 0,-3 -3,0 0,3 3,0 z m -3,-3 0,-3 -3,0 0,3 3,0 z m -27,3 0,-3 -3,0 0,3 3,0 z m -3,0 -3,0 0,2.99805 3,0 0,-2.99805 z m 3,-3 3,0 0,-3 -3,0 0,3 z m 3,-3 3,0 0,-3 -3,0 0,3 z m 3,-3 3,0 0,-3 -3,0 0,-11.99805 -3,0 0,-3 -3,0 0,-3 -3,0 0,-3 -3,0 0,12 3,0 0,3 3,0 0,3 3,0 0,3 3,0 0,2.99805 z m -9,-23.99805 3,0 0,3 3,0 0,3 3,0 0,3 12,0 0,2.99805 3,0 0,-3 -3,0 0,-2.99805 -3,0 0,-3 -3,0 0,-3 -3,0 0,-3 -12,0 0,3 z m 24,8.99805 3,0 0,-3 -3,0 0,3 z m 3,-3 3,0 0,-3 -3,0 0,3 z m 3,-3 3,0 0,-3 -3,0 0,3 z m -9,9 -9,0 0,3 0,3 0,3 3,0 0,-3 3,0 0,-3 3,0 0,-3 z m 0,-30 -12,0 0,3 -3,0 0,3 -3,0 0,3 -3,0 0,3 12,0 0,-3 3,0 0,-3 3,0 0,-3 3,0 0,-3 z m -21,12 -3,0 0,3 3,0 0,-3 z m -3,3 -3,0 0,3 3,0 0,-3 z m 0,-3 0,-3 -3,0 0,3 3,0 z m 0,-3 3,0 0,-3 3,0 0,-3 3,0 0,-3 3,0 0,-12 -3,0 0,3 -3,0 0,3 -3,0 0,3 -3,0 0,12 z m 12,-54 0,-12 -3,0 0,-3 -3,0 0,-3 -3,0 0,-3 -3,0 0,12 3,0 0,3 3,0 0,3 3,0 0,3 3,0 z m -9,-21 3,0 0,3 3,0 0,3 3,0 0,3 12,0 0,-3 -3,0 0,-3 -3,0 0,-3 -3,0 0,-3 -12,0 0,3 z m 33,-9 0,-3 -3,0 0,3 3,0 z m -3,-3 0,-3 -3,0 0,3 3,0 z m -3,-3 0,-3 -3,0 0,3 3,0 z m -3,-3 0,-3 -3,0 0,2.99805 -12,0 0,3 -3,0 0,3 -3,0 0,3 -3,0 0,3 12,0 0,-3 3,0 0,-3 3,0 0,-3 3,0 0,-2.99805 3,0 z m -24,11.99805 -3,0 0,3 3,0 0,-3 z m -3,3 -3,0 0,3 3,0 0,-3 z m 0,-3 0,-3 -3,0 0,3 3,0 z m 0,-3 3,0 0,-3 3,0 0,-3 3,0 0,-3 3,0 0,-11.99805 3,0 0,-3 -3,0 0,2.99805 -3,0 0,3 -3,0 0,3 -3,0 0,3 -3,0 0,12 z m 12,-23.99805 0,-3 -3,0 0,3 3,0 z m -3,-3 0,-3 -3,0 0,3 3,0 z m -3,-3 0,-3 -3,0 0,3 3,0 z m -3,-3 0,-3 -3,0 0,3 3,0 z m -3,-3 0,-3 -3,0 0,3 3,0 z m 15,15 0,9 3,0 3,0 3,0 0,-3 -3,0 0,-3 -3,0 0,-3 -3,0 z m -102,-18 0,3 3,0 0,-3 -3,0 z m 48,0 0,3 3,0 0,-3 -3,0 z m 54,0 0,3 3,0 0,-3 -3,0 z m 48,0 0,3 3,0 0,-3 -3,0 z m -75,3 0,3 -3,0 0,3 3,0 0,3 3,0 0,-3 3,0 0,-3 -3,0 0,-3 -3,0 z m 3,9 0,3 -3,0 0,-3 -3,0 0,3 0,3 0,3 3,0 0,-3 3,0 0,3 3,0 0,-9 -3,0 z m 0,9 -3,0 0,3 -3,0 0,3 3,0 0,3 3,0 0,-3 3,0 0,-3 -3,0 0,-3 z m 0,9 0,3 -3,0 0,-3 -3,0 0,3 0,3 0,3 3,0 0,2.99805 -3,0 0,3 3,0 0,3 3,0 0,-3 3,0 0,-3 -3,0 0,-2.99805 3,0 0,-9 -3,0 z m 0,17.99805 0,3 -3,0 0,-3 -3,0 0,3 0,3 0,3 3,0 0,-3 3,0 0,3 3,0 0,-9 -3,0 z m -96,-39 0,6 3,0 0,3 -3,0 0,6 3,0 0,-3 3,0 0,-3 3,0 0,-3 -3,0 0,-3 -3,0 0,-3 -3,0 z m 102,0 0,6 3,0 0,3 -3,0 0,6 3,0 0,-3 3,0 0,-3 3,0 0,-3 -3,0 0,-3 -3,0 0,-3 -3,0 z m -18,0.002 0,3 -3,0 0,3 -3,0 0,3 3,0 0,3 3,0 0,3 3,0 0,-6 -3,0 0,-3 3,0 0,-6 -3,0 z m 99,3 0,3 -3,0 0,3 3,0 0,3 3,0 0,-3 0,-3 0,-3 -3,0 z m -141,6 3,0 0,3 3,0 0,3 3,0 0,3 -3,0 0,3 -3,0 0,3 -3,0 0,-3 -3,0 0,-3 -3,0 0,-3 3,0 0,-3 3,0 0,-3 z m 21,0 3,0 0,2.99805 -3,0 0,-2.99805 z m 81,0 3,0 0,3 3,0 0,3 3,0 0,3 -3,0 0,3 -3,0 0,3 -3,0 0,-3 -3,0 0,-3 -3,0 0,-3 3,0 0,-3 3,0 0,-3 z m -84,3 3,0 0,2.99805 -3,0 0,-2.99805 z m -18,3 0,3 3,0 0,-3 -3,0 z m 102,0 0,3 3,0 0,-3 -3,0 z m -117,11.99805 0,3 -3,0 0,3 -3,0 0,3 3,0 0,3 3,0 0,3 3,0 0,-3 3,0 0,-3 3,0 0,-3 -3,0 0,-3 -3,0 0,-3 -3,0 z m 30,0 0,3 -3,0 0,3 -3,0 0,3 3,0 0,3 3,0 0,3 3,0 0,-3 3,0 0,-3 3,0 0,-3 -3,0 0,-3 -3,0 0,-3 -3,0 z m 72,0 0,3 -3,0 0,3 -3,0 0,3 3,0 0,3 3,0 0,3 3,0 0,-3 3,0 0,-3 3,0 0,-3 -3,0 0,-3 -3,0 0,-3 -3,0 z m -36,0.002 3,0 0,2.99805 -3,0 0,-2.99805 z m 66,0 0,3 -3,0 0,3 -3,0 0,3 3,0 0,3 3,0 0,3 3,0 0,-3 3,0 0,-3 3,0 0,-3 -3,0 0,-3 -3,0 0,-3 -3,0 z m -132,5.99805 3,0 0,3 -3,0 0,-3 z m 30,0 3,0 0,3 -3,0 0,-3 z m 72,0 3,0 0,3 -3,0 0,-3 z m 30,0.002 3,0 0,3 -3,0 0,-3 z m -15,11.99805 3,0 0,3 3,0 0,3 3,0 0,3 -3,0 0,3 -3,0 0,3 -3,0 0,-3 -3,0 0,-3 -3,0 0,-3 3,0 0,-3 3,0 0,-3 z m -102,0.002 3,0 0,3 3,0 0,3 3,0 0,3 -3,0 0,3 -3,0 0,3 -3,0 0,-3 -3,0 0,-3 -3,0 0,-3 3,0 0,-3 3,0 0,-3 z m 51,3 0,3 -3,0 0,3 3,0 0,3 3,0 0,-3 3,0 0,-3 -3,0 0,-3 -3,0 z m 3,9 0,3 -3,0 0,-3 -3,0 0,3 0,3 0,3 3,0 0,-3 3,0 0,3 3,0 0,-9 -3,0 z m 0,9 -3,0 0,3 -3,0 0,3 3,0 0,3 3,0 0,-3 3,0 0,-3 -3,0 0,-3 z m 0,9 0,3 -3,0 0,-3 -3,0 0,3 0,3 0,3 3,0 0,-3 3,0 0,3 3,0 0,-9 -3,0 z m 0,9 -3,0 0,3 -3,0 0,3 3,0 0,3 3,0 0,-3 3,0 0,-3 -3,0 0,-3 z m 0,9 0,3 -3,0 0,-3 -3,0 0,3 0,3 0,3 3,0 0,-3 3,0 0,3 3,0 0,-9 -3,0 z m 0,9 -3,0 0,3 -3,0 0,3 3,0 0,3 3,0 0,-3 3,0 0,-3 -3,0 0,-3 z m 0,9 0,3 -3,0 0,-3 -3,0 0,3 0,3 0,3 3,0 0,-3 3,0 0,3 3,0 0,-9 -3,0 z m 0,9 -3,0 0,3 -3,0 0,3 3,0 0,3 3,0 0,-3 3,0 0,-3 -3,0 0,-3 z m 0,9 0,3 -3,0 0,-3 -3,0 0,3 0,3 0,3 3,0 0,-3 3,0 0,3 3,0 0,-9 -3,0 z m 0,9 -3,0 0,3 -3,0 0,3 3,0 0,3 3,0 0,-3 3,0 0,-3 -3,0 0,-3 z m 0,9 0,3 -3,0 0,-3 -3,0 0,3 0,3 0,3 3,0 0,-3 3,0 0,3 3,0 0,-9 -3,0 z m 0,9 -3,0 0,2.99805 3,0 0,-2.99805 z m 48,-105.00195 0,3 3,0 0,-3 -3,0 z m -102,0.002 0,3 3,0 0,-3 -3,0 z m -42,2.99805 0,6 3,0 0,3 -3,0 0,6 3,0 0,-3 3,0 0,-3 3,0 0,-3 -3,0 0,-3 -3,0 0,-3 -3,0 z m 84,0 0,3 -3,0 0,3 -3,0 0,3 3,0 0,3 3,0 0,3 3,0 0,-6 -3,0 0,-3 3,0 0,-6 -3,0 z m 18,0 0,6 3,0 0,3 -3,0 0,6 3,0 0,-3 3,0 0,-3 3,0 0,-3 -3,0 0,-3 -3,0 0,-3 -3,0 z m 24,0.002 3,0 0,2.99805 -3,0 0,-2.99805 z m 36,0.002 3,0 0,2.9961 -3,0 0,-2.9961 z m -27,2.9961 3,0 0,3 3,0 0,3 3,0 0,9 3,0 0,-9 3,0 0,-3 3,0 0,-3 3,0 0,3 0,3 0,3 9,0 0,3 -3,0 0,3 -3,0 0,3 -9,0 0,3 9,0 0,3 3,0 0,3 3,0 0,3 -3,0 -3,0 -3,0 0,9 -3,0 0,-3 -3,0 0,-3 -3,0 0,-9 -3,0 0,9 -3,0 0,3 -3,0 0,3 -3,0 0,-3 0,-3 0,-3 -9,0 0,-3 3,0 0,-3 3,0 0,-3 9,0 0,-3 -9,0 0,-3 -3,0 0,-3 -3,0 0,-3 3,0 3,0 3,0 0,-9 z m 0,9 0,3 3,0 0,-3 -3,0 z m 3,3 0,3 3,0 0,-3 -3,0 z m 3,3 0,3 3,0 0,-3 -3,0 z m 3,3 0,3 3,0 0,-3 -3,0 z m 3,0 3,0 0,-3 -3,0 0,3 z m 3,-3 3,0 0,-3 -3,0 0,3 z m 3,-3 3,0 0,-3 -3,0 0,3 z m -6,9 0,3 3,0 0,-3 -3,0 z m 3,3 0,3 3,0 0,-3 -3,0 z m 3,3 0,3 3,0 0,-3 -3,0 z m -9,-6 -3,0 0,3 3,0 0,-3 z m -3,3 -3,0 0,3 3,0 0,-3 z m -3,3 -3,0 0,3 3,0 0,-3 z m -105,-26.99805 3,0 0,3 3,0 0,3 3,0 0,9 3,0 0,-9 3,0 0,-3 3,0 0,-3 3,0 0,3 0,3 0,3 9,0 0,3 -3,0 0,3 -3,0 0,3 -9,0 0,3 9,0 0,3 3,0 0,3 3,0 0,3 -3,0 -3,0 -3,0 0,9 -3,0 0,-3 -3,0 0,-3 -3,0 0,-9 -3,0 0,9 -3,0 0,3 -3,0 0,3 -3,0 0,-3 0,-3 0,-3 -9,0 0,-3 3,0 0,-3 3,0 0,-3 9,0 0,-3 -9,0 0,-3 -3,0 0,-3 -3,0 0,-3 3,0 3,0 3,0 0,-9 z m 0,9 0,3 3,0 0,-3 -3,0 z m 3,3 0,3 3,0 0,-3 -3,0 z m 3,3 0,3 3,0 0,-3 -3,0 z m 3,3 0,3 3,0 0,-3 -3,0 z m 3,0 3,0 0,-3 -3,0 0,3 z m 3,-3 3,0 0,-3 -3,0 0,3 z m 3,-3 3,0 0,-3 -3,0 0,3 z m -6,9 0,3 3,0 0,-3 -3,0 z m 3,3 0,3 3,0 0,-3 -3,0 z m 3,3 0,3 3,0 0,-3 -3,0 z m -9,-6 -3,0 0,3 3,0 0,-3 z m -3,3 -3,0 0,3 3,0 0,-3 z m -3,3 -3,0 0,3 3,0 0,-3 z m 87,-27 3,0 0,2.99805 -3,0 0,-2.99805 z m 60,0 0,3 -3,0 0,3 3,0 0,3 3,0 0,-3 0,-3 0,-3 -3,0 z m -18,0.002 3,0 0,2.9961 -3,0 0,-2.9961 z m -45,11.9961 3,0 0,3 3,0 0,3 3,0 0,3 -3,0 0,3 -3,0 0,3 -3,0 0,-3 -3,0 0,-3 -3,0 0,-3 3,0 0,-3 3,0 0,-3 z m 48,0 3,0 0,3 3,0 0,3 3,0 0,3 -3,0 0,3 -3,0 0,3 -3,0 0,-3 -3,0 0,-3 -3,0 0,-3 3,0 0,-3 3,0 0,-3 z m -150,0.002 3,0 0,3 3,0 0,3 3,0 0,3 -3,0 0,3 -3,0 0,3 -3,0 0,-3 -3,0 0,-3 -3,0 0,-3 3,0 0,-3 3,0 0,-3 z m 48,0 3,0 0,3 3,0 0,3 3,0 0,3 -3,0 0,3 -3,0 0,3 -3,0 0,-3 -3,0 0,-3 -3,0 0,-3 3,0 0,-3 3,0 0,-3 z m 54,5.99805 0,3 3,0 0,-3 -3,0 z m 48,0 0,3 3,0 0,-3 -3,0 z m -150,0.002 0,3 3,0 0,-3 -3,0 z m 48,0 0,3 3,0 0,-3 -3,0 z m -66,9 0,6 3,0 0,3 -3,0 0,6 3,0 0,-3 3,0 0,-3 3,0 0,-3 -3,0 0,-3 -3,0 0,-3 -3,0 z m 84,0 0,3 -3,0 0,3 -3,0 0,3 3,0 0,3 3,0 0,3 3,0 0,-6 -3,0 0,-3 3,0 0,-6 -3,0 z m 18,0 0,6 3,0 0,3 -3,0 0,6 3,0 0,-3 3,0 0,-3 3,0 0,-3 -3,0 0,-3 -3,0 0,-3 -3,0 z m 81,3 0,3 -3,0 0,3 3,0 0,3 3,0 0,-3 0,-3 0,-3 -3,0 z m -39,5.99805 3,0 0,3 3,0 0,3 3,0 0,3 -3,0 0,3 -3,0 0,3 -3,0 0,-3 -3,0 0,-3 -3,0 0,-3 3,0 0,-3 3,0 0,-3 z m -102,0.002 3,0 0,3 3,0 0,3 3,0 0,3 -3,0 0,3 -3,0 0,3 -3,0 0,-3 -3,0 0,-3 -3,0 0,-3 3,0 0,-3 3,0 0,-3 z m 102,5.99805 0,3 3,0 0,-3 -3,0 z m -102,0.002 0,3 3,0 0,-3 -3,0 z m -15,12 0,3 -3,0 0,3 -3,0 0,3 3,0 0,3 3,0 0,3 3,0 0,-3 3,0 0,-3 3,0 0,-3 -3,0 0,-3 -3,0 0,-3 -3,0 z m 30,0 0,3 -3,0 0,3 -3,0 0,3 3,0 0,3 3,0 0,3 3,0 0,-3 3,0 0,-3 3,0 0,-3 -3,0 0,-3 -3,0 0,-3 -3,0 z m 72,0 0,3 -3,0 0,3 -3,0 0,3 3,0 0,3 3,0 0,3 3,0 0,-3 3,0 0,-3 3,0 0,-3 -3,0 0,-3 -3,0 0,-3 -3,0 z m 30,0 0,3 -3,0 0,3 -3,0 0,3 3,0 0,3 3,0 0,3 3,0 0,-3 3,0 0,-3 3,0 0,-3 -3,0 0,-3 -3,0 0,-3 -3,0 z m -132,6 3,0 0,3 -3,0 0,-3 z m 30,0 3,0 0,3 -3,0 0,-3 z m 72,0 3,0 0,3 -3,0 0,-3 z m 30,0 3,0 0,3 -3,0 0,-3 z m -117,12 3,0 0,3 3,0 0,3 3,0 0,3 -3,0 0,3 -3,0 0,3 -3,0 0,-3 -3,0 0,-3 -3,0 0,-3 3,0 0,-3 3,0 0,-3 z m 102,0 3,0 0,3 3,0 0,3 3,0 0,3 -3,0 0,3 -3,0 0,3 -3,0 0,-3 -3,0 0,-3 -3,0 0,-3 3,0 0,-3 3,0 0,-3 z m -102,6 0,3 3,0 0,-3 -3,0 z m 102,0 0,3 3,0 0,-3 -3,0 z m -144,3 0,6 3,0 0,3 -3,0 0,6 3,0 0,-3 3,0 0,-3 3,0 0,-3 -3,0 0,-3 -3,0 0,-3 -3,0 z m 84,0 0,3 -3,0 0,3 -3,0 0,3 3,0 0,3 3,0 0,3 3,0 0,-6 -3,0 0,-3 3,0 0,-6 -3,0 z m 18,0 0,6 3,0 0,3 -3,0 0,6 3,0 0,-3 3,0 0,-3 3,0 0,-3 -3,0 0,-3 -3,0 0,-3 -3,0 z m -78,0.002 3,0 0,2.99805 -3,0 0,-2.99805 z m 138,0 3,0 0,2.99805 -3,0 0,-2.99805 z m 21,2.99805 0,3 -3,0 0,3 3,0 0,3 3,0 0,-3 0,-3 0,-3 -3,0 z m -162,0.002 3,0 0,2.99805 -3,0 0,-2.99805 z m 144,0 3,0 0,2.99805 -3,0 0,-2.99805 z"
         id="path4646" />
      <path
         id="path4794"
         d="m 468,240.50507 0,0.002 -3,0 0,3 3,0 0,3 3,0 0,3 3,0 0,3 3,0 0,3 3,0 0,3 3,0 0,3 3,0 0,3 3,0 0,3 3,0 0,3 3,0 0,3 3,0 0,3 3,0 0,3 3,0 0,2.99805 3,0 0,-3 -3,0 0,-2.99805 3,0 0,2.99805 3,0 0,-3 -3,0 0,-2.99805 3,0 0,2.99805 3,0 0,-3 -3,0 0,-2.99805 3,0 0,2.99805 3,0 0,-3 -3,0 0,-2.99805 3,0 0,2.99805 3,0 0,-3 -3,0 0,-2.99805 3,0 0,2.99805 3,0 3,0 3,0 0,-9 -3,0 0,-2.99805 3,0 0,2.99805 3,0 0,-3 -3,0 0,-2.99805 3,0 0,2.99805 3,0 0,-3 -3,0 0,-2.99805 3,0 0,2.99805 3,0 0,-3 -3,0 0,-2.99805 3,0 0,2.99805 3,0 0,-3 -3,0 0,-2.99805 3,0 0,2.99805 3,0 0,-3 -3,0 0,-2.99805 -3,0 0,-0.002 -6,0 0,0.002 3,0 0,3 -3,0 0,3 -3,0 0,3 -3,0 0,-3 -3,0 0,-3 -3,0 0,-3 3,0 0,-0.002 -6,0 0,0.002 -9,0 0,3 9,0 0,3 3,0 0,3 3,0 0,3 -3,0 -3,0 -3,0 0,9 -3,0 0,-3 -3,0 0,-3 -3,0 0,-9 -3,0 0,9 -3,0 0,3 -3,0 0,3 -3,0 0,-3 0,-3 0,-3 -9,0 0,-3 3,0 0,-3 3,0 0,-3 9,0 0,-3 -9,0 0,-0.002 -6,0 0,0.002 3,0 0,3 -3,0 0,3 -3,0 0,3 -3,0 0,-3 -3,0 0,-3 -3,0 0,-3 3,0 0,-0.002 -6,0 z m 30,0.002 3,0 0,-0.002 -3,0 0,0.002 z m 3,0 0,3 3,0 0,-3 -3,0 z m 3,0 3,0 0,-0.002 -3,0 0,0.002 z m 0,3 0,3 3,0 0,-3 -3,0 z m 3,3 0,3 3,0 0,-3 -3,0 z m 3,3 0,3 3,0 0,-3 -3,0 z m -9,-6 -3,0 0,3 3,0 0,-3 z m -3,3 -3,0 0,3 3,0 0,-3 z m -3,3 -3,0 0,3 3,0 0,-3 z m 48,-6.00195 3,0 0,-3 -3,0 0,3 z m -12,15 0,12 3,0 0,3 3,0 0,3 3,0 0,3 3,0 0,-12 -3,0 0,-3 -3,0 0,-3 -3,0 0,-3 -3,0 z m 12,21 0,3 3,0 0,-3 -3,0 z m 0,3 -3,0 0,3 3,0 0,-3 z m 0,3 0,3 3,0 0,-3 -3,0 z m -3,-3 0,-3 -3,0 0,-3 -3,0 0,-3 -3,0 0,-3 -12,0 0,3 3,0 0,3 3,0 0,3 3,0 0,3 12,0 z m -36,0 -3,0 0,-2.99805 -3,0 0,3 3,0 0,3 3,0 0,2.99805 3,0 0,-3 -3,0 0,-2.99805 0,-0.002 z m 3,6 0,3 3,0 0,-3 -3,0 z m 3,3 0,3 3,0 0,-3 -3,0 z m 3,3 0,3 3,0 0,-3 -3,0 z m 3,3 0,3 3,0 0,-2.99805 12,0 0,-3 3,0 0,-3 3,0 0,-3 3,0 0,-3 -12,0 0,3 -3,0 0,3 -3,0 0,3 -3,0 0,2.99805 -3,0 z m 24,-8.99805 0,3 -3,0 0,3 -3,0 0,3 -3,0 0,11.99805 -3,0 0,3 3,0 0,-2.99805 3,0 0,-3 3,0 0,-3 3,0 0,-3 3,0 0,-12 -3,0 z m -9,23.99805 0,3 3,0 0,-3 -3,0 z m 3,3 0,3 3,0 0,-3 -3,0 z m 3,3 0,3 3,0 0,-3 -3,0 z m 3,3 0,3 3,0 0,-3 -3,0 z m 3,3 0,0.002 0,2.99805 0,0.002 3,0 0,-0.002 0,-2.99805 0,-0.002 -3,0 z m 0,3.00195 -3,0 0,3 3,0 0,-3 z m -3,3 -3,0 0,3 3,0 0,-3 z m -3,3 -3,0 0,3 3,0 0,-3 z m -3,3 -3,0 0,3 3,0 0,-3 z m -3,3 -3,0 0,3 3,0 0,-3 z m 0,3 0,12 3,0 0,3 3,0 0,3 3,0 0,3 3,0 0,-12 -3,0 0,-3 -3,0 0,-3 -3,0 0,-3 -3,0 z m 12,21 0,3 3,0 0,-3 -3,0 z m 0,3 -3,0 0,3 3,0 0,-3 z m 0,3 0,3 3,0 0,-3 -3,0 z m -3,-3 0,-3 -3,0 0,-3 -3,0 0,-3 -3,0 0,-3 -12,0 0,3 3,0 0,3 3,0 0,3 3,0 0,3 12,0 z m -21,-12 0,-3 -3,0 0,3 3,0 z m -3,0 -3,0 0,3 3,0 0,-3 z m -3,3 -3,0 0,3 3,0 0,-3 z m -3,3 -3,0 0,3 3,0 0,-3 z m -3,3 -3,0 0,3 3,0 0,-3 z m -3,3 -3,0 0,-2.99805 -3,0 0,3 3,0 0,3 3,0 0,2.99805 3,0 0,-3 -3,0 0,-2.99805 0,-0.002 z m 3,6 0,3 3,0 0,-3 -3,0 z m 3,3 0,3 3,0 0,-3 -3,0 z m 3,3 0,3 3,0 0,-3 -3,0 z m 3,3 0,3 3,0 0,-2.99805 12,0 0,-3 3,0 0,-3 3,0 0,-3 3,0 0,-3 -12,0 0,3 -3,0 0,3 -3,0 0,3 -3,0 0,2.99805 -3,0 z m 24,-8.99805 0,3 -3,0 0,3 -3,0 0,3 -3,0 0,11.99805 -3,0 0,3 3,0 0,-2.99805 3,0 0,-3 3,0 0,-3 3,0 0,-3 3,0 0,-12 -3,0 z m -9,23.99805 0,3 3,0 0,-3 -3,0 z m 3,3 0,3 3,0 0,-3 -3,0 z m 3,3 0,3 3,0 0,-3 -3,0 z m 3,3 0,2.99805 3,0 0,-2.99805 -3,0 z m -3,0 -3,0 0,-3 -3,0 0,-3 -3,0 0,-3 -3,0 0,-3 -3,0 0,-3 -3,0 0,-3 -3,0 0,-3 -3,0 0,-3 -3,0 0,-3 -3,0 0,-3 -3,0 0,-3 -3,0 0,-2.99805 -3,0 0,3 3,0 0,2.99805 -3,0 0,-2.99805 -3,0 0,3 3,0 0,2.99805 -3,0 0,-2.99805 -3,0 0,3 3,0 0,2.99805 -3,0 0,-2.99805 -3,0 0,3 3,0 0,2.99805 -3,0 0,-2.99805 -3,0 0,3 3,0 0,2.99805 -3,0 0,-2.99805 -9,0 0,3 0,3 0,3 3,0 0,2.99805 -3,0 0,-2.99805 -3,0 0,3 3,0 0,2.99805 -3,0 0,-2.99805 -3,0 0,3 3,0 0,2.99805 -3,0 0,-2.99805 -3,0 0,3 3,0 0,2.99805 -3,0 0,-2.99805 -3,0 0,3 3,0 0,2.9961 6,0 0,-2.99805 3,0 0,-3 3,0 0,3 3,0 0,2.99805 6,0 0,-2.99805 -3,0 0,-3 -3,0 0,-3 3,0 3,0 3,0 0,-9 3,0 0,3 3,0 0,3 3,0 0,9 3,0 0,-9 3,0 0,-3 3,0 0,-3 3,0 0,3 0,3 0,3 9,0 0,3 -3,0 0,3 -3,0 0,2.99805 6,0 0,-2.99805 3,0 0,-3 3,0 0,3 3,0 0,2.99805 6,0 0,-2.99805 z m -24,-6 -3,0 0,3 3,0 0,-3 z m -3,3 -3,0 0,3 3,0 0,-3 z m -3,3 -3,0 0,2.99805 3,0 0,-2.99805 z m -6,0 -3,0 0,2.99805 3,0 0,-2.99805 z m -3,0 0,-3 -3,0 0,3 3,0 z m -3,-3 0,-3 -3,0 0,3 3,0 z m -30,3.00195 -3,0 0,2.9961 3,0 0,-2.9961 z m 9,-12 0,-12 -3,0 0,-3 -3,0 0,-3 -3,0 0,-3 -3,0 0,12 3,0 0,3 3,0 0,3 3,0 0,3 3,0 z m -9,-21 3,0 0,3 3,0 0,3 3,0 0,3 12,0 0,-3 -3,0 0,-3 -3,0 0,-3 -3,0 0,-3 -12,0 0,3 z m 54,14.99805 3,0 0,3 3,0 0,3 3,0 0,-3 0,-3 0,-3 -9,0 0,3 z m -21,-23.99805 0,-3 -3,0 0,3 3,0 z m -3,-3 0,-3 -3,0 0,3 3,0 z m -3,-3 0,-3 -3,0 0,3 3,0 z m -3,-3 0,-3 -3,0 0,2.99805 -12,0 0,3 -3,0 0,3 -3,0 0,3 -3,0 0,3 12,0 0,-3 3,0 0,-3 3,0 0,-3 3,0 0,-2.99805 3,0 z m -24,11.99805 -3,0 0,3 3,0 0,-3 z m -3,3 -3,0 0,3 3,0 0,-3 z m 0,-3 0,-3 -3,0 0,3 3,0 z m 0,-3 3,0 0,-3 3,0 0,-3 3,0 0,-3 3,0 0,-11.99805 3,0 0,-3 -3,0 0,2.99805 -3,0 0,3 -3,0 0,3 -3,0 0,3 -3,0 0,12 z m 12,-23.99805 0,-3 -3,0 0,3 3,0 z m -3,-3 0,-3 -3,0 0,3 3,0 z m -3,-3 0,-3 -3,0 0,3 3,0 z m -3,-3 0,-3 -3,0 0,3 3,0 z m -3,-3 0,-0.002 0,-2.99805 0,-0.002 -3,0 0,0.002 0,2.99805 0,0.002 3,0 z m 0,-3.00195 3,0 0,-3 -3,0 0,3 z m 3,-3 3,0 0,-3 -3,0 0,3 z m 3,-3 3,0 0,-3 -3,0 0,3 z m 3,-3 3,0 0,-3 -3,0 0,3 z m 3,-3 3,0 0,-3 -3,0 0,3 z m 0,-3 0,-12 -3,0 0,-3 -3,0 0,-3 -3,0 0,-3 -3,0 0,12 3,0 0,3 3,0 0,3 3,0 0,3 3,0 z m -9,-21 3,0 0,3 3,0 0,3 3,0 0,3 12,0 0,-3 -3,0 0,-3 -3,0 0,-3 -3,0 0,-3 -12,0 0,3 z m 21,9 0,3 3,0 0,-3 -3,0 z m 3,0 3,0 0,-3 -3,0 0,3 z m 3,-3 3,0 0,-3 -3,0 0,3 z m 3,-3 3,0 0,-3 -3,0 0,3 z m 3,-3 3,0 0,-3 -3,0 0,3 z m 3,0 0,3 -3,0 0,3 -3,0 0,3 -3,0 0,3 -3,0 0,3 -3,0 0,3 -3,0 0,3 -3,0 0,3 -3,0 0,3 -3,0 0,3 -3,0 0,3 -3,0 0,3 -3,0 0,3 3,0 0,3 3,0 0,3 3,0 0,3 3,0 0,3 3,0 0,3 3,0 0,3 3,0 0,3 3,0 0,3 3,0 0,3 3,0 0,3 3,0 0,3 3,0 0,3 3,0 0,-3 3,0 0,-3 3,0 0,-3 3,0 0,-3 3,0 0,-3 3,0 0,-3 3,0 0,-3 3,0 0,-3 3,0 0,-3 3,0 0,-3 3,0 0,-3 3,0 0,-3 3,0 0,-3 -3,0 0,-3 -3,0 0,-3 -3,0 0,-3 -3,0 0,-3 -3,0 0,-3 -3,0 0,-3 -3,0 0,-3 -3,0 0,-3 -3,0 0,-3 -3,0 0,-3 -3,0 0,-3 -3,0 0,-3 -3,0 z m 24,54 0,3 -3,0 0,3 -3,0 0,3 3,0 3,0 3,0 0,-9 -3,0 z m -45,-33 0,-3 3,0 0,-3 3,0 0,-3 -9,0 0,3 0,3 0,3 3,0 z m -3,33.00195 0,9 3,0 3,0 3,0 0,-3 -3,0 0,-3 -3,0 0,-3 -3,0 z m 51,-33.0039 0,-3 0,-3 0,-3 -9,0 0,3 3,0 0,3 3,0 0,3 3,0 z m -30,-29.99805 0,-3 -3,0 0,3 3,0 z m -3,-3 0,-3 -3,0 0,3 3,0 z m -3,-3 0,-3 -3,0 0,3 3,0 z m -3,-3 0,-3 -3,0 0,2.99805 -12,0 0,3 -3,0 0,3 -3,0 0,3 -3,0 0,3 12,0 0,-3 3,0 0,-3 3,0 0,-3 3,0 0,-2.99805 3,0 z m -24,11.99805 -3,0 0,3 3,0 0,-3 z m -3,3 -3,0 0,3 3,0 0,-3 z m 0,-3 0,-3 -3,0 0,3 3,0 z m 0,-3 3,0 0,-3 3,0 0,-3 3,0 0,-3 3,0 0,-11.99805 3,0 0,-3 -3,0 0,2.99805 -3,0 0,3 -3,0 0,3 -3,0 0,3 -3,0 0,12 z m 12,-23.99805 0,-3 -3,0 0,3 3,0 z m -3,-3 0,-3 -3,0 0,3 3,0 z m -3,-3 0,-3 -3,0 0,3 3,0 z m -3,-3 0,-3 -3,0 0,3 3,0 z m -3,-3 0,-3 -3,0 0,3 3,0 z m 15,15 0,9 3,0 3,0 3,0 0,-3 -3,0 0,-3 -3,0 0,-3 -3,0 z m 72,-18.00195 0,3 3,0 0,-3 -3,0 z m 6,0 0,3 3,0 0,-3 -3,0 z m 15,0 0,0.002 -3,0 0,3 3,0 0,3 3,0 0,3 3,0 0,3 3,0 0,3 3,0 0,3 3,0 0,3 3,0 0,3 3,0 0,3 3,0 0,3 3,0 0,3 3,0 0,3 3,0 0,3 3,0 0,-3 3,0 0,-3 3,0 0,-3 3,0 0,-3 3,0 0,-3 3,0 0,-3 3,0 0,-3 3,0 0,-3 3,0 0,-3 3,0 0,-3 3,0 0,-3 3,0 0,-3 3,0 0,-3 -3,0 0,-0.002 -6,0 0,0.002 3,0 0,3 -3,0 0,3 -3,0 0,3 -3,0 0,-3 -3,0 0,-3 -3,0 0,-3 3,0 0,-0.002 -6,0 0,0.002 -9,0 0,3 9,0 0,3 3,0 0,3 3,0 0,3 -3,0 -3,0 -3,0 0,9 -3,0 0,-3 -3,0 0,-3 -3,0 0,-9 -3,0 0,9 -3,0 0,3 -3,0 0,3 -3,0 0,-3 0,-3 0,-3 -9,0 0,-3 3,0 0,-3 3,0 0,-3 9,0 0,-3 -9,0 0,-0.002 -6,0 0,0.002 3,0 0,3 -3,0 0,3 -3,0 0,3 -3,0 0,-3 -3,0 0,-3 -3,0 0,-3 3,0 0,-0.002 -6,0 z m 30,0.002 3,0 0,-0.002 -3,0 0,0.002 z m 3,0 0,3 3,0 0,-3 -3,0 z m 3,0 3,0 0,-0.002 -3,0 0,0.002 z m 0,3 0,3 3,0 0,-3 -3,0 z m 3,3 0,3 3,0 0,-3 -3,0 z m 3,3 0,3 3,0 0,-3 -3,0 z m -9,-6 -3,0 0,3 3,0 0,-3 z m -3,3 -3,0 0,3 3,0 0,-3 z m -3,3 -3,0 0,3 3,0 0,-3 z m 6,30 -3,0 0,3 3,0 0,-3 z m 0,3 0,0.002 0,2.99805 -3,0 0,3 3,0 0,2.99805 -3,0 0,-2.99805 -3,0 0,3 3,0 0,2.99805 -3,0 0,-2.99805 -3,0 0,3 3,0 0,2.99805 -3,0 0,-2.99805 -3,0 0,3 3,0 0,2.99805 -3,0 0,-2.99805 -3,0 0,3 3,0 0,2.99805 -3,0 0,-2.99805 -9,0 0,3 0,3 0,3 3,0 0,2.99805 -3,0 0,-2.99805 -3,0 0,3 3,0 0,2.99805 -3,0 0,-2.99805 -3,0 0,3 3,0 0,2.99805 -3,0 0,-2.99805 -3,0 0,3 3,0 0,2.99805 -3,0 0,-2.99805 -3,0 0,3 3,0 0,2.99805 -3,0 0,-2.99805 -3,0 0,3 3,0 0,2.99805 3,0 0,3 3,0 0,3 3,0 0,3 3,0 0,3 3,0 0,3 3,0 0,3 3,0 0,3 3,0 0,3 3,0 0,3 3,0 0,3 3,0 0,3 3,0 0,3 3,0 0,-3 3,0 0,-3 3,0 0,-3 3,0 0,-3 3,0 0,-3 3,0 0,-3 3,0 0,-3 3,0 0,-3 3,0 0,-3 3,0 0,-3 3,0 0,-3 3,0 0,-3 3,0 0,-2.9961 3,0 0,-3 -3,0 0,2.9961 -3,0 0,-2.9961 3,0 0,-3 -3,0 0,2.9961 -3,0 0,-2.9961 3,0 0,-3 -3,0 0,2.9961 -3,0 0,-2.9961 3,0 0,-3 -3,0 0,2.9961 -3,0 0,-2.9961 3,0 0,-3 -3,0 0,2.9961 -3,0 0,-2.9961 3,0 0,-3 0,-3 0,-3 -9,0 0,2.9961 -3,0 0,-2.9961 3,0 0,-3 -3,0 0,2.9961 -3,0 0,-2.9961 3,0 0,-3 -3,0 0,2.9961 -3,0 0,-2.9961 3,0 0,-3 -3,0 0,2.9961 -3,0 0,-2.9961 3,0 0,-3 -3,0 0,2.9961 -3,0 0,-2.9961 3,0 0,-3 -3,0 0,2.9961 -3,0 0,-2.9961 3,0 0,-0.002 0,-2.99805 3,0 0,-3 -3,0 0,2.99805 -3,0 z m 6,-2.99805 3,0 0,-3 -3,0 0,3 z m 3,-3 3,0 0,-3 -3,0 0,3 z m 3,-3 3,0 0,-3 -3,0 0,3 z m 3,-3 3,0 0,2.99805 3,0 0,3 3,0 0,3 3,0 0,3 12,0 0,-3 -3,0 0,-3 -3,0 0,-3 -3,0 0,-3 -12,0 0,-2.99805 -3,0 0,3 z m 3,-3 3,0 3,0 3,0 0,-9 -3,0 0,3 -3,0 0,3 -3,0 0,3 z m 9,-9 3,0 0,11.99805 3,0 0,3 3,0 0,3 3,0 0,3 3,0 0,-12 -3,0 0,-3 -3,0 0,-3 -3,0 0,-3 -3,0 0,-2.99805 -3,0 0,3 z m 3,-3 3,0 0,-3 -3,0 0,3 z m 3,-3 3,0 0,-3 -3,0 0,3 z m 3,-3 3,0 0,-3 -3,0 0,3 z m 3,-3 3,0 0,-3 -3,0 0,3 z m 0,35.99805 0,3 3,0 0,-3 -3,0 z m -21,15.00195 12,0 0,-3 3,0 0,-3 3,0 0,-3 3,0 0,-3 -12,0 0,3 -3,0 0,3 -3,0 0,3 -3,0 0,3 z m 21,-9 0,3 -3,0 0,3 -3,0 0,3 -3,0 0,12 3,0 0,-3 3,0 0,-3 3,0 0,-3 3,0 0,-12 -3,0 z m -78,35.99805 -3,0 0,3 3,0 0,-3 z m 0,3 0,3 3,0 0,-3 -3,0 z m 3,3 0,3 3,0 0,-3 -3,0 z m 3,3 0,3 3,0 0,-3 -3,0 z m 3,3 0,3 3,0 0,-3 -3,0 z m 3,3 0,3 3,0 0,-3 -3,0 z m 3,3 0,9 3,0 3,0 3,0 0,-3 -3,0 0,-3 -3,0 0,-3 -3,0 z m 9,9 0,3 3,0 0,-3 -3,0 z m 3,3 0,3 3,0 0,-3 -3,0 z m 3,3 0,3 3,0 0,-3 -3,0 z m 3,3 0,3 3,0 0,-3 -3,0 z m 3,3 0,3 3,0 0,-3 -3,0 z m 3,3 0,0.002 0,2.99805 -3,0 0,3 3,0 0,-2.99805 3,0 0,-0.002 0,-2.99805 3,0 0,-3 -3,0 0,2.99805 -3,0 z m 6,-2.99805 3,0 0,-3 -3,0 0,3 z m 3,-3 3,0 0,-3 -3,0 0,3 z m 3,-3 3,0 0,-3 -3,0 0,3 z m 3,-3 3,0 0,2.99805 3,0 0,3 3,0 0,3 3,0 0,3 12,0 0,-3 -3,0 0,-3 -3,0 0,-3 -3,0 0,-3 -12,0 0,-2.99805 -3,0 0,3 z m 3,-3 3,0 3,0 3,0 0,-9 -3,0 0,3 -3,0 0,3 -3,0 0,3 z m 9,-9 3,0 0,11.99805 3,0 0,3 3,0 0,3 3,0 0,3 3,0 0,-12 -3,0 0,-3 -3,0 0,-3 -3,0 0,-3 -3,0 0,-2.99805 -3,0 0,3 z m 3,-3 3,0 0,-3 -3,0 0,3 z m 3,-3 3,0 0,-3 -3,0 0,3 z m 3,-3 3,0 0,-3 -3,0 0,3 z m 3,-3 3,0 0,-3 -3,0 0,3 z m 0,35.99805 0,3 3,0 0,-3 -3,0 z m -36,3.00195 0,2.99805 -3,0 0,3 -3,0 0,3 -3,0 0,3 -3,0 0,3 -3,0 0,3 -3,0 0,3 -3,0 0,3 -3,0 0,3 -3,0 0,3 -3,0 0,3 -3,0 0,3 -3,0 0,2.99805 6,0 0,-2.99805 3,0 0,-3 3,0 0,3 3,0 0,2.99805 6,0 0,-2.99805 -3,0 0,-3 -3,0 0,-3 3,0 3,0 3,0 0,-9 3,0 0,3 3,0 0,3 3,0 0,9 3,0 0,-9 3,0 0,-3 3,0 0,-3 3,0 0,3 0,3 0,3 9,0 0,3 -3,0 0,3 -3,0 0,2.99805 6,0 0,-2.99805 3,0 0,-3 3,0 0,3 3,0 0,2.99805 6,0 0,-2.9961 3,0 0,-3 -3,0 0,2.99805 -3,0 0,-2.99805 3,0 0,-3 -3,0 0,2.99805 -3,0 0,-2.99805 3,0 0,-3 -3,0 0,2.99805 -3,0 0,-2.99805 3,0 0,-3 -3,0 0,2.99805 -3,0 0,-2.99805 3,0 0,-3 0,-3 0,-3 -9,0 0,2.99805 -3,0 0,-2.99805 3,0 0,-3 -3,0 0,2.99805 -3,0 0,-2.99805 3,0 0,-3 -3,0 0,2.99805 -3,0 0,-2.99805 3,0 0,-3 -3,0 0,2.99805 -3,0 0,-2.99805 3,0 0,-3 -3,0 0,2.99805 -3,0 0,-2.99805 3,0 0,-3 -3,0 z m 15,12 12,0 0,-3 3,0 0,-3 3,0 0,-3 3,0 0,-3 -12,0 0,3 -3,0 0,3 -3,0 0,3 -3,0 0,3 z m 21,-9 0,3 -3,0 0,3 -3,0 0,3 -3,0 0,12 3,0 0,-3 3,0 0,-3 3,0 0,-3 3,0 0,-12 -3,0 z m 0,33 0,2.9961 3,0 0,-2.9961 -3,0 z m -27,-6.00195 -3,0 0,3 3,0 0,-3 z m -3,3 -3,0 0,3 3,0 0,-3 z m -3,3 -3,0 0,2.99805 3,0 0,-2.99805 z m -6,0 -3,0 0,2.99805 3,0 0,-2.99805 z m -3,0 0,-3 -3,0 0,3 3,0 z m -3,-3 0,-3 -3,0 0,3 3,0 z m -27,3 0,-3 -3,0 0,3 3,0 z m -3,0 -3,0 0,2.99805 3,0 0,-2.99805 z m 3,-3 3,0 0,-3 -3,0 0,3 z m 3,-3 3,0 0,-3 -3,0 0,3 z m 3,-3 3,0 0,-3 -3,0 0,-11.99805 -3,0 0,-3 -3,0 0,-3 -3,0 0,-3 -3,0 0,12 3,0 0,3 3,0 0,3 3,0 0,3 3,0 0,2.99805 z m -9,-23.99805 3,0 0,3 3,0 0,3 3,0 0,3 12,0 0,2.99805 3,0 0,-3 -3,0 0,-2.99805 -3,0 0,-3 -3,0 0,-3 -3,0 0,-3 -12,0 0,3 z m 24,8.99805 3,0 0,-3 -3,0 0,3 z m 3,-3 3,0 0,-3 -3,0 0,3 z m 3,-3 3,0 0,-3 -3,0 0,3 z m -9,9 -9,0 0,3 0,3 0,3 3,0 0,-3 3,0 0,-3 3,0 0,-3 z m 0,-30 -12,0 0,3 -3,0 0,3 -3,0 0,3 -3,0 0,3 12,0 0,-3 3,0 0,-3 3,0 0,-3 3,0 0,-3 z m -21,12 -3,0 0,3 3,0 0,-3 z m -3,3 -3,0 0,3 3,0 0,-3 z m 0,-3 0,-3 -3,0 0,3 3,0 z m 0,-3 3,0 0,-3 3,0 0,-3 3,0 0,-3 3,0 0,-12 -3,0 0,3 -3,0 0,3 -3,0 0,3 -3,0 0,12 z m 12,-54 0,-12 -3,0 0,-3 -3,0 0,-3 -3,0 0,-3 -3,0 0,12 3,0 0,3 3,0 0,3 3,0 0,3 3,0 z m -9,-21 3,0 0,3 3,0 0,3 3,0 0,3 12,0 0,-3 -3,0 0,-3 -3,0 0,-3 -3,0 0,-3 -12,0 0,3 z m 33,-9 0,-3 -3,0 0,3 3,0 z m -3,-3 0,-3 -3,0 0,3 3,0 z m -3,-3 0,-3 -3,0 0,3 3,0 z m -3,-3 0,-3 -3,0 0,2.99805 -12,0 0,3 -3,0 0,3 -3,0 0,3 -3,0 0,3 12,0 0,-3 3,0 0,-3 3,0 0,-3 3,0 0,-2.99805 3,0 z m -24,11.99805 -3,0 0,3 3,0 0,-3 z m -3,3 -3,0 0,3 3,0 0,-3 z m 0,-3 0,-3 -3,0 0,3 3,0 z m 0,-3 3,0 0,-3 3,0 0,-3 3,0 0,-3 3,0 0,-11.99805 3,0 0,-3 -3,0 0,2.99805 -3,0 0,3 -3,0 0,3 -3,0 0,3 -3,0 0,12 z m 12,-23.99805 0,-3 -3,0 0,3 3,0 z m -3,-3 0,-3 -3,0 0,3 3,0 z m -3,-3 0,-3 -3,0 0,3 3,0 z m -3,-3 0,-3 -3,0 0,3 3,0 z m -3,-3 0,-3 -3,0 0,3 3,0 z m 15,15 0,9 3,0 3,0 3,0 0,-3 -3,0 0,-3 -3,0 0,-3 -3,0 z m -102,-18 0,3 3,0 0,-3 -3,0 z m 48,0 0,3 3,0 0,-3 -3,0 z m 54,0 0,3 3,0 0,-3 -3,0 z m 48,0 0,3 3,0 0,-3 -3,0 z m -75,3 0,3 -3,0 0,3 3,0 0,3 3,0 0,-3 3,0 0,-3 -3,0 0,-3 -3,0 z m 3,9 0,3 -3,0 0,-3 -3,0 0,3 0,3 0,3 3,0 0,-3 3,0 0,3 3,0 0,-9 -3,0 z m 0,9 -3,0 0,3 -3,0 0,3 3,0 0,3 3,0 0,-3 3,0 0,-3 -3,0 0,-3 z m 0,9 0,3 -3,0 0,-3 -3,0 0,3 0,3 0,3 3,0 0,2.99805 -3,0 0,3 3,0 0,3 3,0 0,-3 3,0 0,-3 -3,0 0,-2.99805 3,0 0,-9 -3,0 z m 0,17.99805 0,3 -3,0 0,-3 -3,0 0,3 0,3 0,3 3,0 0,-3 3,0 0,3 3,0 0,-9 -3,0 z m -96,-39 0,6 3,0 0,3 -3,0 0,6 3,0 0,-3 3,0 0,-3 3,0 0,-3 -3,0 0,-3 -3,0 0,-3 -3,0 z m 102,0 0,6 3,0 0,3 -3,0 0,6 3,0 0,-3 3,0 0,-3 3,0 0,-3 -3,0 0,-3 -3,0 0,-3 -3,0 z m -18,0.002 0,3 -3,0 0,3 -3,0 0,3 3,0 0,3 3,0 0,3 3,0 0,-6 -3,0 0,-3 3,0 0,-6 -3,0 z m 99,3 0,3 -3,0 0,3 3,0 0,3 3,0 0,-3 0,-3 0,-3 -3,0 z m -141,6 3,0 0,3 3,0 0,3 3,0 0,3 -3,0 0,3 -3,0 0,3 -3,0 0,-3 -3,0 0,-3 -3,0 0,-3 3,0 0,-3 3,0 0,-3 z m 21,0 3,0 0,2.99805 -3,0 0,-2.99805 z m 81,0 3,0 0,3 3,0 0,3 3,0 0,3 -3,0 0,3 -3,0 0,3 -3,0 0,-3 -3,0 0,-3 -3,0 0,-3 3,0 0,-3 3,0 0,-3 z m -84,3 3,0 0,2.99805 -3,0 0,-2.99805 z m -18,3 0,3 3,0 0,-3 -3,0 z m 102,0 0,3 3,0 0,-3 -3,0 z m -117,11.99805 0,3 -3,0 0,3 -3,0 0,3 3,0 0,3 3,0 0,3 3,0 0,-3 3,0 0,-3 3,0 0,-3 -3,0 0,-3 -3,0 0,-3 -3,0 z m 30,0 0,3 -3,0 0,3 -3,0 0,3 3,0 0,3 3,0 0,3 3,0 0,-3 3,0 0,-3 3,0 0,-3 -3,0 0,-3 -3,0 0,-3 -3,0 z m 72,0 0,3 -3,0 0,3 -3,0 0,3 3,0 0,3 3,0 0,3 3,0 0,-3 3,0 0,-3 3,0 0,-3 -3,0 0,-3 -3,0 0,-3 -3,0 z m -36,0.002 3,0 0,2.99805 -3,0 0,-2.99805 z m 66,0 0,3 -3,0 0,3 -3,0 0,3 3,0 0,3 3,0 0,3 3,0 0,-3 3,0 0,-3 3,0 0,-3 -3,0 0,-3 -3,0 0,-3 -3,0 z m -132,5.99805 3,0 0,3 -3,0 0,-3 z m 30,0 3,0 0,3 -3,0 0,-3 z m 72,0 3,0 0,3 -3,0 0,-3 z m 30,0.002 3,0 0,3 -3,0 0,-3 z m -15,11.99805 3,0 0,3 3,0 0,3 3,0 0,3 -3,0 0,3 -3,0 0,3 -3,0 0,-3 -3,0 0,-3 -3,0 0,-3 3,0 0,-3 3,0 0,-3 z m -102,0.002 3,0 0,3 3,0 0,3 3,0 0,3 -3,0 0,3 -3,0 0,3 -3,0 0,-3 -3,0 0,-3 -3,0 0,-3 3,0 0,-3 3,0 0,-3 z m 51,3 0,3 -3,0 0,3 3,0 0,3 3,0 0,-3 3,0 0,-3 -3,0 0,-3 -3,0 z m 3,9 0,3 -3,0 0,-3 -3,0 0,3 0,3 0,3 3,0 0,-3 3,0 0,3 3,0 0,-9 -3,0 z m 0,9 -3,0 0,3 -3,0 0,3 3,0 0,3 3,0 0,-3 3,0 0,-3 -3,0 0,-3 z m 0,9 0,3 -3,0 0,-3 -3,0 0,3 0,3 0,3 3,0 0,-3 3,0 0,3 3,0 0,-9 -3,0 z m 0,9 -3,0 0,3 -3,0 0,3 3,0 0,3 3,0 0,-3 3,0 0,-3 -3,0 0,-3 z m 0,9 0,3 -3,0 0,-3 -3,0 0,3 0,3 0,3 3,0 0,-3 3,0 0,3 3,0 0,-9 -3,0 z m 0,9 -3,0 0,3 -3,0 0,3 3,0 0,3 3,0 0,-3 3,0 0,-3 -3,0 0,-3 z m 0,9 0,3 -3,0 0,-3 -3,0 0,3 0,3 0,3 3,0 0,-3 3,0 0,3 3,0 0,-9 -3,0 z m 0,9 -3,0 0,3 -3,0 0,3 3,0 0,3 3,0 0,-3 3,0 0,-3 -3,0 0,-3 z m 0,9 0,3 -3,0 0,-3 -3,0 0,3 0,3 0,3 3,0 0,-3 3,0 0,3 3,0 0,-9 -3,0 z m 0,9 -3,0 0,3 -3,0 0,3 3,0 0,3 3,0 0,-3 3,0 0,-3 -3,0 0,-3 z m 0,9 0,3 -3,0 0,-3 -3,0 0,3 0,3 0,3 3,0 0,-3 3,0 0,3 3,0 0,-9 -3,0 z m 0,9 -3,0 0,2.99805 3,0 0,-2.99805 z m 48,-105.00195 0,3 3,0 0,-3 -3,0 z m -102,0.002 0,3 3,0 0,-3 -3,0 z m -42,2.99805 0,6 3,0 0,3 -3,0 0,6 3,0 0,-3 3,0 0,-3 3,0 0,-3 -3,0 0,-3 -3,0 0,-3 -3,0 z m 84,0 0,3 -3,0 0,3 -3,0 0,3 3,0 0,3 3,0 0,3 3,0 0,-6 -3,0 0,-3 3,0 0,-6 -3,0 z m 18,0 0,6 3,0 0,3 -3,0 0,6 3,0 0,-3 3,0 0,-3 3,0 0,-3 -3,0 0,-3 -3,0 0,-3 -3,0 z m 24,0.002 3,0 0,2.99805 -3,0 0,-2.99805 z m 36,0.002 3,0 0,2.9961 -3,0 0,-2.9961 z m -27,2.9961 3,0 0,3 3,0 0,3 3,0 0,9 3,0 0,-9 3,0 0,-3 3,0 0,-3 3,0 0,3 0,3 0,3 9,0 0,3 -3,0 0,3 -3,0 0,3 -9,0 0,3 9,0 0,3 3,0 0,3 3,0 0,3 -3,0 -3,0 -3,0 0,9 -3,0 0,-3 -3,0 0,-3 -3,0 0,-9 -3,0 0,9 -3,0 0,3 -3,0 0,3 -3,0 0,-3 0,-3 0,-3 -9,0 0,-3 3,0 0,-3 3,0 0,-3 9,0 0,-3 -9,0 0,-3 -3,0 0,-3 -3,0 0,-3 3,0 3,0 3,0 0,-9 z m 0,9 0,3 3,0 0,-3 -3,0 z m 3,3 0,3 3,0 0,-3 -3,0 z m 3,3 0,3 3,0 0,-3 -3,0 z m 3,3 0,3 3,0 0,-3 -3,0 z m 3,0 3,0 0,-3 -3,0 0,3 z m 3,-3 3,0 0,-3 -3,0 0,3 z m 3,-3 3,0 0,-3 -3,0 0,3 z m -6,9 0,3 3,0 0,-3 -3,0 z m 3,3 0,3 3,0 0,-3 -3,0 z m 3,3 0,3 3,0 0,-3 -3,0 z m -9,-6 -3,0 0,3 3,0 0,-3 z m -3,3 -3,0 0,3 3,0 0,-3 z m -3,3 -3,0 0,3 3,0 0,-3 z m -105,-26.99805 3,0 0,3 3,0 0,3 3,0 0,9 3,0 0,-9 3,0 0,-3 3,0 0,-3 3,0 0,3 0,3 0,3 9,0 0,3 -3,0 0,3 -3,0 0,3 -9,0 0,3 9,0 0,3 3,0 0,3 3,0 0,3 -3,0 -3,0 -3,0 0,9 -3,0 0,-3 -3,0 0,-3 -3,0 0,-9 -3,0 0,9 -3,0 0,3 -3,0 0,3 -3,0 0,-3 0,-3 0,-3 -9,0 0,-3 3,0 0,-3 3,0 0,-3 9,0 0,-3 -9,0 0,-3 -3,0 0,-3 -3,0 0,-3 3,0 3,0 3,0 0,-9 z m 0,9 0,3 3,0 0,-3 -3,0 z m 3,3 0,3 3,0 0,-3 -3,0 z m 3,3 0,3 3,0 0,-3 -3,0 z m 3,3 0,3 3,0 0,-3 -3,0 z m 3,0 3,0 0,-3 -3,0 0,3 z m 3,-3 3,0 0,-3 -3,0 0,3 z m 3,-3 3,0 0,-3 -3,0 0,3 z m -6,9 0,3 3,0 0,-3 -3,0 z m 3,3 0,3 3,0 0,-3 -3,0 z m 3,3 0,3 3,0 0,-3 -3,0 z m -9,-6 -3,0 0,3 3,0 0,-3 z m -3,3 -3,0 0,3 3,0 0,-3 z m -3,3 -3,0 0,3 3,0 0,-3 z m 87,-27 3,0 0,2.99805 -3,0 0,-2.99805 z m 60,0 0,3 -3,0 0,3 3,0 0,3 3,0 0,-3 0,-3 0,-3 -3,0 z m -18,0.002 3,0 0,2.9961 -3,0 0,-2.9961 z m -45,11.9961 3,0 0,3 3,0 0,3 3,0 0,3 -3,0 0,3 -3,0 0,3 -3,0 0,-3 -3,0 0,-3 -3,0 0,-3 3,0 0,-3 3,0 0,-3 z m 48,0 3,0 0,3 3,0 0,3 3,0 0,3 -3,0 0,3 -3,0 0,3 -3,0 0,-3 -3,0 0,-3 -3,0 0,-3 3,0 0,-3 3,0 0,-3 z m -150,0.002 3,0 0,3 3,0 0,3 3,0 0,3 -3,0 0,3 -3,0 0,3 -3,0 0,-3 -3,0 0,-3 -3,0 0,-3 3,0 0,-3 3,0 0,-3 z m 48,0 3,0 0,3 3,0 0,3 3,0 0,3 -3,0 0,3 -3,0 0,3 -3,0 0,-3 -3,0 0,-3 -3,0 0,-3 3,0 0,-3 3,0 0,-3 z m 54,5.99805 0,3 3,0 0,-3 -3,0 z m 48,0 0,3 3,0 0,-3 -3,0 z m -150,0.002 0,3 3,0 0,-3 -3,0 z m 48,0 0,3 3,0 0,-3 -3,0 z m -66,9 0,6 3,0 0,3 -3,0 0,6 3,0 0,-3 3,0 0,-3 3,0 0,-3 -3,0 0,-3 -3,0 0,-3 -3,0 z m 84,0 0,3 -3,0 0,3 -3,0 0,3 3,0 0,3 3,0 0,3 3,0 0,-6 -3,0 0,-3 3,0 0,-6 -3,0 z m 18,0 0,6 3,0 0,3 -3,0 0,6 3,0 0,-3 3,0 0,-3 3,0 0,-3 -3,0 0,-3 -3,0 0,-3 -3,0 z m 81,3 0,3 -3,0 0,3 3,0 0,3 3,0 0,-3 0,-3 0,-3 -3,0 z m -39,5.99805 3,0 0,3 3,0 0,3 3,0 0,3 -3,0 0,3 -3,0 0,3 -3,0 0,-3 -3,0 0,-3 -3,0 0,-3 3,0 0,-3 3,0 0,-3 z m -102,0.002 3,0 0,3 3,0 0,3 3,0 0,3 -3,0 0,3 -3,0 0,3 -3,0 0,-3 -3,0 0,-3 -3,0 0,-3 3,0 0,-3 3,0 0,-3 z m 102,5.99805 0,3 3,0 0,-3 -3,0 z m -102,0.002 0,3 3,0 0,-3 -3,0 z m -15,12 0,3 -3,0 0,3 -3,0 0,3 3,0 0,3 3,0 0,3 3,0 0,-3 3,0 0,-3 3,0 0,-3 -3,0 0,-3 -3,0 0,-3 -3,0 z m 30,0 0,3 -3,0 0,3 -3,0 0,3 3,0 0,3 3,0 0,3 3,0 0,-3 3,0 0,-3 3,0 0,-3 -3,0 0,-3 -3,0 0,-3 -3,0 z m 72,0 0,3 -3,0 0,3 -3,0 0,3 3,0 0,3 3,0 0,3 3,0 0,-3 3,0 0,-3 3,0 0,-3 -3,0 0,-3 -3,0 0,-3 -3,0 z m 30,0 0,3 -3,0 0,3 -3,0 0,3 3,0 0,3 3,0 0,3 3,0 0,-3 3,0 0,-3 3,0 0,-3 -3,0 0,-3 -3,0 0,-3 -3,0 z m -132,6 3,0 0,3 -3,0 0,-3 z m 30,0 3,0 0,3 -3,0 0,-3 z m 72,0 3,0 0,3 -3,0 0,-3 z m 30,0 3,0 0,3 -3,0 0,-3 z m -117,12 3,0 0,3 3,0 0,3 3,0 0,3 -3,0 0,3 -3,0 0,3 -3,0 0,-3 -3,0 0,-3 -3,0 0,-3 3,0 0,-3 3,0 0,-3 z m 102,0 3,0 0,3 3,0 0,3 3,0 0,3 -3,0 0,3 -3,0 0,3 -3,0 0,-3 -3,0 0,-3 -3,0 0,-3 3,0 0,-3 3,0 0,-3 z m -102,6 0,3 3,0 0,-3 -3,0 z m 102,0 0,3 3,0 0,-3 -3,0 z m -144,3 0,6 3,0 0,3 -3,0 0,6 3,0 0,-3 3,0 0,-3 3,0 0,-3 -3,0 0,-3 -3,0 0,-3 -3,0 z m 84,0 0,3 -3,0 0,3 -3,0 0,3 3,0 0,3 3,0 0,3 3,0 0,-6 -3,0 0,-3 3,0 0,-6 -3,0 z m 18,0 0,6 3,0 0,3 -3,0 0,6 3,0 0,-3 3,0 0,-3 3,0 0,-3 -3,0 0,-3 -3,0 0,-3 -3,0 z m -78,0.002 3,0 0,2.99805 -3,0 0,-2.99805 z m 138,0 3,0 0,2.99805 -3,0 0,-2.99805 z m 21,2.99805 0,3 -3,0 0,3 3,0 0,3 3,0 0,-3 0,-3 0,-3 -3,0 z m -162,0.002 3,0 0,2.99805 -3,0 0,-2.99805 z m 144,0 3,0 0,2.99805 -3,0 0,-2.99805 z"
         style="color:#000000;clip-rule:nonzero;display:inline;overflow:visible;visibility:visible;opacity:1;isolation:auto;mix-blend-mode:normal;color-interpolation:sRGB;color-interpolation-filters:linearRGB;solid-color:#000000;solid-opacity:1;fill:#ff2a2a;fill-opacity:1;fill-rule:evenodd;stroke:none;stroke-width:1px;stroke-linecap:butt;stroke-linejoin:miter;stroke-miterlimit:4;stroke-dasharray:none;stroke-dashoffset:0;stroke-opacity:1;color-rendering:auto;image-rendering:auto;shape-rendering:auto;text-rendering:auto;enable-background:accumulate" />
      <path
         style="color:#000000;clip-rule:nonzero;display:inline;overflow:visible;visibility:visible;opacity:1;isolation:auto;mix-blend-mode:normal;color-interpolation:sRGB;color-interpolation-filters:linearRGB;solid-color:#000000;solid-opacity:1;fill:#ff2a2a;fill-opacity:1;fill-rule:evenodd;stroke:none;stroke-width:1px;stroke-linecap:butt;stroke-linejoin:miter;stroke-miterlimit:4;stroke-dasharray:none;stroke-dashoffset:0;stroke-opacity:1;color-rendering:auto;image-rendering:auto;shape-rendering:auto;text-rendering:auto;enable-background:accumulate"
         d="m 654,240.50507 0,0.002 -3,0 0,3 3,0 0,3 3,0 0,3 3,0 0,3 3,0 0,3 3,0 0,3 3,0 0,3 3,0 0,3 3,0 0,3 3,0 0,3 3,0 0,3 3,0 0,3 3,0 0,3 3,0 0,2.99805 3,0 0,-3 -3,0 0,-2.99805 3,0 0,2.99805 3,0 0,-3 -3,0 0,-2.99805 3,0 0,2.99805 3,0 0,-3 -3,0 0,-2.99805 3,0 0,2.99805 3,0 0,-3 -3,0 0,-2.99805 3,0 0,2.99805 3,0 0,-3 -3,0 0,-2.99805 3,0 0,2.99805 3,0 3,0 3,0 0,-9 -3,0 0,-2.99805 3,0 0,2.99805 3,0 0,-3 -3,0 0,-2.99805 3,0 0,2.99805 3,0 0,-3 -3,0 0,-2.99805 3,0 0,2.99805 3,0 0,-3 -3,0 0,-2.99805 3,0 0,2.99805 3,0 0,-3 -3,0 0,-2.99805 3,0 0,2.99805 3,0 0,-3 -3,0 0,-2.99805 -3,0 0,-0.002 -6,0 0,0.002 3,0 0,3 -3,0 0,3 -3,0 0,3 -3,0 0,-3 -3,0 0,-3 -3,0 0,-3 3,0 0,-0.002 -6,0 0,0.002 -9,0 0,3 9,0 0,3 3,0 0,3 3,0 0,3 -3,0 -3,0 -3,0 0,9 -3,0 0,-3 -3,0 0,-3 -3,0 0,-9 -3,0 0,9 -3,0 0,3 -3,0 0,3 -3,0 0,-3 0,-3 0,-3 -9,0 0,-3 3,0 0,-3 3,0 0,-3 9,0 0,-3 -9,0 0,-0.002 -6,0 0,0.002 3,0 0,3 -3,0 0,3 -3,0 0,3 -3,0 0,-3 -3,0 0,-3 -3,0 0,-3 3,0 0,-0.002 -6,0 z m 30,0.002 3,0 0,-0.002 -3,0 0,0.002 z m 3,0 0,3 3,0 0,-3 -3,0 z m 3,0 3,0 0,-0.002 -3,0 0,0.002 z m 0,3 0,3 3,0 0,-3 -3,0 z m 3,3 0,3 3,0 0,-3 -3,0 z m 3,3 0,3 3,0 0,-3 -3,0 z m -9,-6 -3,0 0,3 3,0 0,-3 z m -3,3 -3,0 0,3 3,0 0,-3 z m -3,3 -3,0 0,3 3,0 0,-3 z m 48,-6.00195 3,0 0,-3 -3,0 0,3 z m -12,15 0,12 3,0 0,3 3,0 0,3 3,0 0,3 3,0 0,-12 -3,0 0,-3 -3,0 0,-3 -3,0 0,-3 -3,0 z m 12,21 0,3 3,0 0,-3 -3,0 z m 0,3 -3,0 0,3 3,0 0,-3 z m 0,3 0,3 3,0 0,-3 -3,0 z m -3,-3 0,-3 -3,0 0,-3 -3,0 0,-3 -3,0 0,-3 -12,0 0,3 3,0 0,3 3,0 0,3 3,0 0,3 12,0 z m -36,0 -3,0 0,-2.99805 -3,0 0,3 3,0 0,3 3,0 0,2.99805 3,0 0,-3 -3,0 0,-2.99805 0,-0.002 z m 3,6 0,3 3,0 0,-3 -3,0 z m 3,3 0,3 3,0 0,-3 -3,0 z m 3,3 0,3 3,0 0,-3 -3,0 z m 3,3 0,3 3,0 0,-2.99805 12,0 0,-3 3,0 0,-3 3,0 0,-3 3,0 0,-3 -12,0 0,3 -3,0 0,3 -3,0 0,3 -3,0 0,2.99805 -3,0 z m 24,-8.99805 0,3 -3,0 0,3 -3,0 0,3 -3,0 0,11.99805 -3,0 0,3 3,0 0,-2.99805 3,0 0,-3 3,0 0,-3 3,0 0,-3 3,0 0,-12 -3,0 z m -9,23.99805 0,3 3,0 0,-3 -3,0 z m 3,3 0,3 3,0 0,-3 -3,0 z m 3,3 0,3 3,0 0,-3 -3,0 z m 3,3 0,3 3,0 0,-3 -3,0 z m 3,3 0,0.002 0,2.99805 0,0.002 3,0 0,-0.002 0,-2.99805 0,-0.002 -3,0 z m 0,3.00195 -3,0 0,3 3,0 0,-3 z m -3,3 -3,0 0,3 3,0 0,-3 z m -3,3 -3,0 0,3 3,0 0,-3 z m -3,3 -3,0 0,3 3,0 0,-3 z m -3,3 -3,0 0,3 3,0 0,-3 z m 0,3 0,12 3,0 0,3 3,0 0,3 3,0 0,3 3,0 0,-12 -3,0 0,-3 -3,0 0,-3 -3,0 0,-3 -3,0 z m 12,21 0,3 3,0 0,-3 -3,0 z m 0,3 -3,0 0,3 3,0 0,-3 z m 0,3 0,3 3,0 0,-3 -3,0 z m -3,-3 0,-3 -3,0 0,-3 -3,0 0,-3 -3,0 0,-3 -12,0 0,3 3,0 0,3 3,0 0,3 3,0 0,3 12,0 z m -21,-12 0,-3 -3,0 0,3 3,0 z m -3,0 -3,0 0,3 3,0 0,-3 z m -3,3 -3,0 0,3 3,0 0,-3 z m -3,3 -3,0 0,3 3,0 0,-3 z m -3,3 -3,0 0,3 3,0 0,-3 z m -3,3 -3,0 0,-2.99805 -3,0 0,3 3,0 0,3 3,0 0,2.99805 3,0 0,-3 -3,0 0,-2.99805 0,-0.002 z m 3,6 0,3 3,0 0,-3 -3,0 z m 3,3 0,3 3,0 0,-3 -3,0 z m 3,3 0,3 3,0 0,-3 -3,0 z m 3,3 0,3 3,0 0,-2.99805 12,0 0,-3 3,0 0,-3 3,0 0,-3 3,0 0,-3 -12,0 0,3 -3,0 0,3 -3,0 0,3 -3,0 0,2.99805 -3,0 z m 24,-8.99805 0,3 -3,0 0,3 -3,0 0,3 -3,0 0,11.99805 -3,0 0,3 3,0 0,-2.99805 3,0 0,-3 3,0 0,-3 3,0 0,-3 3,0 0,-12 -3,0 z m -9,23.99805 0,3 3,0 0,-3 -3,0 z m 3,3 0,3 3,0 0,-3 -3,0 z m 3,3 0,3 3,0 0,-3 -3,0 z m 3,3 0,2.99805 3,0 0,-2.99805 -3,0 z m -3,0 -3,0 0,-3 -3,0 0,-3 -3,0 0,-3 -3,0 0,-3 -3,0 0,-3 -3,0 0,-3 -3,0 0,-3 -3,0 0,-3 -3,0 0,-3 -3,0 0,-3 -3,0 0,-3 -3,0 0,-2.99805 -3,0 0,3 3,0 0,2.99805 -3,0 0,-2.99805 -3,0 0,3 3,0 0,2.99805 -3,0 0,-2.99805 -3,0 0,3 3,0 0,2.99805 -3,0 0,-2.99805 -3,0 0,3 3,0 0,2.99805 -3,0 0,-2.99805 -3,0 0,3 3,0 0,2.99805 -3,0 0,-2.99805 -9,0 0,3 0,3 0,3 3,0 0,2.99805 -3,0 0,-2.99805 -3,0 0,3 3,0 0,2.99805 -3,0 0,-2.99805 -3,0 0,3 3,0 0,2.99805 -3,0 0,-2.99805 -3,0 0,3 3,0 0,2.99805 -3,0 0,-2.99805 -3,0 0,3 3,0 0,2.9961 6,0 0,-2.99805 3,0 0,-3 3,0 0,3 3,0 0,2.99805 6,0 0,-2.99805 -3,0 0,-3 -3,0 0,-3 3,0 3,0 3,0 0,-9 3,0 0,3 3,0 0,3 3,0 0,9 3,0 0,-9 3,0 0,-3 3,0 0,-3 3,0 0,3 0,3 0,3 9,0 0,3 -3,0 0,3 -3,0 0,2.99805 6,0 0,-2.99805 3,0 0,-3 3,0 0,3 3,0 0,2.99805 6,0 0,-2.99805 z m -24,-6 -3,0 0,3 3,0 0,-3 z m -3,3 -3,0 0,3 3,0 0,-3 z m -3,3 -3,0 0,2.99805 3,0 0,-2.99805 z m -6,0 -3,0 0,2.99805 3,0 0,-2.99805 z m -3,0 0,-3 -3,0 0,3 3,0 z m -3,-3 0,-3 -3,0 0,3 3,0 z m -30,3.00195 -3,0 0,2.9961 3,0 0,-2.9961 z m 9,-12 0,-12 -3,0 0,-3 -3,0 0,-3 -3,0 0,-3 -3,0 0,12 3,0 0,3 3,0 0,3 3,0 0,3 3,0 z m -9,-21 3,0 0,3 3,0 0,3 3,0 0,3 12,0 0,-3 -3,0 0,-3 -3,0 0,-3 -3,0 0,-3 -12,0 0,3 z m 54,14.99805 3,0 0,3 3,0 0,3 3,0 0,-3 0,-3 0,-3 -9,0 0,3 z m -21,-23.99805 0,-3 -3,0 0,3 3,0 z m -3,-3 0,-3 -3,0 0,3 3,0 z m -3,-3 0,-3 -3,0 0,3 3,0 z m -3,-3 0,-3 -3,0 0,2.99805 -12,0 0,3 -3,0 0,3 -3,0 0,3 -3,0 0,3 12,0 0,-3 3,0 0,-3 3,0 0,-3 3,0 0,-2.99805 3,0 z m -24,11.99805 -3,0 0,3 3,0 0,-3 z m -3,3 -3,0 0,3 3,0 0,-3 z m 0,-3 0,-3 -3,0 0,3 3,0 z m 0,-3 3,0 0,-3 3,0 0,-3 3,0 0,-3 3,0 0,-11.99805 3,0 0,-3 -3,0 0,2.99805 -3,0 0,3 -3,0 0,3 -3,0 0,3 -3,0 0,12 z m 12,-23.99805 0,-3 -3,0 0,3 3,0 z m -3,-3 0,-3 -3,0 0,3 3,0 z m -3,-3 0,-3 -3,0 0,3 3,0 z m -3,-3 0,-3 -3,0 0,3 3,0 z m -3,-3 0,-0.002 0,-2.99805 0,-0.002 -3,0 0,0.002 0,2.99805 0,0.002 3,0 z m 0,-3.00195 3,0 0,-3 -3,0 0,3 z m 3,-3 3,0 0,-3 -3,0 0,3 z m 3,-3 3,0 0,-3 -3,0 0,3 z m 3,-3 3,0 0,-3 -3,0 0,3 z m 3,-3 3,0 0,-3 -3,0 0,3 z m 0,-3 0,-12 -3,0 0,-3 -3,0 0,-3 -3,0 0,-3 -3,0 0,12 3,0 0,3 3,0 0,3 3,0 0,3 3,0 z m -9,-21 3,0 0,3 3,0 0,3 3,0 0,3 12,0 0,-3 -3,0 0,-3 -3,0 0,-3 -3,0 0,-3 -12,0 0,3 z m 21,9 0,3 3,0 0,-3 -3,0 z m 3,0 3,0 0,-3 -3,0 0,3 z m 3,-3 3,0 0,-3 -3,0 0,3 z m 3,-3 3,0 0,-3 -3,0 0,3 z m 3,-3 3,0 0,-3 -3,0 0,3 z m 3,0 0,3 -3,0 0,3 -3,0 0,3 -3,0 0,3 -3,0 0,3 -3,0 0,3 -3,0 0,3 -3,0 0,3 -3,0 0,3 -3,0 0,3 -3,0 0,3 -3,0 0,3 -3,0 0,3 3,0 0,3 3,0 0,3 3,0 0,3 3,0 0,3 3,0 0,3 3,0 0,3 3,0 0,3 3,0 0,3 3,0 0,3 3,0 0,3 3,0 0,3 3,0 0,3 3,0 0,-3 3,0 0,-3 3,0 0,-3 3,0 0,-3 3,0 0,-3 3,0 0,-3 3,0 0,-3 3,0 0,-3 3,0 0,-3 3,0 0,-3 3,0 0,-3 3,0 0,-3 3,0 0,-3 -3,0 0,-3 -3,0 0,-3 -3,0 0,-3 -3,0 0,-3 -3,0 0,-3 -3,0 0,-3 -3,0 0,-3 -3,0 0,-3 -3,0 0,-3 -3,0 0,-3 -3,0 0,-3 -3,0 0,-3 -3,0 z m 24,54 0,3 -3,0 0,3 -3,0 0,3 3,0 3,0 3,0 0,-9 -3,0 z m -45,-33 0,-3 3,0 0,-3 3,0 0,-3 -9,0 0,3 0,3 0,3 3,0 z m -3,33.00195 0,9 3,0 3,0 3,0 0,-3 -3,0 0,-3 -3,0 0,-3 -3,0 z m 51,-33.0039 0,-3 0,-3 0,-3 -9,0 0,3 3,0 0,3 3,0 0,3 3,0 z m -30,-29.99805 0,-3 -3,0 0,3 3,0 z m -3,-3 0,-3 -3,0 0,3 3,0 z m -3,-3 0,-3 -3,0 0,3 3,0 z m -3,-3 0,-3 -3,0 0,2.99805 -12,0 0,3 -3,0 0,3 -3,0 0,3 -3,0 0,3 12,0 0,-3 3,0 0,-3 3,0 0,-3 3,0 0,-2.99805 3,0 z m -24,11.99805 -3,0 0,3 3,0 0,-3 z m -3,3 -3,0 0,3 3,0 0,-3 z m 0,-3 0,-3 -3,0 0,3 3,0 z m 0,-3 3,0 0,-3 3,0 0,-3 3,0 0,-3 3,0 0,-11.99805 3,0 0,-3 -3,0 0,2.99805 -3,0 0,3 -3,0 0,3 -3,0 0,3 -3,0 0,12 z m 12,-23.99805 0,-3 -3,0 0,3 3,0 z m -3,-3 0,-3 -3,0 0,3 3,0 z m -3,-3 0,-3 -3,0 0,3 3,0 z m -3,-3 0,-3 -3,0 0,3 3,0 z m -3,-3 0,-3 -3,0 0,3 3,0 z m 15,15 0,9 3,0 3,0 3,0 0,-3 -3,0 0,-3 -3,0 0,-3 -3,0 z m 72,-18.00195 0,3 3,0 0,-3 -3,0 z m 6,0 0,3 3,0 0,-3 -3,0 z m 15,0 0,0.002 -3,0 0,3 3,0 0,3 3,0 0,3 3,0 0,3 3,0 0,3 3,0 0,3 3,0 0,3 3,0 0,3 3,0 0,3 3,0 0,3 3,0 0,3 3,0 0,3 3,0 0,3 3,0 0,-3 3,0 0,-3 3,0 0,-3 3,0 0,-3 3,0 0,-3 3,0 0,-3 3,0 0,-3 3,0 0,-3 3,0 0,-3 3,0 0,-3 3,0 0,-3 3,0 0,-3 3,0 0,-3 -3,0 0,-0.002 -6,0 0,0.002 3,0 0,3 -3,0 0,3 -3,0 0,3 -3,0 0,-3 -3,0 0,-3 -3,0 0,-3 3,0 0,-0.002 -6,0 0,0.002 -9,0 0,3 9,0 0,3 3,0 0,3 3,0 0,3 -3,0 -3,0 -3,0 0,9 -3,0 0,-3 -3,0 0,-3 -3,0 0,-9 -3,0 0,9 -3,0 0,3 -3,0 0,3 -3,0 0,-3 0,-3 0,-3 -9,0 0,-3 3,0 0,-3 3,0 0,-3 9,0 0,-3 -9,0 0,-0.002 -6,0 0,0.002 3,0 0,3 -3,0 0,3 -3,0 0,3 -3,0 0,-3 -3,0 0,-3 -3,0 0,-3 3,0 0,-0.002 -6,0 z m 30,0.002 3,0 0,-0.002 -3,0 0,0.002 z m 3,0 0,3 3,0 0,-3 -3,0 z m 3,0 3,0 0,-0.002 -3,0 0,0.002 z m 0,3 0,3 3,0 0,-3 -3,0 z m 3,3 0,3 3,0 0,-3 -3,0 z m 3,3 0,3 3,0 0,-3 -3,0 z m -9,-6 -3,0 0,3 3,0 0,-3 z m -3,3 -3,0 0,3 3,0 0,-3 z m -3,3 -3,0 0,3 3,0 0,-3 z m 6,30 -3,0 0,3 3,0 0,-3 z m 0,3 0,0.002 0,2.99805 -3,0 0,3 3,0 0,2.99805 -3,0 0,-2.99805 -3,0 0,3 3,0 0,2.99805 -3,0 0,-2.99805 -3,0 0,3 3,0 0,2.99805 -3,0 0,-2.99805 -3,0 0,3 3,0 0,2.99805 -3,0 0,-2.99805 -3,0 0,3 3,0 0,2.99805 -3,0 0,-2.99805 -9,0 0,3 0,3 0,3 3,0 0,2.99805 -3,0 0,-2.99805 -3,0 0,3 3,0 0,2.99805 -3,0 0,-2.99805 -3,0 0,3 3,0 0,2.99805 -3,0 0,-2.99805 -3,0 0,3 3,0 0,2.99805 -3,0 0,-2.99805 -3,0 0,3 3,0 0,2.99805 -3,0 0,-2.99805 -3,0 0,3 3,0 0,2.99805 3,0 0,3 3,0 0,3 3,0 0,3 3,0 0,3 3,0 0,3 3,0 0,3 3,0 0,3 3,0 0,3 3,0 0,3 3,0 0,3 3,0 0,3 3,0 0,3 3,0 0,-3 3,0 0,-3 3,0 0,-3 3,0 0,-3 3,0 0,-3 3,0 0,-3 3,0 0,-3 3,0 0,-3 3,0 0,-3 3,0 0,-3 3,0 0,-3 3,0 0,-3 3,0 0,-2.9961 3,0 0,-3 -3,0 0,2.9961 -3,0 0,-2.9961 3,0 0,-3 -3,0 0,2.9961 -3,0 0,-2.9961 3,0 0,-3 -3,0 0,2.9961 -3,0 0,-2.9961 3,0 0,-3 -3,0 0,2.9961 -3,0 0,-2.9961 3,0 0,-3 -3,0 0,2.9961 -3,0 0,-2.9961 3,0 0,-3 0,-3 0,-3 -9,0 0,2.9961 -3,0 0,-2.9961 3,0 0,-3 -3,0 0,2.9961 -3,0 0,-2.9961 3,0 0,-3 -3,0 0,2.9961 -3,0 0,-2.9961 3,0 0,-3 -3,0 0,2.9961 -3,0 0,-2.9961 3,0 0,-3 -3,0 0,2.9961 -3,0 0,-2.9961 3,0 0,-3 -3,0 0,2.9961 -3,0 0,-2.9961 3,0 0,-0.002 0,-2.99805 3,0 0,-3 -3,0 0,2.99805 -3,0 z m 6,-2.99805 3,0 0,-3 -3,0 0,3 z m 3,-3 3,0 0,-3 -3,0 0,3 z m 3,-3 3,0 0,-3 -3,0 0,3 z m 3,-3 3,0 0,2.99805 3,0 0,3 3,0 0,3 3,0 0,3 12,0 0,-3 -3,0 0,-3 -3,0 0,-3 -3,0 0,-3 -12,0 0,-2.99805 -3,0 0,3 z m 3,-3 3,0 3,0 3,0 0,-9 -3,0 0,3 -3,0 0,3 -3,0 0,3 z m 9,-9 3,0 0,11.99805 3,0 0,3 3,0 0,3 3,0 0,3 3,0 0,-12 -3,0 0,-3 -3,0 0,-3 -3,0 0,-3 -3,0 0,-2.99805 -3,0 0,3 z m 3,-3 3,0 0,-3 -3,0 0,3 z m 3,-3 3,0 0,-3 -3,0 0,3 z m 3,-3 3,0 0,-3 -3,0 0,3 z m 3,-3 3,0 0,-3 -3,0 0,3 z m 0,35.99805 0,3 3,0 0,-3 -3,0 z m -21,15.00195 12,0 0,-3 3,0 0,-3 3,0 0,-3 3,0 0,-3 -12,0 0,3 -3,0 0,3 -3,0 0,3 -3,0 0,3 z m 21,-9 0,3 -3,0 0,3 -3,0 0,3 -3,0 0,12 3,0 0,-3 3,0 0,-3 3,0 0,-3 3,0 0,-12 -3,0 z m -78,35.99805 -3,0 0,3 3,0 0,-3 z m 0,3 0,3 3,0 0,-3 -3,0 z m 3,3 0,3 3,0 0,-3 -3,0 z m 3,3 0,3 3,0 0,-3 -3,0 z m 3,3 0,3 3,0 0,-3 -3,0 z m 3,3 0,3 3,0 0,-3 -3,0 z m 3,3 0,9 3,0 3,0 3,0 0,-3 -3,0 0,-3 -3,0 0,-3 -3,0 z m 9,9 0,3 3,0 0,-3 -3,0 z m 3,3 0,3 3,0 0,-3 -3,0 z m 3,3 0,3 3,0 0,-3 -3,0 z m 3,3 0,3 3,0 0,-3 -3,0 z m 3,3 0,3 3,0 0,-3 -3,0 z m 3,3 0,0.002 0,2.99805 -3,0 0,3 3,0 0,-2.99805 3,0 0,-0.002 0,-2.99805 3,0 0,-3 -3,0 0,2.99805 -3,0 z m 6,-2.99805 3,0 0,-3 -3,0 0,3 z m 3,-3 3,0 0,-3 -3,0 0,3 z m 3,-3 3,0 0,-3 -3,0 0,3 z m 3,-3 3,0 0,2.99805 3,0 0,3 3,0 0,3 3,0 0,3 12,0 0,-3 -3,0 0,-3 -3,0 0,-3 -3,0 0,-3 -12,0 0,-2.99805 -3,0 0,3 z m 3,-3 3,0 3,0 3,0 0,-9 -3,0 0,3 -3,0 0,3 -3,0 0,3 z m 9,-9 3,0 0,11.99805 3,0 0,3 3,0 0,3 3,0 0,3 3,0 0,-12 -3,0 0,-3 -3,0 0,-3 -3,0 0,-3 -3,0 0,-2.99805 -3,0 0,3 z m 3,-3 3,0 0,-3 -3,0 0,3 z m 3,-3 3,0 0,-3 -3,0 0,3 z m 3,-3 3,0 0,-3 -3,0 0,3 z m 3,-3 3,0 0,-3 -3,0 0,3 z m 0,35.99805 0,3 3,0 0,-3 -3,0 z m -36,3.00195 0,2.99805 -3,0 0,3 -3,0 0,3 -3,0 0,3 -3,0 0,3 -3,0 0,3 -3,0 0,3 -3,0 0,3 -3,0 0,3 -3,0 0,3 -3,0 0,3 -3,0 0,3 -3,0 0,2.99805 6,0 0,-2.99805 3,0 0,-3 3,0 0,3 3,0 0,2.99805 6,0 0,-2.99805 -3,0 0,-3 -3,0 0,-3 3,0 3,0 3,0 0,-9 3,0 0,3 3,0 0,3 3,0 0,9 3,0 0,-9 3,0 0,-3 3,0 0,-3 3,0 0,3 0,3 0,3 9,0 0,3 -3,0 0,3 -3,0 0,2.99805 6,0 0,-2.99805 3,0 0,-3 3,0 0,3 3,0 0,2.99805 6,0 0,-2.9961 3,0 0,-3 -3,0 0,2.99805 -3,0 0,-2.99805 3,0 0,-3 -3,0 0,2.99805 -3,0 0,-2.99805 3,0 0,-3 -3,0 0,2.99805 -3,0 0,-2.99805 3,0 0,-3 -3,0 0,2.99805 -3,0 0,-2.99805 3,0 0,-3 0,-3 0,-3 -9,0 0,2.99805 -3,0 0,-2.99805 3,0 0,-3 -3,0 0,2.99805 -3,0 0,-2.99805 3,0 0,-3 -3,0 0,2.99805 -3,0 0,-2.99805 3,0 0,-3 -3,0 0,2.99805 -3,0 0,-2.99805 3,0 0,-3 -3,0 0,2.99805 -3,0 0,-2.99805 3,0 0,-3 -3,0 z m 15,12 12,0 0,-3 3,0 0,-3 3,0 0,-3 3,0 0,-3 -12,0 0,3 -3,0 0,3 -3,0 0,3 -3,0 0,3 z m 21,-9 0,3 -3,0 0,3 -3,0 0,3 -3,0 0,12 3,0 0,-3 3,0 0,-3 3,0 0,-3 3,0 0,-12 -3,0 z m 0,33 0,2.9961 3,0 0,-2.9961 -3,0 z m -27,-6.00195 -3,0 0,3 3,0 0,-3 z m -3,3 -3,0 0,3 3,0 0,-3 z m -3,3 -3,0 0,2.99805 3,0 0,-2.99805 z m -6,0 -3,0 0,2.99805 3,0 0,-2.99805 z m -3,0 0,-3 -3,0 0,3 3,0 z m -3,-3 0,-3 -3,0 0,3 3,0 z m -27,3 0,-3 -3,0 0,3 3,0 z m -3,0 -3,0 0,2.99805 3,0 0,-2.99805 z m 3,-3 3,0 0,-3 -3,0 0,3 z m 3,-3 3,0 0,-3 -3,0 0,3 z m 3,-3 3,0 0,-3 -3,0 0,-11.99805 -3,0 0,-3 -3,0 0,-3 -3,0 0,-3 -3,0 0,12 3,0 0,3 3,0 0,3 3,0 0,3 3,0 0,2.99805 z m -9,-23.99805 3,0 0,3 3,0 0,3 3,0 0,3 12,0 0,2.99805 3,0 0,-3 -3,0 0,-2.99805 -3,0 0,-3 -3,0 0,-3 -3,0 0,-3 -12,0 0,3 z m 24,8.99805 3,0 0,-3 -3,0 0,3 z m 3,-3 3,0 0,-3 -3,0 0,3 z m 3,-3 3,0 0,-3 -3,0 0,3 z m -9,9 -9,0 0,3 0,3 0,3 3,0 0,-3 3,0 0,-3 3,0 0,-3 z m 0,-30 -12,0 0,3 -3,0 0,3 -3,0 0,3 -3,0 0,3 12,0 0,-3 3,0 0,-3 3,0 0,-3 3,0 0,-3 z m -21,12 -3,0 0,3 3,0 0,-3 z m -3,3 -3,0 0,3 3,0 0,-3 z m 0,-3 0,-3 -3,0 0,3 3,0 z m 0,-3 3,0 0,-3 3,0 0,-3 3,0 0,-3 3,0 0,-12 -3,0 0,3 -3,0 0,3 -3,0 0,3 -3,0 0,12 z m 12,-54 0,-12 -3,0 0,-3 -3,0 0,-3 -3,0 0,-3 -3,0 0,12 3,0 0,3 3,0 0,3 3,0 0,3 3,0 z m -9,-21 3,0 0,3 3,0 0,3 3,0 0,3 12,0 0,-3 -3,0 0,-3 -3,0 0,-3 -3,0 0,-3 -12,0 0,3 z m 33,-9 0,-3 -3,0 0,3 3,0 z m -3,-3 0,-3 -3,0 0,3 3,0 z m -3,-3 0,-3 -3,0 0,3 3,0 z m -3,-3 0,-3 -3,0 0,2.99805 -12,0 0,3 -3,0 0,3 -3,0 0,3 -3,0 0,3 12,0 0,-3 3,0 0,-3 3,0 0,-3 3,0 0,-2.99805 3,0 z m -24,11.99805 -3,0 0,3 3,0 0,-3 z m -3,3 -3,0 0,3 3,0 0,-3 z m 0,-3 0,-3 -3,0 0,3 3,0 z m 0,-3 3,0 0,-3 3,0 0,-3 3,0 0,-3 3,0 0,-11.99805 3,0 0,-3 -3,0 0,2.99805 -3,0 0,3 -3,0 0,3 -3,0 0,3 -3,0 0,12 z m 12,-23.99805 0,-3 -3,0 0,3 3,0 z m -3,-3 0,-3 -3,0 0,3 3,0 z m -3,-3 0,-3 -3,0 0,3 3,0 z m -3,-3 0,-3 -3,0 0,3 3,0 z m -3,-3 0,-3 -3,0 0,3 3,0 z m 15,15 0,9 3,0 3,0 3,0 0,-3 -3,0 0,-3 -3,0 0,-3 -3,0 z m -102,-18 0,3 3,0 0,-3 -3,0 z m 48,0 0,3 3,0 0,-3 -3,0 z m 54,0 0,3 3,0 0,-3 -3,0 z m 48,0 0,3 3,0 0,-3 -3,0 z m -75,3 0,3 -3,0 0,3 3,0 0,3 3,0 0,-3 3,0 0,-3 -3,0 0,-3 -3,0 z m 3,9 0,3 -3,0 0,-3 -3,0 0,3 0,3 0,3 3,0 0,-3 3,0 0,3 3,0 0,-9 -3,0 z m 0,9 -3,0 0,3 -3,0 0,3 3,0 0,3 3,0 0,-3 3,0 0,-3 -3,0 0,-3 z m 0,9 0,3 -3,0 0,-3 -3,0 0,3 0,3 0,3 3,0 0,2.99805 -3,0 0,3 3,0 0,3 3,0 0,-3 3,0 0,-3 -3,0 0,-2.99805 3,0 0,-9 -3,0 z m 0,17.99805 0,3 -3,0 0,-3 -3,0 0,3 0,3 0,3 3,0 0,-3 3,0 0,3 3,0 0,-9 -3,0 z m -96,-39 0,6 3,0 0,3 -3,0 0,6 3,0 0,-3 3,0 0,-3 3,0 0,-3 -3,0 0,-3 -3,0 0,-3 -3,0 z m 102,0 0,6 3,0 0,3 -3,0 0,6 3,0 0,-3 3,0 0,-3 3,0 0,-3 -3,0 0,-3 -3,0 0,-3 -3,0 z m -18,0.002 0,3 -3,0 0,3 -3,0 0,3 3,0 0,3 3,0 0,3 3,0 0,-6 -3,0 0,-3 3,0 0,-6 -3,0 z m 99,3 0,3 -3,0 0,3 3,0 0,3 3,0 0,-3 0,-3 0,-3 -3,0 z m -141,6 3,0 0,3 3,0 0,3 3,0 0,3 -3,0 0,3 -3,0 0,3 -3,0 0,-3 -3,0 0,-3 -3,0 0,-3 3,0 0,-3 3,0 0,-3 z m 21,0 3,0 0,2.99805 -3,0 0,-2.99805 z m 81,0 3,0 0,3 3,0 0,3 3,0 0,3 -3,0 0,3 -3,0 0,3 -3,0 0,-3 -3,0 0,-3 -3,0 0,-3 3,0 0,-3 3,0 0,-3 z m -84,3 3,0 0,2.99805 -3,0 0,-2.99805 z m -18,3 0,3 3,0 0,-3 -3,0 z m 102,0 0,3 3,0 0,-3 -3,0 z m -117,11.99805 0,3 -3,0 0,3 -3,0 0,3 3,0 0,3 3,0 0,3 3,0 0,-3 3,0 0,-3 3,0 0,-3 -3,0 0,-3 -3,0 0,-3 -3,0 z m 30,0 0,3 -3,0 0,3 -3,0 0,3 3,0 0,3 3,0 0,3 3,0 0,-3 3,0 0,-3 3,0 0,-3 -3,0 0,-3 -3,0 0,-3 -3,0 z m 72,0 0,3 -3,0 0,3 -3,0 0,3 3,0 0,3 3,0 0,3 3,0 0,-3 3,0 0,-3 3,0 0,-3 -3,0 0,-3 -3,0 0,-3 -3,0 z m -36,0.002 3,0 0,2.99805 -3,0 0,-2.99805 z m 66,0 0,3 -3,0 0,3 -3,0 0,3 3,0 0,3 3,0 0,3 3,0 0,-3 3,0 0,-3 3,0 0,-3 -3,0 0,-3 -3,0 0,-3 -3,0 z m -132,5.99805 3,0 0,3 -3,0 0,-3 z m 30,0 3,0 0,3 -3,0 0,-3 z m 72,0 3,0 0,3 -3,0 0,-3 z m 30,0.002 3,0 0,3 -3,0 0,-3 z m -15,11.99805 3,0 0,3 3,0 0,3 3,0 0,3 -3,0 0,3 -3,0 0,3 -3,0 0,-3 -3,0 0,-3 -3,0 0,-3 3,0 0,-3 3,0 0,-3 z m -102,0.002 3,0 0,3 3,0 0,3 3,0 0,3 -3,0 0,3 -3,0 0,3 -3,0 0,-3 -3,0 0,-3 -3,0 0,-3 3,0 0,-3 3,0 0,-3 z m 51,3 0,3 -3,0 0,3 3,0 0,3 3,0 0,-3 3,0 0,-3 -3,0 0,-3 -3,0 z m 3,9 0,3 -3,0 0,-3 -3,0 0,3 0,3 0,3 3,0 0,-3 3,0 0,3 3,0 0,-9 -3,0 z m 0,9 -3,0 0,3 -3,0 0,3 3,0 0,3 3,0 0,-3 3,0 0,-3 -3,0 0,-3 z m 0,9 0,3 -3,0 0,-3 -3,0 0,3 0,3 0,3 3,0 0,-3 3,0 0,3 3,0 0,-9 -3,0 z m 0,9 -3,0 0,3 -3,0 0,3 3,0 0,3 3,0 0,-3 3,0 0,-3 -3,0 0,-3 z m 0,9 0,3 -3,0 0,-3 -3,0 0,3 0,3 0,3 3,0 0,-3 3,0 0,3 3,0 0,-9 -3,0 z m 0,9 -3,0 0,3 -3,0 0,3 3,0 0,3 3,0 0,-3 3,0 0,-3 -3,0 0,-3 z m 0,9 0,3 -3,0 0,-3 -3,0 0,3 0,3 0,3 3,0 0,-3 3,0 0,3 3,0 0,-9 -3,0 z m 0,9 -3,0 0,3 -3,0 0,3 3,0 0,3 3,0 0,-3 3,0 0,-3 -3,0 0,-3 z m 0,9 0,3 -3,0 0,-3 -3,0 0,3 0,3 0,3 3,0 0,-3 3,0 0,3 3,0 0,-9 -3,0 z m 0,9 -3,0 0,3 -3,0 0,3 3,0 0,3 3,0 0,-3 3,0 0,-3 -3,0 0,-3 z m 0,9 0,3 -3,0 0,-3 -3,0 0,3 0,3 0,3 3,0 0,-3 3,0 0,3 3,0 0,-9 -3,0 z m 0,9 -3,0 0,2.99805 3,0 0,-2.99805 z m 48,-105.00195 0,3 3,0 0,-3 -3,0 z m -102,0.002 0,3 3,0 0,-3 -3,0 z m -42,2.99805 0,6 3,0 0,3 -3,0 0,6 3,0 0,-3 3,0 0,-3 3,0 0,-3 -3,0 0,-3 -3,0 0,-3 -3,0 z m 84,0 0,3 -3,0 0,3 -3,0 0,3 3,0 0,3 3,0 0,3 3,0 0,-6 -3,0 0,-3 3,0 0,-6 -3,0 z m 18,0 0,6 3,0 0,3 -3,0 0,6 3,0 0,-3 3,0 0,-3 3,0 0,-3 -3,0 0,-3 -3,0 0,-3 -3,0 z m 24,0.002 3,0 0,2.99805 -3,0 0,-2.99805 z m 36,0.002 3,0 0,2.9961 -3,0 0,-2.9961 z m -27,2.9961 3,0 0,3 3,0 0,3 3,0 0,9 3,0 0,-9 3,0 0,-3 3,0 0,-3 3,0 0,3 0,3 0,3 9,0 0,3 -3,0 0,3 -3,0 0,3 -9,0 0,3 9,0 0,3 3,0 0,3 3,0 0,3 -3,0 -3,0 -3,0 0,9 -3,0 0,-3 -3,0 0,-3 -3,0 0,-9 -3,0 0,9 -3,0 0,3 -3,0 0,3 -3,0 0,-3 0,-3 0,-3 -9,0 0,-3 3,0 0,-3 3,0 0,-3 9,0 0,-3 -9,0 0,-3 -3,0 0,-3 -3,0 0,-3 3,0 3,0 3,0 0,-9 z m 0,9 0,3 3,0 0,-3 -3,0 z m 3,3 0,3 3,0 0,-3 -3,0 z m 3,3 0,3 3,0 0,-3 -3,0 z m 3,3 0,3 3,0 0,-3 -3,0 z m 3,0 3,0 0,-3 -3,0 0,3 z m 3,-3 3,0 0,-3 -3,0 0,3 z m 3,-3 3,0 0,-3 -3,0 0,3 z m -6,9 0,3 3,0 0,-3 -3,0 z m 3,3 0,3 3,0 0,-3 -3,0 z m 3,3 0,3 3,0 0,-3 -3,0 z m -9,-6 -3,0 0,3 3,0 0,-3 z m -3,3 -3,0 0,3 3,0 0,-3 z m -3,3 -3,0 0,3 3,0 0,-3 z m -105,-26.99805 3,0 0,3 3,0 0,3 3,0 0,9 3,0 0,-9 3,0 0,-3 3,0 0,-3 3,0 0,3 0,3 0,3 9,0 0,3 -3,0 0,3 -3,0 0,3 -9,0 0,3 9,0 0,3 3,0 0,3 3,0 0,3 -3,0 -3,0 -3,0 0,9 -3,0 0,-3 -3,0 0,-3 -3,0 0,-9 -3,0 0,9 -3,0 0,3 -3,0 0,3 -3,0 0,-3 0,-3 0,-3 -9,0 0,-3 3,0 0,-3 3,0 0,-3 9,0 0,-3 -9,0 0,-3 -3,0 0,-3 -3,0 0,-3 3,0 3,0 3,0 0,-9 z m 0,9 0,3 3,0 0,-3 -3,0 z m 3,3 0,3 3,0 0,-3 -3,0 z m 3,3 0,3 3,0 0,-3 -3,0 z m 3,3 0,3 3,0 0,-3 -3,0 z m 3,0 3,0 0,-3 -3,0 0,3 z m 3,-3 3,0 0,-3 -3,0 0,3 z m 3,-3 3,0 0,-3 -3,0 0,3 z m -6,9 0,3 3,0 0,-3 -3,0 z m 3,3 0,3 3,0 0,-3 -3,0 z m 3,3 0,3 3,0 0,-3 -3,0 z m -9,-6 -3,0 0,3 3,0 0,-3 z m -3,3 -3,0 0,3 3,0 0,-3 z m -3,3 -3,0 0,3 3,0 0,-3 z m 87,-27 3,0 0,2.99805 -3,0 0,-2.99805 z m 60,0 0,3 -3,0 0,3 3,0 0,3 3,0 0,-3 0,-3 0,-3 -3,0 z m -18,0.002 3,0 0,2.9961 -3,0 0,-2.9961 z m -45,11.9961 3,0 0,3 3,0 0,3 3,0 0,3 -3,0 0,3 -3,0 0,3 -3,0 0,-3 -3,0 0,-3 -3,0 0,-3 3,0 0,-3 3,0 0,-3 z m 48,0 3,0 0,3 3,0 0,3 3,0 0,3 -3,0 0,3 -3,0 0,3 -3,0 0,-3 -3,0 0,-3 -3,0 0,-3 3,0 0,-3 3,0 0,-3 z m -150,0.002 3,0 0,3 3,0 0,3 3,0 0,3 -3,0 0,3 -3,0 0,3 -3,0 0,-3 -3,0 0,-3 -3,0 0,-3 3,0 0,-3 3,0 0,-3 z m 48,0 3,0 0,3 3,0 0,3 3,0 0,3 -3,0 0,3 -3,0 0,3 -3,0 0,-3 -3,0 0,-3 -3,0 0,-3 3,0 0,-3 3,0 0,-3 z m 54,5.99805 0,3 3,0 0,-3 -3,0 z m 48,0 0,3 3,0 0,-3 -3,0 z m -150,0.002 0,3 3,0 0,-3 -3,0 z m 48,0 0,3 3,0 0,-3 -3,0 z m -66,9 0,6 3,0 0,3 -3,0 0,6 3,0 0,-3 3,0 0,-3 3,0 0,-3 -3,0 0,-3 -3,0 0,-3 -3,0 z m 84,0 0,3 -3,0 0,3 -3,0 0,3 3,0 0,3 3,0 0,3 3,0 0,-6 -3,0 0,-3 3,0 0,-6 -3,0 z m 18,0 0,6 3,0 0,3 -3,0 0,6 3,0 0,-3 3,0 0,-3 3,0 0,-3 -3,0 0,-3 -3,0 0,-3 -3,0 z m 81,3 0,3 -3,0 0,3 3,0 0,3 3,0 0,-3 0,-3 0,-3 -3,0 z m -39,5.99805 3,0 0,3 3,0 0,3 3,0 0,3 -3,0 0,3 -3,0 0,3 -3,0 0,-3 -3,0 0,-3 -3,0 0,-3 3,0 0,-3 3,0 0,-3 z m -102,0.002 3,0 0,3 3,0 0,3 3,0 0,3 -3,0 0,3 -3,0 0,3 -3,0 0,-3 -3,0 0,-3 -3,0 0,-3 3,0 0,-3 3,0 0,-3 z m 102,5.99805 0,3 3,0 0,-3 -3,0 z m -102,0.002 0,3 3,0 0,-3 -3,0 z m -15,12 0,3 -3,0 0,3 -3,0 0,3 3,0 0,3 3,0 0,3 3,0 0,-3 3,0 0,-3 3,0 0,-3 -3,0 0,-3 -3,0 0,-3 -3,0 z m 30,0 0,3 -3,0 0,3 -3,0 0,3 3,0 0,3 3,0 0,3 3,0 0,-3 3,0 0,-3 3,0 0,-3 -3,0 0,-3 -3,0 0,-3 -3,0 z m 72,0 0,3 -3,0 0,3 -3,0 0,3 3,0 0,3 3,0 0,3 3,0 0,-3 3,0 0,-3 3,0 0,-3 -3,0 0,-3 -3,0 0,-3 -3,0 z m 30,0 0,3 -3,0 0,3 -3,0 0,3 3,0 0,3 3,0 0,3 3,0 0,-3 3,0 0,-3 3,0 0,-3 -3,0 0,-3 -3,0 0,-3 -3,0 z m -132,6 3,0 0,3 -3,0 0,-3 z m 30,0 3,0 0,3 -3,0 0,-3 z m 72,0 3,0 0,3 -3,0 0,-3 z m 30,0 3,0 0,3 -3,0 0,-3 z m -117,12 3,0 0,3 3,0 0,3 3,0 0,3 -3,0 0,3 -3,0 0,3 -3,0 0,-3 -3,0 0,-3 -3,0 0,-3 3,0 0,-3 3,0 0,-3 z m 102,0 3,0 0,3 3,0 0,3 3,0 0,3 -3,0 0,3 -3,0 0,3 -3,0 0,-3 -3,0 0,-3 -3,0 0,-3 3,0 0,-3 3,0 0,-3 z m -102,6 0,3 3,0 0,-3 -3,0 z m 102,0 0,3 3,0 0,-3 -3,0 z m -144,3 0,6 3,0 0,3 -3,0 0,6 3,0 0,-3 3,0 0,-3 3,0 0,-3 -3,0 0,-3 -3,0 0,-3 -3,0 z m 84,0 0,3 -3,0 0,3 -3,0 0,3 3,0 0,3 3,0 0,3 3,0 0,-6 -3,0 0,-3 3,0 0,-6 -3,0 z m 18,0 0,6 3,0 0,3 -3,0 0,6 3,0 0,-3 3,0 0,-3 3,0 0,-3 -3,0 0,-3 -3,0 0,-3 -3,0 z m -78,0.002 3,0 0,2.99805 -3,0 0,-2.99805 z m 138,0 3,0 0,2.99805 -3,0 0,-2.99805 z m 21,2.99805 0,3 -3,0 0,3 3,0 0,3 3,0 0,-3 0,-3 0,-3 -3,0 z m -162,0.002 3,0 0,2.99805 -3,0 0,-2.99805 z m 144,0 3,0 0,2.99805 -3,0 0,-2.99805 z"
         id="path4796" />
      <path
         id="path4798"
         d="m 654,408.50537 0,0.002 -3,0 0,3 3,0 0,3 3,0 0,3 3,0 0,3 3,0 0,3 3,0 0,3 3,0 0,3 3,0 0,3 3,0 0,3 3,0 0,3 3,0 0,3 3,0 0,3 3,0 0,3 3,0 0,2.99805 3,0 0,-3 -3,0 0,-2.99805 3,0 0,2.99805 3,0 0,-3 -3,0 0,-2.99805 3,0 0,2.99805 3,0 0,-3 -3,0 0,-2.99805 3,0 0,2.99805 3,0 0,-3 -3,0 0,-2.99805 3,0 0,2.99805 3,0 0,-3 -3,0 0,-2.99805 3,0 0,2.99805 3,0 3,0 3,0 0,-9 -3,0 0,-2.99805 3,0 0,2.99805 3,0 0,-3 -3,0 0,-2.99805 3,0 0,2.99805 3,0 0,-3 -3,0 0,-2.99805 3,0 0,2.99805 3,0 0,-3 -3,0 0,-2.99805 3,0 0,2.99805 3,0 0,-3 -3,0 0,-2.99805 3,0 0,2.99805 3,0 0,-3 -3,0 0,-2.99805 -3,0 0,-0.002 -6,0 0,0.002 3,0 0,3 -3,0 0,3 -3,0 0,3 -3,0 0,-3 -3,0 0,-3 -3,0 0,-3 3,0 0,-0.002 -6,0 0,0.002 -9,0 0,3 9,0 0,3 3,0 0,3 3,0 0,3 -3,0 -3,0 -3,0 0,9 -3,0 0,-3 -3,0 0,-3 -3,0 0,-9 -3,0 0,9 -3,0 0,3 -3,0 0,3 -3,0 0,-3 0,-3 0,-3 -9,0 0,-3 3,0 0,-3 3,0 0,-3 9,0 0,-3 -9,0 0,-0.002 -6,0 0,0.002 3,0 0,3 -3,0 0,3 -3,0 0,3 -3,0 0,-3 -3,0 0,-3 -3,0 0,-3 3,0 0,-0.002 -6,0 z m 30,0.002 3,0 0,-0.002 -3,0 0,0.002 z m 3,0 0,3 3,0 0,-3 -3,0 z m 3,0 3,0 0,-0.002 -3,0 0,0.002 z m 0,3 0,3 3,0 0,-3 -3,0 z m 3,3 0,3 3,0 0,-3 -3,0 z m 3,3 0,3 3,0 0,-3 -3,0 z m -9,-6 -3,0 0,3 3,0 0,-3 z m -3,3 -3,0 0,3 3,0 0,-3 z m -3,3 -3,0 0,3 3,0 0,-3 z m 48,-6.00195 3,0 0,-3 -3,0 0,3 z m -12,15 0,12 3,0 0,3 3,0 0,3 3,0 0,3 3,0 0,-12 -3,0 0,-3 -3,0 0,-3 -3,0 0,-3 -3,0 z m 12,21 0,3 3,0 0,-3 -3,0 z m 0,3 -3,0 0,3 3,0 0,-3 z m 0,3 0,3 3,0 0,-3 -3,0 z m -3,-3 0,-3 -3,0 0,-3 -3,0 0,-3 -3,0 0,-3 -12,0 0,3 3,0 0,3 3,0 0,3 3,0 0,3 12,0 z m -36,0 -3,0 0,-2.99805 -3,0 0,3 3,0 0,3 3,0 0,2.99805 3,0 0,-3 -3,0 0,-2.99805 0,-0.002 z m 3,6 0,3 3,0 0,-3 -3,0 z m 3,3 0,3 3,0 0,-3 -3,0 z m 3,3 0,3 3,0 0,-3 -3,0 z m 3,3 0,3 3,0 0,-2.99805 12,0 0,-3 3,0 0,-3 3,0 0,-3 3,0 0,-3 -12,0 0,3 -3,0 0,3 -3,0 0,3 -3,0 0,2.99805 -3,0 z m 24,-8.99805 0,3 -3,0 0,3 -3,0 0,3 -3,0 0,11.99805 -3,0 0,3 3,0 0,-2.99805 3,0 0,-3 3,0 0,-3 3,0 0,-3 3,0 0,-12 -3,0 z m -9,23.99805 0,3 3,0 0,-3 -3,0 z m 3,3 0,3 3,0 0,-3 -3,0 z m 3,3 0,3 3,0 0,-3 -3,0 z m 3,3 0,3 3,0 0,-3 -3,0 z m 3,3 0,0.002 0,2.99805 0,0.002 3,0 0,-0.002 0,-2.99805 0,-0.002 -3,0 z m 0,3.00195 -3,0 0,3 3,0 0,-3 z m -3,3 -3,0 0,3 3,0 0,-3 z m -3,3 -3,0 0,3 3,0 0,-3 z m -3,3 -3,0 0,3 3,0 0,-3 z m -3,3 -3,0 0,3 3,0 0,-3 z m 0,3 0,12 3,0 0,3 3,0 0,3 3,0 0,3 3,0 0,-12 -3,0 0,-3 -3,0 0,-3 -3,0 0,-3 -3,0 z m 12,21 0,3 3,0 0,-3 -3,0 z m 0,3 -3,0 0,3 3,0 0,-3 z m 0,3 0,3 3,0 0,-3 -3,0 z m -3,-3 0,-3 -3,0 0,-3 -3,0 0,-3 -3,0 0,-3 -12,0 0,3 3,0 0,3 3,0 0,3 3,0 0,3 12,0 z m -21,-12 0,-3 -3,0 0,3 3,0 z m -3,0 -3,0 0,3 3,0 0,-3 z m -3,3 -3,0 0,3 3,0 0,-3 z m -3,3 -3,0 0,3 3,0 0,-3 z m -3,3 -3,0 0,3 3,0 0,-3 z m -3,3 -3,0 0,-2.99805 -3,0 0,3 3,0 0,3 3,0 0,2.99805 3,0 0,-3 -3,0 0,-2.99805 0,-0.002 z m 3,6 0,3 3,0 0,-3 -3,0 z m 3,3 0,3 3,0 0,-3 -3,0 z m 3,3 0,3 3,0 0,-3 -3,0 z m 3,3 0,3 3,0 0,-2.99805 12,0 0,-3 3,0 0,-3 3,0 0,-3 3,0 0,-3 -12,0 0,3 -3,0 0,3 -3,0 0,3 -3,0 0,2.99805 -3,0 z m 24,-8.99805 0,3 -3,0 0,3 -3,0 0,3 -3,0 0,11.99805 -3,0 0,3 3,0 0,-2.99805 3,0 0,-3 3,0 0,-3 3,0 0,-3 3,0 0,-12 -3,0 z m -9,23.99805 0,3 3,0 0,-3 -3,0 z m 3,3 0,3 3,0 0,-3 -3,0 z m 3,3 0,3 3,0 0,-3 -3,0 z m 3,3 0,2.99805 3,0 0,-2.99805 -3,0 z m -3,0 -3,0 0,-3 -3,0 0,-3 -3,0 0,-3 -3,0 0,-3 -3,0 0,-3 -3,0 0,-3 -3,0 0,-3 -3,0 0,-3 -3,0 0,-3 -3,0 0,-3 -3,0 0,-3 -3,0 0,-2.99805 -3,0 0,3 3,0 0,2.99805 -3,0 0,-2.99805 -3,0 0,3 3,0 0,2.99805 -3,0 0,-2.99805 -3,0 0,3 3,0 0,2.99805 -3,0 0,-2.99805 -3,0 0,3 3,0 0,2.99805 -3,0 0,-2.99805 -3,0 0,3 3,0 0,2.99805 -3,0 0,-2.99805 -9,0 0,3 0,3 0,3 3,0 0,2.99805 -3,0 0,-2.99805 -3,0 0,3 3,0 0,2.99805 -3,0 0,-2.99805 -3,0 0,3 3,0 0,2.99805 -3,0 0,-2.99805 -3,0 0,3 3,0 0,2.99805 -3,0 0,-2.99805 -3,0 0,3 3,0 0,2.9961 6,0 0,-2.99805 3,0 0,-3 3,0 0,3 3,0 0,2.99805 6,0 0,-2.99805 -3,0 0,-3 -3,0 0,-3 3,0 3,0 3,0 0,-9 3,0 0,3 3,0 0,3 3,0 0,9 3,0 0,-9 3,0 0,-3 3,0 0,-3 3,0 0,3 0,3 0,3 9,0 0,3 -3,0 0,3 -3,0 0,2.99805 6,0 0,-2.99805 3,0 0,-3 3,0 0,3 3,0 0,2.99805 6,0 0,-2.99805 z m -24,-6 -3,0 0,3 3,0 0,-3 z m -3,3 -3,0 0,3 3,0 0,-3 z m -3,3 -3,0 0,2.99805 3,0 0,-2.99805 z m -6,0 -3,0 0,2.99805 3,0 0,-2.99805 z m -3,0 0,-3 -3,0 0,3 3,0 z m -3,-3 0,-3 -3,0 0,3 3,0 z m -30,3.00195 -3,0 0,2.9961 3,0 0,-2.9961 z m 9,-12 0,-12 -3,0 0,-3 -3,0 0,-3 -3,0 0,-3 -3,0 0,12 3,0 0,3 3,0 0,3 3,0 0,3 3,0 z m -9,-21 3,0 0,3 3,0 0,3 3,0 0,3 12,0 0,-3 -3,0 0,-3 -3,0 0,-3 -3,0 0,-3 -12,0 0,3 z m 54,14.99805 3,0 0,3 3,0 0,3 3,0 0,-3 0,-3 0,-3 -9,0 0,3 z m -21,-23.99805 0,-3 -3,0 0,3 3,0 z m -3,-3 0,-3 -3,0 0,3 3,0 z m -3,-3 0,-3 -3,0 0,3 3,0 z m -3,-3 0,-3 -3,0 0,2.99805 -12,0 0,3 -3,0 0,3 -3,0 0,3 -3,0 0,3 12,0 0,-3 3,0 0,-3 3,0 0,-3 3,0 0,-2.99805 3,0 z m -24,11.99805 -3,0 0,3 3,0 0,-3 z m -3,3 -3,0 0,3 3,0 0,-3 z m 0,-3 0,-3 -3,0 0,3 3,0 z m 0,-3 3,0 0,-3 3,0 0,-3 3,0 0,-3 3,0 0,-11.99805 3,0 0,-3 -3,0 0,2.99805 -3,0 0,3 -3,0 0,3 -3,0 0,3 -3,0 0,12 z m 12,-23.99805 0,-3 -3,0 0,3 3,0 z m -3,-3 0,-3 -3,0 0,3 3,0 z m -3,-3 0,-3 -3,0 0,3 3,0 z m -3,-3 0,-3 -3,0 0,3 3,0 z m -3,-3 0,-0.002 0,-2.99805 0,-0.002 -3,0 0,0.002 0,2.99805 0,0.002 3,0 z m 0,-3.00195 3,0 0,-3 -3,0 0,3 z m 3,-3 3,0 0,-3 -3,0 0,3 z m 3,-3 3,0 0,-3 -3,0 0,3 z m 3,-3 3,0 0,-3 -3,0 0,3 z m 3,-3 3,0 0,-3 -3,0 0,3 z m 0,-3 0,-12 -3,0 0,-3 -3,0 0,-3 -3,0 0,-3 -3,0 0,12 3,0 0,3 3,0 0,3 3,0 0,3 3,0 z m -9,-21 3,0 0,3 3,0 0,3 3,0 0,3 12,0 0,-3 -3,0 0,-3 -3,0 0,-3 -3,0 0,-3 -12,0 0,3 z m 21,9 0,3 3,0 0,-3 -3,0 z m 3,0 3,0 0,-3 -3,0 0,3 z m 3,-3 3,0 0,-3 -3,0 0,3 z m 3,-3 3,0 0,-3 -3,0 0,3 z m 3,-3 3,0 0,-3 -3,0 0,3 z m 3,0 0,3 -3,0 0,3 -3,0 0,3 -3,0 0,3 -3,0 0,3 -3,0 0,3 -3,0 0,3 -3,0 0,3 -3,0 0,3 -3,0 0,3 -3,0 0,3 -3,0 0,3 -3,0 0,3 3,0 0,3 3,0 0,3 3,0 0,3 3,0 0,3 3,0 0,3 3,0 0,3 3,0 0,3 3,0 0,3 3,0 0,3 3,0 0,3 3,0 0,3 3,0 0,3 3,0 0,-3 3,0 0,-3 3,0 0,-3 3,0 0,-3 3,0 0,-3 3,0 0,-3 3,0 0,-3 3,0 0,-3 3,0 0,-3 3,0 0,-3 3,0 0,-3 3,0 0,-3 3,0 0,-3 -3,0 0,-3 -3,0 0,-3 -3,0 0,-3 -3,0 0,-3 -3,0 0,-3 -3,0 0,-3 -3,0 0,-3 -3,0 0,-3 -3,0 0,-3 -3,0 0,-3 -3,0 0,-3 -3,0 0,-3 -3,0 z m 24,54 0,3 -3,0 0,3 -3,0 0,3 3,0 3,0 3,0 0,-9 -3,0 z m -45,-33 0,-3 3,0 0,-3 3,0 0,-3 -9,0 0,3 0,3 0,3 3,0 z m -3,33.00195 0,9 3,0 3,0 3,0 0,-3 -3,0 0,-3 -3,0 0,-3 -3,0 z m 51,-33.0039 0,-3 0,-3 0,-3 -9,0 0,3 3,0 0,3 3,0 0,3 3,0 z m -30,-29.99805 0,-3 -3,0 0,3 3,0 z m -3,-3 0,-3 -3,0 0,3 3,0 z m -3,-3 0,-3 -3,0 0,3 3,0 z m -3,-3 0,-3 -3,0 0,2.99805 -12,0 0,3 -3,0 0,3 -3,0 0,3 -3,0 0,3 12,0 0,-3 3,0 0,-3 3,0 0,-3 3,0 0,-2.99805 3,0 z m -24,11.99805 -3,0 0,3 3,0 0,-3 z m -3,3 -3,0 0,3 3,0 0,-3 z m 0,-3 0,-3 -3,0 0,3 3,0 z m 0,-3 3,0 0,-3 3,0 0,-3 3,0 0,-3 3,0 0,-11.99805 3,0 0,-3 -3,0 0,2.99805 -3,0 0,3 -3,0 0,3 -3,0 0,3 -3,0 0,12 z m 12,-23.99805 0,-3 -3,0 0,3 3,0 z m -3,-3 0,-3 -3,0 0,3 3,0 z m -3,-3 0,-3 -3,0 0,3 3,0 z m -3,-3 0,-3 -3,0 0,3 3,0 z m -3,-3 0,-3 -3,0 0,3 3,0 z m 15,15 0,9 3,0 3,0 3,0 0,-3 -3,0 0,-3 -3,0 0,-3 -3,0 z m 72,-18.00195 0,3 3,0 0,-3 -3,0 z m 6,0 0,3 3,0 0,-3 -3,0 z m 15,0 0,0.002 -3,0 0,3 3,0 0,3 3,0 0,3 3,0 0,3 3,0 0,3 3,0 0,3 3,0 0,3 3,0 0,3 3,0 0,3 3,0 0,3 3,0 0,3 3,0 0,3 3,0 0,3 3,0 0,-3 3,0 0,-3 3,0 0,-3 3,0 0,-3 3,0 0,-3 3,0 0,-3 3,0 0,-3 3,0 0,-3 3,0 0,-3 3,0 0,-3 3,0 0,-3 3,0 0,-3 3,0 0,-3 -3,0 0,-0.002 -6,0 0,0.002 3,0 0,3 -3,0 0,3 -3,0 0,3 -3,0 0,-3 -3,0 0,-3 -3,0 0,-3 3,0 0,-0.002 -6,0 0,0.002 -9,0 0,3 9,0 0,3 3,0 0,3 3,0 0,3 -3,0 -3,0 -3,0 0,9 -3,0 0,-3 -3,0 0,-3 -3,0 0,-9 -3,0 0,9 -3,0 0,3 -3,0 0,3 -3,0 0,-3 0,-3 0,-3 -9,0 0,-3 3,0 0,-3 3,0 0,-3 9,0 0,-3 -9,0 0,-0.002 -6,0 0,0.002 3,0 0,3 -3,0 0,3 -3,0 0,3 -3,0 0,-3 -3,0 0,-3 -3,0 0,-3 3,0 0,-0.002 -6,0 z m 30,0.002 3,0 0,-0.002 -3,0 0,0.002 z m 3,0 0,3 3,0 0,-3 -3,0 z m 3,0 3,0 0,-0.002 -3,0 0,0.002 z m 0,3 0,3 3,0 0,-3 -3,0 z m 3,3 0,3 3,0 0,-3 -3,0 z m 3,3 0,3 3,0 0,-3 -3,0 z m -9,-6 -3,0 0,3 3,0 0,-3 z m -3,3 -3,0 0,3 3,0 0,-3 z m -3,3 -3,0 0,3 3,0 0,-3 z m 6,30 -3,0 0,3 3,0 0,-3 z m 0,3 0,0.002 0,2.99805 -3,0 0,3 3,0 0,2.99805 -3,0 0,-2.99805 -3,0 0,3 3,0 0,2.99805 -3,0 0,-2.99805 -3,0 0,3 3,0 0,2.99805 -3,0 0,-2.99805 -3,0 0,3 3,0 0,2.99805 -3,0 0,-2.99805 -3,0 0,3 3,0 0,2.99805 -3,0 0,-2.99805 -9,0 0,3 0,3 0,3 3,0 0,2.99805 -3,0 0,-2.99805 -3,0 0,3 3,0 0,2.99805 -3,0 0,-2.99805 -3,0 0,3 3,0 0,2.99805 -3,0 0,-2.99805 -3,0 0,3 3,0 0,2.99805 -3,0 0,-2.99805 -3,0 0,3 3,0 0,2.99805 -3,0 0,-2.99805 -3,0 0,3 3,0 0,2.99805 3,0 0,3 3,0 0,3 3,0 0,3 3,0 0,3 3,0 0,3 3,0 0,3 3,0 0,3 3,0 0,3 3,0 0,3 3,0 0,3 3,0 0,3 3,0 0,3 3,0 0,-3 3,0 0,-3 3,0 0,-3 3,0 0,-3 3,0 0,-3 3,0 0,-3 3,0 0,-3 3,0 0,-3 3,0 0,-3 3,0 0,-3 3,0 0,-3 3,0 0,-3 3,0 0,-2.9961 3,0 0,-3 -3,0 0,2.9961 -3,0 0,-2.9961 3,0 0,-3 -3,0 0,2.9961 -3,0 0,-2.9961 3,0 0,-3 -3,0 0,2.9961 -3,0 0,-2.9961 3,0 0,-3 -3,0 0,2.9961 -3,0 0,-2.9961 3,0 0,-3 -3,0 0,2.9961 -3,0 0,-2.9961 3,0 0,-3 0,-3 0,-3 -9,0 0,2.9961 -3,0 0,-2.9961 3,0 0,-3 -3,0 0,2.9961 -3,0 0,-2.9961 3,0 0,-3 -3,0 0,2.9961 -3,0 0,-2.9961 3,0 0,-3 -3,0 0,2.9961 -3,0 0,-2.9961 3,0 0,-3 -3,0 0,2.9961 -3,0 0,-2.9961 3,0 0,-3 -3,0 0,2.9961 -3,0 0,-2.9961 3,0 0,-0.002 0,-2.99805 3,0 0,-3 -3,0 0,2.99805 -3,0 z m 6,-2.99805 3,0 0,-3 -3,0 0,3 z m 3,-3 3,0 0,-3 -3,0 0,3 z m 3,-3 3,0 0,-3 -3,0 0,3 z m 3,-3 3,0 0,2.99805 3,0 0,3 3,0 0,3 3,0 0,3 12,0 0,-3 -3,0 0,-3 -3,0 0,-3 -3,0 0,-3 -12,0 0,-2.99805 -3,0 0,3 z m 3,-3 3,0 3,0 3,0 0,-9 -3,0 0,3 -3,0 0,3 -3,0 0,3 z m 9,-9 3,0 0,11.99805 3,0 0,3 3,0 0,3 3,0 0,3 3,0 0,-12 -3,0 0,-3 -3,0 0,-3 -3,0 0,-3 -3,0 0,-2.99805 -3,0 0,3 z m 3,-3 3,0 0,-3 -3,0 0,3 z m 3,-3 3,0 0,-3 -3,0 0,3 z m 3,-3 3,0 0,-3 -3,0 0,3 z m 3,-3 3,0 0,-3 -3,0 0,3 z m 0,35.99805 0,3 3,0 0,-3 -3,0 z m -21,15.00195 12,0 0,-3 3,0 0,-3 3,0 0,-3 3,0 0,-3 -12,0 0,3 -3,0 0,3 -3,0 0,3 -3,0 0,3 z m 21,-9 0,3 -3,0 0,3 -3,0 0,3 -3,0 0,12 3,0 0,-3 3,0 0,-3 3,0 0,-3 3,0 0,-12 -3,0 z m -78,35.99805 -3,0 0,3 3,0 0,-3 z m 0,3 0,3 3,0 0,-3 -3,0 z m 3,3 0,3 3,0 0,-3 -3,0 z m 3,3 0,3 3,0 0,-3 -3,0 z m 3,3 0,3 3,0 0,-3 -3,0 z m 3,3 0,3 3,0 0,-3 -3,0 z m 3,3 0,9 3,0 3,0 3,0 0,-3 -3,0 0,-3 -3,0 0,-3 -3,0 z m 9,9 0,3 3,0 0,-3 -3,0 z m 3,3 0,3 3,0 0,-3 -3,0 z m 3,3 0,3 3,0 0,-3 -3,0 z m 3,3 0,3 3,0 0,-3 -3,0 z m 3,3 0,3 3,0 0,-3 -3,0 z m 3,3 0,0.002 0,2.99805 -3,0 0,3 3,0 0,-2.99805 3,0 0,-0.002 0,-2.99805 3,0 0,-3 -3,0 0,2.99805 -3,0 z m 6,-2.99805 3,0 0,-3 -3,0 0,3 z m 3,-3 3,0 0,-3 -3,0 0,3 z m 3,-3 3,0 0,-3 -3,0 0,3 z m 3,-3 3,0 0,2.99805 3,0 0,3 3,0 0,3 3,0 0,3 12,0 0,-3 -3,0 0,-3 -3,0 0,-3 -3,0 0,-3 -12,0 0,-2.99805 -3,0 0,3 z m 3,-3 3,0 3,0 3,0 0,-9 -3,0 0,3 -3,0 0,3 -3,0 0,3 z m 9,-9 3,0 0,11.99805 3,0 0,3 3,0 0,3 3,0 0,3 3,0 0,-12 -3,0 0,-3 -3,0 0,-3 -3,0 0,-3 -3,0 0,-2.99805 -3,0 0,3 z m 3,-3 3,0 0,-3 -3,0 0,3 z m 3,-3 3,0 0,-3 -3,0 0,3 z m 3,-3 3,0 0,-3 -3,0 0,3 z m 3,-3 3,0 0,-3 -3,0 0,3 z m 0,35.99805 0,3 3,0 0,-3 -3,0 z m -36,3.00195 0,2.99805 -3,0 0,3 -3,0 0,3 -3,0 0,3 -3,0 0,3 -3,0 0,3 -3,0 0,3 -3,0 0,3 -3,0 0,3 -3,0 0,3 -3,0 0,3 -3,0 0,3 -3,0 0,2.99805 6,0 0,-2.99805 3,0 0,-3 3,0 0,3 3,0 0,2.99805 6,0 0,-2.99805 -3,0 0,-3 -3,0 0,-3 3,0 3,0 3,0 0,-9 3,0 0,3 3,0 0,3 3,0 0,9 3,0 0,-9 3,0 0,-3 3,0 0,-3 3,0 0,3 0,3 0,3 9,0 0,3 -3,0 0,3 -3,0 0,2.99805 6,0 0,-2.99805 3,0 0,-3 3,0 0,3 3,0 0,2.99805 6,0 0,-2.9961 3,0 0,-3 -3,0 0,2.99805 -3,0 0,-2.99805 3,0 0,-3 -3,0 0,2.99805 -3,0 0,-2.99805 3,0 0,-3 -3,0 0,2.99805 -3,0 0,-2.99805 3,0 0,-3 -3,0 0,2.99805 -3,0 0,-2.99805 3,0 0,-3 0,-3 0,-3 -9,0 0,2.99805 -3,0 0,-2.99805 3,0 0,-3 -3,0 0,2.99805 -3,0 0,-2.99805 3,0 0,-3 -3,0 0,2.99805 -3,0 0,-2.99805 3,0 0,-3 -3,0 0,2.99805 -3,0 0,-2.99805 3,0 0,-3 -3,0 0,2.99805 -3,0 0,-2.99805 3,0 0,-3 -3,0 z m 15,12 12,0 0,-3 3,0 0,-3 3,0 0,-3 3,0 0,-3 -12,0 0,3 -3,0 0,3 -3,0 0,3 -3,0 0,3 z m 21,-9 0,3 -3,0 0,3 -3,0 0,3 -3,0 0,12 3,0 0,-3 3,0 0,-3 3,0 0,-3 3,0 0,-12 -3,0 z m 0,33 0,2.9961 3,0 0,-2.9961 -3,0 z m -27,-6.00195 -3,0 0,3 3,0 0,-3 z m -3,3 -3,0 0,3 3,0 0,-3 z m -3,3 -3,0 0,2.99805 3,0 0,-2.99805 z m -6,0 -3,0 0,2.99805 3,0 0,-2.99805 z m -3,0 0,-3 -3,0 0,3 3,0 z m -3,-3 0,-3 -3,0 0,3 3,0 z m -27,3 0,-3 -3,0 0,3 3,0 z m -3,0 -3,0 0,2.99805 3,0 0,-2.99805 z m 3,-3 3,0 0,-3 -3,0 0,3 z m 3,-3 3,0 0,-3 -3,0 0,3 z m 3,-3 3,0 0,-3 -3,0 0,-11.99805 -3,0 0,-3 -3,0 0,-3 -3,0 0,-3 -3,0 0,12 3,0 0,3 3,0 0,3 3,0 0,3 3,0 0,2.99805 z m -9,-23.99805 3,0 0,3 3,0 0,3 3,0 0,3 12,0 0,2.99805 3,0 0,-3 -3,0 0,-2.99805 -3,0 0,-3 -3,0 0,-3 -3,0 0,-3 -12,0 0,3 z m 24,8.99805 3,0 0,-3 -3,0 0,3 z m 3,-3 3,0 0,-3 -3,0 0,3 z m 3,-3 3,0 0,-3 -3,0 0,3 z m -9,9 -9,0 0,3 0,3 0,3 3,0 0,-3 3,0 0,-3 3,0 0,-3 z m 0,-30 -12,0 0,3 -3,0 0,3 -3,0 0,3 -3,0 0,3 12,0 0,-3 3,0 0,-3 3,0 0,-3 3,0 0,-3 z m -21,12 -3,0 0,3 3,0 0,-3 z m -3,3 -3,0 0,3 3,0 0,-3 z m 0,-3 0,-3 -3,0 0,3 3,0 z m 0,-3 3,0 0,-3 3,0 0,-3 3,0 0,-3 3,0 0,-12 -3,0 0,3 -3,0 0,3 -3,0 0,3 -3,0 0,12 z m 12,-54 0,-12 -3,0 0,-3 -3,0 0,-3 -3,0 0,-3 -3,0 0,12 3,0 0,3 3,0 0,3 3,0 0,3 3,0 z m -9,-21 3,0 0,3 3,0 0,3 3,0 0,3 12,0 0,-3 -3,0 0,-3 -3,0 0,-3 -3,0 0,-3 -12,0 0,3 z m 33,-9 0,-3 -3,0 0,3 3,0 z m -3,-3 0,-3 -3,0 0,3 3,0 z m -3,-3 0,-3 -3,0 0,3 3,0 z m -3,-3 0,-3 -3,0 0,2.99805 -12,0 0,3 -3,0 0,3 -3,0 0,3 -3,0 0,3 12,0 0,-3 3,0 0,-3 3,0 0,-3 3,0 0,-2.99805 3,0 z m -24,11.99805 -3,0 0,3 3,0 0,-3 z m -3,3 -3,0 0,3 3,0 0,-3 z m 0,-3 0,-3 -3,0 0,3 3,0 z m 0,-3 3,0 0,-3 3,0 0,-3 3,0 0,-3 3,0 0,-11.99805 3,0 0,-3 -3,0 0,2.99805 -3,0 0,3 -3,0 0,3 -3,0 0,3 -3,0 0,12 z m 12,-23.99805 0,-3 -3,0 0,3 3,0 z m -3,-3 0,-3 -3,0 0,3 3,0 z m -3,-3 0,-3 -3,0 0,3 3,0 z m -3,-3 0,-3 -3,0 0,3 3,0 z m -3,-3 0,-3 -3,0 0,3 3,0 z m 15,15 0,9 3,0 3,0 3,0 0,-3 -3,0 0,-3 -3,0 0,-3 -3,0 z m -102,-18 0,3 3,0 0,-3 -3,0 z m 48,0 0,3 3,0 0,-3 -3,0 z m 54,0 0,3 3,0 0,-3 -3,0 z m 48,0 0,3 3,0 0,-3 -3,0 z m -75,3 0,3 -3,0 0,3 3,0 0,3 3,0 0,-3 3,0 0,-3 -3,0 0,-3 -3,0 z m 3,9 0,3 -3,0 0,-3 -3,0 0,3 0,3 0,3 3,0 0,-3 3,0 0,3 3,0 0,-9 -3,0 z m 0,9 -3,0 0,3 -3,0 0,3 3,0 0,3 3,0 0,-3 3,0 0,-3 -3,0 0,-3 z m 0,9 0,3 -3,0 0,-3 -3,0 0,3 0,3 0,3 3,0 0,2.99805 -3,0 0,3 3,0 0,3 3,0 0,-3 3,0 0,-3 -3,0 0,-2.99805 3,0 0,-9 -3,0 z m 0,17.99805 0,3 -3,0 0,-3 -3,0 0,3 0,3 0,3 3,0 0,-3 3,0 0,3 3,0 0,-9 -3,0 z m -96,-39 0,6 3,0 0,3 -3,0 0,6 3,0 0,-3 3,0 0,-3 3,0 0,-3 -3,0 0,-3 -3,0 0,-3 -3,0 z m 102,0 0,6 3,0 0,3 -3,0 0,6 3,0 0,-3 3,0 0,-3 3,0 0,-3 -3,0 0,-3 -3,0 0,-3 -3,0 z m -18,0.002 0,3 -3,0 0,3 -3,0 0,3 3,0 0,3 3,0 0,3 3,0 0,-6 -3,0 0,-3 3,0 0,-6 -3,0 z m 99,3 0,3 -3,0 0,3 3,0 0,3 3,0 0,-3 0,-3 0,-3 -3,0 z m -141,6 3,0 0,3 3,0 0,3 3,0 0,3 -3,0 0,3 -3,0 0,3 -3,0 0,-3 -3,0 0,-3 -3,0 0,-3 3,0 0,-3 3,0 0,-3 z m 21,0 3,0 0,2.99805 -3,0 0,-2.99805 z m 81,0 3,0 0,3 3,0 0,3 3,0 0,3 -3,0 0,3 -3,0 0,3 -3,0 0,-3 -3,0 0,-3 -3,0 0,-3 3,0 0,-3 3,0 0,-3 z m -84,3 3,0 0,2.99805 -3,0 0,-2.99805 z m -18,3 0,3 3,0 0,-3 -3,0 z m 102,0 0,3 3,0 0,-3 -3,0 z m -117,11.99805 0,3 -3,0 0,3 -3,0 0,3 3,0 0,3 3,0 0,3 3,0 0,-3 3,0 0,-3 3,0 0,-3 -3,0 0,-3 -3,0 0,-3 -3,0 z m 30,0 0,3 -3,0 0,3 -3,0 0,3 3,0 0,3 3,0 0,3 3,0 0,-3 3,0 0,-3 3,0 0,-3 -3,0 0,-3 -3,0 0,-3 -3,0 z m 72,0 0,3 -3,0 0,3 -3,0 0,3 3,0 0,3 3,0 0,3 3,0 0,-3 3,0 0,-3 3,0 0,-3 -3,0 0,-3 -3,0 0,-3 -3,0 z m -36,0.002 3,0 0,2.99805 -3,0 0,-2.99805 z m 66,0 0,3 -3,0 0,3 -3,0 0,3 3,0 0,3 3,0 0,3 3,0 0,-3 3,0 0,-3 3,0 0,-3 -3,0 0,-3 -3,0 0,-3 -3,0 z m -132,5.99805 3,0 0,3 -3,0 0,-3 z m 30,0 3,0 0,3 -3,0 0,-3 z m 72,0 3,0 0,3 -3,0 0,-3 z m 30,0.002 3,0 0,3 -3,0 0,-3 z m -15,11.99805 3,0 0,3 3,0 0,3 3,0 0,3 -3,0 0,3 -3,0 0,3 -3,0 0,-3 -3,0 0,-3 -3,0 0,-3 3,0 0,-3 3,0 0,-3 z m -102,0.002 3,0 0,3 3,0 0,3 3,0 0,3 -3,0 0,3 -3,0 0,3 -3,0 0,-3 -3,0 0,-3 -3,0 0,-3 3,0 0,-3 3,0 0,-3 z m 51,3 0,3 -3,0 0,3 3,0 0,3 3,0 0,-3 3,0 0,-3 -3,0 0,-3 -3,0 z m 3,9 0,3 -3,0 0,-3 -3,0 0,3 0,3 0,3 3,0 0,-3 3,0 0,3 3,0 0,-9 -3,0 z m 0,9 -3,0 0,3 -3,0 0,3 3,0 0,3 3,0 0,-3 3,0 0,-3 -3,0 0,-3 z m 0,9 0,3 -3,0 0,-3 -3,0 0,3 0,3 0,3 3,0 0,-3 3,0 0,3 3,0 0,-9 -3,0 z m 0,9 -3,0 0,3 -3,0 0,3 3,0 0,3 3,0 0,-3 3,0 0,-3 -3,0 0,-3 z m 0,9 0,3 -3,0 0,-3 -3,0 0,3 0,3 0,3 3,0 0,-3 3,0 0,3 3,0 0,-9 -3,0 z m 0,9 -3,0 0,3 -3,0 0,3 3,0 0,3 3,0 0,-3 3,0 0,-3 -3,0 0,-3 z m 0,9 0,3 -3,0 0,-3 -3,0 0,3 0,3 0,3 3,0 0,-3 3,0 0,3 3,0 0,-9 -3,0 z m 0,9 -3,0 0,3 -3,0 0,3 3,0 0,3 3,0 0,-3 3,0 0,-3 -3,0 0,-3 z m 0,9 0,3 -3,0 0,-3 -3,0 0,3 0,3 0,3 3,0 0,-3 3,0 0,3 3,0 0,-9 -3,0 z m 0,9 -3,0 0,3 -3,0 0,3 3,0 0,3 3,0 0,-3 3,0 0,-3 -3,0 0,-3 z m 0,9 0,3 -3,0 0,-3 -3,0 0,3 0,3 0,3 3,0 0,-3 3,0 0,3 3,0 0,-9 -3,0 z m 0,9 -3,0 0,2.99805 3,0 0,-2.99805 z m 48,-105.00195 0,3 3,0 0,-3 -3,0 z m -102,0.002 0,3 3,0 0,-3 -3,0 z m -42,2.99805 0,6 3,0 0,3 -3,0 0,6 3,0 0,-3 3,0 0,-3 3,0 0,-3 -3,0 0,-3 -3,0 0,-3 -3,0 z m 84,0 0,3 -3,0 0,3 -3,0 0,3 3,0 0,3 3,0 0,3 3,0 0,-6 -3,0 0,-3 3,0 0,-6 -3,0 z m 18,0 0,6 3,0 0,3 -3,0 0,6 3,0 0,-3 3,0 0,-3 3,0 0,-3 -3,0 0,-3 -3,0 0,-3 -3,0 z m 24,0.002 3,0 0,2.99805 -3,0 0,-2.99805 z m 36,0.002 3,0 0,2.9961 -3,0 0,-2.9961 z m -27,2.9961 3,0 0,3 3,0 0,3 3,0 0,9 3,0 0,-9 3,0 0,-3 3,0 0,-3 3,0 0,3 0,3 0,3 9,0 0,3 -3,0 0,3 -3,0 0,3 -9,0 0,3 9,0 0,3 3,0 0,3 3,0 0,3 -3,0 -3,0 -3,0 0,9 -3,0 0,-3 -3,0 0,-3 -3,0 0,-9 -3,0 0,9 -3,0 0,3 -3,0 0,3 -3,0 0,-3 0,-3 0,-3 -9,0 0,-3 3,0 0,-3 3,0 0,-3 9,0 0,-3 -9,0 0,-3 -3,0 0,-3 -3,0 0,-3 3,0 3,0 3,0 0,-9 z m 0,9 0,3 3,0 0,-3 -3,0 z m 3,3 0,3 3,0 0,-3 -3,0 z m 3,3 0,3 3,0 0,-3 -3,0 z m 3,3 0,3 3,0 0,-3 -3,0 z m 3,0 3,0 0,-3 -3,0 0,3 z m 3,-3 3,0 0,-3 -3,0 0,3 z m 3,-3 3,0 0,-3 -3,0 0,3 z m -6,9 0,3 3,0 0,-3 -3,0 z m 3,3 0,3 3,0 0,-3 -3,0 z m 3,3 0,3 3,0 0,-3 -3,0 z m -9,-6 -3,0 0,3 3,0 0,-3 z m -3,3 -3,0 0,3 3,0 0,-3 z m -3,3 -3,0 0,3 3,0 0,-3 z m -105,-26.99805 3,0 0,3 3,0 0,3 3,0 0,9 3,0 0,-9 3,0 0,-3 3,0 0,-3 3,0 0,3 0,3 0,3 9,0 0,3 -3,0 0,3 -3,0 0,3 -9,0 0,3 9,0 0,3 3,0 0,3 3,0 0,3 -3,0 -3,0 -3,0 0,9 -3,0 0,-3 -3,0 0,-3 -3,0 0,-9 -3,0 0,9 -3,0 0,3 -3,0 0,3 -3,0 0,-3 0,-3 0,-3 -9,0 0,-3 3,0 0,-3 3,0 0,-3 9,0 0,-3 -9,0 0,-3 -3,0 0,-3 -3,0 0,-3 3,0 3,0 3,0 0,-9 z m 0,9 0,3 3,0 0,-3 -3,0 z m 3,3 0,3 3,0 0,-3 -3,0 z m 3,3 0,3 3,0 0,-3 -3,0 z m 3,3 0,3 3,0 0,-3 -3,0 z m 3,0 3,0 0,-3 -3,0 0,3 z m 3,-3 3,0 0,-3 -3,0 0,3 z m 3,-3 3,0 0,-3 -3,0 0,3 z m -6,9 0,3 3,0 0,-3 -3,0 z m 3,3 0,3 3,0 0,-3 -3,0 z m 3,3 0,3 3,0 0,-3 -3,0 z m -9,-6 -3,0 0,3 3,0 0,-3 z m -3,3 -3,0 0,3 3,0 0,-3 z m -3,3 -3,0 0,3 3,0 0,-3 z m 87,-27 3,0 0,2.99805 -3,0 0,-2.99805 z m 60,0 0,3 -3,0 0,3 3,0 0,3 3,0 0,-3 0,-3 0,-3 -3,0 z m -18,0.002 3,0 0,2.9961 -3,0 0,-2.9961 z m -45,11.9961 3,0 0,3 3,0 0,3 3,0 0,3 -3,0 0,3 -3,0 0,3 -3,0 0,-3 -3,0 0,-3 -3,0 0,-3 3,0 0,-3 3,0 0,-3 z m 48,0 3,0 0,3 3,0 0,3 3,0 0,3 -3,0 0,3 -3,0 0,3 -3,0 0,-3 -3,0 0,-3 -3,0 0,-3 3,0 0,-3 3,0 0,-3 z m -150,0.002 3,0 0,3 3,0 0,3 3,0 0,3 -3,0 0,3 -3,0 0,3 -3,0 0,-3 -3,0 0,-3 -3,0 0,-3 3,0 0,-3 3,0 0,-3 z m 48,0 3,0 0,3 3,0 0,3 3,0 0,3 -3,0 0,3 -3,0 0,3 -3,0 0,-3 -3,0 0,-3 -3,0 0,-3 3,0 0,-3 3,0 0,-3 z m 54,5.99805 0,3 3,0 0,-3 -3,0 z m 48,0 0,3 3,0 0,-3 -3,0 z m -150,0.002 0,3 3,0 0,-3 -3,0 z m 48,0 0,3 3,0 0,-3 -3,0 z m -66,9 0,6 3,0 0,3 -3,0 0,6 3,0 0,-3 3,0 0,-3 3,0 0,-3 -3,0 0,-3 -3,0 0,-3 -3,0 z m 84,0 0,3 -3,0 0,3 -3,0 0,3 3,0 0,3 3,0 0,3 3,0 0,-6 -3,0 0,-3 3,0 0,-6 -3,0 z m 18,0 0,6 3,0 0,3 -3,0 0,6 3,0 0,-3 3,0 0,-3 3,0 0,-3 -3,0 0,-3 -3,0 0,-3 -3,0 z m 81,3 0,3 -3,0 0,3 3,0 0,3 3,0 0,-3 0,-3 0,-3 -3,0 z m -39,5.99805 3,0 0,3 3,0 0,3 3,0 0,3 -3,0 0,3 -3,0 0,3 -3,0 0,-3 -3,0 0,-3 -3,0 0,-3 3,0 0,-3 3,0 0,-3 z m -102,0.002 3,0 0,3 3,0 0,3 3,0 0,3 -3,0 0,3 -3,0 0,3 -3,0 0,-3 -3,0 0,-3 -3,0 0,-3 3,0 0,-3 3,0 0,-3 z m 102,5.99805 0,3 3,0 0,-3 -3,0 z m -102,0.002 0,3 3,0 0,-3 -3,0 z m -15,12 0,3 -3,0 0,3 -3,0 0,3 3,0 0,3 3,0 0,3 3,0 0,-3 3,0 0,-3 3,0 0,-3 -3,0 0,-3 -3,0 0,-3 -3,0 z m 30,0 0,3 -3,0 0,3 -3,0 0,3 3,0 0,3 3,0 0,3 3,0 0,-3 3,0 0,-3 3,0 0,-3 -3,0 0,-3 -3,0 0,-3 -3,0 z m 72,0 0,3 -3,0 0,3 -3,0 0,3 3,0 0,3 3,0 0,3 3,0 0,-3 3,0 0,-3 3,0 0,-3 -3,0 0,-3 -3,0 0,-3 -3,0 z m 30,0 0,3 -3,0 0,3 -3,0 0,3 3,0 0,3 3,0 0,3 3,0 0,-3 3,0 0,-3 3,0 0,-3 -3,0 0,-3 -3,0 0,-3 -3,0 z m -132,6 3,0 0,3 -3,0 0,-3 z m 30,0 3,0 0,3 -3,0 0,-3 z m 72,0 3,0 0,3 -3,0 0,-3 z m 30,0 3,0 0,3 -3,0 0,-3 z m -117,12 3,0 0,3 3,0 0,3 3,0 0,3 -3,0 0,3 -3,0 0,3 -3,0 0,-3 -3,0 0,-3 -3,0 0,-3 3,0 0,-3 3,0 0,-3 z m 102,0 3,0 0,3 3,0 0,3 3,0 0,3 -3,0 0,3 -3,0 0,3 -3,0 0,-3 -3,0 0,-3 -3,0 0,-3 3,0 0,-3 3,0 0,-3 z m -102,6 0,3 3,0 0,-3 -3,0 z m 102,0 0,3 3,0 0,-3 -3,0 z m -144,3 0,6 3,0 0,3 -3,0 0,6 3,0 0,-3 3,0 0,-3 3,0 0,-3 -3,0 0,-3 -3,0 0,-3 -3,0 z m 84,0 0,3 -3,0 0,3 -3,0 0,3 3,0 0,3 3,0 0,3 3,0 0,-6 -3,0 0,-3 3,0 0,-6 -3,0 z m 18,0 0,6 3,0 0,3 -3,0 0,6 3,0 0,-3 3,0 0,-3 3,0 0,-3 -3,0 0,-3 -3,0 0,-3 -3,0 z m -78,0.002 3,0 0,2.99805 -3,0 0,-2.99805 z m 138,0 3,0 0,2.99805 -3,0 0,-2.99805 z m 21,2.99805 0,3 -3,0 0,3 3,0 0,3 3,0 0,-3 0,-3 0,-3 -3,0 z m -162,0.002 3,0 0,2.99805 -3,0 0,-2.99805 z m 144,0 3,0 0,2.99805 -3,0 0,-2.99805 z"
         style="color:#000000;clip-rule:nonzero;display:inline;overflow:visible;visibility:visible;opacity:1;isolation:auto;mix-blend-mode:normal;color-interpolation:sRGB;color-interpolation-filters:linearRGB;solid-color:#000000;solid-opacity:1;fill:#ff2a2a;fill-opacity:1;fill-rule:evenodd;stroke:none;stroke-width:1px;stroke-linecap:butt;stroke-linejoin:miter;stroke-miterlimit:4;stroke-dasharray:none;stroke-dashoffset:0;stroke-opacity:1;color-rendering:auto;image-rendering:auto;shape-rendering:auto;text-rendering:auto;enable-background:accumulate" />
    </g>
  </g>
</svg>
