<?xml version="1.0" encoding="UTF-8" standalone="no"?>
<!-- Created with Inkscape (http://www.inkscape.org/) -->

<svg
   xmlns:dc="http://purl.org/dc/elements/1.1/"
   xmlns:cc="http://creativecommons.org/ns#"
   xmlns:rdf="http://www.w3.org/1999/02/22-rdf-syntax-ns#"
   xmlns:svg="http://www.w3.org/2000/svg"
   xmlns="http://www.w3.org/2000/svg"
   xmlns:sodipodi="http://sodipodi.sourceforge.net/DTD/sodipodi-0.dtd"
   xmlns:inkscape="http://www.inkscape.org/namespaces/inkscape"
   inkscape:export-ydpi="101"
   inkscape:export-xdpi="101"
   inkscape:version="0.91pre3 r13670"
   version="1.1"
   id="svg2"
   viewBox="0 0 680.55388 836.73789"
   height="236.14603mm"
   width="192.06743mm"
   sodipodi:docname="Беларуская_Сотня.svg">
  <defs
     id="defs4" />
  <sodipodi:namedview
     inkscape:snap-others="false"
     inkscape:snap-global="false"
     inkscape:snap-smooth-nodes="true"
     inkscape:object-nodes="true"
     inkscape:object-paths="true"
     inkscape:snap-intersection-paths="true"
     inkscape:snap-object-midpoints="true"
     inkscape:window-maximized="1"
     inkscape:window-y="0"
     inkscape:window-x="0"
     inkscape:window-height="1030"
     inkscape:window-width="1920"
     showgrid="false"
     inkscape:current-layer="layer7"
     inkscape:document-units="px"
     inkscape:cy="327.30608"
     inkscape:cx="-134.17832"
     inkscape:zoom="0.70710678"
     inkscape:pageshadow="2"
     inkscape:pageopacity="0.0"
     borderopacity="1.0"
     bordercolor="#666666"
     pagecolor="#ffffff"
     id="base"
     fit-margin-top="0"
     fit-margin-left="0"
     fit-margin-right="0"
     fit-margin-bottom="0" />
  <metadata
     id="metadata7">
    <rdf:RDF>
      <cc:Work
         rdf:about="">
        <dc:format>image/svg+xml</dc:format>
        <dc:type
           rdf:resource="http://purl.org/dc/dcmitype/StillImage" />
        <dc:title />
      </cc:Work>
    </rdf:RDF>
  </metadata>
  <g
     style="display:inline;opacity:1"
     inkscape:label="Аснова"
     id="g4300"
     inkscape:groupmode="layer"
     sodipodi:insensitive="true"
     transform="translate(-1131.3204,-243.43789)">
    <path
       id="path4377"
       d="m 1471.5977,260.08789 c -109.3127,5.2e-4 -216.4826,21.80651 -315.5645,62.66211 0,0.002 -8e-4,0.004 0,0.006 a 12.817083,12.817083 0 0 0 -8.0625,11.89844 l 0,197.61718 c 0,4.6321 2.4567,8.69147 6.1387,10.94336 0.5145,0.2907 0.9357,0.57824 1.3105,0.86524 a 70.852798,70.852798 0 0 1 34.0039,60.34961 70.852798,70.852798 0 0 1 -35.2129,61.15429 c 0,0.003 -0.012,0.007 -0.012,0.01 -3.7455,2.23732 -6.2285,6.19506 -6.2285,10.875 l 0,63.42578 0,0.32422 c 0.1753,178.58613 145,323.30668 323.627,323.30668 178.627,0 323.4516,-144.72055 323.6269,-323.30668 l 0,0 0,-0.32422 0,-63.42578 c 0,-4.67994 -2.4831,-8.63768 -6.2286,-10.875 -0.01,-0.003 -0.01,-0.007 -0.012,-0.01 a 70.852798,70.852798 0 0 1 -35.2129,-61.15429 70.852798,70.852798 0 0 1 34.0039,-60.34961 c 0.3748,-0.287 0.7961,-0.57454 1.3106,-0.86524 3.682,-2.25189 6.1387,-6.31126 6.1387,-10.94336 l 0,-197.61718 a 12.817083,12.817083 0 0 0 -8.0625,-11.89844 c 8e-4,-0.002 0,-0.004 0,-0.006 -99.0831,-40.85609 -206.2543,-62.66211 -315.5683,-62.66211 z"
       style="fill:#2b2b29;fill-opacity:1;fill-rule:evenodd;stroke:#2b2b29;stroke-width:33.29999924;stroke-linecap:round;stroke-linejoin:round;stroke-miterlimit:4;stroke-dasharray:none;stroke-opacity:1"
       inkscape:connector-curvature="0" />
    <path
       style="fill:none;fill-rule:evenodd;stroke:#ff0008;stroke-width:8;stroke-linecap:round;stroke-linejoin:round;stroke-miterlimit:4;stroke-dasharray:none;stroke-opacity:1"
       d="m 1471.5977,260.08789 c -109.3127,5.2e-4 -216.4826,21.80651 -315.5645,62.66211 0,0.002 -8e-4,0.004 0,0.006 a 12.817083,12.817083 0 0 0 -8.0625,11.89844 l 0,197.61718 c 0,4.6321 2.4567,8.69147 6.1387,10.94336 0.5145,0.2907 0.9357,0.57824 1.3105,0.86524 a 70.852798,70.852798 0 0 1 34.0039,60.34961 70.852798,70.852798 0 0 1 -35.2129,61.15429 c 0,0.003 -0.012,0.007 -0.012,0.01 -3.7455,2.23732 -6.2285,6.19506 -6.2285,10.875 l 0,63.42578 0,0.32422 c 0.1753,178.58613 145,323.30668 323.627,323.30668 178.627,0 323.4516,-144.72055 323.6269,-323.30668 l 0,0 0,-0.32422 0,-63.42578 c 0,-4.67994 -2.4831,-8.63768 -6.2286,-10.875 -0.01,-0.003 -0.01,-0.007 -0.012,-0.01 a 70.852798,70.852798 0 0 1 -35.2129,-61.15429 70.852798,70.852798 0 0 1 34.0039,-60.34961 c 0.3748,-0.287 0.7961,-0.57454 1.3106,-0.86524 3.682,-2.25189 6.1387,-6.31126 6.1387,-10.94336 l 0,-197.61718 a 12.817083,12.817083 0 0 0 -8.0625,-11.89844 c 8e-4,-0.002 0,-0.004 0,-0.006 -99.0831,-40.85609 -206.2543,-62.66211 -315.5683,-62.66211 z"
       id="path4351"
       inkscape:connector-curvature="0" />
  </g>
  <g
     style="display:inline;opacity:1"
     inkscape:label="Унутраная частка"
     id="g4379"
     inkscape:groupmode="layer"
     sodipodi:insensitive="true"
     transform="translate(-1131.3204,-243.43789)">
    <path
       inkscape:connector-curvature="0"
       id="path4435"
       d="m 1471.5977,377.25586 c -70.3257,0.0267 -140.2543,10.50193 -207.4786,31.08008 l -0.01,139.05859 c 18.9287,15.60747 29.9027,38.84937 29.9277,63.38281 -0.014,24.54809 -10.9921,47.80685 -29.9336,63.42188 l 0,64.85937 0,0.0293 0,0.0293 0,6.93945 0.1309,0 c 3.6905,110.94451 95.1101,199.75782 207.3633,199.75781 112.2532,1e-5 203.6727,-88.8133 207.3632,-199.75781 l 0.1309,0 0,-6.93945 0,-0.0293 0,-0.0293 0,-64.85937 c -18.9415,-15.61503 -29.9191,-38.87379 -29.9336,-63.42188 0.025,-24.53344 10.999,-47.77534 29.9277,-63.38281 l -0.01,-139.05859 a 707.35785,704.7475 0 0 0 -207.4785,-31.08008 z"
       style="color:#000000;clip-rule:nonzero;display:inline;overflow:visible;visibility:visible;opacity:1;isolation:auto;mix-blend-mode:normal;color-interpolation:sRGB;color-interpolation-filters:linearRGB;solid-color:#000000;solid-opacity:1;fill:#ffffff;fill-opacity:1;fill-rule:nonzero;stroke:#ffffff;stroke-width:3;stroke-linecap:round;stroke-linejoin:round;stroke-miterlimit:4;stroke-dasharray:none;stroke-dashoffset:0;stroke-opacity:1;color-rendering:auto;image-rendering:auto;shape-rendering:auto;text-rendering:auto;enable-background:accumulate" />
    <path
       style="fill:#ff0008;fill-opacity:1;fill-rule:evenodd;stroke:none;stroke-width:1px;stroke-linecap:butt;stroke-linejoin:miter;stroke-opacity:1"
       d="m 1264.1032,715.3622 344.1903,-324.76873 70.7821,17.74247 0.01,82.12236 0,47.15548 -17.4295,29.65884 -12.4975,43.50472 3.282,22.9567 -294.3286,278.44398 -40.5075,-34.54601 -26.1682,-35.94207 -25.0273,-71.78635 z"
       id="path4433"
       inkscape:connector-curvature="0"
       sodipodi:nodetypes="ccccccccccccc" />
    <path
       id="path4430"
       d="m 1471.5977,377.25586 c -70.3257,0.0267 -140.2543,10.50193 -207.4786,31.08008 l -0.01,139.05859 c 18.9287,15.60747 29.9027,38.84937 29.9277,63.38281 -0.014,24.54809 -10.9921,47.80685 -29.9336,63.42188 l 0,64.85937 0,0.0293 0,0.0293 0,6.93945 0.1309,0 c 3.6905,110.94451 95.1101,199.75782 207.3633,199.75781 112.2532,1e-5 203.6727,-88.8133 207.3632,-199.75781 l 0.1309,0 0,-6.93945 0,-0.0293 0,-0.0293 0,-64.85937 c -18.9415,-15.61503 -29.9191,-38.87379 -29.9336,-63.42188 0.025,-24.53344 10.999,-47.77534 29.9277,-63.38281 l -0.01,-139.05859 a 707.35785,704.7475 0 0 0 -207.4785,-31.08008 z"
       style="color:#000000;clip-rule:nonzero;display:inline;overflow:visible;visibility:visible;opacity:1;isolation:auto;mix-blend-mode:normal;color-interpolation:sRGB;color-interpolation-filters:linearRGB;solid-color:#000000;solid-opacity:1;fill:none;fill-opacity:1;fill-rule:nonzero;stroke:#2b2b29;stroke-width:16;stroke-linecap:round;stroke-linejoin:round;stroke-miterlimit:4;stroke-dasharray:none;stroke-dashoffset:0;stroke-opacity:1;color-rendering:auto;image-rendering:auto;shape-rendering:auto;text-rendering:auto;enable-background:accumulate"
       inkscape:connector-curvature="0" />
    <path
       style="color:#000000;clip-rule:nonzero;display:inline;overflow:visible;visibility:visible;opacity:1;isolation:auto;mix-blend-mode:normal;color-interpolation:sRGB;color-interpolation-filters:linearRGB;solid-color:#000000;solid-opacity:1;fill:none;fill-opacity:1;fill-rule:nonzero;stroke:#ffffff;stroke-width:3;stroke-linecap:round;stroke-linejoin:round;stroke-miterlimit:4;stroke-dasharray:none;stroke-dashoffset:0;stroke-opacity:1;color-rendering:auto;image-rendering:auto;shape-rendering:auto;text-rendering:auto;enable-background:accumulate"
       d="m 1471.5977,377.25586 c -70.3257,0.0267 -140.2543,10.50193 -207.4786,31.08008 l -0.01,139.05859 c 18.9287,15.60747 29.9027,38.84937 29.9277,63.38281 -0.014,24.54809 -10.9921,47.80685 -29.9336,63.42188 l 0,64.85937 0,0.0293 0,0.0293 0,6.93945 0.1309,0 c 3.6905,110.94451 95.1101,199.75782 207.3633,199.75781 112.2532,1e-5 203.6727,-88.8133 207.3632,-199.75781 l 0.1309,0 0,-6.93945 0,-0.0293 0,-0.0293 0,-64.85937 c -18.9415,-15.61503 -29.9191,-38.87379 -29.9336,-63.42188 0.025,-24.53344 10.999,-47.77534 29.9277,-63.38281 l -0.01,-139.05859 a 707.35785,704.7475 0 0 0 -207.4785,-31.08008 z"
       id="rect4417"
       inkscape:connector-curvature="0" />
  </g>
  <g
     inkscape:groupmode="layer"
     id="layer5"
     inkscape:label="Крыж"
     style="display:inline;opacity:1"
     sodipodi:insensitive="true"
     transform="translate(-1131.3204,-243.43789)">
    <path
       style="color:#000000;clip-rule:nonzero;display:inline;overflow:visible;visibility:visible;opacity:1;isolation:auto;mix-blend-mode:normal;color-interpolation:sRGB;color-interpolation-filters:linearRGB;solid-color:#000000;solid-opacity:1;fill:#ffffff;fill-opacity:1;fill-rule:nonzero;stroke:#2b2b29;stroke-width:9;stroke-linecap:butt;stroke-linejoin:miter;stroke-miterlimit:4;stroke-dasharray:none;stroke-dashoffset:0;stroke-opacity:1;color-rendering:auto;image-rendering:auto;shape-rendering:auto;text-rendering:auto;enable-background:accumulate"
       d="m 1420.166,422.23633 5.9043,85.125 c -31.3484,0.81876 -58.6511,-2.35651 -88.625,-5.75 l 0,88.375 c 33.1559,-3.21671 59.0452,-5.86165 89.8633,-5.75 l 0.2812,66.74023 c -30.0479,-1.77761 -71.1987,-3.89529 -90.1445,-7.20703 l 0,90.3418 c 24.5309,-4.21671 57.8069,-6.98665 88.625,-6.875 l -6.125,85.125 51.6524,0 51.6523,0 -6.125,-85.125 c 30.8181,-0.11165 64.0941,2.65829 88.625,6.875 l 0,-90.3418 c -18.9458,3.31174 -60.0966,5.42942 -90.1445,7.20703 l 0.2812,-66.74023 c 30.8181,-0.11165 56.7074,2.53329 89.8633,5.75 l 0,-88.375 c -29.9739,3.39349 -57.2766,6.56876 -88.625,5.75 l 5.9062,-85.125 -51.4335,0 -51.4317,0 z"
       id="path4449"
       inkscape:connector-curvature="0" />
    <path
       style="color:#000000;font-style:normal;font-variant:normal;font-weight:normal;font-stretch:normal;font-size:medium;line-height:normal;font-family:sans-serif;text-indent:0;text-align:start;text-decoration:none;text-decoration-line:none;text-decoration-style:solid;text-decoration-color:#000000;letter-spacing:normal;word-spacing:normal;text-transform:none;direction:ltr;block-progression:tb;writing-mode:lr-tb;baseline-shift:baseline;text-anchor:start;white-space:normal;clip-rule:nonzero;display:inline;overflow:visible;visibility:visible;opacity:1;isolation:auto;mix-blend-mode:normal;color-interpolation:sRGB;color-interpolation-filters:linearRGB;solid-color:#000000;solid-opacity:1;fill:#2b2b29;fill-opacity:1;fill-rule:evenodd;stroke:#2b2b29;stroke-width:0.60000002;stroke-linecap:round;stroke-linejoin:round;stroke-miterlimit:0;stroke-dasharray:none;stroke-dashoffset:0;stroke-opacity:1;color-rendering:auto;image-rendering:auto;shape-rendering:auto;text-rendering:auto;enable-background:accumulate"
       d="m 1351.1161,578.76264 c 26.3837,-2.94769 53.8689,-4.35982 78.4599,-3.97067 -28.0518,-5.4452 -52.4542,-2.83294 -78.4599,3.97067 z"
       id="path4455"
       inkscape:connector-curvature="0"
       sodipodi:nodetypes="ccc" />
    <path
       sodipodi:nodetypes="ccc"
       inkscape:connector-curvature="0"
       id="path4459"
       d="m 1350.3036,721.97505 c 26.3837,-2.94769 55.0564,-4.92232 79.6474,-4.53317 -27.1143,-5.9452 -52.8292,-3.14544 -79.6474,4.53317 z"
       style="color:#000000;font-style:normal;font-variant:normal;font-weight:normal;font-stretch:normal;font-size:medium;line-height:normal;font-family:sans-serif;text-indent:0;text-align:start;text-decoration:none;text-decoration-line:none;text-decoration-style:solid;text-decoration-color:#000000;letter-spacing:normal;word-spacing:normal;text-transform:none;direction:ltr;block-progression:tb;writing-mode:lr-tb;baseline-shift:baseline;text-anchor:start;white-space:normal;clip-rule:nonzero;display:inline;overflow:visible;visibility:visible;opacity:1;isolation:auto;mix-blend-mode:normal;color-interpolation:sRGB;color-interpolation-filters:linearRGB;solid-color:#000000;solid-opacity:1;fill:#2b2b29;fill-opacity:1;fill-rule:evenodd;stroke:#2b2b29;stroke-width:0.60000002;stroke-linecap:round;stroke-linejoin:round;stroke-miterlimit:0;stroke-dasharray:none;stroke-dashoffset:0;stroke-opacity:1;color-rendering:auto;image-rendering:auto;shape-rendering:auto;text-rendering:auto;enable-background:accumulate" />
    <path
       sodipodi:nodetypes="ccc"
       inkscape:connector-curvature="0"
       id="path4175"
       d="m 1506.6306,511.90349 c 0.092,-26.54769 1.8363,-54.01382 5.0385,-78.39857 -8.6212,27.24391 -8.8199,51.78493 -5.0385,78.39857 z"
       style="color:#000000;font-style:normal;font-variant:normal;font-weight:normal;font-stretch:normal;font-size:medium;line-height:normal;font-family:sans-serif;text-indent:0;text-align:start;text-decoration:none;text-decoration-line:none;text-decoration-style:solid;text-decoration-color:#000000;letter-spacing:normal;word-spacing:normal;text-transform:none;direction:ltr;block-progression:tb;writing-mode:lr-tb;baseline-shift:baseline;text-anchor:start;white-space:normal;clip-rule:nonzero;display:inline;overflow:visible;visibility:visible;opacity:1;isolation:auto;mix-blend-mode:normal;color-interpolation:sRGB;color-interpolation-filters:linearRGB;solid-color:#000000;solid-opacity:1;fill:#2b2b29;fill-opacity:1;fill-rule:evenodd;stroke:#2b2b29;stroke-width:0.60000002;stroke-linecap:round;stroke-linejoin:round;stroke-miterlimit:0;stroke-dasharray:none;stroke-dashoffset:0;stroke-opacity:1;color-rendering:auto;image-rendering:auto;shape-rendering:auto;text-rendering:auto;enable-background:accumulate" />
    <path
       style="fill:#2b2b29;fill-opacity:1;fill-rule:evenodd;stroke:#2b2b29;stroke-width:0.60000002;stroke-linecap:round;stroke-linejoin:round;stroke-miterlimit:4;stroke-dasharray:none;stroke-opacity:1"
       d="m 1595.375,514.6122 0.625,65.625 c -30.2154,-3.0498 -60.4928,-4.65764 -90.375,-5.375 -0.8333,26.66666 -0.8979,45.31236 -0.25,78.5 -3.4591,-21.05924 -5.4616,-48.6368 -3.5,-82.75 30.942,0.73449 61.2006,2.26234 90.5,5.625 -0.6832,-28.56535 -0.6361,-51.00105 3,-61.625 z"
       id="path4179"
       inkscape:connector-curvature="0"
       sodipodi:nodetypes="ccccccc" />
    <path
       sodipodi:nodetypes="ccccccc"
       inkscape:connector-curvature="0"
       id="path4181"
       d="m 1595.375,654.1122 0.625,67.125 c -30.2154,-3.0498 -60.4928,-6.15764 -90.375,-6.875 -0.8333,26.66666 1.9771,46.68736 2.625,79.875 -5.0514,-15.75151 -8.5324,-48.8592 -6.375,-83.625 30.942,0.73449 61.0756,2.38734 90.375,5.75 -1.1832,-28.81535 -1.1361,-48.50105 3.125,-62.25 z"
       style="color:#000000;clip-rule:nonzero;display:inline;overflow:visible;visibility:visible;opacity:1;isolation:auto;mix-blend-mode:normal;color-interpolation:sRGB;color-interpolation-filters:linearRGB;solid-color:#000000;solid-opacity:1;fill:#2b2b29;fill-opacity:1;fill-rule:evenodd;stroke:#2b2b29;stroke-width:0.60000002;stroke-linecap:round;stroke-linejoin:round;stroke-miterlimit:4;stroke-dasharray:none;stroke-dashoffset:0;stroke-opacity:1;color-rendering:auto;image-rendering:auto;shape-rendering:auto;text-rendering:auto;enable-background:accumulate" />
  </g>
  <g
     inkscape:groupmode="layer"
     id="layer4"
     inkscape:label="Арнамент"
     style="display:inline;opacity:1"
     sodipodi:insensitive="true"
     transform="translate(-1131.3204,-243.43789)">
    <path
       style="color:#000000;clip-rule:nonzero;display:inline;overflow:visible;visibility:visible;opacity:1;isolation:auto;mix-blend-mode:normal;color-interpolation:sRGB;color-interpolation-filters:linearRGB;solid-color:#000000;solid-opacity:1;fill:#ff0008;fill-opacity:1;fill-rule:evenodd;stroke:none;stroke-width:0.19999999;stroke-linecap:round;stroke-linejoin:round;stroke-miterlimit:4;stroke-dasharray:none;stroke-dashoffset:0;stroke-opacity:1;color-rendering:auto;image-rendering:auto;shape-rendering:auto;text-rendering:auto;enable-background:accumulate"
       d="m 1706.5705,587.66275 -5.6569,5.65685 -5.6568,-5.65685 -6.9289,6.92887 5.6569,5.65685 -7.2133,7.21327 -5.6569,-5.65686 -6.9288,6.92887 5.6568,5.65686 -5.6568,5.65685 6.9288,6.9288 5.6568,-5.65686 7.2134,7.21334 -5.6569,5.65686 6.9288,6.92879 5.6569,-5.65685 5.6568,5.65685 6.9289,-6.92887 -5.6569,-5.65685 7.2133,-7.21327 5.6569,5.65686 6.9288,-6.92887 -5.6568,-5.65686 5.6568,-5.65685 -6.9288,-6.9288 -5.6568,5.65686 -7.2134,-7.21334 5.6569,-5.65686 -6.9288,-6.92879 z m -5.6569,19.51452 7.2133,7.21334 -7.2133,7.21326 -7.2133,-7.21334 7.2133,-7.21326 z"
       id="rect4200"
       inkscape:connector-curvature="0" />
    <path
       inkscape:connector-curvature="0"
       id="path4211"
       d="m 1244.4511,587.66275 -5.6569,5.65685 -5.6568,-5.65685 -6.9289,6.92887 5.6569,5.65685 -7.2133,7.21327 -5.6569,-5.65686 -6.9288,6.92887 5.6568,5.65686 -5.6568,5.65685 6.9288,6.9288 5.6568,-5.65686 7.2134,7.21334 -5.6569,5.65686 6.9288,6.92879 5.6569,-5.65685 5.6568,5.65685 6.9289,-6.92887 -5.6569,-5.65685 7.2133,-7.21327 5.6569,5.65686 6.9288,-6.92887 -5.6568,-5.65686 5.6568,-5.65685 -6.9288,-6.9288 -5.6568,5.65686 -7.2134,-7.21334 5.6569,-5.65686 -6.9288,-6.92879 z m -5.6569,19.51452 7.2133,7.21334 -7.2133,7.21326 -7.2133,-7.21334 7.2133,-7.21326 z"
       style="color:#000000;clip-rule:nonzero;display:inline;overflow:visible;visibility:visible;opacity:1;isolation:auto;mix-blend-mode:normal;color-interpolation:sRGB;color-interpolation-filters:linearRGB;solid-color:#000000;solid-opacity:1;fill:#ff0008;fill-opacity:1;fill-rule:evenodd;stroke:none;stroke-width:0.19999999;stroke-linecap:round;stroke-linejoin:round;stroke-miterlimit:4;stroke-dasharray:none;stroke-dashoffset:0;stroke-opacity:1;color-rendering:auto;image-rendering:auto;shape-rendering:auto;text-rendering:auto;enable-background:accumulate" />
  </g>
  <g
     inkscape:groupmode="layer"
     id="layer7"
     inkscape:label="Тэкст_Беларуская_Сотня 1"
     style="display:inline"
     transform="translate(-1131.3204,-243.43789)">
    <g
       id="g4208"
       inkscape:transform-center-y="-739.27327"
       transform="matrix(0.99997965,0.00637984,-0.00637984,0.99997965,6.9240996,-9.3434466)"
       inkscape:transform-center-x="-4.8071061">
      <path
         d="m 1267.4218,352.26483 6.6586,23.87915 q 0.7942,0.20044 3.2954,-0.28605 1.1744,-0.32747 2.3215,-0.75281 1.1198,-0.52319 2.3375,-1.07368 l 0.7236,0.32559 2.2923,8.22069 q -3.3482,1.98835 -8.057,2.87948 -4.5837,0.9617 -8.9735,-0.0292 -3.5523,-1.01349 -4.5074,-4.43877 l -16.0733,-57.64272 q -0.9551,-3.42529 1.5602,-6.1307 3.2437,-3.11944 7.6637,-4.66834 4.4905,-1.67404 8.3844,-1.70508 l 2.2923,8.22069 -0.4508,0.65306 q -1.3268,0.15903 -2.5285,0.38863 -1.2289,0.13174 -2.4033,0.45921 -2.3921,0.87796 -2.968,1.46044 l 6.2765,22.50904 7.3267,-4.36345 0.7237,0.32559 3.0836,11.05879 -0.4507,0.65306 -8.5275,0.0574 z"
         style="font-style:normal;font-variant:normal;font-weight:normal;font-stretch:normal;font-size:medium;line-height:125%;font-family:Rhodaelian-Alternates;-inkscape-font-specification:Rhodaelian-Alternates;letter-spacing:-2.25999999px;word-spacing:0px;fill:#ffffff;fill-opacity:1;stroke:none;stroke-width:1px;stroke-linecap:butt;stroke-linejoin:miter;stroke-opacity:1"
         id="path3457"
         inkscape:connector-curvature="0" />
      <path
         d="m 1314.9885,375.71791 -14.9238,-72.23523 q -7.4721,-0.0125 -13.7167,1.90015 -6.2445,1.91259 -10.3832,5.98374 -2.6938,2.52769 -1.9743,6.01011 l 13.2382,64.07644 11.2433,-2.32288 -13.0738,-63.28047 q 0.6726,-0.76144 2.6214,-1.37154 0.676,-0.24341 1.2935,-0.26725 0.597,-0.12332 1.2145,-0.14715 l 13.2177,63.97692 11.2432,-2.32284 z"
         style="font-style:normal;font-variant:normal;font-weight:normal;font-stretch:normal;font-size:medium;line-height:125%;font-family:Rhodaelian-Alternates;-inkscape-font-specification:Rhodaelian-Alternates;letter-spacing:-2.25999999px;word-spacing:0px;fill:#ffffff;fill-opacity:1;stroke:none;stroke-width:1px;stroke-linecap:butt;stroke-linejoin:miter;stroke-opacity:1"
         id="path3459"
         inkscape:connector-curvature="0" />
      <path
         d="m 1327.1175,348.8595 4.4045,23.15577 -11.2785,2.14527 -12.6438,-66.47303 q -0.5885,-3.09409 1.6219,-5.06585 4.6586,-3.78187 10.8467,-4.95892 6.5875,-1.25299 12.0097,0.61142 2.742,0.8229 3.3875,4.21642 l 12.6248,66.37323 -11.2784,2.14527 -4.4045,-23.15577 -5.2899,1.00619 z m -1.7656,-9.28227 5.2899,-1.00619 -6.0181,-31.63957 q -1.3925,-0.25225 -2.7898,0.0135 -1.2975,0.2468 -2.5001,0.99265 l 6.0181,31.63957 z"
         style="font-style:normal;font-variant:normal;font-weight:normal;font-stretch:normal;font-size:medium;line-height:125%;font-family:Rhodaelian-Alternates;-inkscape-font-specification:Rhodaelian-Alternates;letter-spacing:-2.25999999px;word-spacing:0px;fill:#ffffff;fill-opacity:1;stroke:none;stroke-width:1px;stroke-linecap:butt;stroke-linejoin:miter;stroke-opacity:1"
         id="path3461"
         inkscape:connector-curvature="0" />
      <path
         d="m 1363.3257,366.57699 -11.3633,1.63792 -10.5233,-73.00624 q 6.5201,-2.47955 13.244,-2.83286 6.8244,-0.3678 12.1006,2.05379 3.3928,1.46128 3.9001,4.98087 l 5.0008,34.69305 q 0.5218,3.62014 -1.7612,4.87306 -1.6941,1.06538 -5.615,2.3491 -3.8204,1.26922 -8.3456,1.92149 l 3.3629,23.32982 z m -3.4036,-32.8703 q 2.514,-0.36237 3.9354,-1.18315 l -4.421,-30.67067 q -1.021,-0.67402 -2.9461,-0.49917 -1.2212,0.0734 -2.485,0.56349 l 4.6094,31.97794 1.3073,-0.18844 z"
         style="font-style:normal;font-variant:normal;font-weight:normal;font-stretch:normal;font-size:medium;line-height:125%;font-family:Rhodaelian-Alternates;-inkscape-font-specification:Rhodaelian-Alternates;letter-spacing:-2.25999999px;word-spacing:0px;fill:#ffffff;fill-opacity:1;stroke:none;stroke-width:1px;stroke-linecap:butt;stroke-linejoin:miter;stroke-opacity:1"
         id="path3463"
         inkscape:connector-curvature="0" />
      <path
         d="m 1428.8137,307.72869 -0.7237,-13.08626 q -1.3356,-0.2314 -2.5473,-0.0626 -2.0177,0.31509 -2.8012,0.86719 l 3.035,54.88113 q 1.0537,0.654 2.8853,0.65447 1.2229,0.0341 2.5249,-0.34314 l -0.7013,-12.68048 11.4632,-0.63393 1.1668,21.10033 q -6.7069,1.99897 -13.5373,1.76617 -6.729,-0.23841 -11.7722,-3.11389 -3.2513,-1.75352 -3.4533,-5.4055 l -3.1135,-56.30135 q -0.1964,-3.55053 2.8418,-5.65187 4.6954,-3.41404 11.1541,-4.38174 6.4588,-0.9677 13.3397,0.17809 l 1.1949,21.60754 -10.9559,0.60588 z"
         style="font-style:normal;font-variant:normal;font-weight:normal;font-stretch:normal;font-size:medium;line-height:125%;font-family:Rhodaelian-Alternates;-inkscape-font-specification:Rhodaelian-Alternates;letter-spacing:-2.25999999px;word-spacing:0px;fill:#ffffff;fill-opacity:1;stroke:none;stroke-width:1px;stroke-linecap:butt;stroke-linejoin:miter;stroke-opacity:1"
         id="path3467"
         inkscape:connector-curvature="0" />
      <path
         d="m 1458.2115,325.35793 0.3472,33.52582 -11.48,0.11891 -0.7703,-74.36638 11.4801,-0.1189 0.3399,32.81467 0.4063,-0.004 0.8533,-5.90189 4.9098,-26.26476 0.6033,-0.61588 8.7402,0.21429 q 0.5079,-0.005 0.8201,0.70274 0.4137,0.70694 0.3174,1.21596 l -6.4637,33.18996 q 4.5948,2.1877 6.2592,5.92982 l 0.341,32.91627 -11.4801,0.1189 -0.2831,-27.32863 -4.9406,-6.14669 z"
         style="font-style:normal;font-variant:normal;font-weight:normal;font-stretch:normal;font-size:medium;line-height:125%;font-family:Rhodaelian-Alternates;-inkscape-font-specification:Rhodaelian-Alternates;letter-spacing:-2.25999999px;word-spacing:0px;fill:#ffffff;fill-opacity:1;stroke:none;stroke-width:1px;stroke-linecap:butt;stroke-linejoin:miter;stroke-opacity:1"
         id="path3469"
         inkscape:connector-curvature="0" />
      <path
         d="m 1491.8346,335.59406 -0.8133,23.5569 -11.4738,-0.39612 2.3346,-67.62456 q 0.1087,-3.14769 2.6997,-4.58312 5.3782,-2.66079 11.6736,-2.44345 6.7015,0.23136 11.5787,3.24621 2.4929,1.40764 2.3737,4.85994 l -2.3311,67.52301 -11.4739,-0.39612 0.8133,-23.5569 -5.3815,-0.18579 z m 0.326,-9.44307 5.3815,0.18579 1.1113,-32.18766 q -1.3025,-0.55326 -2.724,-0.60234 -1.32,-0.0456 -2.6576,0.41655 l -1.1112,32.18766 z"
         style="font-style:normal;font-variant:normal;font-weight:normal;font-stretch:normal;font-size:medium;line-height:125%;font-family:Rhodaelian-Alternates;-inkscape-font-specification:Rhodaelian-Alternates;letter-spacing:-2.25999999px;word-spacing:0px;fill:#ffffff;fill-opacity:1;stroke:none;stroke-width:1px;stroke-linecap:butt;stroke-linejoin:miter;stroke-opacity:1"
         id="path3471"
         inkscape:connector-curvature="0" />
      <path
         d="m 1527.4378,361.21924 11.4343,1.03139 6.6265,-73.46251 q -6.6428,-2.12937 -13.376,-2.12465 -6.8343,-0.004 -11.9742,2.69432 -3.3104,1.63961 -3.6297,5.1812 l -2.6561,29.44571 q -0.3012,3.33922 1.438,4.4142 0.9571,0.6984 2.5396,1.24919 l -7.5222,29.10879 0.3226,0.9472 10.0176,0.90361 6.8694,-28.65762 q 1.2052,0.21075 2.5207,0.32936 l -2.6105,28.93979 z m 3.4593,-38.35028 q -3.5507,-0.21827 -5.3173,-0.98968 l 2.3001,-25.49939 q 0.9837,-0.72736 2.9154,-0.65513 1.2234,0.008 2.5114,0.43066 l -2.4096,26.71365 z"
         style="font-style:normal;font-variant:normal;font-weight:normal;font-stretch:normal;font-size:medium;line-height:125%;font-family:Rhodaelian-Alternates;-inkscape-font-specification:Rhodaelian-Alternates;letter-spacing:-2.25999999px;word-spacing:0px;fill:#ffffff;fill-opacity:1;stroke:none;stroke-width:1px;stroke-linecap:butt;stroke-linejoin:miter;stroke-opacity:1"
         id="path3473"
         inkscape:connector-curvature="0" />
      <path
         d="m 1577.5982,314.3696 1.7972,-12.98245 q -1.2665,-0.48303 -2.4881,-0.54957 -2.0407,-0.0773 -2.9154,0.3144 l -7.5369,54.4458 q 0.9089,0.84378 2.7064,1.19519 1.1938,0.26781 2.5439,0.14701 l 1.7414,-12.5799 11.3722,1.57424 -2.8977,20.93295 q -6.9657,0.67683 -13.625,-0.86041 -6.5586,-1.52331 -10.9574,-5.31183 -2.8551,-2.34402 -2.3536,-5.96703 l 7.732,-55.85474 q 0.4876,-3.52237 3.8721,-5.00265 5.2625,-2.4511 11.787,-2.16333 6.5245,0.28777 13.0584,2.73076 l -2.9674,21.43615 -10.8691,-1.50459 z"
         style="font-style:normal;font-variant:normal;font-weight:normal;font-stretch:normal;font-size:medium;line-height:125%;font-family:Rhodaelian-Alternates;-inkscape-font-specification:Rhodaelian-Alternates;letter-spacing:-2.25999999px;word-spacing:0px;fill:#ffffff;fill-opacity:1;stroke:none;stroke-width:1px;stroke-linecap:butt;stroke-linejoin:miter;stroke-opacity:1"
         id="path3475"
         inkscape:connector-curvature="0" />
      <path
         d="m 1613.9449,371.33391 q -3.5366,0.69129 -7.2441,0.62792 -3.7074,-0.0634 -7.2045,-0.70783 -3.6969,-0.68128 -7.165,-2.04356 -3.4681,-1.36229 -6.2631,-3.01376 l 12.705,-68.94232 q 3.2185,-0.64661 6.6446,-0.7384 3.526,-0.0734 7.8409,0.61848 3.9966,0.73652 7.4463,2.19871 3.4497,1.4622 5.9449,3.05844 l -12.705,68.94232 z m 0.1624,-64.22868 q -1.3436,-0.55753 -2.5426,-0.77848 -1.3989,-0.25779 -2.753,-0.19741 l -10.164,55.15386 q 0.8256,0.56539 2.6241,0.89682 1.4987,0.2762 2.6715,0.0791 l 10.164,-55.15386 z"
         style="font-style:normal;font-variant:normal;font-weight:normal;font-stretch:normal;font-size:medium;line-height:125%;font-family:Rhodaelian-Alternates;-inkscape-font-specification:Rhodaelian-Alternates;letter-spacing:-2.25999999px;word-spacing:0px;fill:#ffffff;fill-opacity:1;stroke:none;stroke-width:1px;stroke-linecap:butt;stroke-linejoin:miter;stroke-opacity:1"
         id="path3477"
         inkscape:connector-curvature="0" />
      <path
         d="m 1649.4421,313.62704 -14.6939,64.48799 -11.0947,-2.52799 14.6939,-64.48799 -6.9894,0.49149 -0.5805,-0.6533 2.1668,-9.50975 25.5575,5.82341 -2.1669,9.50975 -0.8062,0.3373 -6.0866,-3.47091 z"
         style="font-style:normal;font-variant:normal;font-weight:normal;font-stretch:normal;font-size:medium;line-height:125%;font-family:Rhodaelian-Alternates;-inkscape-font-specification:Rhodaelian-Alternates;letter-spacing:-2.25999999px;word-spacing:0px;fill:#ffffff;fill-opacity:1;stroke:none;stroke-width:1px;stroke-linecap:butt;stroke-linejoin:miter;stroke-opacity:1"
         id="path3479"
         inkscape:connector-curvature="0" />
      <path
         d="m 1691.6936,316.13246 -19.5367,71.7584 -11.0775,-3.01591 8.6741,-31.85995 -5.1956,-1.41454 -8.6741,31.85995 -11.0774,-3.01591 19.5367,-71.75841 11.0774,3.01591 -8.4072,30.87964 5.1957,1.41455 8.4072,-30.87964 11.0774,3.01591 z"
         style="font-style:normal;font-variant:normal;font-weight:normal;font-stretch:normal;font-size:medium;line-height:125%;font-family:Rhodaelian-Alternates;-inkscape-font-specification:Rhodaelian-Alternates;letter-spacing:-2.25999999px;word-spacing:0px;fill:#ffffff;fill-opacity:1;stroke:none;stroke-width:1px;stroke-linecap:butt;stroke-linejoin:miter;stroke-opacity:1"
         id="path3481"
         inkscape:connector-curvature="0" />
      <path
         d="m 1691.3169,393.85557 11.0643,3.06417 19.6865,-71.08513 q -6.1535,-3.28547 -12.7785,-4.4877 -6.7228,-1.22931 -12.2633,0.50442 -3.5504,1.01976 -4.4995,4.44674 l -7.8909,28.49277 q -0.8949,3.23116 0.6235,4.60045 0.8164,0.85864 2.2746,1.68419 l -12.6179,27.28907 0.1476,0.98969 9.6935,2.68456 11.8948,-26.96224 q 1.1477,0.42327 2.4206,0.77579 l -7.7553,28.00322 z m 10.2772,-37.10918 q -3.454,-0.85112 -5.0538,-1.92671 l 6.8334,-24.67414 q 1.098,-0.53927 2.9855,-0.12199 1.2021,0.22748 2.3936,0.87374 l -7.1587,25.8491 z"
         style="font-style:normal;font-variant:normal;font-weight:normal;font-stretch:normal;font-size:medium;line-height:125%;font-family:Rhodaelian-Alternates;-inkscape-font-specification:Rhodaelian-Alternates;letter-spacing:-2.25999999px;word-spacing:0px;fill:#ffffff;fill-opacity:1;stroke:none;stroke-width:1px;stroke-linecap:butt;stroke-linejoin:miter;stroke-opacity:1"
         id="path3483"
         inkscape:connector-curvature="0" />
      <path
         id="path4374-4"
         d="m 1377.0153,289.84968 2.5893,41.92206 c 0.8106,0.68407 1.862,1.30066 3.1532,1.85015 1.2249,0.60603 2.6184,1.12201 4.1816,1.54986 1.4936,0.43213 3.0844,0.72726 4.7707,0.8853 1.6894,0.21028 3.2734,0.33205 4.9435,0.22888 l 0.8519,13.79207 0.2009,3.25551 c -0.8515,0.38884 -1.747,0.61278 -2.6863,0.6708 -0.8721,0.0538 -1.7542,-0.0603 -2.6472,-0.34136 l -0.7306,-11.82902 -11.3729,0.70244 0.8796,14.24238 c 0.1285,2.07686 1.0609,3.5654 2.8003,4.46674 3.6047,1.66039 7.4882,2.36122 11.648,2.10429 4.4283,-0.27351 8.2282,-1.44892 11.3999,-3.52784 1.6236,-0.97457 2.3637,-2.60091 2.2229,-4.87874 l -0.3719,-6.02174 -3.7557,-60.80599 -11.3709,0.70232 2.3255,37.64895 -5.5428,-3.05668 -2.1162,-34.26284 -11.3728,0.70244 z"
         style="color:#000000;font-style:normal;font-variant:normal;font-weight:normal;font-stretch:normal;font-size:medium;line-height:125%;font-family:Rhodaelian-Alternates;-inkscape-font-specification:Rhodaelian-Alternates;letter-spacing:0px;word-spacing:0px;clip-rule:nonzero;display:inline;overflow:visible;visibility:visible;opacity:1;isolation:auto;mix-blend-mode:normal;color-interpolation:sRGB;color-interpolation-filters:linearRGB;solid-color:#000000;solid-opacity:1;fill:#ffffff;fill-opacity:1;fill-rule:nonzero;stroke:none;stroke-width:0.40000004;stroke-linecap:butt;stroke-linejoin:miter;stroke-miterlimit:4;stroke-dasharray:none;stroke-dashoffset:0;stroke-opacity:1;color-rendering:auto;image-rendering:auto;shape-rendering:auto;text-rendering:auto;enable-background:accumulate"
         inkscape:connector-curvature="0" />
      <g
         id="flowRoot4446"
         style="font-style:normal;font-variant:normal;font-weight:normal;font-stretch:normal;font-size:59.87638855px;line-height:125%;font-family:Rhodaelian-Alternates;-inkscape-font-specification:Rhodaelian-Alternates;letter-spacing:0px;word-spacing:0px;fill:#ffffff;fill-opacity:1;stroke:none;stroke-width:1px;stroke-linecap:butt;stroke-linejoin:miter;stroke-opacity:1"
         transform="matrix(1.6519913,-0.44876463,-0.4173511,-1.536352,-2476.1959,1643.0817)">
        <path
           inkscape:connector-curvature="0"
           style="fill:#ffffff"
           id="path4456"
           transform="matrix(0.5637301,-0.16466417,-0.15313768,-0.60616137,1647.5239,588.2319)"
           d="m 1237.4902,320.81836 c -0.2388,-0.0182 -0.4887,0.005 -0.7402,0.0742 l -21.4277,5.8789 c -1.0062,0.2761 -1.6272,1.18817 -1.3926,2.04297 l 1.4922,5.4375 c 0,0.01 0.01,0.0177 0.012,0.0273 l 17.2812,63.61914 c 4.6681,-0.2803 9.1286,-1.19585 13.3809,-2.7461 4.3184,-1.5682 7.8024,-3.73315 10.4512,-6.49414 1.7277,-1.72055 2.2999,-3.65432 1.7168,-5.80078 l -8.6211,-31.73633 c -0.5998,-2.20779 -1.7675,-3.37406 -3.5,-3.49609 -1.3203,-0.16817 -3.3569,-0.10758 -6.1114,0.17969 -2.6883,0.26931 -5.5168,0.80715 -8.4843,1.61328 l -4.5332,-16.6875 12.0742,-3.31445 c 1.0061,-0.2761 1.6271,-1.18622 1.3926,-2.04102 l -1.4922,-5.4375 c -0.1759,-0.6411 -0.7817,-1.06452 -1.4981,-1.11914 z m 0.9043,36.25976 c 0.3073,-0.009 0.5969,-0.001 0.8692,0.0234 l 7.6211,28.05664 c -0.4603,0.65186 -1.3067,1.17839 -2.543,1.58008 -0.7746,0.27631 -1.6162,0.43941 -2.5234,0.48828 l -7.9473,-29.2539 1.2871,-0.34961 c 1.2364,-0.33588 2.3146,-0.51678 3.2363,-0.54493 z" />
      </g>
    </g>
    <circle
       style="color:#000000;clip-rule:nonzero;display:inline;overflow:visible;visibility:visible;opacity:1;isolation:auto;mix-blend-mode:normal;color-interpolation:sRGB;color-interpolation-filters:linearRGB;solid-color:#000000;solid-opacity:1;fill:#ffffff;fill-opacity:1;fill-rule:nonzero;stroke:none;stroke-width:0.1;stroke-linecap:butt;stroke-linejoin:miter;stroke-miterlimit:4;stroke-dasharray:none;stroke-dashoffset:0;stroke-opacity:1;color-rendering:auto;image-rendering:auto;shape-rendering:auto;text-rendering:auto;enable-background:accumulate"
       id="path4557"
       cx="1747.2609"
       cy="372.65582"
       r="4.7729707" />
    <circle
       r="4.7729707"
       cy="372.65582"
       cx="1198.2609"
       id="circle4559"
       style="color:#000000;clip-rule:nonzero;display:inline;overflow:visible;visibility:visible;opacity:1;isolation:auto;mix-blend-mode:normal;color-interpolation:sRGB;color-interpolation-filters:linearRGB;solid-color:#000000;solid-opacity:1;fill:#ffffff;fill-opacity:1;fill-rule:nonzero;stroke:none;stroke-width:0.1;stroke-linecap:butt;stroke-linejoin:miter;stroke-miterlimit:4;stroke-dasharray:none;stroke-dashoffset:0;stroke-opacity:1;color-rendering:auto;image-rendering:auto;shape-rendering:auto;text-rendering:auto;enable-background:accumulate" />
  </g>
  <g
     inkscape:groupmode="layer"
     id="layer6"
     inkscape:label="Тэкст_Ніжні"
     style="display:inline"
     transform="translate(-1131.3204,-243.43789)"
     sodipodi:insensitive="true">
    <g
       id="g4835">
      <path
         d="m 1246.1669,838.00467 1.1406,0.43224 2.5501,5.66223 -0.4322,1.14061 -34.5501,15.56057 q -1.0486,0.47225 -1.4028,-0.31417 l -2.5501,-5.66223 q -0.3542,-0.78642 0.6943,-1.25867 l 34.5502,-15.56058 z"
         style="font-style:normal;font-variant:normal;font-weight:normal;font-stretch:normal;font-size:57.5px;line-height:125%;font-family:Polloc1;-inkscape-font-specification:Polloc1;letter-spacing:-0.55000001px;word-spacing:0px;fill:#ffffff;fill-opacity:1;stroke:none;stroke-width:1px;stroke-linecap:butt;stroke-linejoin:miter;stroke-opacity:1"
         id="path4237"
         inkscape:connector-curvature="0" />
      <path
         d="m 1249.4217,846.34794 1.1724,0.33659 3.1482,5.68387 q 0.3622,0.6539 -0.5331,2.0043 l -8.1576,11.61733 q -0.168,0.2902 -0.029,0.5417 l 0.056,0.10059 15.2364,-0.6172 q 0.9495,-0.0658 1.3117,0.58809 l 3.0089,5.43237 -0.3088,1.2227 -33.1475,18.35987 q -1.006,0.5572 -1.4517,-0.24759 l -3.0089,-5.43237 0.253,-1.3233 18.9127,-10.47543 q -0.346,-0.26852 -1.167,-0.20814 l -10.1158,1.199 q -1.9996,0.18733 -2.8912,-1.42226 -0.3621,-0.6539 -0.5069,-1.03386 0.085,-1.03309 1.0865,-2.31076 3.3955,-4.31278 7.048,-8.63641 l 0.029,-0.5417 -19.1642,10.61474 q -1.006,0.5572 -1.5075,-0.34819 l -3.0089,-5.43237 q -0.4179,-0.7545 0.5881,-1.3117 l 33.1475,-18.35987 z"
         style="font-style:normal;font-variant:normal;font-weight:normal;font-stretch:normal;font-size:57.5px;line-height:125%;font-family:Polloc1;-inkscape-font-specification:Polloc1;letter-spacing:-0.55000001px;word-spacing:0px;fill:#ffffff;fill-opacity:1;stroke:none;stroke-width:1px;stroke-linecap:butt;stroke-linejoin:miter;stroke-opacity:1"
         id="path4239"
         inkscape:connector-curvature="0" />
      <path
         d="m 1241.8103,892.27799 3.9168,5.78522 q 0.5704,0.84251 -0.2721,1.41291 l -6.0661,4.10691 q -0.8425,0.57041 -1.4129,-0.2721 l -3.9168,-5.78523 q -0.5704,-0.84251 0.2721,-1.41291 l 6.0661,-4.10691 q 0.8425,-0.5704 1.4129,0.27211 z"
         style="font-style:normal;font-variant:normal;font-weight:normal;font-stretch:normal;font-size:medium;line-height:125%;font-family:Polloc1;-inkscape-font-specification:Polloc1;letter-spacing:-0.55000001px;word-spacing:0px;fill:#ffffff;fill-opacity:1;stroke:none;stroke-width:1px;stroke-linecap:butt;stroke-linejoin:miter;stroke-opacity:1"
         id="path4241"
         inkscape:connector-curvature="0" />
      <path
         d="m 1264.1534,936.57475 q -3.0801,-3.34154 -4.2363,-5.59671 -3.9589,-7.69752 2.7741,-13.90372 l 18.5032,-17.05558 q 5.2367,-4.82705 11.641,-1.7822 3.2042,1.4745 5.0929,3.42347 l 2.2526,2.44382 q 2.3446,2.54356 3.3825,4.16988 0.896,1.57255 0.1479,2.26213 l -4.8876,4.50525 q -0.4988,0.45971 -1.0504,-0.13877 l -0.138,-0.14962 q -1.0721,-1.96374 -1.8918,-3.05315 -0.088,-0.1956 -1.3293,-1.54219 -4.5052,-4.88762 -8.6447,-1.07196 l -14.1143,13.01005 q -3.3415,3.08012 -2.0248,6.10986 0.5781,1.12759 2.371,3.07267 l 1.655,1.79545 q 0.8011,0.36863 0.939,0.51825 0.2337,0.15352 1.3371,1.35049 0.7815,0.84785 0.7776,0.9437 l -0.4723,0.98882 -1.6957,1.56305 -2.3939,2.20665 q -0.6905,0.45191 -1.3232,0.66616 -1.1658,0.33657 -2.6525,-0.87601 -0.6054,-0.45667 -1.9043,-1.5656 l -2.1148,-2.29419 z"
         style="font-style:normal;font-variant:normal;font-weight:normal;font-stretch:normal;font-size:medium;line-height:125%;font-family:Polloc1;-inkscape-font-specification:Polloc1;letter-spacing:-0.55000001px;word-spacing:0px;fill:#ffffff;fill-opacity:1;stroke:none;stroke-width:1px;stroke-linecap:butt;stroke-linejoin:miter;stroke-opacity:1"
         id="path4243"
         inkscape:connector-curvature="0" />
      <path
         d="m 1281.442,939.68867 5.1244,4.74878 q 0.7463,0.69157 0.055,1.43784 l -4.9793,5.37311 q -0.6916,0.74627 -1.4379,0.0547 l -5.1243,-4.74878 q -0.7463,-0.69157 -0.055,-1.43784 l 4.9793,-5.37311 q 0.6916,-0.74627 1.4378,-0.0547 z"
         style="font-style:normal;font-variant:normal;font-weight:normal;font-stretch:normal;font-size:medium;line-height:125%;font-family:Polloc1;-inkscape-font-specification:Polloc1;letter-spacing:-0.55000001px;word-spacing:0px;fill:#ffffff;fill-opacity:1;stroke:none;stroke-width:1px;stroke-linecap:butt;stroke-linejoin:miter;stroke-opacity:1"
         id="path4245"
         inkscape:connector-curvature="0" />
      <path
         d="m 1325.8232,930.00852 1.4108,-0.28276 20.944,13.95026 0.1885,0.94054 -3.873,5.81463 -1.0534,0.35787 -13.3793,-8.91162 -0.5454,0.20716 -4.2866,6.43561 q 3.5942,2.55702 5.2879,3.92964 0.9785,0.73328 2.5595,2.51982 6.9829,8.48155 0.8914,17.6269 -2.7449,4.12105 -7.0146,6.00404 -6.7901,2.97515 -13.0563,-1.19865 l -12.4761,-8.30999 q -1.129,-0.75204 -0.565,-1.59883 l 24.9676,-37.48462 z m -1.0039,29.15971 -4.6292,-3.08335 -6.7683,10.16149 0.094,0.47028 q 0.1317,0.16925 1.5995,1.1469 2.0887,1.39127 2.4651,1.56042 1.6558,0.93995 4.515,0.0734 1.6177,-0.47097 3.0465,-2.61617 1.3913,-2.08875 1.2025,-3.76298 -0.2835,-3.12275 -1.5254,-3.94999 z"
         style="font-style:normal;font-variant:normal;font-weight:normal;font-stretch:normal;font-size:medium;line-height:125%;font-family:Polloc1;-inkscape-font-specification:Polloc1;letter-spacing:-0.55000001px;word-spacing:0px;fill:#ffffff;fill-opacity:1;stroke:none;stroke-width:1px;stroke-linecap:butt;stroke-linejoin:miter;stroke-opacity:1"
         id="path4247"
         inkscape:connector-curvature="0" />
      <path
         d="m 1348.7492,945.6764 q 0.4872,-0.96973 0.7903,-0.81746 l 7.7578,3.89811 q 0.7273,0.36545 0.5114,2.15474 l -2.8296,19.68132 q -0.031,0.0606 0.091,0.12151 0.4243,0.21318 0.6676,-0.12001 l 13.4361,-14.35186 q 0.9728,-1.02944 1.8819,-0.57263 l 7.1518,3.59358 q 0.6666,0.33499 0.3012,1.06229 -0.2436,0.48487 -1.0945,1.27188 l -25.1379,26.00739 q -7.8726,8.114 -18.2972,2.87591 l -2.788,-1.40089 q -1.6047,-1.48955 -1.422,-1.8532 l 3.4413,-6.84873 6.2427,3.13677 q 2.4849,1.24862 4.038,-1.8424 0.4873,-0.96973 0.6411,-2.03113 l 4.3432,-33.41972 0.2741,-0.54547 z"
         style="font-style:normal;font-variant:normal;font-weight:normal;font-stretch:normal;font-size:medium;line-height:125%;font-family:Polloc1;-inkscape-font-specification:Polloc1;letter-spacing:-0.55000001px;word-spacing:0px;fill:#ffffff;fill-opacity:1;stroke:none;stroke-width:1px;stroke-linecap:butt;stroke-linejoin:miter;stroke-opacity:1"
         id="path4249"
         inkscape:connector-curvature="0" />
      <path
         d="m 1361.132,994.55197 0.8662,-0.41232 q 4.7343,1.46462 6.6483,-2.10255 1.1138,-2.1238 1.3634,-2.82694 l 10.7548,-28.06766 q 0.3404,-0.95882 1.6188,-0.50502 l 22.6922,8.05498 q 1.3423,0.47649 1.002,1.43532 l -15.0663,42.44392 -1.3631,0.5958 -6.9035,-2.4506 -0.8102,-1.3672 12.3888,-34.90117 -0.334,-0.47844 -6.2644,-2.22363 -0.433,0.20616 q -5.4661,14.18229 -8.3043,21.16413 -1.5161,4.06829 -4.092,7.47245 -4.6651,6.0455 -12.6553,3.2092 l -1.9816,-0.7034 q -1.8949,-0.7446 -1.4638,-1.9591 l 2.337,-6.58393 z"
         style="font-style:normal;font-variant:normal;font-weight:normal;font-stretch:normal;font-size:medium;line-height:125%;font-family:Polloc1;-inkscape-font-specification:Polloc1;letter-spacing:-0.55000001px;word-spacing:0px;fill:#ffffff;fill-opacity:1;stroke:none;stroke-width:1px;stroke-linecap:butt;stroke-linejoin:miter;stroke-opacity:1"
         id="path4251"
         inkscape:connector-curvature="0" />
      <path
         d="m 1393.4316,1013.3373 0.073,-0.3312 19.2614,-40.41459 q 0.9165,-1.95113 1.7776,-1.76124 l 9.5382,2.10334 q 0.9936,0.2191 1.0259,1.96268 l 1.0453,45.65661 q -0.02,1.0374 -0.9477,0.8329 l -7.4849,-1.6505 q -0.9273,-0.2045 -1.0326,-1.6169 -0.071,-3.1414 -0.2663,-5.4071 -0.031,-1.1182 -0.4286,-1.2059 l -9.9357,-2.1909 -0.8231,0.5825 -2.5157,4.7936 q -0.8288,1.5537 -1.6899,1.3638 l -7.1537,-1.5775 q -0.6624,-0.1461 -0.4433,-1.1396 z m 21.9422,-25.16764 -5.6303,12.30294 6.4251,1.4168 -0.1392,-13.22788 q -0.045,-0.42664 -0.5085,-0.52889 -0.1325,-0.0292 -0.1471,0.037 z"
         style="font-style:normal;font-variant:normal;font-weight:normal;font-stretch:normal;font-size:medium;line-height:125%;font-family:Polloc1;-inkscape-font-specification:Polloc1;letter-spacing:-0.55000001px;word-spacing:0px;fill:#ffffff;fill-opacity:1;stroke:none;stroke-width:1px;stroke-linecap:butt;stroke-linejoin:miter;stroke-opacity:1"
         id="path4253"
         inkscape:connector-curvature="0" />
      <path
         d="m 1440.5825,1003.0663 -0.5733,0.2843 -1.7825,18.0907 q -0.133,1.35 -1.3481,1.2303 l -7.2902,-0.7183 q -1.0126,-0.1 -0.8795,-1.4498 l 4.383,-44.48409 q 0.1,-1.01253 1.4499,-0.87951 l 6.6152,0.65181 q 1.5525,0.15298 1.4528,1.16551 l -1.6096,16.33557 0.5068,0.39072 4.5226,0.44563 q 0.7426,0.0732 1.8206,-1.18377 1.0039,-1.19608 1.0505,-1.6686 l 0.858,-8.7078 q 0.3857,-3.91514 4.933,-5.10287 1.0525,-0.30525 4.3601,0.0207 1.9575,0.19288 2.9634,0.36015 1.3102,0.53803 1.2503,1.14555 l -0.5454,5.5352 q -0.073,0.74252 -1.1189,0.98027 -1.2217,-0.0522 -2.1259,0.13133 -0.9041,0.18354 -0.9773,0.92607 l -0.8247,8.37029 q -0.06,0.60752 -1.0505,1.6686 -0.8489,1.00687 -2.332,2.2239 l -0.013,0.135 q -0.02,0.20251 0.3518,0.57993 1.3311,1.01721 1.8854,1.61701 0.7502,0.6874 1.5888,1.8605 0.967,1.254 0.7674,3.279 l -1.7093,17.3482 -1.1798,0.9061 -7.2903,-0.7184 -1.1152,-1.1322 1.4033,-14.243 q 0.2927,-2.9701 -2.5577,-4.4778 -0.9726,-0.5048 -3.8752,-0.7908 -1.7551,-0.1729 -1.9642,-0.1254 z"
         style="font-style:normal;font-variant:normal;font-weight:normal;font-stretch:normal;font-size:medium;line-height:125%;font-family:Polloc1;-inkscape-font-specification:Polloc1;letter-spacing:-0.55000001px;word-spacing:0px;fill:#ffffff;fill-opacity:1;stroke:none;stroke-width:1px;stroke-linecap:butt;stroke-linejoin:miter;stroke-opacity:1"
         id="path4255"
         inkscape:connector-curvature="0" />
      <path
         d="m 1463.4906,1000.9044 13.9728,0.026 q 1.0175,0 1.0155,1.0872 l -0.01,5.562 q 0,1.0852 -1.0195,1.0834 l -13.9728,-0.026 q -1.0174,0 -1.0154,-1.0871 l 0.01,-5.562 q 0,-1.0853 1.0194,-1.0834 z"
         style="font-style:normal;font-variant:normal;font-weight:normal;font-stretch:normal;font-size:medium;line-height:125%;font-family:Polloc1;-inkscape-font-specification:Polloc1;letter-spacing:-0.55000001px;word-spacing:0px;fill:#ffffff;fill-opacity:1;stroke:none;stroke-width:1px;stroke-linecap:butt;stroke-linejoin:miter;stroke-opacity:1"
         id="path4257"
         inkscape:connector-curvature="0" />
      <path
         d="m 1478.6887,978.97525 0.9137,-1.11148 25.0456,-2.44491 0.741,0.60918 0.6788,6.95336 -0.5894,0.94351 -15.9995,1.56185 -0.2914,0.5055 0.7513,7.69596 q 4.4012,-0.29334 6.5812,-0.3017 1.2218,-0.0511 3.5764,0.3324 10.7735,2.15143 11.8411,13.08778 0.4811,4.9281 -1.6345,9.0874 -3.3767,6.5996 -10.8702,7.3311 l -14.9193,1.4564 q -1.3502,0.1318 -1.449,-0.8808 l -4.3758,-44.82555 z m 17.6688,23.21865 -5.5357,0.5404 1.1863,12.1515 0.3704,0.3046 q 0.2092,0.048 1.9644,-0.1236 2.4978,-0.2438 2.8962,-0.3509 1.8771,-0.3195 3.5433,-2.7993 0.9549,-1.3881 0.7045,-3.9534 -0.2439,-2.4978 -1.4492,-3.675 -2.195,-2.2392 -3.6802,-2.0943 z"
         style="font-style:normal;font-variant:normal;font-weight:normal;font-stretch:normal;font-size:medium;line-height:125%;font-family:Polloc1;-inkscape-font-specification:Polloc1;letter-spacing:-0.55000001px;word-spacing:0px;fill:#ffffff;fill-opacity:1;stroke:none;stroke-width:1px;stroke-linecap:butt;stroke-linejoin:miter;stroke-opacity:1"
         id="path4259"
         inkscape:connector-curvature="0" />
      <path
         d="m 1515.8059,1020.567 -0.074,-0.331 0.3789,-44.76829 q 0.01,-2.15563 0.8668,-2.34741 l 9.5336,-2.12432 q 0.9931,-0.22129 1.7591,1.34534 l 20.2409,40.93808 q 0.4199,0.9488 -0.507,1.1554 l -7.4812,1.667 q -0.9269,0.2065 -1.6192,-1.0291 -1.3921,-2.817 -2.5262,-4.788 -0.5009,-1.0003 -0.8981,-0.9118 l -9.9309,2.2128 -0.4997,0.8758 -0.2544,5.4076 q -0.095,1.7584 -0.9553,1.9502 l -7.1502,1.5933 q -0.6621,0.1475 -0.8834,-0.8456 z m 9.2516,-32.08233 0.096,13.52973 6.422,-1.431 -5.716,-11.92997 q -0.2209,-0.36773 -0.6844,-0.26447 -0.1324,0.0295 -0.1176,0.0957 z"
         style="font-style:normal;font-variant:normal;font-weight:normal;font-stretch:normal;font-size:medium;line-height:125%;font-family:Polloc1;-inkscape-font-specification:Polloc1;letter-spacing:-0.55000001px;word-spacing:0px;fill:#ffffff;fill-opacity:1;stroke:none;stroke-width:1px;stroke-linecap:butt;stroke-linejoin:miter;stroke-opacity:1"
         id="path4261"
         inkscape:connector-curvature="0" />
      <path
         d="m 1546.6103,1006.6766 0.4107,-0.8669 q 4.5946,-1.8571 3.8234,-5.83119 -0.4791,-2.34978 -0.73,-3.05243 l -9.4041,-28.54862 q -0.3422,-0.95816 0.9353,-1.41445 l 22.6765,-8.09906 q 1.3414,-0.4791 1.6836,0.47906 l 15.1487,42.41459 -0.6798,1.3232 -6.8988,2.4639 -1.492,-0.5475 -12.4566,-34.87704 -0.5612,-0.15968 -6.26,2.23579 -0.2053,0.43346 q 4.7271,14.44541 6.9401,21.64987 1.3963,4.11097 1.5515,8.3771 0.2054,7.6334 -7.7793,10.4851 l -1.9802,0.7073 q -1.9391,0.6205 -2.3726,-0.5931 l -2.3499,-6.5794 z"
         style="font-style:normal;font-variant:normal;font-weight:normal;font-stretch:normal;font-size:medium;line-height:125%;font-family:Polloc1;-inkscape-font-specification:Polloc1;letter-spacing:-0.55000001px;word-spacing:0px;fill:#ffffff;fill-opacity:1;stroke:none;stroke-width:1px;stroke-linecap:butt;stroke-linejoin:miter;stroke-opacity:1"
         id="path4263"
         inkscape:connector-curvature="0" />
      <path
         d="m 1583.515,1000.8215 -0.1522,-0.3031 -10.5439,-43.51055 q -0.5195,-2.09212 0.2685,-2.48789 l 8.7283,-4.3839 q 0.9092,-0.45665 2.034,0.87602 l 29.6083,34.77018 q 0.6385,0.81787 -0.2101,1.24408 l -6.8493,3.44014 q -0.8486,0.42621 -1.8211,-0.60339 -2.0367,-2.39272 -3.6171,-4.02792 -0.7295,-0.84804 -1.0932,-0.66537 l -9.092,4.56655 -0.2713,0.97119 1.0713,5.30655 q 0.3368,1.72844 -0.4512,2.12421 l -6.5462,3.2879 q -0.6062,0.3045 -1.0628,-0.6047 z m 1.1531,-33.36976 3.3907,13.09825 5.8795,-2.95304 -8.4513,-10.17702 q -0.3038,-0.30279 -0.7281,-0.0897 -0.1213,0.0609 -0.091,0.1215 z"
         style="font-style:normal;font-variant:normal;font-weight:normal;font-stretch:normal;font-size:medium;line-height:125%;font-family:Polloc1;-inkscape-font-specification:Polloc1;letter-spacing:-0.55000001px;word-spacing:0px;fill:#ffffff;fill-opacity:1;stroke:none;stroke-width:1px;stroke-linecap:butt;stroke-linejoin:miter;stroke-opacity:1"
         id="path4265"
         inkscape:connector-curvature="0" />
      <path
         d="m 1591.2701,946.42103 q -0.5228,-0.79272 0.1,-1.20352 l 6.3984,-4.22005 q 0.7361,-0.48549 2.6299,0.78432 5.9067,3.90459 6.6379,4.39734 l 0.6204,0.0783 -1.1744,-9.78839 0.3458,-1.44687 6.9645,-4.5935 q 0.6229,-0.4108 1.1831,0.43853 0.3361,0.50961 0.4445,1.41315 l 3.097,20.46468 21.321,13.9703 q 0.8433,0.66261 1.1047,1.05897 0.5229,0.79271 -0.043,1.16617 l -6.738,4.44412 q -0.6229,0.4108 -1.2228,-0.006 l -11.705,-6.90565 q -0.2807,-0.30239 -0.6771,-0.041 -0.1132,0.0747 -0.076,0.13131 l 1.9828,13.72424 q 0.1469,0.71561 -0.5325,1.16375 l -6.6815,4.40678 q -0.5662,0.37345 -1.089,-0.41926 -0.4482,-0.67947 -0.7253,-1.71554 l -3.9463,-23.72347 -0.4108,-0.62285 q -0.5602,-0.84934 -1.4035,-1.51195 l -15.0564,-10.13918 q -0.8253,-0.51202 -1.3481,-1.30473 z"
         style="font-style:normal;font-variant:normal;font-weight:normal;font-stretch:normal;font-size:medium;line-height:125%;font-family:Polloc1;-inkscape-font-specification:Polloc1;letter-spacing:-0.55000001px;word-spacing:0px;fill:#ffffff;fill-opacity:1;stroke:none;stroke-width:1px;stroke-linecap:butt;stroke-linejoin:miter;stroke-opacity:1"
         id="path4267"
         inkscape:connector-curvature="0" />
      <path
         d="m 1654.8455,958.29656 q -7.424,6.24228 -14.805,2.52299 -3.2646,-1.77467 -5.098,-3.95515 l -13.2703,-15.78249 q -1.7898,-2.12856 -2.9777,-5.64932 -1.8144,-5.7413 1.1107,-10.06181 1.6484,-2.36082 3.8289,-4.19422 2.5439,-2.13897 4.7373,-3.00842 6.0174,-2.22374 11.0175,1.19339 3.2315,2.15694 4.672,3.87018 l 12.7902,15.21141 q 1.004,1.19407 2.1353,3.69897 2.9989,6.51771 -0.3203,12.05581 -1.1209,1.82874 -3.8206,4.09866 z m -5.5438,-6.59335 q 3.4264,-2.88105 0.022,-6.9305 l -13.2703,-15.78249 q -3.4048,-4.04946 -6.8313,-1.1684 -3.4784,2.9247 -0.073,6.97416 l 13.2703,15.78249 q 3.4049,4.04945 6.8833,1.12474 z"
         style="font-style:normal;font-variant:normal;font-weight:normal;font-stretch:normal;font-size:medium;line-height:125%;font-family:Polloc1;-inkscape-font-specification:Polloc1;letter-spacing:-0.55000001px;word-spacing:0px;fill:#ffffff;fill-opacity:1;stroke:none;stroke-width:1px;stroke-linecap:butt;stroke-linejoin:miter;stroke-opacity:1"
         id="path4269"
         inkscape:connector-curvature="0" />
      <path
         d="m 1680.1536,913.88203 q 2.4281,2.2696 3.57,4.82254 3.3136,7.18269 -2.5226,13.42624 l -11.9038,12.73486 q -0.6948,0.74328 -1.6858,-0.18309 l -32.6548,-30.52391 q -0.7433,-0.69478 -0.048,-1.43806 l 10.9775,-11.74382 q 0.1389,-0.14865 1.6836,-1.30452 1.3131,-0.9081 3.1055,-1.83237 6.042,-2.98719 11.9882,2.57104 3.9642,3.70548 3.3212,10.25377 -0.043,0.14543 -0.03,0.52891 0.2876,-0.01 1.9475,-0.59358 0.7605,-0.2176 1.2367,-0.32964 0.4298,-0.0625 0.9554,-0.12821 0.5257,-0.0657 0.8133,-0.0754 0.3339,-0.0593 0.4298,-0.0625 4.5059,-0.15198 8.8169,3.87774 z m -32.6962,-1.87261 0.016,0.47935 6.1445,5.7435 0.4793,-0.0162 q 0.1885,-0.10234 1.3002,-1.29158 1.9453,-2.08119 2.4818,-3.25103 1.3012,-2.68333 -1.3251,-5.13821 -2.9236,-2.73279 -5.7619,-0.0936 -0.3275,0.25099 -2.0413,2.08441 -1.2043,1.28835 -1.2937,1.48333 z m 13.28,12.41336 0.016,0.47936 7.9284,7.41096 0.4793,-0.0162 q 0.1885,-0.10233 1.4854,-1.48979 1.8065,-1.93253 2.0811,-2.32571 3.4147,-4.05033 -0.599,-7.80213 -2.8245,-2.64016 -6.6044,-0.88102 -1.0847,0.56447 -3.4006,3.04207 -1.2969,1.38746 -1.3863,1.58243 z"
         style="font-style:normal;font-variant:normal;font-weight:normal;font-stretch:normal;font-size:medium;line-height:125%;font-family:Polloc1;-inkscape-font-specification:Polloc1;letter-spacing:-0.55000001px;word-spacing:0px;fill:#ffffff;fill-opacity:1;stroke:none;stroke-width:1px;stroke-linecap:butt;stroke-linejoin:miter;stroke-opacity:1"
         id="path4271"
         inkscape:connector-curvature="0" />
      <path
         d="m 1655.9881,890.96663 -0.1743,-1.42828 4.5143,-5.76928 1.4283,-0.1743 35.2033,27.54577 q 1.0684,0.83599 0.4414,1.63728 l -4.5143,5.76928 q -0.627,0.80129 -1.6954,-0.0347 l -35.2033,-27.54577 z"
         style="font-style:normal;font-variant:normal;font-weight:normal;font-stretch:normal;font-size:medium;line-height:125%;font-family:Polloc1;-inkscape-font-specification:Polloc1;letter-spacing:-0.55000001px;word-spacing:0px;fill:#ffffff;fill-opacity:1;stroke:none;stroke-width:1px;stroke-linecap:butt;stroke-linejoin:miter;stroke-opacity:1"
         id="path4273"
         inkscape:connector-curvature="0" />
      <path
         d="m 1662.6253,883.05423 -0.2888,-1.40958 4.0346,-6.11436 1.5217,-0.45869 15.7388,10.38548 q 0.2831,0.18679 1.1481,0.10745 2.2384,-0.067 3.3591,-1.76544 2.092,-3.17041 -0.5688,-4.92623 l -15.4558,-10.1987 -0.1768,-1.57942 4.0347,-6.11437 1.4469,-0.34546 37.309,24.61883 q 1.1322,0.74716 0.5345,1.65299 l -4.0346,6.11436 -1.5217,0.45869 -13.1345,-8.66702 q 0.096,0.46986 0.078,0.62045 -0.6655,2.48641 -0.9066,3.22124 -0.4074,1.35644 -1.5655,3.11149 -1.2328,1.86827 -2.2823,2.7198 -5.2089,4.44558 -11.2101,0.48565 l -18.06,-11.91716 z"
         style="font-style:normal;font-variant:normal;font-weight:normal;font-stretch:normal;font-size:medium;line-height:125%;font-family:Polloc1;-inkscape-font-specification:Polloc1;letter-spacing:-0.55000001px;word-spacing:0px;fill:#ffffff;fill-opacity:1;stroke:none;stroke-width:1px;stroke-linecap:butt;stroke-linejoin:miter;stroke-opacity:1"
         id="path4275"
         inkscape:connector-curvature="0" />
      <path
         d="m 1716.6525,883.07683 -0.3026,-0.15313 -34.3527,-28.70943 q -1.6618,-1.37302 -1.2637,-2.15981 l 4.4099,-8.7152 q 0.4594,-0.90783 2.1562,-0.50535 l 44.4815,10.34494 q 0.9997,0.2778 0.5709,1.12511 l -3.4605,6.83901 q -0.4288,0.84732 -1.823,0.59796 -3.0604,-0.71237 -5.3033,-1.08713 -1.0909,-0.24791 -1.2746,0.11523 l -4.5937,9.07833 0.3595,0.94209 4.0171,3.62906 q 1.2987,1.18927 0.9006,1.97606 l -3.3075,6.5364 q -0.3063,0.60523 -1.2141,0.14586 z m -18.9182,-27.51308 10.5156,8.51373 2.9706,-5.87065 -12.8467,-3.1557 q -0.4244,-0.0627 -0.6387,0.36095 -0.061,0.12105 -8e-4,0.15167 z"
         style="font-style:normal;font-variant:normal;font-weight:normal;font-stretch:normal;font-size:medium;line-height:125%;font-family:Polloc1;-inkscape-font-specification:Polloc1;letter-spacing:-0.55000001px;word-spacing:0px;fill:#ffffff;fill-opacity:1;stroke:none;stroke-width:1px;stroke-linecap:butt;stroke-linejoin:miter;stroke-opacity:1"
         id="path4277"
         inkscape:connector-curvature="0" />
    </g>
  </g>
  <g
     inkscape:groupmode="layer"
     id="layer8"
     inkscape:label="Тэкст_Жыве_Беларусь"
     transform="translate(-1131.3204,-243.43789)"
     style="display:inline">
    <path
       inkscape:connector-curvature="0"
       id="path4419"
       style="font-style:normal;font-variant:normal;font-weight:normal;font-stretch:normal;font-size:medium;line-height:125%;font-family:Equa_Sixty;-inkscape-font-specification:Equa_Sixty;letter-spacing:-5.07000017px;word-spacing:0px;fill:#2b2b29;fill-opacity:1;stroke:none;stroke-width:1px;stroke-linecap:butt;stroke-linejoin:miter;stroke-opacity:1"
       d="m 1379.5143,865.29141 4.718,-3.44724 0,-11.96958 4.7179,0 0,10.24596 q 0,1.96301 -1.2974,2.82482 l -3.0667,2.05877 3.0667,2.10664 q 1.2974,0.95757 1.2974,2.53755 l 0,13.74108 -4.7179,0 0,-14.65076 -2.4376,-1.72362 -2.2804,1.57998 0,14.7944 -4.7179,0 0,-33.51482 4.7179,0 0,15.41682 z" />
    <path
       inkscape:connector-curvature="0"
       id="path4421"
       style="font-style:normal;font-variant:normal;font-weight:normal;font-stretch:normal;font-size:medium;line-height:125%;font-family:Equa_Sixty;-inkscape-font-specification:Equa_Sixty;letter-spacing:-5.07000017px;word-spacing:0px;fill:#2b2b29;fill-opacity:1;stroke:none;stroke-width:1px;stroke-linecap:butt;stroke-linejoin:miter;stroke-opacity:1"
       d="m 1390.3643,849.87459 0,33.51482 11.7949,0 q 2.3589,0 2.3589,-2.8727 l 0,-11.49079 q 0,-2.8727 -2.3589,-2.8727 l -7.0769,0 0,-16.27863 -4.718,0 z m 4.718,30.64212 0,-11.49079 4.7179,0 0,11.49079 -4.7179,0 z" />
    <path
       inkscape:connector-curvature="0"
       id="path4423"
       style="font-style:normal;font-variant:normal;font-weight:normal;font-stretch:normal;font-size:medium;line-height:125%;font-family:Equa_Sixty;-inkscape-font-specification:Equa_Sixty;letter-spacing:-5.07000017px;word-spacing:0px;fill:#2b2b29;fill-opacity:1;stroke:none;stroke-width:1px;stroke-linecap:butt;stroke-linejoin:miter;stroke-opacity:1"
       d="m 1405.9323,883.38941 0,-33.51482 4.718,0 0,33.51482 -4.718,0 z" />
    <path
       inkscape:connector-curvature="0"
       id="path4425"
       style="font-style:normal;font-variant:normal;font-weight:normal;font-stretch:normal;font-size:medium;line-height:125%;font-family:Equa_Sixty;-inkscape-font-specification:Equa_Sixty;letter-spacing:-5.07000017px;word-spacing:0px;fill:#2b2b29;fill-opacity:1;stroke:none;stroke-width:1px;stroke-linecap:butt;stroke-linejoin:miter;stroke-opacity:1"
       d="m 1426.209,852.74729 0,7.37326 q 0,2.29816 -1.5727,3.44724 l -2.988,2.10664 3.0274,2.10665 q 1.5333,1.05332 1.5333,3.06421 l 0,9.67142 q 0,2.8727 -2.359,2.8727 l -11.7948,0 0,-33.51482 11.7948,0 q 2.359,0 2.359,2.8727 z m -9.4359,27.76942 4.7179,0 0,-11.01201 -4.7179,-3.35148 0,14.36349 z m 0,-15.32106 4.7179,-3.35148 0,-9.09688 -4.7179,0 0,12.44836 z" />
    <path
       inkscape:connector-curvature="0"
       id="path4427"
       style="font-style:normal;font-variant:normal;font-weight:normal;font-stretch:normal;font-size:medium;line-height:125%;font-family:Equa_Sixty;-inkscape-font-specification:Equa_Sixty;letter-spacing:-5.07000017px;word-spacing:0px;fill:#2b2b29;fill-opacity:1;stroke:none;stroke-width:1px;stroke-linecap:butt;stroke-linejoin:miter;stroke-opacity:1"
       d="m 1439.418,849.87459 0,2.8727 -7.0769,0 0,11.49079 4.7179,0 0,2.8727 -4.7179,0 0,13.40593 7.0769,0 0,2.8727 -11.7948,0 0,-33.51482 11.7948,0 z" />
    <path
       style="font-style:normal;font-variant:normal;font-weight:normal;font-stretch:normal;font-size:medium;line-height:125%;font-family:Equa_Sixty;-inkscape-font-specification:Equa_Sixty;letter-spacing:-5.07000017px;word-spacing:0px;fill:#2b2b29;fill-opacity:1;stroke:none;stroke-width:1px;stroke-linecap:butt;stroke-linejoin:miter;stroke-opacity:1"
       d="m 1449.6578,849.875 0,33.51482 11.7949,0 c 1.5726,0 2.3587,-0.95726 2.3587,-2.87239 l 0,-11.49111 c 0,-1.91513 -0.7861,-2.87238 -2.3587,-2.87238 l -2.36,0 -4.7174,0 0,-13.40656 7.0774,0 0,-2.87238 -7.0774,0 -4.7175,0 z m 4.7175,19.15132 4.7174,0 0,11.49111 -4.7174,0 0,-11.49111 z"
       id="path4429"
       inkscape:connector-curvature="0" />
    <path
       inkscape:connector-curvature="0"
       id="path4431"
       style="font-style:normal;font-variant:normal;font-weight:normal;font-stretch:normal;font-size:medium;line-height:125%;font-family:Equa_Sixty;-inkscape-font-specification:Equa_Sixty;letter-spacing:-5.07000017px;word-spacing:0px;fill:#2b2b29;fill-opacity:1;stroke:none;stroke-width:1px;stroke-linecap:butt;stroke-linejoin:miter;stroke-opacity:1"
       d="m 1477.0201,849.87459 0,2.8727 -7.0769,0 0,11.49079 4.718,0 0,2.8727 -4.718,0 0,13.40593 7.0769,0 0,2.8727 -11.7948,0 0,-33.51482 11.7948,0 z" />
    <path
       inkscape:connector-curvature="0"
       id="path4436"
       style="font-style:normal;font-variant:normal;font-weight:normal;font-stretch:normal;font-size:medium;line-height:125%;font-family:Equa_Sixty;-inkscape-font-specification:Equa_Sixty;letter-spacing:-5.07000017px;word-spacing:0px;fill:#2b2b29;fill-opacity:1;stroke:none;stroke-width:1px;stroke-linecap:butt;stroke-linejoin:miter;stroke-opacity:1"
       d="m 1494.9906,883.38941 0,-30.64212 q 0,-2.8727 2.3589,-2.8727 l 9.829,0 q 1.9659,0 1.9659,2.8727 l 0,30.64212 -4.718,0 0,-16.27863 -4.7179,0 0,16.27863 -4.7179,0 z m 4.7179,-19.15133 4.7179,0 0,-11.49079 -4.7179,0 0,11.49079 z" />
    <path
       inkscape:connector-curvature="0"
       id="path4438"
       style="font-style:normal;font-variant:normal;font-weight:normal;font-stretch:normal;font-size:medium;line-height:125%;font-family:Equa_Sixty;-inkscape-font-specification:Equa_Sixty;letter-spacing:-5.07000017px;word-spacing:0px;fill:#2b2b29;fill-opacity:1;stroke:none;stroke-width:1px;stroke-linecap:butt;stroke-linejoin:miter;stroke-opacity:1"
       d="m 1510.5585,883.38941 0,-33.51482 11.7948,0 q 2.359,0 2.359,2.8727 l 0,11.49079 q 0,2.8727 -2.359,2.8727 l -7.0769,0 0,16.27863 -4.7179,0 z m 4.7179,-30.64212 0,11.49079 4.718,0 0,-11.49079 -4.718,0 z" />
    <path
       inkscape:connector-curvature="0"
       id="path4440"
       style="font-style:normal;font-variant:normal;font-weight:normal;font-stretch:normal;font-size:medium;line-height:125%;font-family:Equa_Sixty;-inkscape-font-specification:Equa_Sixty;letter-spacing:-5.07000017px;word-spacing:0px;fill:#2b2b29;fill-opacity:1;stroke:none;stroke-width:1px;stroke-linecap:butt;stroke-linejoin:miter;stroke-opacity:1"
       d="m 1535.5623,849.87459 4.7179,0 0,30.64212 q 0,2.8727 -2.3589,2.8727 l -9.4359,0 q -2.359,0 -2.359,-2.8727 l 0,-6.22418 4.718,0 0,6.22418 4.7179,0 0,-10.53323 -7.0769,0 q -2.359,0 -2.359,-2.8727 l 0,-17.23619 4.718,0 0,17.23619 4.7179,0 0,-17.23619 z" />
    <path
       inkscape:connector-curvature="0"
       id="path4442"
       style="font-style:normal;font-variant:normal;font-weight:normal;font-stretch:normal;font-size:medium;line-height:125%;font-family:Equa_Sixty;-inkscape-font-specification:Equa_Sixty;letter-spacing:-5.07000017px;word-spacing:0px;fill:#2b2b29;fill-opacity:1;stroke:none;stroke-width:1px;stroke-linecap:butt;stroke-linejoin:miter;stroke-opacity:1"
       d="m 1551.1302,871.41983 4.718,0 0,9.09688 q 0,2.8727 -2.359,2.8727 l -9.4359,0 q -2.3589,0 -2.3589,-2.8727 l 0,-27.76942 q 0,-2.8727 2.3589,-2.8727 l 9.4359,0 q 2.359,0 2.359,2.8727 l 0,6.70296 -4.718,0 0,-6.70296 -4.7179,0 0,27.76942 4.7179,0 0,-9.09688 z" />
    <path
       inkscape:connector-curvature="0"
       id="path4444"
       style="font-style:normal;font-variant:normal;font-weight:normal;font-stretch:normal;font-size:medium;line-height:125%;font-family:Equa_Sixty;-inkscape-font-specification:Equa_Sixty;letter-spacing:-5.07000017px;word-spacing:0px;fill:#2b2b29;fill-opacity:1;stroke:none;stroke-width:1px;stroke-linecap:butt;stroke-linejoin:miter;stroke-opacity:1"
       d="m 1557.2624,849.87459 0,33.51482 11.7948,0 q 2.359,0 2.359,-2.8727 l 0,-11.49079 q 0,-2.8727 -2.359,-2.8727 l -7.0769,0 0,-16.27863 -4.7179,0 z m 4.7179,30.64212 0,-11.49079 4.7179,0 0,11.49079 -4.7179,0 z" />
    <path
       inkscape:connector-curvature="0"
       id="path4446"
       style="font-style:normal;font-variant:normal;font-weight:normal;font-stretch:normal;font-size:medium;line-height:125%;font-family:Equa_Sixty;-inkscape-font-specification:Equa_Sixty;letter-spacing:-5.07000017px;word-spacing:0px;fill:#2b2b29;fill-opacity:1;stroke:none;stroke-width:1px;stroke-linecap:butt;stroke-linejoin:miter;stroke-opacity:1"
       d="m 1581.1732,849.87459 0,23.93916 -4.7179,0 0,-23.93916 4.7179,0 z m 0,27.76942 0,5.7454 -4.7179,0 0,-5.7454 4.7179,0 z" />
    <path
       d="m 1374.7964,865.29141 -4.7179,-3.44724 0,-11.96958 -4.718,0 0,10.24596 q 0,1.96301 1.2975,2.82482 l 3.0666,2.05877 -3.0666,2.10664 q -1.2975,0.95757 -1.2975,2.53755 l 0,13.74108 4.718,0 0,-14.65076 2.4376,-1.72362 2.2803,1.57998 0,14.7944 4.7179,0 0,-33.51482 -4.7179,0 0,15.41682 z"
       style="font-style:normal;font-variant:normal;font-weight:normal;font-stretch:normal;font-size:medium;line-height:125%;font-family:Equa_Sixty;-inkscape-font-specification:Equa_Sixty;letter-spacing:-5.07000017px;word-spacing:0px;fill:#2b2b29;fill-opacity:1;stroke:none;stroke-width:1px;stroke-linecap:butt;stroke-linejoin:miter;stroke-opacity:1"
       id="path4448"
       inkscape:connector-curvature="0" />
    <path
       style="font-style:normal;font-variant:normal;font-weight:normal;font-stretch:normal;font-size:medium;line-height:125%;font-family:Equa_Sixty;-inkscape-font-specification:Equa_Sixty;letter-spacing:-5.07000017px;word-spacing:0px;fill:#2b2b29;fill-opacity:1;stroke:none;stroke-width:0.30000001;stroke-linecap:round;stroke-linejoin:round;stroke-miterlimit:4;stroke-dasharray:none;stroke-opacity:1"
       d="m 1482.9599,849.81369 c -2.359,0 -3.5371,1.4262 -3.5371,4.27989 l 0,1.30695 0,22.71766 0,0.25075 c 0,1.23008 -0.5581,1.9787 -1.3963,2.17178 l -0.012,2.5679 1.8007,0 c 2.626,0 4.0413,-1.43196 4.2754,-4.26469 0,0 0.032,-0.27223 0.041,-0.41511 0.01,-0.14288 0.01,-0.44163 0.01,-0.44163 l 0,-23.17936 c 0,-1.42685 0.59,-2.14089 1.7695,-2.14089 l 2.9492,0 0,25.92243 0,1.66408 0,2.85136 4.7168,0 0,-33.29113 z"
       id="path4875"
       inkscape:connector-curvature="0"
       sodipodi:nodetypes="csccsccsczcssccccccc" />
  </g>
</svg>
