<?xml version="1.0" encoding="UTF-8" standalone="no"?>
<svg
   xmlns:dc="http://purl.org/dc/elements/1.1/"
   xmlns:cc="http://creativecommons.org/ns#"
   xmlns:rdf="http://www.w3.org/1999/02/22-rdf-syntax-ns#"
   xmlns:svg="http://www.w3.org/2000/svg"
   xmlns="http://www.w3.org/2000/svg"
   version="1.1"
   id="svg2"
   viewBox="0 0 500.00007 500.00001"
   height="141.11111mm"
   width="141.11113mm">
  <defs
     id="defs4" />
  <metadata
     id="metadata7">
    <rdf:RDF>
      <cc:Work
         rdf:about="">
        <dc:format>image/svg+xml</dc:format>
        <dc:type
           rdf:resource="http://purl.org/dc/dcmitype/StillImage" />
        <dc:title></dc:title>
      </cc:Work>
    </rdf:RDF>
  </metadata>
  <g
     transform="translate(-622.83746,13.630188)"
     id="layer1">
    <rect
       y="-13.630188"
       x="622.83752"
       height="500"
       width="500"
       id="rect4207"
       style="opacity:1;fill:#ffffff;fill-opacity:1;stroke:none;stroke-width:2;stroke-linecap:round;stroke-linejoin:round;stroke-miterlimit:4;stroke-dasharray:none;stroke-dashoffset:0;stroke-opacity:1" />
    <circle
       r="250"
       cy="236.36981"
       cx="872.83746"
       id="path4205"
       style="opacity:1;fill:#ff0000;fill-opacity:1;stroke:none;stroke-width:2;stroke-linecap:round;stroke-linejoin:round;stroke-miterlimit:4;stroke-dasharray:none;stroke-dashoffset:0;stroke-opacity:1" />
    <g
       id="flowRoot4158"
       style="font-style:normal;font-variant:normal;font-weight:600;font-stretch:normal;font-size:52.5px;line-height:125%;font-family:FreeSans;-inkscape-font-specification:'FreeSans Semi-Bold';letter-spacing:0px;word-spacing:0px;fill:#ffffff;fill-opacity:1;stroke:none;stroke-width:1px;stroke-linecap:butt;stroke-linejoin:miter;stroke-opacity:1"
       transform="matrix(1.0373452,0,0,0.98888952,154.60343,-619.14761)">
      <path
         id="path4173"
         d="m 543.435,871.06195 -15.1725,0 0,17.3775 -7.875,0 0,-38.2725 7.875,0 0,14.3325 15.12,0 0,-14.3325 7.9275,0 0,38.2725 -7.875,0 0,-17.3775 z" />
      <path
         id="path4175"
         d="m 580.92246,880.72195 -14.3325,0 -2.5725,7.7175 -8.0325,0 13.5975,-38.2725 8.715,0 13.23,38.2725 -8.085,0 -2.52,-7.7175 z m -2.1525,-6.5625 -4.9875,-14.9625 -4.9875,14.9625 9.975,0 z" />
      <path
         id="path4177"
         d="m 626.92641,877.41445 q 0,1.89 -0.63,3.675 -0.63,1.785 -2.0475,3.5175 -1.365,1.7325 -4.1475,2.7825 -2.7825,1.05 -6.615,1.05 l -17.22,0 0,-38.2725 17.0625,0 q 3.57,0 6.1425,1.05 2.625,1.05 3.885,2.73 1.3125,1.6275 1.89,3.2025 0.5775,1.575 0.5775,3.0975 0,2.4675 -1.2075,4.2525 -1.2075,1.785 -4.0425,3.6225 6.3525,3.7275 6.3525,9.2925 z m -22.785,-20.685 0,8.6625 8.5575,0 q 5.565,0 5.565,-4.305 0,-4.3575 -5.565,-4.3575 l -8.5575,0 z m 0,15.225 0,9.9225 9.3975,0 q 5.8275,0 5.8275,-4.935 0,-4.9875 -5.8275,-4.9875 l -9.3975,0 z" />
      <path
         id="path4179"
         d="m 654.44297,880.72195 -14.3325,0 -2.5725,7.7175 -8.0325,0 13.5975,-38.2725 8.715,0 13.23,38.2725 -8.085,0 -2.52,-7.7175 z m -2.1525,-6.5625 -4.9875,-14.9625 -4.9875,14.9625 9.975,0 z" />
      <path
         id="path4181"
         d="m 690.83941,856.72945 -11.655,0 0,10.71 q 0,2.625 -0.1575,4.8825 -0.1575,2.205 -0.63,4.83 -0.42,2.625 -1.3125,4.62 -0.8925,1.995 -2.2575,3.7275 -1.3125,1.7325 -3.4125,2.6775 -2.1,0.8925 -4.7775,0.8925 l 0,-7.6125 q 2.6775,0 3.675,-3.7275 0.9975,-3.78 0.9975,-12.7575 l 0,-14.805 27.405,0 0,38.2725 -7.875,0 0,-31.71 z" />
      <path
         id="path4183"
         d="m 714.98613,863.81695 9.8175,0 q 5.25,0 8.4,3.465 3.15,3.465 3.15,9.2925 0,5.775 -3.2025,8.82 -3.15,3.045 -9.135,3.045 l -16.905,0 0,-38.2725 7.875,0 0,13.65 z m 0,6.5625 0,11.4975 7.35,0 q 3.15,0 4.62,-1.4175 1.5225,-1.4175 1.5225,-4.3575 0,-5.7225 -6.1425,-5.7225 l -7.35,0 z" />
      <path
         id="path4185"
         style="font-style:normal;font-variant:normal;font-weight:600;font-stretch:normal;line-height:120.00000477%;font-family:FreeSans;-inkscape-font-specification:'FreeSans Semi-Bold';fill:#ffffff"
         d="m 765.73969,871.06195 -15.1725,0 0,17.3775 -7.875,0 0,-38.2725 7.875,0 0,14.3325 15.12,0 0,-14.3325 7.9275,0 0,38.2725 -7.875,0 0,-17.3775 z" />
      <path
         id="path4187"
         style="font-style:normal;font-variant:normal;font-weight:600;font-stretch:normal;line-height:120.00000477%;font-family:FreeSans;-inkscape-font-specification:'FreeSans Semi-Bold';fill:#ffffff"
         d="m 824.80465,850.16695 0,38.2725 -7.875,0 0,-38.2725 7.875,0 z m -34.965,13.65 9.8175,0 q 5.25,0 8.4,3.465 3.15,3.465 3.15,9.2925 0,5.775 -3.2025,8.82 -3.15,3.045 -9.135,3.045 l -16.905,0 0,-38.2725 7.875,0 0,13.65 z m 0,6.5625 0,11.4975 7.35,0 q 3.15,0 4.62,-1.4175 1.5225,-1.4175 1.5225,-4.3575 0,-5.7225 -6.1425,-5.7225 l -7.35,0 z" />
      <path
         id="path4189"
         style="font-style:normal;font-variant:normal;font-weight:600;font-stretch:normal;line-height:120.00000477%;font-family:FreeSans;-inkscape-font-specification:'FreeSans Semi-Bold';fill:#ffffff"
         d="m 841.10918,888.43945 -7.875,0 0,-38.2725 7.875,0 0,26.04 15.1725,-26.04 8.085,0 0,38.2725 -7.875,0 0,-26.46 -15.3825,26.46 z m 14.5425,-47.25 0,0.5775 q 0,2.94 -1.995,4.935 -1.995,1.995 -4.935,1.995 -2.94,0 -4.935,-1.995 -1.995,-1.995 -1.995,-4.9875 l 0,-0.525 2.94,0 q 0.4725,3.465 4.0425,3.465 3.36,0 3.9375,-3.465 l 2.94,0 z" />
    </g>
    <g
       id="flowRoot4166"
       style="font-style:normal;font-variant:normal;font-weight:600;font-stretch:normal;font-size:103.23654938px;line-height:125%;font-family:FreeSans;-inkscape-font-specification:'FreeSans Semi-Bold';letter-spacing:0px;word-spacing:0px;fill:#ffffff;fill-opacity:1;stroke:none;stroke-width:1px;stroke-linecap:butt;stroke-linejoin:miter;stroke-opacity:1"
       transform="matrix(1.05316,0,0,1.102654,153.24983,-724.63489)">
      <path
         id="path4164"
         d="m 553.50667,977.65956 -22.81527,26.84154 -18.47935,0 22.71204,-27.35772 q -7.32979,-1.44532 -12.28515,-7.84598 -4.85211,-6.5039 -4.85211,-16.72432 0,-11.35602 6.19419,-17.34374 6.29743,-5.98772 18.0664,-5.98772 l 33.24216,0 0,75.25948 -15.48548,0 0,-26.84154 -6.29743,0 z m 6.29743,-12.90457 0,-22.6088 -14.45311,0 q -6.1942,0 -9.18806,2.78738 -2.89062,2.78739 -2.89062,8.56864 0,11.25278 12.07868,11.25278 l 14.45311,0 z" />
      <path
         id="path4166"
         d="m 635.94267,1004.5011 -15.48548,0 0,-75.25948 15.48548,0 0,51.20533 29.83536,-51.20533 15.89843,0 0,75.25948 -15.48548,0 0,-52.03126 -30.24831,52.03126 z" />
      <path
         id="path4168"
         d="m 704.37883,993.35151 q 4.12946,0 6.71037,-10.22041 2.68415,-10.32366 2.68415,-26.22209 l 0,-27.66739 53.68301,0 0,64.10989 11.8722,0 0,26.63499 -13.42075,0 0,-15.4854 -58.84483,0 0,15.4854 -13.42075,0 0,-26.63499 10.7366,0 z m 20.02789,-1.75502 27.56416,0 0,-49.4503 -22.71205,0 0,19.61494 q 0,19.61494 -4.85211,29.83536 z" />
      <path
         id="path4170"
         d="m 816.32758,1004.5011 -17.96316,0 11.76897,-23.3315 -26.11885,-51.92798 16.82756,0 17.75669,35.61661 17.75668,-35.61661 17.96316,0 -37.99105,75.25948 z" />
    </g>
    <g
       id="flowRoot4158-9"
       style="font-style:normal;font-variant:normal;font-weight:600;font-stretch:normal;font-size:52.5px;line-height:125%;font-family:FreeSans;-inkscape-font-specification:'FreeSans Semi-Bold';letter-spacing:0px;word-spacing:0px;fill:#ffffff;fill-opacity:1;stroke:none;stroke-width:1px;stroke-linecap:butt;stroke-linejoin:miter;stroke-opacity:1"
       transform="matrix(1.7161292,0,0,1.6359667,-185.73158,-1281.7539)">
      <path
         id="path4192"
         d="m 518.1825,862.29445 q 0,-2.8875 0.7875,-5.0925 0.84,-2.205 2.0475,-3.465 1.26,-1.26 2.94,-1.995 1.68,-0.7875 3.15,-1.05 1.5225,-0.2625 3.15,-0.2625 5.4075,0 8.61,2.7825 3.2025,2.73 3.2025,7.35 0,2.5725 -1.155,4.4625 -1.155,1.8375 -3.7275,3.465 3.15,1.5225 4.62,3.78 1.47,2.205 1.47,5.46 0,5.46 -3.57,8.715 -3.5175,3.2025 -9.45,3.2025 -5.7225,0 -9.135,-3.255 -3.36,-3.3075 -3.4125,-8.8725 l 7.14,0 q 0.315,5.8275 5.565,5.8275 2.415,0 3.9375,-1.575 1.575,-1.575 1.575,-4.0425 0,-2.0475 -1.1025,-3.5175 -1.1025,-1.5225 -2.94,-2.0475 -1.47,-0.3675 -4.305,-0.3675 l 0,-4.935 0.63,0 q 6.51,0 6.51,-5.6175 0,-2.31 -1.2075,-3.57 -1.2075,-1.3125 -3.4125,-1.3125 -2.8875,0 -3.9375,1.6275 -1.05,1.6275 -1.155,4.935 l -6.825,0 0,-0.63 z" />
      <path
         id="path4194"
         d="m 566.04363,888.17695 q -2.5725,1.47 -6.3,1.47 -3.7275,0 -6.3,-1.47 -2.5725,-1.5225 -3.99,-4.305 -1.365,-2.7825 -1.9425,-6.09 -0.5775,-3.36 -0.5775,-7.7175 0,-9.5025 2.8875,-14.5425 2.8875,-5.0925 9.9225,-5.0925 3.675,0 6.195,1.4175 2.5725,1.365 3.99,4.095 1.4175,2.73 1.995,6.195 0.63,3.465 0.63,8.1375 0,4.2 -0.5775,7.5075 -0.5775,3.255 -1.9425,6.09 -1.365,2.7825 -3.99,4.305 z m -0.84,-18.06 q 0,-7.6125 -1.4175,-10.6575 -1.365,-3.0975 -4.0425,-3.0975 -2.94,0 -4.2,2.9925 -1.26,2.94 -1.26,10.6575 0,5.355 0.6825,8.4 0.6825,2.9925 1.785,3.99 1.155,0.945 2.9925,0.945 1.785,0 2.8875,-0.945 1.155,-0.945 1.8375,-3.9375 0.735,-3.045 0.735,-8.3475 z" />
      <path
         id="path4196"
         d="m 585.13477,880.77445 0,7.665 -7.875,0 0,-7.665 7.875,0 z" />
      <path
         id="path4198"
         d="m 600.25477,862.76695 -8.925,0 0,-4.8825 q 9.66,0 11.3925,-6.6675 l 4.8825,0 0,37.2225 -7.35,0 0,-25.6725 z" />
      <path
         id="path4200"
         d="m 644.0209,862.24195 q 0,3.0975 -1.365,5.6175 -1.3125,2.52 -3.36,4.2525 -2.0475,1.68 -4.2,3.15 -2.1525,1.4175 -4.1475,3.15 -1.995,1.68 -2.835,3.465 l 15.75,0 0,6.5625 -25.305,0 q 0.2625,-5.145 2.0475,-8.1375 1.8375,-3.045 6.5625,-6.3525 6.1425,-4.305 7.8225,-6.3525 1.68,-2.1 1.68,-5.1975 0,-2.7825 -1.4175,-4.3575 -1.365,-1.6275 -3.8325,-1.6275 -2.52,0 -3.9375,1.7325 -1.365,1.7325 -1.365,4.83 l 0,1.2075 -7.035,0 q -0.0525,-0.5775 -0.0525,-1.3125 0,-5.88 3.2025,-9.135 3.255,-3.3075 9.03,-3.3075 5.88,0 9.2925,3.2025 3.465,3.2025 3.465,8.61 z" />
      <path
         id="path4202"
         d="m 656.70703,880.77445 0,7.665 -7.875,0 0,-7.665 7.875,0 z" />
      <path
         id="path4204"
         d="m 671.82703,862.76695 -8.925,0 0,-4.8825 q 9.66,0 11.3925,-6.6675 l 4.8825,0 0,37.2225 -7.35,0 0,-25.6725 z" />
      <path
         id="path4206"
         d="m 715.96066,874.10695 0,6.09 -3.885,0 0,8.2425 -7.35,0 0,-8.2425 -14.91,0 0,-6.195 13.5975,-22.785 8.6625,0 0,22.89 3.885,0 z m -11.235,0 0,-15.9075 -9.7125,15.9075 9.7125,0 z" />
    </g>
  </g>
</svg>
