<?xml version="1.0" encoding="UTF-8" standalone="no"?>
<svg
   xmlns:dc="http://purl.org/dc/elements/1.1/"
   xmlns:cc="http://creativecommons.org/ns#"
   xmlns:rdf="http://www.w3.org/1999/02/22-rdf-syntax-ns#"
   xmlns:svg="http://www.w3.org/2000/svg"
   xmlns="http://www.w3.org/2000/svg"
   version="1.1"
   id="svg2"
   viewBox="0 0 1281.2775 1281.2775"
   height="361.60498mm"
   width="361.60498mm">
  <defs
     id="defs4" />
  <metadata
     id="metadata7">
    <rdf:RDF>
      <cc:Work
         rdf:about="">
        <dc:format>image/svg+xml</dc:format>
        <dc:type
           rdf:resource="http://purl.org/dc/dcmitype/StillImage" />
        <dc:title></dc:title>
      </cc:Work>
    </rdf:RDF>
  </metadata>
  <g
     transform="translate(1368.9587,8.2979689)"
     style="display:inline"
     id="layer1">
    <rect
       y="-10.893566"
       x="-1405.7283"
       height="1323.4709"
       width="1323.4709"
       id="rect4321"
       style="color:#000000;clip-rule:nonzero;display:inline;overflow:visible;visibility:visible;opacity:1;isolation:auto;mix-blend-mode:normal;color-interpolation:sRGB;color-interpolation-filters:linearRGB;solid-color:#000000;solid-opacity:1;fill:#ffffff;fill-opacity:1;fill-rule:evenodd;stroke:none;stroke-width:5;stroke-linecap:round;stroke-linejoin:round;stroke-miterlimit:4;stroke-dasharray:none;stroke-dashoffset:0;stroke-opacity:1;color-rendering:auto;image-rendering:auto;shape-rendering:auto;text-rendering:auto;enable-background:accumulate" />
  </g>
  <g
     transform="translate(1368.9587,8.2979689)"
     id="layer2">
    <g
       transform="translate(15.672813,-18.50117)"
       id="g4164">
      <path
         style="display:inline;fill:none;fill-rule:evenodd;stroke:#000000;stroke-width:15;stroke-linecap:round;stroke-linejoin:round;stroke-miterlimit:4;stroke-dasharray:none;stroke-opacity:1"
         d="m -1289.1722,532.02322 1090.35876,0"
         id="path4263" />
      <path
         style="font-style:normal;font-variant:normal;font-weight:500;font-stretch:normal;font-size:medium;line-height:125%;font-family:'Century Schoolbook L';-inkscape-font-specification:'Century Schoolbook L Medium';letter-spacing:0px;word-spacing:0px;display:inline;fill:#000000;fill-opacity:1;stroke:none;stroke-width:1px;stroke-linecap:butt;stroke-linejoin:miter;stroke-opacity:1"
         id="path4292"
         d="m -707.0583,259.93376 c 6.8037,-2.42991 7.7757,-2.42991 11.1776,-3.88785 34.0186,-14.09343 53.4578,-41.30834 53.4578,-75.81296 0,-50.54197 -38.8784,-83.588652 -99.14,-83.588652 -56.8597,0 -100.112,33.532662 -100.112,77.756882 0,19.92521 13.6075,34.01864 32.0747,34.01864 17.0093,0 28.6729,-11.66353 28.6729,-29.15883 0,-10.20559 -3.8879,-17.00932 -15.0654,-24.78501 -4.8598,-3.40186 -6.3178,-5.83176 -6.3178,-8.74765 0,-13.60745 28.6729,-28.18687 55.8878,-28.18687 34.9906,0 53.4579,21.86913 53.4579,63.17747 0,45.19619 -18.4673,69.00924 -53.4579,69.00924 -4.3738,0 -12.1495,-0.48598 -19.4392,-0.97196 -3.8879,-0.48599 -7.7757,-0.48599 -10.6916,-0.48599 -10.2056,0 -15.5514,4.37383 -15.5514,13.12148 0,8.26167 5.3458,12.14951 15.0654,12.14951 1.458,0 5.3458,0 11.6636,-0.48598 18.4672,-0.48598 18.9532,-0.48598 22.841,-0.48598 35.9626,0 55.4018,25.75697 55.4018,73.86904 0,50.056 -24.785,78.72885 -68.0373,78.72885 -30.6167,0 -63.6634,-16.52334 -63.6634,-31.58874 0,-4.37382 0.972,-5.34578 10.6916,-10.69157 13.6074,-8.26167 18.9532,-16.52334 18.9532,-28.67285 0,-17.4953 -13.1215,-30.61677 -31.1027,-30.61677 -20.4112,0 -34.5047,17.4953 -34.5047,42.76628 0,47.14011 43.2523,79.70081 105.4578,79.70081 69.9812,0 116.1494,-38.87844 116.1494,-98.65405 0,-45.68217 -23.8131,-73.38306 -73.8691,-87.47649 z" />
      <g
         id="g4309"
         transform="translate(63.276295,-83.322612)">
        <path
           d="m -1199.9756,1073.4778 c -7.287,0 -18.4319,-1.7146 -18.4319,-5.1438 0,-8.5729 17.146,-3.8578 17.146,-27.8621 0,-12.0022 -10.2876,-19.2892 -22.7184,-19.2892 -15.86,0 -29.5767,9.8589 -29.5767,25.7189 0,31.2913 17.5746,46.7226 53.581,46.7226 45.8654,0 56.5817,-24.4329 64.726,-40.7215 l 103.733,-208.32327 c 12.4308,-25.29027 36.00644,-40.29297 58.72482,-40.29297 l 6.85838,0 0,-20.14649 -117.8784,0 0,20.14649 6.0011,0 c 20.5751,0 29.5768,5.14378 29.5768,16.7173 0,4.71513 -2.5719,7.28702 -6.0011,14.57405 l -59.1535,121.73622 -69.4411,-136.73892 c -2.5719,-4.71514 -4.7152,-8.57298 -4.7152,-10.71622 0,-4.28649 4.2865,-5.57243 20.5752,-5.57243 l 16.2886,0 0,-20.14649 -132.4524,0 0,20.14649 7.287,0 c 21.0038,0 27.4335,1.28594 36.0065,16.28865 l 102.0184,182.17569 -18.8605,36.4351 c -9.859,18.8606 -20.5752,34.2919 -43.2936,34.2919 z"
           id="path4294"
           style="font-style:normal;font-variant:normal;font-weight:500;font-stretch:normal;font-size:medium;line-height:125%;font-family:'Century Schoolbook L';-inkscape-font-specification:'Century Schoolbook L Medium';letter-spacing:0px;word-spacing:0px;display:inline;fill:#000000;fill-opacity:1;stroke:none;stroke-width:1px;stroke-linecap:butt;stroke-linejoin:miter;stroke-opacity:1" />
        <path
           id="path4267"
           d="M -1274.1625,1069.3328 -955.25726,750.4276"
           style="display:inline;fill:none;fill-rule:evenodd;stroke:#ff0000;stroke-width:5;stroke-linecap:round;stroke-linejoin:miter;stroke-miterlimit:4;stroke-dasharray:none;stroke-opacity:1" />
        <ellipse
           ry="78"
           rx="336"
           cy="1210.3622"
           cx="-667.40479"
           id="path4244"
           style="color:#000000;clip-rule:nonzero;display:inline;overflow:visible;visibility:visible;opacity:1;isolation:auto;mix-blend-mode:normal;color-interpolation:sRGB;color-interpolation-filters:linearRGB;solid-color:#000000;solid-opacity:1;fill:#5b5b5b;fill-opacity:1;fill-rule:evenodd;stroke:none;stroke-width:0;stroke-linecap:butt;stroke-linejoin:miter;stroke-miterlimit:4;stroke-dasharray:none;stroke-dashoffset:0;stroke-opacity:1;color-rendering:auto;image-rendering:auto;shape-rendering:auto;text-rendering:auto;enable-background:accumulate" />
        <path
           id="path4235"
           d="m -911.83336,753.07649 c 24.3573,-21.94279 118.63515,-61.94873 175.54192,-65.43181 56.90678,-3.48308 104.49077,0.0656 155.19752,3.59458 50.70676,3.52894 177.58865,48.55788 185.68916,62.55151 8.10051,13.99363 -64.27172,64.72112 -64.27172,64.72112 l -305.57115,11.61675 -133.34013,-47.47717 z"
           style="fill:#cccccc;fill-opacity:1;fill-rule:evenodd;stroke:#858585;stroke-width:5;stroke-linecap:butt;stroke-linejoin:miter;stroke-miterlimit:4;stroke-dasharray:none;stroke-opacity:1" />
        <path
           id="path4210"
           d="m -872.54762,766.64792 c 2.85714,-2.85714 121.42857,-97.14286 212.85714,-93.57143 91.42858,3.57143 199.28572,84.28571 205.71429,97.14286 6.42857,12.85714 -59.28571,76.42857 -76.42857,76.42857 -17.14286,0 -238.57143,-5.71429 -238.57143,-5.71429 0,0 -87.85714,-25.71428 -104.28571,-42.14285 -16.42856,-16.42858 0.71428,-32.14286 0.71428,-32.14286 z"
           style="fill:#ffffff;fill-rule:evenodd;stroke:#b6b6b6;stroke-width:5;stroke-linecap:butt;stroke-linejoin:miter;stroke-miterlimit:4;stroke-dasharray:none;stroke-opacity:1" />
        <path
           id="path4233"
           d="m -872.54762,851.64792 c -35.00004,5 -112.85714,92.14286 -116.42854,159.99998 -3.5715,67.8572 3.0285,110.6945 57.1428,165.7143 54.11428,55.0198 157.14288,82.1428 257.85717,76.4285 100.71429,-5.7143 180.81519,-24.698 201.42857,-34.2856 30.71428,-14.2857 120.58627,-54.9949 120,-187.8572 -0.23423,-53.08152 -42.28166,-178.30381 -93.00504,-178.48391 z"
           style="fill:#cccccc;fill-rule:evenodd;stroke:#848484;stroke-width:5;stroke-linecap:butt;stroke-linejoin:miter;stroke-miterlimit:4;stroke-dasharray:none;stroke-opacity:1" />
        <path
           id="path4212"
           d="m -488.58054,713.15625 c 0,0 32.40485,10.09873 29.63967,37.41698 -0.9338,9.22537 -86.83977,38.21779 -185.74905,38.21779 -130.71428,0 -166.42913,-10.71485 -200.71484,-20.71485 -8.76552,-2.55661 -16.51317,-5.68907 -23.45508,-8.70898 -21.78312,-12.24666 31.82031,-45.62696 31.82031,-45.62696 -19.53582,9.32747 -59.91723,23.80117 -75.32423,39.68946 -13.5714,14.28571 -8.041,41.07617 -8.041,41.07617 7.1429,27.85714 30.0003,47.14258 47.85742,57.14258 17.85714,10 105.71317,31.42745 188.57031,28.57031 82.85714,-2.85715 188.13939,-12.82289 220.71485,-21.42773 37.85714,-9.99999 68.57087,-30.71513 74.28515,-48.57227 5.71429,-17.85715 9.05878,-43.33391 -6.42773,-56.42798 -24.66664,-20.85601 -60.32552,-30.53442 -93.17578,-40.63452 z"
           style="fill:#cccccc;fill-rule:evenodd;stroke:#848484;stroke-width:5;stroke-linecap:butt;stroke-linejoin:miter;stroke-miterlimit:4;stroke-dasharray:none;stroke-opacity:1" />
        <path
           id="path4239"
           d="m -893.73286,835.93359 c -2.3247,0.0368 -3.6306,0.66153 -1.6074,2.6543 0.8129,0.80065 2.1387,1.77607 3.7421,3.31836 5.7786,5.55825 13.66529,4.69304 -0.4511,14.94531 -6.1614,4.47483 65.78795,28.23783 213.78708,28.52539 23.67607,0.046 44.04095,0.001 62.32226,-0.17773 a 14.642858,14.642858 0 0 0 -0.17968,2.16211 14.642858,14.642858 0 0 0 14.64257,14.64453 14.642858,14.642858 0 0 0 14.64454,-14.64453 14.642858,14.642858 0 0 0 -0.24024,-2.59961 c 74.44615,-1.73474 105.7248,-7.68362 165.53711,-25.54688 -1.94092,-1.65754 -13.15366,-6.53488 -1.79687,-13.24804 1.73039,-1.02286 -16.91859,0.60929 -27.91993,2.86914 -75.34133,15.47633 -156.14657,15.39175 -231.29492,16.74023 -61.84649,1.10979 -101.97813,-7.20745 -175.45898,-19.62695 -7.56732,-1.279 -19.05672,-7.59433 -26.6211,-8.89063 -1.44484,-0.2476 -6.11664,-1.17232 -9.10544,-1.125 z"
           style="fill:#333333;fill-rule:evenodd;stroke:none;stroke-width:0;stroke-linecap:butt;stroke-linejoin:miter;stroke-miterlimit:4;stroke-dasharray:none;stroke-opacity:1" />
        <path
           id="path4246"
           d="m -604.1788,887.95988 c -21.66295,51.47988 -1.08846,104.81954 -26.87007,193.74712"
           style="fill:none;fill-opacity:1;fill-rule:evenodd;stroke:#333333;stroke-width:30;stroke-linecap:round;stroke-linejoin:miter;stroke-miterlimit:4;stroke-dasharray:none;stroke-opacity:1" />
        <path
           id="path4248"
           d="m -602.05748,887.60632 c 31.56833,40.1599 38.41653,75.51384 75.30687,182.78708"
           style="fill:none;fill-opacity:1;fill-rule:evenodd;stroke:#333333;stroke-width:28;stroke-linecap:round;stroke-linejoin:miter;stroke-miterlimit:4;stroke-dasharray:none;stroke-opacity:1" />
      </g>
    </g>
  </g>
</svg>
