<?xml version="1.0" encoding="UTF-8" standalone="no"?>
<svg
   xmlns:dc="http://purl.org/dc/elements/1.1/"
   xmlns:cc="http://creativecommons.org/ns#"
   xmlns:rdf="http://www.w3.org/1999/02/22-rdf-syntax-ns#"
   xmlns:svg="http://www.w3.org/2000/svg"
   xmlns="http://www.w3.org/2000/svg"
   xmlns:xlink="http://www.w3.org/1999/xlink"
   version="1.1"
   id="svg4244"
   viewBox="0 0 599.99998 599.99998"
   height="169.33333mm"
   width="169.33333mm">
  <defs
     id="defs4246">
    <radialGradient
       gradientTransform="translate(-69.572139,166.9593)"
       gradientUnits="userSpaceOnUse"
       r="280"
       fy="382.36224"
       fx="408"
       cy="382.36224"
       cx="408"
       id="radialGradient6373"
       xlink:href="#linearGradient4191" />
    <linearGradient
       id="linearGradient4191">
      <stop
         style="stop-color:#dd2b39;stop-opacity:1"
         offset="0"
         id="stop4195" />
      <stop
         style="stop-color:#ac2734;stop-opacity:1"
         offset="1"
         id="stop4193" />
    </linearGradient>
  </defs>
  <metadata
     id="metadata4249">
    <rdf:RDF>
      <cc:Work
         rdf:about="">
        <dc:format>image/svg+xml</dc:format>
        <dc:type
           rdf:resource="http://purl.org/dc/dcmitype/StillImage" />
        <dc:title></dc:title>
      </cc:Work>
    </rdf:RDF>
  </metadata>
  <g
     transform="translate(-38.427841,-249.32155)"
     id="layer1">
    <rect
       y="249.32155"
       x="38.427841"
       height="600"
       width="600"
       id="rect5058"
       style="color:#000000;clip-rule:nonzero;display:inline;overflow:visible;visibility:visible;opacity:1;isolation:auto;mix-blend-mode:normal;color-interpolation:sRGB;color-interpolation-filters:linearRGB;solid-color:#000000;solid-opacity:1;fill:#ffffff;fill-opacity:1;fill-rule:evenodd;stroke:none;stroke-width:5;stroke-linecap:round;stroke-linejoin:round;stroke-miterlimit:4;stroke-dasharray:none;stroke-dashoffset:0;stroke-opacity:1;color-rendering:auto;image-rendering:auto;shape-rendering:auto;text-rendering:auto;enable-background:accumulate" />
    <circle
       r="280"
       cy="549.32153"
       cx="338.42786"
       id="path6345"
       style="opacity:1;fill:url(#radialGradient6373);fill-opacity:1;fill-rule:evenodd;stroke:none;stroke-width:0.192;stroke-linecap:round;stroke-linejoin:round;stroke-miterlimit:4;stroke-dasharray:none;stroke-dashoffset:0;stroke-opacity:1;filter:url(#filter6369);enable-background:new" />
    <g
       transform="translate(-67.676461,168.15697)"
       style="font-style:normal;font-variant:normal;font-weight:normal;font-stretch:normal;font-size:60px;line-height:125%;font-family:'Titania Modern';-inkscape-font-specification:'Titania Modern';letter-spacing:0px;word-spacing:0px;fill:#000000;fill-opacity:1;stroke:none;stroke-width:1px;stroke-linecap:butt;stroke-linejoin:miter;stroke-opacity:1;filter:url(#filter6369);enable-background:new"
       id="g5088">
      <path
         d="m 169.68446,340.47016 q -2.31535,-0.33872 -4.00942,1.29325 l 2.18863,-14.96076 q 1.1556,2.04885 3.47095,2.38757 l 34.01792,4.97653 q 2.31535,0.33872 4.00942,-1.29325 l -2.18863,14.96076 q -1.1556,-2.04885 -3.47095,-2.38757 l -13.71403,-2.00625 q 0.77774,3.38827 0.10899,7.95961 -1.17248,8.01469 -4.98774,12.12573 -3.97742,4.3905 -10.21107,3.47857 l -8.96458,-1.31144 q -2.31535,-0.33872 -4.00943,1.29325 l 2.18864,-14.96075 q 1.15559,2.04885 3.47095,2.38756 l 8.43027,1.23328 q 2.07788,0.30398 4.13256,-0.0625 2.004,-0.4345 3.56923,-1.60021 1.22495,-0.9123 2.13713,-2.17354 0.92085,-1.32061 1.37545,-2.77008 0.46329,-1.50883 0.50231,-3.01908 -0.0117,-1.57831 -0.65175,-3.006 l -17.39485,-2.54472 z"
         style="font-style:normal;font-variant:normal;font-weight:normal;font-stretch:normal;font-family:'Titania Modern';-inkscape-font-specification:'Titania Modern';fill:#000000"
         id="path5090" />
      <path
         d="m 223.79816,292.92433 -5.21614,14.19177 q -0.48708,-1.45751 -2.00763,-2.01639 -0.56316,-0.20699 -1.18843,-0.24503 l -7.81121,-0.314 q 0.96933,4.31958 0.0172,6.91014 -0.43468,1.18265 -1.66599,2.96744 -1.26693,1.70777 -1.70161,2.89042 -1.03495,2.81582 1.11758,4.43799 l 2.09621,1.60148 q 0.2965,0.23682 0.6344,0.36102 1.80213,0.66236 4.87939,-1.27497 l -3.43603,9.34855 q -0.58816,-1.87821 -0.97995,-2.72538 -0.91114,-1.86907 -2.15346,-2.83708 l -30.90644,-23.56911 3.68441,-10.02435 40.15833,1.52771 q 2.3321,0.0901 4.47939,-1.23021 z m -20.07269,11.48004 -22.31066,-1.04068 19.38186,14.92252 q -0.62713,-2.46786 0.32502,-5.05842 0.39328,-1.07001 1.5418,-2.62954 1.1129,-1.63653 1.48548,-2.65023 0.53817,-1.46423 -0.4235,-3.54365 z"
         style="font-style:normal;font-variant:normal;font-weight:normal;font-stretch:normal;font-family:'Titania Modern';-inkscape-font-specification:'Titania Modern';fill:#000000"
         id="path5092" />
      <path
         d="m 250.79725,250.45391 -8.25583,12.66711 q -0.20605,-2.21123 -2.34775,-3.32062 l -28.15892,-14.48526 24.31479,27.30621 -2.45709,3.76997 -34.59057,-10.44098 24.03228,17.74005 q 2.1637,1.62506 5.51306,0.44195 l -4.68485,7.18808 q -0.28507,-3.40863 -2.49904,-5.06644 l -26.63761,-20.2259 q -1.76157,-1.36296 -4.18238,-0.5057 l 7.27299,-11.15912 24.53829,7.18382 -16.67559,-19.24774 7.07642,-10.85752 q 0.26082,2.67664 2.15118,3.62221 l 31.21167,15.18578 q 2.07393,0.99359 4.37895,0.2041 z"
         style="font-style:normal;font-variant:normal;font-weight:normal;font-stretch:normal;font-family:'Titania Modern';-inkscape-font-specification:'Titania Modern';fill:#000000"
         id="path5094" />
      <path
         d="m 280.86937,221.91929 -10.85986,10.52036 q 0.19394,-1.52446 -0.93324,-2.68802 -0.41748,-0.43095 -0.96424,-0.73665 l -6.90047,-3.67384 q -1.00197,4.31213 -2.98432,6.23251 -0.90499,0.8767 -2.78903,1.95 -1.88269,0.98847 -2.78768,1.86517 -2.15474,2.08737 -0.91983,4.48316 l 1.19317,2.35269 q 0.16429,0.34206 0.41478,0.60063 1.33591,1.37903 4.94911,0.96966 l -7.15371,6.93007 q 0.28551,-1.94733 0.30033,-2.88059 -0.009,-2.0793 -0.70834,-3.49065 l -17.61059,-34.64936 7.67085,-7.43105 35.51372,18.80958 q 2.06179,1.09354 4.56935,0.83633 z m -23.06629,1.62802 -19.64695,-10.62289 10.98221,21.85701 q 0.50637,-2.49543 2.48873,-4.41581 0.8188,-0.7932 2.53046,-1.69952 1.71301,-0.99116 2.48871,-1.74262 1.12046,-1.08543 1.15684,-3.37617 z"
         style="font-style:normal;font-variant:normal;font-weight:normal;font-stretch:normal;font-family:'Titania Modern';-inkscape-font-specification:'Titania Modern';fill:#000000"
         id="path5096" />
      <path
         d="m 291.51411,214.98048 q -2.48745,1.56722 -3.42645,5.70465 -0.939,4.13742 -0.47422,11.29077 l -7.84934,-12.57075 2.58897,-1.6312 q 1.39031,-4.20902 0.82663,-8.818 -0.59566,-4.65974 -2.22744,-9.16308 -1.66376,-4.55411 -4.01945,-8.74319 -2.3369,-4.27182 -4.51183,-7.72379 -0.67166,-1.06605 -1.29052,-1.59805 -0.61885,-0.53199 -1.21129,-0.79697 -0.59245,-0.26497 -1.10772,-0.2949 -0.54725,-0.0807 -1.09451,-0.16139 l 24.18256,-15.30725 q -0.80607,2.20985 0.44132,4.18966 l 18.99864,30.15396 3.75655,-2.36683 7.90011,12.53876 q -6.25191,-3.50714 -10.54163,-4.35019 -4.28971,-0.84305 -6.77716,0.72418 l -14.16322,8.92361 z m -9.58612,-40.76483 -8.1035,5.03473 q 1.31136,2.08134 2.92377,4.75306 1.61242,2.67173 3.26445,5.74399 1.62004,3.0215 3.05023,6.30445 1.4302,3.28295 2.3771,6.58673 0.94691,3.30378 1.21304,6.54007 0.3169,3.2043 -0.39116,6.13248 l 15.43233,-9.72321 -19.76626,-31.3723 z"
         style="font-style:normal;font-variant:normal;font-weight:normal;font-stretch:normal;font-family:'Titania Modern';-inkscape-font-specification:'Titania Modern';fill:#000000"
         id="path5098" />
      <path
         d="m 356.6217,184.14504 -14.18488,5.23483 q 0.79341,-1.31609 0.23254,-2.8359 -0.20773,-0.56289 -0.58433,-1.06347 l -4.82744,-6.14893 q -2.65901,3.5395 -5.24831,4.49506 -1.18207,0.43624 -3.33915,0.6567 -2.12157,0.14339 -3.30364,0.57963 -2.81446,1.03865 -2.65298,3.72914 l 0.14071,2.6342 q 0.0121,0.37928 0.1367,0.71702 0.66474,1.80125 4.13523,2.88684 l -9.34401,3.44834 q 1.04806,-1.66588 1.43873,-2.51357 0.83162,-1.90579 0.7626,-3.4792 l -2.10733,-38.8107 10.01949,-3.69762 24.88435,31.5562 q 1.44408,1.83342 3.84172,2.61143 z m -21.75705,-7.83165 -13.67886,-17.65609 1.21346,24.43083 q 1.47157,-2.078 4.06088,-3.03356 1.06949,-0.39469 3.00141,-0.53206 1.96744,-0.21442 2.98065,-0.58834 1.46352,-0.5401 2.42246,-2.62078 z"
         style="font-style:normal;font-variant:normal;font-weight:normal;font-stretch:normal;font-family:'Titania Modern';-inkscape-font-specification:'Titania Modern';fill:#000000"
         id="path5100" />
      <path
         d="m 397.6103,177.98356 -14.95405,2.23397 q 1.62682,-1.69901 1.28109,-4.01333 l -3.53711,-23.67726 q -2.04837,2.12598 -4.71874,2.5249 -1.06815,0.15957 -2.83337,0.11995 -1.76523,-0.0396 -2.77404,0.11108 -1.36485,0.20389 -2.82252,1.81696 l 3.15592,21.12558 q 0.34573,2.31431 2.39808,3.4637 l -14.95406,2.23396 q 1.62683,-1.69901 1.2811,-4.01333 l -5.08848,-34.06201 q -0.34573,-2.31432 -2.39808,-3.4637 l 14.95406,-2.23397 q -1.62683,1.69901 -1.2811,4.01333 l 1.32974,8.90122 q 2.01292,-2.36334 4.86131,-2.78886 1.0088,-0.1507 2.77403,-0.11108 1.82457,0.0308 2.83338,-0.11994 1.48353,-0.22163 2.67995,-1.55301 l -0.94855,-6.34954 q -0.34573,-2.31432 -2.39807,-3.4637 l 14.95405,-2.23397 q -1.62683,1.69901 -1.28109,4.01333 l 5.08847,34.06202 q 0.34574,2.31432 2.39808,3.4637 z"
         style="font-style:normal;font-variant:normal;font-weight:normal;font-stretch:normal;font-family:'Titania Modern';-inkscape-font-specification:'Titania Modern';fill:#000000"
         id="path5102" />
      <path
         d="m 437.48335,159.71329 q -0.23567,2.20745 -1.95246,3.59304 -1.71678,1.38558 -3.92424,1.14992 -2.20746,-0.23567 -3.59304,-1.95246 -1.38558,-1.71678 -1.14992,-3.92424 0.23567,-2.20746 1.95245,-3.59304 1.71679,-1.38558 3.92425,-1.14992 2.20745,0.23567 3.59304,1.95245 1.38558,1.71679 1.14992,3.92425 z"
         style="font-style:normal;font-variant:normal;font-weight:normal;font-stretch:normal;font-family:'Titania Modern';-inkscape-font-specification:'Titania Modern';fill:#000000"
         id="path5104" />
      <path
         d="m 506.61677,187.30709 q -2.24347,5.7584 -8.46724,7.51916 -5.8789,1.70194 -12.30819,-0.80291 l -24.03994,-9.36596 q 2.25586,-0.66655 3.10534,-2.84691 l 12.50246,-32.09053 q 0.84947,-2.18037 -0.36089,-4.19735 l 28.73612,11.19559 q 3.2426,1.26331 4.46602,2.2551 2.85053,2.26964 1.56543,5.56814 -0.91481,2.34809 -5.26754,2.77723 -2.71546,0.3587 -8.25748,-0.12626 -5.24071,-0.43196 -6.29713,-0.19961 1.37299,0.27734 3.32972,1.03969 7.26789,2.83157 10.40887,7.66129 3.36752,5.23995 0.88445,11.61333 z m -9.43685,-27.17998 q 1.394,-3.57804 -4.19668,-5.75617 l -4.52846,-1.76429 -5.24929,13.47355 q 4.07972,-1.05064 8.23714,-2.13541 4.80069,-1.41369 5.73729,-3.81768 z m -2.6579,22.85422 q 1.56825,-4.02529 0.11682,-8.06798 -1.37374,-4.07682 -5.17541,-5.55795 -4.30482,-1.67716 -7.47769,-0.14441 l -6.91411,17.91197 3.2985,1.28509 q 5.31115,2.06923 9.78875,0.65845 4.55529,-1.4449 6.36314,-6.08517 z"
         style="font-style:normal;font-variant:normal;font-weight:normal;font-stretch:normal;font-family:'Titania Modern';-inkscape-font-specification:'Titania Modern';fill:#000000"
         id="path5106" />
      <path
         d="m 537.18014,223.54544 -12.61289,-8.33843 q 1.53045,-0.13904 2.42385,-1.49042 0.33089,-0.50051 0.51163,-1.10029 l 2.10099,-7.5299 q -4.42673,-0.0495 -6.72909,-1.57157 -1.05107,-0.69487 -2.50506,-2.30345 -1.37085,-1.62554 -2.42192,-2.32041 -2.50256,-1.65445 -4.57605,0.0676 l -2.0404,1.67199 q -0.29864,0.23413 -0.49717,0.53443 -1.05885,1.60164 0.11931,5.0418 l -8.30849,-5.49277 q 1.96311,-0.14071 2.87765,-0.32729 2.02845,-0.45715 3.25609,-1.44371 l 30.04187,-24.66166 8.9091,5.88985 -10.71712,38.732 q -0.62368,2.24896 0.1677,4.64223 z m -6.55901,-22.17394 6.14087,-21.47413 -18.97787,15.43303 q 2.54593,-0.0431 4.84828,1.47899 0.95097,0.62869 2.20476,2.10491 1.33692,1.45926 2.23784,2.05486 1.30133,0.86031 3.54612,0.40234 z"
         style="font-style:normal;font-variant:normal;font-weight:normal;font-stretch:normal;font-family:'Titania Modern';-inkscape-font-specification:'Titania Modern';fill:#000000"
         id="path5108" />
      <path
         d="m 570.14126,250.14941 q -5.4363,2.19204 -10.00641,-2.40191 -2.62359,-2.63727 -2.52748,-6.96453 0.005,-1.95161 3.28525,-7.07669 3.91911,-6.09923 4.85889,-8.55752 1.7947,-4.91681 -0.91352,-7.63916 l -0.50779,-0.51044 -14.16469,14.0912 q -1.65893,1.65032 -1.36802,3.98454 l -10.66361,-10.71923 q 2.33268,0.30305 3.9916,-1.34727 l 24.41602,-24.28933 q 1.65893,-1.65032 1.36802,-3.98454 l 10.66361,10.71923 q -2.33268,-0.30305 -3.9916,1.34727 l -8.29464,8.2516 0.84631,0.85073 q 2.28506,2.29698 6.95504,1.12119 4.28803,-1.13437 8.57607,-2.26873 5.13545,-0.70789 8.47841,2.6525 3.4699,3.488 2.86688,6.96541 -0.46481,-0.72246 -0.76102,-1.02022 -1.8619,-1.87161 -5.38538,-1.07467 -6.53783,1.5952 -7.30173,1.67807 -5.0495,0.28385 -10.08994,-2.91125 1.943,3.31432 2.61674,5.2677 0.80003,2.33554 0.79186,5.47508 0.0353,2.75782 -2.09687,6.91008 -2.64434,5.33886 -2.94386,6.3139 -0.89945,3.2645 1.30186,5.13699 z"
         style="font-style:normal;font-variant:normal;font-weight:normal;font-stretch:normal;font-family:'Titania Modern';-inkscape-font-specification:'Titania Modern';fill:#000000"
         id="path5110" />
      <path
         d="m 577.87064,267.07541 q 1.09989,1.78992 2.62239,2.80125 1.55536,1.06154 3.2668,1.37552 1.7945,0.33132 3.56161,-0.0365 1.81731,-0.40072 3.47397,-1.4851 4.41776,-2.89167 5.44916,-6.79375 1.11446,-3.88474 -1.58006,-8.00129 l -2.33305,-3.56433 2.49275,-1.55993 1.93874,2.96191 q 1.34725,2.05827 2.85241,3.15267 1.50516,1.09439 3.00027,1.40655 1.52797,0.36235 2.9957,-0.0247 1.55078,-0.36968 2.90623,-1.2569 1.10444,-0.72292 2.04458,-1.69685 0.973,-0.92372 1.48049,-1.9013 0.5577,-1.01043 0.56682,-2.09206 0.0922,-1.06428 -0.56502,-2.06832 -1.21582,-1.85747 -2.56215,-2.05188 -1.31347,-0.14421 -2.71912,0.77587 -0.35141,0.23002 -0.80505,0.74209 -0.37058,0.5294 -0.49198,1.11083 -1.84652,-0.0821 -3.18738,-0.92552 -1.308,-0.79318 -2.16236,-2.09843 -0.92007,-1.40565 -1.23773,-3.20562 -0.31766,-1.79997 -0.0365,-3.56161 0.28112,-1.76164 1.12633,-3.31882 0.84521,-1.55719 2.30106,-2.51012 0.55222,-0.36146 1.35363,-0.6709 0.47191,1.26874 0.78134,2.07015 0.3925,0.81875 0.62252,1.17016 0.39432,0.60242 1.6795,2.12764 1.28519,1.52522 2.75201,3.21839 1.49969,1.74337 2.81773,3.3188 1.35091,1.62562 1.84381,2.37865 2.49735,3.81534 3.57078,6.76995 1.1565,2.97196 1.12092,5.21827 -0.003,2.29652 -1.0816,3.93494 -0.99581,1.65577 -2.80308,2.83872 -1.60646,1.05152 -3.34071,1.46958 -1.70139,0.46826 -3.51141,0.004 -1.77716,-0.41438 -3.6456,-1.84467 -1.83558,-1.38009 -3.76062,-3.99241 1.91957,3.2613 2.59321,6.26246 0.67365,3.00117 0.36971,5.49485 -0.30393,2.49367 -1.51789,4.36394 -1.21397,1.87026 -3.11981,2.90262 -3.41008,1.80182 -6.73438,1.32447 -3.27409,-0.51021 -6.22051,-2.38227 -2.91356,-1.82186 -5.28677,-4.57109 -2.42341,-2.71637 -3.99886,-5.34239 -1.9716,-3.01211 -3.1783,-5.9512 -1.15649,-2.97196 -1.40113,-5.53683 -0.24464,-2.56487 0.43809,-4.58939 0.7658,-2.00717 2.57306,-3.19013 1.05424,-0.69006 2.22076,-0.87992 1.16651,-0.18987 2.24631,0.0356 1.16287,0.24279 2.18882,0.93374 1.02595,0.69096 1.71601,1.7452 2.82595,4.31736 -0.26647,7.91915 -1.0862,-1.44034 -2.48091,-1.81821 -1.39471,-0.37787 -2.39874,0.27932 -0.85343,0.55862 -1.32806,1.5864 -0.47464,1.02778 -0.5513,2.22533 -0.0438,1.24775 0.24464,2.56486 0.33865,1.28426 1.09443,2.43891 z"
         style="font-style:normal;font-variant:normal;font-weight:normal;font-stretch:normal;font-family:'Titania Modern';-inkscape-font-specification:'Titania Modern';fill:#000000"
         id="path5112" />
      <path
         d="m 604.92822,326.24389 -5.57556,-14.05445 q 1.33485,0.76143 2.84068,0.16405 0.55772,-0.22126 1.04906,-0.60982 l 6.03067,-4.9744 q -3.60263,-2.57283 -4.62039,-5.13832 -0.46463,-1.17121 -0.73707,-3.32234 -0.19454,-2.11749 -0.65917,-3.28869 -1.10626,-2.78858 -3.79207,-2.56223 l -2.63004,0.20423 q -0.37888,0.0212 -0.71351,0.15396 -1.78469,0.70801 -2.78623,4.20368 l -3.67279,-9.25809 q 1.69069,1.00756 2.54756,1.37767 1.92529,0.78538 3.49659,0.67843 l 38.74855,-3.04314 3.93829,9.92735 -30.9466,25.6385 q -1.79804,1.48789 -2.51797,3.90361 z m 7.30441,-21.93969 17.3209,-14.10088 -24.39444,1.80258 q 2.11291,1.421 3.13067,3.9865 0.42038,1.05966 0.60431,2.9877 0.26184,1.9617 0.66009,2.96559 0.57526,1.45006 2.67847,2.35851 z"
         style="font-style:normal;font-variant:normal;font-weight:normal;font-stretch:normal;font-family:'Titania Modern';-inkscape-font-specification:'Titania Modern';fill:#000000"
         id="path5114" />
      <path
         d="m 653.31454,359.02656 q -1.73817,-1.58491 -4.04337,-1.18285 l -33.86871,5.9072 q -2.3052,0.40206 -3.4042,2.48182 l -2.59793,-14.89514 q 1.73817,1.58492 4.04337,1.18286 l 23.52486,-4.10308 11.76243,-2.05155 -1.69346,-10.05861 q -1.75262,0.42749 -5.00354,0.9945 -3.25092,0.56701 -7.20358,0.95188 -3.94234,0.44398 -8.25239,0.52575 -4.29974,0.14088 -8.2194,-0.33268 -3.90935,-0.41445 -7.09429,-1.56432 -3.12582,-1.16017 -4.77946,-3.30798 -1.18558,-1.55948 -1.20688,-3.07841 -0.0701,-1.44952 0.63095,-2.66809 0.71136,-1.15947 1.97805,-1.92856 1.25639,-0.82819 2.69559,-0.95739 1.42889,-0.18832 2.81448,0.4227 1.4447,0.6007 2.45296,2.19111 -4.31967,1.42338 -2.87636,4.46056 0.66118,1.34642 2.38355,2.14232 1.79178,0.84469 4.17189,1.22134 2.44953,0.42545 5.25096,0.42408 2.87084,0.0474 5.70045,-0.14156 3.85506,-0.24604 6.84137,-0.58418 3.04542,-0.34845 5.25028,-0.97663 2.26396,-0.63849 3.67705,-1.61583 1.4234,-0.91822 2.0241,-2.36292 l 5.04123,28.90366 z"
         style="font-style:normal;font-variant:normal;font-weight:normal;font-stretch:normal;font-family:'Titania Modern';-inkscape-font-specification:'Titania Modern';fill:#000000"
         id="path5116" />
      <path
         d="m 631.29983,406.37199 q -2.21253,-0.18196 -3.63941,-1.86459 -1.42688,-1.68262 -1.24491,-3.89515 0.18197,-2.21253 1.86459,-3.63941 1.68262,-1.42688 3.89515,-1.24491 2.21253,0.18197 3.63941,1.86459 1.42688,1.68262 1.24491,3.89515 -0.18197,2.21253 -1.86459,3.63941 -1.68262,1.42688 -3.89515,1.24491 z"
         style="font-style:normal;font-variant:normal;font-weight:normal;font-stretch:normal;font-family:'Titania Modern';-inkscape-font-specification:'Titania Modern';fill:#000000"
         id="path5118" />
      <path
         d="m 620.08205,474.82517 q 14.0832,-2.38763 15.99639,-7.94768 L 602.37777,455.2812 q -2.21268,-0.76137 -4.17951,0.52888 l 4.91964,-14.29726 q 0.75645,2.22733 2.96912,2.9887 l 33.70067,11.5963 q 1.9132,-5.56005 -7.7189,-16.10803 l 14.08251,5.54372 -4.00208,11.63071 -7.55517,21.9565 -14.512,-4.29555 z"
         style="font-style:normal;font-variant:normal;font-weight:normal;font-stretch:normal;font-family:'Titania Modern';-inkscape-font-specification:'Titania Modern';fill:#000000"
         id="path5120" />
      <path
         d="m 573.69472,502.61387 7.63061,-13.05328 q 0.22318,1.52046 1.62174,2.33803 0.51799,0.3028 1.12682,0.45021 l 7.63425,1.68279 q -0.19458,-4.42273 1.19831,-6.80547 0.63589,-1.08777 2.16188,-2.6282 1.54752,-1.45836 2.1834,-2.54613 1.51401,-2.58994 -0.31969,-4.56537 l -1.7819,-1.94515 q -0.25023,-0.28528 -0.56103,-0.46696 -1.65756,-0.96897 -5.02756,0.397 l 5.02652,-8.59859 q 0.24869,1.95237 0.48539,2.85524 0.56824,2.00017 1.62097,3.17157 l 26.27989,28.63701 -5.38988,9.22018 -39.26379,-8.56616 q -2.27992,-0.49879 -4.62593,0.42328 z m 21.77875,-7.77113 21.77993,4.94802 -16.45552,-18.09845 q 0.18336,2.53968 -1.20953,4.92242 -0.57532,0.98418 -1.9802,2.31742 -1.38335,1.41532 -1.9284,2.34769 -0.78728,1.34677 -0.20628,3.5629 z"
         style="font-style:normal;font-variant:normal;font-weight:normal;font-stretch:normal;font-family:'Titania Modern';-inkscape-font-specification:'Titania Modern';fill:#000000"
         id="path5122" />
      <path
         d="m 554.41718,544.55615 q -4.56216,-4.16882 -3.96043,-10.60882 0.53223,-6.0971 5.18674,-11.19078 l 17.40382,-19.04592 q -0.19167,2.34445 1.53575,3.92294 l 25.4241,23.23207 q 1.72742,1.57848 4.04514,1.17678 l -20.80363,22.76652 q -2.34749,2.56899 -3.71369,3.35252 -3.14476,1.84045 -5.75804,-0.54752 -1.8603,-1.6999 -0.69115,-5.91458 0.64452,-2.66214 3.09509,-7.65653 2.29249,-4.73245 2.45667,-5.80158 -0.75373,1.18063 -2.17032,2.73088 -5.26162,5.75807 -10.89899,6.94637 -6.10167,1.25168 -11.15106,-3.36235 z m 28.7543,0.99793 q 2.83474,2.59034 6.88214,-1.83895 l 3.27839,-3.58772 -10.67457,-9.75423 q -0.49101,4.18413 -0.9782,8.45302 -0.41235,4.9875 1.49224,6.72788 z m -20.35862,-10.71944 q 3.18908,2.91412 7.48317,3.01796 4.29791,0.1886 7.05015,-2.82332 3.11649,-3.41055 2.83086,-6.92264 l -14.21418,-12.90739 -2.38797,2.61328 q -3.84503,4.20782 -4.14359,8.89291 -0.29475,4.76986 3.38156,8.1292 z"
         style="font-style:normal;font-variant:normal;font-weight:normal;font-stretch:normal;font-family:'Titania Modern';-inkscape-font-specification:'Titania Modern';fill:#000000"
         id="path5124" />
      <path
         d="m 509.65429,560.07216 12.30738,-8.78311 q -0.41912,1.47849 0.52192,2.79714 0.34854,0.48839 0.84359,0.87221 l 6.2754,4.66187 q 1.63386,-4.11448 3.88044,-5.71774 1.02562,-0.73193 3.04866,-1.51225 2.00905,-0.69664 3.03467,-1.42856 2.44194,-1.74268 1.57814,-4.29585 l -0.82895,-2.50432 q -0.11144,-0.36274 -0.32057,-0.65578 -1.11531,-1.56284 -4.74916,-1.6969 l 8.10724,-5.7857 q -0.57273,1.88297 -0.72657,2.80359 -0.30079,2.05745 0.17984,3.55725 l 12.24617,36.88825 -8.6933,6.20394 -32.31138,-23.89561 q -1.87564,-1.38879 -4.39352,-1.50843 z m 23.05114,1.8302 17.84297,13.43417 -7.59972,-23.25043 q -0.87287,2.39201 -3.11946,3.99527 -0.92793,0.66222 -2.75562,1.30314 -1.84167,0.7246 -2.72077,1.35197 -1.2698,0.90619 -1.6474,3.16588 z"
         style="font-style:normal;font-variant:normal;font-weight:normal;font-stretch:normal;font-family:'Titania Modern';-inkscape-font-specification:'Titania Modern';fill:#000000"
         id="path5126" />
      <path
         d="m 486.01877,606.74852 q -2.0944,-4.71583 1.82406,-9.34475 0.31078,-0.33498 8.79298,-7.84422 5.51465,-4.87827 6.19202,-9.11817 l -4.8707,-10.96706 q -0.94979,-2.13857 -3.23417,-2.69966 l 13.81849,-6.13708 q -1.11541,2.07101 -0.16562,4.20958 l 13.9789,31.47545 q 0.94979,2.13857 3.23417,2.69966 l -24.01785,10.66683 q -5.86738,2.60583 -8.49915,2.59293 -4.59343,0.005 -7.05313,-5.53351 z m 12.61211,-5.6013 q 1.48557,3.34495 4.71424,3.81491 2.29663,0.29304 4.76422,-0.80287 l 4.38682,-1.94828 -7.96359,-17.93113 q -0.45126,1.64474 -2.70627,5.14098 -2.48048,3.72768 -3.18769,5.68305 -1.2254,3.30157 -0.008,6.04334 z"
         style="font-style:normal;font-variant:normal;font-weight:normal;font-stretch:normal;font-family:'Titania Modern';-inkscape-font-specification:'Titania Modern';fill:#000000"
         id="path5128" />
      <path
         d="m 431.46122,585.67447 14.77918,-3.1922 q -1.51405,1.80023 -1.02002,4.08749 l 5.05432,23.40037 q 1.90723,-2.25346 4.54637,-2.82349 1.05565,-0.22802 2.81977,-0.30213 1.76411,-0.0741 2.76112,-0.28947 1.3489,-0.29135 2.69968,-1.99493 l -4.50962,-20.87853 q -0.49403,-2.28726 -2.61612,-3.30211 l 14.77918,-3.1922 q -1.51405,1.80024 -1.02002,4.08749 l 7.27112,33.6637 q 0.49403,2.28725 2.61612,3.3021 l -14.77918,3.1922 q 1.51405,-1.80023 1.02002,-4.08749 l -1.90012,-8.79713 q -1.85656,2.48805 -4.67164,3.09609 -0.99701,0.21534 -2.76112,0.28946 -1.82277,0.0868 -2.81978,0.30213 -1.46619,0.31669 -2.5744,1.72235 l 1.35542,6.27528 q 0.49403,2.28726 2.61612,3.30211 l -14.77918,3.1922 q 1.51406,-1.80023 1.02003,-4.08749 l -7.27113,-33.66369 q -0.49403,-2.28726 -2.61612,-3.30211 z"
         style="font-style:normal;font-variant:normal;font-weight:normal;font-stretch:normal;font-family:'Titania Modern';-inkscape-font-specification:'Titania Modern';fill:#000000"
         id="path5130" />
      <path
         d="m 415.30592,615.37673 q -2.21402,-3.62013 -9.14946,-6.14568 -4.03315,-1.40275 -6.93967,-2.40562 -2.96859,-0.94502 -4.90726,-2.15397 -2.00074,-1.1511 -3.07883,-2.93013 -1.08019,-1.71906 -1.3965,-4.67202 -0.18286,-1.62744 0.054,-3.2401 0.23688,-1.61267 0.8272,-3.03278 0.58822,-1.36015 1.52776,-2.46778 0.93744,-1.04767 2.21566,-1.54301 2.49647,-0.99279 8.85253,-0.76904 l 26.26374,0.92452 q -1.90951,1.37367 -1.99183,3.71222 l -1.21159,34.41868 q -0.0823,2.33856 1.72587,3.8431 L 412.9869,628.3832 q 1.90951,-1.37367 1.99183,-3.71222 l 0.32717,-9.29425 z m 0.93296,-26.50358 -4.79703,-0.16886 q -2.63836,-0.0929 -4.71932,1.03461 -1.47077,0.84879 -2.19157,2.56449 -0.78077,1.71359 -0.85253,3.75233 -0.0718,2.03874 0.52028,3.98077 0.58993,2.00199 1.74486,3.30343 0.69212,0.80484 1.97753,1.81069 1.22545,1.00373 3.10204,2.27053 3.33979,2.33894 4.43053,3.75819 l 0.78521,-22.30618 z m -43.4486,-3.93094 15.11064,0.53191 q -1.90951,1.37368 -1.99183,3.71223 l -1.21159,34.41868 q -0.0823,2.33855 1.72587,3.8431 l -15.11064,-0.53192 q 1.90951,-1.37367 1.99183,-3.71223 l 1.21159,-34.41868 q 0.0823,-2.33855 -1.72587,-3.84309 z"
         style="font-style:normal;font-variant:normal;font-weight:normal;font-stretch:normal;font-family:'Titania Modern';-inkscape-font-specification:'Titania Modern';fill:#000000"
         id="path5132" />
      <path
         d="m 303.52917,574.34041 q 2.41781,-5.68741 8.69232,-7.2578 5.928,-1.5221 12.27802,1.17739 l 23.74355,10.09376 q -2.27512,0.59754 -3.1906,2.75102 l -13.474,31.69487 q -0.91548,2.15349 0.23289,4.2064 l -28.38182,-12.06557 q -3.20262,-1.36148 -4.39526,-2.39007 -2.78009,-2.3554 -1.39513,-5.61323 0.9859,-2.31914 5.34968,-2.61552 2.72512,-0.27583 8.24981,0.37769 5.22512,0.59136 6.28812,0.3913 -1.3639,-0.31903 -3.29651,-1.14062 -7.17829,-3.0516 -10.17072,-7.97474 -3.20637,-5.34008 -0.53035,-11.63488 z m 8.6047,27.45478 q -1.50233,3.53392 4.01943,5.88131 l 4.47262,1.90138 5.6572,-13.30743 q -4.10983,0.92591 -8.29835,1.88356 -4.84152,1.26682 -5.8509,3.64118 z m 3.3527,-22.76268 q -1.69012,3.97567 -0.36248,8.06068 1.24894,4.11677 5.00374,5.71299 4.25175,1.80749 7.46983,0.37209 l 7.45642,-17.69309 -3.25784,-1.38496 q -5.24567,-2.23002 -9.76416,-0.95626 -4.59718,1.30549 -6.54551,5.88855 z"
         style="font-style:normal;font-variant:normal;font-weight:normal;font-stretch:normal;font-family:'Titania Modern';-inkscape-font-specification:'Titania Modern';fill:#000000"
         id="path5134" />
      <path
         d="m 274.07909,537.19487 12.355,8.71599 q -1.53395,0.0927 -2.46781,1.41645 -0.34587,0.49027 -0.54466,1.08431 l -2.32771,7.46294 q 4.42321,0.1833 6.67848,1.77431 1.02959,0.72633 2.43427,2.37814 1.32107,1.66624 2.35066,2.39258 2.45138,1.72936 4.576,0.0708 l 2.09002,-1.60953 q 0.30558,-0.22499 0.51311,-0.51916 1.10679,-1.56889 0.0332,-5.0431 l 8.1386,5.74148 q -1.96646,0.0813 -2.88623,0.24014 -2.04135,0.39559 -3.29825,1.34459 l -30.77382,23.74201 -8.72694,-6.15654 11.88335,-38.39024 q 0.69139,-2.22907 -0.0273,-4.64517 z m 5.88555,22.36212 -6.78738,21.27863 19.43584,-14.85215 q -2.54607,-0.0339 -4.80134,-1.6249 -0.93153,-0.65716 -2.14011,-2.17061 -1.29219,-1.49902 -2.17469,-2.12159 -1.27472,-0.89927 -3.53232,-0.50938 z"
         style="font-style:normal;font-variant:normal;font-weight:normal;font-stretch:normal;font-family:'Titania Modern';-inkscape-font-specification:'Titania Modern';fill:#000000"
         id="path5136" />
      <path
         d="m 250.3772,539.71227 11.00141,-10.45951 q 1.69586,-1.61234 1.45788,-3.95254 l 10.41817,10.95792 q -2.32522,-0.35579 -4.02108,1.25655 l -24.95972,23.73028 q -1.69587,1.61233 -1.45788,3.95254 l -23.97833,-25.22062 6.99318,-9.71193 q -0.46245,13.27203 6.52863,20.45114 l 3.10278,3.17646 14.91496,-14.18029 z"
         style="font-style:normal;font-variant:normal;font-weight:normal;font-stretch:normal;font-family:'Titania Modern';-inkscape-font-specification:'Titania Modern';fill:#000000"
         id="path5138" />
      <path
         d="m 206.50196,483.66898 q 7.74084,-4.82221 15.98764,-3.38545 8.71098,1.50105 13.56492,9.29281 4.91739,7.89363 2.36108,16.27234 -2.40939,7.93373 -10.15023,12.75595 -7.68991,4.79049 -16.01937,3.33452 -8.71098,-1.50105 -13.46975,-9.14003 -4.88566,-7.8427 -2.44372,-16.29154 2.42858,-8.01638 10.16943,-12.8386 z m 15.30643,5.73378 -16.90763,10.53273 q -3.41208,2.12558 -4.74535,4.86478 -1.4994,3.26683 0.53101,6.52613 4.06081,6.51861 12.20907,1.44259 l 16.90763,-10.53273 q 8.14825,-5.07601 4.08744,-11.59462 -3.93391,-6.3149 -12.08217,-1.23888 z"
         style="font-style:normal;font-variant:normal;font-weight:normal;font-stretch:normal;font-family:'Titania Modern';-inkscape-font-specification:'Titania Modern';fill:#000000"
         id="path5140" />
      <path
         d="m 209.52831,432.41023 5.12483,14.22499 q -1.98519,-1.26182 -4.18668,-0.46869 l -22.52291,8.11431 q 2.48658,1.59139 3.40172,4.13157 0.36606,1.01607 0.67358,2.75476 0.30752,1.73868 0.65325,2.69831 0.46774,1.29831 2.33548,2.41112 l 20.09563,-7.23983 q 2.20148,-0.79313 2.92581,-3.03111 l 5.12483,14.22499 q -1.9852,-1.26182 -4.18668,-0.46869 l -32.40139,11.67322 q -2.20148,0.79313 -2.92581,3.03111 l -5.12483,-14.225 q 1.9852,1.26182 4.18669,0.4687 l 8.46726,-3.0505 q -2.71238,-1.51004 -3.68854,-4.21956 -0.34572,-0.95963 -0.65324,-2.69831 -0.32786,-1.79514 -0.67358,-2.75476 -0.50841,-1.41121 -2.04868,-2.32313 l -6.03997,2.17602 q -2.20149,0.79313 -2.92582,3.03111 l -5.12483,-14.225 q 1.9852,1.26182 4.18669,0.46869 l 32.40138,-11.67322 q 2.20149,-0.79312 2.92581,-3.0311 z"
         style="font-style:normal;font-variant:normal;font-weight:normal;font-stretch:normal;font-family:'Titania Modern';-inkscape-font-specification:'Titania Modern';fill:#000000"
         id="path5142" />
      <path
         d="m 183.86861,396.81506 q 2.21146,-0.19452 3.90215,1.22279 1.69069,1.41732 1.88521,3.62878 0.19451,2.21146 -1.2228,3.90215 -1.41731,1.69069 -3.62877,1.8852 -2.21146,0.19452 -3.90215,-1.22279 -1.69069,-1.41732 -1.88521,-3.62878 -0.19451,-2.21146 1.2228,-3.90215 1.41731,-1.69068 3.62877,-1.8852 z"
         style="font-style:normal;font-variant:normal;font-weight:normal;font-stretch:normal;font-family:'Titania Modern';-inkscape-font-specification:'Titania Modern';fill:#000000"
         id="path5144" />
    </g>
    <g
       id="text4202"
       style="font-style:normal;font-variant:normal;font-weight:normal;font-stretch:normal;font-size:60px;line-height:125%;font-family:'Titania Modern';-inkscape-font-specification:'Titania Modern';letter-spacing:0px;word-spacing:0px;fill:#ffffff;fill-opacity:1;stroke:none;stroke-width:1px;stroke-linecap:butt;stroke-linejoin:miter;stroke-opacity:1;filter:url(#filter6369);enable-background:new"
       transform="translate(-69.191689,166.64173)">
      <path
         id="path5929"
         style="font-style:normal;font-variant:normal;font-weight:normal;font-stretch:normal;font-family:'Titania Modern';-inkscape-font-specification:'Titania Modern';fill:#ffffff"
         d="m 169.68446,340.47016 q -2.31535,-0.33872 -4.00942,1.29325 l 2.18863,-14.96076 q 1.1556,2.04885 3.47095,2.38757 l 34.01792,4.97653 q 2.31535,0.33872 4.00942,-1.29325 l -2.18863,14.96076 q -1.1556,-2.04885 -3.47095,-2.38757 l -13.71403,-2.00625 q 0.77774,3.38827 0.10899,7.95961 -1.17248,8.01469 -4.98774,12.12573 -3.97742,4.3905 -10.21107,3.47857 l -8.96458,-1.31144 q -2.31535,-0.33872 -4.00943,1.29325 l 2.18864,-14.96075 q 1.15559,2.04885 3.47095,2.38756 l 8.43027,1.23328 q 2.07788,0.30398 4.13256,-0.0625 2.004,-0.4345 3.56923,-1.60021 1.22495,-0.9123 2.13713,-2.17354 0.92085,-1.32061 1.37545,-2.77008 0.46329,-1.50883 0.50231,-3.01908 -0.0117,-1.57831 -0.65175,-3.006 l -17.39485,-2.54472 z" />
      <path
         id="path5931"
         style="font-style:normal;font-variant:normal;font-weight:normal;font-stretch:normal;font-family:'Titania Modern';-inkscape-font-specification:'Titania Modern';fill:#ffffff"
         d="m 223.79816,292.92433 -5.21614,14.19177 q -0.48708,-1.45751 -2.00763,-2.01639 -0.56316,-0.20699 -1.18843,-0.24503 l -7.81121,-0.314 q 0.96933,4.31958 0.0172,6.91014 -0.43468,1.18265 -1.66599,2.96744 -1.26693,1.70777 -1.70161,2.89042 -1.03495,2.81582 1.11758,4.43799 l 2.09621,1.60148 q 0.2965,0.23682 0.6344,0.36102 1.80213,0.66236 4.87939,-1.27497 l -3.43603,9.34855 q -0.58816,-1.87821 -0.97995,-2.72538 -0.91114,-1.86907 -2.15346,-2.83708 l -30.90644,-23.56911 3.68441,-10.02435 40.15833,1.52771 q 2.3321,0.0901 4.47939,-1.23021 z m -20.07269,11.48004 -22.31066,-1.04068 19.38186,14.92252 q -0.62713,-2.46786 0.32502,-5.05842 0.39328,-1.07001 1.5418,-2.62954 1.1129,-1.63653 1.48548,-2.65023 0.53817,-1.46423 -0.4235,-3.54365 z" />
      <path
         id="path5933"
         style="font-style:normal;font-variant:normal;font-weight:normal;font-stretch:normal;font-family:'Titania Modern';-inkscape-font-specification:'Titania Modern';fill:#ffffff"
         d="m 250.79725,250.45391 -8.25583,12.66711 q -0.20605,-2.21123 -2.34775,-3.32062 l -28.15892,-14.48526 24.31479,27.30621 -2.45709,3.76997 -34.59057,-10.44098 24.03228,17.74005 q 2.1637,1.62506 5.51306,0.44195 l -4.68485,7.18808 q -0.28507,-3.40863 -2.49904,-5.06644 l -26.63761,-20.2259 q -1.76157,-1.36296 -4.18238,-0.5057 l 7.27299,-11.15912 24.53829,7.18382 -16.67559,-19.24774 7.07642,-10.85752 q 0.26082,2.67664 2.15118,3.62221 l 31.21167,15.18578 q 2.07393,0.99359 4.37895,0.2041 z" />
      <path
         id="path5935"
         style="font-style:normal;font-variant:normal;font-weight:normal;font-stretch:normal;font-family:'Titania Modern';-inkscape-font-specification:'Titania Modern';fill:#ffffff"
         d="m 280.86937,221.91929 -10.85986,10.52036 q 0.19394,-1.52446 -0.93324,-2.68802 -0.41748,-0.43095 -0.96424,-0.73665 l -6.90047,-3.67384 q -1.00197,4.31213 -2.98432,6.23251 -0.90499,0.8767 -2.78903,1.95 -1.88269,0.98847 -2.78768,1.86517 -2.15474,2.08737 -0.91983,4.48316 l 1.19317,2.35269 q 0.16429,0.34206 0.41478,0.60063 1.33591,1.37903 4.94911,0.96966 l -7.15371,6.93007 q 0.28551,-1.94733 0.30033,-2.88059 -0.009,-2.0793 -0.70834,-3.49065 l -17.61059,-34.64936 7.67085,-7.43105 35.51372,18.80958 q 2.06179,1.09354 4.56935,0.83633 z m -23.06629,1.62802 -19.64695,-10.62289 10.98221,21.85701 q 0.50637,-2.49543 2.48873,-4.41581 0.8188,-0.7932 2.53046,-1.69952 1.71301,-0.99116 2.48871,-1.74262 1.12046,-1.08543 1.15684,-3.37617 z" />
      <path
         id="path5937"
         style="font-style:normal;font-variant:normal;font-weight:normal;font-stretch:normal;font-family:'Titania Modern';-inkscape-font-specification:'Titania Modern';fill:#ffffff"
         d="m 291.51411,214.98048 q -2.48745,1.56722 -3.42645,5.70465 -0.939,4.13742 -0.47422,11.29077 l -7.84934,-12.57075 2.58897,-1.6312 q 1.39031,-4.20902 0.82663,-8.818 -0.59566,-4.65974 -2.22744,-9.16308 -1.66376,-4.55411 -4.01945,-8.74319 -2.3369,-4.27182 -4.51183,-7.72379 -0.67166,-1.06605 -1.29052,-1.59805 -0.61885,-0.53199 -1.21129,-0.79697 -0.59245,-0.26497 -1.10772,-0.2949 -0.54725,-0.0807 -1.09451,-0.16139 l 24.18256,-15.30725 q -0.80607,2.20985 0.44132,4.18966 l 18.99864,30.15396 3.75655,-2.36683 7.90011,12.53876 q -6.25191,-3.50714 -10.54163,-4.35019 -4.28971,-0.84305 -6.77716,0.72418 l -14.16322,8.92361 z m -9.58612,-40.76483 -8.1035,5.03473 q 1.31136,2.08134 2.92377,4.75306 1.61242,2.67173 3.26445,5.74399 1.62004,3.0215 3.05023,6.30445 1.4302,3.28295 2.3771,6.58673 0.94691,3.30378 1.21304,6.54007 0.3169,3.2043 -0.39116,6.13248 l 15.43233,-9.72321 -19.76626,-31.3723 z" />
      <path
         id="path5939"
         style="font-style:normal;font-variant:normal;font-weight:normal;font-stretch:normal;font-family:'Titania Modern';-inkscape-font-specification:'Titania Modern';fill:#ffffff"
         d="m 356.6217,184.14504 -14.18488,5.23483 q 0.79341,-1.31609 0.23254,-2.8359 -0.20773,-0.56289 -0.58433,-1.06347 l -4.82744,-6.14893 q -2.65901,3.5395 -5.24831,4.49506 -1.18207,0.43624 -3.33915,0.6567 -2.12157,0.14339 -3.30364,0.57963 -2.81446,1.03865 -2.65298,3.72914 l 0.14071,2.6342 q 0.0121,0.37928 0.1367,0.71702 0.66474,1.80125 4.13523,2.88684 l -9.34401,3.44834 q 1.04806,-1.66588 1.43873,-2.51357 0.83162,-1.90579 0.7626,-3.4792 l -2.10733,-38.8107 10.01949,-3.69762 24.88435,31.5562 q 1.44408,1.83342 3.84172,2.61143 z m -21.75705,-7.83165 -13.67886,-17.65609 1.21346,24.43083 q 1.47157,-2.078 4.06088,-3.03356 1.06949,-0.39469 3.00141,-0.53206 1.96744,-0.21442 2.98065,-0.58834 1.46352,-0.5401 2.42246,-2.62078 z" />
      <path
         id="path5941"
         style="font-style:normal;font-variant:normal;font-weight:normal;font-stretch:normal;font-family:'Titania Modern';-inkscape-font-specification:'Titania Modern';fill:#ffffff"
         d="m 397.6103,177.98356 -14.95405,2.23397 q 1.62682,-1.69901 1.28109,-4.01333 l -3.53711,-23.67726 q -2.04837,2.12598 -4.71874,2.5249 -1.06815,0.15957 -2.83337,0.11995 -1.76523,-0.0396 -2.77404,0.11108 -1.36485,0.20389 -2.82252,1.81696 l 3.15592,21.12558 q 0.34573,2.31431 2.39808,3.4637 l -14.95406,2.23396 q 1.62683,-1.69901 1.2811,-4.01333 l -5.08848,-34.06201 q -0.34573,-2.31432 -2.39808,-3.4637 l 14.95406,-2.23397 q -1.62683,1.69901 -1.2811,4.01333 l 1.32974,8.90122 q 2.01292,-2.36334 4.86131,-2.78886 1.0088,-0.1507 2.77403,-0.11108 1.82457,0.0308 2.83338,-0.11994 1.48353,-0.22163 2.67995,-1.55301 l -0.94855,-6.34954 q -0.34573,-2.31432 -2.39807,-3.4637 l 14.95405,-2.23397 q -1.62683,1.69901 -1.28109,4.01333 l 5.08847,34.06202 q 0.34574,2.31432 2.39808,3.4637 z" />
      <path
         id="path5943"
         style="font-style:normal;font-variant:normal;font-weight:normal;font-stretch:normal;font-family:'Titania Modern';-inkscape-font-specification:'Titania Modern';fill:#ffffff"
         d="m 437.48335,159.71329 q -0.23567,2.20745 -1.95246,3.59304 -1.71678,1.38558 -3.92424,1.14992 -2.20746,-0.23567 -3.59304,-1.95246 -1.38558,-1.71678 -1.14992,-3.92424 0.23567,-2.20746 1.95245,-3.59304 1.71679,-1.38558 3.92425,-1.14992 2.20745,0.23567 3.59304,1.95245 1.38558,1.71679 1.14992,3.92425 z" />
      <path
         id="path5945"
         style="font-style:normal;font-variant:normal;font-weight:normal;font-stretch:normal;font-family:'Titania Modern';-inkscape-font-specification:'Titania Modern';fill:#ffffff"
         d="m 506.61677,187.30709 q -2.24347,5.7584 -8.46724,7.51916 -5.8789,1.70194 -12.30819,-0.80291 l -24.03994,-9.36596 q 2.25586,-0.66655 3.10534,-2.84691 l 12.50246,-32.09053 q 0.84947,-2.18037 -0.36089,-4.19735 l 28.73612,11.19559 q 3.2426,1.26331 4.46602,2.2551 2.85053,2.26964 1.56543,5.56814 -0.91481,2.34809 -5.26754,2.77723 -2.71546,0.3587 -8.25748,-0.12626 -5.24071,-0.43196 -6.29713,-0.19961 1.37299,0.27734 3.32972,1.03969 7.26789,2.83157 10.40887,7.66129 3.36752,5.23995 0.88445,11.61333 z m -9.43685,-27.17998 q 1.394,-3.57804 -4.19668,-5.75617 l -4.52846,-1.76429 -5.24929,13.47355 q 4.07972,-1.05064 8.23714,-2.13541 4.80069,-1.41369 5.73729,-3.81768 z m -2.6579,22.85422 q 1.56825,-4.02529 0.11682,-8.06798 -1.37374,-4.07682 -5.17541,-5.55795 -4.30482,-1.67716 -7.47769,-0.14441 l -6.91411,17.91197 3.2985,1.28509 q 5.31115,2.06923 9.78875,0.65845 4.55529,-1.4449 6.36314,-6.08517 z" />
      <path
         id="path5947"
         style="font-style:normal;font-variant:normal;font-weight:normal;font-stretch:normal;font-family:'Titania Modern';-inkscape-font-specification:'Titania Modern';fill:#ffffff"
         d="m 537.18014,223.54544 -12.61289,-8.33843 q 1.53045,-0.13904 2.42385,-1.49042 0.33089,-0.50051 0.51163,-1.10029 l 2.10099,-7.5299 q -4.42673,-0.0495 -6.72909,-1.57157 -1.05107,-0.69487 -2.50506,-2.30345 -1.37085,-1.62554 -2.42192,-2.32041 -2.50256,-1.65445 -4.57605,0.0676 l -2.0404,1.67199 q -0.29864,0.23413 -0.49717,0.53443 -1.05885,1.60164 0.11931,5.0418 l -8.30849,-5.49277 q 1.96311,-0.14071 2.87765,-0.32729 2.02845,-0.45715 3.25609,-1.44371 l 30.04187,-24.66166 8.9091,5.88985 -10.71712,38.732 q -0.62368,2.24896 0.1677,4.64223 z m -6.55901,-22.17394 6.14087,-21.47413 -18.97787,15.43303 q 2.54593,-0.0431 4.84828,1.47899 0.95097,0.62869 2.20476,2.10491 1.33692,1.45926 2.23784,2.05486 1.30133,0.86031 3.54612,0.40234 z" />
      <path
         id="path5949"
         style="font-style:normal;font-variant:normal;font-weight:normal;font-stretch:normal;font-family:'Titania Modern';-inkscape-font-specification:'Titania Modern';fill:#ffffff"
         d="m 570.14126,250.14941 q -5.4363,2.19204 -10.00641,-2.40191 -2.62359,-2.63727 -2.52748,-6.96453 0.005,-1.95161 3.28525,-7.07669 3.91911,-6.09923 4.85889,-8.55752 1.7947,-4.91681 -0.91352,-7.63916 l -0.50779,-0.51044 -14.16469,14.0912 q -1.65893,1.65032 -1.36802,3.98454 l -10.66361,-10.71923 q 2.33268,0.30305 3.9916,-1.34727 l 24.41602,-24.28933 q 1.65893,-1.65032 1.36802,-3.98454 l 10.66361,10.71923 q -2.33268,-0.30305 -3.9916,1.34727 l -8.29464,8.2516 0.84631,0.85073 q 2.28506,2.29698 6.95504,1.12119 4.28803,-1.13437 8.57607,-2.26873 5.13545,-0.70789 8.47841,2.6525 3.4699,3.488 2.86688,6.96541 -0.46481,-0.72246 -0.76102,-1.02022 -1.8619,-1.87161 -5.38538,-1.07467 -6.53783,1.5952 -7.30173,1.67807 -5.0495,0.28385 -10.08994,-2.91125 1.943,3.31432 2.61674,5.2677 0.80003,2.33554 0.79186,5.47508 0.0353,2.75782 -2.09687,6.91008 -2.64434,5.33886 -2.94386,6.3139 -0.89945,3.2645 1.30186,5.13699 z" />
      <path
         id="path5951"
         style="font-style:normal;font-variant:normal;font-weight:normal;font-stretch:normal;font-family:'Titania Modern';-inkscape-font-specification:'Titania Modern';fill:#ffffff"
         d="m 577.87064,267.07541 q 1.09989,1.78992 2.62239,2.80125 1.55536,1.06154 3.2668,1.37552 1.7945,0.33132 3.56161,-0.0365 1.81731,-0.40072 3.47397,-1.4851 4.41776,-2.89167 5.44916,-6.79375 1.11446,-3.88474 -1.58006,-8.00129 l -2.33305,-3.56433 2.49275,-1.55993 1.93874,2.96191 q 1.34725,2.05827 2.85241,3.15267 1.50516,1.09439 3.00027,1.40655 1.52797,0.36235 2.9957,-0.0247 1.55078,-0.36968 2.90623,-1.2569 1.10444,-0.72292 2.04458,-1.69685 0.973,-0.92372 1.48049,-1.9013 0.5577,-1.01043 0.56682,-2.09206 0.0922,-1.06428 -0.56502,-2.06832 -1.21582,-1.85747 -2.56215,-2.05188 -1.31347,-0.14421 -2.71912,0.77587 -0.35141,0.23002 -0.80505,0.74209 -0.37058,0.5294 -0.49198,1.11083 -1.84652,-0.0821 -3.18738,-0.92552 -1.308,-0.79318 -2.16236,-2.09843 -0.92007,-1.40565 -1.23773,-3.20562 -0.31766,-1.79997 -0.0365,-3.56161 0.28112,-1.76164 1.12633,-3.31882 0.84521,-1.55719 2.30106,-2.51012 0.55222,-0.36146 1.35363,-0.6709 0.47191,1.26874 0.78134,2.07015 0.3925,0.81875 0.62252,1.17016 0.39432,0.60242 1.6795,2.12764 1.28519,1.52522 2.75201,3.21839 1.49969,1.74337 2.81773,3.3188 1.35091,1.62562 1.84381,2.37865 2.49735,3.81534 3.57078,6.76995 1.1565,2.97196 1.12092,5.21827 -0.003,2.29652 -1.0816,3.93494 -0.99581,1.65577 -2.80308,2.83872 -1.60646,1.05152 -3.34071,1.46958 -1.70139,0.46826 -3.51141,0.004 -1.77716,-0.41438 -3.6456,-1.84467 -1.83558,-1.38009 -3.76062,-3.99241 1.91957,3.2613 2.59321,6.26246 0.67365,3.00117 0.36971,5.49485 -0.30393,2.49367 -1.51789,4.36394 -1.21397,1.87026 -3.11981,2.90262 -3.41008,1.80182 -6.73438,1.32447 -3.27409,-0.51021 -6.22051,-2.38227 -2.91356,-1.82186 -5.28677,-4.57109 -2.42341,-2.71637 -3.99886,-5.34239 -1.9716,-3.01211 -3.1783,-5.9512 -1.15649,-2.97196 -1.40113,-5.53683 -0.24464,-2.56487 0.43809,-4.58939 0.7658,-2.00717 2.57306,-3.19013 1.05424,-0.69006 2.22076,-0.87992 1.16651,-0.18987 2.24631,0.0356 1.16287,0.24279 2.18882,0.93374 1.02595,0.69096 1.71601,1.7452 2.82595,4.31736 -0.26647,7.91915 -1.0862,-1.44034 -2.48091,-1.81821 -1.39471,-0.37787 -2.39874,0.27932 -0.85343,0.55862 -1.32806,1.5864 -0.47464,1.02778 -0.5513,2.22533 -0.0438,1.24775 0.24464,2.56486 0.33865,1.28426 1.09443,2.43891 z" />
      <path
         id="path5953"
         style="font-style:normal;font-variant:normal;font-weight:normal;font-stretch:normal;font-family:'Titania Modern';-inkscape-font-specification:'Titania Modern';fill:#ffffff"
         d="m 604.92822,326.24389 -5.57556,-14.05445 q 1.33485,0.76143 2.84068,0.16405 0.55772,-0.22126 1.04906,-0.60982 l 6.03067,-4.9744 q -3.60263,-2.57283 -4.62039,-5.13832 -0.46463,-1.17121 -0.73707,-3.32234 -0.19454,-2.11749 -0.65917,-3.28869 -1.10626,-2.78858 -3.79207,-2.56223 l -2.63004,0.20423 q -0.37888,0.0212 -0.71351,0.15396 -1.78469,0.70801 -2.78623,4.20368 l -3.67279,-9.25809 q 1.69069,1.00756 2.54756,1.37767 1.92529,0.78538 3.49659,0.67843 l 38.74855,-3.04314 3.93829,9.92735 -30.9466,25.6385 q -1.79804,1.48789 -2.51797,3.90361 z m 7.30441,-21.93969 17.3209,-14.10088 -24.39444,1.80258 q 2.11291,1.421 3.13067,3.9865 0.42038,1.05966 0.60431,2.9877 0.26184,1.9617 0.66009,2.96559 0.57526,1.45006 2.67847,2.35851 z" />
      <path
         id="path5955"
         style="font-style:normal;font-variant:normal;font-weight:normal;font-stretch:normal;font-family:'Titania Modern';-inkscape-font-specification:'Titania Modern';fill:#ffffff"
         d="m 653.31454,359.02656 q -1.73817,-1.58491 -4.04337,-1.18285 l -33.86871,5.9072 q -2.3052,0.40206 -3.4042,2.48182 l -2.59793,-14.89514 q 1.73817,1.58492 4.04337,1.18286 l 23.52486,-4.10308 11.76243,-2.05155 -1.69346,-10.05861 q -1.75262,0.42749 -5.00354,0.9945 -3.25092,0.56701 -7.20358,0.95188 -3.94234,0.44398 -8.25239,0.52575 -4.29974,0.14088 -8.2194,-0.33268 -3.90935,-0.41445 -7.09429,-1.56432 -3.12582,-1.16017 -4.77946,-3.30798 -1.18558,-1.55948 -1.20688,-3.07841 -0.0701,-1.44952 0.63095,-2.66809 0.71136,-1.15947 1.97805,-1.92856 1.25639,-0.82819 2.69559,-0.95739 1.42889,-0.18832 2.81448,0.4227 1.4447,0.6007 2.45296,2.19111 -4.31967,1.42338 -2.87636,4.46056 0.66118,1.34642 2.38355,2.14232 1.79178,0.84469 4.17189,1.22134 2.44953,0.42545 5.25096,0.42408 2.87084,0.0474 5.70045,-0.14156 3.85506,-0.24604 6.84137,-0.58418 3.04542,-0.34845 5.25028,-0.97663 2.26396,-0.63849 3.67705,-1.61583 1.4234,-0.91822 2.0241,-2.36292 l 5.04123,28.90366 z" />
      <path
         id="path5957"
         style="font-style:normal;font-variant:normal;font-weight:normal;font-stretch:normal;font-family:'Titania Modern';-inkscape-font-specification:'Titania Modern';fill:#ffffff"
         d="m 631.29983,406.37199 q -2.21253,-0.18196 -3.63941,-1.86459 -1.42688,-1.68262 -1.24491,-3.89515 0.18197,-2.21253 1.86459,-3.63941 1.68262,-1.42688 3.89515,-1.24491 2.21253,0.18197 3.63941,1.86459 1.42688,1.68262 1.24491,3.89515 -0.18197,2.21253 -1.86459,3.63941 -1.68262,1.42688 -3.89515,1.24491 z" />
      <path
         id="path5959"
         style="font-style:normal;font-variant:normal;font-weight:normal;font-stretch:normal;font-family:'Titania Modern';-inkscape-font-specification:'Titania Modern';fill:#ffffff"
         d="m 620.08205,474.82517 q 14.0832,-2.38763 15.99639,-7.94768 L 602.37777,455.2812 q -2.21268,-0.76137 -4.17951,0.52888 l 4.91964,-14.29726 q 0.75645,2.22733 2.96912,2.9887 l 33.70067,11.5963 q 1.9132,-5.56005 -7.7189,-16.10803 l 14.08251,5.54372 -4.00208,11.63071 -7.55517,21.9565 -14.512,-4.29555 z" />
      <path
         id="path5961"
         style="font-style:normal;font-variant:normal;font-weight:normal;font-stretch:normal;font-family:'Titania Modern';-inkscape-font-specification:'Titania Modern';fill:#ffffff"
         d="m 573.69472,502.61387 7.63061,-13.05328 q 0.22318,1.52046 1.62174,2.33803 0.51799,0.3028 1.12682,0.45021 l 7.63425,1.68279 q -0.19458,-4.42273 1.19831,-6.80547 0.63589,-1.08777 2.16188,-2.6282 1.54752,-1.45836 2.1834,-2.54613 1.51401,-2.58994 -0.31969,-4.56537 l -1.7819,-1.94515 q -0.25023,-0.28528 -0.56103,-0.46696 -1.65756,-0.96897 -5.02756,0.397 l 5.02652,-8.59859 q 0.24869,1.95237 0.48539,2.85524 0.56824,2.00017 1.62097,3.17157 l 26.27989,28.63701 -5.38988,9.22018 -39.26379,-8.56616 q -2.27992,-0.49879 -4.62593,0.42328 z m 21.77875,-7.77113 21.77993,4.94802 -16.45552,-18.09845 q 0.18336,2.53968 -1.20953,4.92242 -0.57532,0.98418 -1.9802,2.31742 -1.38335,1.41532 -1.9284,2.34769 -0.78728,1.34677 -0.20628,3.5629 z" />
      <path
         id="path5963"
         style="font-style:normal;font-variant:normal;font-weight:normal;font-stretch:normal;font-family:'Titania Modern';-inkscape-font-specification:'Titania Modern';fill:#ffffff"
         d="m 554.41718,544.55615 q -4.56216,-4.16882 -3.96043,-10.60882 0.53223,-6.0971 5.18674,-11.19078 l 17.40382,-19.04592 q -0.19167,2.34445 1.53575,3.92294 l 25.4241,23.23207 q 1.72742,1.57848 4.04514,1.17678 l -20.80363,22.76652 q -2.34749,2.56899 -3.71369,3.35252 -3.14476,1.84045 -5.75804,-0.54752 -1.8603,-1.6999 -0.69115,-5.91458 0.64452,-2.66214 3.09509,-7.65653 2.29249,-4.73245 2.45667,-5.80158 -0.75373,1.18063 -2.17032,2.73088 -5.26162,5.75807 -10.89899,6.94637 -6.10167,1.25168 -11.15106,-3.36235 z m 28.7543,0.99793 q 2.83474,2.59034 6.88214,-1.83895 l 3.27839,-3.58772 -10.67457,-9.75423 q -0.49101,4.18413 -0.9782,8.45302 -0.41235,4.9875 1.49224,6.72788 z m -20.35862,-10.71944 q 3.18908,2.91412 7.48317,3.01796 4.29791,0.1886 7.05015,-2.82332 3.11649,-3.41055 2.83086,-6.92264 l -14.21418,-12.90739 -2.38797,2.61328 q -3.84503,4.20782 -4.14359,8.89291 -0.29475,4.76986 3.38156,8.1292 z" />
      <path
         id="path5965"
         style="font-style:normal;font-variant:normal;font-weight:normal;font-stretch:normal;font-family:'Titania Modern';-inkscape-font-specification:'Titania Modern';fill:#ffffff"
         d="m 509.65429,560.07216 12.30738,-8.78311 q -0.41912,1.47849 0.52192,2.79714 0.34854,0.48839 0.84359,0.87221 l 6.2754,4.66187 q 1.63386,-4.11448 3.88044,-5.71774 1.02562,-0.73193 3.04866,-1.51225 2.00905,-0.69664 3.03467,-1.42856 2.44194,-1.74268 1.57814,-4.29585 l -0.82895,-2.50432 q -0.11144,-0.36274 -0.32057,-0.65578 -1.11531,-1.56284 -4.74916,-1.6969 l 8.10724,-5.7857 q -0.57273,1.88297 -0.72657,2.80359 -0.30079,2.05745 0.17984,3.55725 l 12.24617,36.88825 -8.6933,6.20394 -32.31138,-23.89561 q -1.87564,-1.38879 -4.39352,-1.50843 z m 23.05114,1.8302 17.84297,13.43417 -7.59972,-23.25043 q -0.87287,2.39201 -3.11946,3.99527 -0.92793,0.66222 -2.75562,1.30314 -1.84167,0.7246 -2.72077,1.35197 -1.2698,0.90619 -1.6474,3.16588 z" />
      <path
         id="path5967"
         style="font-style:normal;font-variant:normal;font-weight:normal;font-stretch:normal;font-family:'Titania Modern';-inkscape-font-specification:'Titania Modern';fill:#ffffff"
         d="m 486.01877,606.74852 q -2.0944,-4.71583 1.82406,-9.34475 0.31078,-0.33498 8.79298,-7.84422 5.51465,-4.87827 6.19202,-9.11817 l -4.8707,-10.96706 q -0.94979,-2.13857 -3.23417,-2.69966 l 13.81849,-6.13708 q -1.11541,2.07101 -0.16562,4.20958 l 13.9789,31.47545 q 0.94979,2.13857 3.23417,2.69966 l -24.01785,10.66683 q -5.86738,2.60583 -8.49915,2.59293 -4.59343,0.005 -7.05313,-5.53351 z m 12.61211,-5.6013 q 1.48557,3.34495 4.71424,3.81491 2.29663,0.29304 4.76422,-0.80287 l 4.38682,-1.94828 -7.96359,-17.93113 q -0.45126,1.64474 -2.70627,5.14098 -2.48048,3.72768 -3.18769,5.68305 -1.2254,3.30157 -0.008,6.04334 z" />
      <path
         id="path5969"
         style="font-style:normal;font-variant:normal;font-weight:normal;font-stretch:normal;font-family:'Titania Modern';-inkscape-font-specification:'Titania Modern';fill:#ffffff"
         d="m 431.46122,585.67447 14.77918,-3.1922 q -1.51405,1.80023 -1.02002,4.08749 l 5.05432,23.40037 q 1.90723,-2.25346 4.54637,-2.82349 1.05565,-0.22802 2.81977,-0.30213 1.76411,-0.0741 2.76112,-0.28947 1.3489,-0.29135 2.69968,-1.99493 l -4.50962,-20.87853 q -0.49403,-2.28726 -2.61612,-3.30211 l 14.77918,-3.1922 q -1.51405,1.80024 -1.02002,4.08749 l 7.27112,33.6637 q 0.49403,2.28725 2.61612,3.3021 l -14.77918,3.1922 q 1.51405,-1.80023 1.02002,-4.08749 l -1.90012,-8.79713 q -1.85656,2.48805 -4.67164,3.09609 -0.99701,0.21534 -2.76112,0.28946 -1.82277,0.0868 -2.81978,0.30213 -1.46619,0.31669 -2.5744,1.72235 l 1.35542,6.27528 q 0.49403,2.28726 2.61612,3.30211 l -14.77918,3.1922 q 1.51406,-1.80023 1.02003,-4.08749 l -7.27113,-33.66369 q -0.49403,-2.28726 -2.61612,-3.30211 z" />
      <path
         id="path5971"
         style="font-style:normal;font-variant:normal;font-weight:normal;font-stretch:normal;font-family:'Titania Modern';-inkscape-font-specification:'Titania Modern';fill:#ffffff"
         d="m 415.30592,615.37673 q -2.21402,-3.62013 -9.14946,-6.14568 -4.03315,-1.40275 -6.93967,-2.40562 -2.96859,-0.94502 -4.90726,-2.15397 -2.00074,-1.1511 -3.07883,-2.93013 -1.08019,-1.71906 -1.3965,-4.67202 -0.18286,-1.62744 0.054,-3.2401 0.23688,-1.61267 0.8272,-3.03278 0.58822,-1.36015 1.52776,-2.46778 0.93744,-1.04767 2.21566,-1.54301 2.49647,-0.99279 8.85253,-0.76904 l 26.26374,0.92452 q -1.90951,1.37367 -1.99183,3.71222 l -1.21159,34.41868 q -0.0823,2.33856 1.72587,3.8431 L 412.9869,628.3832 q 1.90951,-1.37367 1.99183,-3.71222 l 0.32717,-9.29425 z m 0.93296,-26.50358 -4.79703,-0.16886 q -2.63836,-0.0929 -4.71932,1.03461 -1.47077,0.84879 -2.19157,2.56449 -0.78077,1.71359 -0.85253,3.75233 -0.0718,2.03874 0.52028,3.98077 0.58993,2.00199 1.74486,3.30343 0.69212,0.80484 1.97753,1.81069 1.22545,1.00373 3.10204,2.27053 3.33979,2.33894 4.43053,3.75819 l 0.78521,-22.30618 z m -43.4486,-3.93094 15.11064,0.53191 q -1.90951,1.37368 -1.99183,3.71223 l -1.21159,34.41868 q -0.0823,2.33855 1.72587,3.8431 l -15.11064,-0.53192 q 1.90951,-1.37367 1.99183,-3.71223 l 1.21159,-34.41868 q 0.0823,-2.33855 -1.72587,-3.84309 z" />
      <path
         id="path5973"
         style="font-style:normal;font-variant:normal;font-weight:normal;font-stretch:normal;font-family:'Titania Modern';-inkscape-font-specification:'Titania Modern';fill:#ffffff"
         d="m 303.52917,574.34041 q 2.41781,-5.68741 8.69232,-7.2578 5.928,-1.5221 12.27802,1.17739 l 23.74355,10.09376 q -2.27512,0.59754 -3.1906,2.75102 l -13.474,31.69487 q -0.91548,2.15349 0.23289,4.2064 l -28.38182,-12.06557 q -3.20262,-1.36148 -4.39526,-2.39007 -2.78009,-2.3554 -1.39513,-5.61323 0.9859,-2.31914 5.34968,-2.61552 2.72512,-0.27583 8.24981,0.37769 5.22512,0.59136 6.28812,0.3913 -1.3639,-0.31903 -3.29651,-1.14062 -7.17829,-3.0516 -10.17072,-7.97474 -3.20637,-5.34008 -0.53035,-11.63488 z m 8.6047,27.45478 q -1.50233,3.53392 4.01943,5.88131 l 4.47262,1.90138 5.6572,-13.30743 q -4.10983,0.92591 -8.29835,1.88356 -4.84152,1.26682 -5.8509,3.64118 z m 3.3527,-22.76268 q -1.69012,3.97567 -0.36248,8.06068 1.24894,4.11677 5.00374,5.71299 4.25175,1.80749 7.46983,0.37209 l 7.45642,-17.69309 -3.25784,-1.38496 q -5.24567,-2.23002 -9.76416,-0.95626 -4.59718,1.30549 -6.54551,5.88855 z" />
      <path
         id="path5975"
         style="font-style:normal;font-variant:normal;font-weight:normal;font-stretch:normal;font-family:'Titania Modern';-inkscape-font-specification:'Titania Modern';fill:#ffffff"
         d="m 274.07909,537.19487 12.355,8.71599 q -1.53395,0.0927 -2.46781,1.41645 -0.34587,0.49027 -0.54466,1.08431 l -2.32771,7.46294 q 4.42321,0.1833 6.67848,1.77431 1.02959,0.72633 2.43427,2.37814 1.32107,1.66624 2.35066,2.39258 2.45138,1.72936 4.576,0.0708 l 2.09002,-1.60953 q 0.30558,-0.22499 0.51311,-0.51916 1.10679,-1.56889 0.0332,-5.0431 l 8.1386,5.74148 q -1.96646,0.0813 -2.88623,0.24014 -2.04135,0.39559 -3.29825,1.34459 l -30.77382,23.74201 -8.72694,-6.15654 11.88335,-38.39024 q 0.69139,-2.22907 -0.0273,-4.64517 z m 5.88555,22.36212 -6.78738,21.27863 19.43584,-14.85215 q -2.54607,-0.0339 -4.80134,-1.6249 -0.93153,-0.65716 -2.14011,-2.17061 -1.29219,-1.49902 -2.17469,-2.12159 -1.27472,-0.89927 -3.53232,-0.50938 z" />
      <path
         id="path5977"
         style="font-style:normal;font-variant:normal;font-weight:normal;font-stretch:normal;font-family:'Titania Modern';-inkscape-font-specification:'Titania Modern';fill:#ffffff"
         d="m 250.3772,539.71227 11.00141,-10.45951 q 1.69586,-1.61234 1.45788,-3.95254 l 10.41817,10.95792 q -2.32522,-0.35579 -4.02108,1.25655 l -24.95972,23.73028 q -1.69587,1.61233 -1.45788,3.95254 l -23.97833,-25.22062 6.99318,-9.71193 q -0.46245,13.27203 6.52863,20.45114 l 3.10278,3.17646 14.91496,-14.18029 z" />
      <path
         id="path5979"
         style="font-style:normal;font-variant:normal;font-weight:normal;font-stretch:normal;font-family:'Titania Modern';-inkscape-font-specification:'Titania Modern';fill:#ffffff"
         d="m 206.50196,483.66898 q 7.74084,-4.82221 15.98764,-3.38545 8.71098,1.50105 13.56492,9.29281 4.91739,7.89363 2.36108,16.27234 -2.40939,7.93373 -10.15023,12.75595 -7.68991,4.79049 -16.01937,3.33452 -8.71098,-1.50105 -13.46975,-9.14003 -4.88566,-7.8427 -2.44372,-16.29154 2.42858,-8.01638 10.16943,-12.8386 z m 15.30643,5.73378 -16.90763,10.53273 q -3.41208,2.12558 -4.74535,4.86478 -1.4994,3.26683 0.53101,6.52613 4.06081,6.51861 12.20907,1.44259 l 16.90763,-10.53273 q 8.14825,-5.07601 4.08744,-11.59462 -3.93391,-6.3149 -12.08217,-1.23888 z" />
      <path
         id="path5981"
         style="font-style:normal;font-variant:normal;font-weight:normal;font-stretch:normal;font-family:'Titania Modern';-inkscape-font-specification:'Titania Modern';fill:#ffffff"
         d="m 209.52831,432.41023 5.12483,14.22499 q -1.98519,-1.26182 -4.18668,-0.46869 l -22.52291,8.11431 q 2.48658,1.59139 3.40172,4.13157 0.36606,1.01607 0.67358,2.75476 0.30752,1.73868 0.65325,2.69831 0.46774,1.29831 2.33548,2.41112 l 20.09563,-7.23983 q 2.20148,-0.79313 2.92581,-3.03111 l 5.12483,14.22499 q -1.9852,-1.26182 -4.18668,-0.46869 l -32.40139,11.67322 q -2.20148,0.79313 -2.92581,3.03111 l -5.12483,-14.225 q 1.9852,1.26182 4.18669,0.4687 l 8.46726,-3.0505 q -2.71238,-1.51004 -3.68854,-4.21956 -0.34572,-0.95963 -0.65324,-2.69831 -0.32786,-1.79514 -0.67358,-2.75476 -0.50841,-1.41121 -2.04868,-2.32313 l -6.03997,2.17602 q -2.20149,0.79313 -2.92582,3.03111 l -5.12483,-14.225 q 1.9852,1.26182 4.18669,0.46869 l 32.40138,-11.67322 q 2.20149,-0.79312 2.92581,-3.0311 z" />
      <path
         id="path5983"
         style="font-style:normal;font-variant:normal;font-weight:normal;font-stretch:normal;font-family:'Titania Modern';-inkscape-font-specification:'Titania Modern';fill:#ffffff"
         d="m 183.86861,396.81506 q 2.21146,-0.19452 3.90215,1.22279 1.69069,1.41732 1.88521,3.62878 0.19451,2.21146 -1.2228,3.90215 -1.41731,1.69069 -3.62877,1.8852 -2.21146,0.19452 -3.90215,-1.22279 -1.69069,-1.41732 -1.88521,-3.62878 -0.19451,-2.21146 1.2228,-3.90215 1.41731,-1.69068 3.62877,-1.8852 z" />
    </g>
    <g
       transform="matrix(1.3996625,0,0,1.3996625,-146.18349,109.79947)"
       style="font-style:normal;font-variant:normal;font-weight:normal;font-stretch:normal;font-size:60px;line-height:125%;font-family:'Gotham Pro';-inkscape-font-specification:'Gotham Pro';text-align:center;letter-spacing:0px;word-spacing:0px;text-anchor:middle;fill:#000000;fill-opacity:1;stroke:none;stroke-width:1px;stroke-linecap:butt;stroke-linejoin:miter;stroke-opacity:1;filter:url(#filter6369);enable-background:new"
       id="g5060">
      <path
         d="m 323.83027,233.92262 q -6.84,-12.54 -12.72,-12.54 l 0,35.64 q 0,2.34 1.86,3.78 l -15.12,0 q 1.86,-1.44 1.86,-3.78 l 0,-35.64 q -5.88,0 -12.72,12.54 l 0.66,-15.12 12.3,0 23.22,0 0.66,15.12 z"
         style="font-style:normal;font-variant:normal;font-weight:normal;font-stretch:normal;font-family:'Titania Modern';-inkscape-font-specification:'Titania Modern';fill:#000000"
         id="path5062" />
      <path
         d="m 365.85652,260.80262 -15.12,0 q 1.2,-0.96 1.2,-2.58 0,-0.6 -0.18,-1.2 l -2.4,-7.44 q -3.72,2.4 -6.48,2.4 -1.26,0 -3.36,-0.54 -2.04,-0.6 -3.3,-0.6 -3,0 -3.78,2.58 l -0.78,2.52 q -0.12,0.36 -0.12,0.72 0,1.92 2.88,4.14 l -9.96,0 q 1.56,-1.2 2.22,-1.86 1.44,-1.5 1.92,-3 l 11.46,-37.14 10.68,0 12.42,38.22 q 0.72,2.22 2.7,3.78 z m -17.7,-14.88 -6.72,-21.3 -7.32,23.34 q 2.1,-1.44 4.86,-1.44 1.14,0 3,0.54 1.92,0.48 3,0.48 1.56,0 3.18,-1.62 z"
         style="font-style:normal;font-variant:normal;font-weight:normal;font-stretch:normal;font-family:'Titania Modern';-inkscape-font-specification:'Titania Modern';fill:#000000"
         id="path5064" />
      <path
         d="m 407.82934,256.30262 q -2.28,5.4 -8.76,5.4 -3.72,0 -6.72,-3.12 -1.38,-1.38 -2.7,-7.32 -1.56,-7.08 -2.64,-9.48 -2.22,-4.74 -6.06,-4.74 l -0.72,0 0,19.98 q 0,2.34 1.86,3.78 l -15.12,0 q 1.86,-1.44 1.86,-3.78 l 0,-34.44 q 0,-2.34 -1.86,-3.78 l 15.12,0 q -1.86,1.44 -1.86,3.78 l 0,11.7 1.2,0 q 3.24,0 5.7,-4.14 2.22,-3.84 4.44,-7.68 3.12,-4.14 7.86,-4.14 4.92,0 6.96,2.88 -0.84,-0.18 -1.26,-0.18 -2.64,0 -4.56,3.06 -3.48,5.76 -3.96,6.36 -3.36,3.78 -9.18,5.1 3.72,0.96 5.58,1.86 2.22,1.08 4.44,3.3 1.98,1.92 3.42,6.36 1.92,5.64 2.4,6.54 1.68,2.94 4.56,2.7 z"
         style="font-style:normal;font-variant:normal;font-weight:normal;font-stretch:normal;font-family:'Titania Modern';-inkscape-font-specification:'Titania Modern';fill:#000000"
         id="path5066" />
      <path
         d="m 285.25121,331.30262 q -2.28,5.4 -8.76,5.4 -3.72,0 -6.72,-3.12 -1.38,-1.38 -2.7,-7.32 -1.56,-7.08 -2.64,-9.48 -2.22,-4.74 -6.06,-4.74 l -0.72,0 0,19.98 q 0,2.34 1.86,3.78 l -15.12,0 q 1.86,-1.44 1.86,-3.78 l 0,-34.44 q 0,-2.34 -1.86,-3.78 l 15.12,0 q -1.86,1.44 -1.86,3.78 l 0,11.7 1.2,0 q 3.24,0 5.7,-4.14 2.22,-3.84 4.44,-7.68 3.12,-4.14 7.86,-4.14 4.92,0 6.96,2.88 -0.84,-0.18 -1.26,-0.18 -2.64,0 -4.56,3.06 -3.48,5.76 -3.96,6.36 -3.36,3.78 -9.18,5.1 3.72,0.96 5.58,1.86 2.22,1.08 4.44,3.3 1.98,1.92 3.42,6.36 1.92,5.64 2.4,6.54 1.68,2.94 4.56,2.7 z"
         style="font-style:normal;font-variant:normal;font-weight:normal;font-stretch:normal;font-family:'Titania Modern';-inkscape-font-specification:'Titania Modern';fill:#000000"
         id="path5068" />
      <path
         d="m 326.59871,335.80262 -15.12,0 q 1.2,-0.96 1.2,-2.58 0,-0.6 -0.18,-1.2 l -2.4,-7.44 q -3.72,2.4 -6.48,2.4 -1.26,0 -3.36,-0.54 -2.04,-0.6 -3.3,-0.6 -3,0 -3.78,2.58 l -0.78,2.52 q -0.12,0.36 -0.12,0.72 0,1.92 2.88,4.14 l -9.96,0 q 1.56,-1.2 2.22,-1.86 1.44,-1.5 1.92,-3 l 11.46,-37.14 10.68,0 12.42,38.22 q 0.72,2.22 2.7,3.78 z m -17.7,-14.88 -6.72,-21.3 -7.32,23.34 q 2.1,-1.44 4.86,-1.44 1.14,0 3,0.54 1.92,0.48 3,0.48 1.56,0 3.18,-1.62 z"
         style="font-style:normal;font-variant:normal;font-weight:normal;font-stretch:normal;font-family:'Titania Modern';-inkscape-font-specification:'Titania Modern';fill:#000000"
         id="path5070" />
      <path
         d="m 343.73152,334.24262 q 2.1,0.06 3.78,-0.66 1.74,-0.72 2.94,-1.98 1.26,-1.32 1.92,-3 0.66,-1.74 0.66,-3.72 0,-5.28 -2.7,-8.28 -2.64,-3.06 -7.56,-3.06 l -4.26,0 0.06,-2.94 3.54,0 q 2.46,0 4.2,-0.66 1.74,-0.66 2.82,-1.74 1.14,-1.08 1.62,-2.52 0.54,-1.5 0.54,-3.12 0,-1.32 -0.3,-2.64 -0.24,-1.32 -0.78,-2.28 -0.54,-1.02 -1.44,-1.62 -0.84,-0.66 -2.04,-0.66 -2.22,0 -3.12,1.02 -0.84,1.02 -0.84,2.7 0,0.42 0.18,1.08 0.24,0.6 0.66,1.02 -1.08,1.5 -2.52,2.16 -1.38,0.66 -2.94,0.66 -1.68,0 -3.36,-0.72 -1.68,-0.72 -3,-1.92 -1.32,-1.2 -2.16,-2.76 -0.84,-1.56 -0.84,-3.3 0,-0.66 0.18,-1.5 1.32,0.3 2.16,0.48 0.9,0.12 1.32,0.12 0.72,0 2.7,-0.24 1.98,-0.24 4.2,-0.54 2.28,-0.3 4.32,-0.54 2.1,-0.24 3,-0.24 4.56,0 7.62,0.72 3.12,0.66 4.98,1.92 1.92,1.26 2.7,3.06 0.84,1.74 0.84,3.9 0,1.92 -0.6,3.6 -0.54,1.68 -1.92,2.94 -1.32,1.26 -3.54,2.04 -2.16,0.78 -5.4,0.96 3.78,0.18 6.66,1.26 2.88,1.08 4.8,2.7 1.92,1.62 2.82,3.66 0.9,2.04 0.72,4.2 -0.36,3.84 -2.58,6.36 -2.22,2.46 -5.4,3.9 -3.12,1.44 -6.72,1.92 -3.6,0.54 -6.66,0.42 -3.6,0 -6.72,-0.6 -3.12,-0.66 -5.4,-1.86 -2.28,-1.2 -3.6,-2.88 -1.26,-1.74 -1.26,-3.9 0,-1.26 0.48,-2.34 0.48,-1.08 1.26,-1.86 0.84,-0.84 1.98,-1.32 1.14,-0.48 2.4,-0.48 5.16,0 6.48,4.56 -1.8,0.12 -2.88,1.08 -1.08,0.96 -1.08,2.16 0,1.02 0.6,1.98 0.6,0.96 1.56,1.68 1.02,0.72 2.28,1.2 1.26,0.42 2.64,0.42 z"
         style="font-style:normal;font-variant:normal;font-weight:normal;font-stretch:normal;font-family:'Titania Modern';-inkscape-font-specification:'Titania Modern';fill:#000000"
         id="path5072" />
      <path
         d="m 408.74715,335.80262 -15.12,0 q 1.2,-0.96 1.2,-2.58 0,-0.6 -0.18,-1.2 l -2.4,-7.44 q -3.72,2.4 -6.48,2.4 -1.26,0 -3.36,-0.54 -2.04,-0.6 -3.3,-0.6 -3,0 -3.78,2.58 l -0.78,2.52 q -0.12,0.36 -0.12,0.72 0,1.92 2.88,4.14 l -9.96,0 q 1.56,-1.2 2.22,-1.86 1.44,-1.5 1.92,-3 l 11.46,-37.14 10.68,0 12.42,38.22 q 0.72,2.22 2.7,3.78 z m -17.7,-14.88 -6.72,-21.3 -7.32,23.34 q 2.1,-1.44 4.86,-1.44 1.14,0 3,0.54 1.92,0.48 3,0.48 1.56,0 3.18,-1.62 z"
         style="font-style:normal;font-variant:normal;font-weight:normal;font-stretch:normal;font-family:'Titania Modern';-inkscape-font-specification:'Titania Modern';fill:#000000"
         id="path5074" />
      <path
         d="m 426.17996,295.30262 q 0,-0.96 0.66,-1.5 l -17.7,0 q 1.44,1.14 2.52,2.4 1.08,1.26 1.56,2.04 l 16.92,30.06 q -2.46,4.08 -4.92,3.54 -3.42,-0.66 -2.28,-4.8 -2.82,0.18 -4.26,1.68 -1.38,1.44 -1.38,3.12 0.06,1.68 1.56,3.06 1.5,1.38 4.5,1.38 2.58,0 4.62,-1.44 2.1,-1.5 4.08,-4.86 1.26,-2.04 2.64,-5.22 0.96,-2.28 2.34,-5.46 1.38,-3.18 2.88,-6.42 1.5,-3.3 2.82,-6.24 1.38,-3 2.28,-4.8 1.32,-2.88 2.4,-4.38 1.08,-1.56 1.92,-2.34 0.9,-0.78 1.56,-1.08 0.72,-0.3 1.32,-0.72 l -11.22,0.12 q 0.96,0.54 1.62,1.08 0.66,0.48 0.9,1.32 0.24,0.84 -0.12,2.28 -0.3,1.44 -1.38,3.78 l -5.52,12.36 -9.6,-16.68 q -0.72,-1.14 -0.72,-2.28 z m 4.98,-3.84 q -2.04,0 -4.02,-0.36 -1.92,-0.42 -3.48,-1.14 -1.5,-0.72 -2.46,-1.74 -0.96,-1.02 -0.96,-2.4 0,-1.08 0.96,-1.62 1.02,-0.6 2.28,-0.36 1.26,0.24 2.4,1.32 1.14,1.02 1.44,3.18 0.72,0.78 1.68,1.14 1.02,0.36 2.04,0.36 1.02,-0.06 1.98,-0.42 1.02,-0.36 1.68,-1.08 0.3,-2.16 1.44,-3.18 1.14,-1.08 2.4,-1.32 1.26,-0.24 2.22,0.36 1.02,0.54 1.02,1.62 0,1.38 -0.9,2.4 -0.9,1.02 -2.4,1.74 -1.5,0.72 -3.42,1.14 -1.92,0.36 -3.9,0.36 z"
         style="font-style:normal;font-variant:normal;font-weight:normal;font-stretch:normal;font-family:'Titania Modern';-inkscape-font-specification:'Titania Modern';fill:#000000"
         id="path5076" />
      <path
         d="m 257.7159,409.24262 q 2.1,0.06 3.78,-0.66 1.74,-0.72 2.94,-1.98 1.26,-1.32 1.92,-3 0.66,-1.74 0.66,-3.72 0,-5.28 -2.7,-8.28 -2.64,-3.06 -7.56,-3.06 l -4.26,0 0.06,-2.94 3.54,0 q 2.46,0 4.2,-0.66 1.74,-0.66 2.82,-1.74 1.14,-1.08 1.62,-2.52 0.54,-1.5 0.54,-3.12 0,-1.32 -0.3,-2.64 -0.24,-1.32 -0.78,-2.28 -0.54,-1.02 -1.44,-1.62 -0.84,-0.66 -2.04,-0.66 -2.22,0 -3.12,1.02 -0.84,1.02 -0.84,2.7 0,0.42 0.18,1.08 0.24,0.6 0.66,1.02 -1.08,1.5 -2.52,2.16 -1.38,0.66 -2.94,0.66 -1.68,0 -3.36,-0.72 -1.68,-0.72 -3,-1.92 -1.32,-1.2 -2.16,-2.76 -0.84,-1.56 -0.84,-3.3 0,-0.66 0.18,-1.5 1.32,0.3 2.16,0.48 0.9,0.12 1.32,0.12 0.72,0 2.7,-0.24 1.98,-0.24 4.2,-0.54 2.28,-0.3 4.32,-0.54 2.1,-0.24 3,-0.24 4.56,0 7.62,0.72 3.12,0.66 4.98,1.92 1.92,1.26 2.7,3.06 0.84,1.74 0.84,3.9 0,1.92 -0.6,3.6 -0.54,1.68 -1.92,2.94 -1.32,1.26 -3.54,2.04 -2.16,0.78 -5.4,0.96 3.78,0.18 6.66,1.26 2.88,1.08 4.8,2.7 1.92,1.62 2.82,3.66 0.9,2.04 0.72,4.2 -0.36,3.84 -2.58,6.36 -2.22,2.46 -5.4,3.9 -3.12,1.44 -6.72,1.92 -3.6,0.54 -6.66,0.42 -3.6,0 -6.72,-0.6 -3.12,-0.66 -5.4,-1.86 -2.28,-1.2 -3.6,-2.88 -1.26,-1.74 -1.26,-3.9 0,-1.26 0.48,-2.34 0.48,-1.08 1.26,-1.86 0.84,-0.84 1.98,-1.32 1.14,-0.48 2.4,-0.48 5.16,0 6.48,4.56 -1.8,0.12 -2.88,1.08 -1.08,0.96 -1.08,2.16 0,1.02 0.6,1.98 0.6,0.96 1.56,1.68 1.02,0.72 2.28,1.2 1.26,0.42 2.64,0.42 z"
         style="font-style:normal;font-variant:normal;font-weight:normal;font-stretch:normal;font-family:'Titania Modern';-inkscape-font-specification:'Titania Modern';fill:#000000"
         id="path5078" />
      <path
         d="m 282.71152,406.42262 q 2.88,0.24 4.38,-2.34 0.42,-0.84 1.98,-5.94 1.32,-4.14 3.18,-6.12 2.34,-2.4 6.06,-3.54 3.12,-0.96 6,-0.72 -2.22,-0.9 -8.82,-2.34 -5.46,-1.26 -7.74,-2.64 -3.3,-2.1 -3.3,-5.94 0,-5.64 4.32,-7.2 2.22,-0.84 8.94,-0.84 l 26.28,0 q -1.86,1.44 -1.86,3.78 l 0,34.44 q 0,2.34 1.86,3.78 l -15.12,0 q 1.86,-1.44 1.86,-3.78 l 0,-14.1 q 0,-2.34 -2.7,-2.34 -3.96,0 -5.7,3.84 -0.9,1.92 -1.92,7.86 -0.84,4.98 -2.22,6.42 -3,3.12 -6.72,3.12 -6.48,0 -8.76,-5.4 z m 15.54,-29.58 q 0,3 2.52,5.1 1.32,1.08 5.34,3.12 3.48,1.74 4.62,3.12 l 0,-16.98 -4.8,0 q -7.68,0 -7.68,5.64 z"
         style="font-style:normal;font-variant:normal;font-weight:normal;font-stretch:normal;font-family:'Titania Modern';-inkscape-font-specification:'Titania Modern';fill:#000000"
         id="path5080" />
      <path
         d="m 366.73965,410.86262 -15.12,0 q 1.86,-1.44 1.86,-3.78 l 0,-23.94 q -2.34,1.8 -5.04,1.8 -1.08,0 -2.82,-0.3 -1.74,-0.3 -2.76,-0.3 -1.38,0 -3.06,1.38 l 0,21.36 q 0,2.34 1.86,3.78 l -15.12,0 q 1.86,-1.44 1.86,-3.78 l 0,-34.44 q 0,-2.34 -1.86,-3.78 l 15.12,0 q -1.86,1.44 -1.86,3.78 l 0,9 q 2.34,-2.04 5.22,-2.04 1.02,0 2.76,0.3 1.8,0.3 2.82,0.3 1.5,0 2.88,-1.14 l 0,-6.42 q 0,-2.34 -1.86,-3.78 l 15.12,0 q -1.86,1.44 -1.86,3.78 l 0,34.44 q 0,2.34 1.86,3.78 z"
         style="font-style:normal;font-variant:normal;font-weight:normal;font-stretch:normal;font-family:'Titania Modern';-inkscape-font-specification:'Titania Modern';fill:#000000"
         id="path5082" />
      <path
         d="m 409.95277,389.92262 q 0,9.12 -5.58,15.36 -5.88,6.6 -15.06,6.6 -9.3,0 -15.06,-6.6 -5.46,-6.24 -5.46,-15.36 0,-9.06 5.64,-15.36 5.88,-6.6 14.88,-6.6 9.24,0 15.12,6.54 5.52,6.3 5.52,15.42 z m -12.96,9.96 0,-19.92 q 0,-4.02 -1.62,-6.6 -1.98,-3 -5.82,-3 -7.68,0 -7.68,9.6 l 0,19.92 q 0,9.6 7.68,9.6 7.44,0 7.44,-9.6 z"
         style="font-style:normal;font-variant:normal;font-weight:normal;font-stretch:normal;font-family:'Titania Modern';-inkscape-font-specification:'Titania Modern';fill:#000000"
         id="path5084" />
      <path
         d="m 452.63809,410.86262 -15.12,0 q 1.86,-1.44 1.86,-3.78 l 0,-23.94 q -2.34,1.8 -5.04,1.8 -1.08,0 -2.82,-0.3 -1.74,-0.3 -2.76,-0.3 -1.38,0 -3.06,1.38 l 0,21.36 q 0,2.34 1.86,3.78 l -15.12,0 q 1.86,-1.44 1.86,-3.78 l 0,-34.44 q 0,-2.34 -1.86,-3.78 l 15.12,0 q -1.86,1.44 -1.86,3.78 l 0,9 q 2.34,-2.04 5.22,-2.04 1.02,0 2.76,0.3 1.8,0.3 2.82,0.3 1.5,0 2.88,-1.14 l 0,-6.42 q 0,-2.34 -1.86,-3.78 l 15.12,0 q -1.86,1.44 -1.86,3.78 l 0,34.44 q 0,2.34 1.86,3.78 z"
         style="font-style:normal;font-variant:normal;font-weight:normal;font-stretch:normal;font-family:'Titania Modern';-inkscape-font-specification:'Titania Modern';fill:#000000"
         id="path5086" />
    </g>
    <g
       id="flowRoot4212"
       style="font-style:normal;font-variant:normal;font-weight:normal;font-stretch:normal;font-size:60px;line-height:125%;font-family:'Gotham Pro';-inkscape-font-specification:'Gotham Pro';text-align:center;letter-spacing:0px;word-spacing:0px;text-anchor:middle;fill:#ffffff;fill-opacity:1;stroke:none;stroke-width:1px;stroke-linecap:butt;stroke-linejoin:miter;stroke-opacity:1;filter:url(#filter6369);enable-background:new"
       transform="matrix(1.3996625,0,0,1.3996625,-147.69873,108.28423)">
      <path
         id="path5902"
         style="font-style:normal;font-variant:normal;font-weight:normal;font-stretch:normal;font-family:'Titania Modern';-inkscape-font-specification:'Titania Modern'"
         d="m 323.83027,233.92262 q -6.84,-12.54 -12.72,-12.54 l 0,35.64 q 0,2.34 1.86,3.78 l -15.12,0 q 1.86,-1.44 1.86,-3.78 l 0,-35.64 q -5.88,0 -12.72,12.54 l 0.66,-15.12 12.3,0 23.22,0 0.66,15.12 z" />
      <path
         id="path5904"
         style="font-style:normal;font-variant:normal;font-weight:normal;font-stretch:normal;font-family:'Titania Modern';-inkscape-font-specification:'Titania Modern'"
         d="m 365.85652,260.80262 -15.12,0 q 1.2,-0.96 1.2,-2.58 0,-0.6 -0.18,-1.2 l -2.4,-7.44 q -3.72,2.4 -6.48,2.4 -1.26,0 -3.36,-0.54 -2.04,-0.6 -3.3,-0.6 -3,0 -3.78,2.58 l -0.78,2.52 q -0.12,0.36 -0.12,0.72 0,1.92 2.88,4.14 l -9.96,0 q 1.56,-1.2 2.22,-1.86 1.44,-1.5 1.92,-3 l 11.46,-37.14 10.68,0 12.42,38.22 q 0.72,2.22 2.7,3.78 z m -17.7,-14.88 -6.72,-21.3 -7.32,23.34 q 2.1,-1.44 4.86,-1.44 1.14,0 3,0.54 1.92,0.48 3,0.48 1.56,0 3.18,-1.62 z" />
      <path
         id="path5906"
         style="font-style:normal;font-variant:normal;font-weight:normal;font-stretch:normal;font-family:'Titania Modern';-inkscape-font-specification:'Titania Modern'"
         d="m 407.82934,256.30262 q -2.28,5.4 -8.76,5.4 -3.72,0 -6.72,-3.12 -1.38,-1.38 -2.7,-7.32 -1.56,-7.08 -2.64,-9.48 -2.22,-4.74 -6.06,-4.74 l -0.72,0 0,19.98 q 0,2.34 1.86,3.78 l -15.12,0 q 1.86,-1.44 1.86,-3.78 l 0,-34.44 q 0,-2.34 -1.86,-3.78 l 15.12,0 q -1.86,1.44 -1.86,3.78 l 0,11.7 1.2,0 q 3.24,0 5.7,-4.14 2.22,-3.84 4.44,-7.68 3.12,-4.14 7.86,-4.14 4.92,0 6.96,2.88 -0.84,-0.18 -1.26,-0.18 -2.64,0 -4.56,3.06 -3.48,5.76 -3.96,6.36 -3.36,3.78 -9.18,5.1 3.72,0.96 5.58,1.86 2.22,1.08 4.44,3.3 1.98,1.92 3.42,6.36 1.92,5.64 2.4,6.54 1.68,2.94 4.56,2.7 z" />
      <path
         id="path5908"
         style="font-style:normal;font-variant:normal;font-weight:normal;font-stretch:normal;font-family:'Titania Modern';-inkscape-font-specification:'Titania Modern'"
         d="m 285.25121,331.30262 q -2.28,5.4 -8.76,5.4 -3.72,0 -6.72,-3.12 -1.38,-1.38 -2.7,-7.32 -1.56,-7.08 -2.64,-9.48 -2.22,-4.74 -6.06,-4.74 l -0.72,0 0,19.98 q 0,2.34 1.86,3.78 l -15.12,0 q 1.86,-1.44 1.86,-3.78 l 0,-34.44 q 0,-2.34 -1.86,-3.78 l 15.12,0 q -1.86,1.44 -1.86,3.78 l 0,11.7 1.2,0 q 3.24,0 5.7,-4.14 2.22,-3.84 4.44,-7.68 3.12,-4.14 7.86,-4.14 4.92,0 6.96,2.88 -0.84,-0.18 -1.26,-0.18 -2.64,0 -4.56,3.06 -3.48,5.76 -3.96,6.36 -3.36,3.78 -9.18,5.1 3.72,0.96 5.58,1.86 2.22,1.08 4.44,3.3 1.98,1.92 3.42,6.36 1.92,5.64 2.4,6.54 1.68,2.94 4.56,2.7 z" />
      <path
         id="path5910"
         style="font-style:normal;font-variant:normal;font-weight:normal;font-stretch:normal;font-family:'Titania Modern';-inkscape-font-specification:'Titania Modern'"
         d="m 326.59871,335.80262 -15.12,0 q 1.2,-0.96 1.2,-2.58 0,-0.6 -0.18,-1.2 l -2.4,-7.44 q -3.72,2.4 -6.48,2.4 -1.26,0 -3.36,-0.54 -2.04,-0.6 -3.3,-0.6 -3,0 -3.78,2.58 l -0.78,2.52 q -0.12,0.36 -0.12,0.72 0,1.92 2.88,4.14 l -9.96,0 q 1.56,-1.2 2.22,-1.86 1.44,-1.5 1.92,-3 l 11.46,-37.14 10.68,0 12.42,38.22 q 0.72,2.22 2.7,3.78 z m -17.7,-14.88 -6.72,-21.3 -7.32,23.34 q 2.1,-1.44 4.86,-1.44 1.14,0 3,0.54 1.92,0.48 3,0.48 1.56,0 3.18,-1.62 z" />
      <path
         id="path5912"
         style="font-style:normal;font-variant:normal;font-weight:normal;font-stretch:normal;font-family:'Titania Modern';-inkscape-font-specification:'Titania Modern'"
         d="m 343.73152,334.24262 q 2.1,0.06 3.78,-0.66 1.74,-0.72 2.94,-1.98 1.26,-1.32 1.92,-3 0.66,-1.74 0.66,-3.72 0,-5.28 -2.7,-8.28 -2.64,-3.06 -7.56,-3.06 l -4.26,0 0.06,-2.94 3.54,0 q 2.46,0 4.2,-0.66 1.74,-0.66 2.82,-1.74 1.14,-1.08 1.62,-2.52 0.54,-1.5 0.54,-3.12 0,-1.32 -0.3,-2.64 -0.24,-1.32 -0.78,-2.28 -0.54,-1.02 -1.44,-1.62 -0.84,-0.66 -2.04,-0.66 -2.22,0 -3.12,1.02 -0.84,1.02 -0.84,2.7 0,0.42 0.18,1.08 0.24,0.6 0.66,1.02 -1.08,1.5 -2.52,2.16 -1.38,0.66 -2.94,0.66 -1.68,0 -3.36,-0.72 -1.68,-0.72 -3,-1.92 -1.32,-1.2 -2.16,-2.76 -0.84,-1.56 -0.84,-3.3 0,-0.66 0.18,-1.5 1.32,0.3 2.16,0.48 0.9,0.12 1.32,0.12 0.72,0 2.7,-0.24 1.98,-0.24 4.2,-0.54 2.28,-0.3 4.32,-0.54 2.1,-0.24 3,-0.24 4.56,0 7.62,0.72 3.12,0.66 4.98,1.92 1.92,1.26 2.7,3.06 0.84,1.74 0.84,3.9 0,1.92 -0.6,3.6 -0.54,1.68 -1.92,2.94 -1.32,1.26 -3.54,2.04 -2.16,0.78 -5.4,0.96 3.78,0.18 6.66,1.26 2.88,1.08 4.8,2.7 1.92,1.62 2.82,3.66 0.9,2.04 0.72,4.2 -0.36,3.84 -2.58,6.36 -2.22,2.46 -5.4,3.9 -3.12,1.44 -6.72,1.92 -3.6,0.54 -6.66,0.42 -3.6,0 -6.72,-0.6 -3.12,-0.66 -5.4,-1.86 -2.28,-1.2 -3.6,-2.88 -1.26,-1.74 -1.26,-3.9 0,-1.26 0.48,-2.34 0.48,-1.08 1.26,-1.86 0.84,-0.84 1.98,-1.32 1.14,-0.48 2.4,-0.48 5.16,0 6.48,4.56 -1.8,0.12 -2.88,1.08 -1.08,0.96 -1.08,2.16 0,1.02 0.6,1.98 0.6,0.96 1.56,1.68 1.02,0.72 2.28,1.2 1.26,0.42 2.64,0.42 z" />
      <path
         id="path5914"
         style="font-style:normal;font-variant:normal;font-weight:normal;font-stretch:normal;font-family:'Titania Modern';-inkscape-font-specification:'Titania Modern'"
         d="m 408.74715,335.80262 -15.12,0 q 1.2,-0.96 1.2,-2.58 0,-0.6 -0.18,-1.2 l -2.4,-7.44 q -3.72,2.4 -6.48,2.4 -1.26,0 -3.36,-0.54 -2.04,-0.6 -3.3,-0.6 -3,0 -3.78,2.58 l -0.78,2.52 q -0.12,0.36 -0.12,0.72 0,1.92 2.88,4.14 l -9.96,0 q 1.56,-1.2 2.22,-1.86 1.44,-1.5 1.92,-3 l 11.46,-37.14 10.68,0 12.42,38.22 q 0.72,2.22 2.7,3.78 z m -17.7,-14.88 -6.72,-21.3 -7.32,23.34 q 2.1,-1.44 4.86,-1.44 1.14,0 3,0.54 1.92,0.48 3,0.48 1.56,0 3.18,-1.62 z" />
      <path
         id="path5916"
         style="font-style:normal;font-variant:normal;font-weight:normal;font-stretch:normal;font-family:'Titania Modern';-inkscape-font-specification:'Titania Modern'"
         d="m 426.17996,295.30262 q 0,-0.96 0.66,-1.5 l -17.7,0 q 1.44,1.14 2.52,2.4 1.08,1.26 1.56,2.04 l 16.92,30.06 q -2.46,4.08 -4.92,3.54 -3.42,-0.66 -2.28,-4.8 -2.82,0.18 -4.26,1.68 -1.38,1.44 -1.38,3.12 0.06,1.68 1.56,3.06 1.5,1.38 4.5,1.38 2.58,0 4.62,-1.44 2.1,-1.5 4.08,-4.86 1.26,-2.04 2.64,-5.22 0.96,-2.28 2.34,-5.46 1.38,-3.18 2.88,-6.42 1.5,-3.3 2.82,-6.24 1.38,-3 2.28,-4.8 1.32,-2.88 2.4,-4.38 1.08,-1.56 1.92,-2.34 0.9,-0.78 1.56,-1.08 0.72,-0.3 1.32,-0.72 l -11.22,0.12 q 0.96,0.54 1.62,1.08 0.66,0.48 0.9,1.32 0.24,0.84 -0.12,2.28 -0.3,1.44 -1.38,3.78 l -5.52,12.36 -9.6,-16.68 q -0.72,-1.14 -0.72,-2.28 z m 4.98,-3.84 q -2.04,0 -4.02,-0.36 -1.92,-0.42 -3.48,-1.14 -1.5,-0.72 -2.46,-1.74 -0.96,-1.02 -0.96,-2.4 0,-1.08 0.96,-1.62 1.02,-0.6 2.28,-0.36 1.26,0.24 2.4,1.32 1.14,1.02 1.44,3.18 0.72,0.78 1.68,1.14 1.02,0.36 2.04,0.36 1.02,-0.06 1.98,-0.42 1.02,-0.36 1.68,-1.08 0.3,-2.16 1.44,-3.18 1.14,-1.08 2.4,-1.32 1.26,-0.24 2.22,0.36 1.02,0.54 1.02,1.62 0,1.38 -0.9,2.4 -0.9,1.02 -2.4,1.74 -1.5,0.72 -3.42,1.14 -1.92,0.36 -3.9,0.36 z" />
      <path
         id="path5918"
         style="font-style:normal;font-variant:normal;font-weight:normal;font-stretch:normal;font-family:'Titania Modern';-inkscape-font-specification:'Titania Modern'"
         d="m 257.7159,409.24262 q 2.1,0.06 3.78,-0.66 1.74,-0.72 2.94,-1.98 1.26,-1.32 1.92,-3 0.66,-1.74 0.66,-3.72 0,-5.28 -2.7,-8.28 -2.64,-3.06 -7.56,-3.06 l -4.26,0 0.06,-2.94 3.54,0 q 2.46,0 4.2,-0.66 1.74,-0.66 2.82,-1.74 1.14,-1.08 1.62,-2.52 0.54,-1.5 0.54,-3.12 0,-1.32 -0.3,-2.64 -0.24,-1.32 -0.78,-2.28 -0.54,-1.02 -1.44,-1.62 -0.84,-0.66 -2.04,-0.66 -2.22,0 -3.12,1.02 -0.84,1.02 -0.84,2.7 0,0.42 0.18,1.08 0.24,0.6 0.66,1.02 -1.08,1.5 -2.52,2.16 -1.38,0.66 -2.94,0.66 -1.68,0 -3.36,-0.72 -1.68,-0.72 -3,-1.92 -1.32,-1.2 -2.16,-2.76 -0.84,-1.56 -0.84,-3.3 0,-0.66 0.18,-1.5 1.32,0.3 2.16,0.48 0.9,0.12 1.32,0.12 0.72,0 2.7,-0.24 1.98,-0.24 4.2,-0.54 2.28,-0.3 4.32,-0.54 2.1,-0.24 3,-0.24 4.56,0 7.62,0.72 3.12,0.66 4.98,1.92 1.92,1.26 2.7,3.06 0.84,1.74 0.84,3.9 0,1.92 -0.6,3.6 -0.54,1.68 -1.92,2.94 -1.32,1.26 -3.54,2.04 -2.16,0.78 -5.4,0.96 3.78,0.18 6.66,1.26 2.88,1.08 4.8,2.7 1.92,1.62 2.82,3.66 0.9,2.04 0.72,4.2 -0.36,3.84 -2.58,6.36 -2.22,2.46 -5.4,3.9 -3.12,1.44 -6.72,1.92 -3.6,0.54 -6.66,0.42 -3.6,0 -6.72,-0.6 -3.12,-0.66 -5.4,-1.86 -2.28,-1.2 -3.6,-2.88 -1.26,-1.74 -1.26,-3.9 0,-1.26 0.48,-2.34 0.48,-1.08 1.26,-1.86 0.84,-0.84 1.98,-1.32 1.14,-0.48 2.4,-0.48 5.16,0 6.48,4.56 -1.8,0.12 -2.88,1.08 -1.08,0.96 -1.08,2.16 0,1.02 0.6,1.98 0.6,0.96 1.56,1.68 1.02,0.72 2.28,1.2 1.26,0.42 2.64,0.42 z" />
      <path
         id="path5920"
         style="font-style:normal;font-variant:normal;font-weight:normal;font-stretch:normal;font-family:'Titania Modern';-inkscape-font-specification:'Titania Modern'"
         d="m 282.71152,406.42262 q 2.88,0.24 4.38,-2.34 0.42,-0.84 1.98,-5.94 1.32,-4.14 3.18,-6.12 2.34,-2.4 6.06,-3.54 3.12,-0.96 6,-0.72 -2.22,-0.9 -8.82,-2.34 -5.46,-1.26 -7.74,-2.64 -3.3,-2.1 -3.3,-5.94 0,-5.64 4.32,-7.2 2.22,-0.84 8.94,-0.84 l 26.28,0 q -1.86,1.44 -1.86,3.78 l 0,34.44 q 0,2.34 1.86,3.78 l -15.12,0 q 1.86,-1.44 1.86,-3.78 l 0,-14.1 q 0,-2.34 -2.7,-2.34 -3.96,0 -5.7,3.84 -0.9,1.92 -1.92,7.86 -0.84,4.98 -2.22,6.42 -3,3.12 -6.72,3.12 -6.48,0 -8.76,-5.4 z m 15.54,-29.58 q 0,3 2.52,5.1 1.32,1.08 5.34,3.12 3.48,1.74 4.62,3.12 l 0,-16.98 -4.8,0 q -7.68,0 -7.68,5.64 z" />
      <path
         id="path5922"
         style="font-style:normal;font-variant:normal;font-weight:normal;font-stretch:normal;font-family:'Titania Modern';-inkscape-font-specification:'Titania Modern'"
         d="m 366.73965,410.86262 -15.12,0 q 1.86,-1.44 1.86,-3.78 l 0,-23.94 q -2.34,1.8 -5.04,1.8 -1.08,0 -2.82,-0.3 -1.74,-0.3 -2.76,-0.3 -1.38,0 -3.06,1.38 l 0,21.36 q 0,2.34 1.86,3.78 l -15.12,0 q 1.86,-1.44 1.86,-3.78 l 0,-34.44 q 0,-2.34 -1.86,-3.78 l 15.12,0 q -1.86,1.44 -1.86,3.78 l 0,9 q 2.34,-2.04 5.22,-2.04 1.02,0 2.76,0.3 1.8,0.3 2.82,0.3 1.5,0 2.88,-1.14 l 0,-6.42 q 0,-2.34 -1.86,-3.78 l 15.12,0 q -1.86,1.44 -1.86,3.78 l 0,34.44 q 0,2.34 1.86,3.78 z" />
      <path
         id="path5924"
         style="font-style:normal;font-variant:normal;font-weight:normal;font-stretch:normal;font-family:'Titania Modern';-inkscape-font-specification:'Titania Modern'"
         d="m 409.95277,389.92262 q 0,9.12 -5.58,15.36 -5.88,6.6 -15.06,6.6 -9.3,0 -15.06,-6.6 -5.46,-6.24 -5.46,-15.36 0,-9.06 5.64,-15.36 5.88,-6.6 14.88,-6.6 9.24,0 15.12,6.54 5.52,6.3 5.52,15.42 z m -12.96,9.96 0,-19.92 q 0,-4.02 -1.62,-6.6 -1.98,-3 -5.82,-3 -7.68,0 -7.68,9.6 l 0,19.92 q 0,9.6 7.68,9.6 7.44,0 7.44,-9.6 z" />
      <path
         id="path5926"
         style="font-style:normal;font-variant:normal;font-weight:normal;font-stretch:normal;font-family:'Titania Modern';-inkscape-font-specification:'Titania Modern'"
         d="m 452.63809,410.86262 -15.12,0 q 1.86,-1.44 1.86,-3.78 l 0,-23.94 q -2.34,1.8 -5.04,1.8 -1.08,0 -2.82,-0.3 -1.74,-0.3 -2.76,-0.3 -1.38,0 -3.06,1.38 l 0,21.36 q 0,2.34 1.86,3.78 l -15.12,0 q 1.86,-1.44 1.86,-3.78 l 0,-34.44 q 0,-2.34 -1.86,-3.78 l 15.12,0 q -1.86,1.44 -1.86,3.78 l 0,9 q 2.34,-2.04 5.22,-2.04 1.02,0 2.76,0.3 1.8,0.3 2.82,0.3 1.5,0 2.88,-1.14 l 0,-6.42 q 0,-2.34 -1.86,-3.78 l 15.12,0 q -1.86,1.44 -1.86,3.78 l 0,34.44 q 0,2.34 1.86,3.78 z" />
    </g>
  </g>
</svg>
